<?xml version="1.0" encoding="UTF-8" standalone="no"?>
<!-- Created with Inkscape (http://www.inkscape.org/) -->

<svg
   xmlns:ns1="http://www.iki.fi/pav/software/textext/"
   xmlns:dc="http://purl.org/dc/elements/1.1/"
   xmlns:cc="http://creativecommons.org/ns#"
   xmlns:rdf="http://www.w3.org/1999/02/22-rdf-syntax-ns#"
   xmlns:svg="http://www.w3.org/2000/svg"
   xmlns="http://www.w3.org/2000/svg"
   xmlns:sodipodi="http://sodipodi.sourceforge.net/DTD/sodipodi-0.dtd"
   xmlns:inkscape="http://www.inkscape.org/namespaces/inkscape"
   width="210mm"
   height="297mm"
   viewBox="0 0 210 297"
   version="1.1"
   id="svg8"
   inkscape:version="0.92.2 (5c3e80d, 2017-08-06)"
   sodipodi:docname="fontsize_i0_92_2_tt0_8_0_pdf2svg.svg">
  <sodipodi:namedview
     id="base"
     pagecolor="#ffffff"
     bordercolor="#666666"
     borderopacity="1.0"
     inkscape:pageopacity="0.0"
     inkscape:pageshadow="2"
     inkscape:zoom="7.1470889"
     inkscape:cx="383.12265"
     inkscape:cy="561.61863"
     inkscape:document-units="mm"
     inkscape:current-layer="layer1"
     showgrid="false"
     inkscape:window-width="1920"
     inkscape:window-height="1058"
     inkscape:window-x="-8"
     inkscape:window-y="-8"
     inkscape:window-maximized="1"
     showguides="true"
     inkscape:guide-bbox="true"
     inkscape:measure-start="294.665,556.739"
     inkscape:measure-end="294.665,565.755">
    <sodipodi:guide
       position="93.649572,147.30374"
       orientation="0,1"
       id="guide871"
       inkscape:locked="false" />
    <sodipodi:guide
       position="77.112107,149.6893"
       orientation="0,1"
       id="guide873"
       inkscape:locked="false" />
    <sodipodi:guide
       position="78.417053,149.86977"
       orientation="0,1"
       id="guide1062"
       inkscape:locked="false" />
  </sodipodi:namedview>
  <defs
     id="defs2" />
  <metadata
     id="metadata5">
    <rdf:RDF>
      <cc:Work
         rdf:about="">
        <dc:format>image/svg+xml</dc:format>
        <dc:type
           rdf:resource="http://purl.org/dc/dcmitype/StillImage" />
        <dc:title></dc:title>
      </cc:Work>
    </rdf:RDF>
  </metadata>
  <g
     id="layer1"
     inkscape:groupmode="layer"
     inkscape:label="Ebene 1">
    <text
       xml:space="preserve"
       style="font-style:normal;font-variant:normal;font-weight:normal;font-stretch:normal;font-size:7.05555534px;line-height:1000%;font-family:'Lucida Calligraphy';-inkscape-font-specification:'Lucida Calligraphy';letter-spacing:0px;word-spacing:0px;fill:#000000;fill-opacity:1;stroke:none;stroke-width:0.26458332px;stroke-linecap:butt;stroke-linejoin:miter;stroke-opacity:1"
       x="78.655449"
       y="149.70454"
       id="text869"><tspan
         sodipodi:role="line"
         id="tspan867"
         x="78.655449"
         y="149.70454"
         style="font-style:normal;font-variant:normal;font-weight:normal;font-stretch:normal;font-size:3.88055563px;font-family:'Times New Roman';-inkscape-font-specification:'Times New Roman, ';stroke-width:0.26458332px">Hello World!</tspan></text>
    <g
       id="g1556"
       ns1:jacobian_sqrt="0.352778"
       ns1:inkscapeversion="0.92.2"
       ns1:alignment="middle center"
       ns1:scale="1.0"
       ns1:preamble="C:\\Users\\winkler\\AppData\\Roaming\\inkscape\\extensions\\default_packages.tex"
       ns1:text="\\fontsize{11pt}{1em}{\\selectfont Hello World!}"
       ns1:pdfconverter="pdf2svg"
       ns1:texconverter="pdflatex"
       ns1:version="0.8.0"
       transform="matrix(0.352778,0,0,0.352778,49.221932,102.16499)">
      <g
         id="surface1">
        <g
           id="g1537"
           style="fill:#000000;fill-opacity:1">
          <path
             id="path1527"
             transform="translate(148.712,134.765)"
             d="m 6.6875,-6.59375 c 0,-0.390625 0.015625,-0.515625 0.859375,-0.515625 H 7.8125 v -0.34375 c -0.390625,0.03125 -1.1875,0.03125 -1.609375,0.03125 -0.40625,0 -1.234375,0 -1.609375,-0.03125 v 0.34375 h 0.265625 c 0.828125,0 0.859375,0.125 0.859375,0.515625 v 2.546875 H 2.453125 V -6.59375 c 0,-0.390625 0.015625,-0.515625 0.859375,-0.515625 h 0.265625 v -0.34375 c -0.375,0.03125 -1.1875,0.03125 -1.609375,0.03125 -0.40625,0 -1.234375,0 -1.609375,-0.03125 v 0.34375 H 0.625 c 0.84375,0 0.859375,0.125 0.859375,0.515625 v 5.75 c 0,0.390625 -0.015625,0.5 -0.859375,0.5 H 0.359375 V 0 c 0.375,-0.03125 1.1875,-0.03125 1.609375,-0.03125 0.40625,0 1.234375,0 1.609375,0.03125 V -0.34375 H 3.3125 c -0.84375,0 -0.859375,-0.109375 -0.859375,-0.5 V -3.703125 H 5.71875 v 2.859375 c 0,0.390625 -0.03125,0.5 -0.859375,0.5 H 4.59375 V 0 c 0.375,-0.03125 1.1875,-0.03125 1.59375,-0.03125 0.421875,0 1.234375,0 1.625,0.03125 V -0.34375 H 7.546875 c -0.84375,0 -0.859375,-0.109375 -0.859375,-0.5 z m 0,0"
             style="stroke:none"
             inkscape:connector-curvature="0" />
          <path
             id="path1529"
             transform="translate(156.89382,134.765)"
             d="m 1.21875,-2.75 c 0.0625,-1.625 0.984375,-1.890625 1.359375,-1.890625 1.125,0 1.234375,1.46875 1.234375,1.890625 z M 1.203125,-2.515625 H 4.25 c 0.25,0 0.28125,0 0.28125,-0.234375 0,-1.078125 -0.59375,-2.140625 -1.953125,-2.140625 -1.265625,0 -2.265625,1.125 -2.265625,2.484375 0,1.46875 1.140625,2.53125 2.390625,2.53125 1.328125,0 1.828125,-1.21875 1.828125,-1.421875 0,-0.109375 -0.09375,-0.125 -0.140625,-0.125 -0.109375,0 -0.125,0.0625 -0.140625,0.140625 -0.390625,1.125 -1.375,1.125 -1.484375,1.125 -0.546875,0 -0.984375,-0.328125 -1.234375,-0.734375 C 1.203125,-1.40625 1.203125,-2.125 1.203125,-2.515625 Z m 0,0"
             style="stroke:none"
             inkscape:connector-curvature="0" />
          <path
             id="path1531"
             transform="translate(161.74183,134.765)"
             d="m 1.9375,-7.5625 -1.578125,0.109375 v 0.34375 c 0.765625,0 0.84375,0.078125 0.84375,0.609375 v 5.671875 c 0,0.484375 -0.109375,0.484375 -0.84375,0.484375 V 0 C 0.71875,-0.015625 1.296875,-0.03125 1.578125,-0.03125 1.84375,-0.03125 2.375,-0.015625 2.78125,0 v -0.34375 c -0.734375,0 -0.84375,0 -0.84375,-0.484375 z m 0,0"
             style="stroke:none"
             inkscape:connector-curvature="0" />
          <path
             id="path1533"
             transform="translate(164.77238,134.765)"
             d="m 1.9375,-7.5625 -1.578125,0.109375 v 0.34375 c 0.765625,0 0.84375,0.078125 0.84375,0.609375 v 5.671875 c 0,0.484375 -0.109375,0.484375 -0.84375,0.484375 V 0 C 0.71875,-0.015625 1.296875,-0.03125 1.578125,-0.03125 1.84375,-0.03125 2.375,-0.015625 2.78125,0 v -0.34375 c -0.734375,0 -0.84375,0 -0.84375,-0.484375 z m 0,0"
             style="stroke:none"
             inkscape:connector-curvature="0" />
          <path
             id="path1535"
             transform="translate(167.80292,134.765)"
             d="m 5.140625,-2.328125 c 0,-1.40625 -1.09375,-2.5625 -2.421875,-2.5625 -1.359375,0 -2.40625,1.1875 -2.40625,2.5625 0,1.40625 1.125,2.453125 2.40625,2.453125 1.3125,0 2.421875,-1.078125 2.421875,-2.453125 z M 2.71875,-0.15625 c -0.46875,0 -0.9375,-0.21875 -1.234375,-0.734375 -0.28125,-0.46875 -0.28125,-1.140625 -0.28125,-1.53125 0,-0.421875 0,-1.015625 0.265625,-1.5 0.296875,-0.5 0.8125,-0.71875 1.25,-0.71875 0.484375,0 0.953125,0.234375 1.234375,0.703125 0.28125,0.46875 0.28125,1.109375 0.28125,1.515625 0,0.390625 0,0.984375 -0.25,1.46875 C 3.75,-0.46875 3.265625,-0.15625 2.71875,-0.15625 Z m 0,0"
             style="stroke:none"
             inkscape:connector-curvature="0" />
        </g>
        <g
           id="g1541"
           style="fill:#000000;fill-opacity:1">
          <path
             id="path1539"
             transform="translate(176.8902,134.765)"
             d="M 9.90625,-6.375 C 10.109375,-7 10.578125,-7.109375 11,-7.109375 v -0.34375 c -0.328125,0.03125 -0.65625,0.03125 -0.984375,0.03125 -0.3125,0 -1.015625,-0.015625 -1.296875,-0.03125 v 0.34375 c 0.71875,0.015625 0.9375,0.375 0.9375,0.578125 0,0.0625 -0.03125,0.15625 -0.046875,0.21875 L 7.96875,-1.28125 6.234375,-6.625 C 6.21875,-6.65625 6.1875,-6.734375 6.1875,-6.78125 c 0,-0.328125 0.640625,-0.328125 0.921875,-0.328125 v -0.34375 c -0.390625,0.03125 -1.125,0.03125 -1.546875,0.03125 -0.421875,0 -0.890625,-0.015625 -1.328125,-0.03125 v 0.34375 c 0.625,0 0.84375,0 0.984375,0.390625 L 5.453125,-5.953125 3.9375,-1.28125 2.1875,-6.640625 C 2.171875,-6.671875 2.15625,-6.75 2.15625,-6.78125 c 0,-0.328125 0.640625,-0.328125 0.921875,-0.328125 v -0.34375 c -0.390625,0.03125 -1.140625,0.03125 -1.546875,0.03125 -0.421875,0 -0.890625,-0.015625 -1.328125,-0.03125 v 0.34375 c 0.8125,0 0.859375,0.046875 0.984375,0.453125 l 2.1875,6.6875 c 0.03125,0.09375 0.0625,0.203125 0.203125,0.203125 0.15625,0 0.171875,-0.078125 0.21875,-0.21875 l 1.796875,-5.53125 1.8125,5.546875 c 0.03125,0.09375 0.0625,0.203125 0.203125,0.203125 0.15625,0 0.171875,-0.078125 0.21875,-0.21875 z m 0,0"
             style="stroke:none"
             inkscape:connector-curvature="0" />
        </g>
        <g
           id="g1553"
           style="fill:#000000;fill-opacity:1">
          <path
             id="path1543"
             transform="translate(187.19712,134.765)"
             d="m 5.140625,-2.328125 c 0,-1.40625 -1.09375,-2.5625 -2.421875,-2.5625 -1.359375,0 -2.40625,1.1875 -2.40625,2.5625 0,1.40625 1.125,2.453125 2.40625,2.453125 1.3125,0 2.421875,-1.078125 2.421875,-2.453125 z M 2.71875,-0.15625 c -0.46875,0 -0.9375,-0.21875 -1.234375,-0.734375 -0.28125,-0.46875 -0.28125,-1.140625 -0.28125,-1.53125 0,-0.421875 0,-1.015625 0.265625,-1.5 0.296875,-0.5 0.8125,-0.71875 1.25,-0.71875 0.484375,0 0.953125,0.234375 1.234375,0.703125 0.28125,0.46875 0.28125,1.109375 0.28125,1.515625 0,0.390625 0,0.984375 -0.25,1.46875 C 3.75,-0.46875 3.265625,-0.15625 2.71875,-0.15625 Z m 0,0"
             style="stroke:none"
             inkscape:connector-curvature="0" />
          <path
             id="path1545"
             transform="translate(192.65167,134.765)"
             d="m 1.828125,-3.625 v -1.203125 l -1.515625,0.125 v 0.34375 c 0.75,0 0.84375,0.078125 0.84375,0.609375 v 2.921875 c 0,0.484375 -0.125,0.484375 -0.84375,0.484375 V 0 c 0.421875,-0.015625 0.9375,-0.03125 1.234375,-0.03125 0.4375,0 0.953125,0 1.390625,0.03125 V -0.34375 H 2.703125 c -0.8125,0 -0.828125,-0.109375 -0.828125,-0.5 v -1.6875 c 0,-1.078125 0.453125,-2.046875 1.28125,-2.046875 0.078125,0 0.109375,0 0.125,0.015625 -0.03125,0 -0.25,0.140625 -0.25,0.421875 0,0.296875 0.234375,0.46875 0.46875,0.46875 0.203125,0 0.46875,-0.140625 0.46875,-0.484375 0,-0.34375 -0.34375,-0.671875 -0.8125,-0.671875 -0.796875,0 -1.1875,0.734375 -1.328125,1.203125 z m 0,0"
             style="stroke:none"
             inkscape:connector-curvature="0" />
          <path
             id="path1547"
             transform="translate(196.92477,134.765)"
             d="m 1.9375,-7.5625 -1.578125,0.109375 v 0.34375 c 0.765625,0 0.84375,0.078125 0.84375,0.609375 v 5.671875 c 0,0.484375 -0.109375,0.484375 -0.84375,0.484375 V 0 C 0.71875,-0.015625 1.296875,-0.03125 1.578125,-0.03125 1.84375,-0.03125 2.375,-0.015625 2.78125,0 v -0.34375 c -0.734375,0 -0.84375,0 -0.84375,-0.484375 z m 0,0"
             style="stroke:none"
             inkscape:connector-curvature="0" />
          <path
             id="path1549"
             transform="translate(199.95532,134.765)"
             d="M 4.140625,-0.59375 V 0.125 L 5.75,0 v -0.34375 c -0.765625,0 -0.859375,-0.078125 -0.859375,-0.609375 V -7.5625 l -1.5625,0.109375 v 0.34375 c 0.765625,0 0.84375,0.078125 0.84375,0.609375 v 2.359375 c -0.3125,-0.390625 -0.78125,-0.6875 -1.375,-0.6875 -1.28125,0 -2.421875,1.078125 -2.421875,2.484375 0,1.390625 1.0625,2.46875 2.3125,2.46875 0.6875,0 1.1875,-0.375 1.453125,-0.71875 z m 0,-2.921875 v 2.234375 c 0,0.1875 0,0.21875 -0.109375,0.390625 C 3.703125,-0.359375 3.203125,-0.125 2.734375,-0.125 2.25,-0.125 1.859375,-0.40625 1.59375,-0.8125 1.3125,-1.265625 1.28125,-1.890625 1.28125,-2.328125 c 0,-0.40625 0.015625,-1.0625 0.328125,-1.546875 C 1.84375,-4.21875 2.25,-4.578125 2.84375,-4.578125 c 0.390625,0 0.84375,0.15625 1.1875,0.65625 0.109375,0.1875 0.109375,0.203125 0.109375,0.40625 z m 0,0"
             style="stroke:none"
             inkscape:connector-curvature="0" />
          <path
             id="path1551"
             transform="translate(206.01641,134.765)"
             d="M 1.671875,-2.28125 2.09375,-7.25 c 0,-0.359375 -0.296875,-0.5625 -0.578125,-0.5625 -0.28125,0 -0.578125,0.203125 -0.578125,0.5625 l 0.421875,4.953125 c 0.015625,0.171875 0.03125,0.25 0.15625,0.25 0.109375,0 0.140625,-0.046875 0.15625,-0.234375 z m 0.421875,1.703125 c 0,-0.3125 -0.265625,-0.578125 -0.578125,-0.578125 -0.3125,0 -0.578125,0.265625 -0.578125,0.578125 C 0.9375,-0.265625 1.203125,0 1.515625,0 1.828125,0 2.09375,-0.265625 2.09375,-0.578125 Z m 0,0"
             style="stroke:none"
             inkscape:connector-curvature="0" />
        </g>
      </g>
    </g>
  </g>
</svg>
