<?xml version="1.0" encoding="UTF-8" standalone="no"?>
<!-- Created with Inkscape (http://www.inkscape.org/) -->

<svg
   xmlns:ns0="http://www.iki.fi/pav/software/textext/"
   xmlns:dc="http://purl.org/dc/elements/1.1/"
   xmlns:cc="http://creativecommons.org/ns#"
   xmlns:rdf="http://www.w3.org/1999/02/22-rdf-syntax-ns#"
   xmlns:svg="http://www.w3.org/2000/svg"
   xmlns="http://www.w3.org/2000/svg"
   xmlns:sodipodi="http://sodipodi.sourceforge.net/DTD/sodipodi-0.dtd"
   xmlns:inkscape="http://www.inkscape.org/namespaces/inkscape"
   width="210mm"
   height="297mm"
   viewBox="0 0 210 296.99999"
   version="1.1"
   id="svg8"
   inkscape:version="0.92.3 (2405546, 2018-03-11)"
   sodipodi:docname="modified.svg">
  <sodipodi:namedview
     id="base"
     pagecolor="#ffffff"
     bordercolor="#666666"
     borderopacity="1.0"
     inkscape:pageopacity="0.0"
     inkscape:pageshadow="2"
     inkscape:zoom="1.6916131"
     inkscape:cx="389.39034"
     inkscape:cy="403.9307"
     inkscape:document-units="mm"
     inkscape:current-layer="layer1"
     showgrid="false"
     inkscape:window-width="2560"
     inkscape:window-height="1007"
     inkscape:window-x="0"
     inkscape:window-y="0"
     inkscape:window-maximized="1" />
  <defs
     id="defs2" />
  <metadata
     id="metadata5">
    <rdf:RDF>
      <cc:Work
         rdf:about="">
        <dc:format>image/svg+xml</dc:format>
        <dc:type
           rdf:resource="http://purl.org/dc/dcmitype/StillImage" />
        <dc:title />
      </cc:Work>
    </rdf:RDF>
  </metadata>
  <g
     inkscape:label="Layer 1"
     inkscape:groupmode="layer"
     id="layer1">
    <g
       ns0:jacobian_sqrt="0.352778"
       inkscapeversion="0.92.3"
       ns0:alignment="middle center"
       ns0:scale="1.0"
       ns0:preamble="/home/sergei/PycharmProjects/textext/extension/textext/default_packages.tex"
       ns0:text="$$\\lim_{k \\to \\infty} \\left(1+\\frac{1}{k}\\right)^k = e$$"
       ns0:pdfconverter="pstoedit"
       ns0:texconverter="pdflatex"
       ns0:version="0.8.1"
       text-anchor="start"
       word-spacing="normal"
       letter-spacing="normal"
       font-size-adjust="none"
       font-stretch="normal"
       font-weight="normal"
       font-variant="normal"
       font-style="normal"
       fill-opacity="1"
       fill-rule="evenodd"
       fill="none"
       stroke-opacity="1"
       stroke-dashoffset="0"
       stroke-dasharray="none"
       stroke-miterlimit="10.433"
       stroke-linejoin="miter"
       stroke-linecap="butt"
       stroke="black"
       xml:space="preserve"
       transform="matrix(0.352778,0.000000,0.000000,-0.352778,-2.847762,375.380351)"
       id="content">
<path
   id="path837"
   fill="black"
   stroke-width="0"
   d="M268.37,646.31 L266.93,646.2 V645.89 C267.63,645.89,267.71,645.82,267.71,645.33 V640.17 C267.71,639.72,267.6,639.72,266.93,639.72 V639.41 C267.26,639.42,267.79,639.44,268.04,639.44 C268.29,639.44,268.78,639.42,269.15,639.41 V639.72 C268.48,639.72,268.37,639.72,268.37,640.17 Z " />
<path
   id="path839"
   fill="black"
   stroke-width="0"
   d="M271.14,643.8 L269.74,643.69 V643.39 C270.39,643.39,270.48,643.33,270.48,642.84 V640.17 C270.48,639.72,270.37,639.72,269.7,639.72 V639.41 C270.02,639.42,270.56,639.44,270.8,639.44 C271.15,639.44,271.5,639.42,271.84,639.41 V639.72 C271.18,639.72,271.14,639.77,271.14,640.16 Z " />
<path
   id="path841"
   fill="black"
   stroke-width="0"
   d="M271.18,645.53 L271.18,645.56 L271.18,645.59 L271.17,645.62 L271.17,645.65 L271.16,645.67 L271.15,645.7 L271.14,645.72 L271.13,645.75 L271.12,645.77 L271.11,645.8 L271.1,645.82 L271.08,645.84 L271.07,645.86 L271.05,645.88 L271.04,645.9 L271.02,645.91 L271,645.93 L270.98,645.95 L270.96,645.96 L270.94,645.98 L270.92,645.99 L270.9,646 L270.87,646.01 L270.85,646.02 L270.83,646.03 L270.8,646.04 L270.78,646.04 L270.75,646.05 L270.73,646.05 L270.7,646.06 L270.68,646.06 L270.65,646.06 C270.34,646.06,270.12,645.79,270.12,645.53 C270.12,645.26,270.34,645.01,270.65,645.01 C270.93,645.01,271.18,645.21,271.18,645.53 Z " />
<path
   id="path843"
   fill="black"
   stroke-width="0"
   d="M273.24,642.83 V640.17 C273.24,639.72,273.13,639.72,272.46,639.72 V639.41 C272.81,639.42,273.32,639.44,273.59,639.44 C273.85,639.44,274.36,639.42,274.7,639.41 V639.72 C274.04,639.72,273.92,639.72,273.92,640.17 V642 C273.92,643.03,274.63,643.59,275.27,643.59 C275.9,643.59,276.01,643.05,276.01,642.48 V640.17 C276.01,639.72,275.9,639.72,275.23,639.72 V639.41 C275.58,639.42,276.09,639.44,276.36,639.44 C276.62,639.44,277.14,639.42,277.48,639.41 V639.72 C276.81,639.72,276.7,639.72,276.7,640.17 V642 C276.7,643.03,277.4,643.59,278.04,643.59 C278.67,643.59,278.78,643.05,278.78,642.48 V640.17 C278.78,639.72,278.67,639.72,278,639.72 V639.41 C278.35,639.42,278.86,639.44,279.13,639.44 C279.39,639.44,279.91,639.42,280.25,639.41 V639.72 C279.73,639.72,279.48,639.72,279.47,640.02 V641.92 C279.47,642.77,279.47,643.08,279.16,643.44 C279.02,643.6,278.69,643.8,278.11,643.8 C277.28,643.8,276.84,643.21,276.67,642.83 C276.53,643.69,275.79,643.8,275.34,643.8 C274.61,643.8,274.14,643.38,273.86,642.76 V643.8 L272.46,643.69 V643.39 C273.16,643.39,273.24,643.32,273.24,642.83 Z " />
<path
   id="path845"
   fill="black"
   stroke-width="0"
   d="M265.57,637.53 L265.57,637.53 L265.57,637.53 L265.57,637.53 L265.57,637.53 L265.57,637.53 L265.57,637.53 L265.57,637.53 L265.57,637.54 L265.57,637.54 L265.57,637.54 L265.57,637.55 L265.57,637.55 L265.58,637.55 L265.58,637.56 L265.58,637.56 L265.58,637.57 L265.58,637.57 L265.58,637.58 L265.58,637.59 L265.59,637.59 L265.59,637.6 L265.59,637.6 L265.59,637.6 L265.59,637.61 L265.59,637.61 L265.59,637.62 L265.59,637.62 L265.59,637.62 L265.59,637.63 L265.59,637.63 L265.59,637.63 L265.59,637.63 L265.59,637.63 L265.59,637.63 L265.59,637.63 L265.59,637.64 L265.59,637.64 L265.59,637.64 L265.59,637.64 L265.59,637.64 L265.6,637.64 C265.6,637.67,265.57,637.74,265.48,637.74 C265.34,637.74,264.76,637.68,264.59,637.67 C264.53,637.66,264.43,637.65,264.43,637.51 C264.43,637.41,264.53,637.41,264.62,637.41 C264.95,637.41,264.95,637.36,264.95,637.3 C264.95,637.26,264.94,637.21,264.92,637.15 L263.94,633.22 C263.9,633.09,263.9,633.08,263.9,633.06 C263.9,632.96,263.99,632.84,264.14,632.84 C264.33,632.84,264.42,632.98,264.46,633.13 C264.48,633.16,264.78,634.38,264.8,634.48 C265.3,634.43,265.7,634.27,265.7,633.91 C265.7,633.88,265.7,633.84,265.69,633.77 C265.66,633.67,265.66,633.63,265.66,633.56 C265.66,633.06,266.06,632.84,266.4,632.84 C267.08,632.84,267.29,633.9,267.29,633.9 C267.29,633.99,267.2,633.99,267.18,633.99 C267.08,633.99,267.07,633.96,267.04,633.83 C266.95,633.53,266.76,633.03,266.42,633.03 C266.23,633.03,266.18,633.21,266.18,633.4 C266.18,633.52,266.18,633.53,266.22,633.71 C266.23,633.73,266.25,633.85,266.25,633.92 C266.25,634.54,265.41,634.64,265.12,634.66 C265.32,634.79,265.58,635.02,265.7,635.12 C266.06,635.46,266.41,635.78,266.8,635.78 C266.88,635.78,266.97,635.76,267.03,635.69 C266.73,635.64,266.67,635.41,266.67,635.3 C266.67,635.15,266.78,635.04,266.95,635.04 C267.13,635.04,267.34,635.2,267.34,635.49 C267.34,635.72,267.18,635.98,266.8,635.98 C266.41,635.98,266.04,635.69,265.69,635.36 C265.39,635.09,265.16,634.87,264.88,634.75 Z " />
<path
   id="path847"
   fill="black"
   stroke-width="0"
   d="M274.22,634.48 L274.14,634.42 L274.06,634.36 L273.99,634.3 L273.92,634.23 L273.86,634.17 L273.8,634.1 L273.74,634.04 L273.69,633.97 L273.64,633.9 L273.59,633.84 L273.55,633.77 L273.51,633.71 L273.48,633.65 L273.44,633.58 L273.41,633.52 L273.39,633.47 L273.36,633.41 L273.34,633.35 L273.32,633.3 L273.3,633.25 L273.28,633.2 L273.27,633.16 L273.26,633.12 L273.25,633.08 L273.24,633.05 L273.23,633.02 L273.23,632.99 L273.22,632.97 L273.22,632.95 L273.22,632.94 L273.22,632.93 L273.22,632.92 C273.22,632.82,273.29,632.82,273.38,632.82 C273.51,632.82,273.53,632.82,273.57,632.94 C273.61,633.11,273.72,633.56,274.08,633.94 C274.49,634.36,274.84,634.47,275.13,634.56 C275.17,634.57,275.2,634.61,275.2,634.65 C275.2,634.72,275.16,634.73,275.07,634.76 C274.06,635.08,273.7,635.79,273.56,636.4 C273.53,636.48,273.48,636.48,273.38,636.48 C273.29,636.48,273.22,636.48,273.22,636.38 C273.22,636.37,273.29,635.9,273.63,635.42 C273.79,635.18,273.98,634.99,274.22,634.82 H268.6 C268.49,634.82,268.32,634.82,268.32,634.66 C268.32,634.48,268.48,634.48,268.6,634.48 Z " />
<path
   id="path849"
   fill="black"
   stroke-width="0"
   d="M279.77,634.82 L279.73,634.85 L279.7,634.89 L279.67,634.93 L279.64,634.96 L279.61,635 L279.58,635.03 L279.56,635.06 L279.53,635.09 L279.51,635.11 L279.48,635.14 L279.46,635.16 L279.44,635.19 L279.42,635.21 L279.39,635.23 L279.37,635.25 L279.35,635.28 L279.31,635.31 L279.27,635.35 L279.24,635.39 L279.2,635.42 L279.15,635.45 L279.11,635.48 L279.09,635.5 L279.07,635.52 L279.04,635.53 L279.02,635.55 C278.59,635.86,278.14,635.98,277.76,635.98 C276.89,635.98,276.26,635.24,276.26,634.41 H276.46 C276.46,635.07,277.01,635.59,277.65,635.59 C278.3,635.59,278.75,635.07,279.42,634.26 H279.42 C279.14,633.81,278.53,633.1,277.68,633.1 C276.96,633.1,276.46,633.74,276.46,634.41 H276.26 C276.26,633.59,276.86,632.84,277.74,632.84 C278.71,632.84,279.39,633.63,279.64,634 C280.01,633.57,280.12,633.45,280.39,633.27 C280.82,632.96,281.26,632.84,281.65,632.84 C282.52,632.84,283.14,633.58,283.14,634.41 H282.95 C282.95,633.74,282.4,633.22,281.76,633.22 C281.11,633.22,280.66,633.75,279.99,634.56 H279.99 C280.27,635.01,280.88,635.71,281.73,635.71 C282.45,635.71,282.95,635.08,282.95,634.41 H283.14 C283.14,635.23,282.54,635.98,281.67,635.98 C280.7,635.98,280.02,635.18,279.77,634.82 Z " />
<path
   id="path851"
   fill="black"
   stroke-width="0"
   d="M292.31,630.13 L292.31,630.13 L292.31,630.13 L292.31,630.14 L292.31,630.14 L292.31,630.14 L292.31,630.15 L292.31,630.15 L292.31,630.15 L292.3,630.16 L292.3,630.16 L292.3,630.16 L292.3,630.16 L292.3,630.17 L292.3,630.17 L292.3,630.17 L292.3,630.17 L292.29,630.18 L292.29,630.18 L292.29,630.19 L292.28,630.19 L292.28,630.2 L292.28,630.21 L292.27,630.21 L292.27,630.22 C291.9,630.58,291.23,631.25,290.56,632.32 C288.96,634.89,288.23,638.11,288.23,641.94 C288.23,644.61,288.59,648.06,290.23,651.02 C291.02,652.43,291.84,653.24,292.28,653.68 C292.31,653.71,292.31,653.73,292.31,653.76 C292.31,653.86,292.24,653.86,292.1,653.86 C291.96,653.86,291.94,653.86,291.79,653.71 C288.45,650.68,287.4,646.13,287.4,641.95 C287.4,638.04,288.3,634.11,290.83,631.14 C291.03,630.91,291.41,630.5,291.82,630.15 C291.94,630.03,291.96,630.03,292.1,630.03 C292.24,630.03,292.31,630.03,292.31,630.13 Z " />
<path
   id="path853"
   fill="black"
   stroke-width="0"
   d="M295.59,645.77 L295.59,645.78 L295.59,645.79 L295.59,645.8 L295.59,645.81 L295.59,645.82 L295.59,645.83 L295.59,645.84 L295.59,645.85 L295.59,645.86 L295.59,645.87 L295.59,645.88 L295.59,645.88 L295.59,645.89 L295.59,645.9 L295.59,645.9 L295.59,645.91 L295.59,645.92 L295.59,645.92 L295.59,645.94 L295.58,645.95 L295.58,645.96 L295.58,645.97 L295.57,645.97 L295.57,645.98 L295.57,645.99 L295.56,646 L295.55,646 L295.55,646.01 L295.54,646.01 L295.53,646.01 L295.52,646.02 L295.52,646.02 L295.51,646.02 L295.51,646.02 L295.5,646.02 L295.5,646.02 L295.49,646.02 L295.48,646.02 L295.48,646.02 L295.47,646.03 L295.46,646.03 L295.46,646.03 L295.45,646.03 L295.44,646.03 L295.43,646.03 L295.42,646.03 L295.41,646.03 L295.4,646.03 L295.39,646.03 L295.38,646.03 L295.37,646.03 L295.36,646.03 C294.75,645.39,293.87,645.39,293.55,645.39 V645.09 C293.75,645.09,294.34,645.09,294.86,645.34 V640.2 C294.86,639.84,294.83,639.72,293.93,639.72 H293.61 V639.41 C293.96,639.44,294.83,639.44,295.23,639.44 C295.62,639.44,296.49,639.44,296.84,639.41 V639.72 H296.52 C295.62,639.72,295.59,639.83,295.59,640.2 Z " />
<path
   id="path855"
   fill="black"
   stroke-width="0"
   d="M303.93,641.7 H306.72 C306.86,641.7,307.05,641.7,307.05,641.9 C307.05,642.09,306.86,642.09,306.72,642.09 H303.93 V644.88 C303.93,645.02,303.93,645.2,303.73,645.2 C303.54,645.2,303.54,645.02,303.54,644.88 V642.09 H300.74 C300.6,642.09,300.41,642.09,300.41,641.9 C300.41,641.7,300.6,641.7,300.74,641.7 H303.54 V638.92 C303.54,638.78,303.54,638.59,303.73,638.59 C303.93,638.59,303.93,638.78,303.93,638.92 Z " />
<path
   id="path857"
   fill="black"
   stroke-width="0"
   d="M314.21,652.51 L314.21,652.52 L314.21,652.53 L314.21,652.54 L314.21,652.55 L314.21,652.56 L314.21,652.57 L314.21,652.58 L314.21,652.59 L314.21,652.6 L314.21,652.61 L314.21,652.62 L314.21,652.62 L314.21,652.63 L314.2,652.64 L314.2,652.64 L314.2,652.65 L314.2,652.66 L314.2,652.66 L314.2,652.68 L314.2,652.69 L314.19,652.7 L314.19,652.71 L314.19,652.71 L314.18,652.72 L314.18,652.73 L314.17,652.74 L314.17,652.74 L314.16,652.75 L314.15,652.75 L314.14,652.75 L314.14,652.76 L314.13,652.76 L314.13,652.76 L314.12,652.76 L314.12,652.76 L314.11,652.76 L314.1,652.76 L314.1,652.76 L314.09,652.76 L314.08,652.77 L314.08,652.77 L314.07,652.77 L314.06,652.77 L314.05,652.77 L314.04,652.77 L314.04,652.77 L314.03,652.77 L314.02,652.77 L314.01,652.77 L314,652.77 L313.99,652.77 L313.98,652.77 C313.36,652.13,312.48,652.13,312.16,652.13 V651.83 C312.36,651.83,312.95,651.83,313.47,652.08 V646.94 C313.47,646.58,313.44,646.46,312.54,646.46 H312.22 V646.15 C312.57,646.18,313.44,646.18,313.84,646.18 C314.24,646.18,315.1,646.18,315.45,646.15 V646.46 H315.13 C314.24,646.46,314.21,646.57,314.21,646.94 Z " />
<line
   id="line859"
   stroke-width="0.398"
   y2="641.9"
   x2="316.52"
   y1="641.9"
   x1="311.02" />
<path
   id="path861"
   fill="black"
   stroke-width="0"
   d="M313.88,639.36 L313.88,639.36 L313.88,639.37 L313.88,639.37 L313.88,639.37 L313.88,639.37 L313.88,639.37 L313.88,639.38 L313.88,639.38 L313.87,639.39 L313.87,639.39 L313.87,639.39 L313.87,639.4 L313.87,639.4 L313.87,639.41 L313.87,639.41 L313.86,639.42 L313.86,639.42 L313.86,639.43 L313.85,639.43 L313.85,639.44 L313.85,639.44 L313.84,639.44 L313.84,639.45 L313.84,639.45 L313.83,639.45 L313.83,639.45 L313.83,639.45 L313.83,639.46 L313.82,639.46 L313.82,639.46 L313.82,639.46 L313.81,639.46 L313.81,639.46 L313.8,639.47 L313.8,639.47 L313.79,639.47 L313.79,639.47 L313.79,639.47 L313.78,639.47 L313.78,639.47 L313.77,639.47 L313.76,639.47 L313.76,639.47 L313.75,639.47 L313.75,639.47 C313.52,639.47,312.79,639.39,312.53,639.37 C312.45,639.36,312.34,639.35,312.34,639.17 C312.34,639.06,312.43,639.06,312.58,639.06 C313.06,639.06,313.08,638.99,313.08,638.89 L313.05,638.69 L311.6,632.97 C311.56,632.83,311.56,632.81,311.56,632.75 C311.56,632.52,311.76,632.47,311.85,632.47 C311.98,632.47,312.13,632.56,312.19,632.68 C312.24,632.77,312.69,634.6,312.75,634.85 C313.09,634.82,313.91,634.66,313.91,634.01 C313.91,633.94,313.91,633.9,313.88,633.8 C313.86,633.68,313.84,633.56,313.84,633.45 C313.84,632.87,314.24,632.47,314.76,632.47 C315.05,632.47,315.32,632.63,315.54,633 C315.79,633.43,315.9,633.98,315.9,634 C315.9,634.1,315.81,634.1,315.78,634.1 C315.68,634.1,315.67,634.06,315.64,633.92 C315.44,633.2,315.21,632.69,314.77,632.69 C314.58,632.69,314.45,632.8,314.45,633.16 C314.45,633.32,314.49,633.55,314.54,633.71 C314.58,633.88,314.58,633.92,314.58,634.02 C314.58,634.66,313.95,634.95,313.1,635.06 C313.41,635.24,313.73,635.56,313.96,635.8 C314.43,636.32,314.89,636.75,315.38,636.75 C315.44,636.75,315.45,636.75,315.47,636.74 C315.59,636.72,315.6,636.72,315.68,636.66 C315.7,636.65,315.7,636.64,315.72,636.62 C315.24,636.59,315.15,636.21,315.15,636.09 C315.15,635.93,315.26,635.74,315.53,635.74 C315.79,635.74,316.08,635.96,316.08,636.34 C316.08,636.64,315.85,636.97,315.4,636.97 C315.12,636.97,314.67,636.89,313.95,636.1 C313.61,635.72,313.22,635.32,312.84,635.17 Z " />
<path
   id="path863"
   fill="black"
   stroke-width="0"
   d="M322.97,641.94 L322.96,642.67 L322.92,643.4 L322.87,644.13 L322.79,644.86 L322.68,645.58 L322.55,646.29 L322.39,647 L322.2,647.69 L321.98,648.38 L321.86,648.72 L321.73,649.05 L321.6,649.38 L321.45,649.71 L321.3,650.03 L321.14,650.35 L320.97,650.67 L320.79,650.98 L320.61,651.29 L320.41,651.59 L320.21,651.89 L319.99,652.18 L319.77,652.46 L319.54,652.75 C319.34,652.97,318.96,653.38,318.55,653.74 C318.43,653.86,318.41,653.86,318.27,653.86 C318.15,653.86,318.06,653.86,318.06,653.76 C318.06,653.72,318.1,653.68,318.12,653.66 C318.47,653.3,319.14,652.64,319.8,651.56 C321.41,649,322.14,645.77,322.14,641.95 C322.14,639.28,321.78,635.83,320.13,632.87 C319.35,631.46,318.52,630.63,318.1,630.22 C318.08,630.19,318.06,630.16,318.06,630.13 C318.06,630.03,318.15,630.03,318.27,630.03 C318.41,630.03,318.43,630.03,318.58,630.18 C321.92,633.21,322.97,637.76,322.97,641.94 Z " />
<path
   id="path865"
   fill="black"
   stroke-width="0"
   d="M327.23,656.01 L327.23,656.01 L327.23,656.01 L327.24,656.02 L327.24,656.02 L327.24,656.02 L327.24,656.02 L327.24,656.02 L327.24,656.02 L327.24,656.02 L327.24,656.03 L327.24,656.03 L327.24,656.04 L327.24,656.04 L327.24,656.04 L327.24,656.05 L327.25,656.05 L327.25,656.06 L327.25,656.06 L327.25,656.07 L327.25,656.08 L327.25,656.09 L327.25,656.09 L327.26,656.09 L327.26,656.1 L327.26,656.1 L327.26,656.11 L327.26,656.11 L327.26,656.11 L327.26,656.11 L327.26,656.12 L327.26,656.12 L327.26,656.12 L327.26,656.12 L327.26,656.12 L327.26,656.12 L327.26,656.12 L327.26,656.12 L327.26,656.12 L327.26,656.12 L327.26,656.12 C327.26,656.16,327.23,656.22,327.15,656.22 C327.01,656.22,326.43,656.17,326.26,656.15 C326.2,656.15,326.1,656.14,326.1,655.99 C326.1,655.9,326.2,655.9,326.28,655.9 C326.62,655.9,326.62,655.85,326.62,655.79 C326.62,655.74,326.6,655.7,326.59,655.64 L325.6,651.7 C325.57,651.58,325.57,651.56,325.57,651.55 C325.57,651.45,325.65,651.33,325.81,651.33 C326,651.33,326.09,651.47,326.13,651.62 C326.14,651.65,326.44,652.87,326.47,652.97 C326.97,652.92,327.37,652.76,327.37,652.4 C327.37,652.36,327.37,652.33,327.35,652.26 C327.32,652.15,327.32,652.12,327.32,652.04 C327.32,651.55,327.73,651.33,328.07,651.33 C328.74,651.33,328.95,652.38,328.95,652.39 C328.95,652.48,328.86,652.48,328.84,652.48 C328.74,652.48,328.74,652.45,328.7,652.31 C328.62,652.02,328.43,651.52,328.09,651.52 C327.9,651.52,327.84,651.7,327.84,651.88 C327.84,652,327.84,652.02,327.88,652.2 C327.89,652.22,327.92,652.34,327.92,652.41 C327.92,653.03,327.08,653.13,326.79,653.15 C326.99,653.27,327.25,653.5,327.37,653.61 C327.72,653.94,328.07,654.27,328.46,654.27 C328.55,654.27,328.64,654.25,328.7,654.18 C328.39,654.13,328.33,653.89,328.33,653.79 C328.33,653.64,328.45,653.53,328.61,653.53 C328.8,653.53,329.01,653.68,329.01,653.98 C329.01,654.21,328.84,654.46,328.47,654.46 C328.07,654.46,327.71,654.18,327.35,653.85 C327.06,653.57,326.83,653.36,326.54,653.24 Z " />
<path
   id="path867"
   fill="black"
   stroke-width="0"
   d="M339.57,642.66 L339.59,642.66 L339.62,642.66 L339.65,642.66 L339.67,642.66 L339.68,642.66 L339.7,642.67 L339.71,642.67 L339.72,642.67 L339.74,642.67 L339.75,642.67 L339.76,642.68 L339.78,642.68 L339.79,642.69 L339.8,642.69 L339.81,642.7 L339.83,642.7 L339.84,642.71 L339.85,642.72 L339.86,642.73 L339.86,642.73 L339.87,642.74 L339.88,642.75 L339.88,642.76 L339.88,642.76 L339.89,642.77 L339.89,642.77 L339.89,642.78 L339.89,642.79 L339.9,642.79 L339.9,642.8 L339.9,642.81 L339.9,642.82 L339.9,642.82 L339.9,642.83 L339.9,642.84 L339.9,642.85 L339.9,642.86 C339.9,643.06,339.71,643.06,339.58,643.06 H333.6 C333.46,643.06,333.27,643.06,333.27,642.86 C333.27,642.66,333.46,642.66,333.61,642.66 Z " />
<path
   id="path869"
   fill="black"
   stroke-width="0"
   d="M339.58,640.73 L339.59,640.73 L339.6,640.73 L339.63,640.73 L339.66,640.74 L339.67,640.74 L339.69,640.74 L339.7,640.74 L339.71,640.74 L339.73,640.74 L339.74,640.74 L339.75,640.75 L339.77,640.75 L339.78,640.75 L339.79,640.76 L339.8,640.76 L339.82,640.77 L339.83,640.78 L339.84,640.78 L339.85,640.79 L339.86,640.8 L339.86,640.81 L339.87,640.81 L339.87,640.82 L339.88,640.82 L339.88,640.83 L339.88,640.83 L339.89,640.84 L339.89,640.85 L339.89,640.85 L339.89,640.86 L339.9,640.87 L339.9,640.87 L339.9,640.88 L339.9,640.89 L339.9,640.9 L339.9,640.91 L339.9,640.91 L339.9,640.92 L339.9,640.93 C339.9,641.13,339.71,641.13,339.57,641.13 H333.61 C333.46,641.13,333.27,641.13,333.27,640.93 C333.27,640.73,333.46,640.73,333.6,640.73 Z " />
<path
   id="path871"
   fill="black"
   stroke-width="0"
   d="M345.1,641.71 L345.12,641.71 L345.15,641.71 L345.19,641.71 L345.22,641.71 L345.26,641.71 L345.3,641.71 L345.34,641.71 L345.39,641.71 L345.43,641.72 L345.48,641.72 L345.52,641.72 L345.57,641.73 L345.62,641.73 L345.67,641.73 L345.78,641.74 L345.89,641.76 L346,641.77 L346.1,641.79 L346.21,641.81 L346.32,641.84 L346.37,641.85 L346.42,641.87 L346.47,641.88 L346.52,641.9 L346.57,641.92 L346.62,641.94 C347.32,642.23,347.37,642.82,347.37,642.96 C347.37,643.4,346.99,643.8,346.3,643.8 V643.59 C346.77,643.59,347.04,643.3,347.04,642.96 C347.04,641.93,345.44,641.93,345.04,641.93 H344.63 C345.02,643.44,346.04,643.59,346.3,643.59 V643.8 C345.2,643.8,343.69,642.84,343.69,641.1 C343.69,640.09,344.28,639.3,345.25,639.3 C346.68,639.3,347.52,640.36,347.52,640.48 C347.52,640.54,347.46,640.6,347.4,640.6 C347.35,640.6,347.33,640.59,347.27,640.51 C346.48,639.52,345.39,639.52,345.27,639.52 C344.5,639.52,344.41,640.36,344.41,640.67 C344.41,640.79,344.42,641.1,344.57,641.71 Z " />
</g>  </g>
</svg>
