<?xml version="1.0" encoding="UTF-8" standalone="no"?>
<!-- Created with Inkscape (http://www.inkscape.org/) -->

<svg
   xmlns:ns0="http://www.iki.fi/pav/software/textext/"
   xmlns:dc="http://purl.org/dc/elements/1.1/"
   xmlns:cc="http://creativecommons.org/ns#"
   xmlns:rdf="http://www.w3.org/1999/02/22-rdf-syntax-ns#"
   xmlns:svg="http://www.w3.org/2000/svg"
   xmlns="http://www.w3.org/2000/svg"
   xmlns:sodipodi="http://sodipodi.sourceforge.net/DTD/sodipodi-0.dtd"
   xmlns:inkscape="http://www.inkscape.org/namespaces/inkscape"
   width="210mm"
   height="297mm"
   viewBox="0 0 210 296.99999"
   version="1.1"
   id="svg8"
   inkscape:version="0.92.3 (2405546, 2018-03-11)"
   sodipodi:docname="modified.svg">
  <sodipodi:namedview
     id="base"
     pagecolor="#ffffff"
     bordercolor="#666666"
     borderopacity="1.0"
     inkscape:pageopacity="0.0"
     inkscape:pageshadow="2"
     inkscape:zoom="0.9072041"
     inkscape:cx="468.13817"
     inkscape:cy="310.39989"
     inkscape:document-units="mm"
     inkscape:current-layer="layer1"
     showgrid="false"
     inkscape:window-width="1276"
     inkscape:window-height="1003"
     inkscape:window-x="0"
     inkscape:window-y="0"
     inkscape:window-maximized="0" />
  <defs
     id="defs2" />
  <metadata
     id="metadata5">
    <rdf:RDF>
      <cc:Work
         rdf:about="">
        <dc:format>image/svg+xml</dc:format>
        <dc:type
           rdf:resource="http://purl.org/dc/dcmitype/StillImage" />
        <dc:title />
      </cc:Work>
    </rdf:RDF>
  </metadata>
  <g
     inkscape:label="Layer 1"
     inkscape:groupmode="layer"
     id="layer1">
    <g
       ns0:inkscapeversion="0.92.3"
       ns0:scale="1.0"
       ns0:preamble="/home/sergei/.config/inkscape/extensions/default_packages.tex"
       ns0:text="$$\\lim_{k \\to \\infty} \\left(1+\\frac{1}{k}\\right)^k = e$$"
       ns0:pdfconverter="pstoedit"
       ns0:texconverter="pdflatex"
       ns0:version="0.7.2"
       word-spacing="normal"
       letter-spacing="normal"
       font-size-adjust="none"
       font-stretch="normal"
       font-weight="normal"
       font-variant="normal"
       font-style="normal"
       stroke-miterlimit="10.433"
       xml:space="preserve"
       transform="matrix(0.705556,0,0,-0.705556,-110.69539,637.46058)"
       id="content"
       style="font-style:normal;font-variant:normal;font-weight:normal;font-stretch:normal;letter-spacing:normal;word-spacing:normal;text-anchor:start;fill:#000000;fill-opacity:1;fill-rule:evenodd;stroke:#000000;stroke-linecap:butt;stroke-linejoin:miter;stroke-miterlimit:10.43299961;stroke-dasharray:none;stroke-dashoffset:0;stroke-opacity:1">
<path
   id="path837"
   word-spacing="normal"
   stroke-miterlimit="10.433"
   letter-spacing="normal"
   font-weight="normal"
   font-variant="normal"
   font-style="normal"
   font-stretch="normal"
   font-size-adjust="none"
   d="m 268.37,696.2 -1.44,-0.11 v -0.31 c 0.7,0 0.78,-0.07 0.78,-0.56 v -5.16 c 0,-0.45 -0.11,-0.45 -0.78,-0.45 v -0.31 c 0.33,0.01 0.86,0.03 1.11,0.03 0.25,0 0.74,-0.02 1.11,-0.03 v 0.31 c -0.67,0 -0.78,0 -0.78,0.45 z"
   inkscape:connector-curvature="0"
   style="font-style:normal;font-variant:normal;font-weight:normal;font-stretch:normal;letter-spacing:normal;word-spacing:normal;text-anchor:start;fill:#000000;fill-opacity:1;fill-rule:evenodd;stroke:#000000;stroke-width:0;stroke-linecap:butt;stroke-linejoin:miter;stroke-miterlimit:10.43299961;stroke-dasharray:none;stroke-opacity:1" />
<path
   id="path839"
   word-spacing="normal"
   stroke-miterlimit="10.433"
   letter-spacing="normal"
   font-weight="normal"
   font-variant="normal"
   font-style="normal"
   font-stretch="normal"
   font-size-adjust="none"
   d="m 271.14,693.69 -1.4,-0.11 v -0.3 c 0.65,0 0.74,-0.06 0.74,-0.55 v -2.67 c 0,-0.45 -0.11,-0.45 -0.78,-0.45 v -0.31 c 0.32,0.01 0.86,0.03 1.1,0.03 0.35,0 0.7,-0.02 1.04,-0.03 v 0.31 c -0.66,0 -0.7,0.05 -0.7,0.44 z"
   inkscape:connector-curvature="0"
   style="font-style:normal;font-variant:normal;font-weight:normal;font-stretch:normal;letter-spacing:normal;word-spacing:normal;text-anchor:start;fill:#000000;fill-opacity:1;fill-rule:evenodd;stroke:#000000;stroke-width:0;stroke-linecap:butt;stroke-linejoin:miter;stroke-miterlimit:10.43299961;stroke-dasharray:none;stroke-opacity:1" />
<path
   id="path841"
   word-spacing="normal"
   stroke-miterlimit="10.433"
   letter-spacing="normal"
   font-weight="normal"
   font-variant="normal"
   font-style="normal"
   font-stretch="normal"
   font-size-adjust="none"
   d="m 271.18,695.42 v 0.03 0.03 l -0.01,0.03 v 0.03 l -0.01,0.02 -0.01,0.03 -0.01,0.02 -0.01,0.03 -0.01,0.02 -0.01,0.03 -0.01,0.02 -0.02,0.02 -0.01,0.02 -0.02,0.02 -0.01,0.02 -0.02,0.01 -0.02,0.02 -0.02,0.02 -0.02,0.01 -0.02,0.02 -0.02,0.01 -0.02,0.01 -0.03,0.01 -0.02,0.01 -0.02,0.01 -0.03,0.01 h -0.02 l -0.03,0.01 h -0.02 l -0.03,0.01 h -0.02 -0.03 c -0.31,0 -0.53,-0.27 -0.53,-0.53 0,-0.27 0.22,-0.52 0.53,-0.52 0.28,0 0.53,0.2 0.53,0.52 z"
   inkscape:connector-curvature="0"
   style="font-style:normal;font-variant:normal;font-weight:normal;font-stretch:normal;letter-spacing:normal;word-spacing:normal;text-anchor:start;fill:#000000;fill-opacity:1;fill-rule:evenodd;stroke:#000000;stroke-width:0;stroke-linecap:butt;stroke-linejoin:miter;stroke-miterlimit:10.43299961;stroke-dasharray:none;stroke-opacity:1" />
<path
   id="path843"
   word-spacing="normal"
   stroke-miterlimit="10.433"
   letter-spacing="normal"
   font-weight="normal"
   font-variant="normal"
   font-style="normal"
   font-stretch="normal"
   font-size-adjust="none"
   d="m 273.24,692.72 v -2.66 c 0,-0.45 -0.11,-0.45 -0.78,-0.45 v -0.31 c 0.35,0.01 0.86,0.03 1.13,0.03 0.26,0 0.77,-0.02 1.11,-0.03 v 0.31 c -0.66,0 -0.78,0 -0.78,0.45 v 1.83 c 0,1.03 0.71,1.58 1.35,1.58 0.63,0 0.74,-0.53 0.74,-1.1 v -2.31 c 0,-0.45 -0.11,-0.45 -0.78,-0.45 v -0.31 c 0.35,0.01 0.86,0.03 1.13,0.03 0.26,0 0.78,-0.02 1.12,-0.03 v 0.31 c -0.67,0 -0.78,0 -0.78,0.45 v 1.83 c 0,1.03 0.7,1.58 1.34,1.58 0.63,0 0.74,-0.53 0.74,-1.1 v -2.31 c 0,-0.45 -0.11,-0.45 -0.78,-0.45 v -0.31 c 0.35,0.01 0.86,0.03 1.13,0.03 0.26,0 0.78,-0.02 1.12,-0.03 v 0.31 c -0.52,0 -0.77,0 -0.78,0.3 v 1.9 c 0,0.85 0,1.16 -0.31,1.52 -0.14,0.16 -0.47,0.36 -1.05,0.36 -0.83,0 -1.27,-0.59 -1.44,-0.97 -0.14,0.86 -0.88,0.97 -1.33,0.97 -0.73,0 -1.2,-0.42 -1.48,-1.04 v 1.04 l -1.4,-0.11 v -0.3 c 0.7,0 0.78,-0.07 0.78,-0.56 z"
   inkscape:connector-curvature="0"
   style="font-style:normal;font-variant:normal;font-weight:normal;font-stretch:normal;letter-spacing:normal;word-spacing:normal;text-anchor:start;fill:#000000;fill-opacity:1;fill-rule:evenodd;stroke:#000000;stroke-width:0;stroke-linecap:butt;stroke-linejoin:miter;stroke-miterlimit:10.43299961;stroke-dasharray:none;stroke-opacity:1" />
<path
   id="path845"
   word-spacing="normal"
   stroke-miterlimit="10.433"
   letter-spacing="normal"
   font-weight="normal"
   font-variant="normal"
   font-style="normal"
   font-stretch="normal"
   font-size-adjust="none"
   d="m 265.57,687.42 v 0 0 0 0 0 0 0 0.01 0 0 0.01 0 h 0.01 v 0.01 0 0.01 0 0.01 0.01 h 0.01 v 0.01 0 0 0.01 0 0.01 0 0 0.01 0 0 0 0 0 0 0.01 0 0 0 0 h 0.01 c 0,0.03 -0.03,0.1 -0.12,0.1 -0.14,0 -0.72,-0.06 -0.89,-0.07 -0.06,-0.01 -0.16,-0.02 -0.16,-0.16 0,-0.1 0.1,-0.1 0.19,-0.1 0.33,0 0.33,-0.05 0.33,-0.1 0,-0.05 -0.01,-0.1 -0.03,-0.16 l -0.98,-3.93 c -0.04,-0.13 -0.04,-0.14 -0.04,-0.16 0,-0.1 0.09,-0.22 0.24,-0.22 0.19,0 0.28,0.14 0.32,0.29 0.02,0.03 0.32,1.25 0.34,1.35 0.5,-0.05 0.9,-0.21 0.9,-0.57 0,-0.03 0,-0.07 -0.01,-0.14 -0.03,-0.1 -0.03,-0.14 -0.03,-0.21 0,-0.5 0.4,-0.72 0.74,-0.72 0.68,0 0.89,1.06 0.89,1.06 0,0.1 -0.09,0.1 -0.11,0.1 -0.1,0 -0.11,-0.04 -0.14,-0.17 -0.09,-0.3 -0.28,-0.8 -0.62,-0.8 -0.19,0 -0.24,0.18 -0.24,0.37 0,0.12 0,0.13 0.04,0.31 0.01,0.02 0.03,0.14 0.03,0.22 0,0.61 -0.84,0.71 -1.13,0.73 0.2,0.13 0.46,0.36 0.58,0.46 0.36,0.33 0.71,0.66 1.1,0.66 0.08,0 0.17,-0.02 0.23,-0.09 -0.3,-0.05 -0.36,-0.28 -0.36,-0.39 0,-0.15 0.11,-0.26 0.28,-0.26 0.18,0 0.39,0.16 0.39,0.45 0,0.23 -0.16,0.49 -0.54,0.49 -0.39,0 -0.76,-0.29 -1.11,-0.61 -0.3,-0.28 -0.53,-0.5 -0.81,-0.62 z"
   inkscape:connector-curvature="0"
   style="font-style:normal;font-variant:normal;font-weight:normal;font-stretch:normal;letter-spacing:normal;word-spacing:normal;text-anchor:start;fill:#000000;fill-opacity:1;fill-rule:evenodd;stroke:#000000;stroke-width:0;stroke-linecap:butt;stroke-linejoin:miter;stroke-miterlimit:10.43299961;stroke-dasharray:none;stroke-opacity:1" />
<path
   id="path847"
   word-spacing="normal"
   stroke-miterlimit="10.433"
   letter-spacing="normal"
   font-weight="normal"
   font-variant="normal"
   font-style="normal"
   font-stretch="normal"
   font-size-adjust="none"
   d="m 274.22,684.37 -0.08,-0.06 -0.08,-0.06 -0.07,-0.06 -0.07,-0.07 -0.06,-0.06 -0.06,-0.07 -0.06,-0.07 -0.05,-0.06 -0.05,-0.07 -0.05,-0.06 -0.04,-0.07 -0.04,-0.06 -0.03,-0.06 -0.04,-0.07 -0.03,-0.06 -0.02,-0.05 -0.03,-0.06 -0.02,-0.06 -0.02,-0.05 -0.02,-0.05 -0.02,-0.05 -0.01,-0.04 -0.01,-0.04 -0.01,-0.04 -0.01,-0.03 -0.01,-0.03 v -0.03 l -0.01,-0.02 v -0.02 -0.01 -0.01 -0.01 c 0,-0.1 0.07,-0.1 0.16,-0.1 0.13,0 0.15,0 0.19,0.12 0.04,0.17 0.15,0.62 0.51,1 0.41,0.42 0.76,0.53 1.05,0.62 0.04,0.01 0.07,0.05 0.07,0.09 0,0.07 -0.04,0.08 -0.13,0.11 -1.01,0.32 -1.37,1.03 -1.51,1.64 -0.03,0.08 -0.08,0.08 -0.18,0.08 -0.09,0 -0.16,0 -0.16,-0.1 0,-0.01 0.07,-0.48 0.41,-0.96 0.16,-0.24 0.35,-0.43 0.59,-0.6 h -5.62 c -0.11,0 -0.28,0 -0.28,-0.17 0,-0.17 0.16,-0.17 0.28,-0.17 z"
   inkscape:connector-curvature="0"
   style="font-style:normal;font-variant:normal;font-weight:normal;font-stretch:normal;letter-spacing:normal;word-spacing:normal;text-anchor:start;fill:#000000;fill-opacity:1;fill-rule:evenodd;stroke:#000000;stroke-width:0;stroke-linecap:butt;stroke-linejoin:miter;stroke-miterlimit:10.43299961;stroke-dasharray:none;stroke-opacity:1" />
<path
   id="path849"
   word-spacing="normal"
   stroke-miterlimit="10.433"
   letter-spacing="normal"
   font-weight="normal"
   font-variant="normal"
   font-style="normal"
   font-stretch="normal"
   font-size-adjust="none"
   d="m 279.77,684.71 -0.04,0.03 -0.03,0.04 -0.03,0.04 -0.03,0.03 -0.03,0.04 -0.03,0.03 -0.02,0.03 -0.03,0.03 -0.02,0.02 -0.03,0.03 -0.02,0.02 -0.02,0.03 -0.02,0.02 -0.03,0.02 -0.02,0.02 -0.02,0.03 -0.04,0.03 -0.04,0.04 -0.03,0.04 -0.04,0.03 -0.05,0.03 -0.04,0.03 -0.02,0.02 -0.02,0.02 -0.03,0.01 -0.02,0.02 c -0.43,0.31 -0.88,0.43 -1.26,0.43 -0.87,0 -1.5,-0.74 -1.5,-1.58 h 0.2 c 0,0.67 0.55,1.19 1.19,1.19 0.65,0 1.1,-0.52 1.77,-1.33 v 0 c -0.28,-0.45 -0.89,-1.16 -1.74,-1.16 -0.72,0 -1.22,0.64 -1.22,1.3 h -0.2 c 0,-0.81 0.6,-1.56 1.48,-1.56 0.97,0 1.65,0.79 1.9,1.16 0.37,-0.43 0.48,-0.55 0.75,-0.73 0.43,-0.31 0.87,-0.43 1.26,-0.43 0.87,0 1.49,0.74 1.49,1.57 h -0.19 c 0,-0.67 -0.55,-1.19 -1.19,-1.19 -0.65,0 -1.1,0.53 -1.77,1.34 v 0 c 0.28,0.45 0.89,1.15 1.74,1.15 0.72,0 1.22,-0.63 1.22,-1.3 h 0.19 c 0,0.82 -0.6,1.57 -1.47,1.57 -0.97,0 -1.65,-0.8 -1.9,-1.16 z"
   inkscape:connector-curvature="0"
   style="font-style:normal;font-variant:normal;font-weight:normal;font-stretch:normal;letter-spacing:normal;word-spacing:normal;text-anchor:start;fill:#000000;fill-opacity:1;fill-rule:evenodd;stroke:#000000;stroke-width:0;stroke-linecap:butt;stroke-linejoin:miter;stroke-miterlimit:10.43299961;stroke-dasharray:none;stroke-opacity:1" />
<path
   id="path851"
   word-spacing="normal"
   stroke-miterlimit="10.433"
   letter-spacing="normal"
   font-weight="normal"
   font-variant="normal"
   font-style="normal"
   font-stretch="normal"
   font-size-adjust="none"
   d="m 292.31,680.02 v 0 0 0.01 0 0 0.01 0 0 h -0.01 v 0.01 0 0 0.01 0 0 0 l -0.01,0.01 v 0 0.01 h -0.01 v 0.01 0 l -0.01,0.01 v 0 c -0.37,0.37 -1.04,1.04 -1.71,2.11 -1.6,2.56 -2.33,5.79 -2.33,9.62 0,2.67 0.36,6.12 2,9.08 0.79,1.41 1.61,2.22 2.05,2.66 0.03,0.03 0.03,0.05 0.03,0.08 0,0.1 -0.07,0.1 -0.21,0.1 -0.14,0 -0.16,0 -0.31,-0.15 -3.34,-3.03 -4.39,-7.58 -4.39,-11.76 0,-3.91 0.9,-7.84 3.43,-10.81 0.2,-0.23 0.58,-0.64 0.99,-1 0.12,-0.11 0.14,-0.11 0.28,-0.11 0.14,0 0.21,0 0.21,0.1 z"
   inkscape:connector-curvature="0"
   style="font-style:normal;font-variant:normal;font-weight:normal;font-stretch:normal;letter-spacing:normal;word-spacing:normal;text-anchor:start;fill:#000000;fill-opacity:1;fill-rule:evenodd;stroke:#000000;stroke-width:0;stroke-linecap:butt;stroke-linejoin:miter;stroke-miterlimit:10.43299961;stroke-dasharray:none;stroke-opacity:1" />
<path
   id="path853"
   word-spacing="normal"
   stroke-miterlimit="10.433"
   letter-spacing="normal"
   font-weight="normal"
   font-variant="normal"
   font-style="normal"
   font-stretch="normal"
   font-size-adjust="none"
   d="m 295.59,695.66 v 0.01 0.01 0.01 0.01 0.01 0.01 0.01 0.01 0.01 0.01 0.01 0 0.01 0.01 0 0.01 0.01 0 0.02 l -0.01,0.01 v 0.01 0.01 h -0.01 v 0.01 0.01 l -0.01,0.01 h -0.01 v 0.01 h -0.01 -0.01 l -0.01,0.01 v 0 h -0.01 v 0 h -0.01 v 0 h -0.01 -0.01 v 0 l -0.01,0.01 h -0.01 v 0 h -0.01 -0.01 -0.01 -0.01 -0.01 -0.01 -0.01 -0.01 -0.01 -0.01 c -0.61,-0.64 -1.49,-0.64 -1.81,-0.64 v -0.31 c 0.2,0 0.79,0 1.31,0.26 v -5.14 c 0,-0.36 -0.03,-0.48 -0.93,-0.48 h -0.32 v -0.31 c 0.35,0.03 1.22,0.03 1.62,0.03 0.39,0 1.26,0 1.61,-0.03 v 0.31 h -0.32 c -0.9,0 -0.93,0.11 -0.93,0.48 z"
   inkscape:connector-curvature="0"
   style="font-style:normal;font-variant:normal;font-weight:normal;font-stretch:normal;letter-spacing:normal;word-spacing:normal;text-anchor:start;fill:#000000;fill-opacity:1;fill-rule:evenodd;stroke:#000000;stroke-width:0;stroke-linecap:butt;stroke-linejoin:miter;stroke-miterlimit:10.43299961;stroke-dasharray:none;stroke-opacity:1" />
<path
   id="path855"
   word-spacing="normal"
   stroke-miterlimit="10.433"
   letter-spacing="normal"
   font-weight="normal"
   font-variant="normal"
   font-style="normal"
   font-stretch="normal"
   font-size-adjust="none"
   d="m 303.93,691.59 h 2.79 c 0.14,0 0.33,0 0.33,0.2 0,0.19 -0.19,0.19 -0.33,0.19 h -2.79 v 2.79 c 0,0.14 0,0.32 -0.2,0.32 -0.19,0 -0.19,-0.18 -0.19,-0.32 v -2.79 h -2.8 c -0.14,0 -0.33,0 -0.33,-0.19 0,-0.2 0.19,-0.2 0.33,-0.2 h 2.8 v -2.78 c 0,-0.14 0,-0.33 0.19,-0.33 0.2,0 0.2,0.19 0.2,0.33 z"
   inkscape:connector-curvature="0"
   style="font-style:normal;font-variant:normal;font-weight:normal;font-stretch:normal;letter-spacing:normal;word-spacing:normal;text-anchor:start;fill:#000000;fill-opacity:1;fill-rule:evenodd;stroke:#000000;stroke-width:0;stroke-linecap:butt;stroke-linejoin:miter;stroke-miterlimit:10.43299961;stroke-dasharray:none;stroke-opacity:1" />
<path
   id="path857"
   word-spacing="normal"
   stroke-miterlimit="10.433"
   letter-spacing="normal"
   font-weight="normal"
   font-variant="normal"
   font-style="normal"
   font-stretch="normal"
   font-size-adjust="none"
   d="m 314.21,702.4 v 0.01 0.01 0.01 0.01 0.01 0.01 0.01 0.01 0.01 0.01 0.01 0 0.01 l -0.01,0.01 v 0 0.01 0.01 0 0.02 0.01 l -0.01,0.01 v 0.01 0 l -0.01,0.01 v 0.01 l -0.01,0.01 v 0 l -0.01,0.01 h -0.01 -0.01 v 0.01 h -0.01 v 0 h -0.01 v 0 h -0.01 -0.01 v 0 h -0.01 l -0.01,0.01 v 0 h -0.01 -0.01 -0.01 -0.01 v 0 h -0.01 -0.01 -0.01 -0.01 -0.01 -0.01 c -0.62,-0.64 -1.5,-0.64 -1.82,-0.64 v -0.3 c 0.2,0 0.79,0 1.31,0.25 v -5.14 c 0,-0.36 -0.03,-0.48 -0.93,-0.48 h -0.32 v -0.31 c 0.35,0.03 1.22,0.03 1.62,0.03 0.4,0 1.26,0 1.61,-0.03 v 0.31 h -0.32 c -0.89,0 -0.92,0.11 -0.92,0.48 z"
   inkscape:connector-curvature="0"
   style="font-style:normal;font-variant:normal;font-weight:normal;font-stretch:normal;letter-spacing:normal;word-spacing:normal;text-anchor:start;fill:#000000;fill-opacity:1;fill-rule:evenodd;stroke:#000000;stroke-width:0;stroke-linecap:butt;stroke-linejoin:miter;stroke-miterlimit:10.43299961;stroke-dasharray:none;stroke-opacity:1" />
<line
   id="line859"
   word-spacing="normal"
   stroke-miterlimit="10.433"
   letter-spacing="normal"
   font-weight="normal"
   font-variant="normal"
   font-style="normal"
   font-stretch="normal"
   font-size-adjust="none"
   y2="691.78998"
   x2="316.51999"
   y1="691.78998"
   x1="311.01999"
   style="font-style:normal;font-variant:normal;font-weight:normal;font-stretch:normal;letter-spacing:normal;word-spacing:normal;text-anchor:start;fill:#000000;fill-opacity:1;fill-rule:evenodd;stroke:#000000;stroke-width:0.398;stroke-linecap:butt;stroke-linejoin:miter;stroke-miterlimit:10.43299961;stroke-dasharray:none;stroke-opacity:1" />
<path
   id="path861"
   word-spacing="normal"
   stroke-miterlimit="10.433"
   letter-spacing="normal"
   font-weight="normal"
   font-variant="normal"
   font-style="normal"
   font-stretch="normal"
   font-size-adjust="none"
   d="m 313.88,689.25 v 0 0.01 0 0 0 0 0.01 0 l -0.01,0.01 v 0 0 0.01 0 0.01 0 l -0.01,0.01 v 0 0.01 h -0.01 v 0.01 0 h -0.01 v 0.01 0 h -0.01 v 0 0 0.01 h -0.01 v 0 0 h -0.01 v 0 l -0.01,0.01 v 0 h -0.01 v 0 0 h -0.01 v 0 h -0.01 -0.01 v 0 h -0.01 v 0 c -0.23,0 -0.96,-0.08 -1.22,-0.1 -0.08,-0.01 -0.19,-0.02 -0.19,-0.19 0,-0.12 0.09,-0.12 0.24,-0.12 0.48,0 0.5,-0.07 0.5,-0.17 l -0.03,-0.2 -1.45,-5.72 c -0.04,-0.14 -0.04,-0.16 -0.04,-0.22 0,-0.23 0.2,-0.28 0.29,-0.28 0.13,0 0.28,0.09 0.34,0.21 0.05,0.09 0.5,1.93 0.56,2.17 0.34,-0.03 1.16,-0.19 1.16,-0.84 0,-0.07 0,-0.11 -0.03,-0.21 -0.02,-0.12 -0.04,-0.24 -0.04,-0.35 0,-0.58 0.4,-0.98 0.92,-0.98 0.29,0 0.56,0.16 0.78,0.53 0.25,0.43 0.36,0.98 0.36,1 0,0.1 -0.09,0.1 -0.12,0.1 -0.1,0 -0.11,-0.04 -0.14,-0.18 -0.2,-0.72 -0.43,-1.23 -0.87,-1.23 -0.19,0 -0.32,0.11 -0.32,0.46 0,0.17 0.04,0.4 0.09,0.56 0.04,0.17 0.04,0.21 0.04,0.31 0,0.64 -0.63,0.93 -1.48,1.04 0.31,0.18 0.63,0.5 0.86,0.74 0.47,0.52 0.93,0.95 1.42,0.95 0.06,0 0.07,0 0.09,-0.01 0.12,-0.02 0.13,-0.02 0.21,-0.08 0.02,-0.01 0.02,-0.02 0.04,-0.04 -0.48,-0.03 -0.57,-0.42 -0.57,-0.53 0,-0.16 0.11,-0.35 0.38,-0.35 0.26,0 0.55,0.22 0.55,0.6 0,0.3 -0.23,0.63 -0.68,0.63 -0.28,0 -0.73,-0.08 -1.45,-0.87 -0.34,-0.38 -0.73,-0.78 -1.11,-0.93 z"
   inkscape:connector-curvature="0"
   style="font-style:normal;font-variant:normal;font-weight:normal;font-stretch:normal;letter-spacing:normal;word-spacing:normal;text-anchor:start;fill:#000000;fill-opacity:1;fill-rule:evenodd;stroke:#000000;stroke-width:0;stroke-linecap:butt;stroke-linejoin:miter;stroke-miterlimit:10.43299961;stroke-dasharray:none;stroke-opacity:1" />
<path
   id="path863"
   word-spacing="normal"
   stroke-miterlimit="10.433"
   letter-spacing="normal"
   font-weight="normal"
   font-variant="normal"
   font-style="normal"
   font-stretch="normal"
   font-size-adjust="none"
   d="m 322.97,691.83 -0.01,0.73 -0.04,0.73 -0.05,0.73 -0.08,0.73 -0.11,0.72 -0.13,0.71 -0.16,0.7 -0.19,0.7 -0.22,0.69 -0.12,0.33 -0.13,0.34 -0.13,0.33 -0.15,0.33 -0.15,0.32 -0.16,0.32 -0.17,0.32 -0.18,0.31 -0.18,0.31 -0.2,0.3 -0.2,0.3 -0.22,0.29 -0.22,0.28 -0.23,0.29 c -0.2,0.22 -0.58,0.63 -0.99,0.99 -0.12,0.12 -0.14,0.12 -0.28,0.12 -0.12,0 -0.21,0 -0.21,-0.1 0,-0.04 0.04,-0.08 0.06,-0.1 0.35,-0.36 1.02,-1.02 1.68,-2.1 1.61,-2.56 2.34,-5.79 2.34,-9.61 0,-2.68 -0.36,-6.12 -2.01,-9.08 -0.78,-1.41 -1.61,-2.24 -2.03,-2.66 -0.02,-0.02 -0.04,-0.06 -0.04,-0.08 0,-0.1 0.09,-0.1 0.21,-0.1 0.14,0 0.16,0 0.31,0.15 3.34,3.02 4.39,7.57 4.39,11.76 z"
   inkscape:connector-curvature="0"
   style="font-style:normal;font-variant:normal;font-weight:normal;font-stretch:normal;letter-spacing:normal;word-spacing:normal;text-anchor:start;fill:#000000;fill-opacity:1;fill-rule:evenodd;stroke:#000000;stroke-width:0;stroke-linecap:butt;stroke-linejoin:miter;stroke-miterlimit:10.43299961;stroke-dasharray:none;stroke-opacity:1" />
<path
   id="path865"
   word-spacing="normal"
   stroke-miterlimit="10.433"
   letter-spacing="normal"
   font-weight="normal"
   font-variant="normal"
   font-style="normal"
   font-stretch="normal"
   font-size-adjust="none"
   d="m 327.23,705.9 v 0 0 l 0.01,0.01 v 0 0 0 0 0 0 0.01 0 0.01 0 0 0.01 h 0.01 v 0.01 0 0.01 0.01 0 0.01 0 h 0.01 v 0.01 0 0.01 0 0 0 0.01 0 0 0 0 0 0 0 0 0 0 c 0,0.04 -0.03,0.1 -0.11,0.1 -0.14,0 -0.72,-0.05 -0.89,-0.07 -0.06,-0.01 -0.16,-0.01 -0.16,-0.16 0,-0.1 0.1,-0.1 0.18,-0.1 0.34,0 0.34,-0.04 0.34,-0.1 0,-0.05 -0.02,-0.09 -0.03,-0.15 l -0.99,-3.94 c -0.03,-0.12 -0.03,-0.14 -0.03,-0.15 0,-0.1 0.08,-0.22 0.24,-0.22 0.19,0 0.28,0.13 0.32,0.29 0.01,0.03 0.31,1.25 0.34,1.35 0.5,-0.05 0.9,-0.21 0.9,-0.57 0,-0.04 0,-0.07 -0.02,-0.14 -0.03,-0.11 -0.03,-0.14 -0.03,-0.22 0,-0.49 0.41,-0.71 0.75,-0.71 0.67,0 0.88,1.05 0.88,1.06 0,0.09 -0.09,0.09 -0.11,0.09 -0.1,0 -0.1,-0.03 -0.14,-0.17 -0.08,-0.29 -0.27,-0.79 -0.61,-0.79 -0.19,0 -0.25,0.18 -0.25,0.36 0,0.12 0,0.14 0.04,0.32 0.01,0.02 0.04,0.13 0.04,0.21 0,0.62 -0.84,0.72 -1.13,0.74 0.2,0.12 0.46,0.35 0.58,0.46 0.35,0.33 0.7,0.66 1.09,0.66 0.09,0 0.18,-0.02 0.24,-0.09 -0.31,-0.05 -0.37,-0.29 -0.37,-0.39 0,-0.15 0.12,-0.26 0.28,-0.26 0.19,0 0.4,0.15 0.4,0.45 0,0.22 -0.17,0.48 -0.54,0.48 -0.4,0 -0.76,-0.28 -1.12,-0.61 -0.29,-0.28 -0.52,-0.49 -0.81,-0.61 z"
   inkscape:connector-curvature="0"
   style="font-style:normal;font-variant:normal;font-weight:normal;font-stretch:normal;letter-spacing:normal;word-spacing:normal;text-anchor:start;fill:#000000;fill-opacity:1;fill-rule:evenodd;stroke:#000000;stroke-width:0;stroke-linecap:butt;stroke-linejoin:miter;stroke-miterlimit:10.43299961;stroke-dasharray:none;stroke-opacity:1" />
<path
   id="path867"
   word-spacing="normal"
   stroke-miterlimit="10.433"
   letter-spacing="normal"
   font-weight="normal"
   font-variant="normal"
   font-style="normal"
   font-stretch="normal"
   font-size-adjust="none"
   d="m 339.57,692.55 h 0.02 0.03 0.03 0.02 0.01 l 0.02,0.01 h 0.01 0.01 0.02 0.01 l 0.01,0.01 h 0.02 l 0.01,0.01 h 0.01 l 0.01,0.01 h 0.02 l 0.01,0.01 0.01,0.01 0.01,0.01 v 0 l 0.01,0.01 0.01,0.01 v 0.01 0 l 0.01,0.01 v 0 0.01 0.01 h 0.01 v 0.01 0.01 0.01 0 0.01 0.01 0.01 0.01 c 0,0.2 -0.19,0.2 -0.32,0.2 h -5.98 c -0.14,0 -0.33,0 -0.33,-0.2 0,-0.2 0.19,-0.2 0.34,-0.2 z"
   inkscape:connector-curvature="0"
   style="font-style:normal;font-variant:normal;font-weight:normal;font-stretch:normal;letter-spacing:normal;word-spacing:normal;text-anchor:start;fill:#000000;fill-opacity:1;fill-rule:evenodd;stroke:#000000;stroke-width:0;stroke-linecap:butt;stroke-linejoin:miter;stroke-miterlimit:10.43299961;stroke-dasharray:none;stroke-opacity:1" />
<path
   id="path869"
   word-spacing="normal"
   stroke-miterlimit="10.433"
   letter-spacing="normal"
   font-weight="normal"
   font-variant="normal"
   font-style="normal"
   font-stretch="normal"
   font-size-adjust="none"
   d="m 339.58,690.62 h 0.01 0.01 0.03 l 0.03,0.01 h 0.01 0.02 0.01 0.01 0.02 0.01 l 0.01,0.01 h 0.02 0.01 l 0.01,0.01 h 0.01 l 0.02,0.01 0.01,0.01 h 0.01 l 0.01,0.01 0.01,0.01 v 0.01 h 0.01 v 0.01 h 0.01 v 0.01 0 l 0.01,0.01 v 0.01 0 0.01 l 0.01,0.01 v 0 0.01 0.01 0.01 0.01 0 0.01 0.01 c 0,0.2 -0.19,0.2 -0.33,0.2 h -5.96 c -0.15,0 -0.34,0 -0.34,-0.2 0,-0.2 0.19,-0.2 0.33,-0.2 z"
   inkscape:connector-curvature="0"
   style="font-style:normal;font-variant:normal;font-weight:normal;font-stretch:normal;letter-spacing:normal;word-spacing:normal;text-anchor:start;fill:#000000;fill-opacity:1;fill-rule:evenodd;stroke:#000000;stroke-width:0;stroke-linecap:butt;stroke-linejoin:miter;stroke-miterlimit:10.43299961;stroke-dasharray:none;stroke-opacity:1" />
<path
   id="path871"
   word-spacing="normal"
   stroke-miterlimit="10.433"
   letter-spacing="normal"
   font-weight="normal"
   font-variant="normal"
   font-style="normal"
   font-stretch="normal"
   font-size-adjust="none"
   d="m 345.1,691.6 h 0.02 0.03 0.04 0.03 0.04 0.04 0.04 0.05 l 0.04,0.01 h 0.05 0.04 l 0.05,0.01 h 0.05 0.05 l 0.11,0.01 0.11,0.02 0.11,0.01 0.1,0.02 0.11,0.02 0.11,0.03 0.05,0.01 0.05,0.02 0.05,0.01 0.05,0.02 0.05,0.02 0.05,0.02 c 0.7,0.29 0.75,0.88 0.75,1.02 0,0.44 -0.38,0.84 -1.07,0.84 v -0.22 c 0.47,0 0.74,-0.28 0.74,-0.62 0,-1.03 -1.6,-1.03 -2,-1.03 h -0.41 c 0.39,1.51 1.41,1.65 1.67,1.65 v 0.22 c -1.1,0 -2.61,-0.96 -2.61,-2.7 0,-1.01 0.59,-1.8 1.56,-1.8 1.43,0 2.27,1.06 2.27,1.18 0,0.05 -0.06,0.12 -0.12,0.12 -0.05,0 -0.07,-0.02 -0.13,-0.09 -0.79,-0.99 -1.88,-0.99 -2,-0.99 -0.77,0 -0.86,0.84 -0.86,1.16 0,0.11 0.01,0.42 0.16,1.03 z"
   inkscape:connector-curvature="0"
   style="font-style:normal;font-variant:normal;font-weight:normal;font-stretch:normal;letter-spacing:normal;word-spacing:normal;text-anchor:start;fill:#000000;fill-opacity:1;fill-rule:evenodd;stroke:#000000;stroke-width:0;stroke-linecap:butt;stroke-linejoin:miter;stroke-miterlimit:10.43299961;stroke-dasharray:none;stroke-opacity:1" />
</g>  </g>
</svg>
