<?xml version="1.0" encoding="UTF-8" standalone="no"?>
<!-- Created with Inkscape (http://www.inkscape.org/) -->

<svg
   xmlns:ns1="http://www.iki.fi/pav/software/textext/"
   xmlns:dc="http://purl.org/dc/elements/1.1/"
   xmlns:cc="http://creativecommons.org/ns#"
   xmlns:rdf="http://www.w3.org/1999/02/22-rdf-syntax-ns#"
   xmlns:svg="http://www.w3.org/2000/svg"
   xmlns="http://www.w3.org/2000/svg"
   xmlns:sodipodi="http://sodipodi.sourceforge.net/DTD/sodipodi-0.dtd"
   xmlns:inkscape="http://www.inkscape.org/namespaces/inkscape"
   width="210mm"
   height="297mm"
   viewBox="0 0 210 297"
   version="1.1"
   id="svg752"
   inkscape:version="0.92.3 (2405546, 2018-03-11)"
   sodipodi:docname="modified.svg">
  <sodipodi:namedview
     id="base"
     pagecolor="#ffffff"
     bordercolor="#666666"
     borderopacity="1.0"
     inkscape:pageopacity="0.0"
     inkscape:pageshadow="2"
     inkscape:zoom="10.938975"
     inkscape:cx="396.85039"
     inkscape:cy="561.25984"
     inkscape:document-units="mm"
     inkscape:current-layer="layer1"
     showgrid="false"
     inkscape:window-width="1920"
     inkscape:window-height="1141"
     inkscape:window-x="0"
     inkscape:window-y="0"
     inkscape:window-maximized="1" />
  <defs
     id="defs746" />
  <metadata
     id="metadata749">
    <rdf:RDF>
      <cc:Work
         rdf:about="">
        <dc:format>image/svg+xml</dc:format>
        <dc:type
           rdf:resource="http://purl.org/dc/dcmitype/StillImage" />
        <dc:title />
      </cc:Work>
    </rdf:RDF>
  </metadata>
  <g
     inkscape:label="Ebene 1"
     inkscape:groupmode="layer"
     id="layer1">
    <g
       ns1:jacobian_sqrt="0.352778"
       inkscapeversion="0.92.3"
       ns1:alignment="middle center"
       ns1:scale="1.0"
       ns1:preamble="/home/winkler/.config/inkscape/extensions/textext/default_packages.tex"
       ns1:text="$$\\lim_{k \\to \\infty} \\left(1+\\frac{1}{k}\\right)^k = e$$"
       ns1:pdfconverter="pstoedit"
       ns1:texconverter="pdflatex"
       ns1:version="0.11.1"
       text-anchor="start"
       word-spacing="normal"
       letter-spacing="normal"
       font-size-adjust="none"
       font-stretch="normal"
       font-weight="normal"
       font-variant="normal"
       font-style="normal"
       fill-opacity="1"
       fill-rule="evenodd"
       fill="none"
       stroke-opacity="1"
       stroke-dashoffset="0"
       stroke-dasharray="none"
       stroke-miterlimit="10.433"
       stroke-linejoin="miter"
       stroke-linecap="butt"
       stroke="black"
       xml:space="preserve"
       transform="matrix(0.352778,0.000000,0.000000,-0.352778,-2.845999,375.387407)"
       id="content">
<path
   id="path4826"
   fill="black"
   stroke-width="0"
   d="M268.37,646.3 L266.93,646.2 V645.9 C267.62,645.9,267.71,645.82,267.71,645.34 V640.16 C267.71,639.73,267.61,639.73,266.93,639.73 V639.41 C267.26,639.43,267.79,639.45,268.04,639.45 C268.28,639.45,268.78,639.43,269.14,639.41 V639.73 C268.48,639.73,268.37,639.73,268.37,640.16 Z " />
<path
   id="path4828"
   fill="black"
   stroke-width="0"
   d="M271.14,643.8 L269.75,643.7 V643.38 C270.39,643.38,270.48,643.32,270.48,642.84 V640.16 C270.48,639.73,270.37,639.73,269.7,639.73 V639.41 C270.01,639.43,270.56,639.45,270.79,639.45 C271.14,639.45,271.48,639.43,271.82,639.41 V639.73 C271.17,639.73,271.14,639.77,271.14,640.16 Z " />
<path
   id="path4830"
   fill="black"
   stroke-width="0"
   d="M271.17,645.54 L271.17,645.57 L271.17,645.6 L271.16,645.62 L271.16,645.65 L271.15,645.68 L271.14,645.7 L271.13,645.73 L271.12,645.75 L271.11,645.77 L271.1,645.8 L271.09,645.82 L271.07,645.84 L271.06,645.86 L271.04,645.88 L271.03,645.9 L271.01,645.91 L270.99,645.93 L270.97,645.95 L270.95,645.96 L270.93,645.97 L270.91,645.99 L270.88,646 L270.86,646.01 L270.84,646.02 L270.81,646.03 L270.79,646.03 L270.77,646.04 L270.74,646.05 L270.72,646.05 L270.69,646.05 L270.66,646.05 L270.64,646.05 C270.34,646.05,270.12,645.79,270.12,645.54 C270.12,645.26,270.34,645.01,270.64,645.01 C270.92,645.01,271.17,645.21,271.17,645.54 Z " />
<path
   id="path4832"
   fill="black"
   stroke-width="0"
   d="M273.23,642.84 V640.16 C273.23,639.73,273.12,639.73,272.45,639.73 V639.41 C272.81,639.43,273.31,639.45,273.57,639.45 C273.84,639.45,274.36,639.43,274.68,639.41 V639.73 C274.03,639.73,273.92,639.73,273.92,640.16 V641.99 C273.92,643.02,274.62,643.59,275.26,643.59 C275.89,643.59,276,643.05,276,642.48 V640.16 C276,639.73,275.89,639.73,275.21,639.73 V639.41 C275.56,639.43,276.07,639.45,276.34,639.45 C276.59,639.45,277.12,639.43,277.45,639.41 V639.73 C276.79,639.73,276.68,639.73,276.68,640.16 V641.99 C276.68,643.02,277.39,643.59,278.01,643.59 C278.64,643.59,278.75,643.05,278.75,642.48 V640.16 C278.75,639.73,278.64,639.73,277.98,639.73 V639.41 C278.32,639.43,278.84,639.45,279.11,639.45 C279.36,639.45,279.87,639.43,280.21,639.41 V639.73 C279.7,639.73,279.45,639.73,279.43,640.02 V641.91 C279.43,642.77,279.43,643.09,279.14,643.43 C279,643.6,278.67,643.8,278.09,643.8 C277.25,643.8,276.81,643.21,276.65,642.84 C276.51,643.7,275.78,643.8,275.32,643.8 C274.61,643.8,274.14,643.38,273.86,642.76 V643.8 L272.45,643.7 V643.38 C273.15,643.38,273.23,643.32,273.23,642.84 Z " />
<path
   id="path4834"
   fill="black"
   stroke-width="0"
   d="M265.58,637.58 L265.58,637.58 L265.58,637.58 L265.58,637.58 L265.58,637.59 L265.58,637.59 L265.58,637.59 L265.58,637.59 L265.58,637.59 L265.58,637.6 L265.59,637.6 L265.59,637.6 L265.59,637.61 L265.59,637.61 L265.59,637.62 L265.59,637.62 L265.59,637.62 L265.59,637.63 L265.6,637.64 L265.6,637.65 L265.6,637.65 L265.6,637.65 L265.6,637.66 L265.61,637.66 L265.61,637.67 L265.61,637.67 L265.61,637.67 L265.61,637.68 L265.61,637.68 L265.61,637.68 L265.61,637.69 L265.61,637.69 L265.61,637.69 L265.61,637.69 L265.61,637.69 L265.61,637.69 L265.61,637.69 C265.61,637.72,265.58,637.78,265.49,637.78 C265.35,637.78,264.77,637.74,264.6,637.72 C264.54,637.71,264.44,637.71,264.44,637.55 C264.44,637.46,264.54,637.46,264.63,637.46 C264.96,637.46,264.96,637.41,264.96,637.35 C264.96,637.3,264.94,637.27,264.93,637.19 L263.94,633.22 C263.91,633.1,263.91,633.08,263.91,633.07 C263.91,632.96,263.99,632.85,264.14,632.85 C264.33,632.85,264.43,632.97,264.47,633.13 C264.49,633.16,264.79,634.4,264.82,634.5 C265.32,634.46,265.71,634.28,265.71,633.93 C265.71,633.9,265.71,633.85,265.69,633.78 C265.68,633.68,265.68,633.65,265.68,633.57 C265.68,633.07,266.08,632.85,266.41,632.85 C267.1,632.85,267.32,633.91,267.32,633.91 C267.32,634,267.22,634,267.19,634 C267.1,634,267.1,633.97,267.05,633.83 C266.97,633.53,266.79,633.03,266.44,633.03 C266.25,633.03,266.19,633.21,266.19,633.4 C266.19,633.52,266.19,633.53,266.24,633.72 C266.24,633.74,266.27,633.86,266.27,633.94 C266.27,634.57,265.43,634.66,265.13,634.68 C265.33,634.8,265.6,635.03,265.71,635.15 C266.07,635.49,266.43,635.82,266.82,635.82 C266.89,635.82,266.99,635.78,267.05,635.72 C266.75,635.68,266.68,635.44,266.68,635.33 C266.68,635.18,266.8,635.07,266.96,635.07 C267.16,635.07,267.36,635.22,267.36,635.52 C267.36,635.75,267.19,636,266.82,636 C266.43,636,266.05,635.72,265.69,635.4 C265.41,635.11,265.18,634.9,264.88,634.77 Z " />
<path
   id="path4836"
   fill="black"
   stroke-width="0"
   d="M274.25,634.5 L274.17,634.44 L274.09,634.38 L274.02,634.31 L273.95,634.25 L273.89,634.18 L273.83,634.11 L273.77,634.05 L273.72,633.98 L273.67,633.91 L273.62,633.85 L273.58,633.78 L273.54,633.72 L273.51,633.65 L273.47,633.59 L273.44,633.53 L273.42,633.47 L273.39,633.41 L273.37,633.36 L273.35,633.3 L273.33,633.25 L273.32,633.2 L273.3,633.16 L273.29,633.12 L273.28,633.08 L273.27,633.05 L273.27,633.02 L273.26,632.99 L273.26,632.97 L273.25,632.95 L273.25,632.94 L273.25,632.93 L273.25,632.93 C273.25,632.82,273.31,632.82,273.41,632.82 C273.53,632.82,273.56,632.82,273.59,632.94 C273.64,633.11,273.75,633.57,274.11,633.96 C274.52,634.38,274.88,634.49,275.17,634.58 C275.22,634.6,275.23,634.63,275.23,634.66 C275.23,634.74,275.2,634.75,275.11,634.78 C274.09,635.1,273.73,635.82,273.59,636.44 C273.56,636.52,273.52,636.52,273.41,636.52 C273.31,636.52,273.25,636.52,273.25,636.43 C273.25,636.41,273.31,635.93,273.66,635.44 C273.81,635.21,274.02,635.02,274.25,634.85 H268.61 C268.48,634.85,268.33,634.85,268.33,634.68 C268.33,634.5,268.48,634.5,268.61,634.5 Z " />
<path
   id="path4838"
   fill="black"
   stroke-width="0"
   d="M279.79,634.83 L279.75,634.87 L279.72,634.91 L279.69,634.95 L279.66,634.98 L279.63,635.02 L279.6,635.05 L279.57,635.08 L279.55,635.11 L279.52,635.14 L279.5,635.16 L279.48,635.19 L279.45,635.21 L279.43,635.24 L279.41,635.26 L279.39,635.28 L279.37,635.3 L279.35,635.32 L279.33,635.34 L279.29,635.38 L279.25,635.41 L279.21,635.45 L279.17,635.48 L279.13,635.51 L279.11,635.53 L279.08,635.55 L279.06,635.56 L279.04,635.58 C278.6,635.9,278.16,636,277.77,636 C276.89,636,276.27,635.27,276.27,634.43 H276.46 C276.46,635.1,277,635.63,277.66,635.63 C278.32,635.63,278.75,635.08,279.44,634.27 H279.44 C279.16,633.82,278.54,633.11,277.69,633.11 C276.96,633.11,276.46,633.75,276.46,634.43 H276.27 C276.27,633.6,276.86,632.85,277.75,632.85 C278.72,632.85,279.41,633.65,279.66,634.02 C280.04,633.58,280.14,633.46,280.41,633.27 C280.85,632.96,281.29,632.85,281.68,632.85 C282.55,632.85,283.18,633.58,283.18,634.43 H282.99 C282.99,633.75,282.44,633.22,281.79,633.22 C281.13,633.22,280.69,633.75,280,634.58 H280 C280.29,635.03,280.91,635.74,281.75,635.74 C282.49,635.74,282.99,635.1,282.99,634.43 H283.18 C283.18,635.25,282.58,636,281.69,636 C280.72,636,280.04,635.21,279.79,634.83 Z " />
<path
   id="path4840"
   fill="black"
   stroke-width="0"
   d="M292.28,630.13 L292.28,630.14 L292.28,630.14 L292.28,630.14 L292.28,630.14 L292.28,630.15 L292.28,630.15 L292.28,630.15 L292.28,630.15 L292.28,630.16 L292.28,630.16 L292.28,630.16 L292.27,630.16 L292.27,630.17 L292.27,630.17 L292.27,630.17 L292.27,630.17 L292.27,630.17 L292.27,630.18 L292.26,630.18 L292.26,630.18 L292.26,630.18 L292.26,630.19 L292.26,630.19 L292.25,630.19 L292.25,630.19 L292.25,630.19 L292.25,630.2 L292.25,630.2 L292.24,630.2 L292.24,630.21 L292.24,630.21 L292.23,630.21 C291.88,630.59,291.2,631.24,290.55,632.32 C288.94,634.88,288.22,638.12,288.22,641.95 C288.22,644.62,288.58,648.05,290.22,651.02 C291,652.43,291.81,653.24,292.25,653.68 C292.28,653.71,292.28,653.73,292.28,653.76 C292.28,653.85,292.22,653.85,292.08,653.85 C291.94,653.85,291.92,653.85,291.77,653.71 C288.44,650.68,287.39,646.13,287.39,641.95 C287.39,638.04,288.28,634.12,290.81,631.13 C291.02,630.91,291.39,630.51,291.8,630.15 C291.92,630.02,291.94,630.02,292.08,630.02 C292.22,630.02,292.28,630.02,292.28,630.13 Z " />
<path
   id="path4842"
   fill="black"
   stroke-width="0"
   d="M295.58,645.77 L295.58,645.78 L295.58,645.79 L295.58,645.8 L295.58,645.81 L295.58,645.82 L295.58,645.83 L295.58,645.84 L295.58,645.85 L295.58,645.86 L295.58,645.87 L295.58,645.88 L295.58,645.88 L295.58,645.89 L295.58,645.9 L295.58,645.9 L295.58,645.91 L295.58,645.92 L295.58,645.92 L295.57,645.94 L295.57,645.95 L295.57,645.96 L295.57,645.96 L295.56,645.97 L295.56,645.98 L295.55,645.99 L295.55,645.99 L295.54,646 L295.53,646 L295.52,646.01 L295.52,646.01 L295.52,646.01 L295.51,646.01 L295.51,646.01 L295.5,646.01 L295.5,646.01 L295.49,646.02 L295.48,646.02 L295.48,646.02 L295.47,646.02 L295.46,646.02 L295.46,646.02 L295.45,646.02 L295.44,646.02 L295.43,646.02 L295.43,646.02 L295.42,646.02 L295.41,646.02 L295.4,646.02 L295.39,646.02 L295.38,646.02 L295.37,646.02 L295.36,646.02 L295.35,646.02 C294.74,645.4,293.86,645.4,293.55,645.4 V645.09 C293.74,645.09,294.33,645.09,294.85,645.35 V640.2 C294.85,639.84,294.82,639.73,293.93,639.73 H293.6 V639.41 C293.96,639.45,294.82,639.45,295.21,639.45 C295.61,639.45,296.47,639.45,296.82,639.41 V639.73 H296.5 C295.61,639.73,295.58,639.84,295.58,640.2 Z " />
<path
   id="path4844"
   fill="black"
   stroke-width="0"
   d="M303.92,641.7 H306.68 C306.82,641.7,307.01,641.7,307.01,641.9 C307.01,642.1,306.82,642.1,306.68,642.1 H303.92 V644.88 C303.92,645.02,303.92,645.21,303.71,645.21 C303.53,645.21,303.53,645.02,303.53,644.88 V642.1 H300.75 C300.61,642.1,300.42,642.1,300.42,641.9 C300.42,641.7,300.61,641.7,300.75,641.7 H303.53 V638.91 C303.53,638.77,303.53,638.59,303.71,638.59 C303.92,638.59,303.92,638.77,303.92,638.91 Z " />
<path
   id="path4846"
   fill="black"
   stroke-width="0"
   d="M314.2,652.51 L314.2,652.52 L314.2,652.53 L314.19,652.54 L314.19,652.55 L314.19,652.56 L314.19,652.57 L314.19,652.58 L314.19,652.59 L314.19,652.6 L314.19,652.61 L314.19,652.61 L314.19,652.62 L314.19,652.63 L314.19,652.64 L314.19,652.64 L314.19,652.65 L314.19,652.66 L314.19,652.66 L314.19,652.67 L314.19,652.68 L314.18,652.69 L314.18,652.7 L314.18,652.71 L314.17,652.72 L314.17,652.72 L314.16,652.73 L314.15,652.74 L314.15,652.74 L314.14,652.74 L314.13,652.75 L314.13,652.75 L314.12,652.75 L314.12,652.75 L314.11,652.75 L314.11,652.75 L314.1,652.75 L314.1,652.76 L314.09,652.76 L314.08,652.76 L314.08,652.76 L314.07,652.76 L314.06,652.76 L314.05,652.76 L314.05,652.76 L314.04,652.76 L314.03,652.76 L314.02,652.76 L314.01,652.76 L314,652.76 L313.99,652.76 L313.98,652.76 L313.97,652.76 L313.96,652.76 C313.35,652.14,312.48,652.14,312.16,652.14 V651.82 C312.35,651.82,312.95,651.82,313.46,652.09 V646.93 C313.46,646.57,313.43,646.47,312.54,646.47 H312.21 V646.15 C312.57,646.18,313.43,646.18,313.82,646.18 C314.23,646.18,315.09,646.18,315.43,646.15 V646.47 H315.12 C314.23,646.47,314.2,646.57,314.2,646.93 Z " />
<line
   id="line4848"
   stroke-width="0.398"
   y2="641.9"
   x2="316.52"
   y1="641.9"
   x1="311.02" />
<path
   id="path4850"
   fill="black"
   stroke-width="0"
   d="M313.86,639.36 L313.86,639.36 L313.86,639.36 L313.86,639.37 L313.86,639.37 L313.86,639.37 L313.86,639.38 L313.86,639.38 L313.86,639.38 L313.86,639.39 L313.86,639.39 L313.85,639.4 L313.85,639.4 L313.85,639.41 L313.85,639.41 L313.85,639.42 L313.84,639.42 L313.84,639.42 L313.84,639.43 L313.83,639.43 L313.83,639.44 L313.83,639.44 L313.82,639.44 L313.82,639.44 L313.82,639.45 L313.82,639.45 L313.81,639.45 L313.81,639.45 L313.81,639.45 L313.8,639.46 L313.8,639.46 L313.8,639.46 L313.79,639.46 L313.79,639.46 L313.78,639.46 L313.78,639.46 L313.78,639.46 L313.77,639.47 L313.77,639.47 L313.76,639.47 L313.76,639.47 L313.75,639.47 L313.75,639.47 L313.74,639.47 L313.73,639.47 C313.52,639.47,312.78,639.39,312.53,639.38 C312.45,639.36,312.34,639.36,312.34,639.17 C312.34,639.06,312.42,639.06,312.58,639.06 C313.05,639.06,313.08,638.98,313.08,638.89 L313.05,638.69 L311.61,632.97 C311.56,632.83,311.56,632.81,311.56,632.75 C311.56,632.52,311.77,632.47,311.84,632.47 C311.98,632.47,312.12,632.56,312.19,632.67 C312.23,632.77,312.69,634.61,312.75,634.86 C313.08,634.83,313.89,634.67,313.89,634.02 C313.89,633.94,313.89,633.91,313.86,633.8 C313.84,633.69,313.83,633.56,313.83,633.45 C313.83,632.86,314.22,632.47,314.73,632.47 C315.03,632.47,315.31,632.62,315.53,633 C315.78,633.44,315.89,633.98,315.89,634 C315.89,634.09,315.8,634.09,315.77,634.09 C315.67,634.09,315.66,634.06,315.62,633.92 C315.42,633.19,315.2,632.69,314.77,632.69 C314.58,632.69,314.44,632.8,314.44,633.16 C314.44,633.33,314.48,633.55,314.52,633.7 C314.56,633.88,314.56,633.92,314.56,634.02 C314.56,634.67,313.94,634.95,313.09,635.06 C313.41,635.23,313.72,635.56,313.95,635.8 C314.42,636.33,314.88,636.75,315.36,636.75 C315.42,636.75,315.44,636.75,315.45,636.73 C315.58,636.72,315.58,636.72,315.67,636.66 C315.69,636.66,315.69,636.64,315.7,636.62 C315.23,636.59,315.14,636.2,315.14,636.08 C315.14,635.92,315.25,635.73,315.52,635.73 C315.78,635.73,316.06,635.95,316.06,636.34 C316.06,636.64,315.83,636.97,315.39,636.97 C315.11,636.97,314.66,636.89,313.94,636.09 C313.59,635.72,313.22,635.31,312.83,635.17 Z " />
<path
   id="path4852"
   fill="black"
   stroke-width="0"
   d="M322.95,641.95 L322.93,642.67 L322.9,643.4 L322.85,644.13 L322.77,644.86 L322.66,645.58 L322.53,646.29 L322.37,646.99 L322.18,647.69 L321.97,648.37 L321.85,648.71 L321.72,649.05 L321.58,649.38 L321.44,649.71 L321.29,650.03 L321.13,650.35 L320.96,650.67 L320.78,650.98 L320.59,651.28 L320.4,651.59 L320.19,651.88 L319.98,652.17 L319.76,652.46 L319.52,652.74 C319.34,652.98,318.95,653.38,318.54,653.74 C318.43,653.85,318.41,653.85,318.27,653.85 C318.15,653.85,318.05,653.85,318.05,653.76 C318.05,653.73,318.1,653.68,318.12,653.66 C318.46,653.3,319.13,652.63,319.8,651.57 C321.4,649.01,322.12,645.77,322.12,641.95 C322.12,639.27,321.76,635.84,320.12,632.87 C319.34,631.46,318.51,630.63,318.1,630.21 C318.09,630.18,318.05,630.16,318.05,630.13 C318.05,630.02,318.15,630.02,318.27,630.02 C318.41,630.02,318.43,630.02,318.57,630.18 C321.9,633.21,322.95,637.76,322.95,641.95 Z " />
<path
   id="path4854"
   fill="black"
   stroke-width="0"
   d="M327.25,656.07 L327.25,656.07 L327.25,656.07 L327.25,656.07 L327.25,656.07 L327.25,656.07 L327.25,656.07 L327.25,656.07 L327.25,656.08 L327.25,656.08 L327.25,656.08 L327.25,656.09 L327.26,656.09 L327.26,656.1 L327.26,656.1 L327.26,656.1 L327.26,656.11 L327.26,656.11 L327.27,656.12 L327.27,656.13 L327.27,656.13 L327.27,656.14 L327.27,656.14 L327.27,656.15 L327.28,656.15 L327.28,656.15 L327.28,656.16 L327.28,656.16 L327.28,656.16 L327.28,656.17 L327.28,656.17 L327.28,656.17 L327.28,656.17 L327.28,656.17 L327.28,656.17 L327.28,656.18 L327.28,656.18 C327.28,656.21,327.25,656.27,327.16,656.27 C327.02,656.27,326.44,656.22,326.27,656.21 C326.2,656.19,326.11,656.19,326.11,656.03 C326.11,655.94,326.2,655.94,326.3,655.94 C326.62,655.94,326.62,655.9,326.62,655.83 C326.62,655.78,326.61,655.75,326.59,655.68 L325.61,651.71 C325.58,651.58,325.58,651.57,325.58,651.55 C325.58,651.44,325.66,651.33,325.81,651.33 C326,651.33,326.09,651.46,326.14,651.61 C326.16,651.65,326.45,652.88,326.48,652.99 C326.98,652.94,327.38,652.77,327.38,652.41 C327.38,652.38,327.38,652.33,327.36,652.27 C327.34,652.16,327.34,652.13,327.34,652.05 C327.34,651.55,327.75,651.33,328.08,651.33 C328.77,651.33,328.98,652.4,328.98,652.4 C328.98,652.49,328.89,652.49,328.86,652.49 C328.77,652.49,328.77,652.46,328.72,652.32 C328.64,652.02,328.45,651.52,328.11,651.52 C327.92,651.52,327.86,651.69,327.86,651.88 C327.86,652,327.86,652.02,327.91,652.21 C327.91,652.22,327.94,652.35,327.94,652.43 C327.94,653.05,327.09,653.15,326.8,653.16 C327,653.28,327.27,653.52,327.38,653.63 C327.73,653.97,328.09,654.3,328.48,654.3 C328.56,654.3,328.66,654.27,328.72,654.21 C328.42,654.16,328.34,653.93,328.34,653.82 C328.34,653.66,328.47,653.55,328.62,653.55 C328.83,653.55,329.03,653.71,329.03,654 C329.03,654.24,328.86,654.49,328.48,654.49 C328.09,654.49,327.72,654.21,327.36,653.88 C327.08,653.6,326.84,653.38,326.55,653.25 Z " />
<path
   id="path4856"
   fill="black"
   stroke-width="0"
   d="M339.54,642.66 L339.57,642.66 L339.6,642.66 L339.63,642.67 L339.64,642.67 L339.65,642.67 L339.67,642.67 L339.68,642.67 L339.7,642.67 L339.71,642.67 L339.72,642.68 L339.73,642.68 L339.75,642.68 L339.76,642.69 L339.77,642.69 L339.78,642.7 L339.79,642.71 L339.8,642.71 L339.81,642.72 L339.82,642.73 L339.83,642.74 L339.84,642.74 L339.84,642.75 L339.84,642.76 L339.85,642.76 L339.85,642.77 L339.85,642.77 L339.86,642.78 L339.86,642.79 L339.86,642.79 L339.86,642.8 L339.86,642.81 L339.87,642.82 L339.87,642.82 L339.87,642.83 L339.87,642.84 L339.87,642.85 L339.87,642.86 L339.87,642.87 C339.87,643.05,339.68,643.05,339.54,643.05 H333.61 C333.46,643.05,333.28,643.05,333.28,642.87 C333.28,642.66,333.46,642.66,333.61,642.66 Z " />
<path
   id="path4858"
   fill="black"
   stroke-width="0"
   d="M339.54,640.74 L339.57,640.74 L339.6,640.74 L339.63,640.74 L339.64,640.74 L339.65,640.74 L339.67,640.75 L339.68,640.75 L339.7,640.75 L339.71,640.75 L339.72,640.75 L339.73,640.76 L339.75,640.76 L339.76,640.77 L339.77,640.77 L339.78,640.78 L339.79,640.78 L339.8,640.79 L339.81,640.8 L339.82,640.8 L339.83,640.81 L339.84,640.82 L339.84,640.83 L339.85,640.83 L339.85,640.84 L339.85,640.84 L339.86,640.85 L339.86,640.85 L339.86,640.86 L339.86,640.87 L339.86,640.87 L339.87,640.88 L339.87,640.89 L339.87,640.9 L339.87,640.9 L339.87,640.91 L339.87,640.92 L339.87,640.93 C339.87,641.13,339.68,641.13,339.54,641.13 H333.61 C333.46,641.13,333.28,641.13,333.28,640.93 C333.28,640.74,333.46,640.74,333.61,640.74 Z " />
<path
   id="path4860"
   fill="black"
   stroke-width="0"
   d="M345.09,641.71 L345.12,641.71 L345.15,641.71 L345.18,641.71 L345.22,641.71 L345.25,641.71 L345.29,641.71 L345.33,641.72 L345.37,641.72 L345.42,641.72 L345.47,641.72 L345.51,641.72 L345.56,641.73 L345.61,641.73 L345.66,641.73 L345.77,641.74 L345.87,641.76 L345.98,641.77 L346.09,641.79 L346.2,641.81 L346.3,641.83 L346.36,641.85 L346.41,641.86 L346.46,641.88 L346.51,641.89 L346.56,641.91 L346.61,641.93 C347.31,642.24,347.36,642.82,347.36,642.96 C347.36,643.4,346.98,643.8,346.29,643.8 V643.59 C346.76,643.59,347.03,643.3,347.03,642.96 C347.03,641.93,345.43,641.93,345.03,641.93 H344.62 C345.01,643.43,346.03,643.59,346.29,643.59 V643.8 C345.18,643.8,343.68,642.84,343.68,641.1 C343.68,640.09,344.28,639.3,345.25,639.3 C346.67,639.3,347.5,640.35,347.5,640.48 C347.5,640.54,347.45,640.6,347.39,640.6 C347.34,640.6,347.31,640.59,347.25,640.51 C346.46,639.52,345.39,639.52,345.26,639.52 C344.5,639.52,344.4,640.35,344.4,640.68 C344.4,640.79,344.42,641.1,344.56,641.71 Z " />
</g>  </g>
</svg>
