<?xml version="1.0" encoding="UTF-8" standalone="no"?>
<!-- Created with Inkscape (http://www.inkscape.org/) -->

<svg
   xmlns:ns0="http://www.iki.fi/pav/software/textext/"
   xmlns:dc="http://purl.org/dc/elements/1.1/"
   xmlns:cc="http://creativecommons.org/ns#"
   xmlns:rdf="http://www.w3.org/1999/02/22-rdf-syntax-ns#"
   xmlns:svg="http://www.w3.org/2000/svg"
   xmlns="http://www.w3.org/2000/svg"
   xmlns:sodipodi="http://sodipodi.sourceforge.net/DTD/sodipodi-0.dtd"
   xmlns:inkscape="http://www.inkscape.org/namespaces/inkscape"
   width="210mm"
   height="297mm"
   viewBox="0 0 210 296.99999"
   version="1.1"
   id="svg8"
   inkscape:version="0.92.3 (2405546, 2018-03-11)"
   sodipodi:docname="original.svg">
  <sodipodi:namedview
     id="base"
     pagecolor="#ffffff"
     bordercolor="#666666"
     borderopacity="1.0"
     inkscape:pageopacity="0.0"
     inkscape:pageshadow="2"
     inkscape:zoom="8.1515847"
     inkscape:cx="304.63098"
     inkscape:cy="561.25984"
     inkscape:document-units="mm"
     inkscape:current-layer="layer1"
     showgrid="false"
     inkscape:window-width="2560"
     inkscape:window-height="1007"
     inkscape:window-x="0"
     inkscape:window-y="0"
     inkscape:window-maximized="1" />
  <defs
     id="defs2" />
  <metadata
     id="metadata5">
    <rdf:RDF>
      <cc:Work
         rdf:about="">
        <dc:format>image/svg+xml</dc:format>
        <dc:type
           rdf:resource="http://purl.org/dc/dcmitype/StillImage" />
        <dc:title />
      </cc:Work>
    </rdf:RDF>
  </metadata>
  <g
     id="layer1"
     inkscape:groupmode="layer"
     inkscape:label="Layer 1">
    <g
       ns0:preamble="/home/sergei/.config/inkscape/extensions/default_packages.tex"
       ns0:text="$$\\lim_{n \\to \\infty} \\left(1+\\frac{1}{n}\\right)^n = e$$"
       text-anchor="start"
       word-spacing="normal"
       letter-spacing="normal"
       font-size-adjust="none"
       font-stretch="normal"
       font-weight="normal"
       font-variant="normal"
       font-style="normal"
       fill-opacity="1"
       fill-rule="evenodd"
       fill="black"
       stroke-opacity="1"
       stroke-dashoffset="0"
       stroke-dasharray="none"
       stroke-miterlimit="10.433"
       stroke-linejoin="miter"
       stroke-linecap="butt"
       stroke="black"
       xml:space="preserve"
       transform="matrix(1.000000, 0, 0, -1.000000, -200.615000, 842.475000)"
       id="content">
<path
   id="path815"
   fill="black"
   stroke-width="0"
   d="M267.87,698.04 L266.43,697.93 V697.62 C267.13,697.62,267.21,697.55,267.21,697.06 V691.9 C267.21,691.45,267.1,691.45,266.43,691.45 V691.14 C266.76,691.15,267.29,691.17,267.54,691.17 C267.79,691.17,268.28,691.15,268.65,691.14 V691.45 C267.98,691.45,267.87,691.45,267.87,691.9 Z " />
<path
   id="path817"
   fill="black"
   stroke-width="0"
   d="M270.64,695.53 L269.24,695.42 V695.12 C269.89,695.12,269.98,695.06,269.98,694.57 V691.9 C269.98,691.45,269.87,691.45,269.2,691.45 V691.14 C269.52,691.15,270.06,691.17,270.3,691.17 C270.65,691.17,271,691.15,271.34,691.14 V691.45 C270.68,691.45,270.64,691.5,270.64,691.89 Z " />
<path
   id="path819"
   fill="black"
   stroke-width="0"
   d="M270.68,697.26 L270.68,697.29 L270.68,697.32 L270.67,697.35 L270.67,697.38 L270.66,697.4 L270.65,697.43 L270.64,697.45 L270.63,697.48 L270.62,697.5 L270.61,697.53 L270.6,697.55 L270.58,697.57 L270.57,697.59 L270.55,697.61 L270.54,697.63 L270.52,697.64 L270.5,697.66 L270.48,697.68 L270.46,697.69 L270.44,697.71 L270.42,697.72 L270.4,697.73 L270.37,697.74 L270.35,697.75 L270.33,697.76 L270.3,697.77 L270.28,697.77 L270.25,697.78 L270.23,697.78 L270.2,697.79 L270.18,697.79 L270.15,697.79 C269.84,697.79,269.62,697.52,269.62,697.26 C269.62,696.99,269.84,696.74,270.15,696.74 C270.43,696.74,270.68,696.94,270.68,697.26 Z " />
<path
   id="path821"
   fill="black"
   stroke-width="0"
   d="M272.74,694.56 V691.9 C272.74,691.45,272.63,691.45,271.96,691.45 V691.14 C272.31,691.15,272.82,691.17,273.09,691.17 C273.35,691.17,273.86,691.15,274.2,691.14 V691.45 C273.54,691.45,273.42,691.45,273.42,691.9 V693.73 C273.42,694.76,274.13,695.32,274.77,695.32 C275.4,695.32,275.51,694.78,275.51,694.21 V691.9 C275.51,691.45,275.4,691.45,274.73,691.45 V691.14 C275.08,691.15,275.59,691.17,275.86,691.17 C276.12,691.17,276.64,691.15,276.98,691.14 V691.45 C276.31,691.45,276.2,691.45,276.2,691.9 V693.73 C276.2,694.76,276.9,695.32,277.54,695.32 C278.17,695.32,278.28,694.78,278.28,694.21 V691.9 C278.28,691.45,278.17,691.45,277.5,691.45 V691.14 C277.85,691.15,278.36,691.17,278.63,691.17 C278.89,691.17,279.41,691.15,279.75,691.14 V691.45 C279.23,691.45,278.98,691.45,278.97,691.75 V693.65 C278.97,694.5,278.97,694.81,278.66,695.17 C278.52,695.34,278.19,695.53,277.61,695.53 C276.78,695.53,276.34,694.94,276.17,694.56 C276.03,695.42,275.29,695.53,274.84,695.53 C274.11,695.53,273.64,695.11,273.36,694.49 V695.53 L271.96,695.42 V695.12 C272.66,695.12,272.74,695.05,272.74,694.56 Z " />
<path
   id="path823"
   fill="black"
   stroke-width="0"
   d="M263.47,685.6 L263.47,685.6 L263.47,685.59 L263.46,685.58 L263.46,685.57 L263.46,685.56 L263.45,685.55 L263.45,685.54 L263.45,685.52 L263.44,685.5 L263.44,685.48 L263.43,685.46 L263.43,685.44 L263.42,685.42 L263.42,685.41 L263.42,685.4 L263.42,685.39 L263.41,685.39 L263.41,685.38 L263.41,685.37 L263.41,685.36 L263.41,685.35 L263.41,685.35 L263.4,685.34 L263.4,685.33 L263.4,685.33 L263.4,685.32 L263.4,685.32 L263.4,685.32 L263.4,685.32 L263.4,685.32 C263.4,685.17,263.53,685.1,263.64,685.1 C263.77,685.1,263.88,685.19,263.91,685.25 C263.95,685.31,264,685.53,264.04,685.68 C264.07,685.81,264.15,686.13,264.19,686.31 C264.23,686.46,264.27,686.61,264.31,686.77 C264.39,687.06,264.4,687.11,264.6,687.4 C264.8,687.68,265.13,688.04,265.65,688.04 C266.06,688.04,266.07,687.68,266.07,687.55 C266.07,687.13,265.76,686.36,265.65,686.07 C265.58,685.88,265.55,685.81,265.55,685.7 C265.55,685.33,265.86,685.1,266.21,685.1 C266.91,685.1,267.22,686.06,267.22,686.16 C267.22,686.25,267.13,686.25,267.11,686.25 C267.01,686.25,267,686.21,266.97,686.13 C266.81,685.58,266.51,685.29,266.23,685.29 C266.09,685.29,266.06,685.39,266.06,685.53 C266.06,685.7,266.09,685.78,266.22,686.1 C266.3,686.31,266.59,687.05,266.59,687.44 C266.59,688.11,266.05,688.23,265.68,688.23 C265.1,688.23,264.71,687.88,264.5,687.6 C264.45,688.08,264.04,688.23,263.75,688.23 C263.45,688.23,263.29,688.02,263.2,687.86 C263.05,687.6,262.95,687.2,262.95,687.17 C262.95,687.08,263.05,687.08,263.07,687.08 C263.16,687.08,263.17,687.1,263.22,687.29 C263.32,687.7,263.46,688.04,263.73,688.04 C263.91,688.04,263.96,687.89,263.96,687.7 C263.96,687.57,263.9,687.31,263.85,687.12 C263.8,686.93,263.73,686.65,263.7,686.49 Z " />
<path
   id="path825"
   fill="black"
   stroke-width="0"
   d="M273.98,686.74 L273.9,686.68 L273.82,686.61 L273.75,686.55 L273.68,686.49 L273.62,686.42 L273.56,686.36 L273.5,686.29 L273.45,686.23 L273.4,686.16 L273.35,686.09 L273.31,686.03 L273.27,685.97 L273.24,685.9 L273.2,685.84 L273.17,685.78 L273.15,685.72 L273.12,685.66 L273.1,685.61 L273.08,685.56 L273.06,685.51 L273.04,685.46 L273.03,685.42 L273.02,685.37 L273.01,685.34 L273,685.3 L272.99,685.27 L272.99,685.25 L272.98,685.22 L272.98,685.2 L272.98,685.19 L272.98,685.18 L272.98,685.18 C272.98,685.08,273.05,685.08,273.14,685.08 C273.27,685.08,273.29,685.08,273.33,685.19 C273.37,685.37,273.48,685.81,273.84,686.2 C274.25,686.62,274.6,686.72,274.89,686.81 C274.93,686.83,274.96,686.87,274.96,686.9 C274.96,686.97,274.92,686.99,274.83,687.02 C273.82,687.34,273.46,688.04,273.32,688.66 C273.29,688.74,273.24,688.74,273.14,688.74 C273.05,688.74,272.98,688.74,272.98,688.64 C272.98,688.62,273.05,688.16,273.39,687.68 C273.55,687.44,273.74,687.24,273.98,687.08 H268.36 C268.25,687.08,268.08,687.08,268.08,686.91 C268.08,686.74,268.24,686.74,268.36,686.74 Z " />
<path
   id="path827"
   fill="black"
   stroke-width="0"
   d="M279.53,687.07 L279.49,687.11 L279.46,687.15 L279.43,687.18 L279.4,687.22 L279.37,687.25 L279.34,687.28 L279.32,687.31 L279.29,687.34 L279.27,687.37 L279.24,687.4 L279.22,687.42 L279.2,687.44 L279.18,687.47 L279.15,687.49 L279.13,687.51 L279.11,687.53 L279.07,687.57 L279.03,687.61 L279,687.64 L278.96,687.67 L278.91,687.71 L278.87,687.74 L278.85,687.76 L278.83,687.77 L278.8,687.79 L278.78,687.81 C278.35,688.11,277.9,688.23,277.52,688.23 C276.65,688.23,276.02,687.49,276.02,686.66 H276.22 C276.22,687.33,276.77,687.85,277.41,687.85 C278.06,687.85,278.51,687.32,279.18,686.52 H279.18 C278.9,686.06,278.29,685.36,277.44,685.36 C276.72,685.36,276.22,685.99,276.22,686.66 H276.02 C276.02,685.85,276.62,685.1,277.5,685.1 C278.47,685.1,279.15,685.89,279.4,686.26 C279.77,685.83,279.88,685.71,280.15,685.52 C280.58,685.22,281.02,685.1,281.41,685.1 C282.27,685.1,282.9,685.83,282.9,686.67 H282.71 C282.71,686,282.16,685.48,281.52,685.48 C280.87,685.48,280.42,686.01,279.75,686.81 H279.75 C280.03,687.27,280.64,687.97,281.49,687.97 C282.21,687.97,282.71,687.34,282.71,686.67 H282.9 C282.9,687.48,282.3,688.23,281.43,688.23 C280.46,688.23,279.78,687.44,279.53,687.07 Z " />
<path
   id="path829"
   fill="black"
   stroke-width="0"
   d="M292.07,681.86 L292.07,681.86 L292.07,681.86 L292.07,681.87 L292.07,681.87 L292.07,681.87 L292.07,681.88 L292.07,681.88 L292.07,681.88 L292.06,681.89 L292.06,681.89 L292.06,681.89 L292.06,681.89 L292.06,681.9 L292.06,681.9 L292.06,681.9 L292.06,681.9 L292.05,681.91 L292.05,681.91 L292.05,681.92 L292.04,681.92 L292.04,681.93 L292.04,681.94 L292.03,681.94 L292.03,681.95 C291.66,682.31,290.99,682.98,290.32,684.05 C288.72,686.61,287.99,689.84,287.99,693.67 C287.99,696.34,288.35,699.79,289.99,702.75 C290.78,704.16,291.6,704.97,292.04,705.41 C292.07,705.44,292.07,705.46,292.07,705.49 C292.07,705.59,292,705.59,291.86,705.59 C291.72,705.59,291.7,705.59,291.55,705.44 C288.21,702.41,287.16,697.86,287.16,693.68 C287.16,689.77,288.06,685.84,290.59,682.87 C290.79,682.64,291.17,682.23,291.58,681.88 C291.7,681.76,291.72,681.76,291.86,681.76 C292,681.76,292.07,681.76,292.07,681.86 Z " />
<path
   id="path831"
   fill="black"
   stroke-width="0"
   d="M295.35,697.5 L295.35,697.51 L295.35,697.52 L295.35,697.53 L295.35,697.54 L295.35,697.55 L295.35,697.56 L295.35,697.57 L295.35,697.58 L295.35,697.59 L295.35,697.6 L295.35,697.61 L295.35,697.61 L295.35,697.62 L295.35,697.63 L295.35,697.63 L295.35,697.64 L295.35,697.65 L295.35,697.65 L295.35,697.67 L295.34,697.68 L295.34,697.69 L295.34,697.7 L295.33,697.7 L295.33,697.71 L295.33,697.72 L295.32,697.73 L295.31,697.73 L295.31,697.74 L295.3,697.74 L295.29,697.74 L295.28,697.75 L295.28,697.75 L295.27,697.75 L295.27,697.75 L295.26,697.75 L295.26,697.75 L295.25,697.75 L295.24,697.75 L295.24,697.75 L295.23,697.76 L295.22,697.76 L295.22,697.76 L295.21,697.76 L295.2,697.76 L295.19,697.76 L295.18,697.76 L295.17,697.76 L295.16,697.76 L295.15,697.76 L295.14,697.76 L295.13,697.76 L295.12,697.76 C294.51,697.12,293.63,697.12,293.31,697.12 V696.82 C293.51,696.82,294.1,696.82,294.62,697.07 V691.93 C294.62,691.57,294.59,691.45,293.69,691.45 H293.37 V691.14 C293.72,691.17,294.59,691.17,294.98,691.17 C295.38,691.17,296.25,691.17,296.6,691.14 V691.45 H296.28 C295.38,691.45,295.35,691.56,295.35,691.93 Z " />
<path
   id="path833"
   fill="black"
   stroke-width="0"
   d="M303.69,693.43 H306.48 C306.61,693.43,306.8,693.43,306.8,693.63 C306.8,693.83,306.61,693.83,306.48,693.83 H303.69 V696.61 C303.69,696.75,303.69,696.93,303.49,696.93 C303.3,696.93,303.3,696.75,303.3,696.61 V693.83 H300.5 C300.36,693.83,300.17,693.83,300.17,693.63 C300.17,693.43,300.36,693.43,300.5,693.43 H303.3 V690.65 C303.3,690.51,303.3,690.32,303.49,690.32 C303.69,690.32,303.69,690.51,303.69,690.65 Z " />
<path
   id="path835"
   fill="black"
   stroke-width="0"
   d="M314.21,704.24 L314.21,704.25 L314.21,704.26 L314.21,704.27 L314.21,704.28 L314.21,704.29 L314.21,704.3 L314.21,704.31 L314.21,704.32 L314.21,704.33 L314.21,704.34 L314.21,704.35 L314.21,704.35 L314.21,704.36 L314.2,704.37 L314.2,704.37 L314.2,704.38 L314.2,704.39 L314.2,704.39 L314.2,704.41 L314.2,704.42 L314.19,704.43 L314.19,704.44 L314.19,704.44 L314.18,704.45 L314.18,704.46 L314.17,704.47 L314.17,704.47 L314.16,704.48 L314.15,704.48 L314.14,704.48 L314.14,704.49 L314.13,704.49 L314.13,704.49 L314.12,704.49 L314.12,704.49 L314.11,704.49 L314.1,704.49 L314.1,704.49 L314.09,704.49 L314.08,704.5 L314.08,704.5 L314.07,704.5 L314.06,704.5 L314.05,704.5 L314.04,704.5 L314.04,704.5 L314.03,704.5 L314.02,704.5 L314.01,704.5 L314,704.5 L313.99,704.5 L313.98,704.5 C313.36,703.86,312.48,703.86,312.16,703.86 V703.55 C312.36,703.55,312.95,703.55,313.47,703.81 V698.67 C313.47,698.31,313.44,698.19,312.54,698.19 H312.22 V697.88 C312.57,697.91,313.44,697.91,313.84,697.91 C314.24,697.91,315.1,697.91,315.45,697.88 V698.19 H315.13 C314.24,698.19,314.21,698.3,314.21,698.67 Z " />
<line
   id="line837"
   fill="black"
   stroke-width="0.398"
   y2="693.63"
   x2="316.76"
   y1="693.63"
   x1="310.77" />
<path
   id="path839"
   fill="black"
   stroke-width="0"
   d="M311.65,684.9 L311.65,684.88 L311.65,684.87 L311.64,684.85 L311.64,684.84 L311.63,684.8 L311.63,684.77 L311.62,684.74 L311.61,684.71 L311.6,684.68 L311.6,684.64 L311.59,684.63 L311.59,684.61 L311.59,684.6 L311.58,684.59 L311.58,684.57 L311.58,684.56 L311.58,684.55 L311.57,684.53 L311.57,684.52 L311.57,684.51 L311.57,684.5 L311.57,684.49 L311.56,684.49 L311.56,684.48 L311.56,684.47 L311.56,684.47 C311.56,684.29,311.7,684.2,311.85,684.2 C311.97,684.2,312.15,684.28,312.22,684.48 C312.23,684.5,312.35,684.97,312.41,685.21 L312.63,686.11 C312.69,686.33,312.75,686.54,312.8,686.77 C312.84,686.94,312.92,687.23,312.93,687.27 C313.08,687.58,313.61,688.48,314.55,688.48 C315,688.48,315.09,688.11,315.09,687.79 C315.09,687.17,314.6,685.9,314.45,685.47 C314.36,685.24,314.35,685.12,314.35,685.01 C314.35,684.55,314.69,684.2,315.16,684.2 C316.1,684.2,316.47,685.65,316.47,685.73 C316.47,685.83,316.38,685.83,316.35,685.83 C316.25,685.83,316.25,685.8,316.2,685.65 C316,684.97,315.67,684.42,315.18,684.42 C315.01,684.42,314.94,684.52,314.94,684.75 C314.94,684.99,315.03,685.23,315.12,685.45 C315.31,685.98,315.73,687.07,315.73,687.64 C315.73,688.3,315.3,688.7,314.58,688.7 C313.69,688.7,313.2,688.06,313.03,687.84 C312.98,688.39,312.57,688.7,312.11,688.7 C311.65,688.7,311.46,688.31,311.36,688.13 C311.2,687.8,311.06,687.21,311.06,687.17 C311.06,687.07,311.16,687.07,311.18,687.07 C311.28,687.07,311.29,687.08,311.35,687.3 C311.52,688,311.72,688.48,312.08,688.48 C312.28,688.48,312.39,688.35,312.39,688.02 C312.39,687.82,312.36,687.71,312.23,687.19 Z " />
<path
   id="path841"
   fill="black"
   stroke-width="0"
   d="M323.21,693.67 L323.2,694.4 L323.16,695.13 L323.11,695.86 L323.03,696.59 L322.92,697.31 L322.79,698.02 L322.63,698.73 L322.44,699.42 L322.22,700.11 L322.1,700.45 L321.97,700.78 L321.84,701.11 L321.69,701.44 L321.54,701.76 L321.38,702.08 L321.21,702.4 L321.03,702.71 L320.85,703.02 L320.65,703.32 L320.45,703.62 L320.23,703.91 L320.01,704.19 L319.78,704.48 C319.58,704.7,319.2,705.11,318.79,705.47 C318.67,705.59,318.65,705.59,318.51,705.59 C318.39,705.59,318.3,705.59,318.3,705.49 C318.3,705.45,318.34,705.41,318.36,705.39 C318.71,705.03,319.38,704.37,320.05,703.29 C321.65,700.73,322.38,697.5,322.38,693.68 C322.38,691.01,322.02,687.56,320.37,684.6 C319.59,683.19,318.76,682.36,318.34,681.95 C318.32,681.92,318.3,681.89,318.3,681.86 C318.3,681.76,318.39,681.76,318.51,681.76 C318.65,681.76,318.67,681.76,318.82,681.91 C322.16,684.94,323.21,689.49,323.21,693.67 Z " />
<path
   id="path843"
   fill="black"
   stroke-width="0"
   d="M326.14,703.56 L326.13,703.56 L326.13,703.55 L326.13,703.54 L326.13,703.53 L326.12,703.52 L326.12,703.51 L326.12,703.5 L326.11,703.48 L326.11,703.46 L326.1,703.44 L326.1,703.42 L326.09,703.4 L326.09,703.38 L326.09,703.37 L326.08,703.36 L326.08,703.35 L326.08,703.35 L326.08,703.34 L326.08,703.33 L326.07,703.32 L326.07,703.31 L326.07,703.31 L326.07,703.3 L326.07,703.29 L326.07,703.29 L326.07,703.28 L326.07,703.28 L326.07,703.28 L326.07,703.28 L326.07,703.28 C326.07,703.13,326.19,703.06,326.3,703.06 C326.43,703.06,326.54,703.15,326.58,703.21 C326.61,703.27,326.67,703.49,326.7,703.64 C326.74,703.77,326.82,704.09,326.86,704.27 C326.9,704.42,326.94,704.57,326.98,704.73 C327.05,705.02,327.07,705.07,327.27,705.36 C327.46,705.64,327.79,706,328.32,706 C328.72,706,328.73,705.64,328.73,705.51 C328.73,705.09,328.43,704.32,328.32,704.03 C328.24,703.84,328.21,703.77,328.21,703.66 C328.21,703.29,328.52,703.06,328.88,703.06 C329.58,703.06,329.89,704.02,329.89,704.12 C329.89,704.21,329.79,704.21,329.77,704.21 C329.67,704.21,329.67,704.17,329.64,704.09 C329.48,703.54,329.18,703.25,328.9,703.25 C328.75,703.25,328.72,703.35,328.72,703.49 C328.72,703.66,328.76,703.74,328.89,704.06 C328.97,704.27,329.26,705.01,329.26,705.4 C329.26,706.07,328.72,706.19,328.35,706.19 C327.77,706.19,327.38,705.84,327.17,705.56 C327.12,706.04,326.7,706.19,326.42,706.19 C326.12,706.19,325.95,705.98,325.86,705.82 C325.71,705.56,325.61,705.16,325.61,705.13 C325.61,705.04,325.71,705.04,325.73,705.04 C325.83,705.04,325.84,705.06,325.89,705.25 C325.99,705.66,326.12,706,326.4,706 C326.58,706,326.63,705.84,326.63,705.66 C326.63,705.53,326.56,705.27,326.52,705.08 C326.47,704.89,326.4,704.61,326.36,704.45 Z " />
<path
   id="path845"
   fill="black"
   stroke-width="0"
   d="M340.33,694.39 L340.35,694.39 L340.38,694.39 L340.41,694.39 L340.43,694.39 L340.44,694.39 L340.46,694.4 L340.47,694.4 L340.48,694.4 L340.5,694.4 L340.51,694.4 L340.53,694.41 L340.54,694.41 L340.55,694.42 L340.56,694.42 L340.58,694.43 L340.59,694.43 L340.6,694.44 L340.61,694.45 L340.62,694.46 L340.63,694.46 L340.63,694.47 L340.64,694.48 L340.64,694.49 L340.64,694.49 L340.65,694.5 L340.65,694.5 L340.65,694.51 L340.65,694.52 L340.66,694.52 L340.66,694.53 L340.66,694.54 L340.66,694.55 L340.66,694.55 L340.66,694.56 L340.66,694.57 L340.66,694.58 L340.67,694.59 C340.67,694.79,340.48,694.79,340.34,694.79 H334.36 C334.22,694.79,334.03,694.79,334.03,694.59 C334.03,694.39,334.22,694.39,334.37,694.39 Z " />
<path
   id="path847"
   fill="black"
   stroke-width="0"
   d="M340.34,692.46 L340.35,692.46 L340.36,692.46 L340.39,692.46 L340.42,692.47 L340.43,692.47 L340.45,692.47 L340.46,692.47 L340.47,692.47 L340.49,692.47 L340.5,692.47 L340.51,692.48 L340.53,692.48 L340.54,692.48 L340.55,692.49 L340.56,692.49 L340.58,692.5 L340.59,692.51 L340.6,692.51 L340.61,692.52 L340.62,692.53 L340.63,692.54 L340.63,692.54 L340.63,692.55 L340.64,692.55 L340.64,692.56 L340.64,692.56 L340.65,692.57 L340.65,692.58 L340.65,692.58 L340.65,692.59 L340.66,692.6 L340.66,692.6 L340.66,692.61 L340.66,692.62 L340.66,692.63 L340.66,692.64 L340.66,692.64 L340.66,692.65 L340.67,692.66 C340.67,692.86,340.48,692.86,340.33,692.86 H334.37 C334.22,692.86,334.03,692.86,334.03,692.66 C334.03,692.46,334.22,692.46,334.36,692.46 Z " />
<path
   id="path849"
   fill="black"
   stroke-width="0"
   d="M345.86,693.44 L345.88,693.44 L345.92,693.44 L345.95,693.44 L345.98,693.44 L346.02,693.44 L346.06,693.44 L346.1,693.44 L346.15,693.44 L346.19,693.45 L346.24,693.45 L346.29,693.45 L346.33,693.46 L346.38,693.46 L346.44,693.46 L346.54,693.47 L346.65,693.49 L346.76,693.5 L346.86,693.52 L346.97,693.54 L347.08,693.57 L347.13,693.58 L347.18,693.6 L347.24,693.61 L347.28,693.63 L347.33,693.65 L347.38,693.67 C348.08,693.96,348.13,694.55,348.13,694.69 C348.13,695.13,347.75,695.53,347.06,695.53 V695.32 C347.53,695.32,347.8,695.03,347.8,694.69 C347.8,693.66,346.2,693.66,345.8,693.66 H345.39 C345.78,695.17,346.8,695.32,347.06,695.32 V695.53 C345.96,695.53,344.45,694.57,344.45,692.83 C344.45,691.82,345.04,691.03,346.02,691.03 C347.44,691.03,348.28,692.09,348.28,692.21 C348.28,692.27,348.22,692.34,348.16,692.34 C348.11,692.34,348.09,692.32,348.03,692.24 C347.24,691.25,346.15,691.25,346.04,691.25 C345.26,691.25,345.17,692.09,345.17,692.41 C345.17,692.52,345.18,692.83,345.33,693.44 Z " />
</g>  </g>
</svg>
