<?xml version="1.0" encoding="UTF-8" standalone="no"?>
<!-- Created with Inkscape (http://www.inkscape.org/) -->

<svg
   xmlns:ns1="http://www.iki.fi/pav/software/textext/"
   xmlns:dc="http://purl.org/dc/elements/1.1/"
   xmlns:cc="http://creativecommons.org/ns#"
   xmlns:rdf="http://www.w3.org/1999/02/22-rdf-syntax-ns#"
   xmlns:svg="http://www.w3.org/2000/svg"
   xmlns="http://www.w3.org/2000/svg"
   xmlns:sodipodi="http://sodipodi.sourceforge.net/DTD/sodipodi-0.dtd"
   xmlns:inkscape="http://www.inkscape.org/namespaces/inkscape"
   width="210mm"
   height="297mm"
   viewBox="0 0 210 297"
   version="1.1"
   id="svg8"
   inkscape:version="0.92.3 (2405546, 2018-03-11)"
   sodipodi:docname="original.svg">
  <sodipodi:namedview
     id="base"
     pagecolor="#ffffff"
     bordercolor="#666666"
     borderopacity="1.0"
     inkscape:pageopacity="0.0"
     inkscape:pageshadow="2"
     inkscape:zoom="12.964697"
     inkscape:cx="396.85039"
     inkscape:cy="561.25984"
     inkscape:document-units="mm"
     inkscape:current-layer="layer1"
     showgrid="false"
     inkscape:window-width="1920"
     inkscape:window-height="1141"
     inkscape:window-x="0"
     inkscape:window-y="0"
     inkscape:window-maximized="1" />
  <defs
     id="defs2" />
  <metadata
     id="metadata5">
    <rdf:RDF>
      <cc:Work
         rdf:about="">
        <dc:format>image/svg+xml</dc:format>
        <dc:type
           rdf:resource="http://purl.org/dc/dcmitype/StillImage" />
        <dc:title />
      </cc:Work>
    </rdf:RDF>
  </metadata>
  <g
     inkscape:label="Ebene 1"
     inkscape:groupmode="layer"
     id="layer1">
    <g
       ns1:jacobian_sqrt="0.352778"
       inkscapeversion="0.92.3"
       ns1:alignment="middle center"
       ns1:scale="1.0"
       ns1:preamble="/home/winkler/.config/inkscape/extensions/textext/default_packages.tex"
       ns1:text="$$\\lim_{x \\to 0} \\frac{\\sin(x)}{x} = 1$$"
       ns1:pdfconverter="pstoedit"
       ns1:texconverter="pdflatex"
       ns1:version="0.11.1"
       text-anchor="start"
       word-spacing="normal"
       letter-spacing="normal"
       font-size-adjust="none"
       font-stretch="normal"
       font-weight="normal"
       font-variant="normal"
       font-style="normal"
       fill-opacity="1"
       fill-rule="evenodd"
       fill="none"
       stroke-opacity="1"
       stroke-dashoffset="0"
       stroke-dasharray="none"
       stroke-miterlimit="10.433"
       stroke-linejoin="miter"
       stroke-linecap="butt"
       stroke="black"
       xml:space="preserve"
       transform="matrix(0.352778,0.000000,0.000000,-0.352778,-2.733110,376.271116)"
       id="content">
<path
   id="path4286"
   fill="black"
   stroke-width="0"
   d="M276.48,648.92 L275.04,648.81 V648.51 C275.73,648.51,275.82,648.43,275.82,647.95 V642.78 C275.82,642.34,275.71,642.34,275.04,642.34 V642.03 C275.37,642.04,275.9,642.06,276.15,642.06 C276.38,642.06,276.88,642.04,277.24,642.03 V642.34 C276.59,642.34,276.48,642.34,276.48,642.78 Z " />
<path
   id="path4288"
   fill="black"
   stroke-width="0"
   d="M279.24,646.42 L277.85,646.31 V646 C278.49,646,278.59,645.93,278.59,645.45 V642.78 C278.59,642.34,278.48,642.34,277.8,642.34 V642.03 C278.12,642.04,278.66,642.06,278.9,642.06 C279.24,642.06,279.59,642.04,279.93,642.03 V642.34 C279.27,642.34,279.24,642.39,279.24,642.78 Z " />
<path
   id="path4290"
   fill="black"
   stroke-width="0"
   d="M279.27,648.15 L279.27,648.18 L279.27,648.21 L279.27,648.24 L279.26,648.26 L279.26,648.29 L279.25,648.32 L279.24,648.34 L279.23,648.36 L279.22,648.39 L279.21,648.41 L279.19,648.43 L279.18,648.45 L279.16,648.47 L279.15,648.49 L279.13,648.51 L279.11,648.53 L279.09,648.54 L279.07,648.56 L279.05,648.57 L279.03,648.59 L279.01,648.6 L278.99,648.61 L278.97,648.62 L278.94,648.63 L278.92,648.64 L278.9,648.65 L278.87,648.65 L278.85,648.66 L278.82,648.66 L278.79,648.67 L278.77,648.67 L278.74,648.67 C278.45,648.67,278.23,648.4,278.23,648.15 C278.23,647.87,278.45,647.62,278.74,647.62 C279.02,647.62,279.27,647.82,279.27,648.15 Z " />
<path
   id="path4292"
   fill="black"
   stroke-width="0"
   d="M281.34,645.45 V642.78 C281.34,642.34,281.23,642.34,280.55,642.34 V642.03 C280.91,642.04,281.41,642.06,281.68,642.06 C281.95,642.06,282.46,642.04,282.79,642.03 V642.34 C282.13,642.34,282.02,642.34,282.02,642.78 V644.6 C282.02,645.64,282.73,646.2,283.37,646.2 C283.99,646.2,284.1,645.67,284.1,645.09 V642.78 C284.1,642.34,283.99,642.34,283.32,642.34 V642.03 C283.66,642.04,284.18,642.06,284.45,642.06 C284.7,642.06,285.23,642.04,285.55,642.03 V642.34 C284.9,642.34,284.79,642.34,284.79,642.78 V644.6 C284.79,645.64,285.49,646.2,286.12,646.2 C286.74,646.2,286.85,645.67,286.85,645.09 V642.78 C286.85,642.34,286.74,642.34,286.09,642.34 V642.03 C286.43,642.04,286.95,642.06,287.21,642.06 C287.46,642.06,287.98,642.04,288.32,642.03 V642.34 C287.8,642.34,287.55,642.34,287.54,642.64 V644.53 C287.54,645.39,287.54,645.7,287.24,646.04 C287.1,646.22,286.77,646.42,286.2,646.42 C285.35,646.42,284.91,645.82,284.76,645.45 C284.62,646.31,283.88,646.42,283.43,646.42 C282.71,646.42,282.24,646,281.96,645.37 V646.42 L280.55,646.31 V646 C281.26,646,281.34,645.93,281.34,645.45 Z " />
<path
   id="path4294"
   fill="black"
   stroke-width="0"
   d="M275.16,636.62 L275.16,636.6 L275.15,636.57 L275.14,636.55 L275.13,636.52 L275.12,636.5 L275.11,636.47 L275.1,636.44 L275.09,636.42 L275.07,636.39 L275.06,636.37 L275.04,636.34 L275.02,636.31 L275.01,636.29 L274.99,636.26 L274.97,636.24 L274.95,636.21 L274.93,636.19 L274.9,636.17 L274.88,636.15 L274.86,636.13 L274.83,636.11 L274.81,636.09 L274.78,636.07 L274.75,636.06 L274.73,636.04 L274.7,636.03 L274.67,636.02 L274.64,636.01 L274.61,636.01 L274.57,636 L274.54,636 L274.51,636 C274.48,636,274.27,636,274.12,636.09 C274.41,636.18,274.43,636.43,274.43,636.48 C274.43,636.64,274.32,636.75,274.15,636.75 C273.96,636.75,273.76,636.57,273.76,636.31 C273.76,635.97,274.15,635.81,274.49,635.81 C274.82,635.81,275.1,636.01,275.27,636.29 C275.45,635.93,275.84,635.81,276.12,635.81 C276.93,635.81,277.35,636.68,277.35,636.87 C277.35,636.97,277.26,636.97,277.24,636.97 C277.13,636.97,277.13,636.93,277.1,636.85 C276.96,636.35,276.54,636,276.15,636 C275.87,636,275.71,636.18,275.71,636.45 C275.71,636.64,275.88,637.28,276.09,638.06 C276.23,638.6,276.54,638.78,276.77,638.78 C276.79,638.78,276.99,638.78,277.15,638.68 C276.93,638.6,276.84,638.42,276.84,638.29 C276.84,638.14,276.96,638.03,277.12,638.03 C277.27,638.03,277.51,638.17,277.51,638.47 C277.51,638.85,277.07,638.97,276.79,638.97 C276.43,638.97,276.15,638.75,275.99,638.47 C275.87,638.76,275.54,638.97,275.15,638.97 C274.37,638.97,273.91,638.1,273.91,637.9 C273.91,637.81,274.01,637.81,274.04,637.81 C274.12,637.81,274.13,637.84,274.16,637.92 C274.34,638.47,274.79,638.78,275.13,638.78 C275.37,638.78,275.55,638.65,275.55,638.31 C275.55,638.17,275.46,637.82,275.4,637.57 Z " />
<path
   id="path4296"
   fill="black"
   stroke-width="0"
   d="M284.4,637.47 L284.32,637.4 L284.24,637.34 L284.17,637.27 L284.1,637.21 L284.04,637.14 L283.98,637.08 L283.92,637.01 L283.87,636.94 L283.82,636.87 L283.77,636.81 L283.73,636.74 L283.69,636.68 L283.65,636.61 L283.62,636.55 L283.59,636.49 L283.56,636.43 L283.54,636.37 L283.52,636.32 L283.5,636.26 L283.48,636.21 L283.46,636.17 L283.45,636.12 L283.44,636.08 L283.43,636.04 L283.42,636.01 L283.41,635.98 L283.41,635.95 L283.4,635.93 L283.4,635.91 L283.4,635.9 L283.4,635.89 L283.4,635.89 C283.4,635.78,283.46,635.78,283.55,635.78 C283.68,635.78,283.71,635.78,283.74,635.9 C283.79,636.07,283.9,636.53,284.26,636.92 C284.66,637.34,285.02,637.45,285.32,637.54 C285.37,637.56,285.38,637.59,285.38,637.62 C285.38,637.7,285.35,637.72,285.26,637.75 C284.24,638.06,283.88,638.78,283.74,639.4 C283.71,639.48,283.66,639.48,283.55,639.48 C283.46,639.48,283.4,639.48,283.4,639.39 C283.4,639.37,283.46,638.89,283.8,638.4 C283.96,638.17,284.16,637.98,284.4,637.81 H278.76 C278.63,637.81,278.48,637.81,278.48,637.64 C278.48,637.47,278.63,637.47,278.76,637.47 Z " />
<path
   id="path4298"
   fill="black"
   stroke-width="0"
   d="M289.5,638.12 L289.49,638.26 L289.49,638.4 L289.49,638.53 L289.48,638.66 L289.46,638.78 L289.45,638.9 L289.43,639.02 L289.41,639.13 L289.38,639.24 L289.36,639.35 L289.32,639.45 L289.29,639.55 L289.24,639.65 L289.2,639.75 L289.15,639.84 L289.09,639.93 C288.87,640.26,288.43,640.54,287.87,640.54 V640.34 C288.25,640.34,288.61,640.1,288.75,639.7 C288.86,639.32,288.86,638.82,288.86,638.2 C288.86,637.68,288.86,637.17,288.76,636.72 C288.62,636.07,288.15,635.93,287.87,635.93 H287.87 C287.54,635.93,287.12,636.12,286.98,636.7 C286.87,637.1,286.87,637.68,286.87,638.2 C286.87,638.72,286.87,639.25,286.98,639.64 C287.14,640.2,287.57,640.34,287.87,640.34 V640.54 C286.23,640.54,286.23,638.62,286.23,638.12 C286.23,637.6,286.23,635.73,287.87,635.73 C289.5,635.73,289.5,637.6,289.5,638.12 Z " />
<path
   id="path4300"
   fill="black"
   stroke-width="0"
   d="M294.76,650.69 L294.78,650.68 L294.81,650.68 L294.84,650.68 L294.87,650.67 L294.9,650.66 L294.94,650.65 L294.98,650.64 L295.02,650.63 L295.06,650.62 L295.1,650.61 L295.14,650.59 L295.18,650.58 L295.23,650.56 L295.27,650.54 L295.32,650.52 L295.36,650.49 L295.4,650.47 L295.44,650.44 L295.48,650.41 L295.52,650.38 L295.56,650.34 L295.6,650.3 L295.63,650.26 L295.66,650.22 L295.69,650.18 L295.7,650.15 L295.72,650.13 L295.73,650.1 L295.74,650.08 L295.75,650.05 L295.76,650.03 L295.77,650 L295.77,649.97 L295.78,649.94 L295.78,649.91 L295.79,649.88 L295.79,649.85 L295.79,649.81 L295.79,649.78 C295.79,649.27,295.45,648.88,294.68,648.88 C293.84,648.88,293.48,649.44,293.29,650.28 C293.26,650.42,293.26,650.45,293.15,650.45 C293.03,650.45,293.03,650.39,293.03,650.2 V648.89 C293.03,648.72,293.03,648.66,293.14,648.66 C293.18,648.66,293.2,648.67,293.39,648.86 C293.4,648.88,293.4,648.89,293.59,649.08 C294.03,648.67,294.46,648.66,294.68,648.66 C295.82,648.66,296.28,649.33,296.28,650.03 C296.28,650.56,295.98,650.86,295.86,650.98 C295.53,651.3,295.14,651.38,294.73,651.45 C294.17,651.56,293.5,651.7,293.5,652.27 C293.5,652.62,293.76,653.03,294.62,653.03 C295.71,653.03,295.76,652.14,295.78,651.83 C295.79,651.73,295.87,651.73,295.9,651.73 C296.03,651.73,296.03,651.78,296.03,651.97 V652.98 C296.03,653.14,296.03,653.22,295.92,653.22 C295.87,653.22,295.86,653.22,295.71,653.09 C295.68,653.06,295.59,652.97,295.54,652.94 C295.17,653.22,294.76,653.22,294.62,653.22 C293.4,653.22,293.03,652.55,293.03,652 C293.03,651.64,293.18,651.38,293.45,651.16 C293.78,650.89,294.04,650.83,294.76,650.69 Z " />
<path
   id="path4302"
   fill="black"
   stroke-width="0"
   d="M298.39,653.16 L297,653.05 V652.73 C297.64,652.73,297.73,652.67,297.73,652.19 V649.52 C297.73,649.08,297.62,649.08,296.95,649.08 V648.77 C297.27,648.78,297.81,648.8,298.05,648.8 C298.39,648.8,298.73,648.78,299.08,648.77 V649.08 C298.42,649.08,298.39,649.12,298.39,649.52 Z " />
<path
   id="path4304"
   fill="black"
   stroke-width="0"
   d="M298.42,654.89 L298.42,654.92 L298.42,654.95 L298.42,654.98 L298.41,655 L298.4,655.03 L298.4,655.05 L298.39,655.08 L298.38,655.1 L298.37,655.13 L298.36,655.15 L298.34,655.17 L298.33,655.19 L298.31,655.21 L298.3,655.23 L298.28,655.25 L298.26,655.27 L298.24,655.28 L298.22,655.3 L298.2,655.31 L298.18,655.33 L298.16,655.34 L298.14,655.35 L298.12,655.36 L298.09,655.37 L298.07,655.38 L298.04,655.39 L298.02,655.39 L297.99,655.4 L297.97,655.4 L297.94,655.4 L297.92,655.41 L297.89,655.41 C297.59,655.41,297.38,655.14,297.38,654.89 C297.38,654.61,297.59,654.36,297.89,654.36 C298.17,654.36,298.42,654.56,298.42,654.89 Z " />
<path
   id="path4306"
   fill="black"
   stroke-width="0"
   d="M300.48,652.19 V649.52 C300.48,649.08,300.38,649.08,299.7,649.08 V648.77 C300.06,648.78,300.56,648.8,300.83,648.8 C301.09,648.8,301.61,648.78,301.94,648.77 V649.08 C301.28,649.08,301.17,649.08,301.17,649.52 V651.34 C301.17,652.38,301.88,652.94,302.52,652.94 C303.14,652.94,303.25,652.41,303.25,651.83 V649.52 C303.25,649.08,303.14,649.08,302.47,649.08 V648.77 C302.81,648.78,303.33,648.8,303.59,648.8 C303.84,648.8,304.38,648.78,304.7,648.77 V649.08 C304.19,649.08,303.94,649.08,303.94,649.38 V651.27 C303.94,652.12,303.94,652.44,303.62,652.78 C303.48,652.95,303.16,653.16,302.58,653.16 C301.86,653.16,301.39,652.73,301.11,652.11 V653.16 L299.7,653.05 V652.73 C300.41,652.73,300.48,652.67,300.48,652.19 Z " />
<path
   id="path4308"
   fill="black"
   stroke-width="0"
   d="M308.21,646.38 L308.21,646.38 L308.21,646.39 L308.21,646.39 L308.21,646.39 L308.21,646.4 L308.2,646.4 L308.2,646.4 L308.2,646.41 L308.2,646.41 L308.2,646.42 L308.2,646.42 L308.19,646.43 L308.19,646.43 L308.19,646.44 L308.18,646.44 L308.18,646.45 L308.17,646.46 L308.17,646.46 L308.16,646.47 L308.16,646.48 L308.15,646.48 L308.15,646.49 L308.15,646.49 L308.14,646.5 L308.14,646.5 L308.13,646.51 L308.13,646.51 L308.12,646.52 L308.12,646.52 L308.11,646.53 L308.11,646.54 L308.1,646.54 L308.1,646.55 L308.09,646.55 L308.08,646.56 L308.08,646.57 L308.07,646.57 L308.07,646.58 L308.06,646.59 L308.05,646.59 C306.8,647.86,306.49,649.73,306.49,651.25 C306.49,652.98,306.86,654.7,308.08,655.95 C308.21,656.06,308.21,656.09,308.21,656.11 C308.21,656.19,308.18,656.22,308.11,656.22 C308.02,656.22,307.13,655.55,306.54,654.28 C306.04,653.19,305.91,652.08,305.91,651.25 C305.91,650.47,306.02,649.27,306.57,648.16 C307.16,646.92,308.02,646.28,308.11,646.28 C308.18,646.28,308.21,646.31,308.21,646.38 Z " />
<path
   id="path4310"
   fill="black"
   stroke-width="0"
   d="M312.12,651.77 L312.12,651.79 L312.13,651.82 L312.14,651.86 L312.15,651.89 L312.16,651.93 L312.17,651.97 L312.19,652.02 L312.2,652.06 L312.22,652.11 L312.23,652.16 L312.25,652.2 L312.27,652.25 L312.3,652.3 L312.32,652.35 L312.35,652.4 L312.38,652.45 L312.4,652.5 L312.44,652.55 L312.47,652.59 L312.5,652.64 L312.54,652.68 L312.58,652.72 L312.62,652.76 L312.67,652.79 L312.71,652.82 L312.76,652.85 L312.81,652.88 L312.84,652.89 L312.86,652.9 L312.89,652.91 L312.92,652.92 L312.95,652.92 L312.98,652.93 L313.01,652.93 L313.04,652.94 L313.07,652.94 L313.1,652.94 C313.15,652.94,313.4,652.94,313.6,652.81 C313.32,652.77,313.13,652.52,313.13,652.27 C313.13,652.11,313.24,651.92,313.51,651.92 C313.73,651.92,314.04,652.11,314.04,652.5 C314.04,653.02,313.46,653.16,313.12,653.16 C312.54,653.16,312.2,652.62,312.07,652.41 C311.82,653.06,311.29,653.16,311.01,653.16 C309.96,653.16,309.4,651.88,309.4,651.62 C309.4,651.53,309.51,651.53,309.52,651.53 C309.6,651.53,309.63,651.55,309.65,651.64 C309.99,652.69,310.65,652.94,310.98,652.94 C311.16,652.94,311.52,652.84,311.52,652.27 C311.52,651.97,311.35,651.3,310.98,649.91 C310.82,649.3,310.48,648.88,310.04,648.88 C309.98,648.88,309.74,648.88,309.54,649 C309.79,649.05,310.01,649.27,310.01,649.55 C310.01,649.81,309.79,649.89,309.63,649.89 C309.34,649.89,309.09,649.62,309.09,649.31 C309.09,648.86,309.59,648.66,310.02,648.66 C310.68,648.66,311.04,649.36,311.07,649.41 C311.2,649.05,311.54,648.66,312.15,648.66 C313.16,648.66,313.73,649.94,313.73,650.19 C313.73,650.28,313.65,650.28,313.62,650.28 C313.52,650.28,313.51,650.25,313.48,650.17 C313.15,649.11,312.48,648.88,312.16,648.88 C311.77,648.88,311.62,649.19,311.62,649.53 C311.62,649.75,311.68,649.97,311.79,650.41 Z " />
<path
   id="path4312"
   fill="black"
   stroke-width="0"
   d="M317.38,651.25 L317.37,651.32 L317.37,651.4 L317.37,651.56 L317.36,651.73 L317.35,651.9 L317.33,652.09 L317.31,652.28 L317.28,652.47 L317.25,652.67 L317.21,652.87 L317.17,653.08 L317.11,653.29 L317.05,653.5 L316.98,653.71 L316.9,653.92 L316.86,654.03 L316.82,654.13 L316.77,654.24 L316.72,654.34 C316.12,655.56,315.27,656.22,315.17,656.22 C315.11,656.22,315.06,656.17,315.06,656.11 C315.06,656.09,315.06,656.06,315.25,655.89 C316.23,654.91,316.8,653.33,316.8,651.25 C316.8,649.55,316.42,647.8,315.2,646.55 C315.06,646.44,315.06,646.41,315.06,646.38 C315.06,646.33,315.11,646.28,315.17,646.28 C315.27,646.28,316.16,646.95,316.75,648.22 C317.25,649.31,317.38,650.42,317.38,651.25 Z " />
<line
   id="line4314"
   stroke-width="0.398"
   y2="644.52"
   x2="318.38"
   y1="644.52"
   x1="292.7" />
<path
   id="path4316"
   fill="black"
   stroke-width="0"
   d="M306,638.19 L306.01,638.22 L306.02,638.25 L306.03,638.28 L306.04,638.32 L306.05,638.36 L306.06,638.4 L306.07,638.44 L306.09,638.49 L306.1,638.53 L306.12,638.58 L306.14,638.63 L306.16,638.68 L306.18,638.73 L306.21,638.78 L306.23,638.83 L306.26,638.88 L306.29,638.92 L306.32,638.97 L306.36,639.02 L306.39,639.06 L306.43,639.1 L306.47,639.14 L306.51,639.18 L306.55,639.22 L306.6,639.25 L306.65,639.28 L306.7,639.3 L306.72,639.31 L306.75,639.32 L306.78,639.33 L306.81,639.34 L306.84,639.35 L306.86,639.35 L306.89,639.36 L306.92,639.36 L306.96,639.36 L306.99,639.36 C307.04,639.36,307.29,639.36,307.49,639.24 C307.21,639.19,307.02,638.94,307.02,638.69 C307.02,638.53,307.13,638.35,307.39,638.35 C307.61,638.35,307.93,638.53,307.93,638.93 C307.93,639.44,307.35,639.58,307,639.58 C306.43,639.58,306.08,639.05,305.96,638.83 C305.71,639.49,305.18,639.58,304.89,639.58 C303.85,639.58,303.29,638.3,303.29,638.05 C303.29,637.96,303.39,637.96,303.41,637.96 C303.49,637.96,303.52,637.97,303.54,638.07 C303.88,639.11,304.54,639.36,304.86,639.36 C305.05,639.36,305.41,639.27,305.41,638.69 C305.41,638.4,305.24,637.72,304.86,636.33 C304.71,635.72,304.36,635.3,303.93,635.3 C303.86,635.3,303.63,635.3,303.43,635.43 C303.68,635.47,303.89,635.69,303.89,635.97 C303.89,636.24,303.68,636.32,303.52,636.32 C303.22,636.32,302.97,636.05,302.97,635.74 C302.97,635.28,303.47,635.08,303.91,635.08 C304.57,635.08,304.93,635.78,304.96,635.83 C305.08,635.47,305.43,635.08,306.04,635.08 C307.05,635.08,307.61,636.36,307.61,636.61 C307.61,636.71,307.54,636.71,307.5,636.71 C307.41,636.71,307.39,636.68,307.36,636.6 C307.04,635.53,306.36,635.3,306.05,635.3 C305.66,635.3,305.5,635.61,305.5,635.96 C305.5,636.18,305.57,636.4,305.68,636.83 Z " />
<path
   id="path4318"
   fill="black"
   stroke-width="0"
   d="M329.17,645.28 L329.19,645.28 L329.22,645.28 L329.25,645.28 L329.26,645.28 L329.28,645.28 L329.29,645.28 L329.31,645.28 L329.32,645.29 L329.33,645.29 L329.35,645.29 L329.36,645.29 L329.37,645.3 L329.38,645.3 L329.4,645.31 L329.41,645.31 L329.42,645.32 L329.43,645.33 L329.44,645.33 L329.45,645.34 L329.46,645.35 L329.46,645.36 L329.46,645.36 L329.47,645.37 L329.47,645.37 L329.47,645.38 L329.48,645.39 L329.48,645.39 L329.48,645.4 L329.49,645.41 L329.49,645.41 L329.49,645.42 L329.49,645.43 L329.49,645.44 L329.49,645.44 L329.49,645.45 L329.5,645.46 L329.5,645.47 L329.5,645.48 C329.5,645.67,329.31,645.67,329.17,645.67 H323.23 C323.09,645.67,322.9,645.67,322.9,645.48 C322.9,645.28,323.09,645.28,323.23,645.28 Z " />
<path
   id="path4320"
   fill="black"
   stroke-width="0"
   d="M329.17,643.35 L329.19,643.36 L329.22,643.36 L329.25,643.36 L329.26,643.36 L329.28,643.36 L329.29,643.36 L329.31,643.36 L329.32,643.36 L329.33,643.36 L329.35,643.37 L329.36,643.37 L329.37,643.37 L329.38,643.38 L329.4,643.38 L329.41,643.39 L329.42,643.39 L329.43,643.4 L329.44,643.41 L329.45,643.42 L329.46,643.42 L329.46,643.43 L329.47,643.44 L329.47,643.44 L329.47,643.45 L329.48,643.46 L329.48,643.46 L329.48,643.47 L329.49,643.47 L329.49,643.48 L329.49,643.49 L329.49,643.49 L329.49,643.5 L329.49,643.51 L329.49,643.52 L329.5,643.53 L329.5,643.53 L329.5,643.54 C329.5,643.75,329.31,643.75,329.17,643.75 H323.23 C323.09,643.75,322.9,643.75,322.9,643.54 C322.9,643.35,323.09,643.35,323.23,643.35 Z " />
<path
   id="path4322"
   fill="black"
   stroke-width="0"
   d="M335.78,648.39 L335.78,648.4 L335.78,648.41 L335.78,648.42 L335.78,648.43 L335.78,648.44 L335.78,648.45 L335.78,648.46 L335.78,648.46 L335.78,648.47 L335.78,648.48 L335.78,648.49 L335.78,648.5 L335.78,648.5 L335.77,648.51 L335.77,648.52 L335.77,648.52 L335.77,648.53 L335.77,648.54 L335.77,648.55 L335.77,648.56 L335.76,648.57 L335.76,648.58 L335.76,648.59 L335.75,648.59 L335.75,648.6 L335.74,648.61 L335.74,648.61 L335.73,648.62 L335.72,648.62 L335.72,648.62 L335.71,648.62 L335.71,648.62 L335.7,648.63 L335.7,648.63 L335.69,648.63 L335.68,648.63 L335.68,648.63 L335.67,648.63 L335.67,648.63 L335.66,648.63 L335.65,648.63 L335.64,648.63 L335.64,648.64 L335.63,648.64 L335.62,648.64 L335.61,648.64 L335.6,648.64 L335.59,648.64 L335.58,648.64 L335.57,648.64 L335.56,648.64 L335.55,648.64 L335.54,648.64 C334.93,648.01,334.06,648.01,333.75,648.01 V647.7 C333.93,647.7,334.53,647.7,335.04,647.97 V642.81 C335.04,642.45,335.01,642.34,334.12,642.34 H333.79 V642.03 C334.15,642.06,335.01,642.06,335.4,642.06 C335.81,642.06,336.67,642.06,337.01,642.03 V642.34 H336.7 C335.81,642.34,335.78,642.45,335.78,642.81 Z " />
</g>  </g>
</svg>
