<?xml version="1.0" encoding="UTF-8" standalone="no"?>
<svg
   xmlns:ns0="http://www.iki.fi/pav/software/textext/"
   xmlns:dc="http://purl.org/dc/elements/1.1/"
   xmlns:cc="http://creativecommons.org/ns#"
   xmlns:rdf="http://www.w3.org/1999/02/22-rdf-syntax-ns#"
   xmlns:svg="http://www.w3.org/2000/svg"
   xmlns="http://www.w3.org/2000/svg"
   xmlns:sodipodi="http://sodipodi.sourceforge.net/DTD/sodipodi-0.dtd"
   xmlns:inkscape="http://www.inkscape.org/namespaces/inkscape"
   id="svg298"
   version="1.1"
   viewBox="0 0 210 297"
   height="297mm"
   width="210mm"
   inkscape:version="1.0.1 (1.0.1+r74)"
   sodipodi:docname="modified.svg">
  <defs
     id="defs292" />
  <sodipodi:namedview
     id="base"
     pagecolor="#ffffff"
     bordercolor="#666666"
     borderopacity="1.0"
     inkscape:pageopacity="0.0"
     inkscape:pageshadow="2"
     inkscape:zoom="14.966071"
     inkscape:cx="400.00028"
     inkscape:cy="559.99985"
     inkscape:document-units="mm"
     inkscape:current-layer="layer1"
     inkscape:document-rotation="0"
     showgrid="false"
     inkscape:window-width="1920"
     inkscape:window-height="1015"
     inkscape:window-x="0"
     inkscape:window-y="0"
     inkscape:window-maximized="1" />
  <metadata
     id="metadata295">
    <rdf:RDF>
      <cc:Work
         rdf:about="">
        <dc:format>image/svg+xml</dc:format>
        <dc:type
           rdf:resource="http://purl.org/dc/dcmitype/StillImage" />
        <dc:title />
      </cc:Work>
    </rdf:RDF>
  </metadata>
  <g
     inkscape:label="Ebene 1"
     inkscape:groupmode="layer"
     id="layer1">
    <g
       transform="matrix(0.352778 0 0 0.352778 94.7899 144.091)"
       ns0:version="1.1.0"
       ns0:texconverter="pdflatex"
       ns0:pdfconverter="inkscape"
       ns0:text="$$\\lim_{y \\to 0} \\frac{\\sin(y)}{y} = 1$$\n"
       ns0:preamble="/home/winkler/.config/inkscape/extensions/textext/default_packages.tex"
       ns0:scale="1.0"
       ns0:alignment="middle center"
       ns0:inkscapeversion="1.0.1"
       ns0:jacobian_sqrt="0.352778"
       style="fill:#ff0000;stroke-width:0"
       id="content">
      <defs
         id="id-a8f05f75-84c9-4652-ae6c-96870bf9edc4"
         style="fill:#ff0000;stroke-width:0">
        <g
           id="id-0f9ced9f-141f-4772-8ed7-b4eb56609e6b"
           style="fill:#ff0000;stroke-width:0">
          <symbol
             overflow="visible"
             id="id-16cd3b5c-462b-4124-aeef-3fe9cd29aa7c"
             style="fill:#ff0000;stroke-width:0">
            <path
               style="stroke:none;fill:#ff0000;stroke-width:0"
               d=""
               id="id-2f7360de-d382-4289-8ad4-adb072748a60" />
          </symbol>
          <symbol
             overflow="visible"
             id="id-0c454d47-35f3-4216-b54a-6b798dae35bf"
             style="fill:#ff0000;stroke-width:0">
            <path
               style="stroke:none;fill:#ff0000;stroke-width:0"
               d="M 1.765625,-6.921875 0.328125,-6.8125 V -6.5 c 0.703125,0 0.78125,0.0625 0.78125,0.5625 V -0.75 c 0,0.4375 -0.109375,0.4375 -0.78125,0.4375 V 0 C 0.65625,-0.015625 1.1875,-0.03125 1.4375,-0.03125 c 0.25,0 0.734375,0.015625 1.109375,0.03125 v -0.3125 c -0.671875,0 -0.78125,0 -0.78125,-0.4375 z m 0,0"
               id="id-bfd2af01-679d-4dcf-866c-a0c25b980f52" />
          </symbol>
          <symbol
             overflow="visible"
             id="id-30916a3a-6c3e-4f15-a8f9-e588ce1db669"
             style="fill:#ff0000;stroke-width:0">
            <path
               style="stroke:none;fill:#ff0000;stroke-width:0"
               d="M 1.765625,-4.40625 0.375,-4.296875 v 0.3125 c 0.640625,0 0.734375,0.0625 0.734375,0.546875 V -0.75 c 0,0.4375 -0.109375,0.4375 -0.78125,0.4375 V 0 C 0.640625,-0.015625 1.1875,-0.03125 1.421875,-0.03125 1.78125,-0.03125 2.125,-0.015625 2.46875,0 v -0.3125 c -0.671875,0 -0.703125,-0.046875 -0.703125,-0.4375 z m 0.03125,-1.734375 c 0,-0.3125 -0.234375,-0.53125 -0.515625,-0.53125 -0.3125,0 -0.53125,0.265625 -0.53125,0.53125 0,0.265625 0.21875,0.53125 0.53125,0.53125 0.28125,0 0.515625,-0.21875 0.515625,-0.53125 z m 0,0"
               id="id-6fcd9a3a-fedb-478e-9b14-8b47ad329d42" />
          </symbol>
          <symbol
             overflow="visible"
             id="id-4a00ddbc-9e41-4841-bfb3-f7e9ef014a18"
             style="fill:#ff0000;stroke-width:0">
            <path
               style="stroke:none;fill:#ff0000;stroke-width:0"
               d="M 1.09375,-3.421875 V -0.75 c 0,0.4375 -0.109375,0.4375 -0.78125,0.4375 V 0 c 0.359375,-0.015625 0.859375,-0.03125 1.140625,-0.03125 0.25,0 0.765625,0.015625 1.109375,0.03125 v -0.3125 c -0.671875,0 -0.78125,0 -0.78125,-0.4375 V -2.59375 C 1.78125,-3.625 2.5,-4.1875 3.125,-4.1875 c 0.640625,0 0.75,0.53125 0.75,1.109375 V -0.75 c 0,0.4375 -0.109375,0.4375 -0.78125,0.4375 V 0 c 0.34375,-0.015625 0.859375,-0.03125 1.125,-0.03125 0.25,0 0.78125,0.015625 1.109375,0.03125 v -0.3125 c -0.65625,0 -0.765625,0 -0.765625,-0.4375 v -1.84375 c 0,-1.03125 0.703125,-1.59375 1.34375,-1.59375 0.625,0 0.734375,0.53125 0.734375,1.109375 V -0.75 c 0,0.4375 -0.109375,0.4375 -0.78125,0.4375 V 0 c 0.34375,-0.015625 0.859375,-0.03125 1.125,-0.03125 0.265625,0 0.78125,0.015625 1.125,0.03125 v -0.3125 c -0.515625,0 -0.765625,0 -0.78125,-0.296875 v -1.90625 c 0,-0.859375 0,-1.15625 -0.3125,-1.515625 -0.140625,-0.171875 -0.46875,-0.375 -1.046875,-0.375 -0.828125,0 -1.28125,0.59375 -1.4375,0.984375 C 4.390625,-4.296875 3.65625,-4.40625 3.203125,-4.40625 2.46875,-4.40625 2,-3.984375 1.71875,-3.359375 V -4.40625 L 0.3125,-4.296875 v 0.3125 c 0.703125,0 0.78125,0.0625 0.78125,0.5625 z m 0,0"
               id="id-940e4336-c733-48c1-b6ff-d2947e8663e6" />
          </symbol>
          <symbol
             overflow="visible"
             id="id-302b46b0-3882-4490-ab5d-cef09e650877"
             style="fill:#ff0000;stroke-width:0">
            <path
               style="stroke:none;fill:#ff0000;stroke-width:0"
               d="m 2.078125,-1.9375 c 0.21875,0.046875 1.03125,0.203125 1.03125,0.921875 0,0.5 -0.34375,0.90625 -1.125,0.90625 -0.84375,0 -1.203125,-0.5625 -1.390625,-1.421875 C 0.5625,-1.65625 0.5625,-1.6875 0.453125,-1.6875 c -0.125,0 -0.125,0.0625 -0.125,0.234375 V -0.125 c 0,0.171875 0,0.234375 0.109375,0.234375 0.046875,0 0.0625,-0.015625 0.25,-0.203125 0.015625,-0.015625 0.015625,-0.03125 0.203125,-0.21875 0.4375,0.40625 0.890625,0.421875 1.09375,0.421875 1.140625,0 1.609375,-0.671875 1.609375,-1.390625 0,-0.515625 -0.296875,-0.828125 -0.421875,-0.9375 C 2.84375,-2.546875 2.453125,-2.625 2.03125,-2.703125 1.46875,-2.8125 0.8125,-2.9375 0.8125,-3.515625 c 0,-0.359375 0.25,-0.765625 1.109375,-0.765625 1.09375,0 1.15625,0.90625 1.171875,1.203125 0,0.09375 0.09375,0.09375 0.109375,0.09375 0.140625,0 0.140625,-0.046875 0.140625,-0.234375 v -1.015625 c 0,-0.15625 0,-0.234375 -0.109375,-0.234375 -0.046875,0 -0.078125,0 -0.203125,0.125 -0.03125,0.03125 -0.125,0.125 -0.171875,0.15625 -0.375,-0.28125 -0.78125,-0.28125 -0.9375,-0.28125 -1.21875,0 -1.59375,0.671875 -1.59375,1.234375 0,0.34375 0.15625,0.625 0.421875,0.84375 0.328125,0.25 0.609375,0.3125 1.328125,0.453125 z m 0,0"
               id="id-bfd2c0ff-4737-4da9-8d7d-311f603ee21f" />
          </symbol>
          <symbol
             overflow="visible"
             id="id-eb32a524-e039-4eea-9e58-349f1b2bceb6"
             style="fill:#ff0000;stroke-width:0">
            <path
               style="stroke:none;fill:#ff0000;stroke-width:0"
               d="M 1.09375,-3.421875 V -0.75 c 0,0.4375 -0.109375,0.4375 -0.78125,0.4375 V 0 c 0.359375,-0.015625 0.859375,-0.03125 1.140625,-0.03125 0.25,0 0.765625,0.015625 1.109375,0.03125 v -0.3125 c -0.671875,0 -0.78125,0 -0.78125,-0.4375 V -2.59375 C 1.78125,-3.625 2.5,-4.1875 3.125,-4.1875 c 0.640625,0 0.75,0.53125 0.75,1.109375 V -0.75 c 0,0.4375 -0.109375,0.4375 -0.78125,0.4375 V 0 c 0.34375,-0.015625 0.859375,-0.03125 1.125,-0.03125 0.25,0 0.78125,0.015625 1.109375,0.03125 v -0.3125 c -0.515625,0 -0.765625,0 -0.765625,-0.296875 v -1.90625 c 0,-0.859375 0,-1.15625 -0.3125,-1.515625 -0.140625,-0.171875 -0.46875,-0.375 -1.046875,-0.375 C 2.46875,-4.40625 2,-3.984375 1.71875,-3.359375 V -4.40625 L 0.3125,-4.296875 v 0.3125 c 0.703125,0 0.78125,0.0625 0.78125,0.5625 z m 0,0"
               id="id-f403b3c7-3b7d-44d3-8aa4-c3e66959f6b8" />
          </symbol>
          <symbol
             overflow="visible"
             id="id-5c3ead82-4f49-42ad-b151-6f63a9df71ef"
             style="fill:#ff0000;stroke-width:0">
            <path
               style="stroke:none;fill:#ff0000;stroke-width:0"
               d="m 3.296875,2.390625 c 0,-0.03125 0,-0.046875 -0.171875,-0.21875 C 1.890625,0.921875 1.5625,-0.96875 1.5625,-2.5 c 0,-1.734375 0.375,-3.46875 1.609375,-4.703125 0.125,-0.125 0.125,-0.140625 0.125,-0.171875 0,-0.078125 -0.03125,-0.109375 -0.09375,-0.109375 -0.109375,0 -1,0.6875 -1.59375,1.953125 -0.5,1.09375 -0.625,2.203125 -0.625,3.03125 0,0.78125 0.109375,1.984375 0.65625,3.125 C 2.25,1.84375 3.09375,2.5 3.203125,2.5 c 0.0625,0 0.09375,-0.03125 0.09375,-0.109375 z m 0,0"
               id="id-27c6f0b1-5fc0-45b1-9d62-f504258a20c0" />
          </symbol>
          <symbol
             overflow="visible"
             id="id-6521931d-d162-4c5a-b5f4-4ca71a3a150b"
             style="fill:#ff0000;stroke-width:0">
            <path
               style="stroke:none;fill:#ff0000;stroke-width:0"
               d="m 2.875,-2.5 c 0,-0.765625 -0.109375,-1.96875 -0.65625,-3.109375 -0.59375,-1.21875 -1.453125,-1.875 -1.546875,-1.875 -0.0625,0 -0.109375,0.046875 -0.109375,0.109375 0,0.03125 0,0.046875 0.1875,0.234375 0.984375,0.984375 1.546875,2.5625 1.546875,4.640625 0,1.71875 -0.359375,3.46875 -1.59375,4.71875 C 0.5625,2.34375 0.5625,2.359375 0.5625,2.390625 0.5625,2.453125 0.609375,2.5 0.671875,2.5 0.765625,2.5 1.671875,1.8125 2.25,0.546875 2.765625,-0.546875 2.875,-1.65625 2.875,-2.5 Z m 0,0"
               id="id-c4f24f29-1dba-4ffb-98c1-d53d7ae06e12" />
          </symbol>
          <symbol
             overflow="visible"
             id="id-733a04c4-e6be-46f8-9a74-d96e88e8647f"
             style="fill:#ff0000;stroke-width:0">
            <path
               style="stroke:none;fill:#ff0000;stroke-width:0"
               d="m 6.84375,-3.265625 c 0.15625,0 0.34375,0 0.34375,-0.1875 C 7.1875,-3.65625 7,-3.65625 6.859375,-3.65625 h -5.96875 c -0.140625,0 -0.328125,0 -0.328125,0.203125 0,0.1875 0.1875,0.1875 0.328125,0.1875 z m 0.015625,1.9375 c 0.140625,0 0.328125,0 0.328125,-0.203125 0,-0.1875 -0.1875,-0.1875 -0.34375,-0.1875 H 0.890625 c -0.140625,0 -0.328125,0 -0.328125,0.1875 0,0.203125 0.1875,0.203125 0.328125,0.203125 z m 0,0"
               id="id-7c7372a1-d4e2-4da0-8e5e-b252806ecdd7" />
          </symbol>
          <symbol
             overflow="visible"
             id="id-a410ae0d-2282-4b0d-a587-4638a6b79363"
             style="fill:#ff0000;stroke-width:0">
            <path
               style="stroke:none;fill:#ff0000;stroke-width:0"
               d="m 2.9375,-6.375 c 0,-0.25 0,-0.265625 -0.234375,-0.265625 C 2.078125,-6 1.203125,-6 0.890625,-6 v 0.3125 c 0.203125,0 0.78125,0 1.296875,-0.265625 v 5.171875 c 0,0.359375 -0.03125,0.46875 -0.921875,0.46875 h -0.3125 V 0 c 0.34375,-0.03125 1.203125,-0.03125 1.609375,-0.03125 0.390625,0 1.265625,0 1.609375,0.03125 v -0.3125 h -0.3125 c -0.90625,0 -0.921875,-0.109375 -0.921875,-0.46875 z m 0,0"
               id="id-31a40b29-f5f8-4a5f-a6ce-70728549482a" />
          </symbol>
          <symbol
             overflow="visible"
             id="id-548d6562-1012-4177-8121-44a243522e29"
             style="fill:#ff0000;stroke-width:0">
            <path
               style="stroke:none;fill:#ff0000;stroke-width:0"
               d=""
               id="id-6787b706-2b37-4e9f-bed5-faa3a1dd3de1" />
          </symbol>
          <symbol
             overflow="visible"
             id="id-358be761-6d27-458b-9dbe-6a57c0e7f247"
             style="fill:#ff0000;stroke-width:0">
            <path
               style="stroke:none;fill:#ff0000;stroke-width:0"
               d="M 3.875,-2.625 C 3.90625,-2.71875 3.90625,-2.734375 3.90625,-2.78125 3.90625,-2.921875 3.796875,-3 3.671875,-3 3.59375,-3 3.46875,-2.96875 3.390625,-2.84375 3.359375,-2.796875 3.3125,-2.578125 3.28125,-2.4375 L 3.125,-1.859375 c -0.03125,0.171875 -0.25,1.046875 -0.28125,1.125 0,0 -0.3125,0.609375 -0.84375,0.609375 -0.484375,0 -0.484375,-0.453125 -0.484375,-0.578125 0,-0.375 0.15625,-0.8125 0.375,-1.359375 C 1.96875,-2.28125 2,-2.359375 2,-2.484375 2,-2.8125 1.71875,-3.078125 1.34375,-3.078125 0.640625,-3.078125 0.328125,-2.125 0.328125,-2 c 0,0.078125 0.09375,0.078125 0.125,0.078125 0.09375,0 0.09375,-0.03125 0.125,-0.109375 C 0.75,-2.609375 1.046875,-2.875 1.328125,-2.875 1.4375,-2.875 1.5,-2.796875 1.5,-2.640625 c 0,0.171875 -0.0625,0.3125 -0.09375,0.40625 C 1.0625,-1.375 1,-1.125 1,-0.8125 1,-0.703125 1,-0.375 1.265625,-0.140625 1.484375,0.03125 1.78125,0.0625 1.96875,0.0625 2.25,0.0625 2.5,-0.03125 2.71875,-0.25 2.640625,0.140625 2.5625,0.4375 2.265625,0.78125 2.078125,1 1.796875,1.21875 1.421875,1.21875 c -0.046875,0 -0.375,0 -0.515625,-0.21875 0.375,-0.046875 0.375,-0.375 0.375,-0.390625 0,-0.21875 -0.203125,-0.265625 -0.265625,-0.265625 -0.171875,0 -0.40625,0.140625 -0.40625,0.46875 0,0.34375 0.328125,0.609375 0.828125,0.609375 C 2.140625,1.421875 3,0.875 3.21875,0 Z m 0,0"
               id="id-a6ea53d8-b438-41fa-b4b1-eceee8605dff" />
          </symbol>
          <symbol
             overflow="visible"
             id="id-f6eae271-6c36-4f0e-b596-0bdcba930ad2"
             style="fill:#ff0000;stroke-width:0">
            <path
               style="stroke:none;fill:#ff0000;stroke-width:0"
               d=""
               id="id-96d2bc25-81bf-4744-9e0e-18bcc57cd490" />
          </symbol>
          <symbol
             overflow="visible"
             id="id-cf348439-59a1-4289-945f-44cfefd5b026"
             style="fill:#ff0000;stroke-width:0">
            <path
               style="stroke:none;fill:#ff0000;stroke-width:0"
               d="m 6.40625,-1.578125 c -0.875,0.640625 -0.984375,1.5625 -0.984375,1.5625 0,0.109375 0.0625,0.109375 0.15625,0.109375 0.125,0 0.15625,0 0.1875,-0.125 0.046875,-0.171875 0.15625,-0.609375 0.515625,-1 0.40625,-0.421875 0.75,-0.53125 1.046875,-0.625 0.03125,-0.015625 0.0625,-0.046875 0.0625,-0.078125 0,-0.078125 -0.03125,-0.09375 -0.125,-0.125 C 6.265625,-2.171875 5.90625,-2.890625 5.75,-3.5 5.734375,-3.578125 5.671875,-3.578125 5.578125,-3.578125 c -0.09375,0 -0.15625,0 -0.15625,0.09375 0,0.015625 0.0625,0.484375 0.40625,0.96875 0.15625,0.234375 0.359375,0.4375 0.578125,0.59375 H 0.8125 c -0.109375,0 -0.28125,0 -0.28125,0.171875 0,0.171875 0.171875,0.171875 0.28125,0.171875 z m 0,0"
               id="id-404842fd-ddc3-4842-9cc1-a514d2b9d832" />
          </symbol>
          <symbol
             overflow="visible"
             id="id-4f46b89e-923e-4552-9ddb-15a73dba172b"
             style="fill:#ff0000;stroke-width:0">
            <path
               style="stroke:none;fill:#ff0000;stroke-width:0"
               d=""
               id="id-55b21245-a432-4e4e-a8f9-f4dfba0dca9b" />
          </symbol>
          <symbol
             overflow="visible"
             id="id-d933de93-c2cb-4db5-b4ef-e79b6d7787c7"
             style="fill:#ff0000;stroke-width:0">
            <path
               style="stroke:none;fill:#ff0000;stroke-width:0"
               d="M 3.59375,-2.21875 C 3.59375,-2.984375 3.5,-3.546875 3.1875,-4.03125 2.96875,-4.34375 2.53125,-4.625 1.984375,-4.625 c -1.625,0 -1.625,1.90625 -1.625,2.40625 0,0.5 0,2.359375 1.625,2.359375 1.609375,0 1.609375,-1.859375 1.609375,-2.359375 z M 1.984375,-0.0625 c -0.328125,0 -0.75,-0.1875 -0.890625,-0.75 C 1,-1.21875 1,-1.796875 1,-2.3125 1,-2.828125 1,-3.359375 1.09375,-3.734375 1.25,-4.28125 1.6875,-4.4375 1.984375,-4.4375 c 0.375,0 0.734375,0.234375 0.859375,0.640625 0.109375,0.375 0.125,0.875 0.125,1.484375 0,0.515625 0,1.03125 -0.09375,1.46875 -0.140625,0.640625 -0.609375,0.78125 -0.890625,0.78125 z m 0,0"
               id="id-2f9887b3-45a6-4775-abf8-e2966bcb106e" />
          </symbol>
          <symbol
             overflow="visible"
             id="id-36ee8b3b-dd80-4d3a-8d70-e27b45852fdb"
             style="fill:#ff0000;stroke-width:0">
            <path
               style="stroke:none;fill:#ff0000;stroke-width:0"
               d=""
               id="id-67abbfcd-1c7d-4e42-8122-0c23ad9638b1" />
          </symbol>
          <symbol
             overflow="visible"
             id="id-2dea839e-3a5f-49a8-acfa-d6c97ac2096c"
             style="fill:#ff0000;stroke-width:0">
            <path
               style="stroke:none;fill:#ff0000;stroke-width:0"
               d="m 4.84375,-3.796875 c 0.046875,-0.140625 0.046875,-0.15625 0.046875,-0.234375 0,-0.171875 -0.140625,-0.265625 -0.296875,-0.265625 -0.09375,0 -0.25,0.0625 -0.34375,0.203125 -0.015625,0.0625 -0.109375,0.359375 -0.140625,0.546875 -0.078125,0.25 -0.140625,0.53125 -0.203125,0.796875 l -0.453125,1.796875 c -0.03125,0.140625 -0.46875,0.84375 -1.125,0.84375 -0.5,0 -0.609375,-0.4375 -0.609375,-0.8125 C 1.71875,-1.375 1.890625,-2 2.21875,-2.875 2.375,-3.28125 2.421875,-3.390625 2.421875,-3.59375 c 0,-0.4375 -0.3125,-0.8125 -0.8125,-0.8125 -0.953125,0 -1.3125,1.453125 -1.3125,1.53125 0,0.109375 0.09375,0.109375 0.109375,0.109375 0.109375,0 0.109375,-0.03125 0.15625,-0.1875 0.28125,-0.9375 0.671875,-1.234375 1.015625,-1.234375 0.078125,0 0.25,0 0.25,0.3125 0,0.25 -0.109375,0.515625 -0.171875,0.703125 -0.40625,1.0625 -0.578125,1.625 -0.578125,2.09375 0,0.890625 0.625,1.1875 1.21875,1.1875 0.390625,0 0.71875,-0.171875 1,-0.453125 -0.125,0.515625 -0.25,1.015625 -0.640625,1.546875 -0.265625,0.328125 -0.640625,0.625 -1.09375,0.625 -0.140625,0 -0.59375,-0.03125 -0.765625,-0.421875 0.15625,0 0.296875,0 0.421875,-0.125 C 1.328125,1.203125 1.421875,1.0625 1.421875,0.875 1.421875,0.5625 1.15625,0.53125 1.0625,0.53125 0.828125,0.53125 0.5,0.6875 0.5,1.171875 c 0,0.5 0.4375,0.875 1.0625,0.875 1.015625,0 2.046875,-0.90625 2.328125,-2.03125 z m 0,0"
               id="id-ade35086-415d-42eb-a08f-00333197ca79" />
          </symbol>
        </g>
      </defs>
      <g
         id="id-017d5ed3-aad7-4d29-9f91-da01e5fefcb4"
         transform="translate(-274.08, -135.749)"
         style="fill:#ff0000;stroke-width:0">
        <g
           style="fill:#ff0000;fill-opacity:1;stroke-width:0"
           id="id-0d8ed9b5-b31d-49fb-a627-92a16ac103f5">
          <g
             transform="translate(274.936, 149.973)"
             style="fill:#ff0000;stroke-width:0"
             id="g2403">
            <path
               style="stroke:none;fill:#ff0000;stroke-width:0"
               d="M 1.765625,-6.921875 0.328125,-6.8125 V -6.5 c 0.703125,0 0.78125,0.0625 0.78125,0.5625 V -0.75 c 0,0.4375 -0.109375,0.4375 -0.78125,0.4375 V 0 C 0.65625,-0.015625 1.1875,-0.03125 1.4375,-0.03125 c 0.25,0 0.734375,0.015625 1.109375,0.03125 v -0.3125 c -0.671875,0 -0.78125,0 -0.78125,-0.4375 z m 0,0"
               id="id-5935dbbc-6ee8-4534-b29e-f4fb98c91099" />
          </g>
          <g
             transform="translate(277.704, 149.973)"
             style="fill:#ff0000;stroke-width:0"
             id="g2406">
            <path
               style="stroke:none;fill:#ff0000;stroke-width:0"
               d="M 1.765625,-4.40625 0.375,-4.296875 v 0.3125 c 0.640625,0 0.734375,0.0625 0.734375,0.546875 V -0.75 c 0,0.4375 -0.109375,0.4375 -0.78125,0.4375 V 0 C 0.640625,-0.015625 1.1875,-0.03125 1.421875,-0.03125 1.78125,-0.03125 2.125,-0.015625 2.46875,0 v -0.3125 c -0.671875,0 -0.703125,-0.046875 -0.703125,-0.4375 z m 0.03125,-1.734375 c 0,-0.3125 -0.234375,-0.53125 -0.515625,-0.53125 -0.3125,0 -0.53125,0.265625 -0.53125,0.53125 0,0.265625 0.21875,0.53125 0.53125,0.53125 0.28125,0 0.515625,-0.21875 0.515625,-0.53125 z m 0,0"
               id="id-ee6a98fb-007e-40f6-828a-1a43d1476439" />
          </g>
          <g
             transform="translate(280.471, 149.973)"
             style="fill:#ff0000;stroke-width:0"
             id="g2409">
            <path
               style="stroke:none;fill:#ff0000;stroke-width:0"
               d="M 1.09375,-3.421875 V -0.75 c 0,0.4375 -0.109375,0.4375 -0.78125,0.4375 V 0 c 0.359375,-0.015625 0.859375,-0.03125 1.140625,-0.03125 0.25,0 0.765625,0.015625 1.109375,0.03125 v -0.3125 c -0.671875,0 -0.78125,0 -0.78125,-0.4375 V -2.59375 C 1.78125,-3.625 2.5,-4.1875 3.125,-4.1875 c 0.640625,0 0.75,0.53125 0.75,1.109375 V -0.75 c 0,0.4375 -0.109375,0.4375 -0.78125,0.4375 V 0 c 0.34375,-0.015625 0.859375,-0.03125 1.125,-0.03125 0.25,0 0.78125,0.015625 1.109375,0.03125 v -0.3125 c -0.65625,0 -0.765625,0 -0.765625,-0.4375 v -1.84375 c 0,-1.03125 0.703125,-1.59375 1.34375,-1.59375 0.625,0 0.734375,0.53125 0.734375,1.109375 V -0.75 c 0,0.4375 -0.109375,0.4375 -0.78125,0.4375 V 0 c 0.34375,-0.015625 0.859375,-0.03125 1.125,-0.03125 0.265625,0 0.78125,0.015625 1.125,0.03125 v -0.3125 c -0.515625,0 -0.765625,0 -0.78125,-0.296875 v -1.90625 c 0,-0.859375 0,-1.15625 -0.3125,-1.515625 -0.140625,-0.171875 -0.46875,-0.375 -1.046875,-0.375 -0.828125,0 -1.28125,0.59375 -1.4375,0.984375 C 4.390625,-4.296875 3.65625,-4.40625 3.203125,-4.40625 2.46875,-4.40625 2,-3.984375 1.71875,-3.359375 V -4.40625 L 0.3125,-4.296875 v 0.3125 c 0.703125,0 0.78125,0.0625 0.78125,0.5625 z m 0,0"
               id="id-4ca7fc5e-08de-48d7-9c7e-e0e1c40a204d" />
          </g>
        </g>
        <g
           style="fill:#ff0000;fill-opacity:1;stroke-width:0"
           id="id-c521479a-0af9-42e4-8444-75748be7a25c">
          <g
             transform="translate(273.752, 156.127)"
             style="fill:#ff0000;stroke-width:0"
             id="g2413">
            <path
               style="stroke:none;fill:#ff0000;stroke-width:0"
               d="M 3.875,-2.625 C 3.90625,-2.71875 3.90625,-2.734375 3.90625,-2.78125 3.90625,-2.921875 3.796875,-3 3.671875,-3 3.59375,-3 3.46875,-2.96875 3.390625,-2.84375 3.359375,-2.796875 3.3125,-2.578125 3.28125,-2.4375 L 3.125,-1.859375 c -0.03125,0.171875 -0.25,1.046875 -0.28125,1.125 0,0 -0.3125,0.609375 -0.84375,0.609375 -0.484375,0 -0.484375,-0.453125 -0.484375,-0.578125 0,-0.375 0.15625,-0.8125 0.375,-1.359375 C 1.96875,-2.28125 2,-2.359375 2,-2.484375 2,-2.8125 1.71875,-3.078125 1.34375,-3.078125 0.640625,-3.078125 0.328125,-2.125 0.328125,-2 c 0,0.078125 0.09375,0.078125 0.125,0.078125 0.09375,0 0.09375,-0.03125 0.125,-0.109375 C 0.75,-2.609375 1.046875,-2.875 1.328125,-2.875 1.4375,-2.875 1.5,-2.796875 1.5,-2.640625 c 0,0.171875 -0.0625,0.3125 -0.09375,0.40625 C 1.0625,-1.375 1,-1.125 1,-0.8125 1,-0.703125 1,-0.375 1.265625,-0.140625 1.484375,0.03125 1.78125,0.0625 1.96875,0.0625 2.25,0.0625 2.5,-0.03125 2.71875,-0.25 2.640625,0.140625 2.5625,0.4375 2.265625,0.78125 2.078125,1 1.796875,1.21875 1.421875,1.21875 c -0.046875,0 -0.375,0 -0.515625,-0.21875 0.375,-0.046875 0.375,-0.375 0.375,-0.390625 0,-0.21875 -0.203125,-0.265625 -0.265625,-0.265625 -0.171875,0 -0.40625,0.140625 -0.40625,0.46875 0,0.34375 0.328125,0.609375 0.828125,0.609375 C 2.140625,1.421875 3,0.875 3.21875,0 Z m 0,0"
               id="id-07554f3d-5926-4948-80e6-bce306cfeaea" />
          </g>
        </g>
        <g
           style="fill:#ff0000;fill-opacity:1;stroke-width:0"
           id="id-c1fe7a57-6803-44cb-8242-dae2df460c92">
          <g
             transform="translate(278.043, 156.127)"
             style="fill:#ff0000;stroke-width:0"
             id="g2417">
            <path
               style="stroke:none;fill:#ff0000;stroke-width:0"
               d="m 6.40625,-1.578125 c -0.875,0.640625 -0.984375,1.5625 -0.984375,1.5625 0,0.109375 0.0625,0.109375 0.15625,0.109375 0.125,0 0.15625,0 0.1875,-0.125 0.046875,-0.171875 0.15625,-0.609375 0.515625,-1 0.40625,-0.421875 0.75,-0.53125 1.046875,-0.625 0.03125,-0.015625 0.0625,-0.046875 0.0625,-0.078125 0,-0.078125 -0.03125,-0.09375 -0.125,-0.125 C 6.265625,-2.171875 5.90625,-2.890625 5.75,-3.5 5.734375,-3.578125 5.671875,-3.578125 5.578125,-3.578125 c -0.09375,0 -0.15625,0 -0.15625,0.09375 0,0.015625 0.0625,0.484375 0.40625,0.96875 0.15625,0.234375 0.359375,0.4375 0.578125,0.59375 H 0.8125 c -0.109375,0 -0.28125,0 -0.28125,0.171875 0,0.171875 0.171875,0.171875 0.28125,0.171875 z m 0,0"
               id="id-e7d2a03f-b239-4a3d-9a4d-97025fe71f1e" />
          </g>
        </g>
        <g
           style="fill:#ff0000;fill-opacity:1;stroke-width:0"
           id="id-9cca1588-dc1a-4561-aefd-243c472907d5">
          <g
             transform="translate(285.985, 156.127)"
             style="fill:#ff0000;stroke-width:0"
             id="g2421">
            <path
               style="stroke:none;fill:#ff0000;stroke-width:0"
               d="M 3.59375,-2.21875 C 3.59375,-2.984375 3.5,-3.546875 3.1875,-4.03125 2.96875,-4.34375 2.53125,-4.625 1.984375,-4.625 c -1.625,0 -1.625,1.90625 -1.625,2.40625 0,0.5 0,2.359375 1.625,2.359375 1.609375,0 1.609375,-1.859375 1.609375,-2.359375 z M 1.984375,-0.0625 c -0.328125,0 -0.75,-0.1875 -0.890625,-0.75 C 1,-1.21875 1,-1.796875 1,-2.3125 1,-2.828125 1,-3.359375 1.09375,-3.734375 1.25,-4.28125 1.6875,-4.4375 1.984375,-4.4375 c 0.375,0 0.734375,0.234375 0.859375,0.640625 0.109375,0.375 0.125,0.875 0.125,1.484375 0,0.515625 0,1.03125 -0.09375,1.46875 -0.140625,0.640625 -0.609375,0.78125 -0.890625,0.78125 z m 0,0"
               id="id-6d2d298c-5ce2-4755-a60f-e6ccbba553e2" />
          </g>
        </g>
        <g
           style="fill:#ff0000;fill-opacity:1;stroke-width:0"
           id="id-35af7c7a-87c1-48d1-956f-f2d02a2c8935">
          <g
             transform="translate(292.813, 143.233)"
             style="fill:#ff0000;stroke-width:0"
             id="g2425">
            <path
               style="stroke:none;fill:#ff0000;stroke-width:0"
               d="m 2.078125,-1.9375 c 0.21875,0.046875 1.03125,0.203125 1.03125,0.921875 0,0.5 -0.34375,0.90625 -1.125,0.90625 -0.84375,0 -1.203125,-0.5625 -1.390625,-1.421875 C 0.5625,-1.65625 0.5625,-1.6875 0.453125,-1.6875 c -0.125,0 -0.125,0.0625 -0.125,0.234375 V -0.125 c 0,0.171875 0,0.234375 0.109375,0.234375 0.046875,0 0.0625,-0.015625 0.25,-0.203125 0.015625,-0.015625 0.015625,-0.03125 0.203125,-0.21875 0.4375,0.40625 0.890625,0.421875 1.09375,0.421875 1.140625,0 1.609375,-0.671875 1.609375,-1.390625 0,-0.515625 -0.296875,-0.828125 -0.421875,-0.9375 C 2.84375,-2.546875 2.453125,-2.625 2.03125,-2.703125 1.46875,-2.8125 0.8125,-2.9375 0.8125,-3.515625 c 0,-0.359375 0.25,-0.765625 1.109375,-0.765625 1.09375,0 1.15625,0.90625 1.171875,1.203125 0,0.09375 0.09375,0.09375 0.109375,0.09375 0.140625,0 0.140625,-0.046875 0.140625,-0.234375 v -1.015625 c 0,-0.15625 0,-0.234375 -0.109375,-0.234375 -0.046875,0 -0.078125,0 -0.203125,0.125 -0.03125,0.03125 -0.125,0.125 -0.171875,0.15625 -0.375,-0.28125 -0.78125,-0.28125 -0.9375,-0.28125 -1.21875,0 -1.59375,0.671875 -1.59375,1.234375 0,0.34375 0.15625,0.625 0.421875,0.84375 0.328125,0.25 0.609375,0.3125 1.328125,0.453125 z m 0,0"
               id="id-23284ea9-6032-4b00-8c13-72900eafae5b" />
          </g>
          <g
             transform="translate(296.742, 143.233)"
             style="fill:#ff0000;stroke-width:0"
             id="g2428">
            <path
               style="stroke:none;fill:#ff0000;stroke-width:0"
               d="M 1.765625,-4.40625 0.375,-4.296875 v 0.3125 c 0.640625,0 0.734375,0.0625 0.734375,0.546875 V -0.75 c 0,0.4375 -0.109375,0.4375 -0.78125,0.4375 V 0 C 0.640625,-0.015625 1.1875,-0.03125 1.421875,-0.03125 1.78125,-0.03125 2.125,-0.015625 2.46875,0 v -0.3125 c -0.671875,0 -0.703125,-0.046875 -0.703125,-0.4375 z m 0.03125,-1.734375 c 0,-0.3125 -0.234375,-0.53125 -0.515625,-0.53125 -0.3125,0 -0.53125,0.265625 -0.53125,0.53125 0,0.265625 0.21875,0.53125 0.53125,0.53125 0.28125,0 0.515625,-0.21875 0.515625,-0.53125 z m 0,0"
               id="id-711baa59-6728-4ab5-b0be-bbdc77087ab2" />
          </g>
          <g
             transform="translate(299.51, 143.233)"
             style="fill:#ff0000;stroke-width:0"
             id="g2431">
            <path
               style="stroke:none;fill:#ff0000;stroke-width:0"
               d="M 1.09375,-3.421875 V -0.75 c 0,0.4375 -0.109375,0.4375 -0.78125,0.4375 V 0 c 0.359375,-0.015625 0.859375,-0.03125 1.140625,-0.03125 0.25,0 0.765625,0.015625 1.109375,0.03125 v -0.3125 c -0.671875,0 -0.78125,0 -0.78125,-0.4375 V -2.59375 C 1.78125,-3.625 2.5,-4.1875 3.125,-4.1875 c 0.640625,0 0.75,0.53125 0.75,1.109375 V -0.75 c 0,0.4375 -0.109375,0.4375 -0.78125,0.4375 V 0 c 0.34375,-0.015625 0.859375,-0.03125 1.125,-0.03125 0.25,0 0.78125,0.015625 1.109375,0.03125 v -0.3125 c -0.515625,0 -0.765625,0 -0.765625,-0.296875 v -1.90625 c 0,-0.859375 0,-1.15625 -0.3125,-1.515625 -0.140625,-0.171875 -0.46875,-0.375 -1.046875,-0.375 C 2.46875,-4.40625 2,-3.984375 1.71875,-3.359375 V -4.40625 L 0.3125,-4.296875 v 0.3125 c 0.703125,0 0.78125,0.0625 0.78125,0.5625 z m 0,0"
               id="id-3a21c5b3-ba4c-4240-80b6-19eabf25f4a0" />
          </g>
          <g
             transform="translate(305.045, 143.233)"
             style="fill:#ff0000;stroke-width:0"
             id="g2434">
            <path
               style="stroke:none;fill:#ff0000;stroke-width:0"
               d="m 3.296875,2.390625 c 0,-0.03125 0,-0.046875 -0.171875,-0.21875 C 1.890625,0.921875 1.5625,-0.96875 1.5625,-2.5 c 0,-1.734375 0.375,-3.46875 1.609375,-4.703125 0.125,-0.125 0.125,-0.140625 0.125,-0.171875 0,-0.078125 -0.03125,-0.109375 -0.09375,-0.109375 -0.109375,0 -1,0.6875 -1.59375,1.953125 -0.5,1.09375 -0.625,2.203125 -0.625,3.03125 0,0.78125 0.109375,1.984375 0.65625,3.125 C 2.25,1.84375 3.09375,2.5 3.203125,2.5 c 0.0625,0 0.09375,-0.03125 0.09375,-0.109375 z m 0,0"
               id="id-b2608d94-90e2-4956-9510-1de762cd038b" />
          </g>
        </g>
        <g
           style="fill:#ff0000;fill-opacity:1;stroke-width:0"
           id="id-69983e0d-55b5-480e-91e5-7f1b98d5b278">
          <g
             transform="translate(308.919, 143.233)"
             style="fill:#ff0000;stroke-width:0"
             id="g2438">
            <path
               style="stroke:none;fill:#ff0000;stroke-width:0"
               d="m 4.84375,-3.796875 c 0.046875,-0.140625 0.046875,-0.15625 0.046875,-0.234375 0,-0.171875 -0.140625,-0.265625 -0.296875,-0.265625 -0.09375,0 -0.25,0.0625 -0.34375,0.203125 -0.015625,0.0625 -0.109375,0.359375 -0.140625,0.546875 -0.078125,0.25 -0.140625,0.53125 -0.203125,0.796875 l -0.453125,1.796875 c -0.03125,0.140625 -0.46875,0.84375 -1.125,0.84375 -0.5,0 -0.609375,-0.4375 -0.609375,-0.8125 C 1.71875,-1.375 1.890625,-2 2.21875,-2.875 2.375,-3.28125 2.421875,-3.390625 2.421875,-3.59375 c 0,-0.4375 -0.3125,-0.8125 -0.8125,-0.8125 -0.953125,0 -1.3125,1.453125 -1.3125,1.53125 0,0.109375 0.09375,0.109375 0.109375,0.109375 0.109375,0 0.109375,-0.03125 0.15625,-0.1875 0.28125,-0.9375 0.671875,-1.234375 1.015625,-1.234375 0.078125,0 0.25,0 0.25,0.3125 0,0.25 -0.109375,0.515625 -0.171875,0.703125 -0.40625,1.0625 -0.578125,1.625 -0.578125,2.09375 0,0.890625 0.625,1.1875 1.21875,1.1875 0.390625,0 0.71875,-0.171875 1,-0.453125 -0.125,0.515625 -0.25,1.015625 -0.640625,1.546875 -0.265625,0.328125 -0.640625,0.625 -1.09375,0.625 -0.140625,0 -0.59375,-0.03125 -0.765625,-0.421875 0.15625,0 0.296875,0 0.421875,-0.125 C 1.328125,1.203125 1.421875,1.0625 1.421875,0.875 1.421875,0.5625 1.15625,0.53125 1.0625,0.53125 0.828125,0.53125 0.5,0.6875 0.5,1.171875 c 0,0.5 0.4375,0.875 1.0625,0.875 1.015625,0 2.046875,-0.90625 2.328125,-2.03125 z m 0,0"
               id="id-87741e96-0e58-49f0-ae03-2110228f5f92" />
          </g>
        </g>
        <g
           style="fill:#ff0000;fill-opacity:1;stroke-width:0"
           id="id-4073ee44-b3c8-4685-8e8a-7df2f2c764c4">
          <g
             transform="translate(314.161, 143.233)"
             style="fill:#ff0000;stroke-width:0"
             id="g2442">
            <path
               style="stroke:none;fill:#ff0000;stroke-width:0"
               d="m 2.875,-2.5 c 0,-0.765625 -0.109375,-1.96875 -0.65625,-3.109375 -0.59375,-1.21875 -1.453125,-1.875 -1.546875,-1.875 -0.0625,0 -0.109375,0.046875 -0.109375,0.109375 0,0.03125 0,0.046875 0.1875,0.234375 0.984375,0.984375 1.546875,2.5625 1.546875,4.640625 0,1.71875 -0.359375,3.46875 -1.59375,4.71875 C 0.5625,2.34375 0.5625,2.359375 0.5625,2.390625 0.5625,2.453125 0.609375,2.5 0.671875,2.5 0.765625,2.5 1.671875,1.8125 2.25,0.546875 2.765625,-0.546875 2.875,-1.65625 2.875,-2.5 Z m 0,0"
               id="id-89d04a90-83cc-402a-bf63-fb97a2295d4f" />
          </g>
        </g>
        <path
           style="fill:#ff0000;stroke:#ff0000;stroke-width:0.398;stroke-linecap:butt;stroke-linejoin:miter;stroke-miterlimit:10;stroke-opacity:1"
           d="M -5e-4,0.00153125 H 25.222156"
           transform="matrix(1 0 0 -1 292.813 147.482)"
           id="id-109147d4-dc52-4397-86a1-fd59a2212688" />
        <g
           style="fill:#ff0000;fill-opacity:1;stroke-width:0"
           id="id-bc172ba3-95e0-4ab3-9ce9-653e63b72dad">
          <g
             transform="translate(302.803, 156.807)"
             style="fill:#ff0000;stroke-width:0"
             id="g2447">
            <path
               style="stroke:none;fill:#ff0000;stroke-width:0"
               d="m 4.84375,-3.796875 c 0.046875,-0.140625 0.046875,-0.15625 0.046875,-0.234375 0,-0.171875 -0.140625,-0.265625 -0.296875,-0.265625 -0.09375,0 -0.25,0.0625 -0.34375,0.203125 -0.015625,0.0625 -0.109375,0.359375 -0.140625,0.546875 -0.078125,0.25 -0.140625,0.53125 -0.203125,0.796875 l -0.453125,1.796875 c -0.03125,0.140625 -0.46875,0.84375 -1.125,0.84375 -0.5,0 -0.609375,-0.4375 -0.609375,-0.8125 C 1.71875,-1.375 1.890625,-2 2.21875,-2.875 2.375,-3.28125 2.421875,-3.390625 2.421875,-3.59375 c 0,-0.4375 -0.3125,-0.8125 -0.8125,-0.8125 -0.953125,0 -1.3125,1.453125 -1.3125,1.53125 0,0.109375 0.09375,0.109375 0.109375,0.109375 0.109375,0 0.109375,-0.03125 0.15625,-0.1875 0.28125,-0.9375 0.671875,-1.234375 1.015625,-1.234375 0.078125,0 0.25,0 0.25,0.3125 0,0.25 -0.109375,0.515625 -0.171875,0.703125 -0.40625,1.0625 -0.578125,1.625 -0.578125,2.09375 0,0.890625 0.625,1.1875 1.21875,1.1875 0.390625,0 0.71875,-0.171875 1,-0.453125 -0.125,0.515625 -0.25,1.015625 -0.640625,1.546875 -0.265625,0.328125 -0.640625,0.625 -1.09375,0.625 -0.140625,0 -0.59375,-0.03125 -0.765625,-0.421875 0.15625,0 0.296875,0 0.421875,-0.125 C 1.328125,1.203125 1.421875,1.0625 1.421875,0.875 1.421875,0.5625 1.15625,0.53125 1.0625,0.53125 0.828125,0.53125 0.5,0.6875 0.5,1.171875 c 0,0.5 0.4375,0.875 1.0625,0.875 1.015625,0 2.046875,-0.90625 2.328125,-2.03125 z m 0,0"
               id="id-72621e65-e96c-49f9-aa44-c2eb6c6e6409" />
          </g>
        </g>
        <g
           style="fill:#ff0000;fill-opacity:1;stroke-width:0"
           id="id-2f7c2332-9585-4187-98f0-18ad5fdae555">
          <g
             transform="translate(321.998, 149.973)"
             style="fill:#ff0000;stroke-width:0"
             id="g2451">
            <path
               style="stroke:none;fill:#ff0000;stroke-width:0"
               d="m 6.84375,-3.265625 c 0.15625,0 0.34375,0 0.34375,-0.1875 C 7.1875,-3.65625 7,-3.65625 6.859375,-3.65625 h -5.96875 c -0.140625,0 -0.328125,0 -0.328125,0.203125 0,0.1875 0.1875,0.1875 0.328125,0.1875 z m 0.015625,1.9375 c 0.140625,0 0.328125,0 0.328125,-0.203125 0,-0.1875 -0.1875,-0.1875 -0.34375,-0.1875 H 0.890625 c -0.140625,0 -0.328125,0 -0.328125,0.1875 0,0.203125 0.1875,0.203125 0.328125,0.203125 z m 0,0"
               id="id-0890d73f-bd0e-473b-bfe3-55e8964ff084" />
          </g>
        </g>
        <g
           style="fill:#ff0000;fill-opacity:1;stroke-width:0"
           id="id-6dfe5b0e-6509-48a2-b323-dd18a0576e5f">
          <g
             transform="translate(332.517, 149.973)"
             style="fill:#ff0000;stroke-width:0"
             id="g2455">
            <path
               style="stroke:none;fill:#ff0000;stroke-width:0"
               d="m 2.9375,-6.375 c 0,-0.25 0,-0.265625 -0.234375,-0.265625 C 2.078125,-6 1.203125,-6 0.890625,-6 v 0.3125 c 0.203125,0 0.78125,0 1.296875,-0.265625 v 5.171875 c 0,0.359375 -0.03125,0.46875 -0.921875,0.46875 h -0.3125 V 0 c 0.34375,-0.03125 1.203125,-0.03125 1.609375,-0.03125 0.390625,0 1.265625,0 1.609375,0.03125 v -0.3125 h -0.3125 c -0.90625,0 -0.921875,-0.109375 -0.921875,-0.46875 z m 0,0"
               id="id-4df77ac1-420d-40c1-abf2-de7dd2c65831" />
          </g>
        </g>
      </g>
    </g>
  </g>
</svg>
