<?xml version="1.0" encoding="UTF-8" standalone="no"?>
<!-- Created with Inkscape (http://www.inkscape.org/) -->

<svg
   xmlns:ns0="http://www.iki.fi/pav/software/textext/"
   xmlns:dc="http://purl.org/dc/elements/1.1/"
   xmlns:cc="http://creativecommons.org/ns#"
   xmlns:rdf="http://www.w3.org/1999/02/22-rdf-syntax-ns#"
   xmlns:svg="http://www.w3.org/2000/svg"
   xmlns="http://www.w3.org/2000/svg"
   xmlns:sodipodi="http://sodipodi.sourceforge.net/DTD/sodipodi-0.dtd"
   xmlns:inkscape="http://www.inkscape.org/namespaces/inkscape"
   width="210mm"
   height="297mm"
   viewBox="0 0 210 296.99999"
   version="1.1"
   id="svg8"
   inkscape:version="0.92.3 (2405546, 2018-03-11)"
   sodipodi:docname="modified.svg">
  <sodipodi:namedview
     id="base"
     pagecolor="#ffffff"
     bordercolor="#666666"
     borderopacity="1.0"
     inkscape:pageopacity="0.0"
     inkscape:pageshadow="2"
     inkscape:zoom="0.29903776"
     inkscape:cx="-404.10992"
     inkscape:cy="1024.3499"
     inkscape:document-units="mm"
     inkscape:current-layer="layer1"
     showgrid="false"
     inkscape:window-width="2560"
     inkscape:window-height="1007"
     inkscape:window-x="0"
     inkscape:window-y="0"
     inkscape:window-maximized="1" />
  <defs
     id="defs2" />
  <metadata
     id="metadata5">
    <rdf:RDF>
      <cc:Work
         rdf:about="">
        <dc:format>image/svg+xml</dc:format>
        <dc:type
           rdf:resource="http://purl.org/dc/dcmitype/StillImage" />
        <dc:title />
      </cc:Work>
    </rdf:RDF>
  </metadata>
  <g
     inkscape:label="Layer 1"
     inkscape:groupmode="layer"
     id="layer1">
    <g
       ns0:preamble="/home/sergei/PycharmProjects/textext/extension/textext/default_packages.tex"
       ns0:text="$$\\lim_{y \\to 0} \\frac{\\sin(y)}{y} = 1$$"
       text-anchor="start"
       word-spacing="normal"
       letter-spacing="normal"
       font-size-adjust="none"
       font-stretch="normal"
       font-weight="normal"
       font-variant="normal"
       font-style="normal"
       fill-opacity="1"
       fill-rule="evenodd"
       fill="none"
       stroke-opacity="1"
       stroke-dashoffset="0"
       stroke-dasharray="none"
       stroke-miterlimit="10.433"
       stroke-linejoin="miter"
       stroke-linecap="butt"
       stroke="black"
       xml:space="preserve"
       transform="matrix(1.000000,0,0,-1.000000,-200.000000,750.000000)"
       id="content">
<path
   id="path835"
   fill="black"
   stroke-width="0"
   d="M366.36,479.88 L364.93,479.77 V479.46 C365.63,479.46,365.71,479.39,365.71,478.91 V473.74 C365.71,473.29,365.6,473.29,364.93,473.29 V472.99 C365.26,473,365.79,473.02,366.04,473.02 C366.29,473.02,366.77,473,367.14,472.99 V473.29 C366.48,473.29,366.36,473.29,366.36,473.74 Z " />
<path
   id="path837"
   fill="black"
   stroke-width="0"
   d="M369.13,477.38 L367.74,477.27 V476.96 C368.39,476.96,368.48,476.9,368.48,476.41 V473.74 C368.48,473.29,368.36,473.29,367.7,473.29 V472.99 C368.02,473,368.55,473.02,368.79,473.02 C369.14,473.02,369.49,473,369.83,472.99 V473.29 C369.17,473.29,369.13,473.34,369.13,473.73 Z " />
<path
   id="path839"
   fill="black"
   stroke-width="0"
   d="M369.17,479.11 L369.17,479.13 L369.17,479.16 L369.17,479.19 L369.16,479.22 L369.16,479.25 L369.15,479.27 L369.14,479.3 L369.13,479.32 L369.12,479.35 L369.11,479.37 L369.09,479.39 L369.08,479.41 L369.06,479.43 L369.05,479.45 L369.03,479.47 L369.01,479.49 L368.99,479.5 L368.98,479.52 L368.95,479.54 L368.93,479.55 L368.91,479.56 L368.89,479.57 L368.87,479.58 L368.84,479.59 L368.82,479.6 L368.8,479.61 L368.77,479.62 L368.75,479.62 L368.72,479.63 L368.7,479.63 L368.67,479.63 L368.64,479.63 C368.33,479.63,368.11,479.36,368.11,479.11 C368.11,478.84,368.33,478.58,368.64,478.58 C368.92,478.58,369.17,478.79,369.17,479.11 Z " />
<path
   id="path841"
   fill="black"
   stroke-width="0"
   d="M371.23,476.4 V473.74 C371.23,473.29,371.12,473.29,370.45,473.29 V472.99 C370.8,473,371.31,473.02,371.58,473.02 C371.84,473.02,372.36,473,372.7,472.99 V473.29 C372.03,473.29,371.92,473.29,371.92,473.74 V475.57 C371.92,476.6,372.63,477.16,373.27,477.16 C373.89,477.16,374,476.62,374,476.06 V473.74 C374,473.29,373.89,473.29,373.23,473.29 V472.99 C373.58,473,374.08,473.02,374.35,473.02 C374.61,473.02,375.13,473,375.47,472.99 V473.29 C374.8,473.29,374.69,473.29,374.69,473.74 V475.57 C374.69,476.6,375.4,477.16,376.04,477.16 C376.67,477.16,376.78,476.62,376.78,476.06 V473.74 C376.78,473.29,376.67,473.29,376,473.29 V472.99 C376.35,473,376.86,473.02,377.13,473.02 C377.39,473.02,377.9,473,378.24,472.99 V473.29 C377.72,473.29,377.48,473.29,377.46,473.59 V475.49 C377.46,476.34,377.46,476.65,377.16,477.01 C377.02,477.18,376.69,477.38,376.11,477.38 C375.27,477.38,374.83,476.78,374.66,476.4 C374.52,477.27,373.79,477.38,373.34,477.38 C372.61,477.38,372.14,476.95,371.86,476.33 V477.38 L370.45,477.27 V476.96 C371.15,476.96,371.23,476.89,371.23,476.4 Z " />
<path
   id="path843"
   fill="black"
   stroke-width="0"
   d="M367.3,469.45 L367.3,469.46 L367.31,469.46 L367.31,469.47 L367.31,469.47 L367.31,469.48 L367.31,469.48 L367.31,469.49 L367.31,469.49 L367.32,469.5 L367.32,469.51 L367.32,469.51 L367.32,469.52 L367.32,469.52 L367.32,469.53 L367.32,469.53 L367.33,469.54 L367.33,469.54 L367.33,469.55 L367.33,469.55 L367.33,469.55 L367.33,469.56 L367.33,469.56 L367.33,469.57 L367.33,469.57 L367.33,469.58 L367.33,469.59 L367.33,469.59 L367.33,469.6 L367.33,469.6 L367.33,469.6 L367.33,469.61 C367.33,469.75,367.22,469.83,367.1,469.83 C367.02,469.83,366.89,469.79,366.81,469.66 C366.79,469.62,366.74,469.4,366.7,469.26 L366.55,468.68 C366.51,468.52,366.3,467.64,366.28,467.56 C366.27,467.56,365.96,466.96,365.42,466.96 C364.94,466.96,364.94,467.41,364.94,467.53 C364.94,467.91,365.1,468.35,365.31,468.88 C365.39,469.11,365.43,469.19,365.43,469.31 C365.43,469.64,365.14,469.9,364.77,469.9 C364.06,469.9,363.74,468.95,363.74,468.83 C363.74,468.74,363.84,468.74,363.86,468.74 C363.96,468.74,363.97,468.78,363.99,468.86 C364.16,469.43,364.46,469.7,364.74,469.7 C364.86,469.7,364.92,469.63,364.92,469.46 C364.92,469.3,364.86,469.15,364.82,469.06 C364.49,468.21,364.42,467.95,364.42,467.65 C364.42,467.53,364.42,467.2,364.69,466.98 C364.9,466.8,365.2,466.76,365.39,466.76 C365.67,466.76,365.92,466.87,366.15,467.08 C366.06,466.69,365.98,466.4,365.69,466.05 C365.5,465.84,365.22,465.61,364.85,465.61 C364.8,465.61,364.47,465.61,364.33,465.84 C364.7,465.88,364.7,466.21,364.7,466.22 C364.7,466.44,364.5,466.48,364.43,466.48 C364.26,466.48,364.02,466.35,364.02,466.02 C364.02,465.67,364.36,465.41,364.86,465.41 C365.56,465.41,366.42,465.96,366.64,466.83 Z " />
<path
   id="path845"
   fill="black"
   stroke-width="0"
   d="M374.14,468.4 L374.06,468.34 L373.98,468.28 L373.91,468.22 L373.84,468.15 L373.78,468.09 L373.72,468.02 L373.66,467.96 L373.61,467.89 L373.56,467.83 L373.52,467.76 L373.48,467.7 L373.44,467.63 L373.4,467.57 L373.37,467.51 L373.34,467.45 L373.31,467.39 L373.28,467.33 L373.26,467.28 L373.24,467.22 L373.22,467.17 L373.21,467.13 L373.19,467.08 L373.18,467.04 L373.17,467 L373.16,466.97 L373.16,466.94 L373.15,466.91 L373.15,466.89 L373.14,466.87 L373.14,466.86 L373.14,466.85 L373.14,466.85 C373.14,466.74,373.21,466.74,373.31,466.74 C373.43,466.74,373.45,466.74,373.49,466.86 C373.53,467.03,373.64,467.48,374.01,467.86 C374.41,468.29,374.76,468.39,375.05,468.48 C375.1,468.49,375.12,468.54,375.12,468.57 C375.12,468.64,375.08,468.65,374.99,468.68 C373.99,469,373.63,469.71,373.48,470.32 C373.45,470.41,373.4,470.41,373.31,470.41 C373.21,470.41,373.14,470.41,373.14,470.3 C373.14,470.29,373.21,469.82,373.55,469.34 C373.71,469.11,373.91,468.91,374.14,468.74 H368.52 C368.41,468.74,368.24,468.74,368.24,468.58 C368.24,468.4,368.41,468.4,368.52,468.4 Z " />
<path
   id="path847"
   fill="black"
   stroke-width="0"
   d="M379.26,469.05 L379.26,469.19 L379.25,469.33 L379.25,469.46 L379.24,469.59 L379.23,469.71 L379.21,469.83 L379.19,469.94 L379.17,470.05 L379.15,470.16 L379.12,470.27 L379.08,470.37 L379.04,470.47 L379,470.57 L378.95,470.67 L378.9,470.76 L378.87,470.81 L378.84,470.85 C378.63,471.17,378.19,471.45,377.64,471.45 V471.26 C378.01,471.26,378.38,471.02,378.5,470.62 C378.61,470.25,378.62,469.75,378.62,469.14 C378.62,468.63,378.62,468.11,378.53,467.67 C378.39,467.04,377.91,466.89,377.64,466.89 H377.64 C377.31,466.89,376.89,467.08,376.75,467.65 C376.65,468.06,376.65,468.63,376.65,469.14 C376.65,469.65,376.65,470.18,376.75,470.56 C376.9,471.11,377.35,471.26,377.64,471.26 V471.45 C376.01,471.45,376.01,469.55,376.01,469.05 C376.01,468.55,376.01,466.69,377.64,466.69 C379.26,466.69,379.26,468.55,379.26,469.05 Z " />
<path
   id="path849"
   fill="black"
   stroke-width="0"
   d="M384.55,481.65 L384.57,481.65 L384.6,481.64 L384.63,481.64 L384.66,481.63 L384.69,481.62 L384.73,481.62 L384.77,481.61 L384.8,481.59 L384.85,481.58 L384.89,481.57 L384.93,481.55 L384.97,481.54 L385.02,481.52 L385.06,481.5 L385.11,481.47 L385.15,481.45 L385.19,481.42 L385.24,481.4 L385.28,481.36 L385.32,481.33 L385.35,481.3 L385.39,481.26 L385.42,481.22 L385.46,481.18 L385.48,481.13 L385.5,481.11 L385.51,481.09 L385.52,481.06 L385.53,481.04 L385.54,481.01 L385.55,480.98 L385.56,480.95 L385.57,480.93 L385.57,480.9 L385.58,480.87 L385.58,480.84 L385.58,480.8 L385.59,480.77 L385.59,480.74 C385.59,480.23,385.24,479.83,384.46,479.83 C383.62,479.83,383.26,480.4,383.07,481.25 C383.04,481.38,383.03,481.42,382.93,481.42 C382.8,481.42,382.8,481.35,382.8,481.17 V479.86 C382.8,479.69,382.8,479.62,382.92,479.62 C382.96,479.62,382.98,479.63,383.16,479.82 C383.18,479.83,383.18,479.86,383.36,480.04 C383.8,479.63,384.25,479.62,384.46,479.62 C385.61,479.62,386.07,480.28,386.07,481 C386.07,481.52,385.77,481.82,385.65,481.94 C385.32,482.26,384.93,482.34,384.51,482.42 C383.95,482.53,383.28,482.66,383.28,483.23 C383.28,483.58,383.54,483.99,384.4,483.99 C385.5,483.99,385.55,483.09,385.57,482.79 C385.58,482.7,385.67,482.7,385.69,482.7 C385.82,482.7,385.82,482.75,385.82,482.93 V483.94 C385.82,484.11,385.82,484.18,385.71,484.18 C385.66,484.18,385.64,484.18,385.51,484.06 C385.48,484.02,385.38,483.93,385.34,483.9 C384.96,484.18,384.55,484.18,384.4,484.18 C383.18,484.18,382.8,483.51,382.8,482.95 C382.8,482.61,382.96,482.33,383.23,482.11 C383.55,481.85,383.83,481.79,384.55,481.65 Z " />
<path
   id="path851"
   fill="black"
   stroke-width="0"
   d="M388.17,484.12 L386.77,484.01 V483.7 C387.42,483.7,387.51,483.64,387.51,483.15 V480.48 C387.51,480.03,387.4,480.03,386.73,480.03 V479.73 C387.05,479.74,387.59,479.76,387.83,479.76 C388.18,479.76,388.53,479.74,388.87,479.73 V480.03 C388.21,480.03,388.17,480.08,388.17,480.47 Z " />
<path
   id="path853"
   fill="black"
   stroke-width="0"
   d="M388.21,485.85 L388.21,485.87 L388.21,485.9 L388.2,485.93 L388.2,485.96 L388.19,485.99 L388.19,486.01 L388.18,486.04 L388.17,486.06 L388.16,486.09 L388.14,486.11 L388.13,486.13 L388.12,486.15 L388.1,486.17 L388.09,486.19 L388.07,486.21 L388.05,486.23 L388.03,486.24 L388.01,486.26 L387.99,486.28 L387.97,486.29 L387.95,486.3 L387.93,486.31 L387.91,486.32 L387.88,486.33 L387.86,486.34 L387.83,486.35 L387.81,486.36 L387.78,486.36 L387.76,486.37 L387.73,486.37 L387.71,486.37 L387.68,486.37 C387.37,486.37,387.15,486.1,387.15,485.85 C387.15,485.58,387.37,485.32,387.68,485.32 C387.96,485.32,388.21,485.53,388.21,485.85 Z " />
<path
   id="path855"
   fill="black"
   stroke-width="0"
   d="M390.27,483.14 V480.48 C390.27,480.03,390.16,480.03,389.49,480.03 V479.73 C389.84,479.74,390.35,479.76,390.62,479.76 C390.88,479.76,391.4,479.74,391.74,479.73 V480.03 C391.07,480.03,390.96,480.03,390.96,480.48 V482.31 C390.96,483.34,391.67,483.9,392.3,483.9 C392.93,483.9,393.04,483.36,393.04,482.8 V480.48 C393.04,480.03,392.93,480.03,392.26,480.03 V479.73 C392.61,479.74,393.12,479.76,393.39,479.76 C393.65,479.76,394.17,479.74,394.51,479.73 V480.03 C393.99,480.03,393.74,480.03,393.73,480.33 V482.23 C393.73,483.08,393.73,483.39,393.42,483.75 C393.28,483.92,392.95,484.12,392.37,484.12 C391.65,484.12,391.18,483.69,390.9,483.07 V484.12 L389.49,484.01 V483.7 C390.19,483.7,390.27,483.63,390.27,483.14 Z " />
<path
   id="path857"
   fill="black"
   stroke-width="0"
   d="M398.01,477.34 L398.01,477.35 L398.01,477.35 L398.01,477.36 L398.01,477.36 L398.01,477.36 L398.01,477.37 L398.01,477.37 L398,477.37 L398,477.38 L398,477.38 L398,477.38 L397.99,477.39 L397.99,477.39 L397.99,477.4 L397.98,477.41 L397.98,477.41 L397.97,477.42 L397.97,477.43 L397.96,477.43 L397.96,477.43 L397.96,477.44 L397.95,477.44 L397.95,477.45 L397.95,477.45 L397.94,477.45 L397.94,477.46 L397.93,477.46 L397.93,477.47 L397.92,477.47 L397.92,477.48 L397.91,477.49 L397.91,477.49 L397.9,477.5 L397.9,477.5 L397.89,477.51 L397.88,477.52 L397.88,477.52 L397.87,477.53 L397.86,477.54 L397.85,477.54 L397.85,477.55 L397.84,477.56 C396.59,478.81,396.27,480.69,396.27,482.21 C396.27,483.94,396.65,485.67,397.88,486.91 C398.01,487.03,398.01,487.05,398.01,487.08 C398.01,487.15,397.97,487.18,397.91,487.18 C397.81,487.18,396.91,486.5,396.32,485.24 C395.82,484.15,395.7,483.04,395.7,482.21 C395.7,481.43,395.8,480.23,396.35,479.11 C396.95,477.89,397.81,477.24,397.91,477.24 C397.97,477.24,398.01,477.27,398.01,477.34 Z " />
<path
   id="path859"
   fill="black"
   stroke-width="0"
   d="M403.43,483.51 L403.43,483.52 L403.43,483.52 L403.43,483.53 L403.44,483.54 L403.44,483.55 L403.44,483.56 L403.44,483.57 L403.45,483.58 L403.45,483.59 L403.45,483.6 L403.45,483.6 L403.46,483.61 L403.46,483.62 L403.46,483.63 L403.46,483.63 L403.46,483.64 L403.46,483.65 L403.46,483.65 L403.46,483.66 L403.47,483.66 L403.47,483.67 L403.47,483.67 L403.47,483.68 L403.47,483.69 L403.47,483.7 L403.47,483.72 L403.47,483.72 L403.47,483.73 L403.47,483.73 L403.47,483.74 C403.47,483.92,403.33,484.01,403.18,484.01 C403.08,484.01,402.92,483.95,402.83,483.8 C402.81,483.75,402.73,483.44,402.69,483.26 C402.62,483,402.55,482.74,402.49,482.47 L402.04,480.68 C402,480.53,401.58,479.83,400.92,479.83 C400.41,479.83,400.3,480.27,400.3,480.64 C400.3,481.1,400.47,481.71,400.81,482.59 C400.97,482.99,401.01,483.1,401.01,483.3 C401.01,483.75,400.69,484.12,400.19,484.12 C399.24,484.12,398.87,482.68,398.87,482.59 C398.87,482.49,398.97,482.49,398.99,482.49 C399.09,482.49,399.1,482.51,399.15,482.67 C399.42,483.6,399.82,483.9,400.16,483.9 C400.24,483.9,400.41,483.9,400.41,483.58 C400.41,483.33,400.31,483.07,400.24,482.89 C399.84,481.83,399.66,481.27,399.66,480.8 C399.66,479.92,400.29,479.62,400.88,479.62 C401.27,479.62,401.61,479.79,401.88,480.06 C401.75,479.55,401.63,479.06,401.24,478.53 C400.98,478.2,400.6,477.91,400.14,477.91 C400,477.91,399.55,477.94,399.38,478.33 C399.54,478.33,399.67,478.33,399.81,478.45 C399.91,478.53,400.01,478.66,400.01,478.85 C400.01,479.16,399.74,479.2,399.64,479.2 C399.41,479.2,399.08,479.04,399.08,478.55 C399.08,478.06,399.52,477.69,400.14,477.69 C401.17,477.69,402.19,478.59,402.47,479.72 Z " />
<path
   id="path861"
   fill="black"
   stroke-width="0"
   d="M406.71,482.21 L406.71,482.28 L406.71,482.36 L406.7,482.44 L406.7,482.52 L406.69,482.69 L406.68,482.86 L406.66,483.05 L406.64,483.23 L406.62,483.43 L406.58,483.63 L406.54,483.83 L406.5,484.04 L406.44,484.25 L406.38,484.46 L406.31,484.67 L406.23,484.89 L406.19,484.99 L406.15,485.1 L406.1,485.2 L406.05,485.31 C405.45,486.53,404.59,487.18,404.49,487.18 C404.43,487.18,404.39,487.14,404.39,487.08 C404.39,487.05,404.39,487.03,404.58,486.85 C405.56,485.86,406.13,484.29,406.13,482.21 C406.13,480.51,405.76,478.76,404.52,477.51 C404.39,477.39,404.39,477.37,404.39,477.34 C404.39,477.28,404.43,477.24,404.49,477.24 C404.59,477.24,405.49,477.92,406.08,479.18 C406.59,480.27,406.71,481.38,406.71,482.21 Z " />
<line
   id="line863"
   stroke-width="0.398"
   y2="475.48"
   x2="407.7"
   y1="475.48"
   x1="382.48" />
<path
   id="path865"
   fill="black"
   stroke-width="0"
   d="M397.31,469.94 L397.31,469.94 L397.32,469.95 L397.32,469.96 L397.32,469.96 L397.32,469.97 L397.33,469.98 L397.33,469.99 L397.33,470 L397.33,470.01 L397.34,470.02 L397.34,470.03 L397.34,470.04 L397.34,470.04 L397.34,470.05 L397.34,470.06 L397.35,470.07 L397.35,470.07 L397.35,470.08 L397.35,470.08 L397.35,470.09 L397.35,470.09 L397.35,470.1 L397.35,470.11 L397.35,470.12 L397.35,470.13 L397.35,470.14 L397.35,470.15 L397.35,470.15 L397.35,470.16 L397.35,470.17 C397.35,470.34,397.21,470.43,397.06,470.43 C396.96,470.43,396.8,470.37,396.71,470.23 C396.7,470.17,396.61,469.87,396.58,469.69 C396.51,469.43,396.44,469.16,396.38,468.89 L395.93,467.11 C395.89,466.96,395.46,466.26,394.8,466.26 C394.29,466.26,394.18,466.7,394.18,467.07 C394.18,467.52,394.35,468.14,394.69,469.01 C394.85,469.42,394.89,469.53,394.89,469.73 C394.89,470.17,394.57,470.54,394.07,470.54 C393.12,470.54,392.76,469.1,392.76,469.01 C392.76,468.91,392.86,468.91,392.88,468.91 C392.98,468.91,392.99,468.93,393.04,469.09 C393.3,470.03,393.7,470.32,394.04,470.32 C394.12,470.32,394.29,470.32,394.29,470.01 C394.29,469.76,394.19,469.5,394.12,469.31 C393.72,468.26,393.54,467.69,393.54,467.23 C393.54,466.34,394.17,466.04,394.76,466.04 C395.15,466.04,395.49,466.21,395.77,466.49 C395.64,465.97,395.52,465.49,395.12,464.96 C394.86,464.62,394.48,464.33,394.02,464.33 C393.88,464.33,393.43,464.36,393.27,464.75 C393.42,464.75,393.55,464.75,393.69,464.87 C393.79,464.96,393.89,465.09,393.89,465.28 C393.89,465.59,393.62,465.62,393.52,465.62 C393.3,465.62,392.97,465.47,392.97,464.98 C392.97,464.48,393.4,464.12,394.02,464.12 C395.05,464.12,396.08,465.02,396.36,466.14 Z " />
<path
   id="path867"
   fill="black"
   stroke-width="0"
   d="M418.51,476.23 L418.54,476.23 L418.57,476.23 L418.6,476.24 L418.61,476.24 L418.63,476.24 L418.64,476.24 L418.66,476.24 L418.67,476.24 L418.69,476.24 L418.7,476.25 L418.71,476.25 L418.73,476.25 L418.74,476.26 L418.75,476.26 L418.76,476.27 L418.77,476.28 L418.78,476.28 L418.79,476.29 L418.8,476.3 L418.81,476.31 L418.82,476.32 L418.82,476.32 L418.83,476.33 L418.83,476.33 L418.83,476.34 L418.84,476.35 L418.84,476.35 L418.84,476.36 L418.84,476.37 L418.85,476.37 L418.85,476.38 L418.85,476.39 L418.85,476.4 L418.85,476.41 L418.85,476.41 L418.85,476.42 L418.85,476.43 C418.85,476.63,418.66,476.63,418.52,476.63 H412.55 C412.41,476.63,412.22,476.63,412.22,476.43 C412.22,476.23,412.41,476.23,412.56,476.23 Z " />
<path
   id="path869"
   fill="black"
   stroke-width="0"
   d="M418.52,474.31 L418.54,474.31 L418.55,474.31 L418.58,474.31 L418.6,474.31 L418.62,474.31 L418.63,474.31 L418.65,474.31 L418.66,474.31 L418.67,474.32 L418.69,474.32 L418.7,474.32 L418.71,474.32 L418.73,474.33 L418.74,474.33 L418.75,474.34 L418.76,474.34 L418.77,474.35 L418.78,474.36 L418.79,474.36 L418.8,474.37 L418.81,474.38 L418.82,474.39 L418.82,474.39 L418.82,474.4 L418.83,474.4 L418.83,474.41 L418.83,474.41 L418.84,474.42 L418.84,474.43 L418.84,474.43 L418.84,474.44 L418.85,474.45 L418.85,474.46 L418.85,474.46 L418.85,474.47 L418.85,474.48 L418.85,474.49 L418.85,474.5 L418.85,474.51 C418.85,474.7,418.66,474.7,418.51,474.7 H412.56 C412.41,474.7,412.22,474.7,412.22,474.51 C412.22,474.31,412.41,474.31,412.55,474.31 Z " />
<path
   id="path871"
   fill="black"
   stroke-width="0"
   d="M425.11,479.34 L425.11,479.35 L425.11,479.37 L425.11,479.38 L425.11,479.39 L425.11,479.4 L425.11,479.41 L425.11,479.41 L425.11,479.42 L425.11,479.43 L425.11,479.44 L425.11,479.45 L425.11,479.46 L425.11,479.46 L425.11,479.47 L425.11,479.48 L425.11,479.48 L425.11,479.49 L425.11,479.5 L425.11,479.51 L425.1,479.52 L425.1,479.53 L425.1,479.54 L425.09,479.55 L425.09,479.56 L425.08,479.56 L425.08,479.57 L425.07,479.57 L425.06,479.58 L425.06,479.58 L425.05,479.59 L425.04,479.59 L425.04,479.59 L425.03,479.59 L425.03,479.59 L425.02,479.59 L425.02,479.6 L425.01,479.6 L425,479.6 L425,479.6 L424.99,479.6 L424.98,479.6 L424.97,479.6 L424.97,479.6 L424.96,479.6 L424.95,479.6 L424.94,479.6 L424.93,479.6 L424.92,479.6 L424.91,479.6 L424.9,479.6 L424.89,479.6 L424.88,479.6 C424.27,478.97,423.39,478.97,423.07,478.97 V478.66 C423.27,478.66,423.86,478.66,424.37,478.92 V473.77 C424.37,473.41,424.35,473.29,423.45,473.29 H423.13 V472.99 C423.48,473.02,424.35,473.02,424.74,473.02 C425.14,473.02,426.01,473.02,426.36,472.99 V473.29 H426.04 C425.14,473.29,425.11,473.4,425.11,473.77 Z " />
</g>  </g>
</svg>
