<?xml version="1.0" encoding="UTF-8" standalone="no"?>
<!-- Created with Inkscape (http://www.inkscape.org/) -->

<svg
   xmlns:ns0="http://www.iki.fi/pav/software/textext/"
   xmlns:dc="http://purl.org/dc/elements/1.1/"
   xmlns:cc="http://creativecommons.org/ns#"
   xmlns:rdf="http://www.w3.org/1999/02/22-rdf-syntax-ns#"
   xmlns:svg="http://www.w3.org/2000/svg"
   xmlns="http://www.w3.org/2000/svg"
   xmlns:sodipodi="http://sodipodi.sourceforge.net/DTD/sodipodi-0.dtd"
   xmlns:inkscape="http://www.inkscape.org/namespaces/inkscape"
   width="210mm"
   height="297mm"
   viewBox="0 0 210 296.99999"
   version="1.1"
   id="svg8"
   inkscape:version="0.92.3 (2405546, 2018-03-11)"
   sodipodi:docname="empty.svg">
  <sodipodi:namedview
     id="base"
     pagecolor="#ffffff"
     bordercolor="#666666"
     borderopacity="1.0"
     inkscape:pageopacity="0.0"
     inkscape:pageshadow="2"
     inkscape:zoom="0.50947404"
     inkscape:cx="-380.42923"
     inkscape:cy="752.28437"
     inkscape:document-units="mm"
     inkscape:current-layer="layer1"
     showgrid="false"
     inkscape:window-width="2560"
     inkscape:window-height="1007"
     inkscape:window-x="0"
     inkscape:window-y="0"
     inkscape:window-maximized="1" />
  <defs
     id="defs2" />
  <metadata
     id="metadata5">
    <rdf:RDF>
      <cc:Work
         rdf:about="">
        <dc:format>image/svg+xml</dc:format>
        <dc:type
           rdf:resource="http://purl.org/dc/dcmitype/StillImage" />
        <dc:title />
      </cc:Work>
    </rdf:RDF>
  </metadata>
  <g
     id="layer1"
     inkscape:groupmode="layer"
     inkscape:label="Layer 1">
    <g
       ns0:preamble="/home/sergei/PycharmProjects/textext/extension/textext/default_packages.tex"
       ns0:text="$$\\lim_{x \\to 0} \\frac{\\sin(x)}{x} = 1$$"
       text-anchor="start"
       word-spacing="normal"
       letter-spacing="normal"
       font-size-adjust="none"
       font-stretch="normal"
       font-weight="normal"
       font-variant="normal"
       font-style="normal"
       fill-opacity="1"
       fill-rule="evenodd"
       fill="none"
       stroke-opacity="1"
       stroke-dashoffset="0"
       stroke-dasharray="none"
       stroke-miterlimit="10.433"
       stroke-linejoin="miter"
       stroke-linecap="butt"
       stroke="black"
       xml:space="preserve"
       transform="matrix(1.000000,0,0,-1.000000,-200.000000,750.000000)"
       id="content">
<path
   id="path815"
   fill="black"
   stroke-width="0"
   d="M366.14,479.88 L364.7,479.77 V479.46 C365.4,479.46,365.48,479.39,365.48,478.91 V473.74 C365.48,473.29,365.37,473.29,364.7,473.29 V472.99 C365.03,473,365.56,473.02,365.81,473.02 C366.06,473.02,366.55,473,366.92,472.99 V473.29 C366.25,473.29,366.14,473.29,366.14,473.74 Z " />
<path
   id="path817"
   fill="black"
   stroke-width="0"
   d="M368.91,477.38 L367.51,477.27 V476.96 C368.16,476.96,368.25,476.9,368.25,476.41 V473.74 C368.25,473.29,368.14,473.29,367.47,473.29 V472.99 C367.79,473,368.33,473.02,368.57,473.02 C368.92,473.02,369.27,473,369.61,472.99 V473.29 C368.95,473.29,368.91,473.34,368.91,473.73 Z " />
<path
   id="path819"
   fill="black"
   stroke-width="0"
   d="M368.95,479.11 L368.95,479.13 L368.94,479.16 L368.94,479.19 L368.94,479.22 L368.93,479.25 L368.92,479.27 L368.91,479.3 L368.9,479.32 L368.89,479.35 L368.88,479.37 L368.87,479.39 L368.85,479.41 L368.84,479.43 L368.82,479.45 L368.8,479.47 L368.79,479.49 L368.77,479.5 L368.75,479.52 L368.73,479.54 L368.71,479.55 L368.69,479.56 L368.66,479.57 L368.64,479.58 L368.62,479.59 L368.59,479.6 L368.57,479.61 L368.55,479.62 L368.52,479.62 L368.5,479.63 L368.47,479.63 L368.44,479.63 L368.42,479.63 C368.11,479.63,367.89,479.36,367.89,479.11 C367.89,478.84,368.11,478.58,368.42,478.58 C368.7,478.58,368.95,478.79,368.95,479.11 Z " />
<path
   id="path821"
   fill="black"
   stroke-width="0"
   d="M371.01,476.4 V473.74 C371.01,473.29,370.9,473.29,370.23,473.29 V472.99 C370.58,473,371.09,473.02,371.36,473.02 C371.61,473.02,372.13,473,372.47,472.99 V473.29 C371.8,473.29,371.69,473.29,371.69,473.74 V475.57 C371.69,476.6,372.4,477.16,373.04,477.16 C373.67,477.16,373.78,476.62,373.78,476.06 V473.74 C373.78,473.29,373.67,473.29,373,473.29 V472.99 C373.35,473,373.86,473.02,374.13,473.02 C374.39,473.02,374.9,473,375.24,472.99 V473.29 C374.58,473.29,374.47,473.29,374.47,473.74 V475.57 C374.47,476.6,375.17,477.16,375.81,477.16 C376.44,477.16,376.55,476.62,376.55,476.06 V473.74 C376.55,473.29,376.44,473.29,375.77,473.29 V472.99 C376.12,473,376.63,473.02,376.9,473.02 C377.16,473.02,377.68,473,378.02,472.99 V473.29 C377.5,473.29,377.25,473.29,377.24,473.59 V475.49 C377.24,476.34,377.24,476.65,376.93,477.01 C376.79,477.18,376.46,477.38,375.88,477.38 C375.05,477.38,374.61,476.78,374.44,476.4 C374.3,477.27,373.56,477.38,373.11,477.38 C372.38,477.38,371.91,476.95,371.63,476.33 V477.38 L370.23,477.27 V476.96 C370.93,476.96,371.01,476.89,371.01,476.4 Z " />
<path
   id="path823"
   fill="black"
   stroke-width="0"
   d="M364.82,467.57 L364.81,467.55 L364.8,467.52 L364.79,467.5 L364.78,467.47 L364.77,467.45 L364.76,467.42 L364.75,467.4 L364.74,467.37 L364.72,467.35 L364.71,467.32 L364.69,467.3 L364.67,467.27 L364.66,467.25 L364.64,467.22 L364.62,467.2 L364.6,467.17 L364.58,467.15 L364.55,467.13 L364.53,467.11 L364.51,467.09 L364.48,467.07 L364.46,467.05 L364.43,467.03 L364.4,467.02 L364.38,467.01 L364.35,466.99 L364.32,466.98 L364.29,466.97 L364.26,466.97 L364.23,466.96 L364.19,466.96 L364.16,466.96 C364.14,466.96,363.93,466.96,363.78,467.05 C364.07,467.14,364.09,467.39,364.09,467.44 C364.09,467.59,363.97,467.69,363.81,467.69 C363.61,467.69,363.41,467.53,363.41,467.27 C363.41,466.92,363.8,466.76,364.15,466.76 C364.47,466.76,364.76,466.96,364.93,467.26 C365.1,466.89,365.48,466.76,365.76,466.76 C366.57,466.76,366.99,467.63,366.99,467.83 C366.99,467.92,366.9,467.92,366.88,467.92 C366.78,467.92,366.78,467.88,366.75,467.8 C366.6,467.32,366.18,466.96,365.79,466.96 C365.51,466.96,365.36,467.14,365.36,467.41 C365.36,467.59,365.53,468.22,365.73,468.99 C365.87,469.53,366.18,469.7,366.41,469.7 C366.43,469.7,366.64,469.7,366.79,469.61 C366.57,469.54,366.48,469.35,366.48,469.22 C366.48,469.07,366.6,468.97,366.76,468.97 C366.92,468.97,367.15,469.1,367.15,469.39 C367.15,469.78,366.71,469.9,366.43,469.9 C366.08,469.9,365.8,469.67,365.64,469.4 C365.52,469.69,365.2,469.9,364.8,469.9 C364.02,469.9,363.57,469.04,363.57,468.83 C363.57,468.74,363.67,468.74,363.69,468.74 C363.78,468.74,363.79,468.77,363.83,468.86 C364,469.4,364.44,469.7,364.78,469.7 C365.01,469.7,365.2,469.58,365.2,469.24 C365.2,469.11,365.12,468.76,365.06,468.52 Z " />
<path
   id="path825"
   fill="black"
   stroke-width="0"
   d="M374.03,468.4 L373.95,468.34 L373.87,468.28 L373.8,468.22 L373.73,468.15 L373.67,468.09 L373.61,468.02 L373.55,467.96 L373.5,467.89 L373.45,467.83 L373.4,467.76 L373.36,467.7 L373.32,467.63 L373.29,467.57 L373.25,467.51 L373.22,467.45 L373.2,467.39 L373.17,467.33 L373.15,467.28 L373.13,467.22 L373.11,467.17 L373.1,467.13 L373.08,467.08 L373.07,467.04 L373.06,467 L373.05,466.97 L373.04,466.94 L373.04,466.91 L373.03,466.89 L373.03,466.87 L373.03,466.86 L373.03,466.85 L373.03,466.85 C373.03,466.74,373.1,466.74,373.2,466.74 C373.32,466.74,373.34,466.74,373.38,466.86 C373.42,467.03,373.53,467.48,373.89,467.86 C374.3,468.29,374.65,468.39,374.94,468.48 C374.98,468.49,375.01,468.54,375.01,468.57 C375.01,468.64,374.97,468.65,374.88,468.68 C373.87,469,373.52,469.71,373.37,470.32 C373.34,470.41,373.29,470.41,373.2,470.41 C373.1,470.41,373.03,470.41,373.03,470.3 C373.03,470.29,373.1,469.82,373.44,469.34 C373.6,469.11,373.8,468.91,374.03,468.74 H368.41 C368.3,468.74,368.13,468.74,368.13,468.58 C368.13,468.4,368.29,468.4,368.41,468.4 Z " />
<path
   id="path827"
   fill="black"
   stroke-width="0"
   d="M379.14,469.05 L379.14,469.19 L379.14,469.33 L379.13,469.46 L379.13,469.59 L379.11,469.71 L379.1,469.83 L379.08,469.94 L379.06,470.05 L379.03,470.16 L379,470.27 L378.97,470.37 L378.93,470.47 L378.89,470.57 L378.84,470.67 L378.79,470.76 L378.76,470.81 L378.73,470.85 C378.52,471.17,378.08,471.45,377.52,471.45 V471.26 C377.9,471.26,378.26,471.02,378.39,470.62 C378.5,470.25,378.51,469.75,378.51,469.14 C378.51,468.63,378.51,468.11,378.42,467.67 C378.28,467.04,377.8,466.89,377.52,466.89 H377.52 C377.2,466.89,376.77,467.08,376.64,467.65 C376.54,468.06,376.54,468.63,376.54,469.14 C376.54,469.65,376.54,470.18,376.64,470.56 C376.79,471.11,377.24,471.26,377.52,471.26 V471.45 C375.9,471.45,375.9,469.55,375.9,469.05 C375.9,468.55,375.9,466.69,377.52,466.69 C379.14,466.69,379.14,468.55,379.14,469.05 Z " />
<path
   id="path829"
   fill="black"
   stroke-width="0"
   d="M384.44,481.65 L384.46,481.65 L384.49,481.64 L384.51,481.64 L384.55,481.63 L384.58,481.62 L384.62,481.62 L384.65,481.61 L384.69,481.59 L384.73,481.58 L384.78,481.57 L384.82,481.55 L384.86,481.54 L384.91,481.52 L384.95,481.5 L385,481.47 L385.04,481.45 L385.08,481.42 L385.12,481.4 L385.17,481.36 L385.2,481.33 L385.24,481.3 L385.28,481.26 L385.31,481.22 L385.34,481.18 L385.37,481.13 L385.39,481.11 L385.4,481.09 L385.41,481.06 L385.42,481.04 L385.43,481.01 L385.44,480.98 L385.45,480.95 L385.45,480.93 L385.46,480.9 L385.47,480.87 L385.47,480.84 L385.47,480.8 L385.47,480.77 L385.48,480.74 C385.48,480.23,385.13,479.83,384.35,479.83 C383.51,479.83,383.15,480.4,382.96,481.25 C382.93,481.38,382.92,481.42,382.82,481.42 C382.69,481.42,382.69,481.35,382.69,481.17 V479.86 C382.69,479.69,382.69,479.62,382.8,479.62 C382.85,479.62,382.86,479.63,383.05,479.82 C383.07,479.83,383.07,479.86,383.25,480.04 C383.69,479.63,384.14,479.62,384.35,479.62 C385.49,479.62,385.95,480.28,385.95,481 C385.95,481.52,385.65,481.82,385.54,481.94 C385.21,482.26,384.82,482.34,384.4,482.42 C383.84,482.53,383.17,482.66,383.17,483.23 C383.17,483.58,383.43,483.99,384.29,483.99 C385.39,483.99,385.43,483.09,385.45,482.79 C385.46,482.7,385.55,482.7,385.58,482.7 C385.7,482.7,385.7,482.75,385.7,482.93 V483.94 C385.7,484.11,385.7,484.18,385.6,484.18 C385.55,484.18,385.52,484.18,385.4,484.06 C385.37,484.02,385.27,483.93,385.23,483.9 C384.85,484.18,384.44,484.18,384.29,484.18 C383.07,484.18,382.69,483.51,382.69,482.95 C382.69,482.61,382.85,482.33,383.12,482.11 C383.44,481.85,383.72,481.79,384.44,481.65 Z " />
<path
   id="path831"
   fill="black"
   stroke-width="0"
   d="M388.06,484.12 L386.66,484.01 V483.7 C387.31,483.7,387.4,483.64,387.4,483.15 V480.48 C387.4,480.03,387.29,480.03,386.62,480.03 V479.73 C386.94,479.74,387.48,479.76,387.72,479.76 C388.07,479.76,388.42,479.74,388.76,479.73 V480.03 C388.1,480.03,388.06,480.08,388.06,480.47 Z " />
<path
   id="path833"
   fill="black"
   stroke-width="0"
   d="M388.1,485.85 L388.1,485.87 L388.1,485.9 L388.09,485.93 L388.09,485.96 L388.08,485.99 L388.07,486.01 L388.06,486.04 L388.05,486.06 L388.04,486.09 L388.03,486.11 L388.02,486.13 L388,486.15 L387.99,486.17 L387.97,486.19 L387.96,486.21 L387.94,486.23 L387.92,486.24 L387.9,486.26 L387.88,486.28 L387.86,486.29 L387.84,486.3 L387.82,486.31 L387.79,486.32 L387.77,486.33 L387.75,486.34 L387.72,486.35 L387.7,486.36 L387.67,486.36 L387.65,486.37 L387.62,486.37 L387.6,486.37 L387.57,486.37 C387.26,486.37,387.04,486.1,387.04,485.85 C387.04,485.58,387.26,485.32,387.57,485.32 C387.85,485.32,388.1,485.53,388.1,485.85 Z " />
<path
   id="path835"
   fill="black"
   stroke-width="0"
   d="M390.16,483.14 V480.48 C390.16,480.03,390.05,480.03,389.38,480.03 V479.73 C389.73,479.74,390.24,479.76,390.51,479.76 C390.77,479.76,391.29,479.74,391.62,479.73 V480.03 C390.96,480.03,390.85,480.03,390.85,480.48 V482.31 C390.85,483.34,391.55,483.9,392.19,483.9 C392.82,483.9,392.93,483.36,392.93,482.8 V480.48 C392.93,480.03,392.82,480.03,392.15,480.03 V479.73 C392.5,479.74,393.01,479.76,393.28,479.76 C393.54,479.76,394.06,479.74,394.4,479.73 V480.03 C393.88,480.03,393.63,480.03,393.62,480.33 V482.23 C393.62,483.08,393.62,483.39,393.31,483.75 C393.17,483.92,392.84,484.12,392.26,484.12 C391.53,484.12,391.07,483.69,390.79,483.07 V484.12 L389.38,484.01 V483.7 C390.08,483.7,390.16,483.63,390.16,483.14 Z " />
<path
   id="path837"
   fill="black"
   stroke-width="0"
   d="M397.9,477.34 L397.9,477.35 L397.9,477.35 L397.9,477.36 L397.9,477.36 L397.9,477.36 L397.89,477.37 L397.89,477.37 L397.89,477.37 L397.89,477.38 L397.89,477.38 L397.89,477.38 L397.88,477.39 L397.88,477.39 L397.88,477.4 L397.87,477.41 L397.87,477.41 L397.86,477.42 L397.86,477.43 L397.85,477.43 L397.85,477.43 L397.85,477.44 L397.84,477.44 L397.84,477.45 L397.83,477.45 L397.83,477.45 L397.83,477.46 L397.82,477.46 L397.82,477.47 L397.81,477.47 L397.81,477.48 L397.8,477.49 L397.79,477.49 L397.79,477.5 L397.78,477.5 L397.78,477.51 L397.77,477.52 L397.76,477.52 L397.76,477.53 L397.75,477.54 L397.74,477.54 L397.73,477.55 L397.73,477.56 C396.48,478.81,396.16,480.69,396.16,482.21 C396.16,483.94,396.54,485.67,397.77,486.91 C397.9,487.03,397.9,487.05,397.9,487.08 C397.9,487.15,397.86,487.18,397.8,487.18 C397.7,487.18,396.8,486.5,396.21,485.24 C395.7,484.15,395.58,483.04,395.58,482.21 C395.58,481.43,395.69,480.23,396.24,479.11 C396.84,477.89,397.7,477.24,397.8,477.24 C397.86,477.24,397.9,477.27,397.9,477.34 Z " />
<path
   id="path839"
   fill="black"
   stroke-width="0"
   d="M401.8,482.73 L401.81,482.75 L401.81,482.78 L401.82,482.81 L401.83,482.85 L401.84,482.89 L401.85,482.93 L401.87,482.97 L401.88,483.02 L401.9,483.06 L401.92,483.11 L401.93,483.16 L401.96,483.21 L401.98,483.26 L402,483.31 L402.03,483.36 L402.05,483.41 L402.08,483.46 L402.12,483.5 L402.15,483.55 L402.18,483.6 L402.22,483.64 L402.26,483.68 L402.3,483.72 L402.35,483.75 L402.39,483.78 L402.44,483.81 L402.47,483.82 L402.49,483.84 L402.52,483.85 L402.55,483.86 L402.58,483.87 L402.6,483.88 L402.63,483.88 L402.66,483.89 L402.69,483.89 L402.72,483.9 L402.76,483.9 L402.79,483.9 C402.84,483.9,403.08,483.9,403.29,483.77 C403.01,483.72,402.81,483.47,402.81,483.23 C402.81,483.07,402.92,482.89,403.19,482.89 C403.41,482.89,403.73,483.06,403.73,483.46 C403.73,483.98,403.14,484.12,402.8,484.12 C402.22,484.12,401.87,483.59,401.75,483.36 C401.5,484.02,400.96,484.12,400.67,484.12 C399.64,484.12,399.07,482.83,399.07,482.59 C399.07,482.49,399.17,482.49,399.19,482.49 C399.27,482.49,399.3,482.51,399.32,482.6 C399.66,483.65,400.32,483.9,400.65,483.9 C400.84,483.9,401.19,483.81,401.19,483.23 C401.19,482.92,401.02,482.26,400.65,480.87 C400.49,480.25,400.14,479.83,399.71,479.83 C399.65,479.83,399.42,479.83,399.21,479.96 C399.46,480.01,399.68,480.22,399.68,480.5 C399.68,480.77,399.46,480.85,399.31,480.85 C399.01,480.85,398.76,480.59,398.76,480.27 C398.76,479.82,399.26,479.62,399.7,479.62 C400.36,479.62,400.71,480.31,400.74,480.37 C400.86,480,401.22,479.62,401.82,479.62 C402.85,479.62,403.42,480.9,403.42,481.15 C403.42,481.25,403.33,481.25,403.3,481.25 C403.21,481.25,403.19,481.21,403.17,481.14 C402.84,480.07,402.16,479.83,401.84,479.83 C401.45,479.83,401.29,480.15,401.29,480.49 C401.29,480.71,401.35,480.93,401.46,481.36 Z " />
<path
   id="path841"
   fill="black"
   stroke-width="0"
   d="M407.05,482.21 L407.05,482.28 L407.04,482.36 L407.04,482.44 L407.04,482.52 L407.03,482.69 L407.02,482.86 L407,483.05 L406.98,483.23 L406.96,483.43 L406.92,483.63 L406.88,483.83 L406.84,484.04 L406.78,484.25 L406.72,484.46 L406.65,484.67 L406.57,484.89 L406.53,484.99 L406.49,485.1 L406.44,485.2 L406.39,485.31 C405.79,486.53,404.93,487.18,404.83,487.18 C404.77,487.18,404.73,487.14,404.73,487.08 C404.73,487.05,404.73,487.03,404.92,486.85 C405.9,485.86,406.47,484.29,406.47,482.21 C406.47,480.51,406.1,478.76,404.86,477.51 C404.73,477.39,404.73,477.37,404.73,477.34 C404.73,477.28,404.77,477.24,404.83,477.24 C404.93,477.24,405.83,477.92,406.42,479.18 C406.93,480.27,407.05,481.38,407.05,482.21 Z " />
<line
   id="line843"
   stroke-width="0.398"
   y2="475.48"
   x2="408.04"
   y1="475.48"
   x1="382.36" />
<path
   id="path845"
   fill="black"
   stroke-width="0"
   d="M395.68,469.15 L395.69,469.18 L395.7,469.21 L395.71,469.24 L395.72,469.28 L395.73,469.32 L395.74,469.36 L395.75,469.4 L395.77,469.44 L395.78,469.49 L395.8,469.54 L395.82,469.59 L395.84,469.64 L395.86,469.69 L395.89,469.74 L395.91,469.79 L395.94,469.83 L395.97,469.88 L396,469.93 L396.03,469.98 L396.07,470.02 L396.11,470.06 L396.15,470.1 L396.19,470.14 L396.23,470.18 L396.28,470.21 L396.33,470.24 L396.35,470.25 L396.38,470.26 L396.4,470.27 L396.43,470.28 L396.46,470.29 L396.49,470.3 L396.52,470.31 L396.55,470.31 L396.58,470.32 L396.61,470.32 L396.64,470.32 L396.67,470.32 C396.72,470.32,396.96,470.32,397.17,470.2 C396.89,470.14,396.69,469.9,396.69,469.66 C396.69,469.5,396.8,469.31,397.07,469.31 C397.29,469.31,397.61,469.49,397.61,469.89 C397.61,470.4,397.02,470.54,396.68,470.54 C396.1,470.54,395.75,470.02,395.64,469.79 C395.39,470.44,394.85,470.54,394.56,470.54 C393.52,470.54,392.95,469.26,392.95,469.01 C392.95,468.91,393.05,468.91,393.07,468.91 C393.15,468.91,393.18,468.93,393.2,469.02 C393.54,470.08,394.2,470.32,394.54,470.32 C394.73,470.32,395.08,470.23,395.08,469.66 C395.08,469.35,394.91,468.68,394.54,467.29 C394.38,466.68,394.03,466.26,393.59,466.26 C393.53,466.26,393.3,466.26,393.09,466.39 C393.34,466.44,393.56,466.65,393.56,466.93 C393.56,467.2,393.34,467.27,393.19,467.27 C392.89,467.27,392.64,467.02,392.64,466.7 C392.64,466.24,393.14,466.04,393.58,466.04 C394.24,466.04,394.6,466.74,394.63,466.8 C394.75,466.43,395.11,466.04,395.7,466.04 C396.73,466.04,397.3,467.32,397.3,467.57 C397.3,467.67,397.21,467.67,397.18,467.67 C397.09,467.67,397.07,467.63,397.05,467.56 C396.72,466.5,396.04,466.26,395.73,466.26 C395.34,466.26,395.18,466.58,395.18,466.92 C395.18,467.14,395.24,467.35,395.35,467.79 Z " />
<path
   id="path847"
   fill="black"
   stroke-width="0"
   d="M418.85,476.23 L418.88,476.23 L418.91,476.23 L418.94,476.24 L418.95,476.24 L418.97,476.24 L418.98,476.24 L419,476.24 L419.01,476.24 L419.02,476.24 L419.04,476.25 L419.05,476.25 L419.06,476.25 L419.08,476.26 L419.09,476.26 L419.1,476.27 L419.11,476.28 L419.12,476.28 L419.13,476.29 L419.14,476.3 L419.15,476.31 L419.16,476.32 L419.16,476.32 L419.17,476.33 L419.17,476.33 L419.17,476.34 L419.18,476.35 L419.18,476.35 L419.18,476.36 L419.18,476.37 L419.18,476.37 L419.19,476.38 L419.19,476.39 L419.19,476.4 L419.19,476.41 L419.19,476.41 L419.19,476.42 L419.19,476.43 C419.19,476.63,419,476.63,418.86,476.63 H412.89 C412.75,476.63,412.56,476.63,412.56,476.43 C412.56,476.23,412.75,476.23,412.9,476.23 Z " />
<path
   id="path849"
   fill="black"
   stroke-width="0"
   d="M418.86,474.31 L418.88,474.31 L418.89,474.31 L418.92,474.31 L418.94,474.31 L418.96,474.31 L418.97,474.31 L418.99,474.31 L419,474.31 L419.01,474.32 L419.03,474.32 L419.04,474.32 L419.05,474.32 L419.07,474.33 L419.08,474.33 L419.09,474.34 L419.1,474.34 L419.11,474.35 L419.12,474.36 L419.13,474.36 L419.14,474.37 L419.15,474.38 L419.16,474.39 L419.16,474.39 L419.16,474.4 L419.17,474.4 L419.17,474.41 L419.17,474.41 L419.18,474.42 L419.18,474.43 L419.18,474.43 L419.18,474.44 L419.18,474.45 L419.19,474.46 L419.19,474.46 L419.19,474.47 L419.19,474.48 L419.19,474.49 L419.19,474.5 L419.19,474.51 C419.19,474.7,419,474.7,418.85,474.7 H412.9 C412.75,474.7,412.56,474.7,412.56,474.51 C412.56,474.31,412.75,474.31,412.89,474.31 Z " />
<path
   id="path851"
   fill="black"
   stroke-width="0"
   d="M425.45,479.34 L425.45,479.35 L425.45,479.37 L425.45,479.38 L425.45,479.39 L425.45,479.4 L425.45,479.41 L425.45,479.41 L425.45,479.42 L425.45,479.43 L425.45,479.44 L425.45,479.45 L425.45,479.46 L425.45,479.46 L425.45,479.47 L425.45,479.48 L425.45,479.48 L425.45,479.49 L425.45,479.5 L425.44,479.51 L425.44,479.52 L425.44,479.53 L425.44,479.54 L425.43,479.55 L425.43,479.56 L425.42,479.56 L425.42,479.57 L425.41,479.57 L425.4,479.58 L425.4,479.58 L425.39,479.59 L425.38,479.59 L425.38,479.59 L425.37,479.59 L425.37,479.59 L425.36,479.59 L425.35,479.6 L425.35,479.6 L425.34,479.6 L425.34,479.6 L425.33,479.6 L425.32,479.6 L425.31,479.6 L425.31,479.6 L425.3,479.6 L425.29,479.6 L425.28,479.6 L425.27,479.6 L425.26,479.6 L425.25,479.6 L425.24,479.6 L425.23,479.6 L425.22,479.6 C424.6,478.97,423.73,478.97,423.41,478.97 V478.66 C423.61,478.66,424.2,478.66,424.71,478.92 V473.77 C424.71,473.41,424.68,473.29,423.79,473.29 H423.47 V472.99 C423.82,473.02,424.68,473.02,425.08,473.02 C425.48,473.02,426.35,473.02,426.7,472.99 V473.29 H426.38 C425.48,473.29,425.45,473.4,425.45,473.77 Z " />
</g>  </g>
</svg>
