<?xml version="1.0" encoding="UTF-8" standalone="no"?>
<!-- Created with Inkscape (http://www.inkscape.org/) -->

<svg
   xmlns:ns0="http://www.iki.fi/pav/software/textext/"
   xmlns:dc="http://purl.org/dc/elements/1.1/"
   xmlns:cc="http://creativecommons.org/ns#"
   xmlns:rdf="http://www.w3.org/1999/02/22-rdf-syntax-ns#"
   xmlns:svg="http://www.w3.org/2000/svg"
   xmlns="http://www.w3.org/2000/svg"
   xmlns:sodipodi="http://sodipodi.sourceforge.net/DTD/sodipodi-0.dtd"
   xmlns:inkscape="http://www.inkscape.org/namespaces/inkscape"
   width="128"
   height="128"
   viewBox="0 0 128 128.00001"
   version="1.1"
   id="svg8"
   inkscape:version="0.92.3 (2405546, 2018-03-11)"
   sodipodi:docname="logo.svg"
   inkscape:export-filename="/home/sergei/PycharmProjects/textext/docs/source/images/logo-128x128.png"
   inkscape:export-xdpi="768"
   inkscape:export-ydpi="768">
  <sodipodi:namedview
     id="base"
     pagecolor="#ffffff"
     bordercolor="#666666"
     borderopacity="1.0"
     inkscape:pageopacity="0.0"
     inkscape:pageshadow="2"
     inkscape:zoom="4.3012508"
     inkscape:cx="-37.719173"
     inkscape:cy="44.263679"
     inkscape:document-units="px"
     inkscape:current-layer="layer1"
     showgrid="true"
     inkscape:window-width="2560"
     inkscape:window-height="1007"
     inkscape:window-x="0"
     inkscape:window-y="0"
     inkscape:window-maximized="1"
     units="px"
     inkscape:snap-global="false"
     borderlayer="true">
    <inkscape:grid
       type="xygrid"
       id="grid53" />
  </sodipodi:namedview>
  <defs
     id="defs2" />
  <metadata
     id="metadata5">
    <rdf:RDF>
      <cc:Work
         rdf:about="">
        <dc:format>image/svg+xml</dc:format>
        <dc:type
           rdf:resource="http://purl.org/dc/dcmitype/StillImage" />
        <dc:title />
      </cc:Work>
    </rdf:RDF>
  </metadata>
  <g
     transform="translate(0,112)"
     inkscape:label="bg"
     id="layer2"
     inkscape:groupmode="layer">
    <rect
       y="-111.95308"
       x="0"
       height="127.95307"
       width="127.95308"
       id="rect18"
       style="color:#000000;clip-rule:nonzero;display:inline;overflow:visible;visibility:visible;opacity:1;isolation:auto;mix-blend-mode:normal;color-interpolation:sRGB;color-interpolation-filters:linearRGB;solid-color:#000000;solid-opacity:1;fill:#ffffff;fill-opacity:1;fill-rule:nonzero;stroke:none;stroke-width:6.39765406;stroke-linecap:butt;stroke-linejoin:miter;stroke-miterlimit:4;stroke-dasharray:none;stroke-dashoffset:0;stroke-opacity:1;marker:none;paint-order:fill markers stroke;color-rendering:auto;image-rendering:auto;shape-rendering:auto;text-rendering:auto;enable-background:accumulate" />
  </g>
  <g
     id="layer1"
     inkscape:groupmode="layer"
     inkscape:label="Layer 1"
     transform="translate(0,-994.5197)">
    <g
       ns0:jacobian_sqrt="0.352778"
       ns0:alignment="middle center"
       ns0:scale="1.0"
       ns0:preamble="/home/sergei/.config/inkscape/extensions/textext/default_packages.tex"
       ns0:text="\\TeX"
       ns0:pdfconverter="pstoedit"
       ns0:texconverter="pdflatex"
       ns0:version="0.9.0-dev2"
       word-spacing="normal"
       letter-spacing="normal"
       font-size-adjust="none"
       font-stretch="normal"
       font-weight="normal"
       font-variant="normal"
       font-style="normal"
       stroke-miterlimit="10.433"
       xml:space="preserve"
       transform="matrix(6.2466919,0,0,-6.2466923,-923.41591,5151.5009)"
       id="content"
       style="font-style:normal;font-variant:normal;font-weight:normal;font-stretch:normal;letter-spacing:normal;word-spacing:normal;text-anchor:start;fill:none;fill-opacity:1;fill-rule:evenodd;stroke:#000000;stroke-linecap:butt;stroke-linejoin:miter;stroke-miterlimit:10.43299961;stroke-dasharray:none;stroke-dashoffset:0;stroke-opacity:1">
<path
   id="path13"
   d="m 155.35,663.96 h -6.09 l -0.19,-2.24 h 0.25 c 0.14,1.6 0.29,1.93 1.8,1.93 0.17,0 0.43,0 0.53,-0.02 0.21,-0.04 0.21,-0.15 0.21,-0.37 v -5.24 c 0,-0.34 0,-0.48 -1.04,-0.48 h -0.4 v -0.31 c 0.41,0.04 1.42,0.04 1.88,0.04 0.46,0 1.49,0 1.9,-0.04 v 0.31 h -0.4 c -1.05,0 -1.05,0.14 -1.05,0.48 v 5.24 c 0,0.19 0,0.33 0.18,0.37 0.11,0.02 0.38,0.02 0.57,0.02 1.5,0 1.65,-0.33 1.79,-1.93 h 0.25 z"
   inkscape:connector-curvature="0"
   style="fill:#000000;stroke-width:0" />
<path
   id="path15"
   d="m 155.6,655.87 v -0.04 -0.03 -0.03 -0.03 -0.02 -0.03 l -0.01,-0.02 v -0.03 l -0.01,-0.02 -0.01,-0.02 v -0.02 l -0.01,-0.02 -0.02,-0.02 -0.01,-0.01 -0.02,-0.02 -0.01,-0.01 -0.02,-0.01 -0.03,-0.02 h -0.01 l -0.01,-0.01 h -0.01 l -0.02,-0.01 h -0.01 l -0.02,-0.01 h -0.01 -0.02 l -0.02,-0.01 h -0.02 l -0.02,-0.01 h -0.02 -0.02 -0.02 l -0.02,-0.01 h -0.03 -0.02 -0.03 -0.02 l -0.03,-0.01 h -0.03 -0.03 -0.03 -0.03 -0.03 -0.04 -0.03 -0.03 -0.24 v -0.31 h 5.75 l 0.42,2.56 h -0.25 c -0.25,-1.53 -0.48,-2.25 -2.19,-2.25 h -1.33 c -0.47,0 -0.49,0.07 -0.49,0.4 v 2.65 h 0.9 c 0.96,0 1.07,-0.32 1.07,-1.16 h 0.25 v 2.63 h -0.25 c 0,-0.85 -0.11,-1.16 -1.07,-1.16 h -0.9 v 2.38 c 0,0.33 0.02,0.4 0.49,0.4 h 1.29 c 1.52,0 1.79,-0.55 1.95,-1.93 h 0.25 l -0.28,2.24 h -5.61 v -0.31 h 0.24 c 0.76,0 0.78,-0.11 0.78,-0.47 z"
   inkscape:connector-curvature="0"
   style="fill:#000000;stroke-width:0" />
<path
   id="path17"
   d="m 163.79,661.07 1.37,2 c 0.22,0.31 0.55,0.63 1.44,0.64 v 0.31 c -0.39,-0.01 -0.86,-0.03 -1.1,-0.03 -0.4,0 -0.88,0 -1.28,0.03 v -0.31 c 0.4,-0.01 0.62,-0.23 0.62,-0.45 0,-0.1 -0.02,-0.12 -0.09,-0.23 l -1.14,-1.68 -1.29,1.92 c -0.02,0.02 -0.06,0.1 -0.06,0.14 0,0.12 0.22,0.29 0.64,0.3 v 0.31 c -0.35,-0.03 -1.07,-0.03 -1.45,-0.03 -0.31,0 -0.93,0.01 -1.3,0.03 v -0.31 h 0.19 c 0.55,0 0.74,-0.07 0.93,-0.35 l 1.83,-2.76 -1.63,-2.4 c -0.14,-0.2 -0.44,-0.66 -1.45,-0.66 v -0.31 c 0.36,0.01 0.78,0.04 1.11,0.04 0.37,0 0.92,0 1.27,-0.04 v 0.31 c -0.45,0.01 -0.62,0.28 -0.62,0.46 0,0.09 0.03,0.13 0.1,0.24 l 1.41,2.08 1.58,-2.37 c 0.02,-0.04 0.05,-0.08 0.05,-0.11 0,-0.12 -0.22,-0.29 -0.65,-0.3 v -0.31 c 0.35,0.04 1.08,0.04 1.46,0.04 0.41,0 0.87,-0.01 1.29,-0.04 v 0.31 h -0.19 c -0.52,0 -0.73,0.05 -0.93,0.36 z"
   inkscape:connector-curvature="0"
   style="fill:#000000;stroke-width:0" />
</g>    <g
       id="g845"
       style="stroke:#000000;stroke-opacity:1;fill-opacity:1"
       ns0:jacobian_sqrt="5.71499"
       inkscapeversion="0.92.3"
       ns0:alignment="middle center"
       ns0:scale="16.1999567997"
       ns0:preamble="/home/sergei/.config/inkscape/extensions/textext/default_packages.tex"
       ns0:text="\\textffm{text}"
       ns0:pdfconverter="pdf2svg"
       ns0:texconverter="pdflatex"
       ns0:version="0.9.0-dev2"
       transform="matrix(5.714990,0.000000,0.000000,5.714990,-846.256497,333.644287)">
      <g
         style="stroke:#000000;stroke-opacity:1;fill-opacity:1"
         id="surface1">
        <g
           id="g842"
           style="stroke:#000000;fill-opacity:1;stroke-opacity:1;fill:rgb(0%,0%,0%)">
          <path
             id="path834"
             transform="translate(148.712,134.765)"
             d="M 0 -4.1875 C 0 -4.03125 0.15625 -3.890625 0.328125 -3.890625 L 2.265625 -3.890625 L 2.265625 -0.1875 C 2.265625 -0.03125 2.40625 0.109375 2.59375 0.109375 C 2.765625 0.109375 2.921875 -0.03125 2.921875 -0.1875 L 2.921875 -3.890625 L 4.859375 -3.890625 C 5.03125 -3.890625 5.1875 -4.03125 5.1875 -4.1875 C 5.1875 -4.34375 5.03125 -4.484375 4.859375 -4.484375 L 0.328125 -4.484375 C 0.15625 -4.484375 0 -4.34375 0 -4.1875 Z M 0 -4.1875 "
             style="stroke:#000000;stroke-width:0;stroke-opacity:1;fill-opacity:1" />
          <path
             id="path836"
             transform="translate(153.892552,134.765)"
             d="M 4.921875 -0.296875 C 4.921875 -0.453125 4.765625 -0.59375 4.578125 -0.59375 L 1.4375 -0.59375 L 1.4375 -1.9375 L 3.984375 -1.9375 C 4.171875 -1.9375 4.3125 -2.078125 4.3125 -2.25 C 4.3125 -2.40625 4.171875 -2.546875 3.984375 -2.546875 L 1.4375 -2.546875 L 1.4375 -3.890625 L 4.578125 -3.890625 C 4.765625 -3.890625 4.921875 -4.03125 4.921875 -4.1875 C 4.921875 -4.34375 4.765625 -4.484375 4.578125 -4.484375 L 1.109375 -4.484375 C 0.96875 -4.484375 0.78125 -4.359375 0.78125 -4.1875 L 0.78125 -0.296875 C 0.78125 -0.171875 0.90625 0 1.109375 0 L 4.578125 0 C 4.765625 0 4.921875 -0.140625 4.921875 -0.296875 Z M 4.921875 -0.296875 "
             style="stroke:#000000;stroke-width:0;stroke-opacity:1;fill-opacity:1" />
          <path
             id="path838"
             transform="translate(159.471608,134.765)"
             d="M 0.265625 -4.296875 C 0.265625 -4.234375 0.296875 -4.171875 0.34375 -4.109375 L 2.15625 -2.25 L 0.34375 -0.375 C 0.296875 -0.3125 0.265625 -0.265625 0.265625 -0.1875 C 0.265625 -0.03125 0.421875 0.109375 0.59375 0.109375 C 0.6875 0.109375 0.78125 0.078125 0.84375 0.015625 L 2.59375 -1.796875 L 4.34375 0.015625 C 4.390625 0.078125 4.5 0.109375 4.578125 0.109375 C 4.765625 0.109375 4.921875 -0.03125 4.921875 -0.1875 C 4.921875 -0.265625 4.890625 -0.3125 4.828125 -0.375 L 3.03125 -2.25 L 4.828125 -4.109375 C 4.890625 -4.171875 4.921875 -4.234375 4.921875 -4.296875 C 4.921875 -4.453125 4.765625 -4.59375 4.578125 -4.59375 C 4.5 -4.59375 4.390625 -4.5625 4.34375 -4.5 L 2.59375 -2.6875 L 0.84375 -4.5 C 0.78125 -4.5625 0.6875 -4.59375 0.59375 -4.59375 C 0.421875 -4.59375 0.265625 -4.453125 0.265625 -4.296875 Z M 0.265625 -4.296875 "
             style="stroke:#000000;stroke-width:0;stroke-opacity:1;fill-opacity:1" />
          <path
             id="path840"
             transform="translate(164.65216,134.765)"
             d="M 0 -4.1875 C 0 -4.03125 0.15625 -3.890625 0.328125 -3.890625 L 2.265625 -3.890625 L 2.265625 -0.1875 C 2.265625 -0.03125 2.40625 0.109375 2.59375 0.109375 C 2.765625 0.109375 2.921875 -0.03125 2.921875 -0.1875 L 2.921875 -3.890625 L 4.859375 -3.890625 C 5.03125 -3.890625 5.1875 -4.03125 5.1875 -4.1875 C 5.1875 -4.34375 5.03125 -4.484375 4.859375 -4.484375 L 0.328125 -4.484375 C 0.15625 -4.484375 0 -4.34375 0 -4.1875 Z M 0 -4.1875 "
             style="stroke:#000000;stroke-width:0;stroke-opacity:1;fill-opacity:1" />
        </g>
      </g>
    </g>
  </g>
</svg>
