<?xml version="1.0" encoding="UTF-8" standalone="no"?>
<!-- Created with Inkscape (http://www.inkscape.org/) -->

<svg
   xmlns:ns1="http://www.iki.fi/pav/software/textext/"
   xmlns:dc="http://purl.org/dc/elements/1.1/"
   xmlns:cc="http://creativecommons.org/ns#"
   xmlns:rdf="http://www.w3.org/1999/02/22-rdf-syntax-ns#"
   xmlns:svg="http://www.w3.org/2000/svg"
   xmlns="http://www.w3.org/2000/svg"
   xmlns:sodipodi="http://sodipodi.sourceforge.net/DTD/sodipodi-0.dtd"
   xmlns:inkscape="http://www.inkscape.org/namespaces/inkscape"
   width="210mm"
   height="297mm"
   viewBox="0 0 210 297"
   version="1.1"
   id="svg752"
   inkscape:version="0.92.3 (2405546, 2018-03-11)"
   sodipodi:docname="original.svg">
  <sodipodi:namedview
     id="base"
     pagecolor="#ffffff"
     bordercolor="#666666"
     borderopacity="1.0"
     inkscape:pageopacity="0.0"
     inkscape:pageshadow="2"
     inkscape:zoom="10.938975"
     inkscape:cx="396.85039"
     inkscape:cy="561.25984"
     inkscape:document-units="mm"
     inkscape:current-layer="layer1"
     showgrid="false"
     inkscape:window-width="1920"
     inkscape:window-height="1141"
     inkscape:window-x="0"
     inkscape:window-y="0"
     inkscape:window-maximized="1" />
  <defs
     id="defs746" />
  <metadata
     id="metadata749">
    <rdf:RDF>
      <cc:Work
         rdf:about="">
        <dc:format>image/svg+xml</dc:format>
        <dc:type
           rdf:resource="http://purl.org/dc/dcmitype/StillImage" />
        <dc:title />
      </cc:Work>
    </rdf:RDF>
  </metadata>
  <g
     inkscape:label="Ebene 1"
     inkscape:groupmode="layer"
     id="layer1">
    <g
       ns1:jacobian_sqrt="0.352778"
       inkscapeversion="0.92.3"
       ns1:alignment="middle center"
       ns1:scale="1.0"
       ns1:preamble="/home/winkler/.config/inkscape/extensions/textext/default_packages.tex"
       ns1:text="$$\\lim_{n \\to \\infty} \\left(1+\\frac{1}{n}\\right)^n = e$$\n"
       ns1:pdfconverter="pstoedit"
       ns1:texconverter="pdflatex"
       ns1:version="0.11.1"
       text-anchor="start"
       word-spacing="normal"
       letter-spacing="normal"
       font-size-adjust="none"
       font-stretch="normal"
       font-weight="normal"
       font-variant="normal"
       font-style="normal"
       fill-opacity="1"
       fill-rule="evenodd"
       fill="none"
       stroke-opacity="1"
       stroke-dashoffset="0"
       stroke-dasharray="none"
       stroke-miterlimit="10.433"
       stroke-linejoin="miter"
       stroke-linecap="butt"
       stroke="black"
       xml:space="preserve"
       transform="matrix(0.352778,0.000000,0.000000,-0.352778,-2.810721,375.722546)"
       id="content">
<path
   id="path5270"
   fill="black"
   stroke-width="0"
   d="M267.87,648.15 L266.43,648.03 V647.74 C267.12,647.74,267.21,647.66,267.21,647.18 V642 C267.21,641.57,267.11,641.57,266.43,641.57 V641.25 C266.76,641.27,267.29,641.28,267.54,641.28 C267.78,641.28,268.28,641.27,268.64,641.25 V641.57 C267.98,641.57,267.87,641.57,267.87,642 Z " />
<path
   id="path5272"
   fill="black"
   stroke-width="0"
   d="M270.64,645.65 L269.25,645.53 V645.22 C269.89,645.22,269.98,645.16,269.98,644.68 V642 C269.98,641.57,269.87,641.57,269.2,641.57 V641.25 C269.51,641.27,270.06,641.28,270.29,641.28 C270.64,641.28,270.98,641.27,271.32,641.25 V641.57 C270.67,641.57,270.64,641.61,270.64,642 Z " />
<path
   id="path5274"
   fill="black"
   stroke-width="0"
   d="M270.67,647.38 L270.67,647.41 L270.67,647.44 L270.66,647.46 L270.66,647.49 L270.65,647.52 L270.64,647.54 L270.63,647.57 L270.62,647.59 L270.61,647.61 L270.6,647.64 L270.59,647.66 L270.57,647.68 L270.56,647.7 L270.54,647.72 L270.53,647.74 L270.51,647.75 L270.49,647.77 L270.47,647.79 L270.45,647.8 L270.43,647.81 L270.41,647.83 L270.38,647.84 L270.36,647.85 L270.34,647.86 L270.31,647.87 L270.29,647.87 L270.27,647.88 L270.24,647.89 L270.22,647.89 L270.19,647.89 L270.16,647.89 L270.14,647.9 C269.84,647.9,269.62,647.63,269.62,647.38 C269.62,647.1,269.84,646.85,270.14,646.85 C270.42,646.85,270.67,647.05,270.67,647.38 Z " />
<path
   id="path5276"
   fill="black"
   stroke-width="0"
   d="M272.73,644.68 V642 C272.73,641.57,272.62,641.57,271.95,641.57 V641.25 C272.31,641.27,272.81,641.28,273.07,641.28 C273.34,641.28,273.86,641.27,274.18,641.25 V641.57 C273.53,641.57,273.42,641.57,273.42,642 V643.83 C273.42,644.86,274.12,645.43,274.76,645.43 C275.39,645.43,275.5,644.9,275.5,644.32 V642 C275.5,641.57,275.39,641.57,274.71,641.57 V641.25 C275.06,641.27,275.57,641.28,275.84,641.28 C276.09,641.28,276.62,641.27,276.95,641.25 V641.57 C276.29,641.57,276.18,641.57,276.18,642 V643.83 C276.18,644.86,276.89,645.43,277.51,645.43 C278.14,645.43,278.25,644.9,278.25,644.32 V642 C278.25,641.57,278.14,641.57,277.48,641.57 V641.25 C277.82,641.27,278.34,641.28,278.61,641.28 C278.86,641.28,279.37,641.27,279.71,641.25 V641.57 C279.2,641.57,278.95,641.57,278.93,641.86 V643.75 C278.93,644.61,278.93,644.93,278.64,645.27 C278.5,645.44,278.17,645.65,277.59,645.65 C276.75,645.65,276.31,645.05,276.15,644.68 C276.01,645.53,275.28,645.65,274.82,645.65 C274.11,645.65,273.64,645.22,273.36,644.6 V645.65 L271.95,645.53 V645.22 C272.65,645.22,272.73,645.16,272.73,644.68 Z " />
<path
   id="path5278"
   fill="black"
   stroke-width="0"
   d="M263.48,635.72 L263.47,635.71 L263.47,635.7 L263.47,635.69 L263.46,635.68 L263.46,635.67 L263.46,635.66 L263.45,635.63 L263.44,635.61 L263.44,635.59 L263.43,635.57 L263.43,635.56 L263.43,635.54 L263.42,635.53 L263.42,635.52 L263.42,635.51 L263.41,635.5 L263.41,635.5 L263.41,635.49 L263.41,635.48 L263.41,635.47 L263.4,635.46 L263.4,635.46 L263.4,635.45 L263.4,635.45 L263.4,635.44 L263.4,635.44 L263.4,635.44 L263.4,635.44 L263.4,635.43 L263.4,635.43 C263.4,635.28,263.52,635.22,263.65,635.22 C263.77,635.22,263.88,635.29,263.91,635.35 C263.95,635.42,264.01,635.65,264.04,635.79 C264.09,635.93,264.16,636.26,264.2,636.43 C264.24,636.59,264.29,636.75,264.32,636.9 C264.4,637.18,264.41,637.25,264.62,637.53 C264.8,637.81,265.15,638.18,265.66,638.18 C266.07,638.18,266.09,637.82,266.09,637.68 C266.09,637.26,265.77,636.48,265.66,636.18 C265.59,636,265.57,635.93,265.57,635.81 C265.57,635.43,265.87,635.22,266.23,635.22 C266.93,635.22,267.24,636.18,267.24,636.28 C267.24,636.37,267.15,636.37,267.13,636.37 C267.04,636.37,267.02,636.32,266.99,636.26 C266.84,635.7,266.54,635.4,266.26,635.4 C266.1,635.4,266.07,635.5,266.07,635.65 C266.07,635.81,266.12,635.9,266.24,636.22 C266.32,636.43,266.62,637.18,266.62,637.57 C266.62,638.26,266.07,638.37,265.7,638.37 C265.12,638.37,264.73,638.01,264.51,637.73 C264.46,638.23,264.04,638.37,263.76,638.37 C263.46,638.37,263.29,638.15,263.2,638 C263.04,637.73,262.95,637.34,262.95,637.31 C262.95,637.22,263.04,637.22,263.07,637.22 C263.16,637.22,263.18,637.23,263.23,637.42 C263.32,637.84,263.46,638.18,263.74,638.18 C263.91,638.18,263.96,638.03,263.96,637.84 C263.96,637.7,263.9,637.45,263.85,637.25 C263.8,637.06,263.74,636.78,263.7,636.62 Z " />
<path
   id="path5280"
   fill="black"
   stroke-width="0"
   d="M274.01,636.87 L273.93,636.81 L273.85,636.75 L273.78,636.68 L273.71,636.61 L273.65,636.55 L273.59,636.48 L273.53,636.41 L273.48,636.35 L273.43,636.28 L273.39,636.21 L273.34,636.15 L273.3,636.08 L273.27,636.02 L273.24,635.96 L273.21,635.9 L273.18,635.84 L273.15,635.78 L273.13,635.72 L273.11,635.67 L273.09,635.62 L273.08,635.57 L273.06,635.53 L273.05,635.49 L273.04,635.45 L273.03,635.41 L273.03,635.38 L273.02,635.36 L273.02,635.33 L273.02,635.32 L273.01,635.3 L273.01,635.3 L273.01,635.29 C273.01,635.18,273.07,635.18,273.17,635.18 C273.29,635.18,273.32,635.18,273.36,635.31 C273.4,635.48,273.51,635.93,273.87,636.32 C274.28,636.75,274.64,636.85,274.93,636.95 C274.98,636.97,275,637,275,637.03 C275,637.1,274.96,637.12,274.87,637.15 C273.86,637.47,273.5,638.18,273.36,638.81 C273.32,638.89,273.28,638.89,273.17,638.89 C273.07,638.89,273.01,638.89,273.01,638.79 C273.01,638.78,273.07,638.29,273.42,637.81 C273.57,637.57,273.78,637.39,274.01,637.22 H268.37 C268.25,637.22,268.09,637.22,268.09,637.04 C268.09,636.87,268.25,636.87,268.37,636.87 Z " />
<path
   id="path5282"
   fill="black"
   stroke-width="0"
   d="M279.55,637.2 L279.51,637.24 L279.48,637.28 L279.45,637.31 L279.42,637.35 L279.39,637.38 L279.36,637.41 L279.33,637.45 L279.31,637.47 L279.28,637.5 L279.26,637.53 L279.24,637.55 L279.22,637.58 L279.19,637.6 L279.17,637.63 L279.15,637.65 L279.13,637.67 L279.11,637.69 L279.09,637.71 L279.05,637.75 L279.01,637.78 L278.97,637.81 L278.93,637.85 L278.89,637.88 L278.87,637.9 L278.85,637.91 L278.82,637.93 L278.8,637.95 C278.36,638.26,277.92,638.37,277.53,638.37 C276.66,638.37,276.03,637.64,276.03,636.79 H276.22 C276.22,637.47,276.77,638,277.42,638 C278.08,638,278.52,637.45,279.2,636.64 H279.2 C278.92,636.18,278.3,635.48,277.45,635.48 C276.72,635.48,276.22,636.12,276.22,636.79 H276.03 C276.03,635.97,276.62,635.22,277.52,635.22 C278.48,635.22,279.17,636.01,279.42,636.39 C279.8,635.95,279.91,635.82,280.17,635.64 C280.61,635.32,281.05,635.22,281.44,635.22 C282.31,635.22,282.94,635.95,282.94,636.79 H282.75 C282.75,636.12,282.2,635.59,281.55,635.59 C280.89,635.59,280.45,636.12,279.77,636.95 H279.77 C280.05,637.4,280.67,638.1,281.52,638.1 C282.25,638.1,282.75,637.47,282.75,636.79 H282.94 C282.94,637.62,282.34,638.37,281.45,638.37 C280.48,638.37,279.8,637.57,279.55,637.2 Z " />
<path
   id="path5284"
   fill="black"
   stroke-width="0"
   d="M292.04,631.97 L292.04,631.98 L292.04,631.98 L292.04,631.98 L292.04,631.98 L292.04,631.99 L292.04,631.99 L292.04,631.99 L292.04,631.99 L292.04,632 L292.04,632 L292.04,632 L292.04,632 L292.04,632.01 L292.03,632.01 L292.03,632.01 L292.03,632.01 L292.03,632.01 L292.03,632.02 L292.03,632.02 L292.02,632.02 L292.02,632.02 L292.02,632.03 L292.02,632.03 L292.02,632.03 L292.01,632.03 L292.01,632.03 L292.01,632.04 L292.01,632.04 L292,632.04 L292,632.05 L292,632.05 L292,632.05 C291.64,632.43,290.96,633.08,290.31,634.16 C288.7,636.72,287.98,639.96,287.98,643.78 C287.98,646.46,288.34,649.9,289.98,652.86 C290.76,654.27,291.57,655.08,292.01,655.52 C292.04,655.55,292.04,655.57,292.04,655.6 C292.04,655.69,291.98,655.69,291.84,655.69 C291.7,655.69,291.68,655.69,291.53,655.55 C288.2,652.52,287.15,647.97,287.15,643.78 C287.15,639.88,288.04,635.96,290.57,632.97 C290.78,632.75,291.15,632.35,291.56,631.99 C291.68,631.86,291.7,631.86,291.84,631.86 C291.98,631.86,292.04,631.86,292.04,631.97 Z " />
<path
   id="path5286"
   fill="black"
   stroke-width="0"
   d="M295.34,647.61 L295.34,647.62 L295.34,647.63 L295.34,647.64 L295.34,647.65 L295.34,647.66 L295.34,647.67 L295.34,647.68 L295.34,647.69 L295.34,647.7 L295.34,647.71 L295.34,647.72 L295.34,647.72 L295.34,647.73 L295.34,647.74 L295.34,647.74 L295.34,647.75 L295.34,647.76 L295.34,647.76 L295.34,647.78 L295.33,647.79 L295.33,647.8 L295.33,647.8 L295.32,647.81 L295.32,647.82 L295.31,647.83 L295.31,647.83 L295.3,647.84 L295.29,647.84 L295.29,647.85 L295.28,647.85 L295.28,647.85 L295.27,647.85 L295.27,647.85 L295.26,647.85 L295.26,647.85 L295.25,647.86 L295.24,647.86 L295.24,647.86 L295.23,647.86 L295.23,647.86 L295.22,647.86 L295.21,647.86 L295.2,647.86 L295.19,647.86 L295.19,647.86 L295.18,647.86 L295.17,647.86 L295.16,647.86 L295.15,647.86 L295.14,647.86 L295.13,647.86 L295.12,647.86 L295.11,647.86 C294.5,647.24,293.62,647.24,293.31,647.24 V646.93 C293.5,646.93,294.09,646.93,294.61,647.19 V642.03 C294.61,641.68,294.58,641.57,293.69,641.57 H293.36 V641.25 C293.72,641.28,294.58,641.28,294.97,641.28 C295.38,641.28,296.23,641.28,296.58,641.25 V641.57 H296.27 C295.38,641.57,295.34,641.68,295.34,642.03 Z " />
<path
   id="path5288"
   fill="black"
   stroke-width="0"
   d="M303.68,643.53 H306.44 C306.58,643.53,306.77,643.53,306.77,643.74 C306.77,643.94,306.58,643.94,306.44,643.94 H303.68 V646.72 C303.68,646.86,303.68,647.05,303.47,647.05 C303.29,647.05,303.29,646.86,303.29,646.72 V643.94 H300.5 C300.36,643.94,300.18,643.94,300.18,643.74 C300.18,643.53,300.36,643.53,300.5,643.53 H303.29 V640.75 C303.29,640.61,303.29,640.43,303.47,640.43 C303.68,640.43,303.68,640.61,303.68,640.75 Z " />
<path
   id="path5290"
   fill="black"
   stroke-width="0"
   d="M314.2,654.35 L314.2,654.36 L314.2,654.37 L314.19,654.38 L314.19,654.39 L314.19,654.4 L314.19,654.41 L314.19,654.42 L314.19,654.43 L314.19,654.44 L314.19,654.45 L314.19,654.45 L314.19,654.46 L314.19,654.47 L314.19,654.48 L314.19,654.48 L314.19,654.49 L314.19,654.5 L314.19,654.5 L314.19,654.51 L314.19,654.52 L314.18,654.53 L314.18,654.54 L314.18,654.55 L314.17,654.56 L314.17,654.56 L314.16,654.57 L314.15,654.58 L314.15,654.58 L314.14,654.58 L314.13,654.59 L314.13,654.59 L314.12,654.59 L314.12,654.59 L314.11,654.59 L314.11,654.59 L314.1,654.59 L314.1,654.6 L314.09,654.6 L314.08,654.6 L314.08,654.6 L314.07,654.6 L314.06,654.6 L314.05,654.6 L314.05,654.6 L314.04,654.6 L314.03,654.6 L314.02,654.6 L314.01,654.6 L314,654.6 L313.99,654.6 L313.98,654.6 L313.97,654.6 L313.96,654.6 C313.35,653.98,312.48,653.98,312.16,653.98 V653.66 C312.35,653.66,312.95,653.66,313.46,653.93 V648.77 C313.46,648.41,313.43,648.3,312.54,648.3 H312.21 V647.99 C312.57,648.02,313.43,648.02,313.82,648.02 C314.23,648.02,315.09,648.02,315.43,647.99 V648.3 H315.12 C314.23,648.3,314.2,648.41,314.2,648.77 Z " />
<line
   id="line5292"
   stroke-width="0.398"
   y2="643.74"
   x2="316.75"
   y1="643.74"
   x1="310.77" />
<path
   id="path5294"
   fill="black"
   stroke-width="0"
   d="M311.65,635.02 L311.65,635 L311.64,634.99 L311.64,634.97 L311.64,634.95 L311.63,634.92 L311.62,634.89 L311.61,634.85 L311.6,634.82 L311.6,634.79 L311.59,634.76 L311.59,634.74 L311.58,634.72 L311.58,634.71 L311.58,634.7 L311.57,634.68 L311.57,634.67 L311.57,634.66 L311.57,634.64 L311.56,634.63 L311.56,634.62 L311.56,634.61 L311.56,634.6 L311.56,634.6 L311.56,634.59 L311.56,634.58 L311.55,634.58 C311.55,634.41,311.7,634.31,311.85,634.31 C311.96,634.31,312.15,634.39,312.21,634.59 C312.23,634.61,312.34,635.08,312.4,635.33 L312.62,636.22 C312.68,636.44,312.74,636.66,312.79,636.89 C312.84,637.05,312.91,637.34,312.91,637.38 C313.07,637.69,313.6,638.59,314.54,638.59 C314.99,638.59,315.07,638.22,315.07,637.91 C315.07,637.28,314.59,636.02,314.43,635.58 C314.34,635.36,314.34,635.23,314.34,635.12 C314.34,634.66,314.68,634.31,315.15,634.31 C316.07,634.31,316.45,635.77,316.45,635.84 C316.45,635.94,316.35,635.94,316.32,635.94 C316.23,635.94,316.23,635.91,316.18,635.77 C315.98,635.09,315.65,634.53,315.16,634.53 C314.99,634.53,314.93,634.62,314.93,634.86 C314.93,635.11,315.01,635.34,315.1,635.56 C315.29,636.09,315.71,637.19,315.71,637.75 C315.71,638.42,315.29,638.81,314.57,638.81 C313.68,638.81,313.18,638.17,313.02,637.95 C312.98,638.5,312.55,638.81,312.1,638.81 C311.65,638.81,311.46,638.42,311.37,638.25 C311.2,637.91,311.05,637.33,311.05,637.28 C311.05,637.19,311.16,637.19,311.18,637.19 C311.27,637.19,311.29,637.19,311.35,637.41 C311.52,638.12,311.71,638.59,312.07,638.59 C312.27,638.59,312.38,638.47,312.38,638.14 C312.38,637.92,312.35,637.81,312.23,637.3 Z " />
<path
   id="path5296"
   fill="black"
   stroke-width="0"
   d="M323.18,643.78 L323.17,644.51 L323.14,645.24 L323.09,645.97 L323.01,646.7 L322.9,647.42 L322.77,648.13 L322.61,648.83 L322.42,649.53 L322.2,650.21 L322.08,650.55 L321.96,650.89 L321.82,651.22 L321.68,651.55 L321.53,651.87 L321.36,652.19 L321.2,652.51 L321.02,652.82 L320.83,653.12 L320.64,653.43 L320.43,653.72 L320.22,654.01 L319.99,654.3 L319.76,654.58 C319.57,654.82,319.18,655.22,318.78,655.58 C318.67,655.69,318.65,655.69,318.51,655.69 C318.39,655.69,318.29,655.69,318.29,655.6 C318.29,655.57,318.34,655.52,318.36,655.5 C318.7,655.15,319.37,654.47,320.04,653.41 C321.64,650.85,322.36,647.61,322.36,643.78 C322.36,641.11,322,637.68,320.36,634.71 C319.57,633.3,318.75,632.47,318.34,632.05 C318.32,632.02,318.29,632,318.29,631.97 C318.29,631.86,318.39,631.86,318.51,631.86 C318.65,631.86,318.67,631.86,318.81,632.02 C322.14,635.05,323.18,639.6,323.18,643.78 Z " />
<path
   id="path5298"
   fill="black"
   stroke-width="0"
   d="M326.14,653.67 L326.14,653.66 L326.14,653.65 L326.14,653.64 L326.13,653.63 L326.13,653.62 L326.13,653.61 L326.12,653.59 L326.11,653.57 L326.11,653.55 L326.1,653.52 L326.1,653.51 L326.09,653.5 L326.09,653.49 L326.09,653.48 L326.09,653.47 L326.08,653.46 L326.08,653.45 L326.08,653.44 L326.08,653.44 L326.07,653.43 L326.07,653.42 L326.07,653.41 L326.07,653.41 L326.07,653.4 L326.07,653.4 L326.07,653.4 L326.07,653.39 L326.07,653.39 L326.07,653.39 L326.07,653.39 C326.07,653.23,326.19,653.17,326.32,653.17 C326.44,653.17,326.55,653.25,326.58,653.31 C326.61,653.38,326.68,653.61,326.71,653.75 C326.75,653.89,326.83,654.22,326.86,654.39 C326.91,654.55,326.96,654.7,326.99,654.86 C327.07,655.14,327.08,655.2,327.29,655.48 C327.47,655.77,327.82,656.14,328.33,656.14 C328.74,656.14,328.75,655.78,328.75,655.64 C328.75,655.22,328.44,654.44,328.33,654.14 C328.25,653.95,328.24,653.89,328.24,653.77 C328.24,653.39,328.54,653.17,328.89,653.17 C329.6,653.17,329.91,654.14,329.91,654.23 C329.91,654.33,329.82,654.33,329.8,654.33 C329.71,654.33,329.69,654.28,329.66,654.22 C329.5,653.66,329.21,653.36,328.93,653.36 C328.77,653.36,328.74,653.45,328.74,653.61 C328.74,653.77,328.79,653.86,328.91,654.17 C328.99,654.39,329.29,655.14,329.29,655.53 C329.29,656.22,328.74,656.33,328.36,656.33 C327.79,656.33,327.39,655.97,327.18,655.69 C327.13,656.19,326.71,656.33,326.43,656.33 C326.13,656.33,325.96,656.11,325.86,655.95 C325.71,655.69,325.61,655.3,325.61,655.27 C325.61,655.17,325.71,655.17,325.74,655.17 C325.83,655.17,325.85,655.19,325.89,655.38 C325.99,655.8,326.13,656.14,326.41,656.14 C326.58,656.14,326.63,655.98,326.63,655.8 C326.63,655.66,326.57,655.41,326.52,655.2 C326.47,655.02,326.41,654.73,326.36,654.58 Z " />
<path
   id="path5300"
   fill="black"
   stroke-width="0"
   d="M340.3,644.5 L340.33,644.5 L340.36,644.5 L340.39,644.51 L340.4,644.51 L340.42,644.51 L340.43,644.51 L340.44,644.51 L340.46,644.51 L340.47,644.51 L340.48,644.52 L340.5,644.52 L340.51,644.52 L340.52,644.53 L340.53,644.53 L340.54,644.54 L340.56,644.55 L340.57,644.55 L340.58,644.56 L340.59,644.57 L340.59,644.58 L340.6,644.58 L340.6,644.59 L340.61,644.6 L340.61,644.6 L340.61,644.61 L340.61,644.61 L340.62,644.62 L340.62,644.63 L340.62,644.63 L340.62,644.64 L340.63,644.65 L340.63,644.66 L340.63,644.66 L340.63,644.67 L340.63,644.68 L340.63,644.69 L340.63,644.7 L340.63,644.71 C340.63,644.9,340.45,644.9,340.3,644.9 H334.37 C334.23,644.9,334.04,644.9,334.04,644.71 C334.04,644.5,334.23,644.5,334.37,644.5 Z " />
<path
   id="path5302"
   fill="black"
   stroke-width="0"
   d="M340.3,642.58 L340.33,642.58 L340.36,642.58 L340.39,642.58 L340.42,642.58 L340.43,642.59 L340.44,642.59 L340.46,642.59 L340.47,642.59 L340.48,642.59 L340.5,642.6 L340.51,642.6 L340.52,642.61 L340.53,642.61 L340.54,642.62 L340.56,642.62 L340.57,642.63 L340.58,642.64 L340.59,642.64 L340.59,642.65 L340.6,642.66 L340.61,642.67 L340.61,642.67 L340.61,642.68 L340.61,642.68 L340.62,642.69 L340.62,642.69 L340.62,642.7 L340.62,642.71 L340.63,642.71 L340.63,642.72 L340.63,642.73 L340.63,642.74 L340.63,642.74 L340.63,642.75 L340.63,642.76 L340.63,642.77 C340.63,642.97,340.45,642.97,340.3,642.97 H334.37 C334.23,642.97,334.04,642.97,334.04,642.77 C334.04,642.58,334.23,642.58,334.37,642.58 Z " />
<path
   id="path5304"
   fill="black"
   stroke-width="0"
   d="M345.85,643.55 L345.88,643.55 L345.91,643.55 L345.94,643.55 L345.98,643.55 L346.01,643.55 L346.05,643.55 L346.09,643.55 L346.14,643.56 L346.18,643.56 L346.23,643.56 L346.27,643.56 L346.32,643.57 L346.37,643.57 L346.42,643.57 L346.53,643.58 L346.63,643.6 L346.74,643.61 L346.85,643.63 L346.96,643.65 L347.07,643.67 L347.12,643.69 L347.17,643.7 L347.22,643.72 L347.27,643.73 L347.32,643.75 L347.37,643.77 C348.07,644.08,348.12,644.66,348.12,644.8 C348.12,645.24,347.74,645.65,347.05,645.65 V645.43 C347.52,645.43,347.79,645.15,347.79,644.8 C347.79,643.77,346.2,643.77,345.79,643.77 H345.38 C345.77,645.27,346.79,645.43,347.05,645.43 V645.65 C345.95,645.65,344.45,644.68,344.45,642.94 C344.45,641.93,345.04,641.15,346.01,641.15 C347.43,641.15,348.26,642.19,348.26,642.32 C348.26,642.38,348.21,642.44,348.15,642.44 C348.1,642.44,348.07,642.43,348.01,642.35 C347.23,641.36,346.15,641.36,346.02,641.36 C345.26,641.36,345.16,642.19,345.16,642.52 C345.16,642.63,345.18,642.94,345.32,643.55 Z " />
</g>  </g>
</svg>
