<?xml version="1.0" encoding="UTF-8" standalone="no"?>
<svg
   xmlns:ns4="http://www.iki.fi/pav/software/textext/"
   xmlns:dc="http://purl.org/dc/elements/1.1/"
   xmlns:cc="http://creativecommons.org/ns#"
   xmlns:rdf="http://www.w3.org/1999/02/22-rdf-syntax-ns#"
   xmlns:svg="http://www.w3.org/2000/svg"
   xmlns="http://www.w3.org/2000/svg"
   xmlns:sodipodi="http://sodipodi.sourceforge.net/DTD/sodipodi-0.dtd"
   xmlns:inkscape="http://www.inkscape.org/namespaces/inkscape"
   width="210mm"
   height="297mm"
   viewBox="0 0 210 297"
   version="1.1"
   id="svg8"
   inkscape:version="1.0 (1.0+r73+1)"
   sodipodi:docname="modified.svg">
  <defs
     id="defs2" />
  <sodipodi:namedview
     id="base"
     pagecolor="#ffffff"
     bordercolor="#666666"
     borderopacity="1.0"
     inkscape:pageopacity="0.0"
     inkscape:pageshadow="2"
     inkscape:zoom="3.6212098"
     inkscape:cx="400.00159"
     inkscape:cy="559.99854"
     inkscape:document-units="mm"
     inkscape:current-layer="layer1"
     inkscape:document-rotation="0"
     showgrid="false"
     inkscape:window-width="1683"
     inkscape:window-height="890"
     inkscape:window-x="101"
     inkscape:window-y="40"
     inkscape:window-maximized="0" />
  <metadata
     id="metadata5">
    <rdf:RDF>
      <cc:Work
         rdf:about="">
        <dc:format>image/svg+xml</dc:format>
        <dc:type
           rdf:resource="http://purl.org/dc/dcmitype/StillImage" />
        <dc:title />
      </cc:Work>
    </rdf:RDF>
  </metadata>
  <g
     inkscape:label="Ebene 1"
     inkscape:groupmode="layer"
     id="layer1">
    <g
       transform="matrix(0.352778 0 0 0.352778 74.468 146.871)"
       ns4:version="1.0.0"
       ns4:texconverter="pdflatex"
       ns4:pdfconverter="inkscape"
       ns4:text="\u0418\u043b\u044c\u044e\u0448\u0438\u043d \u0418\u043b-62 - \u044d\u043b\u0435\u0433\u0430\u043d\u0442\u043d\u044b\u0439 \u0441\u0430\u043c\u043e\u043b\u0435\u0442!"
       ns4:preamble="utf8_cyrillic_packages.tex"
       ns4:scale="1.0"
       ns4:alignment="middle center"
       ns4:inkscapeversion="1.0"
       ns4:jacobian_sqrt="0.352778"
       id="content">
      <defs
         id="id-860abb67-978b-40de-9b7e-c6513bacae37">
        <g
           id="id-6c24e71c-84ea-4715-9617-27ec6a31c869">
          <symbol
             id="id-f005b54b-2a60-4c84-b19d-eaca56934b25"
             overflow="visible">
            <path
               id="id-8b368724-7c14-44a7-8d80-43b3bfe9289f"
               d=""
               style="stroke:none" />
          </symbol>
          <symbol
             id="id-409c93f7-7583-459c-8cf4-8d55f08b9632"
             overflow="visible">
            <path
               id="id-8db8d786-b2ff-4366-b39a-f5318a9153fc"
               d="m 0.328125,-6.8125 v 0.296875 c 0.125,0 0.265625,0 0.375,0 0.359375,0 0.65625,0.046875 0.65625,0.4375 V -0.75 c 0,0.375 -0.328125,0.4375 -0.671875,0.4375 -0.125,0 -0.25,0 -0.359375,0 v 0.296875 h 2.9375 V -0.3125 h -0.3125 C 2.640625,-0.3125 2.3125,-0.34375 2.25,-0.578125 V -0.625 c 0,-0.109375 0.125,-0.234375 0.1875,-0.328125 C 3.3125,-2.359375 4.234375,-3.78125 5.15625,-5.15625 5.28125,-5.328125 5.390625,-5.5 5.5,-5.671875 v 4.9375 c 0,0.375 -0.34375,0.421875 -0.671875,0.421875 -0.125,0 -0.25,0 -0.359375,0 v 0.296875 H 7.421875 V -0.3125 c -0.125,0 -0.25,0 -0.375,0 -0.34375,0 -0.65625,-0.046875 -0.65625,-0.4375 v -5.328125 c 0,-0.375 0.3125,-0.4375 0.65625,-0.4375 0.125,0 0.265625,0 0.375,0 V -6.8125 H 4.46875 v 0.296875 h 0.328125 c 0.3125,0 0.640625,0.03125 0.703125,0.265625 v 0.046875 C 5.5,-6.09375 5.375,-5.96875 5.3125,-5.875 4.421875,-4.46875 3.515625,-3.046875 2.578125,-1.671875 2.46875,-1.5 2.359375,-1.328125 2.25,-1.15625 v -4.9375 c 0,-0.375 0.328125,-0.421875 0.671875,-0.421875 0.125,0 0.234375,0 0.34375,0 V -6.8125 Z m 0,0"
               style="stroke:none" />
          </symbol>
          <symbol
             id="id-477a499f-9386-4e45-ac37-eb664963cc15"
             overflow="visible">
            <path
               id="id-b2a04a9b-8b2a-4c62-b8a0-a1b728d2be83"
               d="m 1.171875,-4.296875 v 0.21875 h 0.21875 c 0.3125,0 0.59375,0.046875 0.59375,0.453125 0,0.75 -0.03125,1.578125 -0.1875,2.3125 -0.09375,0.484375 -0.21875,1.21875 -0.8125,1.21875 -0.15625,0 -0.265625,-0.0625 -0.390625,-0.140625 0.25,-0.03125 0.4375,-0.171875 0.4375,-0.421875 0,-0.234375 -0.1875,-0.421875 -0.4375,-0.421875 -0.234375,0 -0.40625,0.171875 -0.40625,0.453125 0,0.453125 0.359375,0.78125 0.796875,0.78125 0.6875,0 0.921875,-0.71875 1.046875,-1.265625 0.15625,-0.75 0.203125,-1.546875 0.203125,-2.3125 V -3.625 C 2.234375,-3.84375 2.25,-4.046875 2.5,-4.078125 h 0.953125 c 0.25,0 0.34375,0.109375 0.34375,0.359375 v 3.03125 c 0,0.421875 -0.203125,0.453125 -0.78125,0.453125 v 0.21875 H 5.28125 v -0.21875 H 5.046875 C 4.765625,-0.234375 4.5,-0.265625 4.5,-0.671875 V -3.625 c 0,-0.421875 0.25,-0.453125 0.78125,-0.453125 v -0.21875 z m 0,0"
               style="stroke:none" />
          </symbol>
          <symbol
             id="id-1710041a-eba0-4459-8af8-81cf8502e857"
             overflow="visible">
            <path
               id="id-b9328a87-898d-419a-894d-904206e7e6ff"
               d="m 0.265625,-4.296875 v 0.21875 h 0.21875 c 0.296875,0 0.546875,0.046875 0.546875,0.453125 v 2.953125 c 0,0.421875 -0.265625,0.4375 -0.765625,0.4375 v 0.21875 H 3.03125 c 0.703125,-0.03125 1.609375,-0.4375 1.609375,-1.234375 0,-0.75 -0.875,-1.21875 -1.578125,-1.21875 H 1.734375 v -1.1875 c 0,-0.34375 0.171875,-0.421875 0.78125,-0.421875 v -0.21875 z m 1.46875,2.03125 H 2.625 c 0.578125,0 1.1875,0.375 1.1875,1.015625 v 0.03125 c 0,0.46875 -0.453125,0.859375 -0.875,0.9375 -0.15625,0.015625 -0.3125,0.015625 -0.453125,0.015625 H 1.953125 C 1.75,-0.265625 1.734375,-0.46875 1.734375,-0.625 Z m 0,0"
               style="stroke:none" />
          </symbol>
          <symbol
             id="id-1f00056f-e43e-4a40-acfe-6cfd237cd6e3"
             overflow="visible">
            <path
               id="id-edec048c-870f-4e43-93d0-911b8563bf0c"
               d="m 1.734375,-2.46875 v -1.1875 c 0,-0.34375 0.171875,-0.421875 0.78125,-0.421875 v -0.21875 h -2.25 v 0.21875 h 0.21875 c 0.296875,0 0.546875,0.046875 0.546875,0.453125 v 2.953125 c 0,0.421875 -0.265625,0.4375 -0.765625,0.4375 v 0.21875 h 2.25 v -0.21875 h -0.25 c -0.28125,0 -0.546875,-0.03125 -0.546875,-0.4375 0,-0.078125 0.015625,-0.15625 0.015625,-0.21875 v -1.375 h 1.03125 c 0,1.125 0.734375,2.359375 2.171875,2.359375 1.15625,0 2.25,-0.90625 2.25,-2.234375 0,-1.171875 -0.890625,-2.328125 -2.234375,-2.328125 -1.078125,0 -1.9375,0.875 -2.140625,1.90625 -0.015625,0.0625 -0.046875,0.09375 -0.125,0.09375 z m 1.875,0.578125 v -0.4375 C 3.609375,-3.09375 3.84375,-4.25 4.96875,-4.25 c 0.8125,0 1.265625,0.6875 1.359375,1.4375 0.015625,0.21875 0.015625,0.4375 0.015625,0.65625 0,0.640625 -0.0625,1.453125 -0.703125,1.8125 C 5.4375,-0.203125 5.21875,-0.15625 5,-0.15625 4.265625,-0.15625 3.765625,-0.71875 3.65625,-1.5 3.625,-1.625 3.625,-1.765625 3.609375,-1.890625 Z m 0,0"
               style="stroke:none" />
          </symbol>
          <symbol
             id="id-0c4e48bf-a611-49d5-8b41-0defd2e24e49"
             overflow="visible">
            <path
               id="id-a49fa662-9e91-489c-8c94-b75da5c68b64"
               d="m 0.265625,-4.296875 v 0.21875 h 0.21875 c 0.296875,0 0.546875,0.046875 0.546875,0.453125 v 2.953125 c 0,0.421875 -0.265625,0.4375 -0.765625,0.4375 v 0.21875 H 7.75 v -0.21875 H 7.53125 c -0.296875,0 -0.546875,-0.03125 -0.546875,-0.453125 V -3.625 C 6.984375,-4.0625 7.25,-4.078125 7.75,-4.078125 v -0.21875 H 5.5 v 0.21875 h 0.234375 c 0.28125,0 0.546875,0.046875 0.546875,0.453125 v 3.015625 c 0,0.25 -0.078125,0.375 -0.34375,0.375 H 5.796875 c -0.328125,0 -0.6875,0.03125 -1.015625,0.03125 -0.21875,0 -0.421875,-0.0625 -0.421875,-0.390625 v -3.0625 c 0,-0.34375 0.203125,-0.421875 0.78125,-0.421875 v -0.21875 H 2.875 v 0.21875 h 0.234375 c 0.28125,0 0.546875,0.046875 0.546875,0.453125 v 3.015625 c 0,0.25 -0.0625,0.375 -0.34375,0.375 H 3.171875 c -0.328125,0 -0.671875,0.03125 -1.015625,0.03125 -0.21875,0 -0.421875,-0.0625 -0.421875,-0.390625 v -3.0625 c 0,-0.34375 0.203125,-0.421875 0.78125,-0.421875 v -0.21875 z m 0,0"
               style="stroke:none" />
          </symbol>
          <symbol
             id="id-d8d8c1f5-ec0b-49e6-940f-caf70adc7cca"
             overflow="visible">
            <path
               id="id-21bbdd76-d2dc-4e5a-bc98-0880c1d0881c"
               d="m 0.25,-4.296875 v 0.21875 h 0.234375 c 0.28125,0 0.546875,0.046875 0.546875,0.453125 v 2.953125 c 0,0.421875 -0.28125,0.4375 -0.78125,0.4375 v 0.21875 H 2.5 v -0.21875 H 2.328125 C 2.03125,-0.234375 1.71875,-0.265625 1.71875,-0.625 1.734375,-0.71875 1.828125,-0.78125 1.875,-0.859375 L 2.265625,-1.34375 C 2.78125,-1.96875 3.25,-2.65625 3.796875,-3.25 v 2.578125 c 0,0.34375 -0.140625,0.4375 -0.78125,0.4375 v 0.21875 H 5.28125 v -0.21875 H 5.046875 C 4.765625,-0.234375 4.5,-0.265625 4.5,-0.671875 V -3.625 c 0,-0.421875 0.25,-0.453125 0.78125,-0.453125 v -0.21875 H 3.015625 v 0.21875 h 0.1875 c 0.28125,0 0.59375,0.03125 0.59375,0.40625 -0.015625,0.078125 -0.09375,0.15625 -0.140625,0.21875 l -0.390625,0.5 c -0.53125,0.625 -1,1.296875 -1.546875,1.890625 v -2.578125 c 0,-0.34375 0.140625,-0.4375 0.78125,-0.4375 v -0.21875 z m 0,0"
               style="stroke:none" />
          </symbol>
          <symbol
             id="id-aa70a945-11e6-480a-aa0d-d0a1cd25f9b5"
             overflow="visible">
            <path
               id="id-b56b1753-d519-4c36-be48-5c85799b4c68"
               d="m 0.25,-4.296875 v 0.21875 h 0.234375 c 0.28125,0 0.546875,0.046875 0.546875,0.453125 v 2.953125 c 0,0.421875 -0.28125,0.4375 -0.78125,0.4375 v 0.21875 H 2.5 v -0.21875 H 2.265625 c -0.296875,0 -0.546875,-0.03125 -0.546875,-0.4375 0,-0.078125 0,-0.15625 0,-0.21875 v -1.375 h 2.078125 v 1.375 c 0,0.0625 0.015625,0.140625 0.015625,0.21875 0,0.4375 -0.328125,0.4375 -0.796875,0.4375 v 0.21875 H 5.28125 v -0.21875 H 5.046875 C 4.765625,-0.234375 4.5,-0.265625 4.5,-0.671875 V -3.625 c 0,-0.421875 0.25,-0.453125 0.78125,-0.453125 v -0.21875 H 3.015625 v 0.21875 h 0.21875 c 0.28125,0 0.5625,0.046875 0.5625,0.421875 v 1.1875 H 1.71875 v -1.1875 c 0,-0.328125 0.125,-0.421875 0.78125,-0.421875 v -0.21875 z m 0,0"
               style="stroke:none" />
          </symbol>
          <symbol
             id="id-7f451a83-63e2-45d7-a0cb-ec57d71ba853"
             overflow="visible">
            <path
               id="id-c29ab533-6711-4f86-8808-0118c35fd0be"
               d="m 0.109375,-2.4375 v 0.578125 h 2.65625 V -2.4375 Z m 0,0"
               style="stroke:none" />
          </symbol>
          <symbol
             id="id-a85269a6-1b89-42b1-848e-58b209f90c6e"
             overflow="visible">
            <path
               id="id-232333c8-2709-487a-89c2-9d143bb0322b"
               d="M 1.328125,-3.296875 H 1.3125 C 1.3125,-4.1875 1.359375,-5.203125 2,-5.890625 2.28125,-6.1875 2.640625,-6.40625 3.078125,-6.40625 3.40625,-6.40625 3.734375,-6.265625 3.9375,-6 3.90625,-6.015625 3.875,-6.015625 3.84375,-6.015625 c -0.265625,0 -0.453125,0.203125 -0.453125,0.46875 0,0.25 0.203125,0.453125 0.453125,0.453125 0.265625,0 0.46875,-0.1875 0.46875,-0.515625 0,-0.734375 -0.6875,-1.046875 -1.28125,-1.046875 -1.671875,0 -2.609375,1.890625 -2.609375,3.390625 0,1.375 0.28125,3.46875 2.125,3.46875 1.21875,0 2.015625,-1.125 2.015625,-2.25 C 4.5625,-3.09375 3.84375,-4.25 2.65625,-4.25 2.078125,-4.25 1.5,-3.953125 1.328125,-3.296875 Z m 0,1.171875 v -0.09375 c 0,-0.6875 0.25,-1.8125 1.234375,-1.8125 1.09375,0 1.09375,1.3125 1.09375,1.921875 v 0.1875 c 0,0.671875 -0.0625,1.859375 -1.140625,1.859375 -0.859375,0 -1.125,-0.96875 -1.171875,-1.75 0,-0.09375 0,-0.21875 -0.015625,-0.3125 z m 0,0"
               style="stroke:none" />
          </symbol>
          <symbol
             id="id-f0e565f1-9e29-45ed-9aa3-6625bd2fd799"
             overflow="visible">
            <path
               id="id-d0dd32b0-0865-4058-a4fe-49dad4c81b2a"
               d="M 0.890625,-5.328125 C 1.125,-5.828125 1.5,-6.34375 2.21875,-6.34375 c 0.9375,0 1.34375,0.859375 1.34375,1.640625 0,0.921875 -0.609375,1.671875 -1.1875,2.328125 -0.5625,0.671875 -1.171875,1.3125 -1.75,1.96875 C 0.53125,-0.3125 0.5,-0.265625 0.5,-0.125 v 0.109375 H 4.203125 L 4.46875,-1.75 H 4.234375 C 4.140625,-1.296875 4.203125,-0.796875 3.6875,-0.796875 H 3.296875 C 3,-0.78125 2.71875,-0.78125 2.421875,-0.78125 c -0.390625,0 -0.765625,0 -1.140625,0 l 0.6875,-0.671875 c 0.28125,-0.265625 0.546875,-0.53125 0.828125,-0.78125 0.734375,-0.65625 1.671875,-1.375 1.671875,-2.484375 0,-1.125 -0.953125,-1.9375 -2.078125,-1.9375 C 1.4375,-6.65625 0.5,-5.9375 0.5,-4.859375 c 0,0.25 0.09375,0.5625 0.515625,0.5625 0.296875,0 0.53125,-0.203125 0.53125,-0.515625 0,-0.265625 -0.203125,-0.515625 -0.515625,-0.515625 -0.046875,0 -0.09375,0 -0.140625,0 z m 0,0"
               style="stroke:none" />
          </symbol>
          <symbol
             id="id-bd989a0a-54fd-458d-bc75-f1f212dbfcaa"
             overflow="visible">
            <path
               id="id-1d3f3e83-4e92-4fa4-9193-46e5921e2edc"
               d="m 3.234375,-2.421875 c -0.140625,0.046875 -0.28125,0.0625 -0.4375,0.0625 -0.46875,0 -0.75,-0.28125 -1.21875,-0.28125 -0.296875,0 -0.796875,0.109375 -0.796875,0.296875 0,0.03125 0.015625,0.0625 0.0625,0.078125 H 0.875 c 0.046875,0 0.125,-0.03125 0.171875,-0.046875 H 1.09375 c 0.4375,0 0.75,0.375 1.203125,0.375 0.328125,0 0.65625,-0.140625 0.953125,-0.28125 0,0.796875 -0.203125,1.703125 -1.078125,2.015625 C 2.0625,-0.171875 1.9375,-0.15625 1.828125,-0.15625 H 1.75 C 1.203125,-0.203125 0.78125,-0.515625 0.5625,-1.078125 0.53125,-1.15625 0.53125,-1.296875 0.40625,-1.296875 c -0.0625,0 -0.09375,0.015625 -0.109375,0.0625 v 0.03125 c 0,0.125 0.046875,0.25 0.109375,0.359375 0.265625,0.609375 0.859375,0.9375 1.515625,0.9375 1.1875,0 2.171875,-0.984375 2.171875,-2.25 0,-1.0625 -0.671875,-2.046875 -1.8125,-2.28125 -0.109375,-0.015625 -0.234375,-0.03125 -0.34375,-0.03125 -0.34375,0 -0.6875,0.09375 -0.96875,0.25 C 0.921875,-4.1875 0.875,-4.140625 0.8125,-4.140625 H 0.796875 c -0.09375,0 -0.28125,-0.265625 -0.421875,-0.265625 -0.078125,0 -0.09375,0.078125 -0.09375,0.15625 v 0.703125 c 0,0.03125 -0.015625,0.078125 -0.015625,0.125 0,0.109375 0.03125,0.1875 0.140625,0.1875 0.140625,0 0.1875,-0.28125 0.265625,-0.375 C 0.953125,-4 1.4375,-4.21875 1.90625,-4.21875 h 0.0625 c 0.90625,0.109375 1.265625,1.046875 1.265625,1.796875 z m 0,0"
               style="stroke:none" />
          </symbol>
          <symbol
             id="id-7ef1e5ba-6430-4f09-9c8c-73f2533e7588"
             overflow="visible">
            <path
               id="id-102c0a2e-149b-4fb7-a8c1-85c556b87340"
               d="m 1.109375,-2.3125 h 2.875 c 0.109375,0 0.15625,-0.0625 0.15625,-0.1875 0,-1.046875 -0.640625,-1.96875 -1.765625,-1.96875 -1.21875,0 -2.09375,1.09375 -2.09375,2.28125 0,0.90625 0.5,1.734375 1.390625,2.125 0.21875,0.109375 0.484375,0.15625 0.734375,0.15625 H 2.4375 c 0.765625,0 1.40625,-0.421875 1.671875,-1.1875 C 4.125,-1.125 4.125,-1.171875 4.125,-1.203125 4.125,-1.265625 4.09375,-1.3125 4.015625,-1.3125 3.875,-1.3125 3.8125,-0.984375 3.75,-0.875 3.5,-0.4375 3.015625,-0.15625 2.5,-0.15625 c -0.359375,0 -0.6875,-0.203125 -0.953125,-0.46875 -0.40625,-0.46875 -0.4375,-1.109375 -0.4375,-1.6875 z M 1.125,-2.515625 C 1.125,-3.296875 1.53125,-4.25 2.359375,-4.25 H 2.40625 c 0.96875,0.09375 0.96875,1.125 1.0625,1.734375 z m 0,0"
               style="stroke:none" />
          </symbol>
          <symbol
             id="id-2dbefd70-31f5-49cc-8a1f-ffdf68e054a1"
             overflow="visible">
            <path
               id="id-e4fabed4-e7d7-4e91-85e2-4c429bd5e09e"
               d="m 0.25,-4.296875 v 0.21875 h 0.234375 c 0.28125,0 0.546875,0.046875 0.546875,0.453125 v 2.953125 c 0,0.421875 -0.28125,0.4375 -0.78125,0.4375 v 0.21875 h 2.4375 v -0.21875 H 2.390625 c -0.359375,0 -0.671875,-0.03125 -0.671875,-0.46875 V -3.71875 c 0,-0.203125 0.078125,-0.359375 0.3125,-0.359375 h 0.625 c 0.671875,0 1.203125,0.046875 1.265625,1.390625 h 0.25 L 4.0625,-4.296875 Z m 0,0"
               style="stroke:none" />
          </symbol>
          <symbol
             id="id-d3d13f85-4294-4705-a236-3f119c3417d2"
             overflow="visible">
            <path
               id="id-50187b6f-ecbf-466e-9dbd-884356d6a85c"
               d="m 1.109375,-3.796875 c 0.25,-0.3125 0.6875,-0.453125 1.0625,-0.453125 0.734375,0 1.0625,0.671875 1.0625,1.375 v 0.265625 c -1.140625,0 -2.828125,0.359375 -2.828125,1.65625 V -0.875 c 0.078125,0.78125 1.046875,0.96875 1.625,0.96875 0.5,0 1.15625,-0.328125 1.28125,-0.84375 0.0625,0.4375 0.34375,0.796875 0.78125,0.796875 0.40625,0 0.765625,-0.328125 0.828125,-0.78125 v -0.71875 h -0.25 v 0.5 c 0,0.28125 -0.0625,0.6875 -0.359375,0.6875 -0.328125,0 -0.375,-0.390625 -0.375,-0.65625 V -2.59375 c 0,-0.125 0.015625,-0.25 0.015625,-0.375 0,-0.96875 -0.90625,-1.5 -1.734375,-1.5 -0.640625,0 -1.515625,0.3125 -1.515625,1.109375 0,0.28125 0.203125,0.484375 0.46875,0.484375 0.28125,0 0.4375,-0.21875 0.4375,-0.46875 0,-0.28125 -0.21875,-0.453125 -0.5,-0.453125 z m 2.125,1.390625 v 1.015625 c 0,0.6875 -0.46875,1.234375 -1.125,1.265625 H 2.078125 C 1.609375,-0.125 1.1875,-0.484375 1.1875,-0.96875 V -1.015625 C 1.25,-2.03125 2.375,-2.375 3.234375,-2.40625 Z m 0,0"
               style="stroke:none" />
          </symbol>
          <symbol
             id="id-402bdd58-94ab-4360-9af3-c2c293b7e4da"
             overflow="visible">
            <path
               id="id-51a58a0f-c20e-4e3a-a160-5ba30bab33cd"
               d="M 0.359375,-4.296875 0.25,-2.6875 H 0.5 c 0.015625,-0.375 0.03125,-0.875 0.234375,-1.125 C 0.921875,-4.03125 1.25,-4.078125 1.53125,-4.078125 h 0.1875 c 0.234375,0 0.421875,0.015625 0.421875,0.375 v 2.96875 c 0,0.453125 -0.375,0.515625 -0.75,0.515625 -0.109375,0 -0.25,-0.015625 -0.359375,-0.015625 v 0.21875 h 2.890625 v -0.21875 c -0.125,0 -0.25,0.015625 -0.375,0.015625 -0.375,0 -0.71875,-0.0625 -0.71875,-0.515625 v -2.96875 c 0,-0.203125 0,-0.375 0.421875,-0.375 h 0.1875 c 0.625,0 0.984375,0.203125 1.03125,1.390625 h 0.25 L 4.609375,-4.296875 Z m 0,0"
               style="stroke:none" />
          </symbol>
          <symbol
             id="id-ca45a2b8-abc6-40c3-be68-3998d1ce69dd"
             overflow="visible">
            <path
               id="id-a188e9ba-ab1c-473e-b016-14bef3b94729"
               d="m 0.265625,-4.296875 v 0.21875 h 0.21875 c 0.296875,0 0.546875,0.046875 0.546875,0.453125 v 2.953125 c 0,0.421875 -0.265625,0.4375 -0.765625,0.4375 v 0.21875 H 3.03125 c 0.703125,-0.03125 1.609375,-0.4375 1.609375,-1.234375 0,-0.75 -0.875,-1.21875 -1.578125,-1.21875 H 1.734375 v -1.1875 c 0,-0.34375 0.171875,-0.421875 0.78125,-0.421875 v -0.21875 z m 4.40625,0 v 0.21875 h 0.21875 c 0.296875,0 0.5625,0.046875 0.5625,0.453125 v 2.921875 c 0,0.40625 -0.203125,0.46875 -0.78125,0.46875 v 0.21875 h 2.25 v -0.21875 h -0.1875 c -0.3125,0 -0.578125,-0.03125 -0.578125,-0.453125 V -3.625 c 0,-0.390625 0.203125,-0.453125 0.765625,-0.453125 v -0.21875 z m -2.9375,2.03125 H 2.625 c 0.578125,0 1.1875,0.375 1.1875,1.015625 v 0.03125 c 0,0.46875 -0.453125,0.859375 -0.875,0.9375 -0.15625,0.015625 -0.3125,0.015625 -0.453125,0.015625 H 1.953125 C 1.75,-0.265625 1.734375,-0.46875 1.734375,-0.625 Z m 0,0"
               style="stroke:none" />
          </symbol>
          <symbol
             id="id-a609cadb-2974-4c34-938e-28e89b024ae8"
             overflow="visible">
            <path
               id="id-43d9ec86-de96-4ac1-a5a5-523d43e2f5bd"
               d="m 0.25,-4.296875 v 0.21875 h 0.234375 c 0.28125,0 0.546875,0.046875 0.546875,0.453125 v 2.953125 c 0,0.421875 -0.28125,0.4375 -0.78125,0.4375 v 0.21875 H 2.5 v -0.21875 H 2.328125 C 2.03125,-0.234375 1.71875,-0.265625 1.71875,-0.625 1.734375,-0.71875 1.828125,-0.78125 1.875,-0.859375 L 2.265625,-1.34375 C 2.78125,-1.96875 3.25,-2.65625 3.796875,-3.25 v 2.578125 c 0,0.34375 -0.140625,0.4375 -0.78125,0.4375 v 0.21875 H 5.28125 v -0.21875 H 5.046875 C 4.765625,-0.234375 4.5,-0.265625 4.5,-0.671875 V -3.625 c 0,-0.421875 0.25,-0.453125 0.78125,-0.453125 v -0.21875 H 3.015625 v 0.21875 h 0.1875 c 0.28125,0 0.59375,0.03125 0.59375,0.40625 -0.015625,0.078125 -0.09375,0.15625 -0.140625,0.21875 l -0.390625,0.5 c -0.53125,0.625 -1,1.296875 -1.546875,1.890625 v -2.578125 c 0,-0.34375 0.140625,-0.4375 0.78125,-0.4375 v -0.21875 z m 3.328125,-0.84375 -0.296875,0.0625 -0.71875,0.03125 -0.625,-0.09375 C 2.140625,-5.25 2.265625,-5.375 2.296875,-5.59375 c 0,-0.3125 -0.234375,-0.53125 -0.5,-0.53125 -0.296875,0 -0.5,0.25 -0.5,0.515625 0,0.71875 1,0.875 1.5,0.875 0.578125,0 1.390625,-0.203125 1.4375,-0.84375 V -5.625 c 0,-0.28125 -0.25,-0.5 -0.5,-0.5 -0.3125,0 -0.5,0.25 -0.5,0.5 0,0.234375 0.140625,0.40625 0.34375,0.484375 z m 0,0"
               style="stroke:none" />
          </symbol>
          <symbol
             id="id-a614b965-1de3-4812-a205-c9a93bb189e6"
             overflow="visible">
            <path
               id="id-88b59a27-9818-4983-9c60-7118da94be76"
               d="m 3.578125,-3.859375 c -0.265625,0.015625 -0.46875,0.1875 -0.46875,0.453125 0,0.28125 0.1875,0.46875 0.453125,0.46875 0.3125,0 0.46875,-0.21875 0.46875,-0.5 V -3.5 C 3.921875,-4.234375 3.078125,-4.46875 2.5,-4.46875 c -1.21875,0 -2.171875,1.0625 -2.171875,2.3125 0,1.125 0.875,2.25 2.171875,2.25 0.65625,0 1.296875,-0.359375 1.5625,-1.046875 0.03125,-0.0625 0.078125,-0.15625 0.078125,-0.21875 0,-0.078125 -0.046875,-0.125 -0.125,-0.125 -0.140625,0 -0.234375,0.375 -0.3125,0.515625 -0.234375,0.375 -0.640625,0.625 -1.09375,0.625 -1.0625,0 -1.390625,-1.0625 -1.4375,-1.84375 v -0.125 c 0,-0.796875 0.1875,-1.984375 1.28125,-2.09375 H 2.53125 c 0.375,0 0.765625,0.109375 1.046875,0.359375 z m 0,0"
               style="stroke:none" />
          </symbol>
          <symbol
             id="id-caca22e4-9937-4307-abde-5e9ab980af8b"
             overflow="visible">
            <path
               id="id-2d686722-a276-48e4-8efe-6b6c20f2c3b7"
               d="m 0.296875,-4.296875 v 0.21875 h 0.21875 c 0.296875,0 0.5625,0.046875 0.5625,0.421875 v 2.625 c 0,0.625 -0.34375,0.796875 -0.78125,0.796875 v 0.21875 h 1.84375 v -0.21875 C 1.734375,-0.234375 1.359375,-0.375 1.359375,-1 v -2.953125 c 0.03125,0.125 0.109375,0.25 0.171875,0.390625 0.453125,1.125 0.90625,2.25 1.421875,3.359375 0.03125,0.078125 0.078125,0.1875 0.171875,0.1875 H 3.140625 C 3.25,-0.03125 3.296875,-0.15625 3.328125,-0.25 L 3.625,-0.96875 C 4,-1.859375 4.375,-2.75 4.765625,-3.640625 4.828125,-3.78125 4.890625,-3.921875 4.9375,-4.0625 v 3.421875 c 0,0.40625 -0.328125,0.40625 -0.703125,0.40625 h -0.0625 v 0.21875 H 6.34375 v -0.21875 H 6.109375 c -0.28125,0 -0.546875,-0.03125 -0.546875,-0.4375 V -3.625 c 0,-0.421875 0.265625,-0.453125 0.78125,-0.453125 v -0.21875 H 5.046875 c -0.21875,0 -0.265625,0.125 -0.328125,0.296875 -0.09375,0.234375 -0.1875,0.453125 -0.28125,0.6875 l -0.75,1.75 C 3.5625,-1.28125 3.484375,-1 3.34375,-0.75 2.90625,-1.828125 2.40625,-2.90625 1.96875,-4 1.890625,-4.140625 1.890625,-4.296875 1.640625,-4.296875 Z m 0,0"
               style="stroke:none" />
          </symbol>
          <symbol
             id="id-cc3d0275-2d0d-440d-8d81-ef8fd05d982d"
             overflow="visible">
            <path
               id="id-f7925797-a88d-4817-be73-2b6ba9e96275"
               d="m 2.34375,-4.46875 c -1.25,0.125 -2.0625,1.1875 -2.0625,2.34375 0,1.125 0.890625,2.21875 2.21875,2.21875 1.1875,0 2.1875,-0.96875 2.1875,-2.234375 0,-1.171875 -0.890625,-2.328125 -2.21875,-2.328125 -0.03125,0 -0.09375,0 -0.125,0 z m -1.234375,2.578125 v -0.4375 c 0,-0.765625 0.25,-1.921875 1.375,-1.921875 0.8125,0 1.265625,0.6875 1.359375,1.4375 0.015625,0.21875 0.015625,0.4375 0.015625,0.65625 0,0.640625 -0.078125,1.453125 -0.703125,1.8125 C 2.953125,-0.203125 2.734375,-0.15625 2.5,-0.15625 1.78125,-0.15625 1.265625,-0.71875 1.15625,-1.5 1.140625,-1.625 1.140625,-1.765625 1.109375,-1.890625 Z m 0,0"
               style="stroke:none" />
          </symbol>
          <symbol
             id="id-e391a946-be6d-4816-8904-534689906ce6"
             overflow="visible">
            <path
               id="id-6bcc7935-28d8-4c99-80ba-dade8ffd7dd4"
               d="m 1.3125,-7.140625 c -0.3125,0 -0.453125,0.296875 -0.453125,0.5625 0,0.140625 0.03125,0.296875 0.03125,0.4375 0.078125,1.03125 0.203125,2.0625 0.28125,3.09375 0.015625,0.3125 0.046875,0.609375 0.078125,0.90625 0,0.109375 -0.015625,0.25 0.109375,0.265625 h 0.0625 c 0.125,-0.015625 0.09375,-0.203125 0.109375,-0.296875 C 1.6875,-3.5625 1.765625,-4.953125 1.890625,-6.34375 1.90625,-6.4375 1.90625,-6.53125 1.90625,-6.625 c 0,-0.3125 -0.234375,-0.515625 -0.515625,-0.515625 -0.03125,0 -0.0625,0 -0.078125,0 z m 0,6.078125 c -0.25,0.03125 -0.453125,0.25 -0.453125,0.53125 0,0.28125 0.25,0.515625 0.53125,0.515625 0.265625,0 0.515625,-0.21875 0.515625,-0.515625 0,-0.296875 -0.234375,-0.53125 -0.515625,-0.53125 -0.03125,0 -0.0625,0 -0.078125,0 z m 0,0"
               style="stroke:none" />
          </symbol>
        </g>
      </defs>
      <g
         transform="translate(-149.04, -127.624)"
         id="id-9029a641-2569-4428-b11f-5a8fcf06d268">
        <g
           id="id-1fec8ac6-ae25-4b71-b427-0224aff6d974"
           style="fill:#000000;fill-opacity:1">
          <g
             transform="translate(148.712, 134.765)"
             id="g5047">
            <path
               id="id-285d1c36-8175-4592-a7e6-cd13bc2983aa"
               d="m 0.328125,-6.8125 v 0.296875 c 0.125,0 0.265625,0 0.375,0 0.359375,0 0.65625,0.046875 0.65625,0.4375 V -0.75 c 0,0.375 -0.328125,0.4375 -0.671875,0.4375 -0.125,0 -0.25,0 -0.359375,0 v 0.296875 h 2.9375 V -0.3125 h -0.3125 C 2.640625,-0.3125 2.3125,-0.34375 2.25,-0.578125 V -0.625 c 0,-0.109375 0.125,-0.234375 0.1875,-0.328125 C 3.3125,-2.359375 4.234375,-3.78125 5.15625,-5.15625 5.28125,-5.328125 5.390625,-5.5 5.5,-5.671875 v 4.9375 c 0,0.375 -0.34375,0.421875 -0.671875,0.421875 -0.125,0 -0.25,0 -0.359375,0 v 0.296875 H 7.421875 V -0.3125 c -0.125,0 -0.25,0 -0.375,0 -0.34375,0 -0.65625,-0.046875 -0.65625,-0.4375 v -5.328125 c 0,-0.375 0.3125,-0.4375 0.65625,-0.4375 0.125,0 0.265625,0 0.375,0 V -6.8125 H 4.46875 v 0.296875 h 0.328125 c 0.3125,0 0.640625,0.03125 0.703125,0.265625 v 0.046875 C 5.5,-6.09375 5.375,-5.96875 5.3125,-5.875 4.421875,-4.46875 3.515625,-3.046875 2.578125,-1.671875 2.46875,-1.5 2.359375,-1.328125 2.25,-1.15625 v -4.9375 c 0,-0.375 0.328125,-0.421875 0.671875,-0.421875 0.125,0 0.234375,0 0.34375,0 V -6.8125 Z m 0,0"
               style="stroke:none" />
          </g>
          <g
             transform="translate(156.459, 134.765)"
             id="g5050">
            <path
               id="id-8d2f77ad-b6b5-40b2-bc32-3be90301f33c"
               d="m 1.171875,-4.296875 v 0.21875 h 0.21875 c 0.3125,0 0.59375,0.046875 0.59375,0.453125 0,0.75 -0.03125,1.578125 -0.1875,2.3125 -0.09375,0.484375 -0.21875,1.21875 -0.8125,1.21875 -0.15625,0 -0.265625,-0.0625 -0.390625,-0.140625 0.25,-0.03125 0.4375,-0.171875 0.4375,-0.421875 0,-0.234375 -0.1875,-0.421875 -0.4375,-0.421875 -0.234375,0 -0.40625,0.171875 -0.40625,0.453125 0,0.453125 0.359375,0.78125 0.796875,0.78125 0.6875,0 0.921875,-0.71875 1.046875,-1.265625 0.15625,-0.75 0.203125,-1.546875 0.203125,-2.3125 V -3.625 C 2.234375,-3.84375 2.25,-4.046875 2.5,-4.078125 h 0.953125 c 0.25,0 0.34375,0.109375 0.34375,0.359375 v 3.03125 c 0,0.421875 -0.203125,0.453125 -0.78125,0.453125 v 0.21875 H 5.28125 v -0.21875 H 5.046875 C 4.765625,-0.234375 4.5,-0.265625 4.5,-0.671875 V -3.625 c 0,-0.421875 0.25,-0.453125 0.78125,-0.453125 v -0.21875 z m 0,0"
               style="stroke:none" />
          </g>
          <g
             transform="translate(161.992, 134.765)"
             id="g5053">
            <path
               id="id-a94d80bb-a305-424b-b076-cccaecadeda9"
               d="m 0.265625,-4.296875 v 0.21875 h 0.21875 c 0.296875,0 0.546875,0.046875 0.546875,0.453125 v 2.953125 c 0,0.421875 -0.265625,0.4375 -0.765625,0.4375 v 0.21875 H 3.03125 c 0.703125,-0.03125 1.609375,-0.4375 1.609375,-1.234375 0,-0.75 -0.875,-1.21875 -1.578125,-1.21875 H 1.734375 v -1.1875 c 0,-0.34375 0.171875,-0.421875 0.78125,-0.421875 v -0.21875 z m 1.46875,2.03125 H 2.625 c 0.578125,0 1.1875,0.375 1.1875,1.015625 v 0.03125 c 0,0.46875 -0.453125,0.859375 -0.875,0.9375 -0.15625,0.015625 -0.3125,0.015625 -0.453125,0.015625 H 1.953125 C 1.75,-0.265625 1.734375,-0.46875 1.734375,-0.625 Z m 0,0"
               style="stroke:none" />
          </g>
          <g
             transform="translate(166.972, 134.765)"
             id="g5056">
            <path
               id="id-45bb1553-e825-43fd-86c9-f9505df0d76a"
               d="m 1.734375,-2.46875 v -1.1875 c 0,-0.34375 0.171875,-0.421875 0.78125,-0.421875 v -0.21875 h -2.25 v 0.21875 h 0.21875 c 0.296875,0 0.546875,0.046875 0.546875,0.453125 v 2.953125 c 0,0.421875 -0.265625,0.4375 -0.765625,0.4375 v 0.21875 h 2.25 v -0.21875 h -0.25 c -0.28125,0 -0.546875,-0.03125 -0.546875,-0.4375 0,-0.078125 0.015625,-0.15625 0.015625,-0.21875 v -1.375 h 1.03125 c 0,1.125 0.734375,2.359375 2.171875,2.359375 1.15625,0 2.25,-0.90625 2.25,-2.234375 0,-1.171875 -0.890625,-2.328125 -2.234375,-2.328125 -1.078125,0 -1.9375,0.875 -2.140625,1.90625 -0.015625,0.0625 -0.046875,0.09375 -0.125,0.09375 z m 1.875,0.578125 v -0.4375 C 3.609375,-3.09375 3.84375,-4.25 4.96875,-4.25 c 0.8125,0 1.265625,0.6875 1.359375,1.4375 0.015625,0.21875 0.015625,0.4375 0.015625,0.65625 0,0.640625 -0.0625,1.453125 -0.703125,1.8125 C 5.4375,-0.203125 5.21875,-0.15625 5,-0.15625 4.265625,-0.15625 3.765625,-0.71875 3.65625,-1.5 3.625,-1.625 3.625,-1.765625 3.609375,-1.890625 Z m 0,0"
               style="stroke:none" />
          </g>
          <g
             transform="translate(174.442, 134.765)"
             id="g5059">
            <path
               id="id-1a7ece08-ed7e-4e5f-a8de-2237e5ae1212"
               d="m 0.265625,-4.296875 v 0.21875 h 0.21875 c 0.296875,0 0.546875,0.046875 0.546875,0.453125 v 2.953125 c 0,0.421875 -0.265625,0.4375 -0.765625,0.4375 v 0.21875 H 7.75 v -0.21875 H 7.53125 c -0.296875,0 -0.546875,-0.03125 -0.546875,-0.453125 V -3.625 C 6.984375,-4.0625 7.25,-4.078125 7.75,-4.078125 v -0.21875 H 5.5 v 0.21875 h 0.234375 c 0.28125,0 0.546875,0.046875 0.546875,0.453125 v 3.015625 c 0,0.25 -0.078125,0.375 -0.34375,0.375 H 5.796875 c -0.328125,0 -0.6875,0.03125 -1.015625,0.03125 -0.21875,0 -0.421875,-0.0625 -0.421875,-0.390625 v -3.0625 c 0,-0.34375 0.203125,-0.421875 0.78125,-0.421875 v -0.21875 H 2.875 v 0.21875 h 0.234375 c 0.28125,0 0.546875,0.046875 0.546875,0.453125 v 3.015625 c 0,0.25 -0.0625,0.375 -0.34375,0.375 H 3.171875 c -0.328125,0 -0.671875,0.03125 -1.015625,0.03125 -0.21875,0 -0.421875,-0.0625 -0.421875,-0.390625 v -3.0625 c 0,-0.34375 0.203125,-0.421875 0.78125,-0.421875 v -0.21875 z m 0,0"
               style="stroke:none" />
          </g>
          <g
             transform="translate(182.466, 134.765)"
             id="g5062">
            <path
               id="id-b115543d-571d-40db-b831-ffb5d3e869ca"
               d="m 0.25,-4.296875 v 0.21875 h 0.234375 c 0.28125,0 0.546875,0.046875 0.546875,0.453125 v 2.953125 c 0,0.421875 -0.28125,0.4375 -0.78125,0.4375 v 0.21875 H 2.5 v -0.21875 H 2.328125 C 2.03125,-0.234375 1.71875,-0.265625 1.71875,-0.625 1.734375,-0.71875 1.828125,-0.78125 1.875,-0.859375 L 2.265625,-1.34375 C 2.78125,-1.96875 3.25,-2.65625 3.796875,-3.25 v 2.578125 c 0,0.34375 -0.140625,0.4375 -0.78125,0.4375 v 0.21875 H 5.28125 v -0.21875 H 5.046875 C 4.765625,-0.234375 4.5,-0.265625 4.5,-0.671875 V -3.625 c 0,-0.421875 0.25,-0.453125 0.78125,-0.453125 v -0.21875 H 3.015625 v 0.21875 h 0.1875 c 0.28125,0 0.59375,0.03125 0.59375,0.40625 -0.015625,0.078125 -0.09375,0.15625 -0.140625,0.21875 l -0.390625,0.5 c -0.53125,0.625 -1,1.296875 -1.546875,1.890625 v -2.578125 c 0,-0.34375 0.140625,-0.4375 0.78125,-0.4375 v -0.21875 z m 0,0"
               style="stroke:none" />
          </g>
          <g
             transform="translate(188, 134.765)"
             id="g5065">
            <path
               id="id-82720eab-b10b-4f50-a3ce-e51b83e6d825"
               d="m 0.25,-4.296875 v 0.21875 h 0.234375 c 0.28125,0 0.546875,0.046875 0.546875,0.453125 v 2.953125 c 0,0.421875 -0.28125,0.4375 -0.78125,0.4375 v 0.21875 H 2.5 v -0.21875 H 2.265625 c -0.296875,0 -0.546875,-0.03125 -0.546875,-0.4375 0,-0.078125 0,-0.15625 0,-0.21875 v -1.375 h 2.078125 v 1.375 c 0,0.0625 0.015625,0.140625 0.015625,0.21875 0,0.4375 -0.328125,0.4375 -0.796875,0.4375 v 0.21875 H 5.28125 v -0.21875 H 5.046875 C 4.765625,-0.234375 4.5,-0.265625 4.5,-0.671875 V -3.625 c 0,-0.421875 0.25,-0.453125 0.78125,-0.453125 v -0.21875 H 3.015625 v 0.21875 h 0.21875 c 0.28125,0 0.5625,0.046875 0.5625,0.421875 v 1.1875 H 1.71875 v -1.1875 c 0,-0.328125 0.125,-0.421875 0.78125,-0.421875 v -0.21875 z m 0,0"
               style="stroke:none" />
          </g>
        </g>
        <g
           id="id-4dccfbfb-3108-40e6-a727-48e03b6b6d42"
           style="fill:#000000;fill-opacity:1">
          <g
             transform="translate(196.85, 134.765)"
             id="g5069">
            <path
               id="id-e8301c8a-c0a8-4f0d-9eef-ac16b89715da"
               d="m 0.328125,-6.8125 v 0.296875 c 0.125,0 0.265625,0 0.375,0 0.359375,0 0.65625,0.046875 0.65625,0.4375 V -0.75 c 0,0.375 -0.328125,0.4375 -0.671875,0.4375 -0.125,0 -0.25,0 -0.359375,0 v 0.296875 h 2.9375 V -0.3125 h -0.3125 C 2.640625,-0.3125 2.3125,-0.34375 2.25,-0.578125 V -0.625 c 0,-0.109375 0.125,-0.234375 0.1875,-0.328125 C 3.3125,-2.359375 4.234375,-3.78125 5.15625,-5.15625 5.28125,-5.328125 5.390625,-5.5 5.5,-5.671875 v 4.9375 c 0,0.375 -0.34375,0.421875 -0.671875,0.421875 -0.125,0 -0.25,0 -0.359375,0 v 0.296875 H 7.421875 V -0.3125 c -0.125,0 -0.25,0 -0.375,0 -0.34375,0 -0.65625,-0.046875 -0.65625,-0.4375 v -5.328125 c 0,-0.375 0.3125,-0.4375 0.65625,-0.4375 0.125,0 0.265625,0 0.375,0 V -6.8125 H 4.46875 v 0.296875 h 0.328125 c 0.3125,0 0.640625,0.03125 0.703125,0.265625 v 0.046875 C 5.5,-6.09375 5.375,-5.96875 5.3125,-5.875 4.421875,-4.46875 3.515625,-3.046875 2.578125,-1.671875 2.46875,-1.5 2.359375,-1.328125 2.25,-1.15625 v -4.9375 c 0,-0.375 0.328125,-0.421875 0.671875,-0.421875 0.125,0 0.234375,0 0.34375,0 V -6.8125 Z m 0,0"
               style="stroke:none" />
          </g>
          <g
             transform="translate(204.597, 134.765)"
             id="g5072">
            <path
               id="id-80780d30-1345-414d-aef4-58d0df3755ef"
               d="m 1.171875,-4.296875 v 0.21875 h 0.21875 c 0.3125,0 0.59375,0.046875 0.59375,0.453125 0,0.75 -0.03125,1.578125 -0.1875,2.3125 -0.09375,0.484375 -0.21875,1.21875 -0.8125,1.21875 -0.15625,0 -0.265625,-0.0625 -0.390625,-0.140625 0.25,-0.03125 0.4375,-0.171875 0.4375,-0.421875 0,-0.234375 -0.1875,-0.421875 -0.4375,-0.421875 -0.234375,0 -0.40625,0.171875 -0.40625,0.453125 0,0.453125 0.359375,0.78125 0.796875,0.78125 0.6875,0 0.921875,-0.71875 1.046875,-1.265625 0.15625,-0.75 0.203125,-1.546875 0.203125,-2.3125 V -3.625 C 2.234375,-3.84375 2.25,-4.046875 2.5,-4.078125 h 0.953125 c 0.25,0 0.34375,0.109375 0.34375,0.359375 v 3.03125 c 0,0.421875 -0.203125,0.453125 -0.78125,0.453125 v 0.21875 H 5.28125 v -0.21875 H 5.046875 C 4.765625,-0.234375 4.5,-0.265625 4.5,-0.671875 V -3.625 c 0,-0.421875 0.25,-0.453125 0.78125,-0.453125 v -0.21875 z m 0,0"
               style="stroke:none" />
          </g>
          <g
             transform="translate(210.13, 134.765)"
             id="g5075">
            <path
               id="id-465902e6-2fe6-4f2f-a931-e4ea2d4dd4bf"
               d="m 0.109375,-2.4375 v 0.578125 h 2.65625 V -2.4375 Z m 0,0"
               style="stroke:none" />
          </g>
          <g
             transform="translate(213.451, 134.765)"
             id="g5078">
            <path
               id="id-1d47b7b3-0dab-4b51-bf03-0c28689c4278"
               d="M 1.328125,-3.296875 H 1.3125 C 1.3125,-4.1875 1.359375,-5.203125 2,-5.890625 2.28125,-6.1875 2.640625,-6.40625 3.078125,-6.40625 3.40625,-6.40625 3.734375,-6.265625 3.9375,-6 3.90625,-6.015625 3.875,-6.015625 3.84375,-6.015625 c -0.265625,0 -0.453125,0.203125 -0.453125,0.46875 0,0.25 0.203125,0.453125 0.453125,0.453125 0.265625,0 0.46875,-0.1875 0.46875,-0.515625 0,-0.734375 -0.6875,-1.046875 -1.28125,-1.046875 -1.671875,0 -2.609375,1.890625 -2.609375,3.390625 0,1.375 0.28125,3.46875 2.125,3.46875 1.21875,0 2.015625,-1.125 2.015625,-2.25 C 4.5625,-3.09375 3.84375,-4.25 2.65625,-4.25 2.078125,-4.25 1.5,-3.953125 1.328125,-3.296875 Z m 0,1.171875 v -0.09375 c 0,-0.6875 0.25,-1.8125 1.234375,-1.8125 1.09375,0 1.09375,1.3125 1.09375,1.921875 v 0.1875 c 0,0.671875 -0.0625,1.859375 -1.140625,1.859375 -0.859375,0 -1.125,-0.96875 -1.171875,-1.75 0,-0.09375 0,-0.21875 -0.015625,-0.3125 z m 0,0"
               style="stroke:none" />
          </g>
          <g
             transform="translate(218.431, 134.765)"
             id="g5081">
            <path
               id="id-783ac6ab-23d2-4c11-be8a-79226d6ea00c"
               d="M 0.890625,-5.328125 C 1.125,-5.828125 1.5,-6.34375 2.21875,-6.34375 c 0.9375,0 1.34375,0.859375 1.34375,1.640625 0,0.921875 -0.609375,1.671875 -1.1875,2.328125 -0.5625,0.671875 -1.171875,1.3125 -1.75,1.96875 C 0.53125,-0.3125 0.5,-0.265625 0.5,-0.125 v 0.109375 H 4.203125 L 4.46875,-1.75 H 4.234375 C 4.140625,-1.296875 4.203125,-0.796875 3.6875,-0.796875 H 3.296875 C 3,-0.78125 2.71875,-0.78125 2.421875,-0.78125 c -0.390625,0 -0.765625,0 -1.140625,0 l 0.6875,-0.671875 c 0.28125,-0.265625 0.546875,-0.53125 0.828125,-0.78125 0.734375,-0.65625 1.671875,-1.375 1.671875,-2.484375 0,-1.125 -0.953125,-1.9375 -2.078125,-1.9375 C 1.4375,-6.65625 0.5,-5.9375 0.5,-4.859375 c 0,0.25 0.09375,0.5625 0.515625,0.5625 0.296875,0 0.53125,-0.203125 0.53125,-0.515625 0,-0.265625 -0.203125,-0.515625 -0.515625,-0.515625 -0.046875,0 -0.09375,0 -0.140625,0 z m 0,0"
               style="stroke:none" />
          </g>
        </g>
        <g
           id="id-84d24d20-6350-42da-8421-2194d758d2b8"
           style="fill:#000000;fill-opacity:1">
          <g
             transform="translate(226.729, 134.765)"
             id="g5085">
            <path
               id="id-01ecfce5-54a3-4ead-b878-0dd3a8fe78f6"
               d="m 0.109375,-2.4375 v 0.578125 h 2.65625 V -2.4375 Z m 0,0"
               style="stroke:none" />
          </g>
        </g>
        <g
           id="id-07beb801-2a5f-46fd-aa87-7ae7beab027a"
           style="fill:#000000;fill-opacity:1">
          <g
             transform="translate(233.377, 134.765)"
             id="g5089">
            <path
               id="id-c2f93cb7-57f3-4c9e-91da-ac349fc1e31c"
               d="m 3.234375,-2.421875 c -0.140625,0.046875 -0.28125,0.0625 -0.4375,0.0625 -0.46875,0 -0.75,-0.28125 -1.21875,-0.28125 -0.296875,0 -0.796875,0.109375 -0.796875,0.296875 0,0.03125 0.015625,0.0625 0.0625,0.078125 H 0.875 c 0.046875,0 0.125,-0.03125 0.171875,-0.046875 H 1.09375 c 0.4375,0 0.75,0.375 1.203125,0.375 0.328125,0 0.65625,-0.140625 0.953125,-0.28125 0,0.796875 -0.203125,1.703125 -1.078125,2.015625 C 2.0625,-0.171875 1.9375,-0.15625 1.828125,-0.15625 H 1.75 C 1.203125,-0.203125 0.78125,-0.515625 0.5625,-1.078125 0.53125,-1.15625 0.53125,-1.296875 0.40625,-1.296875 c -0.0625,0 -0.09375,0.015625 -0.109375,0.0625 v 0.03125 c 0,0.125 0.046875,0.25 0.109375,0.359375 0.265625,0.609375 0.859375,0.9375 1.515625,0.9375 1.1875,0 2.171875,-0.984375 2.171875,-2.25 0,-1.0625 -0.671875,-2.046875 -1.8125,-2.28125 -0.109375,-0.015625 -0.234375,-0.03125 -0.34375,-0.03125 -0.34375,0 -0.6875,0.09375 -0.96875,0.25 C 0.921875,-4.1875 0.875,-4.140625 0.8125,-4.140625 H 0.796875 c -0.09375,0 -0.28125,-0.265625 -0.421875,-0.265625 -0.078125,0 -0.09375,0.078125 -0.09375,0.15625 v 0.703125 c 0,0.03125 -0.015625,0.078125 -0.015625,0.125 0,0.109375 0.03125,0.1875 0.140625,0.1875 0.140625,0 0.1875,-0.28125 0.265625,-0.375 C 0.953125,-4 1.4375,-4.21875 1.90625,-4.21875 h 0.0625 c 0.90625,0.109375 1.265625,1.046875 1.265625,1.796875 z m 0,0"
               style="stroke:none" />
          </g>
          <g
             transform="translate(237.804, 134.765)"
             id="g5092">
            <path
               id="id-81fadc5f-27c8-4bfe-9e84-d667b06b77dc"
               d="m 1.171875,-4.296875 v 0.21875 h 0.21875 c 0.3125,0 0.59375,0.046875 0.59375,0.453125 0,0.75 -0.03125,1.578125 -0.1875,2.3125 -0.09375,0.484375 -0.21875,1.21875 -0.8125,1.21875 -0.15625,0 -0.265625,-0.0625 -0.390625,-0.140625 0.25,-0.03125 0.4375,-0.171875 0.4375,-0.421875 0,-0.234375 -0.1875,-0.421875 -0.4375,-0.421875 -0.234375,0 -0.40625,0.171875 -0.40625,0.453125 0,0.453125 0.359375,0.78125 0.796875,0.78125 0.6875,0 0.921875,-0.71875 1.046875,-1.265625 0.15625,-0.75 0.203125,-1.546875 0.203125,-2.3125 V -3.625 C 2.234375,-3.84375 2.25,-4.046875 2.5,-4.078125 h 0.953125 c 0.25,0 0.34375,0.109375 0.34375,0.359375 v 3.03125 c 0,0.421875 -0.203125,0.453125 -0.78125,0.453125 v 0.21875 H 5.28125 v -0.21875 H 5.046875 C 4.765625,-0.234375 4.5,-0.265625 4.5,-0.671875 V -3.625 c 0,-0.421875 0.25,-0.453125 0.78125,-0.453125 v -0.21875 z m 0,0"
               style="stroke:none" />
          </g>
          <g
             transform="translate(243.337, 134.765)"
             id="g5095">
            <path
               id="id-6fd02ae1-e99a-4bec-8b61-4536cb676b82"
               d="m 1.109375,-2.3125 h 2.875 c 0.109375,0 0.15625,-0.0625 0.15625,-0.1875 0,-1.046875 -0.640625,-1.96875 -1.765625,-1.96875 -1.21875,0 -2.09375,1.09375 -2.09375,2.28125 0,0.90625 0.5,1.734375 1.390625,2.125 0.21875,0.109375 0.484375,0.15625 0.734375,0.15625 H 2.4375 c 0.765625,0 1.40625,-0.421875 1.671875,-1.1875 C 4.125,-1.125 4.125,-1.171875 4.125,-1.203125 4.125,-1.265625 4.09375,-1.3125 4.015625,-1.3125 3.875,-1.3125 3.8125,-0.984375 3.75,-0.875 3.5,-0.4375 3.015625,-0.15625 2.5,-0.15625 c -0.359375,0 -0.6875,-0.203125 -0.953125,-0.46875 -0.40625,-0.46875 -0.4375,-1.109375 -0.4375,-1.6875 z M 1.125,-2.515625 C 1.125,-3.296875 1.53125,-4.25 2.359375,-4.25 H 2.40625 c 0.96875,0.09375 0.96875,1.125 1.0625,1.734375 z m 0,0"
               style="stroke:none" />
          </g>
          <g
             transform="translate(247.763, 134.765)"
             id="g5098">
            <path
               id="id-23835535-d9ed-4b6e-9c62-6b11bd16bf85"
               d="m 0.25,-4.296875 v 0.21875 h 0.234375 c 0.28125,0 0.546875,0.046875 0.546875,0.453125 v 2.953125 c 0,0.421875 -0.28125,0.4375 -0.78125,0.4375 v 0.21875 h 2.4375 v -0.21875 H 2.390625 c -0.359375,0 -0.671875,-0.03125 -0.671875,-0.46875 V -3.71875 c 0,-0.203125 0.078125,-0.359375 0.3125,-0.359375 h 0.625 c 0.671875,0 1.203125,0.046875 1.265625,1.390625 h 0.25 L 4.0625,-4.296875 Z m 0,0"
               style="stroke:none" />
          </g>
        </g>
        <g
           id="id-6bad40c6-6856-4661-a2f4-78a1a00992f6"
           style="fill:#000000;fill-opacity:1">
          <g
             transform="translate(251.911, 134.765)"
             id="g5102">
            <path
               id="id-fe8f758b-07b2-43bb-bab6-b6575ab76c2e"
               d="m 1.109375,-3.796875 c 0.25,-0.3125 0.6875,-0.453125 1.0625,-0.453125 0.734375,0 1.0625,0.671875 1.0625,1.375 v 0.265625 c -1.140625,0 -2.828125,0.359375 -2.828125,1.65625 V -0.875 c 0.078125,0.78125 1.046875,0.96875 1.625,0.96875 0.5,0 1.15625,-0.328125 1.28125,-0.84375 0.0625,0.4375 0.34375,0.796875 0.78125,0.796875 0.40625,0 0.765625,-0.328125 0.828125,-0.78125 v -0.71875 h -0.25 v 0.5 c 0,0.28125 -0.0625,0.6875 -0.359375,0.6875 -0.328125,0 -0.375,-0.390625 -0.375,-0.65625 V -2.59375 c 0,-0.125 0.015625,-0.25 0.015625,-0.375 0,-0.96875 -0.90625,-1.5 -1.734375,-1.5 -0.640625,0 -1.515625,0.3125 -1.515625,1.109375 0,0.28125 0.203125,0.484375 0.46875,0.484375 0.28125,0 0.4375,-0.21875 0.4375,-0.46875 0,-0.28125 -0.21875,-0.453125 -0.5,-0.453125 z m 2.125,1.390625 v 1.015625 c 0,0.6875 -0.46875,1.234375 -1.125,1.265625 H 2.078125 C 1.609375,-0.125 1.1875,-0.484375 1.1875,-0.96875 V -1.015625 C 1.25,-2.03125 2.375,-2.375 3.234375,-2.40625 Z m 0,0"
               style="stroke:none" />
          </g>
          <g
             transform="translate(256.891, 134.765)"
             id="g5105">
            <path
               id="id-a3152d42-4b12-4bec-92d8-db4096a9a103"
               d="m 0.25,-4.296875 v 0.21875 h 0.234375 c 0.28125,0 0.546875,0.046875 0.546875,0.453125 v 2.953125 c 0,0.421875 -0.28125,0.4375 -0.78125,0.4375 v 0.21875 H 2.5 v -0.21875 H 2.265625 c -0.296875,0 -0.546875,-0.03125 -0.546875,-0.4375 0,-0.078125 0,-0.15625 0,-0.21875 v -1.375 h 2.078125 v 1.375 c 0,0.0625 0.015625,0.140625 0.015625,0.21875 0,0.4375 -0.328125,0.4375 -0.796875,0.4375 v 0.21875 H 5.28125 v -0.21875 H 5.046875 C 4.765625,-0.234375 4.5,-0.265625 4.5,-0.671875 V -3.625 c 0,-0.421875 0.25,-0.453125 0.78125,-0.453125 v -0.21875 H 3.015625 v 0.21875 h 0.21875 c 0.28125,0 0.5625,0.046875 0.5625,0.421875 v 1.1875 H 1.71875 v -1.1875 c 0,-0.328125 0.125,-0.421875 0.78125,-0.421875 v -0.21875 z m 0,0"
               style="stroke:none" />
          </g>
          <g
             transform="translate(262.424, 134.765)"
             id="g5108">
            <path
               id="id-5cd92948-ee1c-4961-9721-8b83e3521095"
               d="M 0.359375,-4.296875 0.25,-2.6875 H 0.5 c 0.015625,-0.375 0.03125,-0.875 0.234375,-1.125 C 0.921875,-4.03125 1.25,-4.078125 1.53125,-4.078125 h 0.1875 c 0.234375,0 0.421875,0.015625 0.421875,0.375 v 2.96875 c 0,0.453125 -0.375,0.515625 -0.75,0.515625 -0.109375,0 -0.25,-0.015625 -0.359375,-0.015625 v 0.21875 h 2.890625 v -0.21875 c -0.125,0 -0.25,0.015625 -0.375,0.015625 -0.375,0 -0.71875,-0.0625 -0.71875,-0.515625 v -2.96875 c 0,-0.203125 0,-0.375 0.421875,-0.375 h 0.1875 c 0.625,0 0.984375,0.203125 1.03125,1.390625 h 0.25 L 4.609375,-4.296875 Z m 0,0"
               style="stroke:none" />
          </g>
          <g
             transform="translate(267.404, 134.765)"
             id="g5111">
            <path
               id="id-34473e2d-9c74-4a62-a380-a8ff762b910b"
               d="m 0.25,-4.296875 v 0.21875 h 0.234375 c 0.28125,0 0.546875,0.046875 0.546875,0.453125 v 2.953125 c 0,0.421875 -0.28125,0.4375 -0.78125,0.4375 v 0.21875 H 2.5 v -0.21875 H 2.265625 c -0.296875,0 -0.546875,-0.03125 -0.546875,-0.4375 0,-0.078125 0,-0.15625 0,-0.21875 v -1.375 h 2.078125 v 1.375 c 0,0.0625 0.015625,0.140625 0.015625,0.21875 0,0.4375 -0.328125,0.4375 -0.796875,0.4375 v 0.21875 H 5.28125 v -0.21875 H 5.046875 C 4.765625,-0.234375 4.5,-0.265625 4.5,-0.671875 V -3.625 c 0,-0.421875 0.25,-0.453125 0.78125,-0.453125 v -0.21875 H 3.015625 v 0.21875 h 0.21875 c 0.28125,0 0.5625,0.046875 0.5625,0.421875 v 1.1875 H 1.71875 v -1.1875 c 0,-0.328125 0.125,-0.421875 0.78125,-0.421875 v -0.21875 z m 0,0"
               style="stroke:none" />
          </g>
          <g
             transform="translate(272.938, 134.765)"
             id="g5114">
            <path
               id="id-1af0fb48-71db-450c-9865-c2b3dc9e0953"
               d="m 0.265625,-4.296875 v 0.21875 h 0.21875 c 0.296875,0 0.546875,0.046875 0.546875,0.453125 v 2.953125 c 0,0.421875 -0.265625,0.4375 -0.765625,0.4375 v 0.21875 H 3.03125 c 0.703125,-0.03125 1.609375,-0.4375 1.609375,-1.234375 0,-0.75 -0.875,-1.21875 -1.578125,-1.21875 H 1.734375 v -1.1875 c 0,-0.34375 0.171875,-0.421875 0.78125,-0.421875 v -0.21875 z m 4.40625,0 v 0.21875 h 0.21875 c 0.296875,0 0.5625,0.046875 0.5625,0.453125 v 2.921875 c 0,0.40625 -0.203125,0.46875 -0.78125,0.46875 v 0.21875 h 2.25 v -0.21875 h -0.1875 c -0.3125,0 -0.578125,-0.03125 -0.578125,-0.453125 V -3.625 c 0,-0.390625 0.203125,-0.453125 0.765625,-0.453125 v -0.21875 z m -2.9375,2.03125 H 2.625 c 0.578125,0 1.1875,0.375 1.1875,1.015625 v 0.03125 c 0,0.46875 -0.453125,0.859375 -0.875,0.9375 -0.15625,0.015625 -0.3125,0.015625 -0.453125,0.015625 H 1.953125 C 1.75,-0.265625 1.734375,-0.46875 1.734375,-0.625 Z m 0,0"
               style="stroke:none" />
          </g>
          <g
             transform="translate(280.131, 134.765)"
             id="g5117">
            <path
               id="id-5d7a1b03-7ce0-419d-8a30-08670446edc6"
               d="m 0.25,-4.296875 v 0.21875 h 0.234375 c 0.28125,0 0.546875,0.046875 0.546875,0.453125 v 2.953125 c 0,0.421875 -0.28125,0.4375 -0.78125,0.4375 v 0.21875 H 2.5 v -0.21875 H 2.328125 C 2.03125,-0.234375 1.71875,-0.265625 1.71875,-0.625 1.734375,-0.71875 1.828125,-0.78125 1.875,-0.859375 L 2.265625,-1.34375 C 2.78125,-1.96875 3.25,-2.65625 3.796875,-3.25 v 2.578125 c 0,0.34375 -0.140625,0.4375 -0.78125,0.4375 v 0.21875 H 5.28125 v -0.21875 H 5.046875 C 4.765625,-0.234375 4.5,-0.265625 4.5,-0.671875 V -3.625 c 0,-0.421875 0.25,-0.453125 0.78125,-0.453125 v -0.21875 H 3.015625 v 0.21875 h 0.1875 c 0.28125,0 0.59375,0.03125 0.59375,0.40625 -0.015625,0.078125 -0.09375,0.15625 -0.140625,0.21875 l -0.390625,0.5 c -0.53125,0.625 -1,1.296875 -1.546875,1.890625 v -2.578125 c 0,-0.34375 0.140625,-0.4375 0.78125,-0.4375 v -0.21875 z m 3.328125,-0.84375 -0.296875,0.0625 -0.71875,0.03125 -0.625,-0.09375 C 2.140625,-5.25 2.265625,-5.375 2.296875,-5.59375 c 0,-0.3125 -0.234375,-0.53125 -0.5,-0.53125 -0.296875,0 -0.5,0.25 -0.5,0.515625 0,0.71875 1,0.875 1.5,0.875 0.578125,0 1.390625,-0.203125 1.4375,-0.84375 V -5.625 c 0,-0.28125 -0.25,-0.5 -0.5,-0.5 -0.3125,0 -0.5,0.25 -0.5,0.5 0,0.234375 0.140625,0.40625 0.34375,0.484375 z m 0,0"
               style="stroke:none" />
          </g>
        </g>
        <g
           id="id-024f8783-bc41-44be-b7f6-26cbe68b6602"
           style="fill:#000000;fill-opacity:1">
          <g
             transform="translate(288.981, 134.765)"
             id="g5121">
            <path
               id="id-d69351ce-5cfe-48d2-9bc4-0d5aeb93e27b"
               d="m 3.578125,-3.859375 c -0.265625,0.015625 -0.46875,0.1875 -0.46875,0.453125 0,0.28125 0.1875,0.46875 0.453125,0.46875 0.3125,0 0.46875,-0.21875 0.46875,-0.5 V -3.5 C 3.921875,-4.234375 3.078125,-4.46875 2.5,-4.46875 c -1.21875,0 -2.171875,1.0625 -2.171875,2.3125 0,1.125 0.875,2.25 2.171875,2.25 0.65625,0 1.296875,-0.359375 1.5625,-1.046875 0.03125,-0.0625 0.078125,-0.15625 0.078125,-0.21875 0,-0.078125 -0.046875,-0.125 -0.125,-0.125 -0.140625,0 -0.234375,0.375 -0.3125,0.515625 -0.234375,0.375 -0.640625,0.625 -1.09375,0.625 -1.0625,0 -1.390625,-1.0625 -1.4375,-1.84375 v -0.125 c 0,-0.796875 0.1875,-1.984375 1.28125,-2.09375 H 2.53125 c 0.375,0 0.765625,0.109375 1.046875,0.359375 z m 0,0"
               style="stroke:none" />
          </g>
          <g
             transform="translate(293.408, 134.765)"
             id="g5124">
            <path
               id="id-284ae98c-1c92-4d5e-8e39-2b3986a3ddc4"
               d="m 1.109375,-3.796875 c 0.25,-0.3125 0.6875,-0.453125 1.0625,-0.453125 0.734375,0 1.0625,0.671875 1.0625,1.375 v 0.265625 c -1.140625,0 -2.828125,0.359375 -2.828125,1.65625 V -0.875 c 0.078125,0.78125 1.046875,0.96875 1.625,0.96875 0.5,0 1.15625,-0.328125 1.28125,-0.84375 0.0625,0.4375 0.34375,0.796875 0.78125,0.796875 0.40625,0 0.765625,-0.328125 0.828125,-0.78125 v -0.71875 h -0.25 v 0.5 c 0,0.28125 -0.0625,0.6875 -0.359375,0.6875 -0.328125,0 -0.375,-0.390625 -0.375,-0.65625 V -2.59375 c 0,-0.125 0.015625,-0.25 0.015625,-0.375 0,-0.96875 -0.90625,-1.5 -1.734375,-1.5 -0.640625,0 -1.515625,0.3125 -1.515625,1.109375 0,0.28125 0.203125,0.484375 0.46875,0.484375 0.28125,0 0.4375,-0.21875 0.4375,-0.46875 0,-0.28125 -0.21875,-0.453125 -0.5,-0.453125 z m 2.125,1.390625 v 1.015625 c 0,0.6875 -0.46875,1.234375 -1.125,1.265625 H 2.078125 C 1.609375,-0.125 1.1875,-0.484375 1.1875,-0.96875 V -1.015625 C 1.25,-2.03125 2.375,-2.375 3.234375,-2.40625 Z m 0,0"
               style="stroke:none" />
          </g>
          <g
             transform="translate(298.388, 134.765)"
             id="g5127">
            <path
               id="id-433809b3-cad8-4679-bd9a-94dc78798db3"
               d="m 0.296875,-4.296875 v 0.21875 h 0.21875 c 0.296875,0 0.5625,0.046875 0.5625,0.421875 v 2.625 c 0,0.625 -0.34375,0.796875 -0.78125,0.796875 v 0.21875 h 1.84375 v -0.21875 C 1.734375,-0.234375 1.359375,-0.375 1.359375,-1 v -2.953125 c 0.03125,0.125 0.109375,0.25 0.171875,0.390625 0.453125,1.125 0.90625,2.25 1.421875,3.359375 0.03125,0.078125 0.078125,0.1875 0.171875,0.1875 H 3.140625 C 3.25,-0.03125 3.296875,-0.15625 3.328125,-0.25 L 3.625,-0.96875 C 4,-1.859375 4.375,-2.75 4.765625,-3.640625 4.828125,-3.78125 4.890625,-3.921875 4.9375,-4.0625 v 3.421875 c 0,0.40625 -0.328125,0.40625 -0.703125,0.40625 h -0.0625 v 0.21875 H 6.34375 v -0.21875 H 6.109375 c -0.28125,0 -0.546875,-0.03125 -0.546875,-0.4375 V -3.625 c 0,-0.421875 0.265625,-0.453125 0.78125,-0.453125 v -0.21875 H 5.046875 c -0.21875,0 -0.265625,0.125 -0.328125,0.296875 -0.09375,0.234375 -0.1875,0.453125 -0.28125,0.6875 l -0.75,1.75 C 3.5625,-1.28125 3.484375,-1 3.34375,-0.75 2.90625,-1.828125 2.40625,-2.90625 1.96875,-4 1.890625,-4.140625 1.890625,-4.296875 1.640625,-4.296875 Z m 0,0"
               style="stroke:none" />
          </g>
          <g
             transform="translate(305.028, 134.765)"
             id="g5130">
            <path
               id="id-d0c61244-756f-498a-84e5-0b2923976174"
               d="m 2.34375,-4.46875 c -1.25,0.125 -2.0625,1.1875 -2.0625,2.34375 0,1.125 0.890625,2.21875 2.21875,2.21875 1.1875,0 2.1875,-0.96875 2.1875,-2.234375 0,-1.171875 -0.890625,-2.328125 -2.21875,-2.328125 -0.03125,0 -0.09375,0 -0.125,0 z m -1.234375,2.578125 v -0.4375 c 0,-0.765625 0.25,-1.921875 1.375,-1.921875 0.8125,0 1.265625,0.6875 1.359375,1.4375 0.015625,0.21875 0.015625,0.4375 0.015625,0.65625 0,0.640625 -0.078125,1.453125 -0.703125,1.8125 C 2.953125,-0.203125 2.734375,-0.15625 2.5,-0.15625 1.78125,-0.15625 1.265625,-0.71875 1.15625,-1.5 1.140625,-1.625 1.140625,-1.765625 1.109375,-1.890625 Z m 0,0"
               style="stroke:none" />
          </g>
          <g
             transform="translate(310.008, 134.765)"
             id="g5133">
            <path
               id="id-16843e25-de2c-4fcc-86a6-6c7a14c472fc"
               d="m 1.171875,-4.296875 v 0.21875 h 0.21875 c 0.3125,0 0.59375,0.046875 0.59375,0.453125 0,0.75 -0.03125,1.578125 -0.1875,2.3125 -0.09375,0.484375 -0.21875,1.21875 -0.8125,1.21875 -0.15625,0 -0.265625,-0.0625 -0.390625,-0.140625 0.25,-0.03125 0.4375,-0.171875 0.4375,-0.421875 0,-0.234375 -0.1875,-0.421875 -0.4375,-0.421875 -0.234375,0 -0.40625,0.171875 -0.40625,0.453125 0,0.453125 0.359375,0.78125 0.796875,0.78125 0.6875,0 0.921875,-0.71875 1.046875,-1.265625 0.15625,-0.75 0.203125,-1.546875 0.203125,-2.3125 V -3.625 C 2.234375,-3.84375 2.25,-4.046875 2.5,-4.078125 h 0.953125 c 0.25,0 0.34375,0.109375 0.34375,0.359375 v 3.03125 c 0,0.421875 -0.203125,0.453125 -0.78125,0.453125 v 0.21875 H 5.28125 v -0.21875 H 5.046875 C 4.765625,-0.234375 4.5,-0.265625 4.5,-0.671875 V -3.625 c 0,-0.421875 0.25,-0.453125 0.78125,-0.453125 v -0.21875 z m 0,0"
               style="stroke:none" />
          </g>
          <g
             transform="translate(315.542, 134.765)"
             id="g5136">
            <path
               id="id-46d7aba7-8c85-4e38-80bf-c7663146bf68"
               d="m 1.109375,-2.3125 h 2.875 c 0.109375,0 0.15625,-0.0625 0.15625,-0.1875 0,-1.046875 -0.640625,-1.96875 -1.765625,-1.96875 -1.21875,0 -2.09375,1.09375 -2.09375,2.28125 0,0.90625 0.5,1.734375 1.390625,2.125 0.21875,0.109375 0.484375,0.15625 0.734375,0.15625 H 2.4375 c 0.765625,0 1.40625,-0.421875 1.671875,-1.1875 C 4.125,-1.125 4.125,-1.171875 4.125,-1.203125 4.125,-1.265625 4.09375,-1.3125 4.015625,-1.3125 3.875,-1.3125 3.8125,-0.984375 3.75,-0.875 3.5,-0.4375 3.015625,-0.15625 2.5,-0.15625 c -0.359375,0 -0.6875,-0.203125 -0.953125,-0.46875 -0.40625,-0.46875 -0.4375,-1.109375 -0.4375,-1.6875 z M 1.125,-2.515625 C 1.125,-3.296875 1.53125,-4.25 2.359375,-4.25 H 2.40625 c 0.96875,0.09375 0.96875,1.125 1.0625,1.734375 z m 0,0"
               style="stroke:none" />
          </g>
          <g
             transform="translate(319.968, 134.765)"
             id="g5139">
            <path
               id="id-9858779b-7859-4a1b-83ea-c4619453929c"
               d="M 0.359375,-4.296875 0.25,-2.6875 H 0.5 c 0.015625,-0.375 0.03125,-0.875 0.234375,-1.125 C 0.921875,-4.03125 1.25,-4.078125 1.53125,-4.078125 h 0.1875 c 0.234375,0 0.421875,0.015625 0.421875,0.375 v 2.96875 c 0,0.453125 -0.375,0.515625 -0.75,0.515625 -0.109375,0 -0.25,-0.015625 -0.359375,-0.015625 v 0.21875 h 2.890625 v -0.21875 c -0.125,0 -0.25,0.015625 -0.375,0.015625 -0.375,0 -0.71875,-0.0625 -0.71875,-0.515625 v -2.96875 c 0,-0.203125 0,-0.375 0.421875,-0.375 h 0.1875 c 0.625,0 0.984375,0.203125 1.03125,1.390625 h 0.25 L 4.609375,-4.296875 Z m 0,0"
               style="stroke:none" />
          </g>
          <g
             transform="translate(324.948, 134.765)"
             id="g5142">
            <path
               id="id-9a7877d0-fa35-4b42-a597-d49e76f0a62d"
               d="m 1.3125,-7.140625 c -0.3125,0 -0.453125,0.296875 -0.453125,0.5625 0,0.140625 0.03125,0.296875 0.03125,0.4375 0.078125,1.03125 0.203125,2.0625 0.28125,3.09375 0.015625,0.3125 0.046875,0.609375 0.078125,0.90625 0,0.109375 -0.015625,0.25 0.109375,0.265625 h 0.0625 c 0.125,-0.015625 0.09375,-0.203125 0.109375,-0.296875 C 1.6875,-3.5625 1.765625,-4.953125 1.890625,-6.34375 1.90625,-6.4375 1.90625,-6.53125 1.90625,-6.625 c 0,-0.3125 -0.234375,-0.515625 -0.515625,-0.515625 -0.03125,0 -0.0625,0 -0.078125,0 z m 0,6.078125 c -0.25,0.03125 -0.453125,0.25 -0.453125,0.53125 0,0.28125 0.25,0.515625 0.53125,0.515625 0.265625,0 0.515625,-0.21875 0.515625,-0.515625 0,-0.296875 -0.234375,-0.53125 -0.515625,-0.53125 -0.03125,0 -0.0625,0 -0.078125,0 z m 0,0"
               style="stroke:none" />
          </g>
        </g>
      </g>
    </g>
  </g>
</svg>
