<?xml version="1.0" encoding="UTF-8" standalone="no"?>
<svg
   xmlns:ns4="http://www.iki.fi/pav/software/textext/"
   xmlns:dc="http://purl.org/dc/elements/1.1/"
   xmlns:cc="http://creativecommons.org/ns#"
   xmlns:rdf="http://www.w3.org/1999/02/22-rdf-syntax-ns#"
   xmlns:svg="http://www.w3.org/2000/svg"
   xmlns="http://www.w3.org/2000/svg"
   xmlns:sodipodi="http://sodipodi.sourceforge.net/DTD/sodipodi-0.dtd"
   xmlns:inkscape="http://www.inkscape.org/namespaces/inkscape"
   sodipodi:docname="original.svg"
   inkscape:version="1.0 (1.0+r73+1)"
   id="svg8"
   version="1.1"
   viewBox="0 0 210 297"
   height="297mm"
   width="210mm">
  <defs
     id="defs2" />
  <sodipodi:namedview
     id="base"
     pagecolor="#ffffff"
     bordercolor="#666666"
     borderopacity="1.0"
     inkscape:pageopacity="0.0"
     inkscape:pageshadow="2"
     inkscape:zoom="3.6212098"
     inkscape:cx="400.00159"
     inkscape:cy="559.99854"
     inkscape:document-units="mm"
     inkscape:current-layer="layer1"
     inkscape:document-rotation="0"
     showgrid="false"
     inkscape:window-width="1683"
     inkscape:window-height="890"
     inkscape:window-x="101"
     inkscape:window-y="40"
     inkscape:window-maximized="0" />
  <metadata
     id="metadata5">
    <rdf:RDF>
      <cc:Work
         rdf:about="">
        <dc:format>image/svg+xml</dc:format>
        <dc:type
           rdf:resource="http://purl.org/dc/dcmitype/StillImage" />
        <dc:title></dc:title>
      </cc:Work>
    </rdf:RDF>
  </metadata>
  <g
     inkscape:label="Ebene 1"
     inkscape:groupmode="layer"
     id="layer1">
    <g
       transform="matrix(0.352778 0 0 0.352778 74.468 146.871)"
       ns4:version="1.0.0"
       ns4:texconverter="pdflatex"
       ns4:pdfconverter="inkscape"
       ns4:text="\u0418\u043b\u044c\u044e\u0448\u0438\u043d \u0418\u043b-62 - \u044d\u043b\u0435\u0433\u0430\u043d\u0442\u043d\u044b\u0439 \u0441\u0430\u043c\u043e\u043b\u0435\u0442!"
       ns4:preamble="utf8_cyrillic_packages.tex"
       ns4:scale="1.0"
       ns4:alignment="middle center"
       ns4:inkscapeversion="1.0"
       ns4:jacobian_sqrt="0.352778"
       id="content">
      <defs
         id="id-bc13daa6-2446-4e29-b041-8eab0cec4d19">
        <g
           id="id-ca4cf40f-202e-45d4-b0a6-e0fedfcaa35a">
          <symbol
             id="id-1849899d-0b31-46e9-97b1-114aaad3a743"
             overflow="visible">
            <path
               id="id-4edda4c7-254d-4309-b7f3-7ce329f50d96"
               d=""
               style="stroke:none" />
          </symbol>
          <symbol
             id="id-2208c2bf-f999-41bf-bedf-b16afd28a04f"
             overflow="visible">
            <path
               id="id-91d207df-b612-4205-8efb-b38ebfced4f6"
               d="m 0.328125,-6.8125 v 0.296875 c 0.125,0 0.265625,0 0.375,0 0.359375,0 0.65625,0.046875 0.65625,0.4375 V -0.75 c 0,0.375 -0.328125,0.4375 -0.671875,0.4375 -0.125,0 -0.25,0 -0.359375,0 v 0.296875 h 2.9375 V -0.3125 h -0.3125 C 2.640625,-0.3125 2.3125,-0.34375 2.25,-0.578125 V -0.625 c 0,-0.109375 0.125,-0.234375 0.1875,-0.328125 C 3.3125,-2.359375 4.234375,-3.78125 5.15625,-5.15625 5.28125,-5.328125 5.390625,-5.5 5.5,-5.671875 v 4.9375 c 0,0.375 -0.34375,0.421875 -0.671875,0.421875 -0.125,0 -0.25,0 -0.359375,0 v 0.296875 H 7.421875 V -0.3125 c -0.125,0 -0.25,0 -0.375,0 -0.34375,0 -0.65625,-0.046875 -0.65625,-0.4375 v -5.328125 c 0,-0.375 0.3125,-0.4375 0.65625,-0.4375 0.125,0 0.265625,0 0.375,0 V -6.8125 H 4.46875 v 0.296875 h 0.328125 c 0.3125,0 0.640625,0.03125 0.703125,0.265625 v 0.046875 C 5.5,-6.09375 5.375,-5.96875 5.3125,-5.875 4.421875,-4.46875 3.515625,-3.046875 2.578125,-1.671875 2.46875,-1.5 2.359375,-1.328125 2.25,-1.15625 v -4.9375 c 0,-0.375 0.328125,-0.421875 0.671875,-0.421875 0.125,0 0.234375,0 0.34375,0 V -6.8125 Z m 0,0"
               style="stroke:none" />
          </symbol>
          <symbol
             id="id-7568440f-b4bc-4d63-9bc1-e4d828e4fb69"
             overflow="visible">
            <path
               id="id-8f532d0a-c3cf-4dca-9f64-d38b2f0fd32f"
               d="m 1.171875,-4.296875 v 0.21875 h 0.21875 c 0.3125,0 0.59375,0.046875 0.59375,0.453125 0,0.75 -0.03125,1.578125 -0.1875,2.3125 -0.09375,0.484375 -0.21875,1.21875 -0.8125,1.21875 -0.15625,0 -0.265625,-0.0625 -0.390625,-0.140625 0.25,-0.03125 0.4375,-0.171875 0.4375,-0.421875 0,-0.234375 -0.1875,-0.421875 -0.4375,-0.421875 -0.234375,0 -0.40625,0.171875 -0.40625,0.453125 0,0.453125 0.359375,0.78125 0.796875,0.78125 0.6875,0 0.921875,-0.71875 1.046875,-1.265625 0.15625,-0.75 0.203125,-1.546875 0.203125,-2.3125 V -3.625 C 2.234375,-3.84375 2.25,-4.046875 2.5,-4.078125 h 0.953125 c 0.25,0 0.34375,0.109375 0.34375,0.359375 v 3.03125 c 0,0.421875 -0.203125,0.453125 -0.78125,0.453125 v 0.21875 H 5.28125 v -0.21875 H 5.046875 C 4.765625,-0.234375 4.5,-0.265625 4.5,-0.671875 V -3.625 c 0,-0.421875 0.25,-0.453125 0.78125,-0.453125 v -0.21875 z m 0,0"
               style="stroke:none" />
          </symbol>
          <symbol
             id="id-47841e70-690d-4acc-a957-2a6ebf82e81d"
             overflow="visible">
            <path
               id="id-ea95ba95-6a28-46f0-83f8-db11f710c18a"
               d="m 0.265625,-4.296875 v 0.21875 h 0.21875 c 0.296875,0 0.546875,0.046875 0.546875,0.453125 v 2.953125 c 0,0.421875 -0.265625,0.4375 -0.765625,0.4375 v 0.21875 H 3.03125 c 0.703125,-0.03125 1.609375,-0.4375 1.609375,-1.234375 0,-0.75 -0.875,-1.21875 -1.578125,-1.21875 H 1.734375 v -1.1875 c 0,-0.34375 0.171875,-0.421875 0.78125,-0.421875 v -0.21875 z m 1.46875,2.03125 H 2.625 c 0.578125,0 1.1875,0.375 1.1875,1.015625 v 0.03125 c 0,0.46875 -0.453125,0.859375 -0.875,0.9375 -0.15625,0.015625 -0.3125,0.015625 -0.453125,0.015625 H 1.953125 C 1.75,-0.265625 1.734375,-0.46875 1.734375,-0.625 Z m 0,0"
               style="stroke:none" />
          </symbol>
          <symbol
             id="id-8a51344c-180c-484f-abc9-ba265d2cffb8"
             overflow="visible">
            <path
               id="id-2186b1fd-1fa5-4587-8f31-da9757f4b668"
               d="m 1.734375,-2.46875 v -1.1875 c 0,-0.34375 0.171875,-0.421875 0.78125,-0.421875 v -0.21875 h -2.25 v 0.21875 h 0.21875 c 0.296875,0 0.546875,0.046875 0.546875,0.453125 v 2.953125 c 0,0.421875 -0.265625,0.4375 -0.765625,0.4375 v 0.21875 h 2.25 v -0.21875 h -0.25 c -0.28125,0 -0.546875,-0.03125 -0.546875,-0.4375 0,-0.078125 0.015625,-0.15625 0.015625,-0.21875 v -1.375 h 1.03125 c 0,1.125 0.734375,2.359375 2.171875,2.359375 1.15625,0 2.25,-0.90625 2.25,-2.234375 0,-1.171875 -0.890625,-2.328125 -2.234375,-2.328125 -1.078125,0 -1.9375,0.875 -2.140625,1.90625 -0.015625,0.0625 -0.046875,0.09375 -0.125,0.09375 z m 1.875,0.578125 v -0.4375 C 3.609375,-3.09375 3.84375,-4.25 4.96875,-4.25 c 0.8125,0 1.265625,0.6875 1.359375,1.4375 0.015625,0.21875 0.015625,0.4375 0.015625,0.65625 0,0.640625 -0.0625,1.453125 -0.703125,1.8125 C 5.4375,-0.203125 5.21875,-0.15625 5,-0.15625 4.265625,-0.15625 3.765625,-0.71875 3.65625,-1.5 3.625,-1.625 3.625,-1.765625 3.609375,-1.890625 Z m 0,0"
               style="stroke:none" />
          </symbol>
          <symbol
             id="id-8caa86ca-01fd-4b6a-a3d5-8ee44f6a2bd9"
             overflow="visible">
            <path
               id="id-dbe29b65-296d-4e6f-81f7-2cce4ce8e12d"
               d="m 0.265625,-4.296875 v 0.21875 h 0.21875 c 0.296875,0 0.546875,0.046875 0.546875,0.453125 v 2.953125 c 0,0.421875 -0.265625,0.4375 -0.765625,0.4375 v 0.21875 H 7.75 v -0.21875 H 7.53125 c -0.296875,0 -0.546875,-0.03125 -0.546875,-0.453125 V -3.625 C 6.984375,-4.0625 7.25,-4.078125 7.75,-4.078125 v -0.21875 H 5.5 v 0.21875 h 0.234375 c 0.28125,0 0.546875,0.046875 0.546875,0.453125 v 3.015625 c 0,0.25 -0.078125,0.375 -0.34375,0.375 H 5.796875 c -0.328125,0 -0.6875,0.03125 -1.015625,0.03125 -0.21875,0 -0.421875,-0.0625 -0.421875,-0.390625 v -3.0625 c 0,-0.34375 0.203125,-0.421875 0.78125,-0.421875 v -0.21875 H 2.875 v 0.21875 h 0.234375 c 0.28125,0 0.546875,0.046875 0.546875,0.453125 v 3.015625 c 0,0.25 -0.0625,0.375 -0.34375,0.375 H 3.171875 c -0.328125,0 -0.671875,0.03125 -1.015625,0.03125 -0.21875,0 -0.421875,-0.0625 -0.421875,-0.390625 v -3.0625 c 0,-0.34375 0.203125,-0.421875 0.78125,-0.421875 v -0.21875 z m 0,0"
               style="stroke:none" />
          </symbol>
          <symbol
             id="id-2729eed7-9c36-436f-82aa-b8fd00aabb8c"
             overflow="visible">
            <path
               id="id-feff0127-3ec3-4582-b71e-6258ae9c0e4c"
               d="m 0.25,-4.296875 v 0.21875 h 0.234375 c 0.28125,0 0.546875,0.046875 0.546875,0.453125 v 2.953125 c 0,0.421875 -0.28125,0.4375 -0.78125,0.4375 v 0.21875 H 2.5 v -0.21875 H 2.328125 C 2.03125,-0.234375 1.71875,-0.265625 1.71875,-0.625 1.734375,-0.71875 1.828125,-0.78125 1.875,-0.859375 L 2.265625,-1.34375 C 2.78125,-1.96875 3.25,-2.65625 3.796875,-3.25 v 2.578125 c 0,0.34375 -0.140625,0.4375 -0.78125,0.4375 v 0.21875 H 5.28125 v -0.21875 H 5.046875 C 4.765625,-0.234375 4.5,-0.265625 4.5,-0.671875 V -3.625 c 0,-0.421875 0.25,-0.453125 0.78125,-0.453125 v -0.21875 H 3.015625 v 0.21875 h 0.1875 c 0.28125,0 0.59375,0.03125 0.59375,0.40625 -0.015625,0.078125 -0.09375,0.15625 -0.140625,0.21875 l -0.390625,0.5 c -0.53125,0.625 -1,1.296875 -1.546875,1.890625 v -2.578125 c 0,-0.34375 0.140625,-0.4375 0.78125,-0.4375 v -0.21875 z m 0,0"
               style="stroke:none" />
          </symbol>
          <symbol
             id="id-3a4aacc3-8a76-4f73-9514-883f31211fef"
             overflow="visible">
            <path
               id="id-843723f6-e20e-4b11-8c78-4fee8f1bf901"
               d="m 0.25,-4.296875 v 0.21875 h 0.234375 c 0.28125,0 0.546875,0.046875 0.546875,0.453125 v 2.953125 c 0,0.421875 -0.28125,0.4375 -0.78125,0.4375 v 0.21875 H 2.5 v -0.21875 H 2.265625 c -0.296875,0 -0.546875,-0.03125 -0.546875,-0.4375 0,-0.078125 0,-0.15625 0,-0.21875 v -1.375 h 2.078125 v 1.375 c 0,0.0625 0.015625,0.140625 0.015625,0.21875 0,0.4375 -0.328125,0.4375 -0.796875,0.4375 v 0.21875 H 5.28125 v -0.21875 H 5.046875 C 4.765625,-0.234375 4.5,-0.265625 4.5,-0.671875 V -3.625 c 0,-0.421875 0.25,-0.453125 0.78125,-0.453125 v -0.21875 H 3.015625 v 0.21875 h 0.21875 c 0.28125,0 0.5625,0.046875 0.5625,0.421875 v 1.1875 H 1.71875 v -1.1875 c 0,-0.328125 0.125,-0.421875 0.78125,-0.421875 v -0.21875 z m 0,0"
               style="stroke:none" />
          </symbol>
          <symbol
             id="id-f11c4e37-090b-4b76-b9d6-b6f12a208326"
             overflow="visible">
            <path
               id="id-94eb1264-8c69-4e27-b576-04e4036a4a5a"
               d="m 0.109375,-2.4375 v 0.578125 h 2.65625 V -2.4375 Z m 0,0"
               style="stroke:none" />
          </symbol>
          <symbol
             id="id-87b817fa-6fea-420a-ad88-aa98febc0a54"
             overflow="visible">
            <path
               id="id-12b3629c-80f8-4d57-9922-4b1a1fdf4e91"
               d="M 1.328125,-3.296875 H 1.3125 C 1.3125,-4.1875 1.359375,-5.203125 2,-5.890625 2.28125,-6.1875 2.640625,-6.40625 3.078125,-6.40625 3.40625,-6.40625 3.734375,-6.265625 3.9375,-6 3.90625,-6.015625 3.875,-6.015625 3.84375,-6.015625 c -0.265625,0 -0.453125,0.203125 -0.453125,0.46875 0,0.25 0.203125,0.453125 0.453125,0.453125 0.265625,0 0.46875,-0.1875 0.46875,-0.515625 0,-0.734375 -0.6875,-1.046875 -1.28125,-1.046875 -1.671875,0 -2.609375,1.890625 -2.609375,3.390625 0,1.375 0.28125,3.46875 2.125,3.46875 1.21875,0 2.015625,-1.125 2.015625,-2.25 C 4.5625,-3.09375 3.84375,-4.25 2.65625,-4.25 2.078125,-4.25 1.5,-3.953125 1.328125,-3.296875 Z m 0,1.171875 v -0.09375 c 0,-0.6875 0.25,-1.8125 1.234375,-1.8125 1.09375,0 1.09375,1.3125 1.09375,1.921875 v 0.1875 c 0,0.671875 -0.0625,1.859375 -1.140625,1.859375 -0.859375,0 -1.125,-0.96875 -1.171875,-1.75 0,-0.09375 0,-0.21875 -0.015625,-0.3125 z m 0,0"
               style="stroke:none" />
          </symbol>
          <symbol
             id="id-64aea745-2bd2-4735-833a-4224a54c0e8d"
             overflow="visible">
            <path
               id="id-715f28bb-7446-47ee-9c1d-0aba29e98a29"
               d="M 0.890625,-5.328125 C 1.125,-5.828125 1.5,-6.34375 2.21875,-6.34375 c 0.9375,0 1.34375,0.859375 1.34375,1.640625 0,0.921875 -0.609375,1.671875 -1.1875,2.328125 -0.5625,0.671875 -1.171875,1.3125 -1.75,1.96875 C 0.53125,-0.3125 0.5,-0.265625 0.5,-0.125 v 0.109375 H 4.203125 L 4.46875,-1.75 H 4.234375 C 4.140625,-1.296875 4.203125,-0.796875 3.6875,-0.796875 H 3.296875 C 3,-0.78125 2.71875,-0.78125 2.421875,-0.78125 c -0.390625,0 -0.765625,0 -1.140625,0 l 0.6875,-0.671875 c 0.28125,-0.265625 0.546875,-0.53125 0.828125,-0.78125 0.734375,-0.65625 1.671875,-1.375 1.671875,-2.484375 0,-1.125 -0.953125,-1.9375 -2.078125,-1.9375 C 1.4375,-6.65625 0.5,-5.9375 0.5,-4.859375 c 0,0.25 0.09375,0.5625 0.515625,0.5625 0.296875,0 0.53125,-0.203125 0.53125,-0.515625 0,-0.265625 -0.203125,-0.515625 -0.515625,-0.515625 -0.046875,0 -0.09375,0 -0.140625,0 z m 0,0"
               style="stroke:none" />
          </symbol>
          <symbol
             id="id-ab5c91a2-6553-4e0b-b81b-efa59b199798"
             overflow="visible">
            <path
               id="id-ed1c837e-7e01-49bc-9c1b-bb7258cd9b89"
               d="m 3.234375,-2.421875 c -0.140625,0.046875 -0.28125,0.0625 -0.4375,0.0625 -0.46875,0 -0.75,-0.28125 -1.21875,-0.28125 -0.296875,0 -0.796875,0.109375 -0.796875,0.296875 0,0.03125 0.015625,0.0625 0.0625,0.078125 H 0.875 c 0.046875,0 0.125,-0.03125 0.171875,-0.046875 H 1.09375 c 0.4375,0 0.75,0.375 1.203125,0.375 0.328125,0 0.65625,-0.140625 0.953125,-0.28125 0,0.796875 -0.203125,1.703125 -1.078125,2.015625 C 2.0625,-0.171875 1.9375,-0.15625 1.828125,-0.15625 H 1.75 C 1.203125,-0.203125 0.78125,-0.515625 0.5625,-1.078125 0.53125,-1.15625 0.53125,-1.296875 0.40625,-1.296875 c -0.0625,0 -0.09375,0.015625 -0.109375,0.0625 v 0.03125 c 0,0.125 0.046875,0.25 0.109375,0.359375 0.265625,0.609375 0.859375,0.9375 1.515625,0.9375 1.1875,0 2.171875,-0.984375 2.171875,-2.25 0,-1.0625 -0.671875,-2.046875 -1.8125,-2.28125 -0.109375,-0.015625 -0.234375,-0.03125 -0.34375,-0.03125 -0.34375,0 -0.6875,0.09375 -0.96875,0.25 C 0.921875,-4.1875 0.875,-4.140625 0.8125,-4.140625 H 0.796875 c -0.09375,0 -0.28125,-0.265625 -0.421875,-0.265625 -0.078125,0 -0.09375,0.078125 -0.09375,0.15625 v 0.703125 c 0,0.03125 -0.015625,0.078125 -0.015625,0.125 0,0.109375 0.03125,0.1875 0.140625,0.1875 0.140625,0 0.1875,-0.28125 0.265625,-0.375 C 0.953125,-4 1.4375,-4.21875 1.90625,-4.21875 h 0.0625 c 0.90625,0.109375 1.265625,1.046875 1.265625,1.796875 z m 0,0"
               style="stroke:none" />
          </symbol>
          <symbol
             id="id-20fc5354-f06c-4bc7-a84d-4eff275e3b54"
             overflow="visible">
            <path
               id="id-fbba7d4f-f5b9-4d94-a389-f24510c4bf80"
               d="m 1.109375,-2.3125 h 2.875 c 0.109375,0 0.15625,-0.0625 0.15625,-0.1875 0,-1.046875 -0.640625,-1.96875 -1.765625,-1.96875 -1.21875,0 -2.09375,1.09375 -2.09375,2.28125 0,0.90625 0.5,1.734375 1.390625,2.125 0.21875,0.109375 0.484375,0.15625 0.734375,0.15625 H 2.4375 c 0.765625,0 1.40625,-0.421875 1.671875,-1.1875 C 4.125,-1.125 4.125,-1.171875 4.125,-1.203125 4.125,-1.265625 4.09375,-1.3125 4.015625,-1.3125 3.875,-1.3125 3.8125,-0.984375 3.75,-0.875 3.5,-0.4375 3.015625,-0.15625 2.5,-0.15625 c -0.359375,0 -0.6875,-0.203125 -0.953125,-0.46875 -0.40625,-0.46875 -0.4375,-1.109375 -0.4375,-1.6875 z M 1.125,-2.515625 C 1.125,-3.296875 1.53125,-4.25 2.359375,-4.25 H 2.40625 c 0.96875,0.09375 0.96875,1.125 1.0625,1.734375 z m 0,0"
               style="stroke:none" />
          </symbol>
          <symbol
             id="id-b7140fc7-af25-4179-bfc2-29ff3f2641d4"
             overflow="visible">
            <path
               id="id-95e3d2ba-912f-44a2-9757-375f65dbe3ea"
               d="m 0.25,-4.296875 v 0.21875 h 0.234375 c 0.28125,0 0.546875,0.046875 0.546875,0.453125 v 2.953125 c 0,0.421875 -0.28125,0.4375 -0.78125,0.4375 v 0.21875 h 2.4375 v -0.21875 H 2.390625 c -0.359375,0 -0.671875,-0.03125 -0.671875,-0.46875 V -3.71875 c 0,-0.203125 0.078125,-0.359375 0.3125,-0.359375 h 0.625 c 0.671875,0 1.203125,0.046875 1.265625,1.390625 h 0.25 L 4.0625,-4.296875 Z m 0,0"
               style="stroke:none" />
          </symbol>
          <symbol
             id="id-90703e28-50d9-4185-86e8-0b6a7071af61"
             overflow="visible">
            <path
               id="id-a635b706-311b-414c-a975-631156226724"
               d="m 1.109375,-3.796875 c 0.25,-0.3125 0.6875,-0.453125 1.0625,-0.453125 0.734375,0 1.0625,0.671875 1.0625,1.375 v 0.265625 c -1.140625,0 -2.828125,0.359375 -2.828125,1.65625 V -0.875 c 0.078125,0.78125 1.046875,0.96875 1.625,0.96875 0.5,0 1.15625,-0.328125 1.28125,-0.84375 0.0625,0.4375 0.34375,0.796875 0.78125,0.796875 0.40625,0 0.765625,-0.328125 0.828125,-0.78125 v -0.71875 h -0.25 v 0.5 c 0,0.28125 -0.0625,0.6875 -0.359375,0.6875 -0.328125,0 -0.375,-0.390625 -0.375,-0.65625 V -2.59375 c 0,-0.125 0.015625,-0.25 0.015625,-0.375 0,-0.96875 -0.90625,-1.5 -1.734375,-1.5 -0.640625,0 -1.515625,0.3125 -1.515625,1.109375 0,0.28125 0.203125,0.484375 0.46875,0.484375 0.28125,0 0.4375,-0.21875 0.4375,-0.46875 0,-0.28125 -0.21875,-0.453125 -0.5,-0.453125 z m 2.125,1.390625 v 1.015625 c 0,0.6875 -0.46875,1.234375 -1.125,1.265625 H 2.078125 C 1.609375,-0.125 1.1875,-0.484375 1.1875,-0.96875 V -1.015625 C 1.25,-2.03125 2.375,-2.375 3.234375,-2.40625 Z m 0,0"
               style="stroke:none" />
          </symbol>
          <symbol
             id="id-41baffc8-5460-434a-b98c-ed7495f494ea"
             overflow="visible">
            <path
               id="id-52f22de3-a995-40b4-932e-2f5dd5149c79"
               d="M 0.359375,-4.296875 0.25,-2.6875 H 0.5 c 0.015625,-0.375 0.03125,-0.875 0.234375,-1.125 C 0.921875,-4.03125 1.25,-4.078125 1.53125,-4.078125 h 0.1875 c 0.234375,0 0.421875,0.015625 0.421875,0.375 v 2.96875 c 0,0.453125 -0.375,0.515625 -0.75,0.515625 -0.109375,0 -0.25,-0.015625 -0.359375,-0.015625 v 0.21875 h 2.890625 v -0.21875 c -0.125,0 -0.25,0.015625 -0.375,0.015625 -0.375,0 -0.71875,-0.0625 -0.71875,-0.515625 v -2.96875 c 0,-0.203125 0,-0.375 0.421875,-0.375 h 0.1875 c 0.625,0 0.984375,0.203125 1.03125,1.390625 h 0.25 L 4.609375,-4.296875 Z m 0,0"
               style="stroke:none" />
          </symbol>
          <symbol
             id="id-0187bf4c-53c0-4aff-92e6-b7d6fe5d141f"
             overflow="visible">
            <path
               id="id-19cae8c5-cd27-4e6c-81a2-6dfcfb78afa9"
               d="m 0.265625,-4.296875 v 0.21875 h 0.21875 c 0.296875,0 0.546875,0.046875 0.546875,0.453125 v 2.953125 c 0,0.421875 -0.265625,0.4375 -0.765625,0.4375 v 0.21875 H 3.03125 c 0.703125,-0.03125 1.609375,-0.4375 1.609375,-1.234375 0,-0.75 -0.875,-1.21875 -1.578125,-1.21875 H 1.734375 v -1.1875 c 0,-0.34375 0.171875,-0.421875 0.78125,-0.421875 v -0.21875 z m 4.40625,0 v 0.21875 h 0.21875 c 0.296875,0 0.5625,0.046875 0.5625,0.453125 v 2.921875 c 0,0.40625 -0.203125,0.46875 -0.78125,0.46875 v 0.21875 h 2.25 v -0.21875 h -0.1875 c -0.3125,0 -0.578125,-0.03125 -0.578125,-0.453125 V -3.625 c 0,-0.390625 0.203125,-0.453125 0.765625,-0.453125 v -0.21875 z m -2.9375,2.03125 H 2.625 c 0.578125,0 1.1875,0.375 1.1875,1.015625 v 0.03125 c 0,0.46875 -0.453125,0.859375 -0.875,0.9375 -0.15625,0.015625 -0.3125,0.015625 -0.453125,0.015625 H 1.953125 C 1.75,-0.265625 1.734375,-0.46875 1.734375,-0.625 Z m 0,0"
               style="stroke:none" />
          </symbol>
          <symbol
             id="id-323d7b4e-102a-4079-9c83-f12c81351440"
             overflow="visible">
            <path
               id="id-cfb5c632-bfea-49ca-b3f4-6d6b14ea0494"
               d="m 0.25,-4.296875 v 0.21875 h 0.234375 c 0.28125,0 0.546875,0.046875 0.546875,0.453125 v 2.953125 c 0,0.421875 -0.28125,0.4375 -0.78125,0.4375 v 0.21875 H 2.5 v -0.21875 H 2.328125 C 2.03125,-0.234375 1.71875,-0.265625 1.71875,-0.625 1.734375,-0.71875 1.828125,-0.78125 1.875,-0.859375 L 2.265625,-1.34375 C 2.78125,-1.96875 3.25,-2.65625 3.796875,-3.25 v 2.578125 c 0,0.34375 -0.140625,0.4375 -0.78125,0.4375 v 0.21875 H 5.28125 v -0.21875 H 5.046875 C 4.765625,-0.234375 4.5,-0.265625 4.5,-0.671875 V -3.625 c 0,-0.421875 0.25,-0.453125 0.78125,-0.453125 v -0.21875 H 3.015625 v 0.21875 h 0.1875 c 0.28125,0 0.59375,0.03125 0.59375,0.40625 -0.015625,0.078125 -0.09375,0.15625 -0.140625,0.21875 l -0.390625,0.5 c -0.53125,0.625 -1,1.296875 -1.546875,1.890625 v -2.578125 c 0,-0.34375 0.140625,-0.4375 0.78125,-0.4375 v -0.21875 z m 3.328125,-0.84375 -0.296875,0.0625 -0.71875,0.03125 -0.625,-0.09375 C 2.140625,-5.25 2.265625,-5.375 2.296875,-5.59375 c 0,-0.3125 -0.234375,-0.53125 -0.5,-0.53125 -0.296875,0 -0.5,0.25 -0.5,0.515625 0,0.71875 1,0.875 1.5,0.875 0.578125,0 1.390625,-0.203125 1.4375,-0.84375 V -5.625 c 0,-0.28125 -0.25,-0.5 -0.5,-0.5 -0.3125,0 -0.5,0.25 -0.5,0.5 0,0.234375 0.140625,0.40625 0.34375,0.484375 z m 0,0"
               style="stroke:none" />
          </symbol>
          <symbol
             id="id-40101017-ee82-48d6-bef6-834551f0995d"
             overflow="visible">
            <path
               id="id-385d1a91-9ef8-4b41-befd-188d6dfdcb1c"
               d="m 3.578125,-3.859375 c -0.265625,0.015625 -0.46875,0.1875 -0.46875,0.453125 0,0.28125 0.1875,0.46875 0.453125,0.46875 0.3125,0 0.46875,-0.21875 0.46875,-0.5 V -3.5 C 3.921875,-4.234375 3.078125,-4.46875 2.5,-4.46875 c -1.21875,0 -2.171875,1.0625 -2.171875,2.3125 0,1.125 0.875,2.25 2.171875,2.25 0.65625,0 1.296875,-0.359375 1.5625,-1.046875 0.03125,-0.0625 0.078125,-0.15625 0.078125,-0.21875 0,-0.078125 -0.046875,-0.125 -0.125,-0.125 -0.140625,0 -0.234375,0.375 -0.3125,0.515625 -0.234375,0.375 -0.640625,0.625 -1.09375,0.625 -1.0625,0 -1.390625,-1.0625 -1.4375,-1.84375 v -0.125 c 0,-0.796875 0.1875,-1.984375 1.28125,-2.09375 H 2.53125 c 0.375,0 0.765625,0.109375 1.046875,0.359375 z m 0,0"
               style="stroke:none" />
          </symbol>
          <symbol
             id="id-06d45475-7c07-47f7-a9e6-9b8d5d98a921"
             overflow="visible">
            <path
               id="id-8b4a9d14-ff0e-4482-b426-60283c350e53"
               d="m 0.296875,-4.296875 v 0.21875 h 0.21875 c 0.296875,0 0.5625,0.046875 0.5625,0.421875 v 2.625 c 0,0.625 -0.34375,0.796875 -0.78125,0.796875 v 0.21875 h 1.84375 v -0.21875 C 1.734375,-0.234375 1.359375,-0.375 1.359375,-1 v -2.953125 c 0.03125,0.125 0.109375,0.25 0.171875,0.390625 0.453125,1.125 0.90625,2.25 1.421875,3.359375 0.03125,0.078125 0.078125,0.1875 0.171875,0.1875 H 3.140625 C 3.25,-0.03125 3.296875,-0.15625 3.328125,-0.25 L 3.625,-0.96875 C 4,-1.859375 4.375,-2.75 4.765625,-3.640625 4.828125,-3.78125 4.890625,-3.921875 4.9375,-4.0625 v 3.421875 c 0,0.40625 -0.328125,0.40625 -0.703125,0.40625 h -0.0625 v 0.21875 H 6.34375 v -0.21875 H 6.109375 c -0.28125,0 -0.546875,-0.03125 -0.546875,-0.4375 V -3.625 c 0,-0.421875 0.265625,-0.453125 0.78125,-0.453125 v -0.21875 H 5.046875 c -0.21875,0 -0.265625,0.125 -0.328125,0.296875 -0.09375,0.234375 -0.1875,0.453125 -0.28125,0.6875 l -0.75,1.75 C 3.5625,-1.28125 3.484375,-1 3.34375,-0.75 2.90625,-1.828125 2.40625,-2.90625 1.96875,-4 1.890625,-4.140625 1.890625,-4.296875 1.640625,-4.296875 Z m 0,0"
               style="stroke:none" />
          </symbol>
          <symbol
             id="id-cc31b258-d1f0-4533-b1c2-5727f542b219"
             overflow="visible">
            <path
               id="id-2582c375-55ca-4c09-89f1-2b79484751cf"
               d="m 2.34375,-4.46875 c -1.25,0.125 -2.0625,1.1875 -2.0625,2.34375 0,1.125 0.890625,2.21875 2.21875,2.21875 1.1875,0 2.1875,-0.96875 2.1875,-2.234375 0,-1.171875 -0.890625,-2.328125 -2.21875,-2.328125 -0.03125,0 -0.09375,0 -0.125,0 z m -1.234375,2.578125 v -0.4375 c 0,-0.765625 0.25,-1.921875 1.375,-1.921875 0.8125,0 1.265625,0.6875 1.359375,1.4375 0.015625,0.21875 0.015625,0.4375 0.015625,0.65625 0,0.640625 -0.078125,1.453125 -0.703125,1.8125 C 2.953125,-0.203125 2.734375,-0.15625 2.5,-0.15625 1.78125,-0.15625 1.265625,-0.71875 1.15625,-1.5 1.140625,-1.625 1.140625,-1.765625 1.109375,-1.890625 Z m 0,0"
               style="stroke:none" />
          </symbol>
          <symbol
             id="id-24de2460-1eed-4f67-8f85-12040a2c4754"
             overflow="visible">
            <path
               id="id-1fb8a020-c7b3-47eb-93ee-9c92687f8540"
               d="m 1.3125,-7.140625 c -0.3125,0 -0.453125,0.296875 -0.453125,0.5625 0,0.140625 0.03125,0.296875 0.03125,0.4375 0.078125,1.03125 0.203125,2.0625 0.28125,3.09375 0.015625,0.3125 0.046875,0.609375 0.078125,0.90625 0,0.109375 -0.015625,0.25 0.109375,0.265625 h 0.0625 c 0.125,-0.015625 0.09375,-0.203125 0.109375,-0.296875 C 1.6875,-3.5625 1.765625,-4.953125 1.890625,-6.34375 1.90625,-6.4375 1.90625,-6.53125 1.90625,-6.625 c 0,-0.3125 -0.234375,-0.515625 -0.515625,-0.515625 -0.03125,0 -0.0625,0 -0.078125,0 z m 0,6.078125 c -0.25,0.03125 -0.453125,0.25 -0.453125,0.53125 0,0.28125 0.25,0.515625 0.53125,0.515625 0.265625,0 0.515625,-0.21875 0.515625,-0.515625 0,-0.296875 -0.234375,-0.53125 -0.515625,-0.53125 -0.03125,0 -0.0625,0 -0.078125,0 z m 0,0"
               style="stroke:none" />
          </symbol>
        </g>
      </defs>
      <g
         transform="translate(-149.04, -127.624)"
         id="id-152edb37-6d87-40d5-9d07-a7d09cf5a745">
        <g
           id="id-6c9c27fc-68a0-415a-a990-9647204a3454"
           style="fill:#000000;fill-opacity:1">
          <g
             transform="translate(148.712, 134.765)"
             id="g4090">
            <path
               id="id-c126415c-73e9-4340-b444-594a1f343224"
               d="m 0.328125,-6.8125 v 0.296875 c 0.125,0 0.265625,0 0.375,0 0.359375,0 0.65625,0.046875 0.65625,0.4375 V -0.75 c 0,0.375 -0.328125,0.4375 -0.671875,0.4375 -0.125,0 -0.25,0 -0.359375,0 v 0.296875 h 2.9375 V -0.3125 h -0.3125 C 2.640625,-0.3125 2.3125,-0.34375 2.25,-0.578125 V -0.625 c 0,-0.109375 0.125,-0.234375 0.1875,-0.328125 C 3.3125,-2.359375 4.234375,-3.78125 5.15625,-5.15625 5.28125,-5.328125 5.390625,-5.5 5.5,-5.671875 v 4.9375 c 0,0.375 -0.34375,0.421875 -0.671875,0.421875 -0.125,0 -0.25,0 -0.359375,0 v 0.296875 H 7.421875 V -0.3125 c -0.125,0 -0.25,0 -0.375,0 -0.34375,0 -0.65625,-0.046875 -0.65625,-0.4375 v -5.328125 c 0,-0.375 0.3125,-0.4375 0.65625,-0.4375 0.125,0 0.265625,0 0.375,0 V -6.8125 H 4.46875 v 0.296875 h 0.328125 c 0.3125,0 0.640625,0.03125 0.703125,0.265625 v 0.046875 C 5.5,-6.09375 5.375,-5.96875 5.3125,-5.875 4.421875,-4.46875 3.515625,-3.046875 2.578125,-1.671875 2.46875,-1.5 2.359375,-1.328125 2.25,-1.15625 v -4.9375 c 0,-0.375 0.328125,-0.421875 0.671875,-0.421875 0.125,0 0.234375,0 0.34375,0 V -6.8125 Z m 0,0"
               style="stroke:none" />
          </g>
          <g
             transform="translate(156.459, 134.765)"
             id="g4093">
            <path
               id="id-2078478f-0771-4420-8535-a0fb459b451c"
               d="m 1.171875,-4.296875 v 0.21875 h 0.21875 c 0.3125,0 0.59375,0.046875 0.59375,0.453125 0,0.75 -0.03125,1.578125 -0.1875,2.3125 -0.09375,0.484375 -0.21875,1.21875 -0.8125,1.21875 -0.15625,0 -0.265625,-0.0625 -0.390625,-0.140625 0.25,-0.03125 0.4375,-0.171875 0.4375,-0.421875 0,-0.234375 -0.1875,-0.421875 -0.4375,-0.421875 -0.234375,0 -0.40625,0.171875 -0.40625,0.453125 0,0.453125 0.359375,0.78125 0.796875,0.78125 0.6875,0 0.921875,-0.71875 1.046875,-1.265625 0.15625,-0.75 0.203125,-1.546875 0.203125,-2.3125 V -3.625 C 2.234375,-3.84375 2.25,-4.046875 2.5,-4.078125 h 0.953125 c 0.25,0 0.34375,0.109375 0.34375,0.359375 v 3.03125 c 0,0.421875 -0.203125,0.453125 -0.78125,0.453125 v 0.21875 H 5.28125 v -0.21875 H 5.046875 C 4.765625,-0.234375 4.5,-0.265625 4.5,-0.671875 V -3.625 c 0,-0.421875 0.25,-0.453125 0.78125,-0.453125 v -0.21875 z m 0,0"
               style="stroke:none" />
          </g>
          <g
             transform="translate(161.992, 134.765)"
             id="g4096">
            <path
               id="id-1af1d07f-194a-4cbe-9215-07531880001a"
               d="m 0.265625,-4.296875 v 0.21875 h 0.21875 c 0.296875,0 0.546875,0.046875 0.546875,0.453125 v 2.953125 c 0,0.421875 -0.265625,0.4375 -0.765625,0.4375 v 0.21875 H 3.03125 c 0.703125,-0.03125 1.609375,-0.4375 1.609375,-1.234375 0,-0.75 -0.875,-1.21875 -1.578125,-1.21875 H 1.734375 v -1.1875 c 0,-0.34375 0.171875,-0.421875 0.78125,-0.421875 v -0.21875 z m 1.46875,2.03125 H 2.625 c 0.578125,0 1.1875,0.375 1.1875,1.015625 v 0.03125 c 0,0.46875 -0.453125,0.859375 -0.875,0.9375 -0.15625,0.015625 -0.3125,0.015625 -0.453125,0.015625 H 1.953125 C 1.75,-0.265625 1.734375,-0.46875 1.734375,-0.625 Z m 0,0"
               style="stroke:none" />
          </g>
          <g
             transform="translate(166.972, 134.765)"
             id="g4099">
            <path
               id="id-c27e81e8-7899-40fb-9e78-3cb6d0493458"
               d="m 1.734375,-2.46875 v -1.1875 c 0,-0.34375 0.171875,-0.421875 0.78125,-0.421875 v -0.21875 h -2.25 v 0.21875 h 0.21875 c 0.296875,0 0.546875,0.046875 0.546875,0.453125 v 2.953125 c 0,0.421875 -0.265625,0.4375 -0.765625,0.4375 v 0.21875 h 2.25 v -0.21875 h -0.25 c -0.28125,0 -0.546875,-0.03125 -0.546875,-0.4375 0,-0.078125 0.015625,-0.15625 0.015625,-0.21875 v -1.375 h 1.03125 c 0,1.125 0.734375,2.359375 2.171875,2.359375 1.15625,0 2.25,-0.90625 2.25,-2.234375 0,-1.171875 -0.890625,-2.328125 -2.234375,-2.328125 -1.078125,0 -1.9375,0.875 -2.140625,1.90625 -0.015625,0.0625 -0.046875,0.09375 -0.125,0.09375 z m 1.875,0.578125 v -0.4375 C 3.609375,-3.09375 3.84375,-4.25 4.96875,-4.25 c 0.8125,0 1.265625,0.6875 1.359375,1.4375 0.015625,0.21875 0.015625,0.4375 0.015625,0.65625 0,0.640625 -0.0625,1.453125 -0.703125,1.8125 C 5.4375,-0.203125 5.21875,-0.15625 5,-0.15625 4.265625,-0.15625 3.765625,-0.71875 3.65625,-1.5 3.625,-1.625 3.625,-1.765625 3.609375,-1.890625 Z m 0,0"
               style="stroke:none" />
          </g>
          <g
             transform="translate(174.442, 134.765)"
             id="g4102">
            <path
               id="id-6597311a-ed59-4772-a858-3fd8dbe458cc"
               d="m 0.265625,-4.296875 v 0.21875 h 0.21875 c 0.296875,0 0.546875,0.046875 0.546875,0.453125 v 2.953125 c 0,0.421875 -0.265625,0.4375 -0.765625,0.4375 v 0.21875 H 7.75 v -0.21875 H 7.53125 c -0.296875,0 -0.546875,-0.03125 -0.546875,-0.453125 V -3.625 C 6.984375,-4.0625 7.25,-4.078125 7.75,-4.078125 v -0.21875 H 5.5 v 0.21875 h 0.234375 c 0.28125,0 0.546875,0.046875 0.546875,0.453125 v 3.015625 c 0,0.25 -0.078125,0.375 -0.34375,0.375 H 5.796875 c -0.328125,0 -0.6875,0.03125 -1.015625,0.03125 -0.21875,0 -0.421875,-0.0625 -0.421875,-0.390625 v -3.0625 c 0,-0.34375 0.203125,-0.421875 0.78125,-0.421875 v -0.21875 H 2.875 v 0.21875 h 0.234375 c 0.28125,0 0.546875,0.046875 0.546875,0.453125 v 3.015625 c 0,0.25 -0.0625,0.375 -0.34375,0.375 H 3.171875 c -0.328125,0 -0.671875,0.03125 -1.015625,0.03125 -0.21875,0 -0.421875,-0.0625 -0.421875,-0.390625 v -3.0625 c 0,-0.34375 0.203125,-0.421875 0.78125,-0.421875 v -0.21875 z m 0,0"
               style="stroke:none" />
          </g>
          <g
             transform="translate(182.466, 134.765)"
             id="g4105">
            <path
               id="id-92cac3da-5253-4f70-ac8f-39e1f0979c50"
               d="m 0.25,-4.296875 v 0.21875 h 0.234375 c 0.28125,0 0.546875,0.046875 0.546875,0.453125 v 2.953125 c 0,0.421875 -0.28125,0.4375 -0.78125,0.4375 v 0.21875 H 2.5 v -0.21875 H 2.328125 C 2.03125,-0.234375 1.71875,-0.265625 1.71875,-0.625 1.734375,-0.71875 1.828125,-0.78125 1.875,-0.859375 L 2.265625,-1.34375 C 2.78125,-1.96875 3.25,-2.65625 3.796875,-3.25 v 2.578125 c 0,0.34375 -0.140625,0.4375 -0.78125,0.4375 v 0.21875 H 5.28125 v -0.21875 H 5.046875 C 4.765625,-0.234375 4.5,-0.265625 4.5,-0.671875 V -3.625 c 0,-0.421875 0.25,-0.453125 0.78125,-0.453125 v -0.21875 H 3.015625 v 0.21875 h 0.1875 c 0.28125,0 0.59375,0.03125 0.59375,0.40625 -0.015625,0.078125 -0.09375,0.15625 -0.140625,0.21875 l -0.390625,0.5 c -0.53125,0.625 -1,1.296875 -1.546875,1.890625 v -2.578125 c 0,-0.34375 0.140625,-0.4375 0.78125,-0.4375 v -0.21875 z m 0,0"
               style="stroke:none" />
          </g>
          <g
             transform="translate(188, 134.765)"
             id="g4108">
            <path
               id="id-8a545ef8-24c7-4ab6-98ff-25f4b161d7ab"
               d="m 0.25,-4.296875 v 0.21875 h 0.234375 c 0.28125,0 0.546875,0.046875 0.546875,0.453125 v 2.953125 c 0,0.421875 -0.28125,0.4375 -0.78125,0.4375 v 0.21875 H 2.5 v -0.21875 H 2.265625 c -0.296875,0 -0.546875,-0.03125 -0.546875,-0.4375 0,-0.078125 0,-0.15625 0,-0.21875 v -1.375 h 2.078125 v 1.375 c 0,0.0625 0.015625,0.140625 0.015625,0.21875 0,0.4375 -0.328125,0.4375 -0.796875,0.4375 v 0.21875 H 5.28125 v -0.21875 H 5.046875 C 4.765625,-0.234375 4.5,-0.265625 4.5,-0.671875 V -3.625 c 0,-0.421875 0.25,-0.453125 0.78125,-0.453125 v -0.21875 H 3.015625 v 0.21875 h 0.21875 c 0.28125,0 0.5625,0.046875 0.5625,0.421875 v 1.1875 H 1.71875 v -1.1875 c 0,-0.328125 0.125,-0.421875 0.78125,-0.421875 v -0.21875 z m 0,0"
               style="stroke:none" />
          </g>
        </g>
        <g
           id="id-b8d54c18-4acf-4b1b-bfd2-48ff6ba46c3e"
           style="fill:#000000;fill-opacity:1">
          <g
             transform="translate(196.85, 134.765)"
             id="g4112">
            <path
               id="id-a4b448ac-0124-43d4-ae24-8491fc90ae3a"
               d="m 0.328125,-6.8125 v 0.296875 c 0.125,0 0.265625,0 0.375,0 0.359375,0 0.65625,0.046875 0.65625,0.4375 V -0.75 c 0,0.375 -0.328125,0.4375 -0.671875,0.4375 -0.125,0 -0.25,0 -0.359375,0 v 0.296875 h 2.9375 V -0.3125 h -0.3125 C 2.640625,-0.3125 2.3125,-0.34375 2.25,-0.578125 V -0.625 c 0,-0.109375 0.125,-0.234375 0.1875,-0.328125 C 3.3125,-2.359375 4.234375,-3.78125 5.15625,-5.15625 5.28125,-5.328125 5.390625,-5.5 5.5,-5.671875 v 4.9375 c 0,0.375 -0.34375,0.421875 -0.671875,0.421875 -0.125,0 -0.25,0 -0.359375,0 v 0.296875 H 7.421875 V -0.3125 c -0.125,0 -0.25,0 -0.375,0 -0.34375,0 -0.65625,-0.046875 -0.65625,-0.4375 v -5.328125 c 0,-0.375 0.3125,-0.4375 0.65625,-0.4375 0.125,0 0.265625,0 0.375,0 V -6.8125 H 4.46875 v 0.296875 h 0.328125 c 0.3125,0 0.640625,0.03125 0.703125,0.265625 v 0.046875 C 5.5,-6.09375 5.375,-5.96875 5.3125,-5.875 4.421875,-4.46875 3.515625,-3.046875 2.578125,-1.671875 2.46875,-1.5 2.359375,-1.328125 2.25,-1.15625 v -4.9375 c 0,-0.375 0.328125,-0.421875 0.671875,-0.421875 0.125,0 0.234375,0 0.34375,0 V -6.8125 Z m 0,0"
               style="stroke:none" />
          </g>
          <g
             transform="translate(204.597, 134.765)"
             id="g4115">
            <path
               id="id-2742eab8-7b34-4d9a-8df6-6b5bffc7c402"
               d="m 1.171875,-4.296875 v 0.21875 h 0.21875 c 0.3125,0 0.59375,0.046875 0.59375,0.453125 0,0.75 -0.03125,1.578125 -0.1875,2.3125 -0.09375,0.484375 -0.21875,1.21875 -0.8125,1.21875 -0.15625,0 -0.265625,-0.0625 -0.390625,-0.140625 0.25,-0.03125 0.4375,-0.171875 0.4375,-0.421875 0,-0.234375 -0.1875,-0.421875 -0.4375,-0.421875 -0.234375,0 -0.40625,0.171875 -0.40625,0.453125 0,0.453125 0.359375,0.78125 0.796875,0.78125 0.6875,0 0.921875,-0.71875 1.046875,-1.265625 0.15625,-0.75 0.203125,-1.546875 0.203125,-2.3125 V -3.625 C 2.234375,-3.84375 2.25,-4.046875 2.5,-4.078125 h 0.953125 c 0.25,0 0.34375,0.109375 0.34375,0.359375 v 3.03125 c 0,0.421875 -0.203125,0.453125 -0.78125,0.453125 v 0.21875 H 5.28125 v -0.21875 H 5.046875 C 4.765625,-0.234375 4.5,-0.265625 4.5,-0.671875 V -3.625 c 0,-0.421875 0.25,-0.453125 0.78125,-0.453125 v -0.21875 z m 0,0"
               style="stroke:none" />
          </g>
          <g
             transform="translate(210.13, 134.765)"
             id="g4118">
            <path
               id="id-56d2a689-3b45-41af-9e56-6d6f9944261e"
               d="m 0.109375,-2.4375 v 0.578125 h 2.65625 V -2.4375 Z m 0,0"
               style="stroke:none" />
          </g>
          <g
             transform="translate(213.451, 134.765)"
             id="g4121">
            <path
               id="id-46de2b8a-5f26-4040-9aba-c2dc58a20f2f"
               d="M 1.328125,-3.296875 H 1.3125 C 1.3125,-4.1875 1.359375,-5.203125 2,-5.890625 2.28125,-6.1875 2.640625,-6.40625 3.078125,-6.40625 3.40625,-6.40625 3.734375,-6.265625 3.9375,-6 3.90625,-6.015625 3.875,-6.015625 3.84375,-6.015625 c -0.265625,0 -0.453125,0.203125 -0.453125,0.46875 0,0.25 0.203125,0.453125 0.453125,0.453125 0.265625,0 0.46875,-0.1875 0.46875,-0.515625 0,-0.734375 -0.6875,-1.046875 -1.28125,-1.046875 -1.671875,0 -2.609375,1.890625 -2.609375,3.390625 0,1.375 0.28125,3.46875 2.125,3.46875 1.21875,0 2.015625,-1.125 2.015625,-2.25 C 4.5625,-3.09375 3.84375,-4.25 2.65625,-4.25 2.078125,-4.25 1.5,-3.953125 1.328125,-3.296875 Z m 0,1.171875 v -0.09375 c 0,-0.6875 0.25,-1.8125 1.234375,-1.8125 1.09375,0 1.09375,1.3125 1.09375,1.921875 v 0.1875 c 0,0.671875 -0.0625,1.859375 -1.140625,1.859375 -0.859375,0 -1.125,-0.96875 -1.171875,-1.75 0,-0.09375 0,-0.21875 -0.015625,-0.3125 z m 0,0"
               style="stroke:none" />
          </g>
          <g
             transform="translate(218.431, 134.765)"
             id="g4124">
            <path
               id="id-7e45f36f-c50a-4dda-b8b2-471a84da064d"
               d="M 0.890625,-5.328125 C 1.125,-5.828125 1.5,-6.34375 2.21875,-6.34375 c 0.9375,0 1.34375,0.859375 1.34375,1.640625 0,0.921875 -0.609375,1.671875 -1.1875,2.328125 -0.5625,0.671875 -1.171875,1.3125 -1.75,1.96875 C 0.53125,-0.3125 0.5,-0.265625 0.5,-0.125 v 0.109375 H 4.203125 L 4.46875,-1.75 H 4.234375 C 4.140625,-1.296875 4.203125,-0.796875 3.6875,-0.796875 H 3.296875 C 3,-0.78125 2.71875,-0.78125 2.421875,-0.78125 c -0.390625,0 -0.765625,0 -1.140625,0 l 0.6875,-0.671875 c 0.28125,-0.265625 0.546875,-0.53125 0.828125,-0.78125 0.734375,-0.65625 1.671875,-1.375 1.671875,-2.484375 0,-1.125 -0.953125,-1.9375 -2.078125,-1.9375 C 1.4375,-6.65625 0.5,-5.9375 0.5,-4.859375 c 0,0.25 0.09375,0.5625 0.515625,0.5625 0.296875,0 0.53125,-0.203125 0.53125,-0.515625 0,-0.265625 -0.203125,-0.515625 -0.515625,-0.515625 -0.046875,0 -0.09375,0 -0.140625,0 z m 0,0"
               style="stroke:none" />
          </g>
        </g>
        <g
           id="id-1f422c94-58bb-410a-b4ea-7ab8695eb76b"
           style="fill:#000000;fill-opacity:1">
          <g
             transform="translate(226.729, 134.765)"
             id="g4128">
            <path
               id="id-c03e1640-bbd5-4087-9bd5-1111dfeca459"
               d="m 0.109375,-2.4375 v 0.578125 h 2.65625 V -2.4375 Z m 0,0"
               style="stroke:none" />
          </g>
        </g>
        <g
           id="id-3772cef1-8d0d-4af0-b3b4-38c4dc182ed1"
           style="fill:#000000;fill-opacity:1">
          <g
             transform="translate(233.377, 134.765)"
             id="g4132">
            <path
               id="id-d5c5a2fc-9c99-4daa-a27b-766c087c8044"
               d="m 3.234375,-2.421875 c -0.140625,0.046875 -0.28125,0.0625 -0.4375,0.0625 -0.46875,0 -0.75,-0.28125 -1.21875,-0.28125 -0.296875,0 -0.796875,0.109375 -0.796875,0.296875 0,0.03125 0.015625,0.0625 0.0625,0.078125 H 0.875 c 0.046875,0 0.125,-0.03125 0.171875,-0.046875 H 1.09375 c 0.4375,0 0.75,0.375 1.203125,0.375 0.328125,0 0.65625,-0.140625 0.953125,-0.28125 0,0.796875 -0.203125,1.703125 -1.078125,2.015625 C 2.0625,-0.171875 1.9375,-0.15625 1.828125,-0.15625 H 1.75 C 1.203125,-0.203125 0.78125,-0.515625 0.5625,-1.078125 0.53125,-1.15625 0.53125,-1.296875 0.40625,-1.296875 c -0.0625,0 -0.09375,0.015625 -0.109375,0.0625 v 0.03125 c 0,0.125 0.046875,0.25 0.109375,0.359375 0.265625,0.609375 0.859375,0.9375 1.515625,0.9375 1.1875,0 2.171875,-0.984375 2.171875,-2.25 0,-1.0625 -0.671875,-2.046875 -1.8125,-2.28125 -0.109375,-0.015625 -0.234375,-0.03125 -0.34375,-0.03125 -0.34375,0 -0.6875,0.09375 -0.96875,0.25 C 0.921875,-4.1875 0.875,-4.140625 0.8125,-4.140625 H 0.796875 c -0.09375,0 -0.28125,-0.265625 -0.421875,-0.265625 -0.078125,0 -0.09375,0.078125 -0.09375,0.15625 v 0.703125 c 0,0.03125 -0.015625,0.078125 -0.015625,0.125 0,0.109375 0.03125,0.1875 0.140625,0.1875 0.140625,0 0.1875,-0.28125 0.265625,-0.375 C 0.953125,-4 1.4375,-4.21875 1.90625,-4.21875 h 0.0625 c 0.90625,0.109375 1.265625,1.046875 1.265625,1.796875 z m 0,0"
               style="stroke:none" />
          </g>
          <g
             transform="translate(237.804, 134.765)"
             id="g4135">
            <path
               id="id-0c28d75b-1465-4503-8373-b86f661f2ea2"
               d="m 1.171875,-4.296875 v 0.21875 h 0.21875 c 0.3125,0 0.59375,0.046875 0.59375,0.453125 0,0.75 -0.03125,1.578125 -0.1875,2.3125 -0.09375,0.484375 -0.21875,1.21875 -0.8125,1.21875 -0.15625,0 -0.265625,-0.0625 -0.390625,-0.140625 0.25,-0.03125 0.4375,-0.171875 0.4375,-0.421875 0,-0.234375 -0.1875,-0.421875 -0.4375,-0.421875 -0.234375,0 -0.40625,0.171875 -0.40625,0.453125 0,0.453125 0.359375,0.78125 0.796875,0.78125 0.6875,0 0.921875,-0.71875 1.046875,-1.265625 0.15625,-0.75 0.203125,-1.546875 0.203125,-2.3125 V -3.625 C 2.234375,-3.84375 2.25,-4.046875 2.5,-4.078125 h 0.953125 c 0.25,0 0.34375,0.109375 0.34375,0.359375 v 3.03125 c 0,0.421875 -0.203125,0.453125 -0.78125,0.453125 v 0.21875 H 5.28125 v -0.21875 H 5.046875 C 4.765625,-0.234375 4.5,-0.265625 4.5,-0.671875 V -3.625 c 0,-0.421875 0.25,-0.453125 0.78125,-0.453125 v -0.21875 z m 0,0"
               style="stroke:none" />
          </g>
          <g
             transform="translate(243.337, 134.765)"
             id="g4138">
            <path
               id="id-db84b24d-16e3-4894-8dae-b0b2a962e3f2"
               d="m 1.109375,-2.3125 h 2.875 c 0.109375,0 0.15625,-0.0625 0.15625,-0.1875 0,-1.046875 -0.640625,-1.96875 -1.765625,-1.96875 -1.21875,0 -2.09375,1.09375 -2.09375,2.28125 0,0.90625 0.5,1.734375 1.390625,2.125 0.21875,0.109375 0.484375,0.15625 0.734375,0.15625 H 2.4375 c 0.765625,0 1.40625,-0.421875 1.671875,-1.1875 C 4.125,-1.125 4.125,-1.171875 4.125,-1.203125 4.125,-1.265625 4.09375,-1.3125 4.015625,-1.3125 3.875,-1.3125 3.8125,-0.984375 3.75,-0.875 3.5,-0.4375 3.015625,-0.15625 2.5,-0.15625 c -0.359375,0 -0.6875,-0.203125 -0.953125,-0.46875 -0.40625,-0.46875 -0.4375,-1.109375 -0.4375,-1.6875 z M 1.125,-2.515625 C 1.125,-3.296875 1.53125,-4.25 2.359375,-4.25 H 2.40625 c 0.96875,0.09375 0.96875,1.125 1.0625,1.734375 z m 0,0"
               style="stroke:none" />
          </g>
          <g
             transform="translate(247.763, 134.765)"
             id="g4141">
            <path
               id="id-e28585f0-2902-4410-95dc-af99778a68af"
               d="m 0.25,-4.296875 v 0.21875 h 0.234375 c 0.28125,0 0.546875,0.046875 0.546875,0.453125 v 2.953125 c 0,0.421875 -0.28125,0.4375 -0.78125,0.4375 v 0.21875 h 2.4375 v -0.21875 H 2.390625 c -0.359375,0 -0.671875,-0.03125 -0.671875,-0.46875 V -3.71875 c 0,-0.203125 0.078125,-0.359375 0.3125,-0.359375 h 0.625 c 0.671875,0 1.203125,0.046875 1.265625,1.390625 h 0.25 L 4.0625,-4.296875 Z m 0,0"
               style="stroke:none" />
          </g>
        </g>
        <g
           id="id-135a530b-95f5-486b-9710-ed9b99002fc1"
           style="fill:#000000;fill-opacity:1">
          <g
             transform="translate(251.911, 134.765)"
             id="g4145">
            <path
               id="id-1a0fff22-329e-4290-a642-ac7c1182c50f"
               d="m 1.109375,-3.796875 c 0.25,-0.3125 0.6875,-0.453125 1.0625,-0.453125 0.734375,0 1.0625,0.671875 1.0625,1.375 v 0.265625 c -1.140625,0 -2.828125,0.359375 -2.828125,1.65625 V -0.875 c 0.078125,0.78125 1.046875,0.96875 1.625,0.96875 0.5,0 1.15625,-0.328125 1.28125,-0.84375 0.0625,0.4375 0.34375,0.796875 0.78125,0.796875 0.40625,0 0.765625,-0.328125 0.828125,-0.78125 v -0.71875 h -0.25 v 0.5 c 0,0.28125 -0.0625,0.6875 -0.359375,0.6875 -0.328125,0 -0.375,-0.390625 -0.375,-0.65625 V -2.59375 c 0,-0.125 0.015625,-0.25 0.015625,-0.375 0,-0.96875 -0.90625,-1.5 -1.734375,-1.5 -0.640625,0 -1.515625,0.3125 -1.515625,1.109375 0,0.28125 0.203125,0.484375 0.46875,0.484375 0.28125,0 0.4375,-0.21875 0.4375,-0.46875 0,-0.28125 -0.21875,-0.453125 -0.5,-0.453125 z m 2.125,1.390625 v 1.015625 c 0,0.6875 -0.46875,1.234375 -1.125,1.265625 H 2.078125 C 1.609375,-0.125 1.1875,-0.484375 1.1875,-0.96875 V -1.015625 C 1.25,-2.03125 2.375,-2.375 3.234375,-2.40625 Z m 0,0"
               style="stroke:none" />
          </g>
          <g
             transform="translate(256.891, 134.765)"
             id="g4148">
            <path
               id="id-f1e749ae-9cd1-4755-a312-a2b6c6e21b12"
               d="m 0.25,-4.296875 v 0.21875 h 0.234375 c 0.28125,0 0.546875,0.046875 0.546875,0.453125 v 2.953125 c 0,0.421875 -0.28125,0.4375 -0.78125,0.4375 v 0.21875 H 2.5 v -0.21875 H 2.265625 c -0.296875,0 -0.546875,-0.03125 -0.546875,-0.4375 0,-0.078125 0,-0.15625 0,-0.21875 v -1.375 h 2.078125 v 1.375 c 0,0.0625 0.015625,0.140625 0.015625,0.21875 0,0.4375 -0.328125,0.4375 -0.796875,0.4375 v 0.21875 H 5.28125 v -0.21875 H 5.046875 C 4.765625,-0.234375 4.5,-0.265625 4.5,-0.671875 V -3.625 c 0,-0.421875 0.25,-0.453125 0.78125,-0.453125 v -0.21875 H 3.015625 v 0.21875 h 0.21875 c 0.28125,0 0.5625,0.046875 0.5625,0.421875 v 1.1875 H 1.71875 v -1.1875 c 0,-0.328125 0.125,-0.421875 0.78125,-0.421875 v -0.21875 z m 0,0"
               style="stroke:none" />
          </g>
          <g
             transform="translate(262.424, 134.765)"
             id="g4151">
            <path
               id="id-8ad778bc-f4e5-483f-8fcd-6505e22a0367"
               d="M 0.359375,-4.296875 0.25,-2.6875 H 0.5 c 0.015625,-0.375 0.03125,-0.875 0.234375,-1.125 C 0.921875,-4.03125 1.25,-4.078125 1.53125,-4.078125 h 0.1875 c 0.234375,0 0.421875,0.015625 0.421875,0.375 v 2.96875 c 0,0.453125 -0.375,0.515625 -0.75,0.515625 -0.109375,0 -0.25,-0.015625 -0.359375,-0.015625 v 0.21875 h 2.890625 v -0.21875 c -0.125,0 -0.25,0.015625 -0.375,0.015625 -0.375,0 -0.71875,-0.0625 -0.71875,-0.515625 v -2.96875 c 0,-0.203125 0,-0.375 0.421875,-0.375 h 0.1875 c 0.625,0 0.984375,0.203125 1.03125,1.390625 h 0.25 L 4.609375,-4.296875 Z m 0,0"
               style="stroke:none" />
          </g>
          <g
             transform="translate(267.404, 134.765)"
             id="g4154">
            <path
               id="id-d7a31380-f7a7-489a-bcf6-7f0cf69ff5f6"
               d="m 0.25,-4.296875 v 0.21875 h 0.234375 c 0.28125,0 0.546875,0.046875 0.546875,0.453125 v 2.953125 c 0,0.421875 -0.28125,0.4375 -0.78125,0.4375 v 0.21875 H 2.5 v -0.21875 H 2.265625 c -0.296875,0 -0.546875,-0.03125 -0.546875,-0.4375 0,-0.078125 0,-0.15625 0,-0.21875 v -1.375 h 2.078125 v 1.375 c 0,0.0625 0.015625,0.140625 0.015625,0.21875 0,0.4375 -0.328125,0.4375 -0.796875,0.4375 v 0.21875 H 5.28125 v -0.21875 H 5.046875 C 4.765625,-0.234375 4.5,-0.265625 4.5,-0.671875 V -3.625 c 0,-0.421875 0.25,-0.453125 0.78125,-0.453125 v -0.21875 H 3.015625 v 0.21875 h 0.21875 c 0.28125,0 0.5625,0.046875 0.5625,0.421875 v 1.1875 H 1.71875 v -1.1875 c 0,-0.328125 0.125,-0.421875 0.78125,-0.421875 v -0.21875 z m 0,0"
               style="stroke:none" />
          </g>
          <g
             transform="translate(272.938, 134.765)"
             id="g4157">
            <path
               id="id-d4ec3c8f-cb91-4903-a4da-79c99dcb0389"
               d="m 0.265625,-4.296875 v 0.21875 h 0.21875 c 0.296875,0 0.546875,0.046875 0.546875,0.453125 v 2.953125 c 0,0.421875 -0.265625,0.4375 -0.765625,0.4375 v 0.21875 H 3.03125 c 0.703125,-0.03125 1.609375,-0.4375 1.609375,-1.234375 0,-0.75 -0.875,-1.21875 -1.578125,-1.21875 H 1.734375 v -1.1875 c 0,-0.34375 0.171875,-0.421875 0.78125,-0.421875 v -0.21875 z m 4.40625,0 v 0.21875 h 0.21875 c 0.296875,0 0.5625,0.046875 0.5625,0.453125 v 2.921875 c 0,0.40625 -0.203125,0.46875 -0.78125,0.46875 v 0.21875 h 2.25 v -0.21875 h -0.1875 c -0.3125,0 -0.578125,-0.03125 -0.578125,-0.453125 V -3.625 c 0,-0.390625 0.203125,-0.453125 0.765625,-0.453125 v -0.21875 z m -2.9375,2.03125 H 2.625 c 0.578125,0 1.1875,0.375 1.1875,1.015625 v 0.03125 c 0,0.46875 -0.453125,0.859375 -0.875,0.9375 -0.15625,0.015625 -0.3125,0.015625 -0.453125,0.015625 H 1.953125 C 1.75,-0.265625 1.734375,-0.46875 1.734375,-0.625 Z m 0,0"
               style="stroke:none" />
          </g>
          <g
             transform="translate(280.131, 134.765)"
             id="g4160">
            <path
               id="id-4424bc15-d0e2-47c0-8de7-d37c92d35101"
               d="m 0.25,-4.296875 v 0.21875 h 0.234375 c 0.28125,0 0.546875,0.046875 0.546875,0.453125 v 2.953125 c 0,0.421875 -0.28125,0.4375 -0.78125,0.4375 v 0.21875 H 2.5 v -0.21875 H 2.328125 C 2.03125,-0.234375 1.71875,-0.265625 1.71875,-0.625 1.734375,-0.71875 1.828125,-0.78125 1.875,-0.859375 L 2.265625,-1.34375 C 2.78125,-1.96875 3.25,-2.65625 3.796875,-3.25 v 2.578125 c 0,0.34375 -0.140625,0.4375 -0.78125,0.4375 v 0.21875 H 5.28125 v -0.21875 H 5.046875 C 4.765625,-0.234375 4.5,-0.265625 4.5,-0.671875 V -3.625 c 0,-0.421875 0.25,-0.453125 0.78125,-0.453125 v -0.21875 H 3.015625 v 0.21875 h 0.1875 c 0.28125,0 0.59375,0.03125 0.59375,0.40625 -0.015625,0.078125 -0.09375,0.15625 -0.140625,0.21875 l -0.390625,0.5 c -0.53125,0.625 -1,1.296875 -1.546875,1.890625 v -2.578125 c 0,-0.34375 0.140625,-0.4375 0.78125,-0.4375 v -0.21875 z m 3.328125,-0.84375 -0.296875,0.0625 -0.71875,0.03125 -0.625,-0.09375 C 2.140625,-5.25 2.265625,-5.375 2.296875,-5.59375 c 0,-0.3125 -0.234375,-0.53125 -0.5,-0.53125 -0.296875,0 -0.5,0.25 -0.5,0.515625 0,0.71875 1,0.875 1.5,0.875 0.578125,0 1.390625,-0.203125 1.4375,-0.84375 V -5.625 c 0,-0.28125 -0.25,-0.5 -0.5,-0.5 -0.3125,0 -0.5,0.25 -0.5,0.5 0,0.234375 0.140625,0.40625 0.34375,0.484375 z m 0,0"
               style="stroke:none" />
          </g>
        </g>
        <g
           id="id-586e51aa-45e5-48d2-8807-6cc351599094"
           style="fill:#000000;fill-opacity:1">
          <g
             transform="translate(288.981, 134.765)"
             id="g4164">
            <path
               id="id-0d6b7107-7924-4148-a277-e82151fd465b"
               d="m 3.578125,-3.859375 c -0.265625,0.015625 -0.46875,0.1875 -0.46875,0.453125 0,0.28125 0.1875,0.46875 0.453125,0.46875 0.3125,0 0.46875,-0.21875 0.46875,-0.5 V -3.5 C 3.921875,-4.234375 3.078125,-4.46875 2.5,-4.46875 c -1.21875,0 -2.171875,1.0625 -2.171875,2.3125 0,1.125 0.875,2.25 2.171875,2.25 0.65625,0 1.296875,-0.359375 1.5625,-1.046875 0.03125,-0.0625 0.078125,-0.15625 0.078125,-0.21875 0,-0.078125 -0.046875,-0.125 -0.125,-0.125 -0.140625,0 -0.234375,0.375 -0.3125,0.515625 -0.234375,0.375 -0.640625,0.625 -1.09375,0.625 -1.0625,0 -1.390625,-1.0625 -1.4375,-1.84375 v -0.125 c 0,-0.796875 0.1875,-1.984375 1.28125,-2.09375 H 2.53125 c 0.375,0 0.765625,0.109375 1.046875,0.359375 z m 0,0"
               style="stroke:none" />
          </g>
          <g
             transform="translate(293.408, 134.765)"
             id="g4167">
            <path
               id="id-94a331a9-1b9d-4d89-8434-ffb74d1cc30b"
               d="m 1.109375,-3.796875 c 0.25,-0.3125 0.6875,-0.453125 1.0625,-0.453125 0.734375,0 1.0625,0.671875 1.0625,1.375 v 0.265625 c -1.140625,0 -2.828125,0.359375 -2.828125,1.65625 V -0.875 c 0.078125,0.78125 1.046875,0.96875 1.625,0.96875 0.5,0 1.15625,-0.328125 1.28125,-0.84375 0.0625,0.4375 0.34375,0.796875 0.78125,0.796875 0.40625,0 0.765625,-0.328125 0.828125,-0.78125 v -0.71875 h -0.25 v 0.5 c 0,0.28125 -0.0625,0.6875 -0.359375,0.6875 -0.328125,0 -0.375,-0.390625 -0.375,-0.65625 V -2.59375 c 0,-0.125 0.015625,-0.25 0.015625,-0.375 0,-0.96875 -0.90625,-1.5 -1.734375,-1.5 -0.640625,0 -1.515625,0.3125 -1.515625,1.109375 0,0.28125 0.203125,0.484375 0.46875,0.484375 0.28125,0 0.4375,-0.21875 0.4375,-0.46875 0,-0.28125 -0.21875,-0.453125 -0.5,-0.453125 z m 2.125,1.390625 v 1.015625 c 0,0.6875 -0.46875,1.234375 -1.125,1.265625 H 2.078125 C 1.609375,-0.125 1.1875,-0.484375 1.1875,-0.96875 V -1.015625 C 1.25,-2.03125 2.375,-2.375 3.234375,-2.40625 Z m 0,0"
               style="stroke:none" />
          </g>
          <g
             transform="translate(298.388, 134.765)"
             id="g4170">
            <path
               id="id-986681cd-4209-46db-95f1-80cac286c1e4"
               d="m 0.296875,-4.296875 v 0.21875 h 0.21875 c 0.296875,0 0.5625,0.046875 0.5625,0.421875 v 2.625 c 0,0.625 -0.34375,0.796875 -0.78125,0.796875 v 0.21875 h 1.84375 v -0.21875 C 1.734375,-0.234375 1.359375,-0.375 1.359375,-1 v -2.953125 c 0.03125,0.125 0.109375,0.25 0.171875,0.390625 0.453125,1.125 0.90625,2.25 1.421875,3.359375 0.03125,0.078125 0.078125,0.1875 0.171875,0.1875 H 3.140625 C 3.25,-0.03125 3.296875,-0.15625 3.328125,-0.25 L 3.625,-0.96875 C 4,-1.859375 4.375,-2.75 4.765625,-3.640625 4.828125,-3.78125 4.890625,-3.921875 4.9375,-4.0625 v 3.421875 c 0,0.40625 -0.328125,0.40625 -0.703125,0.40625 h -0.0625 v 0.21875 H 6.34375 v -0.21875 H 6.109375 c -0.28125,0 -0.546875,-0.03125 -0.546875,-0.4375 V -3.625 c 0,-0.421875 0.265625,-0.453125 0.78125,-0.453125 v -0.21875 H 5.046875 c -0.21875,0 -0.265625,0.125 -0.328125,0.296875 -0.09375,0.234375 -0.1875,0.453125 -0.28125,0.6875 l -0.75,1.75 C 3.5625,-1.28125 3.484375,-1 3.34375,-0.75 2.90625,-1.828125 2.40625,-2.90625 1.96875,-4 1.890625,-4.140625 1.890625,-4.296875 1.640625,-4.296875 Z m 0,0"
               style="stroke:none" />
          </g>
          <g
             transform="translate(305.028, 134.765)"
             id="g4173">
            <path
               id="id-6264ae6e-008f-4d03-af1b-bd4a200ce6fa"
               d="m 2.34375,-4.46875 c -1.25,0.125 -2.0625,1.1875 -2.0625,2.34375 0,1.125 0.890625,2.21875 2.21875,2.21875 1.1875,0 2.1875,-0.96875 2.1875,-2.234375 0,-1.171875 -0.890625,-2.328125 -2.21875,-2.328125 -0.03125,0 -0.09375,0 -0.125,0 z m -1.234375,2.578125 v -0.4375 c 0,-0.765625 0.25,-1.921875 1.375,-1.921875 0.8125,0 1.265625,0.6875 1.359375,1.4375 0.015625,0.21875 0.015625,0.4375 0.015625,0.65625 0,0.640625 -0.078125,1.453125 -0.703125,1.8125 C 2.953125,-0.203125 2.734375,-0.15625 2.5,-0.15625 1.78125,-0.15625 1.265625,-0.71875 1.15625,-1.5 1.140625,-1.625 1.140625,-1.765625 1.109375,-1.890625 Z m 0,0"
               style="stroke:none" />
          </g>
          <g
             transform="translate(310.008, 134.765)"
             id="g4176">
            <path
               id="id-c577173c-d685-4805-af50-5d2f9130ef3b"
               d="m 1.171875,-4.296875 v 0.21875 h 0.21875 c 0.3125,0 0.59375,0.046875 0.59375,0.453125 0,0.75 -0.03125,1.578125 -0.1875,2.3125 -0.09375,0.484375 -0.21875,1.21875 -0.8125,1.21875 -0.15625,0 -0.265625,-0.0625 -0.390625,-0.140625 0.25,-0.03125 0.4375,-0.171875 0.4375,-0.421875 0,-0.234375 -0.1875,-0.421875 -0.4375,-0.421875 -0.234375,0 -0.40625,0.171875 -0.40625,0.453125 0,0.453125 0.359375,0.78125 0.796875,0.78125 0.6875,0 0.921875,-0.71875 1.046875,-1.265625 0.15625,-0.75 0.203125,-1.546875 0.203125,-2.3125 V -3.625 C 2.234375,-3.84375 2.25,-4.046875 2.5,-4.078125 h 0.953125 c 0.25,0 0.34375,0.109375 0.34375,0.359375 v 3.03125 c 0,0.421875 -0.203125,0.453125 -0.78125,0.453125 v 0.21875 H 5.28125 v -0.21875 H 5.046875 C 4.765625,-0.234375 4.5,-0.265625 4.5,-0.671875 V -3.625 c 0,-0.421875 0.25,-0.453125 0.78125,-0.453125 v -0.21875 z m 0,0"
               style="stroke:none" />
          </g>
          <g
             transform="translate(315.542, 134.765)"
             id="g4179">
            <path
               id="id-9cb5e584-8a02-4f42-b902-49033574826b"
               d="m 1.109375,-2.3125 h 2.875 c 0.109375,0 0.15625,-0.0625 0.15625,-0.1875 0,-1.046875 -0.640625,-1.96875 -1.765625,-1.96875 -1.21875,0 -2.09375,1.09375 -2.09375,2.28125 0,0.90625 0.5,1.734375 1.390625,2.125 0.21875,0.109375 0.484375,0.15625 0.734375,0.15625 H 2.4375 c 0.765625,0 1.40625,-0.421875 1.671875,-1.1875 C 4.125,-1.125 4.125,-1.171875 4.125,-1.203125 4.125,-1.265625 4.09375,-1.3125 4.015625,-1.3125 3.875,-1.3125 3.8125,-0.984375 3.75,-0.875 3.5,-0.4375 3.015625,-0.15625 2.5,-0.15625 c -0.359375,0 -0.6875,-0.203125 -0.953125,-0.46875 -0.40625,-0.46875 -0.4375,-1.109375 -0.4375,-1.6875 z M 1.125,-2.515625 C 1.125,-3.296875 1.53125,-4.25 2.359375,-4.25 H 2.40625 c 0.96875,0.09375 0.96875,1.125 1.0625,1.734375 z m 0,0"
               style="stroke:none" />
          </g>
          <g
             transform="translate(319.968, 134.765)"
             id="g4182">
            <path
               id="id-01e7b5fe-70ae-42e9-ab71-9af1babfe0ae"
               d="M 0.359375,-4.296875 0.25,-2.6875 H 0.5 c 0.015625,-0.375 0.03125,-0.875 0.234375,-1.125 C 0.921875,-4.03125 1.25,-4.078125 1.53125,-4.078125 h 0.1875 c 0.234375,0 0.421875,0.015625 0.421875,0.375 v 2.96875 c 0,0.453125 -0.375,0.515625 -0.75,0.515625 -0.109375,0 -0.25,-0.015625 -0.359375,-0.015625 v 0.21875 h 2.890625 v -0.21875 c -0.125,0 -0.25,0.015625 -0.375,0.015625 -0.375,0 -0.71875,-0.0625 -0.71875,-0.515625 v -2.96875 c 0,-0.203125 0,-0.375 0.421875,-0.375 h 0.1875 c 0.625,0 0.984375,0.203125 1.03125,1.390625 h 0.25 L 4.609375,-4.296875 Z m 0,0"
               style="stroke:none" />
          </g>
          <g
             transform="translate(324.948, 134.765)"
             id="g4185">
            <path
               id="id-90ddeeee-f26f-469d-ae8e-f482b3a454b4"
               d="m 1.3125,-7.140625 c -0.3125,0 -0.453125,0.296875 -0.453125,0.5625 0,0.140625 0.03125,0.296875 0.03125,0.4375 0.078125,1.03125 0.203125,2.0625 0.28125,3.09375 0.015625,0.3125 0.046875,0.609375 0.078125,0.90625 0,0.109375 -0.015625,0.25 0.109375,0.265625 h 0.0625 c 0.125,-0.015625 0.09375,-0.203125 0.109375,-0.296875 C 1.6875,-3.5625 1.765625,-4.953125 1.890625,-6.34375 1.90625,-6.4375 1.90625,-6.53125 1.90625,-6.625 c 0,-0.3125 -0.234375,-0.515625 -0.515625,-0.515625 -0.03125,0 -0.0625,0 -0.078125,0 z m 0,6.078125 c -0.25,0.03125 -0.453125,0.25 -0.453125,0.53125 0,0.28125 0.25,0.515625 0.53125,0.515625 0.265625,0 0.515625,-0.21875 0.515625,-0.515625 0,-0.296875 -0.234375,-0.53125 -0.515625,-0.53125 -0.03125,0 -0.0625,0 -0.078125,0 z m 0,0"
               style="stroke:none" />
          </g>
        </g>
      </g>
    </g>
  </g>
</svg>
