<?xml version="1.0" encoding="UTF-8" standalone="no"?>
<!-- Created with Inkscape (http://www.inkscape.org/) -->

<svg
   xmlns:ns0="http://www.iki.fi/pav/software/textext/"
   xmlns:dc="http://purl.org/dc/elements/1.1/"
   xmlns:cc="http://creativecommons.org/ns#"
   xmlns:rdf="http://www.w3.org/1999/02/22-rdf-syntax-ns#"
   xmlns:svg="http://www.w3.org/2000/svg"
   xmlns="http://www.w3.org/2000/svg"
   xmlns:sodipodi="http://sodipodi.sourceforge.net/DTD/sodipodi-0.dtd"
   xmlns:inkscape="http://www.inkscape.org/namespaces/inkscape"
   width="210mm"
   height="297mm"
   viewBox="0 0 210 296.99999"
   version="1.1"
   id="svg8"
   inkscape:version="0.92.3 (2405546, 2018-03-11)"
   sodipodi:docname="original.svg">
  <sodipodi:namedview
     id="base"
     pagecolor="#ffffff"
     bordercolor="#666666"
     borderopacity="1.0"
     inkscape:pageopacity="0.0"
     inkscape:pageshadow="2"
     inkscape:zoom="0.5"
     inkscape:cx="627.79778"
     inkscape:cy="441.22451"
     inkscape:document-units="mm"
     inkscape:current-layer="layer1"
     showgrid="false"
     inkscape:window-width="2560"
     inkscape:window-height="1007"
     inkscape:window-x="0"
     inkscape:window-y="0"
     inkscape:window-maximized="1" />
  <defs
     id="defs2" />
  <metadata
     id="metadata5">
    <rdf:RDF>
      <cc:Work
         rdf:about="">
        <dc:format>image/svg+xml</dc:format>
        <dc:type
           rdf:resource="http://purl.org/dc/dcmitype/StillImage" />
        <dc:title />
      </cc:Work>
    </rdf:RDF>
  </metadata>
  <g
     id="layer1"
     inkscape:groupmode="layer"
     inkscape:label="Layer 1">
    <g
       ns0:inkscapeversion="0.92.3"
       ns0:scale="1.0"
       ns0:preamble="/home/sergei/.config/inkscape/extensions/default_packages.tex"
       ns0:text="$$\\lim_{x \\to 0} \\frac{\\sin(x)}{x} = 1$$"
       ns0:pdfconverter="pstoedit"
       ns0:texconverter="pdflatex"
       ns0:version="0.7.2"
       word-spacing="normal"
       letter-spacing="normal"
       font-size-adjust="none"
       font-stretch="normal"
       font-weight="normal"
       font-variant="normal"
       font-style="normal"
       stroke-miterlimit="10.433"
       xml:space="preserve"
       transform="matrix(0.705556,0,0,-0.705556,-110.47321,639.24227)"
       id="content"
       style="font-style:normal;font-variant:normal;font-weight:normal;font-stretch:normal;letter-spacing:normal;word-spacing:normal;text-anchor:start;fill:#000000;fill-opacity:1;fill-rule:evenodd;stroke:#000000;stroke-linecap:butt;stroke-linejoin:miter;stroke-miterlimit:10.43299961;stroke-dasharray:none;stroke-dashoffset:0;stroke-opacity:1">
<path
   id="path815"
   d="m 276.48,698.81 -1.44,-0.11 v -0.31 c 0.7,0 0.78,-0.07 0.78,-0.55 v -5.17 c 0,-0.45 -0.11,-0.45 -0.78,-0.45 v -0.3 c 0.33,0.01 0.86,0.03 1.11,0.03 0.24,0 0.73,-0.02 1.1,-0.03 v 0.3 c -0.67,0 -0.77,0 -0.77,0.45 z"
   inkscape:connector-curvature="0"
   style="fill:#000000;stroke-width:0" />
<path
   id="path817"
   d="m 279.24,696.31 -1.39,-0.11 v -0.31 c 0.64,0 0.73,-0.06 0.73,-0.55 v -2.67 c 0,-0.45 -0.1,-0.45 -0.77,-0.45 v -0.3 c 0.32,0.01 0.85,0.03 1.09,0.03 0.35,0 0.7,-0.02 1.04,-0.03 v 0.3 c -0.66,0 -0.7,0.06 -0.7,0.44 z"
   inkscape:connector-curvature="0"
   style="fill:#000000;stroke-width:0" />
<path
   id="path819"
   d="m 279.28,698.04 v 0.03 0.02 0.03 l -0.01,0.03 v 0.03 l -0.01,0.02 -0.01,0.03 -0.01,0.02 -0.01,0.03 -0.01,0.02 -0.02,0.02 -0.01,0.02 -0.02,0.02 -0.01,0.02 -0.02,0.02 -0.02,0.02 -0.02,0.02 -0.01,0.01 -0.03,0.02 -0.02,0.01 -0.02,0.01 -0.02,0.01 -0.02,0.02 -0.03,0.01 h -0.02 l -0.02,0.01 -0.03,0.01 h -0.02 l -0.03,0.01 h -0.02 -0.03 -0.03 c -0.3,0 -0.52,-0.27 -0.52,-0.52 0,-0.27 0.22,-0.53 0.52,-0.53 0.28,0 0.53,0.21 0.53,0.53 z"
   inkscape:connector-curvature="0"
   style="fill:#000000;stroke-width:0" />
<path
   id="path821"
   d="m 281.34,695.33 v -2.66 c 0,-0.45 -0.11,-0.45 -0.78,-0.45 v -0.3 c 0.35,0.01 0.86,0.03 1.13,0.03 0.26,0 0.78,-0.02 1.12,-0.03 v 0.3 c -0.67,0 -0.78,0 -0.78,0.45 v 1.83 c 0,1.03 0.71,1.59 1.35,1.59 0.63,0 0.73,-0.54 0.73,-1.1 v -2.32 c 0,-0.45 -0.1,-0.45 -0.77,-0.45 v -0.3 c 0.35,0.01 0.85,0.03 1.12,0.03 0.26,0 0.78,-0.02 1.12,-0.03 v 0.3 c -0.67,0 -0.78,0 -0.78,0.45 v 1.83 c 0,1.03 0.71,1.59 1.35,1.59 0.63,0 0.74,-0.54 0.74,-1.1 v -2.32 c 0,-0.45 -0.11,-0.45 -0.78,-0.45 v -0.3 c 0.35,0.01 0.86,0.03 1.13,0.03 0.25,0 0.77,-0.02 1.11,-0.03 v 0.3 c -0.52,0 -0.77,0 -0.77,0.3 v 1.9 c 0,0.86 0,1.16 -0.31,1.52 -0.14,0.17 -0.47,0.37 -1.05,0.37 -0.84,0 -1.28,-0.6 -1.45,-0.98 -0.14,0.87 -0.88,0.98 -1.32,0.98 -0.73,0 -1.2,-0.43 -1.48,-1.04 v 1.04 l -1.41,-0.11 v -0.31 c 0.7,0 0.78,-0.07 0.78,-0.56 z"
   inkscape:connector-curvature="0"
   style="fill:#000000;stroke-width:0" />
<path
   id="path823"
   d="m 275.15,686.5 v -0.02 l -0.01,-0.03 -0.01,-0.02 -0.01,-0.03 -0.01,-0.02 -0.01,-0.03 -0.01,-0.02 -0.02,-0.03 -0.01,-0.02 -0.02,-0.03 -0.01,-0.02 -0.02,-0.03 -0.02,-0.02 -0.02,-0.03 -0.02,-0.02 -0.02,-0.03 -0.02,-0.02 -0.02,-0.02 -0.02,-0.02 -0.03,-0.02 -0.02,-0.02 -0.03,-0.02 -0.02,-0.02 -0.03,-0.01 -0.03,-0.01 -0.03,-0.02 -0.03,-0.01 -0.03,-0.01 h -0.03 l -0.03,-0.01 h -0.03 -0.03 c -0.02,0 -0.23,0 -0.38,0.09 0.29,0.1 0.31,0.35 0.31,0.39 0,0.15 -0.12,0.25 -0.28,0.25 -0.2,0 -0.4,-0.16 -0.4,-0.42 0,-0.35 0.39,-0.51 0.73,-0.51 0.32,0 0.61,0.2 0.79,0.5 0.16,-0.37 0.55,-0.5 0.83,-0.5 0.8,0 1.23,0.87 1.23,1.07 0,0.09 -0.09,0.09 -0.11,0.09 -0.1,0 -0.11,-0.04 -0.14,-0.12 -0.14,-0.48 -0.56,-0.84 -0.95,-0.84 -0.28,0 -0.43,0.19 -0.43,0.45 0,0.18 0.17,0.81 0.36,1.58 0.14,0.54 0.46,0.71 0.69,0.71 0.01,0 0.23,0 0.38,-0.09 -0.23,-0.07 -0.31,-0.26 -0.31,-0.39 0,-0.15 0.12,-0.25 0.28,-0.25 0.16,0 0.39,0.13 0.39,0.42 0,0.39 -0.45,0.51 -0.73,0.51 -0.35,0 -0.63,-0.23 -0.78,-0.49 -0.13,0.28 -0.45,0.49 -0.84,0.49 -0.78,0 -1.23,-0.86 -1.23,-1.06 0,-0.1 0.1,-0.1 0.12,-0.1 0.09,0 0.1,0.03 0.13,0.12 0.18,0.55 0.62,0.84 0.96,0.84 0.23,0 0.42,-0.12 0.42,-0.46 0,-0.13 -0.09,-0.48 -0.15,-0.72 z"
   inkscape:connector-curvature="0"
   style="fill:#000000;stroke-width:0" />
<path
   id="path825"
   d="m 284.36,687.33 -0.08,-0.06 -0.07,-0.06 -0.07,-0.06 -0.07,-0.07 -0.07,-0.06 -0.06,-0.07 -0.05,-0.06 -0.05,-0.07 -0.05,-0.06 -0.05,-0.07 -0.04,-0.06 -0.04,-0.07 -0.04,-0.06 -0.03,-0.06 -0.03,-0.06 -0.03,-0.06 -0.02,-0.06 -0.02,-0.05 -0.02,-0.06 -0.02,-0.05 -0.02,-0.04 -0.01,-0.05 -0.01,-0.04 -0.01,-0.04 -0.01,-0.03 -0.01,-0.03 v -0.03 l -0.01,-0.02 v -0.02 -0.01 l -0.01,-0.01 v 0 c 0,-0.11 0.07,-0.11 0.17,-0.11 0.13,0 0.15,0 0.18,0.12 0.05,0.17 0.16,0.62 0.52,1 0.41,0.43 0.76,0.53 1.05,0.62 0.04,0.01 0.07,0.06 0.07,0.09 0,0.07 -0.04,0.08 -0.13,0.11 -1.01,0.32 -1.37,1.03 -1.51,1.64 -0.03,0.09 -0.08,0.09 -0.18,0.09 -0.1,0 -0.17,0 -0.17,-0.11 0,-0.01 0.07,-0.48 0.42,-0.96 0.16,-0.23 0.35,-0.43 0.58,-0.6 h -5.61 c -0.11,0 -0.28,0 -0.28,-0.16 0,-0.18 0.16,-0.18 0.28,-0.18 z"
   inkscape:connector-curvature="0"
   style="fill:#000000;stroke-width:0" />
<path
   id="path827"
   d="m 289.48,687.98 v 0.14 0.14 l -0.01,0.13 -0.01,0.13 -0.01,0.12 -0.01,0.12 -0.02,0.11 -0.02,0.11 -0.03,0.11 -0.03,0.11 -0.03,0.1 -0.04,0.1 -0.04,0.1 -0.05,0.1 -0.05,0.09 -0.03,0.05 -0.03,0.04 c -0.22,0.32 -0.65,0.6 -1.21,0.6 v -0.2 c 0.38,0 0.74,-0.22 0.87,-0.63 0.11,-0.37 0.12,-0.87 0.12,-1.48 0,-0.51 0,-1.03 -0.1,-1.47 -0.14,-0.63 -0.61,-0.78 -0.89,-0.78 v 0 c -0.32,0 -0.75,0.19 -0.89,0.76 -0.1,0.41 -0.1,0.98 -0.1,1.49 0,0.51 0,1.04 0.11,1.42 0.14,0.55 0.59,0.69 0.88,0.69 v 0.2 c -1.62,0 -1.62,-1.9 -1.62,-2.4 0,-0.5 0,-2.36 1.62,-2.36 1.62,0 1.62,1.86 1.62,2.36 z"
   inkscape:connector-curvature="0"
   style="fill:#000000;stroke-width:0" />
<path
   id="path829"
   d="m 294.77,700.58 h 0.03 l 0.02,-0.01 h 0.03 l 0.03,-0.01 0.04,-0.01 h 0.03 l 0.04,-0.01 0.04,-0.02 0.04,-0.01 0.04,-0.01 0.05,-0.02 0.04,-0.01 0.04,-0.02 0.05,-0.02 0.04,-0.03 0.04,-0.02 0.05,-0.03 0.04,-0.02 0.04,-0.03 0.04,-0.04 0.04,-0.03 0.03,-0.04 0.04,-0.04 0.03,-0.04 0.03,-0.05 0.01,-0.02 0.01,-0.02 0.02,-0.03 0.01,-0.02 0.01,-0.03 0.01,-0.03 v -0.02 l 0.01,-0.03 0.01,-0.03 v -0.03 l 0.01,-0.03 v -0.03 -0.04 -0.03 c 0,-0.51 -0.35,-0.9 -1.13,-0.9 -0.83,0 -1.19,0.56 -1.38,1.41 -0.03,0.13 -0.04,0.17 -0.14,0.17 -0.13,0 -0.13,-0.07 -0.13,-0.25 v -1.31 c 0,-0.17 0,-0.24 0.11,-0.24 0.05,0 0.06,0.01 0.25,0.2 0.02,0.02 0.02,0.04 0.2,0.22 0.44,-0.41 0.89,-0.42 1.09,-0.42 1.15,0 1.61,0.66 1.61,1.38 0,0.53 -0.3,0.82 -0.42,0.94 -0.33,0.32 -0.72,0.4 -1.14,0.48 -0.55,0.11 -1.22,0.24 -1.22,0.81 0,0.35 0.26,0.76 1.11,0.76 1.1,0 1.15,-0.89 1.17,-1.2 0.01,-0.09 0.1,-0.09 0.12,-0.09 0.13,0 0.13,0.05 0.13,0.24 v 1 c 0,0.17 0,0.24 -0.11,0.24 -0.05,0 -0.07,0 -0.2,-0.12 -0.03,-0.04 -0.13,-0.13 -0.17,-0.16 -0.38,0.28 -0.79,0.28 -0.94,0.28 -1.21,0 -1.59,-0.67 -1.59,-1.22 0,-0.35 0.16,-0.63 0.43,-0.85 0.32,-0.26 0.6,-0.32 1.31,-0.46 z"
   inkscape:connector-curvature="0"
   style="fill:#000000;stroke-width:0" />
<path
   id="path831"
   d="M 298.39,703.05 297,702.94 v -0.31 c 0.65,0 0.74,-0.06 0.74,-0.55 v -2.67 c 0,-0.44 -0.11,-0.44 -0.78,-0.44 v -0.31 c 0.32,0.01 0.86,0.03 1.09,0.03 0.35,0 0.7,-0.02 1.04,-0.03 v 0.31 c -0.66,0 -0.7,0.05 -0.7,0.43 z"
   inkscape:connector-curvature="0"
   style="fill:#000000;stroke-width:0" />
<path
   id="path833"
   d="m 298.43,704.78 v 0.03 0.02 0.03 l -0.01,0.03 v 0.03 l -0.01,0.02 -0.01,0.03 -0.01,0.02 -0.01,0.03 -0.01,0.02 -0.02,0.02 -0.01,0.02 -0.01,0.02 -0.02,0.02 -0.02,0.02 -0.02,0.02 -0.01,0.02 -0.02,0.01 -0.02,0.02 -0.02,0.01 -0.03,0.01 -0.02,0.01 -0.02,0.02 -0.02,0.01 h -0.03 l -0.02,0.01 -0.03,0.01 h -0.02 l -0.03,0.01 h -0.02 -0.03 -0.02 c -0.31,0 -0.53,-0.27 -0.53,-0.52 0,-0.27 0.22,-0.53 0.53,-0.53 0.27,0 0.52,0.21 0.52,0.53 z"
   inkscape:connector-curvature="0"
   style="fill:#000000;stroke-width:0" />
<path
   id="path835"
   d="m 300.49,702.07 v -2.66 c 0,-0.44 -0.11,-0.44 -0.77,-0.44 v -0.31 c 0.35,0.01 0.85,0.03 1.12,0.03 0.26,0 0.78,-0.02 1.12,-0.03 v 0.31 c -0.67,0 -0.78,0 -0.78,0.44 v 1.83 c 0,1.03 0.71,1.59 1.35,1.59 0.63,0 0.74,-0.54 0.74,-1.1 v -2.32 c 0,-0.44 -0.11,-0.44 -0.78,-0.44 v -0.31 c 0.35,0.01 0.86,0.03 1.12,0.03 0.26,0 0.78,-0.02 1.12,-0.03 v 0.31 c -0.52,0 -0.77,0 -0.78,0.29 v 1.9 c 0,0.86 0,1.16 -0.31,1.52 -0.13,0.17 -0.46,0.37 -1.04,0.37 -0.73,0 -1.2,-0.43 -1.48,-1.04 v 1.04 l -1.4,-0.11 v -0.31 c 0.69,0 0.77,-0.07 0.77,-0.56 z"
   inkscape:connector-curvature="0"
   style="fill:#000000;stroke-width:0" />
<path
   id="path837"
   d="m 308.23,696.27 v 0.01 0 0.01 0 0 0.01 0 0 0.01 h -0.01 v 0.01 0 0 l -0.01,0.01 v 0.01 h -0.01 v 0.01 l -0.01,0.01 v 0 h -0.01 v 0.01 0 l -0.01,0.01 v 0 0.01 h -0.01 v 0.01 h -0.01 v 0.01 h -0.01 v 0.01 h -0.01 v 0.01 h -0.01 l -0.01,0.01 v 0.01 h -0.01 l -0.01,0.01 v 0.01 l -0.01,0.01 h -0.01 l -0.01,0.01 c -1.24,1.25 -1.56,3.13 -1.56,4.65 0,1.73 0.38,3.46 1.6,4.7 0.13,0.12 0.13,0.14 0.13,0.17 0,0.07 -0.04,0.1 -0.1,0.1 -0.1,0 -0.99,-0.68 -1.58,-1.94 -0.51,-1.09 -0.63,-2.2 -0.63,-3.03 0,-0.77 0.11,-1.98 0.66,-3.1 0.6,-1.22 1.45,-1.87 1.55,-1.87 0.06,0 0.1,0.03 0.1,0.1 z"
   inkscape:connector-curvature="0"
   style="fill:#000000;stroke-width:0" />
<path
   id="path839"
   d="m 312.14,701.66 v 0.02 l 0.01,0.03 0.01,0.04 0.01,0.03 0.01,0.04 0.01,0.04 0.01,0.04 0.02,0.05 0.01,0.05 0.02,0.04 0.02,0.05 0.02,0.05 0.02,0.05 0.03,0.05 0.02,0.05 0.03,0.05 0.03,0.05 0.03,0.05 0.04,0.04 0.03,0.05 0.04,0.04 0.04,0.04 0.04,0.04 0.04,0.03 0.05,0.03 0.05,0.03 0.02,0.02 0.03,0.01 0.03,0.01 0.02,0.01 0.03,0.01 0.03,0.01 h 0.03 l 0.03,0.01 h 0.03 l 0.03,0.01 h 0.03 0.03 c 0.05,0 0.29,0 0.5,-0.13 -0.28,-0.05 -0.48,-0.3 -0.48,-0.54 0,-0.15 0.11,-0.34 0.38,-0.34 0.22,0 0.54,0.17 0.54,0.57 0,0.52 -0.59,0.66 -0.93,0.66 -0.57,0 -0.92,-0.53 -1.04,-0.76 -0.25,0.66 -0.79,0.76 -1.08,0.76 -1.04,0 -1.61,-1.28 -1.61,-1.53 0,-0.1 0.1,-0.1 0.12,-0.1 0.08,0 0.11,0.02 0.13,0.11 0.34,1.05 1,1.3 1.34,1.3 0.19,0 0.54,-0.09 0.54,-0.67 0,-0.3 -0.17,-0.97 -0.54,-2.36 -0.16,-0.62 -0.51,-1.03 -0.95,-1.03 -0.06,0 -0.29,0 -0.5,0.13 0.25,0.05 0.47,0.25 0.47,0.53 0,0.27 -0.22,0.35 -0.37,0.35 -0.3,0 -0.54,-0.26 -0.54,-0.58 0,-0.45 0.49,-0.65 0.93,-0.65 0.66,0 1.02,0.69 1.05,0.75 0.12,-0.37 0.48,-0.75 1.08,-0.75 1.02,0 1.59,1.28 1.59,1.53 0,0.1 -0.09,0.1 -0.12,0.1 -0.09,0 -0.11,-0.04 -0.13,-0.11 -0.33,-1.06 -1,-1.3 -1.32,-1.3 -0.39,0 -0.55,0.31 -0.55,0.65 0,0.22 0.06,0.44 0.17,0.88 z"
   inkscape:connector-curvature="0"
   style="fill:#000000;stroke-width:0" />
<path
   id="path841"
   d="m 317.38,701.14 v 0.07 0.08 0.08 0.08 l -0.01,0.17 -0.01,0.17 -0.02,0.19 -0.02,0.19 -0.03,0.19 -0.03,0.2 -0.04,0.2 -0.05,0.21 -0.05,0.21 -0.06,0.21 -0.07,0.21 -0.08,0.22 -0.04,0.1 -0.05,0.11 -0.05,0.1 -0.05,0.11 c -0.6,1.22 -1.45,1.87 -1.55,1.87 -0.06,0 -0.1,-0.04 -0.1,-0.1 0,-0.03 0,-0.05 0.19,-0.23 0.97,-0.98 1.54,-2.56 1.54,-4.64 0,-1.7 -0.37,-3.45 -1.6,-4.7 -0.13,-0.12 -0.13,-0.14 -0.13,-0.17 0,-0.06 0.04,-0.1 0.1,-0.1 0.1,0 1,0.68 1.58,1.94 0.51,1.09 0.63,2.2 0.63,3.03 z"
   inkscape:connector-curvature="0"
   style="fill:#000000;stroke-width:0" />
<line
   id="line843"
   y2="694.40997"
   x2="318.38"
   y1="694.40997"
   x1="292.70001"
   style="fill:#000000;stroke-width:0.398" />
<path
   id="path845"
   d="m 306.02,688.08 0.01,0.03 0.01,0.03 v 0.03 l 0.01,0.04 0.01,0.04 0.02,0.04 0.01,0.04 0.01,0.04 0.02,0.05 0.02,0.05 0.02,0.05 0.02,0.05 0.02,0.05 0.02,0.05 0.03,0.05 0.03,0.05 0.03,0.04 0.03,0.05 0.03,0.05 0.04,0.04 0.03,0.04 0.04,0.05 0.04,0.03 0.05,0.04 0.05,0.03 0.04,0.03 0.03,0.01 0.02,0.01 0.03,0.02 0.03,0.01 h 0.03 l 0.02,0.01 0.03,0.01 h 0.03 l 0.03,0.01 h 0.03 0.04 l 0.03,0.01 c 0.05,0 0.29,0 0.5,-0.13 -0.28,-0.05 -0.48,-0.3 -0.48,-0.54 0,-0.16 0.11,-0.35 0.38,-0.35 0.22,0 0.54,0.18 0.54,0.58 0,0.52 -0.59,0.65 -0.93,0.65 -0.58,0 -0.93,-0.52 -1.05,-0.75 -0.25,0.65 -0.79,0.75 -1.08,0.75 -1.03,0 -1.6,-1.28 -1.6,-1.53 0,-0.1 0.1,-0.1 0.12,-0.1 0.08,0 0.11,0.02 0.13,0.11 0.34,1.06 1,1.31 1.34,1.31 0.18,0 0.53,-0.09 0.53,-0.67 0,-0.31 -0.17,-0.97 -0.53,-2.37 -0.17,-0.61 -0.51,-1.03 -0.95,-1.03 -0.06,0 -0.29,0 -0.5,0.13 0.25,0.05 0.47,0.26 0.47,0.54 0,0.27 -0.22,0.35 -0.37,0.35 -0.3,0 -0.55,-0.26 -0.55,-0.58 0,-0.46 0.5,-0.66 0.94,-0.66 0.66,0 1.01,0.7 1.04,0.76 0.12,-0.37 0.48,-0.76 1.08,-0.76 1.03,0 1.6,1.29 1.6,1.53 0,0.1 -0.09,0.1 -0.12,0.1 -0.09,0 -0.11,-0.04 -0.13,-0.11 -0.33,-1.06 -1.01,-1.3 -1.33,-1.3 -0.39,0 -0.55,0.32 -0.55,0.66 0,0.22 0.06,0.43 0.17,0.87 z"
   inkscape:connector-curvature="0"
   style="fill:#000000;stroke-width:0" />
<path
   id="path847"
   d="m 329.19,695.16 0.03,0.01 h 0.03 0.03 0.01 0.01 0.02 0.01 0.02 l 0.01,0.01 h 0.02 0.01 l 0.01,0.01 h 0.01 0.02 l 0.01,0.01 0.01,0.01 h 0.01 l 0.01,0.01 0.01,0.01 0.01,0.01 0.01,0.01 v 0 0.01 l 0.01,0.01 v 0 0.01 0 l 0.01,0.01 v 0.01 0.01 0 0.01 l 0.01,0.01 v 0.01 0.01 0 0.01 c 0,0.2 -0.19,0.2 -0.33,0.2 h -5.97 c -0.14,0 -0.33,0 -0.33,-0.2 0,-0.2 0.19,-0.2 0.34,-0.2 z"
   inkscape:connector-curvature="0"
   style="fill:#000000;stroke-width:0" />
<path
   id="path849"
   d="m 329.2,693.24 h 0.01 0.02 0.02 0.03 0.02 0.01 0.01 0.02 l 0.01,0.01 h 0.01 0.02 0.01 l 0.01,0.01 h 0.02 l 0.01,0.01 h 0.01 l 0.01,0.01 0.01,0.01 h 0.01 l 0.01,0.01 0.01,0.01 v 0.01 h 0.01 v 0.01 0 l 0.01,0.01 v 0 0.01 l 0.01,0.01 v 0 0.01 0.01 0.01 0 l 0.01,0.01 v 0.01 0.01 0.01 0.01 c 0,0.2 -0.19,0.2 -0.34,0.2 h -5.95 c -0.15,0 -0.34,0 -0.34,-0.2 0,-0.2 0.19,-0.2 0.33,-0.2 z"
   inkscape:connector-curvature="0"
   style="fill:#000000;stroke-width:0" />
<path
   id="path851"
   d="m 335.79,698.28 v 0.01 0.01 0.01 0.01 0.01 0.01 0.01 0 0.01 0.01 0.01 0.01 0 0.01 0.01 l -0.01,0.01 v 0 0.01 0.01 0.01 0.01 l -0.01,0.01 v 0.01 l -0.01,0.01 v 0 l -0.01,0.01 v 0 l -0.01,0.01 h -0.01 l -0.01,0.01 v 0 h -0.01 v 0 h -0.01 v 0.01 h -0.01 v 0 h -0.01 -0.01 v 0 h -0.01 -0.01 -0.01 -0.01 v 0 h -0.01 -0.01 -0.01 -0.01 -0.01 -0.01 -0.01 c -0.62,-0.63 -1.5,-0.63 -1.82,-0.63 v -0.31 c 0.2,0 0.79,0 1.31,0.26 v -5.15 c 0,-0.36 -0.03,-0.48 -0.93,-0.48 h -0.32 v -0.3 c 0.35,0.03 1.22,0.03 1.62,0.03 0.4,0 1.27,0 1.62,-0.03 v 0.3 h -0.32 c -0.9,0 -0.93,0.11 -0.93,0.48 z"
   inkscape:connector-curvature="0"
   style="fill:#000000;stroke-width:0" />
</g>  </g>
</svg>
