<?xml version="1.0" encoding="UTF-8" standalone="no"?>
<!-- Created with Inkscape (http://www.inkscape.org/) -->

<svg
   xmlns:ns0="http://www.iki.fi/pav/software/textext/"
   xmlns:dc="http://purl.org/dc/elements/1.1/"
   xmlns:cc="http://creativecommons.org/ns#"
   xmlns:rdf="http://www.w3.org/1999/02/22-rdf-syntax-ns#"
   xmlns:svg="http://www.w3.org/2000/svg"
   xmlns="http://www.w3.org/2000/svg"
   xmlns:sodipodi="http://sodipodi.sourceforge.net/DTD/sodipodi-0.dtd"
   xmlns:inkscape="http://www.inkscape.org/namespaces/inkscape"
   width="210mm"
   height="297mm"
   viewBox="0 0 210 296.99999"
   version="1.1"
   id="svg8"
   inkscape:version="0.92.3 (2405546, 2018-03-11)"
   sodipodi:docname="modified.svg">
  <sodipodi:namedview
     id="base"
     pagecolor="#ffffff"
     bordercolor="#666666"
     borderopacity="1.0"
     inkscape:pageopacity="0.0"
     inkscape:pageshadow="2"
     inkscape:zoom="0.27452039"
     inkscape:cx="659.93624"
     inkscape:cy="310.39989"
     inkscape:document-units="mm"
     inkscape:current-layer="layer1"
     showgrid="false"
     inkscape:window-width="1276"
     inkscape:window-height="1003"
     inkscape:window-x="0"
     inkscape:window-y="0"
     inkscape:window-maximized="0" />
  <defs
     id="defs2" />
  <metadata
     id="metadata5">
    <rdf:RDF>
      <cc:Work
         rdf:about="">
        <dc:format>image/svg+xml</dc:format>
        <dc:type
           rdf:resource="http://purl.org/dc/dcmitype/StillImage" />
        <dc:title />
      </cc:Work>
    </rdf:RDF>
  </metadata>
  <g
     inkscape:label="Layer 1"
     inkscape:groupmode="layer"
     id="layer1">
    <g
       ns0:inkscapeversion="0.92.3"
       ns0:scale="1.0"
       ns0:preamble="/home/sergei/.config/inkscape/extensions/default_packages.tex"
       ns0:text="$$\\lim_{k \\to \\infty} \\left(1+\\frac{1}{k}\\right)^k = e$$"
       ns0:pdfconverter="pstoedit"
       ns0:texconverter="pdflatex"
       ns0:version="0.7.2"
       text-anchor="start"
       word-spacing="normal"
       letter-spacing="normal"
       font-size-adjust="none"
       font-stretch="normal"
       font-weight="normal"
       font-variant="normal"
       font-style="normal"
       fill-opacity="1"
       fill-rule="evenodd"
       fill="black"
       stroke-opacity="1"
       stroke-dashoffset="0"
       stroke-dasharray="none"
       stroke-miterlimit="10.433"
       stroke-linejoin="miter"
       stroke-linecap="butt"
       stroke="black"
       xml:space="preserve"
       transform="matrix(0.352778,   0,   0,  -0.352778, -2.847627, 392.980137)"
       id="content">
<path
   id="path837"
   word-spacing="normal"
   text-anchor="start"
   stroke-opacity="1"
   stroke-miterlimit="10.433"
   stroke-linejoin="miter"
   stroke-linecap="butt"
   stroke-dasharray="none"
   stroke="black"
   letter-spacing="normal"
   font-weight="normal"
   font-variant="normal"
   font-style="normal"
   font-stretch="normal"
   font-size-adjust="none"
   fill-rule="evenodd"
   fill-opacity="1"
   fill="black"
   stroke-width="0"
   d="M268.37,696.2 L266.93,696.09 V695.78 C267.63,695.78,267.71,695.71,267.71,695.22 V690.06 C267.71,689.61,267.6,689.61,266.93,689.61 V689.3 C267.26,689.31,267.79,689.33,268.04,689.33 C268.29,689.33,268.78,689.31,269.15,689.3 V689.61 C268.48,689.61,268.37,689.61,268.37,690.06 Z " />
<path
   id="path839"
   word-spacing="normal"
   text-anchor="start"
   stroke-opacity="1"
   stroke-miterlimit="10.433"
   stroke-linejoin="miter"
   stroke-linecap="butt"
   stroke-dasharray="none"
   stroke="black"
   letter-spacing="normal"
   font-weight="normal"
   font-variant="normal"
   font-style="normal"
   font-stretch="normal"
   font-size-adjust="none"
   fill-rule="evenodd"
   fill-opacity="1"
   fill="black"
   stroke-width="0"
   d="M271.14,693.69 L269.74,693.58 V693.28 C270.39,693.28,270.48,693.22,270.48,692.73 V690.06 C270.48,689.61,270.37,689.61,269.7,689.61 V689.3 C270.02,689.31,270.56,689.33,270.8,689.33 C271.15,689.33,271.5,689.31,271.84,689.3 V689.61 C271.18,689.61,271.14,689.66,271.14,690.05 Z " />
<path
   id="path841"
   word-spacing="normal"
   text-anchor="start"
   stroke-opacity="1"
   stroke-miterlimit="10.433"
   stroke-linejoin="miter"
   stroke-linecap="butt"
   stroke-dasharray="none"
   stroke="black"
   letter-spacing="normal"
   font-weight="normal"
   font-variant="normal"
   font-style="normal"
   font-stretch="normal"
   font-size-adjust="none"
   fill-rule="evenodd"
   fill-opacity="1"
   fill="black"
   stroke-width="0"
   d="M271.18,695.42 L271.18,695.45 L271.18,695.48 L271.17,695.51 L271.17,695.54 L271.16,695.56 L271.15,695.59 L271.14,695.61 L271.13,695.64 L271.12,695.66 L271.11,695.69 L271.1,695.71 L271.08,695.73 L271.07,695.75 L271.05,695.77 L271.04,695.79 L271.02,695.8 L271,695.82 L270.98,695.84 L270.96,695.85 L270.94,695.87 L270.92,695.88 L270.9,695.89 L270.87,695.9 L270.85,695.91 L270.83,695.92 L270.8,695.93 L270.78,695.93 L270.75,695.94 L270.73,695.94 L270.7,695.95 L270.68,695.95 L270.65,695.95 C270.34,695.95,270.12,695.68,270.12,695.42 C270.12,695.15,270.34,694.9,270.65,694.9 C270.93,694.9,271.18,695.1,271.18,695.42 Z " />
<path
   id="path843"
   word-spacing="normal"
   text-anchor="start"
   stroke-opacity="1"
   stroke-miterlimit="10.433"
   stroke-linejoin="miter"
   stroke-linecap="butt"
   stroke-dasharray="none"
   stroke="black"
   letter-spacing="normal"
   font-weight="normal"
   font-variant="normal"
   font-style="normal"
   font-stretch="normal"
   font-size-adjust="none"
   fill-rule="evenodd"
   fill-opacity="1"
   fill="black"
   stroke-width="0"
   d="M273.24,692.72 V690.06 C273.24,689.61,273.13,689.61,272.46,689.61 V689.3 C272.81,689.31,273.32,689.33,273.59,689.33 C273.85,689.33,274.36,689.31,274.7,689.3 V689.61 C274.04,689.61,273.92,689.61,273.92,690.06 V691.89 C273.92,692.92,274.63,693.47,275.27,693.47 C275.9,693.47,276.01,692.94,276.01,692.37 V690.06 C276.01,689.61,275.9,689.61,275.23,689.61 V689.3 C275.58,689.31,276.09,689.33,276.36,689.33 C276.62,689.33,277.14,689.31,277.48,689.3 V689.61 C276.81,689.61,276.7,689.61,276.7,690.06 V691.89 C276.7,692.92,277.4,693.47,278.04,693.47 C278.67,693.47,278.78,692.94,278.78,692.37 V690.06 C278.78,689.61,278.67,689.61,278,689.61 V689.3 C278.35,689.31,278.86,689.33,279.13,689.33 C279.39,689.33,279.91,689.31,280.25,689.3 V689.61 C279.73,689.61,279.48,689.61,279.47,689.91 V691.81 C279.47,692.66,279.47,692.97,279.16,693.33 C279.02,693.49,278.69,693.69,278.11,693.69 C277.28,693.69,276.84,693.1,276.67,692.72 C276.53,693.58,275.79,693.69,275.34,693.69 C274.61,693.69,274.14,693.27,273.86,692.65 V693.69 L272.46,693.58 V693.28 C273.16,693.28,273.24,693.21,273.24,692.72 Z " />
<path
   id="path845"
   word-spacing="normal"
   text-anchor="start"
   stroke-opacity="1"
   stroke-miterlimit="10.433"
   stroke-linejoin="miter"
   stroke-linecap="butt"
   stroke-dasharray="none"
   stroke="black"
   letter-spacing="normal"
   font-weight="normal"
   font-variant="normal"
   font-style="normal"
   font-stretch="normal"
   font-size-adjust="none"
   fill-rule="evenodd"
   fill-opacity="1"
   fill="black"
   stroke-width="0"
   d="M265.57,687.42 L265.57,687.42 L265.57,687.42 L265.57,687.42 L265.57,687.42 L265.57,687.42 L265.57,687.42 L265.57,687.42 L265.57,687.43 L265.57,687.43 L265.57,687.43 L265.57,687.44 L265.57,687.44 L265.58,687.44 L265.58,687.45 L265.58,687.45 L265.58,687.46 L265.58,687.46 L265.58,687.47 L265.58,687.48 L265.59,687.48 L265.59,687.49 L265.59,687.49 L265.59,687.49 L265.59,687.5 L265.59,687.5 L265.59,687.51 L265.59,687.51 L265.59,687.51 L265.59,687.52 L265.59,687.52 L265.59,687.52 L265.59,687.52 L265.59,687.52 L265.59,687.52 L265.59,687.52 L265.59,687.53 L265.59,687.53 L265.59,687.53 L265.59,687.53 L265.59,687.53 L265.6,687.53 C265.6,687.56,265.57,687.63,265.48,687.63 C265.34,687.63,264.76,687.57,264.59,687.56 C264.53,687.55,264.43,687.54,264.43,687.4 C264.43,687.3,264.53,687.3,264.62,687.3 C264.95,687.3,264.95,687.25,264.95,687.2 C264.95,687.15,264.94,687.1,264.92,687.04 L263.94,683.11 C263.9,682.98,263.9,682.97,263.9,682.95 C263.9,682.85,263.99,682.73,264.14,682.73 C264.33,682.73,264.42,682.87,264.46,683.02 C264.48,683.05,264.78,684.27,264.8,684.37 C265.3,684.32,265.7,684.16,265.7,683.8 C265.7,683.77,265.7,683.73,265.69,683.66 C265.66,683.56,265.66,683.52,265.66,683.45 C265.66,682.95,266.06,682.73,266.4,682.73 C267.08,682.73,267.29,683.79,267.29,683.79 C267.29,683.89,267.2,683.89,267.18,683.89 C267.08,683.89,267.07,683.85,267.04,683.72 C266.95,683.42,266.76,682.92,266.42,682.92 C266.23,682.92,266.18,683.1,266.18,683.29 C266.18,683.41,266.18,683.42,266.22,683.6 C266.23,683.62,266.25,683.74,266.25,683.82 C266.25,684.43,265.41,684.53,265.12,684.55 C265.32,684.68,265.58,684.91,265.7,685.01 C266.06,685.34,266.41,685.67,266.8,685.67 C266.88,685.67,266.97,685.65,267.03,685.58 C266.73,685.53,266.67,685.3,266.67,685.19 C266.67,685.04,266.78,684.93,266.95,684.93 C267.13,684.93,267.34,685.09,267.34,685.38 C267.34,685.61,267.18,685.87,266.8,685.87 C266.41,685.87,266.04,685.58,265.69,685.26 C265.39,684.98,265.16,684.76,264.88,684.64 Z " />
<path
   id="path847"
   word-spacing="normal"
   text-anchor="start"
   stroke-opacity="1"
   stroke-miterlimit="10.433"
   stroke-linejoin="miter"
   stroke-linecap="butt"
   stroke-dasharray="none"
   stroke="black"
   letter-spacing="normal"
   font-weight="normal"
   font-variant="normal"
   font-style="normal"
   font-stretch="normal"
   font-size-adjust="none"
   fill-rule="evenodd"
   fill-opacity="1"
   fill="black"
   stroke-width="0"
   d="M274.22,684.37 L274.14,684.31 L274.06,684.25 L273.99,684.19 L273.92,684.12 L273.86,684.06 L273.8,683.99 L273.74,683.92 L273.69,683.86 L273.64,683.79 L273.59,683.73 L273.55,683.66 L273.51,683.6 L273.48,683.54 L273.44,683.47 L273.41,683.41 L273.39,683.36 L273.36,683.3 L273.34,683.24 L273.32,683.19 L273.3,683.14 L273.28,683.09 L273.27,683.05 L273.26,683.01 L273.25,682.97 L273.24,682.94 L273.23,682.91 L273.23,682.88 L273.22,682.86 L273.22,682.84 L273.22,682.83 L273.22,682.82 L273.22,682.81 C273.22,682.71,273.29,682.71,273.38,682.71 C273.51,682.71,273.53,682.71,273.57,682.83 C273.61,683,273.72,683.45,274.08,683.83 C274.49,684.25,274.84,684.36,275.13,684.45 C275.17,684.46,275.2,684.5,275.2,684.54 C275.2,684.61,275.16,684.62,275.07,684.65 C274.06,684.97,273.7,685.68,273.56,686.29 C273.53,686.37,273.48,686.37,273.38,686.37 C273.29,686.37,273.22,686.37,273.22,686.27 C273.22,686.26,273.29,685.79,273.63,685.31 C273.79,685.07,273.98,684.88,274.22,684.71 H268.6 C268.49,684.71,268.32,684.71,268.32,684.54 C268.32,684.37,268.48,684.37,268.6,684.37 Z " />
<path
   id="path849"
   word-spacing="normal"
   text-anchor="start"
   stroke-opacity="1"
   stroke-miterlimit="10.433"
   stroke-linejoin="miter"
   stroke-linecap="butt"
   stroke-dasharray="none"
   stroke="black"
   letter-spacing="normal"
   font-weight="normal"
   font-variant="normal"
   font-style="normal"
   font-stretch="normal"
   font-size-adjust="none"
   fill-rule="evenodd"
   fill-opacity="1"
   fill="black"
   stroke-width="0"
   d="M279.77,684.71 L279.73,684.74 L279.7,684.78 L279.67,684.82 L279.64,684.85 L279.61,684.89 L279.58,684.92 L279.56,684.95 L279.53,684.98 L279.51,685 L279.48,685.03 L279.46,685.05 L279.44,685.08 L279.42,685.1 L279.39,685.12 L279.37,685.14 L279.35,685.17 L279.31,685.2 L279.27,685.24 L279.24,685.28 L279.2,685.31 L279.15,685.34 L279.11,685.37 L279.09,685.39 L279.07,685.41 L279.04,685.42 L279.02,685.44 C278.59,685.75,278.14,685.87,277.76,685.87 C276.89,685.87,276.26,685.13,276.26,684.29 H276.46 C276.46,684.96,277.01,685.48,277.65,685.48 C278.3,685.48,278.75,684.96,279.42,684.15 H279.42 C279.14,683.7,278.53,682.99,277.68,682.99 C276.96,682.99,276.46,683.63,276.46,684.29 H276.26 C276.26,683.48,276.86,682.73,277.74,682.73 C278.71,682.73,279.39,683.52,279.64,683.89 C280.01,683.46,280.12,683.34,280.39,683.16 C280.82,682.85,281.26,682.73,281.65,682.73 C282.52,682.73,283.14,683.47,283.14,684.3 H282.95 C282.95,683.63,282.4,683.11,281.76,683.11 C281.11,683.11,280.66,683.64,279.99,684.45 H279.99 C280.27,684.9,280.88,685.6,281.73,685.6 C282.45,685.6,282.95,684.97,282.95,684.3 H283.14 C283.14,685.12,282.54,685.87,281.67,685.87 C280.7,685.87,280.02,685.07,279.77,684.71 Z " />
<path
   id="path851"
   word-spacing="normal"
   text-anchor="start"
   stroke-opacity="1"
   stroke-miterlimit="10.433"
   stroke-linejoin="miter"
   stroke-linecap="butt"
   stroke-dasharray="none"
   stroke="black"
   letter-spacing="normal"
   font-weight="normal"
   font-variant="normal"
   font-style="normal"
   font-stretch="normal"
   font-size-adjust="none"
   fill-rule="evenodd"
   fill-opacity="1"
   fill="black"
   stroke-width="0"
   d="M292.31,680.02 L292.31,680.02 L292.31,680.02 L292.31,680.03 L292.31,680.03 L292.31,680.03 L292.31,680.04 L292.31,680.04 L292.31,680.04 L292.3,680.04 L292.3,680.05 L292.3,680.05 L292.3,680.05 L292.3,680.06 L292.3,680.06 L292.3,680.06 L292.3,680.06 L292.29,680.07 L292.29,680.07 L292.29,680.08 L292.28,680.08 L292.28,680.09 L292.28,680.09 L292.27,680.1 L292.27,680.1 C291.9,680.47,291.23,681.14,290.56,682.21 C288.96,684.77,288.23,688,288.23,691.83 C288.23,694.5,288.59,697.95,290.23,700.91 C291.02,702.32,291.84,703.13,292.28,703.57 C292.31,703.6,292.31,703.62,292.31,703.65 C292.31,703.75,292.24,703.75,292.1,703.75 C291.96,703.75,291.94,703.75,291.79,703.6 C288.45,700.57,287.4,696.02,287.4,691.84 C287.4,687.93,288.3,684,290.83,681.03 C291.03,680.8,291.41,680.39,291.82,680.03 C291.94,679.92,291.96,679.92,292.1,679.92 C292.24,679.92,292.31,679.92,292.31,680.02 Z " />
<path
   id="path853"
   word-spacing="normal"
   text-anchor="start"
   stroke-opacity="1"
   stroke-miterlimit="10.433"
   stroke-linejoin="miter"
   stroke-linecap="butt"
   stroke-dasharray="none"
   stroke="black"
   letter-spacing="normal"
   font-weight="normal"
   font-variant="normal"
   font-style="normal"
   font-stretch="normal"
   font-size-adjust="none"
   fill-rule="evenodd"
   fill-opacity="1"
   fill="black"
   stroke-width="0"
   d="M295.59,695.66 L295.59,695.67 L295.59,695.68 L295.59,695.69 L295.59,695.7 L295.59,695.71 L295.59,695.72 L295.59,695.73 L295.59,695.74 L295.59,695.75 L295.59,695.76 L295.59,695.77 L295.59,695.77 L295.59,695.78 L295.59,695.79 L295.59,695.79 L295.59,695.8 L295.59,695.81 L295.59,695.81 L295.59,695.83 L295.58,695.84 L295.58,695.85 L295.58,695.86 L295.57,695.86 L295.57,695.87 L295.57,695.88 L295.56,695.89 L295.55,695.89 L295.55,695.9 L295.54,695.9 L295.53,695.9 L295.52,695.91 L295.52,695.91 L295.51,695.91 L295.51,695.91 L295.5,695.91 L295.5,695.91 L295.49,695.91 L295.48,695.91 L295.48,695.91 L295.47,695.92 L295.46,695.92 L295.46,695.92 L295.45,695.92 L295.44,695.92 L295.43,695.92 L295.42,695.92 L295.41,695.92 L295.4,695.92 L295.39,695.92 L295.38,695.92 L295.37,695.92 L295.36,695.92 C294.75,695.28,293.87,695.28,293.55,695.28 V694.97 C293.75,694.97,294.34,694.97,294.86,695.23 V690.09 C294.86,689.73,294.83,689.61,293.93,689.61 H293.61 V689.3 C293.96,689.33,294.83,689.33,295.23,689.33 C295.62,689.33,296.49,689.33,296.84,689.3 V689.61 H296.52 C295.62,689.61,295.59,689.72,295.59,690.09 Z " />
<path
   id="path855"
   word-spacing="normal"
   text-anchor="start"
   stroke-opacity="1"
   stroke-miterlimit="10.433"
   stroke-linejoin="miter"
   stroke-linecap="butt"
   stroke-dasharray="none"
   stroke="black"
   letter-spacing="normal"
   font-weight="normal"
   font-variant="normal"
   font-style="normal"
   font-stretch="normal"
   font-size-adjust="none"
   fill-rule="evenodd"
   fill-opacity="1"
   fill="black"
   stroke-width="0"
   d="M303.93,691.59 H306.72 C306.86,691.59,307.05,691.59,307.05,691.79 C307.05,691.98,306.86,691.98,306.72,691.98 H303.93 V694.77 C303.93,694.91,303.93,695.09,303.73,695.09 C303.54,695.09,303.54,694.91,303.54,694.77 V691.98 H300.74 C300.6,691.98,300.41,691.98,300.41,691.79 C300.41,691.59,300.6,691.59,300.74,691.59 H303.54 V688.81 C303.54,688.67,303.54,688.48,303.73,688.48 C303.93,688.48,303.93,688.67,303.93,688.81 Z " />
<path
   id="path857"
   word-spacing="normal"
   text-anchor="start"
   stroke-opacity="1"
   stroke-miterlimit="10.433"
   stroke-linejoin="miter"
   stroke-linecap="butt"
   stroke-dasharray="none"
   stroke="black"
   letter-spacing="normal"
   font-weight="normal"
   font-variant="normal"
   font-style="normal"
   font-stretch="normal"
   font-size-adjust="none"
   fill-rule="evenodd"
   fill-opacity="1"
   fill="black"
   stroke-width="0"
   d="M314.21,702.4 L314.21,702.41 L314.21,702.42 L314.21,702.43 L314.21,702.44 L314.21,702.45 L314.21,702.46 L314.21,702.47 L314.21,702.48 L314.21,702.49 L314.21,702.5 L314.21,702.51 L314.21,702.51 L314.21,702.52 L314.2,702.53 L314.2,702.53 L314.2,702.54 L314.2,702.55 L314.2,702.55 L314.2,702.57 L314.2,702.58 L314.19,702.59 L314.19,702.6 L314.19,702.6 L314.18,702.61 L314.18,702.62 L314.17,702.63 L314.17,702.63 L314.16,702.64 L314.15,702.64 L314.14,702.64 L314.14,702.65 L314.13,702.65 L314.13,702.65 L314.12,702.65 L314.12,702.65 L314.11,702.65 L314.1,702.65 L314.1,702.65 L314.09,702.65 L314.08,702.66 L314.08,702.66 L314.07,702.66 L314.06,702.66 L314.05,702.66 L314.04,702.66 L314.04,702.66 L314.03,702.66 L314.02,702.66 L314.01,702.66 L314,702.66 L313.99,702.66 L313.98,702.66 C313.36,702.02,312.48,702.02,312.16,702.02 V701.72 C312.36,701.72,312.95,701.72,313.47,701.97 V696.83 C313.47,696.47,313.44,696.35,312.54,696.35 H312.22 V696.04 C312.57,696.07,313.44,696.07,313.84,696.07 C314.24,696.07,315.1,696.07,315.45,696.04 V696.35 H315.13 C314.24,696.35,314.21,696.46,314.21,696.83 Z " />
<line
   id="line859"
   word-spacing="normal"
   text-anchor="start"
   stroke-opacity="1"
   stroke-miterlimit="10.433"
   stroke-linejoin="miter"
   stroke-linecap="butt"
   stroke-dasharray="none"
   stroke="black"
   letter-spacing="normal"
   font-weight="normal"
   font-variant="normal"
   font-style="normal"
   font-stretch="normal"
   font-size-adjust="none"
   fill-rule="evenodd"
   fill-opacity="1"
   fill="black"
   stroke-width="0.398"
   y2="691.79"
   x2="316.52"
   y1="691.79"
   x1="311.02" />
<path
   id="path861"
   word-spacing="normal"
   text-anchor="start"
   stroke-opacity="1"
   stroke-miterlimit="10.433"
   stroke-linejoin="miter"
   stroke-linecap="butt"
   stroke-dasharray="none"
   stroke="black"
   letter-spacing="normal"
   font-weight="normal"
   font-variant="normal"
   font-style="normal"
   font-stretch="normal"
   font-size-adjust="none"
   fill-rule="evenodd"
   fill-opacity="1"
   fill="black"
   stroke-width="0"
   d="M313.88,689.25 L313.88,689.25 L313.88,689.26 L313.88,689.26 L313.88,689.26 L313.88,689.26 L313.88,689.26 L313.88,689.27 L313.88,689.27 L313.87,689.28 L313.87,689.28 L313.87,689.28 L313.87,689.29 L313.87,689.29 L313.87,689.3 L313.87,689.3 L313.86,689.31 L313.86,689.31 L313.86,689.32 L313.85,689.32 L313.85,689.33 L313.85,689.33 L313.84,689.33 L313.84,689.34 L313.84,689.34 L313.83,689.34 L313.83,689.34 L313.83,689.34 L313.83,689.35 L313.82,689.35 L313.82,689.35 L313.82,689.35 L313.81,689.35 L313.81,689.35 L313.8,689.36 L313.8,689.36 L313.79,689.36 L313.79,689.36 L313.79,689.36 L313.78,689.36 L313.78,689.36 L313.77,689.36 L313.76,689.36 L313.76,689.36 L313.75,689.36 L313.75,689.36 C313.52,689.36,312.79,689.28,312.53,689.26 C312.45,689.25,312.34,689.24,312.34,689.07 C312.34,688.95,312.43,688.95,312.58,688.95 C313.06,688.95,313.08,688.88,313.08,688.78 L313.05,688.58 L311.6,682.86 C311.56,682.72,311.56,682.7,311.56,682.64 C311.56,682.41,311.76,682.36,311.85,682.36 C311.98,682.36,312.13,682.45,312.19,682.57 C312.24,682.66,312.69,684.5,312.75,684.74 C313.09,684.71,313.91,684.55,313.91,683.9 C313.91,683.83,313.91,683.79,313.88,683.69 C313.86,683.57,313.84,683.45,313.84,683.34 C313.84,682.76,314.24,682.36,314.76,682.36 C315.05,682.36,315.32,682.52,315.54,682.89 C315.79,683.32,315.9,683.87,315.9,683.89 C315.9,683.99,315.81,683.99,315.78,683.99 C315.68,683.99,315.67,683.95,315.64,683.81 C315.44,683.09,315.21,682.58,314.77,682.58 C314.58,682.58,314.45,682.69,314.45,683.04 C314.45,683.21,314.49,683.44,314.54,683.6 C314.58,683.77,314.58,683.81,314.58,683.91 C314.58,684.55,313.95,684.84,313.1,684.95 C313.41,685.13,313.73,685.45,313.96,685.69 C314.43,686.21,314.89,686.64,315.38,686.64 C315.44,686.64,315.45,686.64,315.47,686.63 C315.59,686.61,315.6,686.61,315.68,686.55 C315.7,686.54,315.7,686.53,315.72,686.51 C315.24,686.48,315.15,686.09,315.15,685.98 C315.15,685.82,315.26,685.63,315.53,685.63 C315.79,685.63,316.08,685.85,316.08,686.23 C316.08,686.53,315.85,686.86,315.4,686.86 C315.12,686.86,314.67,686.78,313.95,685.99 C313.61,685.61,313.22,685.21,312.84,685.06 Z " />
<path
   id="path863"
   word-spacing="normal"
   text-anchor="start"
   stroke-opacity="1"
   stroke-miterlimit="10.433"
   stroke-linejoin="miter"
   stroke-linecap="butt"
   stroke-dasharray="none"
   stroke="black"
   letter-spacing="normal"
   font-weight="normal"
   font-variant="normal"
   font-style="normal"
   font-stretch="normal"
   font-size-adjust="none"
   fill-rule="evenodd"
   fill-opacity="1"
   fill="black"
   stroke-width="0"
   d="M322.97,691.83 L322.96,692.56 L322.92,693.29 L322.87,694.02 L322.79,694.75 L322.68,695.47 L322.55,696.18 L322.39,696.88 L322.2,697.58 L321.98,698.27 L321.86,698.6 L321.73,698.94 L321.6,699.27 L321.45,699.6 L321.3,699.92 L321.14,700.24 L320.97,700.56 L320.79,700.87 L320.61,701.18 L320.41,701.48 L320.21,701.78 L319.99,702.07 L319.77,702.35 L319.54,702.64 C319.34,702.86,318.96,703.27,318.55,703.63 C318.43,703.75,318.41,703.75,318.27,703.75 C318.15,703.75,318.06,703.75,318.06,703.65 C318.06,703.61,318.1,703.57,318.12,703.55 C318.47,703.19,319.14,702.53,319.8,701.45 C321.41,698.89,322.14,695.66,322.14,691.84 C322.14,689.16,321.78,685.72,320.13,682.76 C319.35,681.35,318.52,680.52,318.1,680.1 C318.08,680.08,318.06,680.04,318.06,680.02 C318.06,679.92,318.15,679.92,318.27,679.92 C318.41,679.92,318.43,679.92,318.58,680.07 C321.92,683.09,322.97,687.64,322.97,691.83 Z " />
<path
   id="path865"
   word-spacing="normal"
   text-anchor="start"
   stroke-opacity="1"
   stroke-miterlimit="10.433"
   stroke-linejoin="miter"
   stroke-linecap="butt"
   stroke-dasharray="none"
   stroke="black"
   letter-spacing="normal"
   font-weight="normal"
   font-variant="normal"
   font-style="normal"
   font-stretch="normal"
   font-size-adjust="none"
   fill-rule="evenodd"
   fill-opacity="1"
   fill="black"
   stroke-width="0"
   d="M327.23,705.9 L327.23,705.9 L327.23,705.9 L327.24,705.91 L327.24,705.91 L327.24,705.91 L327.24,705.91 L327.24,705.91 L327.24,705.91 L327.24,705.91 L327.24,705.92 L327.24,705.92 L327.24,705.93 L327.24,705.93 L327.24,705.93 L327.24,705.94 L327.25,705.94 L327.25,705.95 L327.25,705.95 L327.25,705.96 L327.25,705.97 L327.25,705.97 L327.25,705.98 L327.25,705.98 L327.26,705.98 L327.26,705.99 L327.26,705.99 L327.26,706 L327.26,706 L327.26,706 L327.26,706 L327.26,706.01 L327.26,706.01 L327.26,706.01 L327.26,706.01 L327.26,706.01 L327.26,706.01 L327.26,706.01 L327.26,706.01 L327.26,706.01 L327.26,706.01 L327.26,706.01 C327.26,706.05,327.23,706.11,327.15,706.11 C327.01,706.11,326.43,706.06,326.26,706.04 C326.2,706.03,326.1,706.03,326.1,705.88 C326.1,705.78,326.2,705.78,326.28,705.78 C326.62,705.78,326.62,705.74,326.62,705.68 C326.62,705.63,326.6,705.59,326.59,705.53 L325.6,701.59 C325.57,701.47,325.57,701.45,325.57,701.44 C325.57,701.34,325.65,701.22,325.81,701.22 C326,701.22,326.09,701.35,326.13,701.51 C326.14,701.54,326.44,702.76,326.47,702.86 C326.97,702.81,327.37,702.65,327.37,702.29 C327.37,702.25,327.37,702.22,327.35,702.15 C327.32,702.04,327.32,702.01,327.32,701.93 C327.32,701.44,327.73,701.22,328.07,701.22 C328.74,701.22,328.95,702.27,328.95,702.28 C328.95,702.37,328.86,702.37,328.84,702.37 C328.74,702.37,328.74,702.34,328.7,702.2 C328.62,701.91,328.43,701.41,328.09,701.41 C327.9,701.41,327.84,701.59,327.84,701.77 C327.84,701.89,327.84,701.91,327.88,702.09 C327.89,702.11,327.92,702.22,327.92,702.3 C327.92,702.92,327.08,703.02,326.79,703.04 C326.99,703.16,327.25,703.39,327.37,703.5 C327.72,703.83,328.07,704.16,328.46,704.16 C328.55,704.16,328.64,704.14,328.7,704.07 C328.39,704.02,328.33,703.78,328.33,703.68 C328.33,703.53,328.45,703.42,328.61,703.42 C328.8,703.42,329.01,703.57,329.01,703.87 C329.01,704.09,328.84,704.35,328.47,704.35 C328.07,704.35,327.71,704.07,327.35,703.74 C327.06,703.46,326.83,703.25,326.54,703.13 Z " />
<path
   id="path867"
   word-spacing="normal"
   text-anchor="start"
   stroke-opacity="1"
   stroke-miterlimit="10.433"
   stroke-linejoin="miter"
   stroke-linecap="butt"
   stroke-dasharray="none"
   stroke="black"
   letter-spacing="normal"
   font-weight="normal"
   font-variant="normal"
   font-style="normal"
   font-stretch="normal"
   font-size-adjust="none"
   fill-rule="evenodd"
   fill-opacity="1"
   fill="black"
   stroke-width="0"
   d="M339.57,692.55 L339.59,692.55 L339.62,692.55 L339.65,692.55 L339.67,692.55 L339.68,692.55 L339.7,692.56 L339.71,692.56 L339.72,692.56 L339.74,692.56 L339.75,692.56 L339.76,692.57 L339.78,692.57 L339.79,692.58 L339.8,692.58 L339.81,692.59 L339.83,692.59 L339.84,692.6 L339.85,692.61 L339.86,692.62 L339.86,692.62 L339.87,692.63 L339.88,692.64 L339.88,692.65 L339.88,692.65 L339.89,692.66 L339.89,692.66 L339.89,692.67 L339.89,692.68 L339.9,692.68 L339.9,692.69 L339.9,692.7 L339.9,692.71 L339.9,692.71 L339.9,692.72 L339.9,692.73 L339.9,692.74 L339.9,692.75 C339.9,692.95,339.71,692.95,339.58,692.95 H333.6 C333.46,692.95,333.27,692.95,333.27,692.75 C333.27,692.55,333.46,692.55,333.61,692.55 Z " />
<path
   id="path869"
   word-spacing="normal"
   text-anchor="start"
   stroke-opacity="1"
   stroke-miterlimit="10.433"
   stroke-linejoin="miter"
   stroke-linecap="butt"
   stroke-dasharray="none"
   stroke="black"
   letter-spacing="normal"
   font-weight="normal"
   font-variant="normal"
   font-style="normal"
   font-stretch="normal"
   font-size-adjust="none"
   fill-rule="evenodd"
   fill-opacity="1"
   fill="black"
   stroke-width="0"
   d="M339.58,690.62 L339.59,690.62 L339.6,690.62 L339.63,690.62 L339.66,690.63 L339.67,690.63 L339.69,690.63 L339.7,690.63 L339.71,690.63 L339.73,690.63 L339.74,690.63 L339.75,690.64 L339.77,690.64 L339.78,690.64 L339.79,690.65 L339.8,690.65 L339.82,690.66 L339.83,690.67 L339.84,690.67 L339.85,690.68 L339.86,690.69 L339.86,690.7 L339.87,690.7 L339.87,690.71 L339.88,690.71 L339.88,690.72 L339.88,690.72 L339.89,690.73 L339.89,690.74 L339.89,690.74 L339.89,690.75 L339.9,690.76 L339.9,690.76 L339.9,690.77 L339.9,690.78 L339.9,690.79 L339.9,690.8 L339.9,690.8 L339.9,690.81 L339.9,690.82 C339.9,691.02,339.71,691.02,339.57,691.02 H333.61 C333.46,691.02,333.27,691.02,333.27,690.82 C333.27,690.62,333.46,690.62,333.6,690.62 Z " />
<path
   id="path871"
   word-spacing="normal"
   text-anchor="start"
   stroke-opacity="1"
   stroke-miterlimit="10.433"
   stroke-linejoin="miter"
   stroke-linecap="butt"
   stroke-dasharray="none"
   stroke="black"
   letter-spacing="normal"
   font-weight="normal"
   font-variant="normal"
   font-style="normal"
   font-stretch="normal"
   font-size-adjust="none"
   fill-rule="evenodd"
   fill-opacity="1"
   fill="black"
   stroke-width="0"
   d="M345.1,691.6 L345.12,691.6 L345.15,691.6 L345.19,691.6 L345.22,691.6 L345.26,691.6 L345.3,691.6 L345.34,691.6 L345.39,691.6 L345.43,691.61 L345.48,691.61 L345.52,691.61 L345.57,691.62 L345.62,691.62 L345.67,691.62 L345.78,691.63 L345.89,691.65 L346,691.66 L346.1,691.68 L346.21,691.7 L346.32,691.73 L346.37,691.74 L346.42,691.76 L346.47,691.77 L346.52,691.79 L346.57,691.81 L346.62,691.83 C347.32,692.12,347.37,692.71,347.37,692.85 C347.37,693.29,346.99,693.69,346.3,693.69 V693.47 C346.77,693.47,347.04,693.19,347.04,692.85 C347.04,691.82,345.44,691.82,345.04,691.82 H344.63 C345.02,693.33,346.04,693.47,346.3,693.47 V693.69 C345.2,693.69,343.69,692.73,343.69,690.99 C343.69,689.98,344.28,689.19,345.25,689.19 C346.68,689.19,347.52,690.25,347.52,690.37 C347.52,690.42,347.46,690.49,347.4,690.49 C347.35,690.49,347.33,690.47,347.27,690.4 C346.48,689.41,345.39,689.41,345.27,689.41 C344.5,689.41,344.41,690.25,344.41,690.57 C344.41,690.68,344.42,690.99,344.57,691.6 Z " />
</g>  </g>
</svg>
