<?xml version="1.0" encoding="UTF-8" standalone="no"?>
<svg
   xmlns:ns50="http://www.iki.fi/pav/software/textext/"
   xmlns:dc="http://purl.org/dc/elements/1.1/"
   xmlns:cc="http://creativecommons.org/ns#"
   xmlns:rdf="http://www.w3.org/1999/02/22-rdf-syntax-ns#"
   xmlns:svg="http://www.w3.org/2000/svg"
   xmlns="http://www.w3.org/2000/svg"
   xmlns:sodipodi="http://sodipodi.sourceforge.net/DTD/sodipodi-0.dtd"
   xmlns:inkscape="http://www.inkscape.org/namespaces/inkscape"
   width="210mm"
   height="297mm"
   viewBox="0 0 210 297"
   version="1.1"
   id="svg8"
   inkscape:version="1.0.1 (1.0.1+r74)"
   sodipodi:docname="original.svg">
  <defs
     id="defs2" />
  <sodipodi:namedview
     id="base"
     pagecolor="#ffffff"
     bordercolor="#666666"
     borderopacity="1.0"
     inkscape:pageopacity="0.0"
     inkscape:pageshadow="2"
     inkscape:zoom="0.35"
     inkscape:cx="400"
     inkscape:cy="560"
     inkscape:document-units="mm"
     inkscape:current-layer="layer1"
     inkscape:document-rotation="0"
     showgrid="false"
     inkscape:window-width="1245"
     inkscape:window-height="1015"
     inkscape:window-x="0"
     inkscape:window-y="0"
     inkscape:window-maximized="0" />
  <metadata
     id="metadata5">
    <rdf:RDF>
      <cc:Work
         rdf:about="">
        <dc:format>image/svg+xml</dc:format>
        <dc:type
           rdf:resource="http://purl.org/dc/dcmitype/StillImage" />
        <dc:title />
      </cc:Work>
    </rdf:RDF>
  </metadata>
  <g
     inkscape:label="Ebene 1"
     inkscape:groupmode="layer"
     id="layer1">
    <g
       transform="matrix(0.352778 0 0 0.352778 71.1099 139.095)"
       ns50:version="1.2.0"
       ns50:texconverter="pdflatex"
       ns50:pdfconverter="inkscape"
       ns50:text="\noindent Satz des Pythagoras (Теорема Пифагора):
\begin{equation*}
a^2 + b^2 = c^2
\end{equation*}
äöüß"
       ns50:preamble="/home/winkler/Develop/TexText/textext-jcwinkler/snippets/inkscape-1.0.1/textext-1.2.0/inkscape/10/utf8_cyrillic_packages.tex"
       ns50:scale="1.0"
       ns50:alignment="middle center"
       ns50:inkscapeversion="1.0.1"
       ns50:jacobian_sqrt="0.352778"
       id="content">
      <defs
         id="id-83589b00-1d4a-43b8-9e34-cff33873569b">
        <g
           id="id-70c3ab30-dc87-48ce-8dcb-9733996c4253">
          <symbol
             overflow="visible"
             id="id-af36bc71-95de-4a5f-82e0-9b19e925b0e7">
            <path
               style="stroke:none;stroke-width:0"
               d=""
               id="id-84dc9bc3-bc2f-4a03-a900-d10436dc76e7" />
          </symbol>
          <symbol
             overflow="visible"
             id="id-231065d9-015f-4b17-a082-e8205075e3db">
            <path
               style="stroke:none;stroke-width:0"
               d="m 1.15625,-0.484375 c 0.625,0.484375 1.109375,0.6875 1.890625,0.6875 1.1875,0 1.921875,-1.0625 1.921875,-2.078125 C 4.96875,-2.703125 4.5,-3.46875 3.703125,-3.796875 3.09375,-4.046875 2.34375,-4.03125 1.8125,-4.34375 c -0.390625,-0.25 -0.625,-0.6875 -0.625,-1.125 0,-0.78125 0.671875,-1.296875 1.375,-1.296875 0.984375,0 1.671875,0.796875 1.828125,1.796875 0.03125,0.140625 0,0.40625 0.1875,0.40625 0.109375,0 0.109375,-0.078125 0.109375,-0.171875 v -2.15625 c 0,-0.078125 -0.015625,-0.140625 -0.09375,-0.140625 -0.140625,0 -0.25,0.265625 -0.34375,0.40625 -0.046875,0.078125 -0.125,0.1875 -0.15625,0.28125 -0.421875,-0.40625 -0.890625,-0.6875 -1.546875,-0.6875 -0.984375,0 -2,0.671875 -2,1.9375 0,1.03125 0.765625,1.71875 1.734375,1.921875 C 2.5,-3.125 2.6875,-3.0625 2.90625,-3.015625 3.453125,-2.875 4.015625,-2.734375 4.25,-2.03125 c 0.0625,0.15625 0.09375,0.3125 0.09375,0.46875 0,0.75 -0.515625,1.46875 -1.359375,1.46875 C 2,-0.09375 1.03125,-0.625 0.828125,-1.78125 0.8125,-1.859375 0.8125,-1.96875 0.796875,-2.046875 V -2.125 c 0,-0.09375 -0.046875,-0.140625 -0.125,-0.140625 -0.109375,0 -0.125,0.078125 -0.125,0.140625 v 2.1875 c 0,0.078125 0.015625,0.140625 0.09375,0.140625 0.15625,0 0.265625,-0.265625 0.34375,-0.40625 0.0625,-0.09375 0.125,-0.1875 0.171875,-0.28125 z m 0,0"
               id="id-93ba624b-a4c2-4f64-848d-eb81d6c5539a" />
          </symbol>
          <symbol
             overflow="visible"
             id="id-6b12d88e-0ca7-40c4-8745-331c22007f54">
            <path
               style="stroke:none;stroke-width:0"
               d="m 1.109375,-3.796875 c 0.25,-0.3125 0.6875,-0.453125 1.0625,-0.453125 0.734375,0 1.0625,0.671875 1.0625,1.375 v 0.265625 c -1.140625,0 -2.828125,0.359375 -2.828125,1.65625 V -0.875 c 0.078125,0.78125 1.046875,0.96875 1.625,0.96875 0.5,0 1.15625,-0.328125 1.28125,-0.84375 0.0625,0.4375 0.34375,0.796875 0.78125,0.796875 0.40625,0 0.765625,-0.328125 0.828125,-0.78125 v -0.71875 h -0.25 v 0.5 c 0,0.28125 -0.0625,0.6875 -0.359375,0.6875 -0.328125,0 -0.375,-0.390625 -0.375,-0.65625 V -2.59375 c 0,-0.125 0.015625,-0.25 0.015625,-0.375 0,-0.96875 -0.90625,-1.5 -1.734375,-1.5 -0.640625,0 -1.515625,0.3125 -1.515625,1.109375 0,0.28125 0.203125,0.484375 0.46875,0.484375 0.28125,0 0.4375,-0.21875 0.4375,-0.46875 0,-0.28125 -0.21875,-0.453125 -0.5,-0.453125 z m 2.125,1.390625 v 1.015625 c 0,0.6875 -0.46875,1.234375 -1.125,1.265625 H 2.078125 C 1.609375,-0.125 1.1875,-0.484375 1.1875,-0.96875 V -1.015625 C 1.25,-2.03125 2.375,-2.375 3.234375,-2.40625 Z m 0,0"
               id="id-8175f8bc-678a-46bd-b64f-19561ca4ef4d" />
          </symbol>
          <symbol
             overflow="visible"
             id="id-667373ea-d2f2-4a4e-bfb4-8dab3e66a36d">
            <path
               style="stroke:none;stroke-width:0"
               d="m 1.484375,-6.140625 c 0,0.6875 -0.28125,1.9375 -1.3125,1.9375 v 0.21875 H 1.03125 v 2.5625 c 0,0.328125 0.03125,0.671875 0.1875,0.953125 0.21875,0.40625 0.6875,0.5625 1.125,0.5625 0.8125,0 0.96875,-0.90625 0.96875,-1.546875 V -1.8125 H 3.078125 c 0,0.140625 0,0.296875 0,0.453125 0,0.4375 -0.09375,1.203125 -0.6875,1.203125 -0.5625,0 -0.65625,-0.6875 -0.65625,-1.125 V -3.984375 H 3.15625 v -0.3125 H 1.734375 v -1.84375 z m 0,0"
               id="id-8b76dc68-49b8-4adf-8c7b-636380e2b779" />
          </symbol>
          <symbol
             overflow="visible"
             id="id-d53c8a38-73ad-447b-a7c3-f2a90804db17">
            <path
               style="stroke:none;stroke-width:0"
               d="M 0.53125,-4.296875 0.421875,-2.6875 h 0.25 c 0.015625,-0.359375 0.03125,-0.765625 0.25,-1.046875 0.25,-0.3125 0.71875,-0.34375 1.109375,-0.34375 H 3.140625 C 2.203125,-2.875 1.3125,-1.59375 0.390625,-0.375 0.34375,-0.3125 0.28125,-0.21875 0.28125,-0.140625 c 0,0.09375 0.0625,0.125 0.171875,0.125 h 3.375 L 4,-1.875 H 3.75 C 3.671875,-1.203125 3.625,-0.375 2.671875,-0.28125 2.4375,-0.265625 2.21875,-0.265625 2,-0.265625 H 1.125 C 1.859375,-1.25 2.59375,-2.25 3.328125,-3.234375 3.546875,-3.53125 3.984375,-4 3.984375,-4.171875 c 0,-0.09375 -0.09375,-0.125 -0.171875,-0.125 z m 0,0"
               id="id-75db69b1-9d52-452e-a29b-1d1f7319b35c" />
          </symbol>
          <symbol
             overflow="visible"
             id="id-e01415a6-7729-45ad-ab4a-49a09909c66d">
            <path
               style="stroke:none;stroke-width:0"
               d="m 3.03125,-6.8125 v 0.296875 H 3.1875 c 0.34375,0 0.625,0.046875 0.625,0.625 l -0.015625,2.09375 C 3.5625,-4.203125 2.984375,-4.40625 2.53125,-4.40625 c -1.21875,0 -2.203125,1.0625 -2.203125,2.265625 0,1.0625 0.8125,2.234375 2.140625,2.234375 0.515625,0 0.984375,-0.25 1.3125,-0.640625 V 0.09375 L 5.25,-0.015625 V -0.3125 H 5.078125 c -0.296875,0 -0.609375,-0.03125 -0.609375,-0.5 V -6.921875 Z M 1.171875,-1.90625 V -2.046875 C 1.171875,-2.796875 1.25,-3.53125 1.9375,-4 2.140625,-4.109375 2.375,-4.1875 2.609375,-4.1875 c 0.484375,0 1.171875,0.40625 1.171875,1.03125 0,0.125 0,0.25 0,0.390625 v 1.65625 c 0,0.125 -0.046875,0.21875 -0.125,0.3125 C 3.40625,-0.40625 2.96875,-0.125 2.5,-0.125 1.78125,-0.125 1.3125,-0.78125 1.203125,-1.46875 1.1875,-1.609375 1.1875,-1.765625 1.171875,-1.90625 Z m 0,0"
               id="id-16559c47-e30b-47d4-bbe4-6056a7fea906" />
          </symbol>
          <symbol
             overflow="visible"
             id="id-ede23889-a6d1-4e4b-a21a-743856380b04">
            <path
               style="stroke:none;stroke-width:0"
               d="m 1.109375,-2.3125 h 2.875 c 0.109375,0 0.15625,-0.0625 0.15625,-0.1875 0,-1.046875 -0.640625,-1.96875 -1.765625,-1.96875 -1.21875,0 -2.09375,1.09375 -2.09375,2.28125 0,0.90625 0.5,1.734375 1.390625,2.125 0.21875,0.109375 0.484375,0.15625 0.734375,0.15625 H 2.4375 c 0.765625,0 1.40625,-0.421875 1.671875,-1.1875 C 4.125,-1.125 4.125,-1.171875 4.125,-1.203125 4.125,-1.265625 4.09375,-1.3125 4.015625,-1.3125 3.875,-1.3125 3.8125,-0.984375 3.75,-0.875 3.5,-0.4375 3.015625,-0.15625 2.5,-0.15625 c -0.359375,0 -0.6875,-0.203125 -0.953125,-0.46875 -0.40625,-0.46875 -0.4375,-1.109375 -0.4375,-1.6875 z M 1.125,-2.515625 C 1.125,-3.296875 1.53125,-4.25 2.359375,-4.25 H 2.40625 c 0.96875,0.09375 0.96875,1.125 1.0625,1.734375 z m 0,0"
               id="id-1e1f1e6c-dd3b-4b83-a620-576373c29e15" />
          </symbol>
          <symbol
             overflow="visible"
             id="id-ad4bc95d-a4e5-4b72-9d64-245576f828fa">
            <path
               style="stroke:none;stroke-width:0"
               d="M 1.75,-4.46875 C 1.390625,-4.421875 1,-4.359375 0.703125,-4.109375 c -0.234375,0.21875 -0.375,0.546875 -0.375,0.875 C 0.328125,-1.53125 3.09375,-2.5 3.09375,-1 3.09375,-0.40625 2.546875,-0.125 2,-0.125 1.25,-0.125 0.734375,-0.65625 0.59375,-1.515625 0.578125,-1.609375 0.5625,-1.6875 0.453125,-1.6875 c -0.078125,0 -0.125,0.046875 -0.125,0.125 V 0.015625 C 0.34375,0.0625 0.375,0.09375 0.421875,0.09375 H 0.4375 c 0.15625,0 0.3125,-0.359375 0.4375,-0.390625 h 0.015625 c 0.078125,0 0.34375,0.25 0.5625,0.3125 0.15625,0.0625 0.34375,0.078125 0.515625,0.078125 0.828125,0 1.625,-0.4375 1.625,-1.34375 0,-0.65625 -0.484375,-1.203125 -1.140625,-1.375 -0.625,-0.171875 -1.640625,-0.171875 -1.640625,-0.890625 0,-0.609375 0.671875,-0.765625 1.109375,-0.765625 0.484375,0 1.171875,0.28125 1.171875,1.125 0,0.09375 0,0.171875 0.109375,0.171875 0.109375,0 0.140625,-0.078125 0.140625,-0.171875 0,-0.046875 0,-0.109375 0,-0.140625 v -1.03125 c 0,-0.0625 -0.03125,-0.140625 -0.109375,-0.140625 -0.15625,0 -0.265625,0.25 -0.375,0.25 H 2.84375 c -0.078125,0 -0.234375,-0.125 -0.34375,-0.171875 -0.1875,-0.0625 -0.390625,-0.078125 -0.578125,-0.078125 -0.0625,0 -0.109375,0 -0.171875,0 z m 0,0"
               id="id-64eb1ddd-b3f7-4a16-9e53-473848ead740" />
          </symbol>
          <symbol
             overflow="visible"
             id="id-d2438ae0-05d9-4274-9b81-6ba6ce90ac26">
            <path
               style="stroke:none;stroke-width:0"
               d="m 0.34375,-6.8125 v 0.296875 c 0.125,0 0.25,0 0.375,0 0.359375,0 0.640625,0.046875 0.640625,0.4375 V -0.75 c 0,0.375 -0.328125,0.4375 -0.65625,0.4375 -0.140625,0 -0.25,0 -0.359375,0 v 0.296875 h 2.9375 V -0.3125 H 2.9375 C 2.515625,-0.3125 2.25,-0.34375 2.25,-0.75 v -2.40625 h 1.84375 c 0.9375,-0.078125 2.125,-0.65625 2.125,-1.796875 0,-1.0625 -1.046875,-1.75 -2.046875,-1.859375 -0.15625,0 -0.296875,-0.015625 -0.4375,-0.015625 -0.203125,0 -0.40625,0.015625 -0.59375,0.015625 z m 1.875,3.390625 V -6.1875 c 0,-0.265625 0.171875,-0.296875 0.359375,-0.328125 h 0.75 c 0.5625,0 1.203125,0.03125 1.59375,0.5 0.234375,0.28125 0.265625,0.6875 0.265625,1.046875 0,0.359375 -0.03125,0.734375 -0.25,1.03125 -0.328125,0.421875 -0.90625,0.515625 -1.421875,0.515625 z m 0,0"
               id="id-00d40d52-afc7-4995-8383-b787743428d0" />
          </symbol>
          <symbol
             overflow="visible"
             id="id-50afcf74-7c8f-427c-a8e2-047b1d4e40f4">
            <path
               style="stroke:none;stroke-width:0"
               d="m 0.1875,-4.296875 v 0.3125 h 0.15625 c 0.28125,0 0.5,0.03125 0.671875,0.40625 C 1.46875,-2.484375 1.90625,-1.375 2.375,-0.28125 2.40625,-0.203125 2.484375,-0.09375 2.484375,0 2.484375,0.015625 2.46875,0.03125 2.46875,0.046875 2.40625,0.25 2.296875,0.453125 2.21875,0.640625 2.015625,1.140625 1.71875,1.8125 1.109375,1.8125 0.953125,1.8125 0.75,1.75 0.640625,1.640625 0.828125,1.609375 1.03125,1.5 1.03125,1.21875 1.03125,1 0.875,0.8125 0.65625,0.796875 c -0.3125,0 -0.46875,0.1875 -0.46875,0.421875 0,0.5 0.46875,0.8125 0.921875,0.8125 0.71875,0 1.109375,-0.734375 1.359375,-1.328125 l 0.296875,-0.71875 C 3.109375,-0.875 3.46875,-1.71875 3.828125,-2.578125 L 4.0625,-3.15625 c 0.171875,-0.46875 0.4375,-0.828125 1,-0.828125 v -0.3125 H 3.453125 v 0.3125 c 0.234375,0 0.46875,0.15625 0.46875,0.40625 0,0.125 -0.0625,0.265625 -0.109375,0.375 -0.296875,0.6875 -0.546875,1.375 -0.859375,2.046875 C 2.9375,-1.0625 2.875,-0.984375 2.859375,-0.890625 H 2.84375 C 2.78125,-1.109375 2.671875,-1.328125 2.578125,-1.546875 2.328125,-2.1875 2.015625,-2.84375 1.78125,-3.515625 1.75,-3.578125 1.703125,-3.65625 1.703125,-3.734375 v -0.03125 c 0.0625,-0.21875 0.34375,-0.21875 0.546875,-0.21875 v -0.3125 z m 0,0"
               id="id-255d4166-a27a-4beb-b0b1-414d3a91ae65" />
          </symbol>
          <symbol
             overflow="visible"
             id="id-ff314189-686c-4bf7-b375-a6653afea47c">
            <path
               style="stroke:none;stroke-width:0"
               d="m 0.3125,-6.8125 v 0.296875 h 0.15625 c 0.375,0 0.625,0.046875 0.625,0.53125 v 5.03125 c 0,0.0625 0.015625,0.140625 0.015625,0.21875 0,0.375 -0.265625,0.421875 -0.546875,0.421875 h -0.25 v 0.296875 H 2.578125 V -0.3125 H 2.3125 c -0.28125,0 -0.515625,-0.046875 -0.515625,-0.421875 v -1.8125 c 0,-0.71875 0.359375,-1.640625 1.359375,-1.640625 0.625,0 0.6875,0.6875 0.6875,1.109375 V -0.6875 c 0,0.34375 -0.28125,0.375 -0.59375,0.375 H 3.078125 v 0.296875 h 2.25 V -0.3125 h -0.25 c -0.265625,0 -0.53125,-0.046875 -0.53125,-0.390625 V -2.875 c 0,-0.328125 -0.015625,-0.65625 -0.15625,-0.96875 -0.25,-0.4375 -0.734375,-0.5625 -1.203125,-0.5625 -0.578125,0 -1.21875,0.390625 -1.40625,0.953125 l -0.015625,-3.46875 z m 0,0"
               id="id-df645dfb-ca50-447e-8b5a-038eaac2b200" />
          </symbol>
          <symbol
             overflow="visible"
             id="id-df2c2b1d-cce7-49d0-9369-a55de78df8d7">
            <path
               style="stroke:none;stroke-width:0"
               d="m 1.1875,-0.234375 v 0.015625 c -0.46875,0.09375 -0.90625,0.53125 -0.90625,1 0,0.9375 1.4375,1.265625 2.203125,1.265625 C 3.3125,2.046875 4.6875,1.75 4.6875,0.71875 4.6875,0.0625 4.234375,-0.375 3.640625,-0.546875 3.28125,-0.65625 2.90625,-0.671875 2.53125,-0.671875 H 1.625 c -0.3125,-0.03125 -0.5625,-0.34375 -0.5625,-0.65625 v -0.0625 c 0,-0.125 0.078125,-0.390625 0.171875,-0.390625 C 1.359375,-1.75 1.5,-1.640625 1.65625,-1.578125 1.828125,-1.53125 2.03125,-1.5 2.21875,-1.5 c 0.828125,0 1.625,-0.609375 1.625,-1.453125 0,-0.34375 -0.140625,-0.734375 -0.421875,-0.953125 v -0.015625 c 0.28125,-0.1875 0.53125,-0.375 0.890625,-0.375 0.03125,0 0.0625,0 0.09375,0.015625 -0.09375,0.046875 -0.15625,0.125 -0.15625,0.25 0,0.15625 0.140625,0.296875 0.296875,0.296875 0.171875,0 0.28125,-0.140625 0.28125,-0.296875 0,-0.265625 -0.21875,-0.484375 -0.484375,-0.484375 -0.359375,0 -0.6875,0.140625 -0.953125,0.359375 C 3.359375,-4.125 3.3125,-4.09375 3.28125,-4.078125 H 3.265625 c -0.0625,0 -0.140625,-0.078125 -0.1875,-0.109375 -0.25,-0.140625 -0.5625,-0.21875 -0.859375,-0.21875 -0.78125,0 -1.625,0.546875 -1.625,1.453125 0,0.328125 0.125,0.625 0.328125,0.890625 0.03125,0.03125 0.109375,0.09375 0.109375,0.140625 0,0.046875 -0.0625,0.09375 -0.078125,0.140625 C 0.8125,-1.578125 0.75,-1.328125 0.75,-1.09375 c 0,0.3125 0.140625,0.71875 0.4375,0.859375 z M 0.8125,0.84375 V 0.75 c 0,-0.515625 0.453125,-0.828125 0.984375,-0.828125 h 0.78125 c 0.625,0 1.59375,0.09375 1.59375,0.859375 C 4.171875,1.5 3.09375,1.8125 2.484375,1.8125 1.828125,1.8125 0.90625,1.515625 0.8125,0.84375 Z M 1.34375,-2.75 v -0.125 c 0,-0.546875 0.125,-1.296875 0.875,-1.296875 0.609375,0 0.859375,0.578125 0.859375,1.21875 0,0.40625 -0.078125,1.21875 -0.859375,1.21875 -0.25,0 -0.5,-0.125 -0.671875,-0.34375 C 1.390625,-2.265625 1.375,-2.515625 1.34375,-2.75 Z m 0,0"
               id="id-bf8801eb-78c7-4fde-9f7f-a070991ea9f4" />
          </symbol>
          <symbol
             overflow="visible"
             id="id-3762f7ea-8e2f-4c43-b94c-5b11b8831f5e">
            <path
               style="stroke:none;stroke-width:0"
               d="m 2.34375,-4.46875 c -1.25,0.125 -2.0625,1.1875 -2.0625,2.34375 0,1.125 0.890625,2.21875 2.21875,2.21875 1.1875,0 2.1875,-0.96875 2.1875,-2.234375 0,-1.171875 -0.890625,-2.328125 -2.21875,-2.328125 -0.03125,0 -0.09375,0 -0.125,0 z m -1.234375,2.578125 v -0.4375 c 0,-0.765625 0.25,-1.921875 1.375,-1.921875 0.8125,0 1.265625,0.6875 1.359375,1.4375 0.015625,0.21875 0.015625,0.4375 0.015625,0.65625 0,0.640625 -0.078125,1.453125 -0.703125,1.8125 C 2.953125,-0.203125 2.734375,-0.15625 2.5,-0.15625 1.78125,-0.15625 1.265625,-0.71875 1.15625,-1.5 1.140625,-1.625 1.140625,-1.765625 1.109375,-1.890625 Z m 0,0"
               id="id-b26e3c41-c515-4bbc-945a-d4f13644a98f" />
          </symbol>
          <symbol
             overflow="visible"
             id="id-b7183645-37eb-4dca-85f0-3f4cf768e8ad">
            <path
               style="stroke:none;stroke-width:0"
               d="m 0.265625,-4.296875 v 0.3125 h 0.15625 c 0.328125,0 0.625,0.03125 0.625,0.5 v 2.75 c 0,0.40625 -0.28125,0.421875 -0.71875,0.421875 h -0.0625 v 0.296875 H 2.6875 V -0.3125 c -0.125,0 -0.265625,0 -0.390625,0 -0.3125,0 -0.578125,-0.046875 -0.578125,-0.421875 v -1.3125 c 0,-0.859375 0.1875,-2.140625 1.171875,-2.140625 0.046875,0 0.0625,0 0.109375,0.015625 -0.15625,0.0625 -0.234375,0.21875 -0.234375,0.390625 0,0.21875 0.15625,0.375 0.390625,0.421875 0.28125,0 0.46875,-0.171875 0.46875,-0.421875 0,-0.40625 -0.375,-0.625 -0.734375,-0.625 -0.59375,0 -1.109375,0.53125 -1.21875,1.0625 v -1.0625 z m 0,0"
               id="id-c3e16af8-af03-47b3-bd35-77fd479fb4ef" />
          </symbol>
          <symbol
             overflow="visible"
             id="id-da506a7a-64d1-4c58-9801-debd83137bf6">
            <path
               style="stroke:none;stroke-width:0"
               d="m 3.15625,-7.484375 c -0.140625,0.0625 -0.3125,0.25 -0.4375,0.375 C 1.5,-5.875 1,-4.1875 1,-2.5 1,-0.703125 1.578125,1.21875 3.046875,2.40625 3.09375,2.4375 3.15625,2.484375 3.21875,2.484375 3.28125,2.484375 3.3125,2.421875 3.3125,2.375 3.3125,2.265625 3.046875,2.0625 2.9375,1.9375 1.90625,0.703125 1.578125,-0.921875 1.578125,-2.5 c 0,-1.640625 0.328125,-3.4375 1.578125,-4.671875 0.046875,-0.0625 0.15625,-0.140625 0.15625,-0.21875 0,-0.0625 -0.046875,-0.09375 -0.109375,-0.09375 -0.015625,0 -0.03125,0 -0.046875,0 z m 0,0"
               id="id-d7938303-09e8-45ad-a33a-adc5179403a7" />
          </symbol>
          <symbol
             overflow="visible"
             id="id-e0e45fb6-07ab-4789-9552-aeb48f23222c">
            <path
               style="stroke:none;stroke-width:0"
               d="m 0.546875,-6.8125 -0.1875,2.234375 h 0.25 c 0.03125,-0.515625 0.0625,-1.21875 0.375,-1.5625 0.34375,-0.34375 0.90625,-0.375 1.375,-0.375 h 0.28125 c 0.25,0 0.515625,0 0.515625,0.34375 v 5.40625 C 3.15625,-0.375 2.75,-0.3125 2.390625,-0.3125 c -0.125,0 -0.25,0 -0.359375,0 H 1.703125 v 0.296875 h 3.78125 V -0.3125 H 4.8125 c -0.390625,0 -0.78125,-0.046875 -0.78125,-0.453125 v -5.40625 c 0,-0.28125 0.171875,-0.34375 0.546875,-0.34375 h 0.25 c 0.46875,0 1.03125,0.03125 1.375,0.375 0.3125,0.34375 0.34375,1.046875 0.375,1.5625 h 0.25 L 6.640625,-6.8125 Z m 0,0"
               id="id-73dafe15-d519-4ab7-815c-2c7b21427fd5" />
          </symbol>
          <symbol
             overflow="visible"
             id="id-f0e9219c-d36b-40f0-9fde-70c85cbd6094">
            <path
               style="stroke:none;stroke-width:0"
               d="m 1.109375,-2.3125 h 2.875 c 0.109375,0 0.15625,-0.0625 0.15625,-0.1875 0,-1.046875 -0.640625,-1.96875 -1.765625,-1.96875 -1.21875,0 -2.09375,1.09375 -2.09375,2.28125 0,0.90625 0.5,1.734375 1.390625,2.125 0.21875,0.109375 0.484375,0.15625 0.734375,0.15625 H 2.4375 c 0.765625,0 1.40625,-0.421875 1.671875,-1.1875 C 4.125,-1.125 4.125,-1.171875 4.125,-1.203125 4.125,-1.265625 4.09375,-1.3125 4.015625,-1.3125 3.875,-1.3125 3.8125,-0.984375 3.75,-0.875 3.5,-0.4375 3.015625,-0.15625 2.5,-0.15625 c -0.359375,0 -0.6875,-0.203125 -0.953125,-0.46875 -0.40625,-0.46875 -0.4375,-1.109375 -0.4375,-1.6875 z M 1.125,-2.515625 C 1.125,-3.296875 1.53125,-4.25 2.359375,-4.25 H 2.40625 c 0.96875,0.09375 0.96875,1.125 1.0625,1.734375 z m 0,0"
               id="id-eb9a6bf8-9570-4522-8e9f-4e29a66c6827" />
          </symbol>
          <symbol
             overflow="visible"
             id="id-9b051b55-2126-47c5-a3f5-84d1cc38d408">
            <path
               style="stroke:none;stroke-width:0"
               d="m 2.34375,-4.46875 c -1.25,0.125 -2.0625,1.1875 -2.0625,2.34375 0,1.125 0.890625,2.21875 2.21875,2.21875 1.1875,0 2.1875,-0.96875 2.1875,-2.234375 0,-1.171875 -0.890625,-2.328125 -2.21875,-2.328125 -0.03125,0 -0.09375,0 -0.125,0 z m -1.234375,2.578125 v -0.4375 c 0,-0.765625 0.25,-1.921875 1.375,-1.921875 0.8125,0 1.265625,0.6875 1.359375,1.4375 0.015625,0.21875 0.015625,0.4375 0.015625,0.65625 0,0.640625 -0.078125,1.453125 -0.703125,1.8125 C 2.953125,-0.203125 2.734375,-0.15625 2.5,-0.15625 1.78125,-0.15625 1.265625,-0.71875 1.15625,-1.5 1.140625,-1.625 1.140625,-1.765625 1.109375,-1.890625 Z m 0,0"
               id="id-3b22b718-25e6-4d16-ab0a-f68f94b6651e" />
          </symbol>
          <symbol
             overflow="visible"
             id="id-165fa468-c27b-428d-a1bb-09ef67ae9322">
            <path
               style="stroke:none;stroke-width:0"
               d="m 0.265625,-4.296875 v 0.3125 h 0.1875 c 0.296875,0 0.59375,0.03125 0.59375,0.421875 V 1.21875 C 1.046875,1.578125 0.78125,1.609375 0.5,1.609375 H 0.265625 v 0.3125 h 2.25 v -0.3125 H 2.28125 C 1.984375,1.609375 1.75,1.578125 1.75,1.21875 v -1.734375 c 0.234375,0.421875 0.796875,0.609375 1.21875,0.609375 1.234375,0 2.21875,-1.046875 2.21875,-2.25 0,-1.203125 -0.921875,-2.25 -2.09375,-2.25 -0.546875,0 -1.015625,0.234375 -1.375,0.640625 V -4.40625 Z m 4.078125,2.3125 C 4.296875,-1.25 3.90625,-0.203125 3,-0.125 H 2.9375 C 2.515625,-0.125 2.125,-0.359375 1.890625,-0.71875 1.796875,-0.828125 1.75,-0.921875 1.75,-1.0625 V -2.734375 C 1.75,-2.875 1.734375,-3 1.734375,-3.125 1.734375,-3.65625 2.40625,-4.15625 3,-4.15625 c 1,0 1.359375,1.3125 1.359375,2.015625 0,0.046875 0,0.109375 -0.015625,0.15625 z m 0,0"
               id="id-760081f4-b408-42a6-8239-6c1a90511776" />
          </symbol>
          <symbol
             overflow="visible"
             id="id-434921fb-b3ce-421f-a88d-aecf4641e4b2">
            <path
               style="stroke:none;stroke-width:0"
               d="m 0.296875,-4.296875 v 0.21875 h 0.21875 c 0.296875,0 0.5625,0.046875 0.5625,0.421875 v 2.625 c 0,0.625 -0.34375,0.796875 -0.78125,0.796875 v 0.21875 h 1.84375 v -0.21875 C 1.734375,-0.234375 1.359375,-0.375 1.359375,-1 v -2.953125 c 0.03125,0.125 0.109375,0.25 0.171875,0.390625 0.453125,1.125 0.90625,2.25 1.421875,3.359375 0.03125,0.078125 0.078125,0.1875 0.171875,0.1875 H 3.140625 C 3.25,-0.03125 3.296875,-0.15625 3.328125,-0.25 L 3.625,-0.96875 C 4,-1.859375 4.375,-2.75 4.765625,-3.640625 4.828125,-3.78125 4.890625,-3.921875 4.9375,-4.0625 v 3.421875 c 0,0.40625 -0.328125,0.40625 -0.703125,0.40625 h -0.0625 v 0.21875 H 6.34375 v -0.21875 H 6.109375 c -0.28125,0 -0.546875,-0.03125 -0.546875,-0.4375 V -3.625 c 0,-0.421875 0.265625,-0.453125 0.78125,-0.453125 v -0.21875 H 5.046875 c -0.21875,0 -0.265625,0.125 -0.328125,0.296875 -0.09375,0.234375 -0.1875,0.453125 -0.28125,0.6875 l -0.75,1.75 C 3.5625,-1.28125 3.484375,-1 3.34375,-0.75 2.90625,-1.828125 2.40625,-2.90625 1.96875,-4 1.890625,-4.140625 1.890625,-4.296875 1.640625,-4.296875 Z m 0,0"
               id="id-82bb2df7-23ca-4507-b14c-0ab4d58b12eb" />
          </symbol>
          <symbol
             overflow="visible"
             id="id-612f8001-473b-429e-b25c-ec0d0e618988">
            <path
               style="stroke:none;stroke-width:0"
               d="m 1.109375,-3.796875 c 0.25,-0.3125 0.6875,-0.453125 1.0625,-0.453125 0.734375,0 1.0625,0.671875 1.0625,1.375 v 0.265625 c -1.140625,0 -2.828125,0.359375 -2.828125,1.65625 V -0.875 c 0.078125,0.78125 1.046875,0.96875 1.625,0.96875 0.5,0 1.15625,-0.328125 1.28125,-0.84375 0.0625,0.4375 0.34375,0.796875 0.78125,0.796875 0.40625,0 0.765625,-0.328125 0.828125,-0.78125 v -0.71875 h -0.25 v 0.5 c 0,0.28125 -0.0625,0.6875 -0.359375,0.6875 -0.328125,0 -0.375,-0.390625 -0.375,-0.65625 V -2.59375 c 0,-0.125 0.015625,-0.25 0.015625,-0.375 0,-0.96875 -0.90625,-1.5 -1.734375,-1.5 -0.640625,0 -1.515625,0.3125 -1.515625,1.109375 0,0.28125 0.203125,0.484375 0.46875,0.484375 0.28125,0 0.4375,-0.21875 0.4375,-0.46875 0,-0.28125 -0.21875,-0.453125 -0.5,-0.453125 z m 2.125,1.390625 v 1.015625 c 0,0.6875 -0.46875,1.234375 -1.125,1.265625 H 2.078125 C 1.609375,-0.125 1.1875,-0.484375 1.1875,-0.96875 V -1.015625 C 1.25,-2.03125 2.375,-2.375 3.234375,-2.40625 Z m 0,0"
               id="id-5233e349-21f3-443f-b51a-1821eaeb6912" />
          </symbol>
          <symbol
             overflow="visible"
             id="id-52756f7e-570f-43ef-817a-b13f1c5e70dc">
            <path
               style="stroke:none;stroke-width:0"
               d="m 0.328125,-6.8125 v 0.296875 c 0.125,0 0.265625,0 0.375,0 0.359375,0 0.65625,0.046875 0.65625,0.4375 V -0.75 c 0,0.375 -0.328125,0.4375 -0.671875,0.4375 -0.125,0 -0.25,0 -0.359375,0 v 0.296875 h 2.9375 V -0.3125 c -0.109375,0 -0.25,0 -0.359375,0 C 2.546875,-0.3125 2.25,-0.359375 2.25,-0.75 v -5.234375 c 0,-0.0625 -0.015625,-0.125 -0.015625,-0.1875 0,-0.296875 0.1875,-0.34375 0.53125,-0.34375 H 5.15625 C 5.34375,-6.484375 5.5,-6.453125 5.5,-6.171875 V -0.75 c 0,0.390625 -0.34375,0.4375 -0.71875,0.4375 h -0.3125 v 0.296875 H 7.421875 V -0.3125 c -0.125,0 -0.25,0 -0.375,0 -0.34375,0 -0.65625,-0.046875 -0.65625,-0.4375 v -5.328125 c 0,-0.375 0.3125,-0.4375 0.65625,-0.4375 0.125,0 0.265625,0 0.375,0 V -6.8125 Z m 0,0"
               id="id-43c77370-a7a0-46ef-917c-21c10f8c9fd6" />
          </symbol>
          <symbol
             overflow="visible"
             id="id-06a0f71d-e4d5-43d6-b64f-145d081b88cc">
            <path
               style="stroke:none;stroke-width:0"
               d="m 0.25,-4.296875 v 0.21875 h 0.234375 c 0.28125,0 0.546875,0.046875 0.546875,0.453125 v 2.953125 c 0,0.421875 -0.28125,0.4375 -0.78125,0.4375 v 0.21875 H 2.5 v -0.21875 H 2.328125 C 2.03125,-0.234375 1.71875,-0.265625 1.71875,-0.625 1.734375,-0.71875 1.828125,-0.78125 1.875,-0.859375 L 2.265625,-1.34375 C 2.78125,-1.96875 3.25,-2.65625 3.796875,-3.25 v 2.578125 c 0,0.34375 -0.140625,0.4375 -0.78125,0.4375 v 0.21875 H 5.28125 v -0.21875 H 5.046875 C 4.765625,-0.234375 4.5,-0.265625 4.5,-0.671875 V -3.625 c 0,-0.421875 0.25,-0.453125 0.78125,-0.453125 v -0.21875 H 3.015625 v 0.21875 h 0.1875 c 0.28125,0 0.59375,0.03125 0.59375,0.40625 -0.015625,0.078125 -0.09375,0.15625 -0.140625,0.21875 l -0.390625,0.5 c -0.53125,0.625 -1,1.296875 -1.546875,1.890625 v -2.578125 c 0,-0.34375 0.140625,-0.4375 0.78125,-0.4375 v -0.21875 z m 0,0"
               id="id-6ee2d595-0fce-4b95-b4f7-56b210366803" />
          </symbol>
          <symbol
             overflow="visible"
             id="id-1a930965-7e18-4ed6-b2f7-8411c912e1e7">
            <path
               style="stroke:none;stroke-width:0"
               d="m 2.765625,-6.8125 v 0.296875 H 2.9375 c 0.328125,0 0.59375,0.046875 0.59375,0.59375 v 2 C 3.3125,-4.25 2.90625,-4.40625 2.515625,-4.40625 c -1.203125,0 -2.171875,1.0625 -2.171875,2.25 0,1.203125 0.984375,2.25 2.234375,2.25 0.40625,0 0.703125,-0.171875 0.953125,-0.46875 v 1.359375 c 0,0.0625 0.015625,0.140625 0.015625,0.21875 0,0.40625 -0.296875,0.40625 -0.71875,0.40625 h -0.0625 v 0.3125 h 2.21875 v -0.3125 H 4.75 c -0.296875,0 -0.546875,-0.03125 -0.546875,-0.40625 0,-0.078125 0,-0.15625 0,-0.21875 V -0.375 c 0.265625,0.296875 0.5625,0.46875 0.953125,0.46875 1.234375,0 2.25,-1.015625 2.25,-2.25 0,-1.125 -0.90625,-2.25 -2.1875,-2.25 -0.375,0 -0.796875,0.15625 -1,0.484375 l -0.015625,-3 z M 6.5625,-1.984375 C 6.5,-1.1875 6.0625,-0.125 5.109375,-0.125 c -0.40625,0 -0.90625,-0.421875 -0.90625,-0.859375 V -3.4375 c 0.078125,-0.4375 0.59375,-0.71875 0.9375,-0.71875 1.015625,0 1.4375,1.25 1.4375,2.015625 0,0.046875 0,0.109375 -0.015625,0.15625 z M 1.171875,-2 v -0.109375 c 0,-0.8125 0.421875,-2.046875 1.4375,-2.046875 0.40625,0 0.875,0.359375 0.921875,0.71875 v 2.453125 C 3.53125,-0.515625 3.015625,-0.125 2.625,-0.125 1.6875,-0.125 1.25,-1.171875 1.171875,-2 Z m 0,0"
               id="id-53894989-3180-4d53-bc41-f8d976eaec21" />
          </symbol>
          <symbol
             overflow="visible"
             id="id-c34a218a-8cf8-4dc0-9c35-39d904645c22">
            <path
               style="stroke:none;stroke-width:0"
               d="m 0.25,-4.296875 v 0.21875 h 0.234375 c 0.28125,0 0.546875,0.046875 0.546875,0.453125 v 2.953125 c 0,0.421875 -0.28125,0.4375 -0.78125,0.4375 v 0.21875 h 2.4375 v -0.21875 H 2.390625 c -0.359375,0 -0.671875,-0.03125 -0.671875,-0.46875 V -3.71875 c 0,-0.203125 0.078125,-0.359375 0.3125,-0.359375 h 0.625 c 0.671875,0 1.203125,0.046875 1.265625,1.390625 h 0.25 L 4.0625,-4.296875 Z m 0,0"
               id="id-7c411132-9051-4ac4-8350-1ab8ab5322a2" />
          </symbol>
          <symbol
             overflow="visible"
             id="id-fc8fd270-bca7-4dcc-a2be-0253c36132b4">
            <path
               style="stroke:none;stroke-width:0"
               d="m 0.625,-7.484375 c -0.046875,0.03125 -0.0625,0.0625 -0.0625,0.09375 0,0.109375 0.21875,0.28125 0.328125,0.40625 C 1.96875,-5.75 2.28125,-4.0625 2.28125,-2.5 2.28125,-0.890625 1.953125,0.9375 0.75,2.140625 0.6875,2.203125 0.5625,2.296875 0.5625,2.375 c 0,0.0625 0.046875,0.109375 0.109375,0.109375 C 0.796875,2.46875 1,2.25 1.109375,2.140625 2.375,0.875 2.875,-0.8125 2.875,-2.515625 2.875,-4.34375 2.265625,-6.171875 0.8125,-7.40625 0.765625,-7.4375 0.71875,-7.484375 0.65625,-7.484375 c -0.015625,0 -0.015625,0 -0.03125,0 z m 0,0"
               id="id-39eddb78-86ac-465c-86b4-f20aa691a127" />
          </symbol>
          <symbol
             overflow="visible"
             id="id-6e6ce03f-f11f-497e-a60c-8036ae124149">
            <path
               style="stroke:none;stroke-width:0"
               d="m 1.3125,-4.28125 c -0.25,0.03125 -0.453125,0.25 -0.453125,0.5 0,0.25 0.203125,0.546875 0.5,0.546875 0.28125,0 0.546875,-0.21875 0.546875,-0.53125 0,-0.25 -0.1875,-0.53125 -0.515625,-0.53125 -0.03125,0 -0.0625,0.015625 -0.078125,0.015625 z m 0,3.21875 c -0.25,0.03125 -0.453125,0.265625 -0.453125,0.515625 0,0.25 0.203125,0.53125 0.5,0.53125 0.28125,0 0.546875,-0.203125 0.546875,-0.515625 0,-0.25 -0.1875,-0.53125 -0.515625,-0.53125 -0.03125,0 -0.0625,0 -0.078125,0 z m 0,0"
               id="id-edc02ea3-a16f-4154-b3a6-5672ea03c029" />
          </symbol>
          <symbol
             overflow="visible"
             id="id-98301f19-ff43-4ebf-ae54-6289fd64ad34">
            <path
               style="stroke:none;stroke-width:0"
               d="m 1.453125,-6.5625 c -0.25,0.015625 -0.46875,0.25 -0.46875,0.515625 0,0.28125 0.25,0.53125 0.53125,0.53125 0.28125,0 0.53125,-0.234375 0.53125,-0.53125 0,-0.265625 -0.1875,-0.53125 -0.515625,-0.53125 -0.03125,0 -0.0625,0.015625 -0.078125,0.015625 z m 1.921875,0 c -0.25,0.015625 -0.4375,0.25 -0.4375,0.515625 0,0.25 0.1875,0.53125 0.484375,0.53125 0.3125,0 0.5625,-0.234375 0.5625,-0.53125 0,-0.296875 -0.25,-0.53125 -0.53125,-0.53125 -0.03125,0 -0.046875,0.015625 -0.078125,0.015625 z m 0,0"
               id="id-b69e180d-e660-43df-b476-fdfae32d56a6" />
          </symbol>
          <symbol
             overflow="visible"
             id="id-350243f2-387c-4add-b781-a840125692b2">
            <path
               style="stroke:none;stroke-width:0"
               d="m 0.3125,-4.296875 v 0.3125 h 0.140625 c 0.28125,0 0.578125,0.015625 0.640625,0.3125 0,0.109375 0,0.21875 0,0.328125 v 1.984375 c 0,0.328125 0.015625,0.625 0.1875,0.921875 0.28125,0.421875 0.84375,0.546875 1.3125,0.546875 0.453125,0 0.859375,-0.203125 1.109375,-0.5625 C 3.765625,-0.5625 3.84375,-0.65625 3.875,-0.78125 v 0.875 L 5.328125,-0.015625 V -0.3125 h -0.15625 c -0.328125,0 -0.625,-0.03125 -0.625,-0.484375 V -4.40625 l -1.46875,0.109375 v 0.3125 H 3.21875 c 0.328125,0 0.625,0.03125 0.625,0.5 V -1.6875 c 0,0.734375 -0.375,1.5625 -1.203125,1.5625 -0.5625,0 -0.84375,-0.140625 -0.84375,-1.203125 V -4.40625 Z m 0,0"
               id="id-67149ea6-231d-43dd-ab62-bbb7fb3dd6b6" />
          </symbol>
          <symbol
             overflow="visible"
             id="id-4486fafb-7394-4e8f-b98e-2ac1723106e4">
            <path
               style="stroke:none;stroke-width:0"
               d=""
               id="id-38e30d27-8c94-40ff-86cc-b3486cb768a4" />
          </symbol>
          <symbol
             overflow="visible"
             id="id-79f78db4-001e-4fa3-9e37-535efcc7b0cf">
            <path
               style="stroke:none;stroke-width:0"
               d="M 3.71875,-3.765625 C 3.53125,-4.140625 3.25,-4.40625 2.796875,-4.40625 c -1.15625,0 -2.390625,1.46875 -2.390625,2.921875 0,0.9375 0.546875,1.59375 1.3125,1.59375 0.203125,0 0.703125,-0.046875 1.296875,-0.75 0.078125,0.421875 0.4375,0.75 0.90625,0.75 0.359375,0 0.578125,-0.234375 0.75,-0.546875 0.15625,-0.359375 0.296875,-0.96875 0.296875,-0.984375 0,-0.109375 -0.09375,-0.109375 -0.125,-0.109375 -0.09375,0 -0.109375,0.046875 -0.140625,0.1875 -0.171875,0.640625 -0.34375,1.234375 -0.75,1.234375 -0.28125,0 -0.296875,-0.265625 -0.296875,-0.453125 0,-0.21875 0.015625,-0.3125 0.125,-0.75 C 3.890625,-1.71875 3.90625,-1.828125 4,-2.203125 L 4.359375,-3.59375 c 0.0625,-0.28125 0.0625,-0.296875 0.0625,-0.34375 0,-0.171875 -0.109375,-0.265625 -0.28125,-0.265625 -0.25,0 -0.390625,0.21875 -0.421875,0.4375 z M 3.078125,-1.1875 C 3.015625,-1 3.015625,-0.984375 2.875,-0.8125 2.4375,-0.265625 2.03125,-0.109375 1.75,-0.109375 c -0.5,0 -0.640625,-0.546875 -0.640625,-0.9375 0,-0.5 0.3125,-1.71875 0.546875,-2.1875 0.3125,-0.578125 0.75,-0.953125 1.15625,-0.953125 0.640625,0 0.78125,0.8125 0.78125,0.875 0,0.0625 -0.015625,0.125 -0.03125,0.171875 z m 0,0"
               id="id-6e9030be-7705-43f1-b15b-086a13f4bca5" />
          </symbol>
          <symbol
             overflow="visible"
             id="id-d445b177-a717-4993-a52c-381264c1f08f">
            <path
               style="stroke:none;stroke-width:0"
               d="m 2.375,-6.8125 c 0,0 0,-0.109375 -0.125,-0.109375 -0.21875,0 -0.953125,0.078125 -1.21875,0.109375 -0.078125,0 -0.1875,0.015625 -0.1875,0.1875 0,0.125 0.09375,0.125 0.25,0.125 0.46875,0 0.484375,0.0625 0.484375,0.171875 0,0.0625 -0.078125,0.40625 -0.125,0.609375 l -0.828125,3.25 c -0.109375,0.5 -0.15625,0.671875 -0.15625,1.015625 0,0.9375 0.53125,1.5625 1.265625,1.5625 1.171875,0 2.40625,-1.484375 2.40625,-2.921875 0,-0.90625 -0.53125,-1.59375 -1.328125,-1.59375 -0.453125,0 -0.875,0.296875 -1.171875,0.59375 z M 1.453125,-3.046875 C 1.5,-3.265625 1.5,-3.28125 1.59375,-3.390625 2.078125,-4.03125 2.53125,-4.1875 2.796875,-4.1875 c 0.359375,0 0.625,0.296875 0.625,0.9375 0,0.59375 -0.328125,1.734375 -0.515625,2.109375 -0.328125,0.671875 -0.78125,1.03125 -1.171875,1.03125 -0.34375,0 -0.671875,-0.265625 -0.671875,-1 0,-0.203125 0,-0.390625 0.15625,-1.015625 z m 0,0"
               id="id-d714eec5-5b85-490e-8fdd-eb3a6cab3b02" />
          </symbol>
          <symbol
             overflow="visible"
             id="id-48bf564c-37c6-482b-98b4-b61981fee1a7">
            <path
               style="stroke:none;stroke-width:0"
               d="m 3.953125,-3.78125 c -0.171875,0 -0.296875,0 -0.4375,0.125 -0.171875,0.15625 -0.1875,0.328125 -0.1875,0.390625 0,0.25 0.1875,0.359375 0.375,0.359375 0.28125,0 0.546875,-0.25 0.546875,-0.640625 0,-0.484375 -0.46875,-0.859375 -1.171875,-0.859375 -1.34375,0 -2.671875,1.421875 -2.671875,2.828125 0,0.90625 0.578125,1.6875 1.625,1.6875 1.421875,0 2.25,-1.0625 2.25,-1.171875 0,-0.0625 -0.046875,-0.140625 -0.109375,-0.140625 -0.0625,0 -0.078125,0.03125 -0.140625,0.109375 -0.78125,0.984375 -1.875,0.984375 -1.984375,0.984375 -0.625,0 -0.90625,-0.484375 -0.90625,-1.09375 0,-0.40625 0.203125,-1.375 0.546875,-1.984375 0.3125,-0.578125 0.859375,-1 1.40625,-1 0.328125,0 0.71875,0.125 0.859375,0.40625 z m 0,0"
               id="id-3d61a6d8-cc7c-48e0-bae6-207012a154de" />
          </symbol>
          <symbol
             overflow="visible"
             id="id-8be983de-33b9-4ad8-b2a3-296fbd5d7c19">
            <path
               style="stroke:none;stroke-width:0"
               d=""
               id="id-79e6a92e-7c4a-41c9-9e31-f0de22c97b06" />
          </symbol>
          <symbol
             overflow="visible"
             id="id-a9d627e1-b841-45ca-9b26-e875af248897">
            <path
               style="stroke:none;stroke-width:0"
               d="M 3.515625,-1.265625 H 3.28125 c -0.015625,0.15625 -0.09375,0.5625 -0.1875,0.625 C 3.046875,-0.59375 2.515625,-0.59375 2.40625,-0.59375 H 1.125 c 0.734375,-0.640625 0.984375,-0.84375 1.390625,-1.171875 0.515625,-0.40625 1,-0.84375 1,-1.5 0,-0.84375 -0.734375,-1.359375 -1.625,-1.359375 -0.859375,0 -1.453125,0.609375 -1.453125,1.25 0,0.34375 0.296875,0.390625 0.375,0.390625 0.15625,0 0.359375,-0.125 0.359375,-0.375 0,-0.125 -0.046875,-0.375 -0.40625,-0.375 C 0.984375,-4.21875 1.453125,-4.375 1.78125,-4.375 c 0.703125,0 1.0625,0.546875 1.0625,1.109375 0,0.609375 -0.4375,1.078125 -0.65625,1.328125 L 0.515625,-0.265625 C 0.4375,-0.203125 0.4375,-0.1875 0.4375,0 h 2.875 z m 0,0"
               id="id-39644836-7646-4baf-a6af-85af89e14fdd" />
          </symbol>
          <symbol
             overflow="visible"
             id="id-6970f56e-3530-497a-8d63-9de5f0b62025">
            <path
               style="stroke:none;stroke-width:0"
               d=""
               id="id-38c92a11-e047-4bbe-bd23-ca7c5bb8f264" />
          </symbol>
          <symbol
             overflow="visible"
             id="id-9412058b-4fba-4aaf-8afd-47be5e36a59f">
            <path
               style="stroke:none;stroke-width:0"
               d="m 4.078125,-2.296875 h 2.78125 C 7,-2.296875 7.1875,-2.296875 7.1875,-2.5 7.1875,-2.6875 7,-2.6875 6.859375,-2.6875 h -2.78125 v -2.796875 c 0,-0.140625 0,-0.328125 -0.203125,-0.328125 -0.203125,0 -0.203125,0.1875 -0.203125,0.328125 V -2.6875 h -2.78125 c -0.140625,0 -0.328125,0 -0.328125,0.1875 0,0.203125 0.1875,0.203125 0.328125,0.203125 h 2.78125 V 0.5 c 0,0.140625 0,0.328125 0.203125,0.328125 0.203125,0 0.203125,-0.1875 0.203125,-0.328125 z m 0,0"
               id="id-3e75bd47-b45d-43a2-8ca0-ce9afe7dde0e" />
          </symbol>
          <symbol
             overflow="visible"
             id="id-7718504c-d73e-45dc-83a4-d1ba84054b69">
            <path
               style="stroke:none;stroke-width:0"
               d="m 6.84375,-3.265625 c 0.15625,0 0.34375,0 0.34375,-0.1875 C 7.1875,-3.65625 7,-3.65625 6.859375,-3.65625 h -5.96875 c -0.140625,0 -0.328125,0 -0.328125,0.203125 0,0.1875 0.1875,0.1875 0.328125,0.1875 z m 0.015625,1.9375 c 0.140625,0 0.328125,0 0.328125,-0.203125 0,-0.1875 -0.1875,-0.1875 -0.34375,-0.1875 H 0.890625 c -0.140625,0 -0.328125,0 -0.328125,0.1875 0,0.203125 0.1875,0.203125 0.328125,0.203125 z m 0,0"
               id="id-3e427326-5711-401c-9307-b924b16b9875" />
          </symbol>
          <symbol
             overflow="visible"
             id="id-10247d00-5463-435a-b15e-5af54ef238e8">
            <path
               style="stroke:none;stroke-width:0"
               d="m 3.09375,-4.171875 c 0.890625,-0.25 1.328125,-0.859375 1.328125,-1.4375 0,-0.75 -0.71875,-1.421875 -1.703125,-1.421875 -0.78125,0 -1.65625,0.484375 -1.65625,1.484375 v 1.25 H 0.28125 v 0.3125 H 1.0625 V -0.75 c 0,0.4375 -0.109375,0.4375 -0.78125,0.4375 V 0 C 0.46875,-0.015625 1.125,-0.03125 1.25,-0.03125 c 0.109375,0 0.28125,0 0.46875,0.03125 v -5.5625 c 0,-1.140625 0.796875,-1.25 1,-1.25 0.40625,0 0.953125,0.3125 0.953125,1.1875 0,0.640625 -0.359375,1.25 -1.234375,1.328125 -0.09375,0.015625 -0.171875,0.015625 -0.171875,0.109375 0,0.015625 0,0.09375 0.09375,0.109375 1.1875,0.09375 1.59375,1.3125 1.59375,2.359375 0,1.28125 -0.65625,1.609375 -1.03125,1.609375 -0.09375,0 -0.3125,-0.015625 -0.5,-0.1875 C 2.53125,-0.3125 2.71875,-0.421875 2.71875,-0.65625 2.71875,-0.875 2.5625,-1.015625 2.359375,-1.015625 2.1875,-1.015625 2,-0.890625 2,-0.640625 c 0,0.390625 0.375,0.75 0.953125,0.75 0.859375,0 1.734375,-0.734375 1.734375,-1.84375 0,-0.71875 -0.3125,-1.921875 -1.59375,-2.4375 z m 0,0"
               id="id-0ab61171-f62e-40a1-be33-818a246b56c4" />
          </symbol>
        </g>
      </defs>
      <g
         id="id-b3eec247-f3d0-4a7f-88eb-d308feb90d01"
         transform="translate(-134.173, -127.281)">
        <g
           style="fill:#000000;fill-opacity:1"
           id="id-718d0c10-4b3e-49aa-b38b-074df92fcd0b">
          <g
             transform="translate(133.768, 134.765)"
             id="g112">
            <path
               style="stroke:none;stroke-width:0"
               d="m 1.15625,-0.484375 c 0.625,0.484375 1.109375,0.6875 1.890625,0.6875 1.1875,0 1.921875,-1.0625 1.921875,-2.078125 C 4.96875,-2.703125 4.5,-3.46875 3.703125,-3.796875 3.09375,-4.046875 2.34375,-4.03125 1.8125,-4.34375 c -0.390625,-0.25 -0.625,-0.6875 -0.625,-1.125 0,-0.78125 0.671875,-1.296875 1.375,-1.296875 0.984375,0 1.671875,0.796875 1.828125,1.796875 0.03125,0.140625 0,0.40625 0.1875,0.40625 0.109375,0 0.109375,-0.078125 0.109375,-0.171875 v -2.15625 c 0,-0.078125 -0.015625,-0.140625 -0.09375,-0.140625 -0.140625,0 -0.25,0.265625 -0.34375,0.40625 -0.046875,0.078125 -0.125,0.1875 -0.15625,0.28125 -0.421875,-0.40625 -0.890625,-0.6875 -1.546875,-0.6875 -0.984375,0 -2,0.671875 -2,1.9375 0,1.03125 0.765625,1.71875 1.734375,1.921875 C 2.5,-3.125 2.6875,-3.0625 2.90625,-3.015625 3.453125,-2.875 4.015625,-2.734375 4.25,-2.03125 c 0.0625,0.15625 0.09375,0.3125 0.09375,0.46875 0,0.75 -0.515625,1.46875 -1.359375,1.46875 C 2,-0.09375 1.03125,-0.625 0.828125,-1.78125 0.8125,-1.859375 0.8125,-1.96875 0.796875,-2.046875 V -2.125 c 0,-0.09375 -0.046875,-0.140625 -0.125,-0.140625 -0.109375,0 -0.125,0.078125 -0.125,0.140625 v 2.1875 c 0,0.078125 0.015625,0.140625 0.09375,0.140625 0.15625,0 0.265625,-0.265625 0.34375,-0.40625 0.0625,-0.09375 0.125,-0.1875 0.171875,-0.28125 z m 0,0"
               id="id-1a6164fe-b316-4d48-b6a3-0b4987c9cf41" />
          </g>
          <g
             transform="translate(139.301, 134.765)"
             id="g115">
            <path
               style="stroke:none;stroke-width:0"
               d="m 1.109375,-3.796875 c 0.25,-0.3125 0.6875,-0.453125 1.0625,-0.453125 0.734375,0 1.0625,0.671875 1.0625,1.375 v 0.265625 c -1.140625,0 -2.828125,0.359375 -2.828125,1.65625 V -0.875 c 0.078125,0.78125 1.046875,0.96875 1.625,0.96875 0.5,0 1.15625,-0.328125 1.28125,-0.84375 0.0625,0.4375 0.34375,0.796875 0.78125,0.796875 0.40625,0 0.765625,-0.328125 0.828125,-0.78125 v -0.71875 h -0.25 v 0.5 c 0,0.28125 -0.0625,0.6875 -0.359375,0.6875 -0.328125,0 -0.375,-0.390625 -0.375,-0.65625 V -2.59375 c 0,-0.125 0.015625,-0.25 0.015625,-0.375 0,-0.96875 -0.90625,-1.5 -1.734375,-1.5 -0.640625,0 -1.515625,0.3125 -1.515625,1.109375 0,0.28125 0.203125,0.484375 0.46875,0.484375 0.28125,0 0.4375,-0.21875 0.4375,-0.46875 0,-0.28125 -0.21875,-0.453125 -0.5,-0.453125 z m 2.125,1.390625 v 1.015625 c 0,0.6875 -0.46875,1.234375 -1.125,1.265625 H 2.078125 C 1.609375,-0.125 1.1875,-0.484375 1.1875,-0.96875 V -1.015625 C 1.25,-2.03125 2.375,-2.375 3.234375,-2.40625 Z m 0,0"
               id="id-b113e5ec-29f1-49d9-bdca-2911a9fbb7e3" />
          </g>
          <g
             transform="translate(144.282, 134.765)"
             id="g118">
            <path
               style="stroke:none;stroke-width:0"
               d="m 1.484375,-6.140625 c 0,0.6875 -0.28125,1.9375 -1.3125,1.9375 v 0.21875 H 1.03125 v 2.5625 c 0,0.328125 0.03125,0.671875 0.1875,0.953125 0.21875,0.40625 0.6875,0.5625 1.125,0.5625 0.8125,0 0.96875,-0.90625 0.96875,-1.546875 V -1.8125 H 3.078125 c 0,0.140625 0,0.296875 0,0.453125 0,0.4375 -0.09375,1.203125 -0.6875,1.203125 -0.5625,0 -0.65625,-0.6875 -0.65625,-1.125 V -3.984375 H 3.15625 v -0.3125 H 1.734375 v -1.84375 z m 0,0"
               id="id-099e7da8-0930-456c-97ad-283f5029366b" />
          </g>
          <g
             transform="translate(148.155, 134.765)"
             id="g121">
            <path
               style="stroke:none;stroke-width:0"
               d="M 0.53125,-4.296875 0.421875,-2.6875 h 0.25 c 0.015625,-0.359375 0.03125,-0.765625 0.25,-1.046875 0.25,-0.3125 0.71875,-0.34375 1.109375,-0.34375 H 3.140625 C 2.203125,-2.875 1.3125,-1.59375 0.390625,-0.375 0.34375,-0.3125 0.28125,-0.21875 0.28125,-0.140625 c 0,0.09375 0.0625,0.125 0.171875,0.125 h 3.375 L 4,-1.875 H 3.75 C 3.671875,-1.203125 3.625,-0.375 2.671875,-0.28125 2.4375,-0.265625 2.21875,-0.265625 2,-0.265625 H 1.125 C 1.859375,-1.25 2.59375,-2.25 3.328125,-3.234375 3.546875,-3.53125 3.984375,-4 3.984375,-4.171875 c 0,-0.09375 -0.09375,-0.125 -0.171875,-0.125 z m 0,0"
               id="id-d05c2832-a4af-4a90-96f3-5c0eef37ca41" />
          </g>
        </g>
        <g
           style="fill:#000000;fill-opacity:1"
           id="id-e0c0f999-3d53-4cae-90d2-b87b1e427b55">
          <g
             transform="translate(155.899, 134.765)"
             id="g125">
            <path
               style="stroke:none;stroke-width:0"
               d="m 3.03125,-6.8125 v 0.296875 H 3.1875 c 0.34375,0 0.625,0.046875 0.625,0.625 l -0.015625,2.09375 C 3.5625,-4.203125 2.984375,-4.40625 2.53125,-4.40625 c -1.21875,0 -2.203125,1.0625 -2.203125,2.265625 0,1.0625 0.8125,2.234375 2.140625,2.234375 0.515625,0 0.984375,-0.25 1.3125,-0.640625 V 0.09375 L 5.25,-0.015625 V -0.3125 H 5.078125 c -0.296875,0 -0.609375,-0.03125 -0.609375,-0.5 V -6.921875 Z M 1.171875,-1.90625 V -2.046875 C 1.171875,-2.796875 1.25,-3.53125 1.9375,-4 2.140625,-4.109375 2.375,-4.1875 2.609375,-4.1875 c 0.484375,0 1.171875,0.40625 1.171875,1.03125 0,0.125 0,0.25 0,0.390625 v 1.65625 c 0,0.125 -0.046875,0.21875 -0.125,0.3125 C 3.40625,-0.40625 2.96875,-0.125 2.5,-0.125 1.78125,-0.125 1.3125,-0.78125 1.203125,-1.46875 1.1875,-1.609375 1.1875,-1.765625 1.171875,-1.90625 Z m 0,0"
               id="id-045aaf0e-a962-4cda-8c87-9647448176d4" />
          </g>
          <g
             transform="translate(161.432, 134.765)"
             id="g128">
            <path
               style="stroke:none;stroke-width:0"
               d="m 1.109375,-2.3125 h 2.875 c 0.109375,0 0.15625,-0.0625 0.15625,-0.1875 0,-1.046875 -0.640625,-1.96875 -1.765625,-1.96875 -1.21875,0 -2.09375,1.09375 -2.09375,2.28125 0,0.90625 0.5,1.734375 1.390625,2.125 0.21875,0.109375 0.484375,0.15625 0.734375,0.15625 H 2.4375 c 0.765625,0 1.40625,-0.421875 1.671875,-1.1875 C 4.125,-1.125 4.125,-1.171875 4.125,-1.203125 4.125,-1.265625 4.09375,-1.3125 4.015625,-1.3125 3.875,-1.3125 3.8125,-0.984375 3.75,-0.875 3.5,-0.4375 3.015625,-0.15625 2.5,-0.15625 c -0.359375,0 -0.6875,-0.203125 -0.953125,-0.46875 -0.40625,-0.46875 -0.4375,-1.109375 -0.4375,-1.6875 z M 1.125,-2.515625 C 1.125,-3.296875 1.53125,-4.25 2.359375,-4.25 H 2.40625 c 0.96875,0.09375 0.96875,1.125 1.0625,1.734375 z m 0,0"
               id="id-18faa1e9-aaef-4255-8cbe-066836206807" />
          </g>
          <g
             transform="translate(165.859, 134.765)"
             id="g131">
            <path
               style="stroke:none;stroke-width:0"
               d="M 1.75,-4.46875 C 1.390625,-4.421875 1,-4.359375 0.703125,-4.109375 c -0.234375,0.21875 -0.375,0.546875 -0.375,0.875 C 0.328125,-1.53125 3.09375,-2.5 3.09375,-1 3.09375,-0.40625 2.546875,-0.125 2,-0.125 1.25,-0.125 0.734375,-0.65625 0.59375,-1.515625 0.578125,-1.609375 0.5625,-1.6875 0.453125,-1.6875 c -0.078125,0 -0.125,0.046875 -0.125,0.125 V 0.015625 C 0.34375,0.0625 0.375,0.09375 0.421875,0.09375 H 0.4375 c 0.15625,0 0.3125,-0.359375 0.4375,-0.390625 h 0.015625 c 0.078125,0 0.34375,0.25 0.5625,0.3125 0.15625,0.0625 0.34375,0.078125 0.515625,0.078125 0.828125,0 1.625,-0.4375 1.625,-1.34375 0,-0.65625 -0.484375,-1.203125 -1.140625,-1.375 -0.625,-0.171875 -1.640625,-0.171875 -1.640625,-0.890625 0,-0.609375 0.671875,-0.765625 1.109375,-0.765625 0.484375,0 1.171875,0.28125 1.171875,1.125 0,0.09375 0,0.171875 0.109375,0.171875 0.109375,0 0.140625,-0.078125 0.140625,-0.171875 0,-0.046875 0,-0.109375 0,-0.140625 v -1.03125 c 0,-0.0625 -0.03125,-0.140625 -0.109375,-0.140625 -0.15625,0 -0.265625,0.25 -0.375,0.25 H 2.84375 c -0.078125,0 -0.234375,-0.125 -0.34375,-0.171875 -0.1875,-0.0625 -0.390625,-0.078125 -0.578125,-0.078125 -0.0625,0 -0.109375,0 -0.171875,0 z m 0,0"
               id="id-0316b3ac-3414-4043-82cf-4be2829cd3d8" />
          </g>
        </g>
        <g
           style="fill:#000000;fill-opacity:1"
           id="id-dc8f515d-c5f5-4deb-9da0-453da3c23ffd">
          <g
             transform="translate(173.114, 134.765)"
             id="g135">
            <path
               style="stroke:none;stroke-width:0"
               d="m 0.34375,-6.8125 v 0.296875 c 0.125,0 0.25,0 0.375,0 0.359375,0 0.640625,0.046875 0.640625,0.4375 V -0.75 c 0,0.375 -0.328125,0.4375 -0.65625,0.4375 -0.140625,0 -0.25,0 -0.359375,0 v 0.296875 h 2.9375 V -0.3125 H 2.9375 C 2.515625,-0.3125 2.25,-0.34375 2.25,-0.75 v -2.40625 h 1.84375 c 0.9375,-0.078125 2.125,-0.65625 2.125,-1.796875 0,-1.0625 -1.046875,-1.75 -2.046875,-1.859375 -0.15625,0 -0.296875,-0.015625 -0.4375,-0.015625 -0.203125,0 -0.40625,0.015625 -0.59375,0.015625 z m 1.875,3.390625 V -6.1875 c 0,-0.265625 0.171875,-0.296875 0.359375,-0.328125 h 0.75 c 0.5625,0 1.203125,0.03125 1.59375,0.5 0.234375,0.28125 0.265625,0.6875 0.265625,1.046875 0,0.359375 -0.03125,0.734375 -0.25,1.03125 -0.328125,0.421875 -0.90625,0.515625 -1.421875,0.515625 z m 0,0"
               id="id-1effb91d-5e8b-4445-bf06-8ce1bb307a80" />
          </g>
          <g
             transform="translate(179.893, 134.765)"
             id="g138">
            <path
               style="stroke:none;stroke-width:0"
               d="m 0.1875,-4.296875 v 0.3125 h 0.15625 c 0.28125,0 0.5,0.03125 0.671875,0.40625 C 1.46875,-2.484375 1.90625,-1.375 2.375,-0.28125 2.40625,-0.203125 2.484375,-0.09375 2.484375,0 2.484375,0.015625 2.46875,0.03125 2.46875,0.046875 2.40625,0.25 2.296875,0.453125 2.21875,0.640625 2.015625,1.140625 1.71875,1.8125 1.109375,1.8125 0.953125,1.8125 0.75,1.75 0.640625,1.640625 0.828125,1.609375 1.03125,1.5 1.03125,1.21875 1.03125,1 0.875,0.8125 0.65625,0.796875 c -0.3125,0 -0.46875,0.1875 -0.46875,0.421875 0,0.5 0.46875,0.8125 0.921875,0.8125 0.71875,0 1.109375,-0.734375 1.359375,-1.328125 l 0.296875,-0.71875 C 3.109375,-0.875 3.46875,-1.71875 3.828125,-2.578125 L 4.0625,-3.15625 c 0.171875,-0.46875 0.4375,-0.828125 1,-0.828125 v -0.3125 H 3.453125 v 0.3125 c 0.234375,0 0.46875,0.15625 0.46875,0.40625 0,0.125 -0.0625,0.265625 -0.109375,0.375 -0.296875,0.6875 -0.546875,1.375 -0.859375,2.046875 C 2.9375,-1.0625 2.875,-0.984375 2.859375,-0.890625 H 2.84375 C 2.78125,-1.109375 2.671875,-1.328125 2.578125,-1.546875 2.328125,-2.1875 2.015625,-2.84375 1.78125,-3.515625 1.75,-3.578125 1.703125,-3.65625 1.703125,-3.734375 v -0.03125 c 0.0625,-0.21875 0.34375,-0.21875 0.546875,-0.21875 v -0.3125 z m 0,0"
               id="id-f361fdb3-a5f8-4cde-ad4a-5bf8db1a5796" />
          </g>
          <g
             transform="translate(185.15, 134.765)"
             id="g141">
            <path
               style="stroke:none;stroke-width:0"
               d="m 1.484375,-6.140625 c 0,0.6875 -0.28125,1.9375 -1.3125,1.9375 v 0.21875 H 1.03125 v 2.5625 c 0,0.328125 0.03125,0.671875 0.1875,0.953125 0.21875,0.40625 0.6875,0.5625 1.125,0.5625 0.8125,0 0.96875,-0.90625 0.96875,-1.546875 V -1.8125 H 3.078125 c 0,0.140625 0,0.296875 0,0.453125 0,0.4375 -0.09375,1.203125 -0.6875,1.203125 -0.5625,0 -0.65625,-0.6875 -0.65625,-1.125 V -3.984375 H 3.15625 v -0.3125 H 1.734375 v -1.84375 z m 0,0"
               id="id-08000aac-7578-4abb-962d-0393d904971b" />
          </g>
          <g
             transform="translate(189.024, 134.765)"
             id="g144">
            <path
               style="stroke:none;stroke-width:0"
               d="m 0.3125,-6.8125 v 0.296875 h 0.15625 c 0.375,0 0.625,0.046875 0.625,0.53125 v 5.03125 c 0,0.0625 0.015625,0.140625 0.015625,0.21875 0,0.375 -0.265625,0.421875 -0.546875,0.421875 h -0.25 v 0.296875 H 2.578125 V -0.3125 H 2.3125 c -0.28125,0 -0.515625,-0.046875 -0.515625,-0.421875 v -1.8125 c 0,-0.71875 0.359375,-1.640625 1.359375,-1.640625 0.625,0 0.6875,0.6875 0.6875,1.109375 V -0.6875 c 0,0.34375 -0.28125,0.375 -0.59375,0.375 H 3.078125 v 0.296875 h 2.25 V -0.3125 h -0.25 c -0.265625,0 -0.53125,-0.046875 -0.53125,-0.390625 V -2.875 c 0,-0.328125 -0.015625,-0.65625 -0.15625,-0.96875 -0.25,-0.4375 -0.734375,-0.5625 -1.203125,-0.5625 -0.578125,0 -1.21875,0.390625 -1.40625,0.953125 l -0.015625,-3.46875 z m 0,0"
               id="id-a3b867c4-e6a7-4474-b86f-9aa1e4ca181f" />
          </g>
          <g
             transform="translate(194.557, 134.765)"
             id="g147">
            <path
               style="stroke:none;stroke-width:0"
               d="m 1.109375,-3.796875 c 0.25,-0.3125 0.6875,-0.453125 1.0625,-0.453125 0.734375,0 1.0625,0.671875 1.0625,1.375 v 0.265625 c -1.140625,0 -2.828125,0.359375 -2.828125,1.65625 V -0.875 c 0.078125,0.78125 1.046875,0.96875 1.625,0.96875 0.5,0 1.15625,-0.328125 1.28125,-0.84375 0.0625,0.4375 0.34375,0.796875 0.78125,0.796875 0.40625,0 0.765625,-0.328125 0.828125,-0.78125 v -0.71875 h -0.25 v 0.5 c 0,0.28125 -0.0625,0.6875 -0.359375,0.6875 -0.328125,0 -0.375,-0.390625 -0.375,-0.65625 V -2.59375 c 0,-0.125 0.015625,-0.25 0.015625,-0.375 0,-0.96875 -0.90625,-1.5 -1.734375,-1.5 -0.640625,0 -1.515625,0.3125 -1.515625,1.109375 0,0.28125 0.203125,0.484375 0.46875,0.484375 0.28125,0 0.4375,-0.21875 0.4375,-0.46875 0,-0.28125 -0.21875,-0.453125 -0.5,-0.453125 z m 2.125,1.390625 v 1.015625 c 0,0.6875 -0.46875,1.234375 -1.125,1.265625 H 2.078125 C 1.609375,-0.125 1.1875,-0.484375 1.1875,-0.96875 V -1.015625 C 1.25,-2.03125 2.375,-2.375 3.234375,-2.40625 Z m 0,0"
               id="id-dc8e33fa-b56d-421f-96de-a31c9ecbd588" />
          </g>
          <g
             transform="translate(199.537, 134.765)"
             id="g150">
            <path
               style="stroke:none;stroke-width:0"
               d="m 1.1875,-0.234375 v 0.015625 c -0.46875,0.09375 -0.90625,0.53125 -0.90625,1 0,0.9375 1.4375,1.265625 2.203125,1.265625 C 3.3125,2.046875 4.6875,1.75 4.6875,0.71875 4.6875,0.0625 4.234375,-0.375 3.640625,-0.546875 3.28125,-0.65625 2.90625,-0.671875 2.53125,-0.671875 H 1.625 c -0.3125,-0.03125 -0.5625,-0.34375 -0.5625,-0.65625 v -0.0625 c 0,-0.125 0.078125,-0.390625 0.171875,-0.390625 C 1.359375,-1.75 1.5,-1.640625 1.65625,-1.578125 1.828125,-1.53125 2.03125,-1.5 2.21875,-1.5 c 0.828125,0 1.625,-0.609375 1.625,-1.453125 0,-0.34375 -0.140625,-0.734375 -0.421875,-0.953125 v -0.015625 c 0.28125,-0.1875 0.53125,-0.375 0.890625,-0.375 0.03125,0 0.0625,0 0.09375,0.015625 -0.09375,0.046875 -0.15625,0.125 -0.15625,0.25 0,0.15625 0.140625,0.296875 0.296875,0.296875 0.171875,0 0.28125,-0.140625 0.28125,-0.296875 0,-0.265625 -0.21875,-0.484375 -0.484375,-0.484375 -0.359375,0 -0.6875,0.140625 -0.953125,0.359375 C 3.359375,-4.125 3.3125,-4.09375 3.28125,-4.078125 H 3.265625 c -0.0625,0 -0.140625,-0.078125 -0.1875,-0.109375 -0.25,-0.140625 -0.5625,-0.21875 -0.859375,-0.21875 -0.78125,0 -1.625,0.546875 -1.625,1.453125 0,0.328125 0.125,0.625 0.328125,0.890625 0.03125,0.03125 0.109375,0.09375 0.109375,0.140625 0,0.046875 -0.0625,0.09375 -0.078125,0.140625 C 0.8125,-1.578125 0.75,-1.328125 0.75,-1.09375 c 0,0.3125 0.140625,0.71875 0.4375,0.859375 z M 0.8125,0.84375 V 0.75 c 0,-0.515625 0.453125,-0.828125 0.984375,-0.828125 h 0.78125 c 0.625,0 1.59375,0.09375 1.59375,0.859375 C 4.171875,1.5 3.09375,1.8125 2.484375,1.8125 1.828125,1.8125 0.90625,1.515625 0.8125,0.84375 Z M 1.34375,-2.75 v -0.125 c 0,-0.546875 0.125,-1.296875 0.875,-1.296875 0.609375,0 0.859375,0.578125 0.859375,1.21875 0,0.40625 -0.078125,1.21875 -0.859375,1.21875 -0.25,0 -0.5,-0.125 -0.671875,-0.34375 C 1.390625,-2.265625 1.375,-2.515625 1.34375,-2.75 Z m 0,0"
               id="id-10e33e37-3b0f-4884-8200-f1d6145f855f" />
          </g>
          <g
             transform="translate(204.517, 134.765)"
             id="g153">
            <path
               style="stroke:none;stroke-width:0"
               d="m 2.34375,-4.46875 c -1.25,0.125 -2.0625,1.1875 -2.0625,2.34375 0,1.125 0.890625,2.21875 2.21875,2.21875 1.1875,0 2.1875,-0.96875 2.1875,-2.234375 0,-1.171875 -0.890625,-2.328125 -2.21875,-2.328125 -0.03125,0 -0.09375,0 -0.125,0 z m -1.234375,2.578125 v -0.4375 c 0,-0.765625 0.25,-1.921875 1.375,-1.921875 0.8125,0 1.265625,0.6875 1.359375,1.4375 0.015625,0.21875 0.015625,0.4375 0.015625,0.65625 0,0.640625 -0.078125,1.453125 -0.703125,1.8125 C 2.953125,-0.203125 2.734375,-0.15625 2.5,-0.15625 1.78125,-0.15625 1.265625,-0.71875 1.15625,-1.5 1.140625,-1.625 1.140625,-1.765625 1.109375,-1.890625 Z m 0,0"
               id="id-4725efd7-d3f8-4a3b-866c-42b41ce68e54" />
          </g>
          <g
             transform="translate(209.498, 134.765)"
             id="g156">
            <path
               style="stroke:none;stroke-width:0"
               d="m 0.265625,-4.296875 v 0.3125 h 0.15625 c 0.328125,0 0.625,0.03125 0.625,0.5 v 2.75 c 0,0.40625 -0.28125,0.421875 -0.71875,0.421875 h -0.0625 v 0.296875 H 2.6875 V -0.3125 c -0.125,0 -0.265625,0 -0.390625,0 -0.3125,0 -0.578125,-0.046875 -0.578125,-0.421875 v -1.3125 c 0,-0.859375 0.1875,-2.140625 1.171875,-2.140625 0.046875,0 0.0625,0 0.109375,0.015625 -0.15625,0.0625 -0.234375,0.21875 -0.234375,0.390625 0,0.21875 0.15625,0.375 0.390625,0.421875 0.28125,0 0.46875,-0.171875 0.46875,-0.421875 0,-0.40625 -0.375,-0.625 -0.734375,-0.625 -0.59375,0 -1.109375,0.53125 -1.21875,1.0625 v -1.0625 z m 0,0"
               id="id-a60ad433-72a1-4807-9848-392750b740fd" />
          </g>
          <g
             transform="translate(213.399, 134.765)"
             id="g159">
            <path
               style="stroke:none;stroke-width:0"
               d="m 1.109375,-3.796875 c 0.25,-0.3125 0.6875,-0.453125 1.0625,-0.453125 0.734375,0 1.0625,0.671875 1.0625,1.375 v 0.265625 c -1.140625,0 -2.828125,0.359375 -2.828125,1.65625 V -0.875 c 0.078125,0.78125 1.046875,0.96875 1.625,0.96875 0.5,0 1.15625,-0.328125 1.28125,-0.84375 0.0625,0.4375 0.34375,0.796875 0.78125,0.796875 0.40625,0 0.765625,-0.328125 0.828125,-0.78125 v -0.71875 h -0.25 v 0.5 c 0,0.28125 -0.0625,0.6875 -0.359375,0.6875 -0.328125,0 -0.375,-0.390625 -0.375,-0.65625 V -2.59375 c 0,-0.125 0.015625,-0.25 0.015625,-0.375 0,-0.96875 -0.90625,-1.5 -1.734375,-1.5 -0.640625,0 -1.515625,0.3125 -1.515625,1.109375 0,0.28125 0.203125,0.484375 0.46875,0.484375 0.28125,0 0.4375,-0.21875 0.4375,-0.46875 0,-0.28125 -0.21875,-0.453125 -0.5,-0.453125 z m 2.125,1.390625 v 1.015625 c 0,0.6875 -0.46875,1.234375 -1.125,1.265625 H 2.078125 C 1.609375,-0.125 1.1875,-0.484375 1.1875,-0.96875 V -1.015625 C 1.25,-2.03125 2.375,-2.375 3.234375,-2.40625 Z m 0,0"
               id="id-d38a56a0-23ea-4b67-a68e-797aa4384432" />
          </g>
          <g
             transform="translate(218.379, 134.765)"
             id="g162">
            <path
               style="stroke:none;stroke-width:0"
               d="M 1.75,-4.46875 C 1.390625,-4.421875 1,-4.359375 0.703125,-4.109375 c -0.234375,0.21875 -0.375,0.546875 -0.375,0.875 C 0.328125,-1.53125 3.09375,-2.5 3.09375,-1 3.09375,-0.40625 2.546875,-0.125 2,-0.125 1.25,-0.125 0.734375,-0.65625 0.59375,-1.515625 0.578125,-1.609375 0.5625,-1.6875 0.453125,-1.6875 c -0.078125,0 -0.125,0.046875 -0.125,0.125 V 0.015625 C 0.34375,0.0625 0.375,0.09375 0.421875,0.09375 H 0.4375 c 0.15625,0 0.3125,-0.359375 0.4375,-0.390625 h 0.015625 c 0.078125,0 0.34375,0.25 0.5625,0.3125 0.15625,0.0625 0.34375,0.078125 0.515625,0.078125 0.828125,0 1.625,-0.4375 1.625,-1.34375 0,-0.65625 -0.484375,-1.203125 -1.140625,-1.375 -0.625,-0.171875 -1.640625,-0.171875 -1.640625,-0.890625 0,-0.609375 0.671875,-0.765625 1.109375,-0.765625 0.484375,0 1.171875,0.28125 1.171875,1.125 0,0.09375 0,0.171875 0.109375,0.171875 0.109375,0 0.140625,-0.078125 0.140625,-0.171875 0,-0.046875 0,-0.109375 0,-0.140625 v -1.03125 c 0,-0.0625 -0.03125,-0.140625 -0.109375,-0.140625 -0.15625,0 -0.265625,0.25 -0.375,0.25 H 2.84375 c -0.078125,0 -0.234375,-0.125 -0.34375,-0.171875 -0.1875,-0.0625 -0.390625,-0.078125 -0.578125,-0.078125 -0.0625,0 -0.109375,0 -0.171875,0 z m 0,0"
               id="id-294ded7a-0585-48fa-a64f-cd8cab06de70" />
          </g>
        </g>
        <g
           style="fill:#000000;fill-opacity:1"
           id="id-edb6e1e3-a00e-4973-afce-22b28e9585f3">
          <g
             transform="translate(225.625, 134.765)"
             id="g166">
            <path
               style="stroke:none;stroke-width:0"
               d="m 3.15625,-7.484375 c -0.140625,0.0625 -0.3125,0.25 -0.4375,0.375 C 1.5,-5.875 1,-4.1875 1,-2.5 1,-0.703125 1.578125,1.21875 3.046875,2.40625 3.09375,2.4375 3.15625,2.484375 3.21875,2.484375 3.28125,2.484375 3.3125,2.421875 3.3125,2.375 3.3125,2.265625 3.046875,2.0625 2.9375,1.9375 1.90625,0.703125 1.578125,-0.921875 1.578125,-2.5 c 0,-1.640625 0.328125,-3.4375 1.578125,-4.671875 0.046875,-0.0625 0.15625,-0.140625 0.15625,-0.21875 0,-0.0625 -0.046875,-0.09375 -0.109375,-0.09375 -0.015625,0 -0.03125,0 -0.046875,0 z m 0,0"
               id="id-058955f3-b57c-4b7b-b888-2a48771ef255" />
          </g>
          <g
             transform="translate(229.499, 134.765)"
             id="g169">
            <path
               style="stroke:none;stroke-width:0"
               d="m 0.546875,-6.8125 -0.1875,2.234375 h 0.25 c 0.03125,-0.515625 0.0625,-1.21875 0.375,-1.5625 0.34375,-0.34375 0.90625,-0.375 1.375,-0.375 h 0.28125 c 0.25,0 0.515625,0 0.515625,0.34375 v 5.40625 C 3.15625,-0.375 2.75,-0.3125 2.390625,-0.3125 c -0.125,0 -0.25,0 -0.359375,0 H 1.703125 v 0.296875 h 3.78125 V -0.3125 H 4.8125 c -0.390625,0 -0.78125,-0.046875 -0.78125,-0.453125 v -5.40625 c 0,-0.28125 0.171875,-0.34375 0.546875,-0.34375 h 0.25 c 0.46875,0 1.03125,0.03125 1.375,0.375 0.3125,0.34375 0.34375,1.046875 0.375,1.5625 h 0.25 L 6.640625,-6.8125 Z m 0,0"
               id="id-390525df-33cc-4ed7-9d8f-e99008dcc650" />
          </g>
        </g>
        <g
           style="fill:#000000;fill-opacity:1"
           id="id-dcbc9ee8-d005-4148-a999-1379acbc3c14">
          <g
             transform="translate(235.865, 134.765)"
             id="g173">
            <path
               style="stroke:none;stroke-width:0"
               d="m 1.109375,-2.3125 h 2.875 c 0.109375,0 0.15625,-0.0625 0.15625,-0.1875 0,-1.046875 -0.640625,-1.96875 -1.765625,-1.96875 -1.21875,0 -2.09375,1.09375 -2.09375,2.28125 0,0.90625 0.5,1.734375 1.390625,2.125 0.21875,0.109375 0.484375,0.15625 0.734375,0.15625 H 2.4375 c 0.765625,0 1.40625,-0.421875 1.671875,-1.1875 C 4.125,-1.125 4.125,-1.171875 4.125,-1.203125 4.125,-1.265625 4.09375,-1.3125 4.015625,-1.3125 3.875,-1.3125 3.8125,-0.984375 3.75,-0.875 3.5,-0.4375 3.015625,-0.15625 2.5,-0.15625 c -0.359375,0 -0.6875,-0.203125 -0.953125,-0.46875 -0.40625,-0.46875 -0.4375,-1.109375 -0.4375,-1.6875 z M 1.125,-2.515625 C 1.125,-3.296875 1.53125,-4.25 2.359375,-4.25 H 2.40625 c 0.96875,0.09375 0.96875,1.125 1.0625,1.734375 z m 0,0"
               id="id-be073561-615d-4811-99b8-9766105a012f" />
          </g>
          <g
             transform="translate(240.291, 134.765)"
             id="g176">
            <path
               style="stroke:none;stroke-width:0"
               d="m 2.34375,-4.46875 c -1.25,0.125 -2.0625,1.1875 -2.0625,2.34375 0,1.125 0.890625,2.21875 2.21875,2.21875 1.1875,0 2.1875,-0.96875 2.1875,-2.234375 0,-1.171875 -0.890625,-2.328125 -2.21875,-2.328125 -0.03125,0 -0.09375,0 -0.125,0 z m -1.234375,2.578125 v -0.4375 c 0,-0.765625 0.25,-1.921875 1.375,-1.921875 0.8125,0 1.265625,0.6875 1.359375,1.4375 0.015625,0.21875 0.015625,0.4375 0.015625,0.65625 0,0.640625 -0.078125,1.453125 -0.703125,1.8125 C 2.953125,-0.203125 2.734375,-0.15625 2.5,-0.15625 1.78125,-0.15625 1.265625,-0.71875 1.15625,-1.5 1.140625,-1.625 1.140625,-1.765625 1.109375,-1.890625 Z m 0,0"
               id="id-7dde0359-b9c0-4427-8583-c409c9d446ed" />
          </g>
          <g
             transform="translate(245.271, 134.765)"
             id="g179">
            <path
               style="stroke:none;stroke-width:0"
               d="m 0.265625,-4.296875 v 0.3125 h 0.1875 c 0.296875,0 0.59375,0.03125 0.59375,0.421875 V 1.21875 C 1.046875,1.578125 0.78125,1.609375 0.5,1.609375 H 0.265625 v 0.3125 h 2.25 v -0.3125 H 2.28125 C 1.984375,1.609375 1.75,1.578125 1.75,1.21875 v -1.734375 c 0.234375,0.421875 0.796875,0.609375 1.21875,0.609375 1.234375,0 2.21875,-1.046875 2.21875,-2.25 0,-1.203125 -0.921875,-2.25 -2.09375,-2.25 -0.546875,0 -1.015625,0.234375 -1.375,0.640625 V -4.40625 Z m 4.078125,2.3125 C 4.296875,-1.25 3.90625,-0.203125 3,-0.125 H 2.9375 C 2.515625,-0.125 2.125,-0.359375 1.890625,-0.71875 1.796875,-0.828125 1.75,-0.921875 1.75,-1.0625 V -2.734375 C 1.75,-2.875 1.734375,-3 1.734375,-3.125 1.734375,-3.65625 2.40625,-4.15625 3,-4.15625 c 1,0 1.359375,1.3125 1.359375,2.015625 0,0.046875 0,0.109375 -0.015625,0.15625 z m 0,0"
               id="id-fc66c21f-3526-4724-a910-04986df72c0e" />
          </g>
          <g
             transform="translate(250.805, 134.765)"
             id="g182">
            <path
               style="stroke:none;stroke-width:0"
               d="m 1.109375,-2.3125 h 2.875 c 0.109375,0 0.15625,-0.0625 0.15625,-0.1875 0,-1.046875 -0.640625,-1.96875 -1.765625,-1.96875 -1.21875,0 -2.09375,1.09375 -2.09375,2.28125 0,0.90625 0.5,1.734375 1.390625,2.125 0.21875,0.109375 0.484375,0.15625 0.734375,0.15625 H 2.4375 c 0.765625,0 1.40625,-0.421875 1.671875,-1.1875 C 4.125,-1.125 4.125,-1.171875 4.125,-1.203125 4.125,-1.265625 4.09375,-1.3125 4.015625,-1.3125 3.875,-1.3125 3.8125,-0.984375 3.75,-0.875 3.5,-0.4375 3.015625,-0.15625 2.5,-0.15625 c -0.359375,0 -0.6875,-0.203125 -0.953125,-0.46875 -0.40625,-0.46875 -0.4375,-1.109375 -0.4375,-1.6875 z M 1.125,-2.515625 C 1.125,-3.296875 1.53125,-4.25 2.359375,-4.25 H 2.40625 c 0.96875,0.09375 0.96875,1.125 1.0625,1.734375 z m 0,0"
               id="id-c64a5a76-6ee3-4d96-b09a-5de46c9c99b4" />
          </g>
          <g
             transform="translate(255.231, 134.765)"
             id="g185">
            <path
               style="stroke:none;stroke-width:0"
               d="m 0.296875,-4.296875 v 0.21875 h 0.21875 c 0.296875,0 0.5625,0.046875 0.5625,0.421875 v 2.625 c 0,0.625 -0.34375,0.796875 -0.78125,0.796875 v 0.21875 h 1.84375 v -0.21875 C 1.734375,-0.234375 1.359375,-0.375 1.359375,-1 v -2.953125 c 0.03125,0.125 0.109375,0.25 0.171875,0.390625 0.453125,1.125 0.90625,2.25 1.421875,3.359375 0.03125,0.078125 0.078125,0.1875 0.171875,0.1875 H 3.140625 C 3.25,-0.03125 3.296875,-0.15625 3.328125,-0.25 L 3.625,-0.96875 C 4,-1.859375 4.375,-2.75 4.765625,-3.640625 4.828125,-3.78125 4.890625,-3.921875 4.9375,-4.0625 v 3.421875 c 0,0.40625 -0.328125,0.40625 -0.703125,0.40625 h -0.0625 v 0.21875 H 6.34375 v -0.21875 H 6.109375 c -0.28125,0 -0.546875,-0.03125 -0.546875,-0.4375 V -3.625 c 0,-0.421875 0.265625,-0.453125 0.78125,-0.453125 v -0.21875 H 5.046875 c -0.21875,0 -0.265625,0.125 -0.328125,0.296875 -0.09375,0.234375 -0.1875,0.453125 -0.28125,0.6875 l -0.75,1.75 C 3.5625,-1.28125 3.484375,-1 3.34375,-0.75 2.90625,-1.828125 2.40625,-2.90625 1.96875,-4 1.890625,-4.140625 1.890625,-4.296875 1.640625,-4.296875 Z m 0,0"
               id="id-3b61da42-ce48-421c-aa05-92d855d693c0" />
          </g>
          <g
             transform="translate(261.871, 134.765)"
             id="g188">
            <path
               style="stroke:none;stroke-width:0"
               d="m 1.109375,-3.796875 c 0.25,-0.3125 0.6875,-0.453125 1.0625,-0.453125 0.734375,0 1.0625,0.671875 1.0625,1.375 v 0.265625 c -1.140625,0 -2.828125,0.359375 -2.828125,1.65625 V -0.875 c 0.078125,0.78125 1.046875,0.96875 1.625,0.96875 0.5,0 1.15625,-0.328125 1.28125,-0.84375 0.0625,0.4375 0.34375,0.796875 0.78125,0.796875 0.40625,0 0.765625,-0.328125 0.828125,-0.78125 v -0.71875 h -0.25 v 0.5 c 0,0.28125 -0.0625,0.6875 -0.359375,0.6875 -0.328125,0 -0.375,-0.390625 -0.375,-0.65625 V -2.59375 c 0,-0.125 0.015625,-0.25 0.015625,-0.375 0,-0.96875 -0.90625,-1.5 -1.734375,-1.5 -0.640625,0 -1.515625,0.3125 -1.515625,1.109375 0,0.28125 0.203125,0.484375 0.46875,0.484375 0.28125,0 0.4375,-0.21875 0.4375,-0.46875 0,-0.28125 -0.21875,-0.453125 -0.5,-0.453125 z m 2.125,1.390625 v 1.015625 c 0,0.6875 -0.46875,1.234375 -1.125,1.265625 H 2.078125 C 1.609375,-0.125 1.1875,-0.484375 1.1875,-0.96875 V -1.015625 C 1.25,-2.03125 2.375,-2.375 3.234375,-2.40625 Z m 0,0"
               id="id-c8c0b0c0-d4fb-4c83-9e54-3534dd6e47e7" />
          </g>
        </g>
        <g
           style="fill:#000000;fill-opacity:1"
           id="id-86f6a62b-fcd5-4160-b4fe-ea2200c11418">
          <g
             transform="translate(270.169, 134.765)"
             id="g192">
            <path
               style="stroke:none;stroke-width:0"
               d="m 0.328125,-6.8125 v 0.296875 c 0.125,0 0.265625,0 0.375,0 0.359375,0 0.65625,0.046875 0.65625,0.4375 V -0.75 c 0,0.375 -0.328125,0.4375 -0.671875,0.4375 -0.125,0 -0.25,0 -0.359375,0 v 0.296875 h 2.9375 V -0.3125 c -0.109375,0 -0.25,0 -0.359375,0 C 2.546875,-0.3125 2.25,-0.359375 2.25,-0.75 v -5.234375 c 0,-0.0625 -0.015625,-0.125 -0.015625,-0.1875 0,-0.296875 0.1875,-0.34375 0.53125,-0.34375 H 5.15625 C 5.34375,-6.484375 5.5,-6.453125 5.5,-6.171875 V -0.75 c 0,0.390625 -0.34375,0.4375 -0.71875,0.4375 h -0.3125 v 0.296875 H 7.421875 V -0.3125 c -0.125,0 -0.25,0 -0.375,0 -0.34375,0 -0.65625,-0.046875 -0.65625,-0.4375 v -5.328125 c 0,-0.375 0.3125,-0.4375 0.65625,-0.4375 0.125,0 0.265625,0 0.375,0 V -6.8125 Z m 0,0"
               id="id-6ef49b2c-b014-4c6b-88c7-fc68ac89eb8f" />
          </g>
          <g
             transform="translate(277.916, 134.765)"
             id="g195">
            <path
               style="stroke:none;stroke-width:0"
               d="m 0.25,-4.296875 v 0.21875 h 0.234375 c 0.28125,0 0.546875,0.046875 0.546875,0.453125 v 2.953125 c 0,0.421875 -0.28125,0.4375 -0.78125,0.4375 v 0.21875 H 2.5 v -0.21875 H 2.328125 C 2.03125,-0.234375 1.71875,-0.265625 1.71875,-0.625 1.734375,-0.71875 1.828125,-0.78125 1.875,-0.859375 L 2.265625,-1.34375 C 2.78125,-1.96875 3.25,-2.65625 3.796875,-3.25 v 2.578125 c 0,0.34375 -0.140625,0.4375 -0.78125,0.4375 v 0.21875 H 5.28125 v -0.21875 H 5.046875 C 4.765625,-0.234375 4.5,-0.265625 4.5,-0.671875 V -3.625 c 0,-0.421875 0.25,-0.453125 0.78125,-0.453125 v -0.21875 H 3.015625 v 0.21875 h 0.1875 c 0.28125,0 0.59375,0.03125 0.59375,0.40625 -0.015625,0.078125 -0.09375,0.15625 -0.140625,0.21875 l -0.390625,0.5 c -0.53125,0.625 -1,1.296875 -1.546875,1.890625 v -2.578125 c 0,-0.34375 0.140625,-0.4375 0.78125,-0.4375 v -0.21875 z m 0,0"
               id="id-12bcc9a0-080b-4270-b4e7-8b7802dae3c0" />
          </g>
          <g
             transform="translate(283.449, 134.765)"
             id="g198">
            <path
               style="stroke:none;stroke-width:0"
               d="m 2.765625,-6.8125 v 0.296875 H 2.9375 c 0.328125,0 0.59375,0.046875 0.59375,0.59375 v 2 C 3.3125,-4.25 2.90625,-4.40625 2.515625,-4.40625 c -1.203125,0 -2.171875,1.0625 -2.171875,2.25 0,1.203125 0.984375,2.25 2.234375,2.25 0.40625,0 0.703125,-0.171875 0.953125,-0.46875 v 1.359375 c 0,0.0625 0.015625,0.140625 0.015625,0.21875 0,0.40625 -0.296875,0.40625 -0.71875,0.40625 h -0.0625 v 0.3125 h 2.21875 v -0.3125 H 4.75 c -0.296875,0 -0.546875,-0.03125 -0.546875,-0.40625 0,-0.078125 0,-0.15625 0,-0.21875 V -0.375 c 0.265625,0.296875 0.5625,0.46875 0.953125,0.46875 1.234375,0 2.25,-1.015625 2.25,-2.25 0,-1.125 -0.90625,-2.25 -2.1875,-2.25 -0.375,0 -0.796875,0.15625 -1,0.484375 l -0.015625,-3 z M 6.5625,-1.984375 C 6.5,-1.1875 6.0625,-0.125 5.109375,-0.125 c -0.40625,0 -0.90625,-0.421875 -0.90625,-0.859375 V -3.4375 c 0.078125,-0.4375 0.59375,-0.71875 0.9375,-0.71875 1.015625,0 1.4375,1.25 1.4375,2.015625 0,0.046875 0,0.109375 -0.015625,0.15625 z M 1.171875,-2 v -0.109375 c 0,-0.8125 0.421875,-2.046875 1.4375,-2.046875 0.40625,0 0.875,0.359375 0.921875,0.71875 v 2.453125 C 3.53125,-0.515625 3.015625,-0.125 2.625,-0.125 1.6875,-0.125 1.25,-1.171875 1.171875,-2 Z m 0,0"
               id="id-ec8bd7b3-daa6-41f7-b65e-48b6ea74aa03" />
          </g>
          <g
             transform="translate(291.196, 134.765)"
             id="g201">
            <path
               style="stroke:none;stroke-width:0"
               d="m 1.109375,-3.796875 c 0.25,-0.3125 0.6875,-0.453125 1.0625,-0.453125 0.734375,0 1.0625,0.671875 1.0625,1.375 v 0.265625 c -1.140625,0 -2.828125,0.359375 -2.828125,1.65625 V -0.875 c 0.078125,0.78125 1.046875,0.96875 1.625,0.96875 0.5,0 1.15625,-0.328125 1.28125,-0.84375 0.0625,0.4375 0.34375,0.796875 0.78125,0.796875 0.40625,0 0.765625,-0.328125 0.828125,-0.78125 v -0.71875 h -0.25 v 0.5 c 0,0.28125 -0.0625,0.6875 -0.359375,0.6875 -0.328125,0 -0.375,-0.390625 -0.375,-0.65625 V -2.59375 c 0,-0.125 0.015625,-0.25 0.015625,-0.375 0,-0.96875 -0.90625,-1.5 -1.734375,-1.5 -0.640625,0 -1.515625,0.3125 -1.515625,1.109375 0,0.28125 0.203125,0.484375 0.46875,0.484375 0.28125,0 0.4375,-0.21875 0.4375,-0.46875 0,-0.28125 -0.21875,-0.453125 -0.5,-0.453125 z m 2.125,1.390625 v 1.015625 c 0,0.6875 -0.46875,1.234375 -1.125,1.265625 H 2.078125 C 1.609375,-0.125 1.1875,-0.484375 1.1875,-0.96875 V -1.015625 C 1.25,-2.03125 2.375,-2.375 3.234375,-2.40625 Z m 0,0"
               id="id-9af44a52-1035-4607-8905-c2a451e903ed" />
          </g>
          <g
             transform="translate(296.176, 134.765)"
             id="g204">
            <path
               style="stroke:none;stroke-width:0"
               d="m 0.25,-4.296875 v 0.21875 h 0.234375 c 0.28125,0 0.546875,0.046875 0.546875,0.453125 v 2.953125 c 0,0.421875 -0.28125,0.4375 -0.78125,0.4375 v 0.21875 h 2.4375 v -0.21875 H 2.390625 c -0.359375,0 -0.671875,-0.03125 -0.671875,-0.46875 V -3.71875 c 0,-0.203125 0.078125,-0.359375 0.3125,-0.359375 h 0.625 c 0.671875,0 1.203125,0.046875 1.265625,1.390625 h 0.25 L 4.0625,-4.296875 Z m 0,0"
               id="id-a29e24fd-351f-49a4-a6f8-3ba188c117d9" />
          </g>
          <g
             transform="translate(300.603, 134.765)"
             id="g207">
            <path
               style="stroke:none;stroke-width:0"
               d="m 2.34375,-4.46875 c -1.25,0.125 -2.0625,1.1875 -2.0625,2.34375 0,1.125 0.890625,2.21875 2.21875,2.21875 1.1875,0 2.1875,-0.96875 2.1875,-2.234375 0,-1.171875 -0.890625,-2.328125 -2.21875,-2.328125 -0.03125,0 -0.09375,0 -0.125,0 z m -1.234375,2.578125 v -0.4375 c 0,-0.765625 0.25,-1.921875 1.375,-1.921875 0.8125,0 1.265625,0.6875 1.359375,1.4375 0.015625,0.21875 0.015625,0.4375 0.015625,0.65625 0,0.640625 -0.078125,1.453125 -0.703125,1.8125 C 2.953125,-0.203125 2.734375,-0.15625 2.5,-0.15625 1.78125,-0.15625 1.265625,-0.71875 1.15625,-1.5 1.140625,-1.625 1.140625,-1.765625 1.109375,-1.890625 Z m 0,0"
               id="id-0a3f5d48-99b2-4a0a-b212-5649954cb5e8" />
          </g>
          <g
             transform="translate(305.583, 134.765)"
             id="g210">
            <path
               style="stroke:none;stroke-width:0"
               d="m 0.265625,-4.296875 v 0.3125 h 0.1875 c 0.296875,0 0.59375,0.03125 0.59375,0.421875 V 1.21875 C 1.046875,1.578125 0.78125,1.609375 0.5,1.609375 H 0.265625 v 0.3125 h 2.25 v -0.3125 H 2.28125 C 1.984375,1.609375 1.75,1.578125 1.75,1.21875 v -1.734375 c 0.234375,0.421875 0.796875,0.609375 1.21875,0.609375 1.234375,0 2.21875,-1.046875 2.21875,-2.25 0,-1.203125 -0.921875,-2.25 -2.09375,-2.25 -0.546875,0 -1.015625,0.234375 -1.375,0.640625 V -4.40625 Z m 4.078125,2.3125 C 4.296875,-1.25 3.90625,-0.203125 3,-0.125 H 2.9375 C 2.515625,-0.125 2.125,-0.359375 1.890625,-0.71875 1.796875,-0.828125 1.75,-0.921875 1.75,-1.0625 V -2.734375 C 1.75,-2.875 1.734375,-3 1.734375,-3.125 1.734375,-3.65625 2.40625,-4.15625 3,-4.15625 c 1,0 1.359375,1.3125 1.359375,2.015625 0,0.046875 0,0.109375 -0.015625,0.15625 z m 0,0"
               id="id-bb7a17be-cbc1-4a0a-a604-b3bd7d55f913" />
          </g>
          <g
             transform="translate(311.116, 134.765)"
             id="g213">
            <path
               style="stroke:none;stroke-width:0"
               d="m 1.109375,-3.796875 c 0.25,-0.3125 0.6875,-0.453125 1.0625,-0.453125 0.734375,0 1.0625,0.671875 1.0625,1.375 v 0.265625 c -1.140625,0 -2.828125,0.359375 -2.828125,1.65625 V -0.875 c 0.078125,0.78125 1.046875,0.96875 1.625,0.96875 0.5,0 1.15625,-0.328125 1.28125,-0.84375 0.0625,0.4375 0.34375,0.796875 0.78125,0.796875 0.40625,0 0.765625,-0.328125 0.828125,-0.78125 v -0.71875 h -0.25 v 0.5 c 0,0.28125 -0.0625,0.6875 -0.359375,0.6875 -0.328125,0 -0.375,-0.390625 -0.375,-0.65625 V -2.59375 c 0,-0.125 0.015625,-0.25 0.015625,-0.375 0,-0.96875 -0.90625,-1.5 -1.734375,-1.5 -0.640625,0 -1.515625,0.3125 -1.515625,1.109375 0,0.28125 0.203125,0.484375 0.46875,0.484375 0.28125,0 0.4375,-0.21875 0.4375,-0.46875 0,-0.28125 -0.21875,-0.453125 -0.5,-0.453125 z m 2.125,1.390625 v 1.015625 c 0,0.6875 -0.46875,1.234375 -1.125,1.265625 H 2.078125 C 1.609375,-0.125 1.1875,-0.484375 1.1875,-0.96875 V -1.015625 C 1.25,-2.03125 2.375,-2.375 3.234375,-2.40625 Z m 0,0"
               id="id-3e3dc0bb-ec8f-45b9-af37-762d96e2b58d" />
          </g>
          <g
             transform="translate(316.097, 134.765)"
             id="g216">
            <path
               style="stroke:none;stroke-width:0"
               d="m 0.625,-7.484375 c -0.046875,0.03125 -0.0625,0.0625 -0.0625,0.09375 0,0.109375 0.21875,0.28125 0.328125,0.40625 C 1.96875,-5.75 2.28125,-4.0625 2.28125,-2.5 2.28125,-0.890625 1.953125,0.9375 0.75,2.140625 0.6875,2.203125 0.5625,2.296875 0.5625,2.375 c 0,0.0625 0.046875,0.109375 0.109375,0.109375 C 0.796875,2.46875 1,2.25 1.109375,2.140625 2.375,0.875 2.875,-0.8125 2.875,-2.515625 2.875,-4.34375 2.265625,-6.171875 0.8125,-7.40625 0.765625,-7.4375 0.71875,-7.484375 0.65625,-7.484375 c -0.015625,0 -0.015625,0 -0.03125,0 z m 0,0"
               id="id-17f477a3-0b55-4bf8-9094-2d0acdc03b11" />
          </g>
          <g
             transform="translate(319.97, 134.765)"
             id="g219">
            <path
               style="stroke:none;stroke-width:0"
               d="m 1.3125,-4.28125 c -0.25,0.03125 -0.453125,0.25 -0.453125,0.5 0,0.25 0.203125,0.546875 0.5,0.546875 0.28125,0 0.546875,-0.21875 0.546875,-0.53125 0,-0.25 -0.1875,-0.53125 -0.515625,-0.53125 -0.03125,0 -0.0625,0.015625 -0.078125,0.015625 z m 0,3.21875 c -0.25,0.03125 -0.453125,0.265625 -0.453125,0.515625 0,0.25 0.203125,0.53125 0.5,0.53125 0.28125,0 0.546875,-0.203125 0.546875,-0.515625 0,-0.25 -0.1875,-0.53125 -0.515625,-0.53125 -0.03125,0 -0.0625,0 -0.078125,0 z m 0,0"
               id="id-a62e616a-1b3f-461b-b55c-20373220297e" />
          </g>
        </g>
        <g
           style="fill:#000000;fill-opacity:1"
           id="id-3bbd460f-b0d5-41bf-b39d-309e34da1957">
          <g
             transform="translate(279.263, 156.682)"
             id="g223">
            <path
               style="stroke:none;stroke-width:0"
               d="M 3.71875,-3.765625 C 3.53125,-4.140625 3.25,-4.40625 2.796875,-4.40625 c -1.15625,0 -2.390625,1.46875 -2.390625,2.921875 0,0.9375 0.546875,1.59375 1.3125,1.59375 0.203125,0 0.703125,-0.046875 1.296875,-0.75 0.078125,0.421875 0.4375,0.75 0.90625,0.75 0.359375,0 0.578125,-0.234375 0.75,-0.546875 0.15625,-0.359375 0.296875,-0.96875 0.296875,-0.984375 0,-0.109375 -0.09375,-0.109375 -0.125,-0.109375 -0.09375,0 -0.109375,0.046875 -0.140625,0.1875 -0.171875,0.640625 -0.34375,1.234375 -0.75,1.234375 -0.28125,0 -0.296875,-0.265625 -0.296875,-0.453125 0,-0.21875 0.015625,-0.3125 0.125,-0.75 C 3.890625,-1.71875 3.90625,-1.828125 4,-2.203125 L 4.359375,-3.59375 c 0.0625,-0.28125 0.0625,-0.296875 0.0625,-0.34375 0,-0.171875 -0.109375,-0.265625 -0.28125,-0.265625 -0.25,0 -0.390625,0.21875 -0.421875,0.4375 z M 3.078125,-1.1875 C 3.015625,-1 3.015625,-0.984375 2.875,-0.8125 2.4375,-0.265625 2.03125,-0.109375 1.75,-0.109375 c -0.5,0 -0.640625,-0.546875 -0.640625,-0.9375 0,-0.5 0.3125,-1.71875 0.546875,-2.1875 0.3125,-0.578125 0.75,-0.953125 1.15625,-0.953125 0.640625,0 0.78125,0.8125 0.78125,0.875 0,0.0625 -0.015625,0.125 -0.03125,0.171875 z m 0,0"
               id="id-76362613-0bf9-4712-b053-bd950f5feb3e" />
          </g>
        </g>
        <g
           style="fill:#000000;fill-opacity:1"
           id="id-19b00ec5-5b87-4ea4-9e2c-78ea998ba862">
          <g
             transform="translate(284.529, 152.569)"
             id="g227">
            <path
               style="stroke:none;stroke-width:0"
               d="M 3.515625,-1.265625 H 3.28125 c -0.015625,0.15625 -0.09375,0.5625 -0.1875,0.625 C 3.046875,-0.59375 2.515625,-0.59375 2.40625,-0.59375 H 1.125 c 0.734375,-0.640625 0.984375,-0.84375 1.390625,-1.171875 0.515625,-0.40625 1,-0.84375 1,-1.5 0,-0.84375 -0.734375,-1.359375 -1.625,-1.359375 -0.859375,0 -1.453125,0.609375 -1.453125,1.25 0,0.34375 0.296875,0.390625 0.375,0.390625 0.15625,0 0.359375,-0.125 0.359375,-0.375 0,-0.125 -0.046875,-0.375 -0.40625,-0.375 C 0.984375,-4.21875 1.453125,-4.375 1.78125,-4.375 c 0.703125,0 1.0625,0.546875 1.0625,1.109375 0,0.609375 -0.4375,1.078125 -0.65625,1.328125 L 0.515625,-0.265625 C 0.4375,-0.203125 0.4375,-0.1875 0.4375,0 h 2.875 z m 0,0"
               id="id-8fdb956e-89d3-4db2-b80f-5c3485ba7b85" />
          </g>
        </g>
        <g
           style="fill:#000000;fill-opacity:1"
           id="id-fffc60a3-76a1-402a-9b32-ce6568999361">
          <g
             transform="translate(291.213, 156.682)"
             id="g231">
            <path
               style="stroke:none;stroke-width:0"
               d="m 4.078125,-2.296875 h 2.78125 C 7,-2.296875 7.1875,-2.296875 7.1875,-2.5 7.1875,-2.6875 7,-2.6875 6.859375,-2.6875 h -2.78125 v -2.796875 c 0,-0.140625 0,-0.328125 -0.203125,-0.328125 -0.203125,0 -0.203125,0.1875 -0.203125,0.328125 V -2.6875 h -2.78125 c -0.140625,0 -0.328125,0 -0.328125,0.1875 0,0.203125 0.1875,0.203125 0.328125,0.203125 h 2.78125 V 0.5 c 0,0.140625 0,0.328125 0.203125,0.328125 0.203125,0 0.203125,-0.1875 0.203125,-0.328125 z m 0,0"
               id="id-41b26218-8f3e-4801-bb24-5199b79ec0a3" />
          </g>
        </g>
        <g
           style="fill:#000000;fill-opacity:1"
           id="id-4ba4d975-701c-4467-b7eb-ab20896b7d1c">
          <g
             transform="translate(301.175, 156.682)"
             id="g235">
            <path
               style="stroke:none;stroke-width:0"
               d="m 2.375,-6.8125 c 0,0 0,-0.109375 -0.125,-0.109375 -0.21875,0 -0.953125,0.078125 -1.21875,0.109375 -0.078125,0 -0.1875,0.015625 -0.1875,0.1875 0,0.125 0.09375,0.125 0.25,0.125 0.46875,0 0.484375,0.0625 0.484375,0.171875 0,0.0625 -0.078125,0.40625 -0.125,0.609375 l -0.828125,3.25 c -0.109375,0.5 -0.15625,0.671875 -0.15625,1.015625 0,0.9375 0.53125,1.5625 1.265625,1.5625 1.171875,0 2.40625,-1.484375 2.40625,-2.921875 0,-0.90625 -0.53125,-1.59375 -1.328125,-1.59375 -0.453125,0 -0.875,0.296875 -1.171875,0.59375 z M 1.453125,-3.046875 C 1.5,-3.265625 1.5,-3.28125 1.59375,-3.390625 2.078125,-4.03125 2.53125,-4.1875 2.796875,-4.1875 c 0.359375,0 0.625,0.296875 0.625,0.9375 0,0.59375 -0.328125,1.734375 -0.515625,2.109375 -0.328125,0.671875 -0.78125,1.03125 -1.171875,1.03125 -0.34375,0 -0.671875,-0.265625 -0.671875,-1 0,-0.203125 0,-0.390625 0.15625,-1.015625 z m 0,0"
               id="id-93450c33-5753-40ea-a632-8eba02abd36d" />
          </g>
        </g>
        <g
           style="fill:#000000;fill-opacity:1"
           id="id-2d1430e3-1326-49c0-806f-3441b1555153">
          <g
             transform="translate(305.451, 152.569)"
             id="g239">
            <path
               style="stroke:none;stroke-width:0"
               d="M 3.515625,-1.265625 H 3.28125 c -0.015625,0.15625 -0.09375,0.5625 -0.1875,0.625 C 3.046875,-0.59375 2.515625,-0.59375 2.40625,-0.59375 H 1.125 c 0.734375,-0.640625 0.984375,-0.84375 1.390625,-1.171875 0.515625,-0.40625 1,-0.84375 1,-1.5 0,-0.84375 -0.734375,-1.359375 -1.625,-1.359375 -0.859375,0 -1.453125,0.609375 -1.453125,1.25 0,0.34375 0.296875,0.390625 0.375,0.390625 0.15625,0 0.359375,-0.125 0.359375,-0.375 0,-0.125 -0.046875,-0.375 -0.40625,-0.375 C 0.984375,-4.21875 1.453125,-4.375 1.78125,-4.375 c 0.703125,0 1.0625,0.546875 1.0625,1.109375 0,0.609375 -0.4375,1.078125 -0.65625,1.328125 L 0.515625,-0.265625 C 0.4375,-0.203125 0.4375,-0.1875 0.4375,0 h 2.875 z m 0,0"
               id="id-301e1ef3-0da3-48dc-9ecd-b23d2bad1e8e" />
          </g>
        </g>
        <g
           style="fill:#000000;fill-opacity:1"
           id="id-2a78d7ec-fef6-4d5d-bc28-04bb956c275a">
          <g
             transform="translate(312.688, 156.682)"
             id="g243">
            <path
               style="stroke:none;stroke-width:0"
               d="m 6.84375,-3.265625 c 0.15625,0 0.34375,0 0.34375,-0.1875 C 7.1875,-3.65625 7,-3.65625 6.859375,-3.65625 h -5.96875 c -0.140625,0 -0.328125,0 -0.328125,0.203125 0,0.1875 0.1875,0.1875 0.328125,0.1875 z m 0.015625,1.9375 c 0.140625,0 0.328125,0 0.328125,-0.203125 0,-0.1875 -0.1875,-0.1875 -0.34375,-0.1875 H 0.890625 c -0.140625,0 -0.328125,0 -0.328125,0.1875 0,0.203125 0.1875,0.203125 0.328125,0.203125 z m 0,0"
               id="id-17ee5288-fadb-4471-9efa-a91a85d73a18" />
          </g>
        </g>
        <g
           style="fill:#000000;fill-opacity:1"
           id="id-532bfa70-bedd-4333-8118-109c0fc4fe32">
          <g
             transform="translate(323.204, 156.682)"
             id="g247">
            <path
               style="stroke:none;stroke-width:0"
               d="m 3.953125,-3.78125 c -0.171875,0 -0.296875,0 -0.4375,0.125 -0.171875,0.15625 -0.1875,0.328125 -0.1875,0.390625 0,0.25 0.1875,0.359375 0.375,0.359375 0.28125,0 0.546875,-0.25 0.546875,-0.640625 0,-0.484375 -0.46875,-0.859375 -1.171875,-0.859375 -1.34375,0 -2.671875,1.421875 -2.671875,2.828125 0,0.90625 0.578125,1.6875 1.625,1.6875 1.421875,0 2.25,-1.0625 2.25,-1.171875 0,-0.0625 -0.046875,-0.140625 -0.109375,-0.140625 -0.0625,0 -0.078125,0.03125 -0.140625,0.109375 -0.78125,0.984375 -1.875,0.984375 -1.984375,0.984375 -0.625,0 -0.90625,-0.484375 -0.90625,-1.09375 0,-0.40625 0.203125,-1.375 0.546875,-1.984375 0.3125,-0.578125 0.859375,-1 1.40625,-1 0.328125,0 0.71875,0.125 0.859375,0.40625 z m 0,0"
               id="id-e426676c-28a8-4669-a1bf-3420dcd9e64f" />
          </g>
        </g>
        <g
           style="fill:#000000;fill-opacity:1"
           id="id-1c70fee8-e078-4adb-bc1f-7378c137ebd8">
          <g
             transform="translate(327.515, 152.569)"
             id="g251">
            <path
               style="stroke:none;stroke-width:0"
               d="M 3.515625,-1.265625 H 3.28125 c -0.015625,0.15625 -0.09375,0.5625 -0.1875,0.625 C 3.046875,-0.59375 2.515625,-0.59375 2.40625,-0.59375 H 1.125 c 0.734375,-0.640625 0.984375,-0.84375 1.390625,-1.171875 0.515625,-0.40625 1,-0.84375 1,-1.5 0,-0.84375 -0.734375,-1.359375 -1.625,-1.359375 -0.859375,0 -1.453125,0.609375 -1.453125,1.25 0,0.34375 0.296875,0.390625 0.375,0.390625 0.15625,0 0.359375,-0.125 0.359375,-0.375 0,-0.125 -0.046875,-0.375 -0.40625,-0.375 C 0.984375,-4.21875 1.453125,-4.375 1.78125,-4.375 c 0.703125,0 1.0625,0.546875 1.0625,1.109375 0,0.609375 -0.4375,1.078125 -0.65625,1.328125 L 0.515625,-0.265625 C 0.4375,-0.203125 0.4375,-0.1875 0.4375,0 h 2.875 z m 0,0"
               id="id-b0987a10-7d99-4188-a695-25d5bbcfdcc1" />
          </g>
        </g>
        <g
           style="fill:#000000;fill-opacity:1"
           id="id-ec7f383a-ab40-484a-9fff-fe9600a17088">
          <g
             transform="translate(133.768, 178.6)"
             id="g255">
            <path
               style="stroke:none;stroke-width:0"
               d="m 1.453125,-6.5625 c -0.25,0.015625 -0.46875,0.25 -0.46875,0.515625 0,0.28125 0.25,0.53125 0.53125,0.53125 0.28125,0 0.53125,-0.234375 0.53125,-0.53125 0,-0.265625 -0.1875,-0.53125 -0.515625,-0.53125 -0.03125,0 -0.0625,0.015625 -0.078125,0.015625 z m 1.921875,0 c -0.25,0.015625 -0.4375,0.25 -0.4375,0.515625 0,0.25 0.1875,0.53125 0.484375,0.53125 0.3125,0 0.5625,-0.234375 0.5625,-0.53125 0,-0.296875 -0.25,-0.53125 -0.53125,-0.53125 -0.03125,0 -0.046875,0.015625 -0.078125,0.015625 z m 0,0"
               id="id-f1cd4737-17be-46b8-a957-ef5ad50dfca6" />
          </g>
        </g>
        <g
           style="fill:#000000;fill-opacity:1"
           id="id-f11072a8-a109-4e3e-ab07-65430bc3b395">
          <g
             transform="translate(133.767, 178.6)"
             id="g259">
            <path
               style="stroke:none;stroke-width:0"
               d="m 1.109375,-3.796875 c 0.25,-0.3125 0.6875,-0.453125 1.0625,-0.453125 0.734375,0 1.0625,0.671875 1.0625,1.375 v 0.265625 c -1.140625,0 -2.828125,0.359375 -2.828125,1.65625 V -0.875 c 0.078125,0.78125 1.046875,0.96875 1.625,0.96875 0.5,0 1.15625,-0.328125 1.28125,-0.84375 0.0625,0.4375 0.34375,0.796875 0.78125,0.796875 0.40625,0 0.765625,-0.328125 0.828125,-0.78125 v -0.71875 h -0.25 v 0.5 c 0,0.28125 -0.0625,0.6875 -0.359375,0.6875 -0.328125,0 -0.375,-0.390625 -0.375,-0.65625 V -2.59375 c 0,-0.125 0.015625,-0.25 0.015625,-0.375 0,-0.96875 -0.90625,-1.5 -1.734375,-1.5 -0.640625,0 -1.515625,0.3125 -1.515625,1.109375 0,0.28125 0.203125,0.484375 0.46875,0.484375 0.28125,0 0.4375,-0.21875 0.4375,-0.46875 0,-0.28125 -0.21875,-0.453125 -0.5,-0.453125 z m 2.125,1.390625 v 1.015625 c 0,0.6875 -0.46875,1.234375 -1.125,1.265625 H 2.078125 C 1.609375,-0.125 1.1875,-0.484375 1.1875,-0.96875 V -1.015625 C 1.25,-2.03125 2.375,-2.375 3.234375,-2.40625 Z m 0,0"
               id="id-624d1fe0-aaa7-4737-84ce-5782d5f0e4aa" />
          </g>
          <g
             transform="translate(138.747, 178.6)"
             id="g262">
            <path
               style="stroke:none;stroke-width:0"
               d="m 1.453125,-6.5625 c -0.25,0.015625 -0.46875,0.25 -0.46875,0.515625 0,0.28125 0.25,0.53125 0.53125,0.53125 0.28125,0 0.53125,-0.234375 0.53125,-0.53125 0,-0.265625 -0.1875,-0.53125 -0.515625,-0.53125 -0.03125,0 -0.0625,0.015625 -0.078125,0.015625 z m 1.921875,0 c -0.25,0.015625 -0.4375,0.25 -0.4375,0.515625 0,0.25 0.1875,0.53125 0.484375,0.53125 0.3125,0 0.5625,-0.234375 0.5625,-0.53125 0,-0.296875 -0.25,-0.53125 -0.53125,-0.53125 -0.03125,0 -0.046875,0.015625 -0.078125,0.015625 z m 0,0"
               id="id-e5e5e38b-cb8e-426b-84bb-b9e4749e2daf" />
          </g>
        </g>
        <g
           style="fill:#000000;fill-opacity:1"
           id="id-75675cb4-b2ea-4258-b027-9833441cc7e8">
          <g
             transform="translate(138.746, 178.6)"
             id="g266">
            <path
               style="stroke:none;stroke-width:0"
               d="m 2.34375,-4.46875 c -1.25,0.125 -2.0625,1.1875 -2.0625,2.34375 0,1.125 0.890625,2.21875 2.21875,2.21875 1.1875,0 2.1875,-0.96875 2.1875,-2.234375 0,-1.171875 -0.890625,-2.328125 -2.21875,-2.328125 -0.03125,0 -0.09375,0 -0.125,0 z m -1.234375,2.578125 v -0.4375 c 0,-0.765625 0.25,-1.921875 1.375,-1.921875 0.8125,0 1.265625,0.6875 1.359375,1.4375 0.015625,0.21875 0.015625,0.4375 0.015625,0.65625 0,0.640625 -0.078125,1.453125 -0.703125,1.8125 C 2.953125,-0.203125 2.734375,-0.15625 2.5,-0.15625 1.78125,-0.15625 1.265625,-0.71875 1.15625,-1.5 1.140625,-1.625 1.140625,-1.765625 1.109375,-1.890625 Z m 0,0"
               id="id-5cb04120-fbcb-4cea-b390-5442823839a2" />
          </g>
        </g>
        <g
           style="fill:#000000;fill-opacity:1"
           id="id-8ec05e68-9a25-4ce1-82ce-6cecffaf31a2">
          <g
             transform="translate(144.006, 178.6)"
             id="g270">
            <path
               style="stroke:none;stroke-width:0"
               d="m 1.453125,-6.5625 c -0.25,0.015625 -0.46875,0.25 -0.46875,0.515625 0,0.28125 0.25,0.53125 0.53125,0.53125 0.28125,0 0.53125,-0.234375 0.53125,-0.53125 0,-0.265625 -0.1875,-0.53125 -0.515625,-0.53125 -0.03125,0 -0.0625,0.015625 -0.078125,0.015625 z m 1.921875,0 c -0.25,0.015625 -0.4375,0.25 -0.4375,0.515625 0,0.25 0.1875,0.53125 0.484375,0.53125 0.3125,0 0.5625,-0.234375 0.5625,-0.53125 0,-0.296875 -0.25,-0.53125 -0.53125,-0.53125 -0.03125,0 -0.046875,0.015625 -0.078125,0.015625 z m 0,0"
               id="id-3d954856-2fbb-421b-ad9b-623a0317bb92" />
          </g>
        </g>
        <g
           style="fill:#000000;fill-opacity:1"
           id="id-7a61f9b8-7459-4797-b30e-c866a9d07479">
          <g
             transform="translate(143.726, 178.6)"
             id="g274">
            <path
               style="stroke:none;stroke-width:0"
               d="m 0.3125,-4.296875 v 0.3125 h 0.140625 c 0.28125,0 0.578125,0.015625 0.640625,0.3125 0,0.109375 0,0.21875 0,0.328125 v 1.984375 c 0,0.328125 0.015625,0.625 0.1875,0.921875 0.28125,0.421875 0.84375,0.546875 1.3125,0.546875 0.453125,0 0.859375,-0.203125 1.109375,-0.5625 C 3.765625,-0.5625 3.84375,-0.65625 3.875,-0.78125 v 0.875 L 5.328125,-0.015625 V -0.3125 h -0.15625 c -0.328125,0 -0.625,-0.03125 -0.625,-0.484375 V -4.40625 l -1.46875,0.109375 v 0.3125 H 3.21875 c 0.328125,0 0.625,0.03125 0.625,0.5 V -1.6875 c 0,0.734375 -0.375,1.5625 -1.203125,1.5625 -0.5625,0 -0.84375,-0.140625 -0.84375,-1.203125 V -4.40625 Z m 0,0"
               id="id-1b251708-359a-4858-95fc-f1be42fac0f1" />
          </g>
        </g>
        <g
           style="fill:#000000;fill-opacity:1"
           id="id-d782f184-5a20-472c-a928-6af9cb8485ad">
          <g
             transform="translate(149.262, 178.6)"
             id="g278">
            <path
               style="stroke:none;stroke-width:0"
               d="m 3.09375,-4.171875 c 0.890625,-0.25 1.328125,-0.859375 1.328125,-1.4375 0,-0.75 -0.71875,-1.421875 -1.703125,-1.421875 -0.78125,0 -1.65625,0.484375 -1.65625,1.484375 v 1.25 H 0.28125 v 0.3125 H 1.0625 V -0.75 c 0,0.4375 -0.109375,0.4375 -0.78125,0.4375 V 0 C 0.46875,-0.015625 1.125,-0.03125 1.25,-0.03125 c 0.109375,0 0.28125,0 0.46875,0.03125 v -5.5625 c 0,-1.140625 0.796875,-1.25 1,-1.25 0.40625,0 0.953125,0.3125 0.953125,1.1875 0,0.640625 -0.359375,1.25 -1.234375,1.328125 -0.09375,0.015625 -0.171875,0.015625 -0.171875,0.109375 0,0.015625 0,0.09375 0.09375,0.109375 1.1875,0.09375 1.59375,1.3125 1.59375,2.359375 0,1.28125 -0.65625,1.609375 -1.03125,1.609375 -0.09375,0 -0.3125,-0.015625 -0.5,-0.1875 C 2.53125,-0.3125 2.71875,-0.421875 2.71875,-0.65625 2.71875,-0.875 2.5625,-1.015625 2.359375,-1.015625 2.1875,-1.015625 2,-0.890625 2,-0.640625 c 0,0.390625 0.375,0.75 0.953125,0.75 0.859375,0 1.734375,-0.734375 1.734375,-1.84375 0,-0.71875 -0.3125,-1.921875 -1.59375,-2.4375 z m 0,0"
               id="id-75b4fc7e-d5b8-44e7-a277-7dc348da6e1b" />
          </g>
        </g>
      </g>
    </g>
  </g>
</svg>
