<?xml version="1.0" encoding="UTF-8" standalone="no"?>
<!-- Created with Inkscape (http://www.inkscape.org/) -->

<svg
   xmlns:ns1="http://www.iki.fi/pav/software/textext/"
   xmlns:dc="http://purl.org/dc/elements/1.1/"
   xmlns:cc="http://creativecommons.org/ns#"
   xmlns:rdf="http://www.w3.org/1999/02/22-rdf-syntax-ns#"
   xmlns:svg="http://www.w3.org/2000/svg"
   xmlns="http://www.w3.org/2000/svg"
   xmlns:sodipodi="http://sodipodi.sourceforge.net/DTD/sodipodi-0.dtd"
   xmlns:inkscape="http://www.inkscape.org/namespaces/inkscape"
   width="210mm"
   height="297mm"
   viewBox="0 0 744.09448819 1052.3622047"
   id="svg4241"
   version="1.1"
   inkscape:version="0.91 r13725"
   sodipodi:docname="eqn_i0_91_1_tt0_8_0_pstoedit_texcolor.svg">
  <sodipodi:namedview
     id="base"
     pagecolor="#ffffff"
     bordercolor="#666666"
     borderopacity="1.0"
     inkscape:pageopacity="0.0"
     inkscape:pageshadow="2"
     inkscape:zoom="5.5465879"
     inkscape:cx="121.22508"
     inkscape:cy="889.0382"
     inkscape:document-units="px"
     inkscape:current-layer="layer1"
     showgrid="false"
     inkscape:window-width="1920"
     inkscape:window-height="1058"
     inkscape:window-x="-8"
     inkscape:window-y="-8"
     inkscape:window-maximized="1"
     showguides="true"
     inkscape:guide-bbox="true">
    <sodipodi:guide
       id="guide4853"
       orientation="1,0"
       position="100.96297,907.58502" />
    <sodipodi:guide
       id="guide4855"
       orientation="0,1"
       position="71.214954,896.40698" />
    <sodipodi:guide
       id="guide4857"
       orientation="1,0"
       position="160.6393,912.99375" />
    <sodipodi:guide
       id="guide4859"
       orientation="0,1"
       position="69.772626,889.01505" />
  </sodipodi:namedview>
  <defs
     id="defs4243" />
  <metadata
     id="metadata4246">
    <rdf:RDF>
      <cc:Work
         rdf:about="">
        <dc:format>image/svg+xml</dc:format>
        <dc:type
           rdf:resource="http://purl.org/dc/dcmitype/StillImage" />
        <dc:title></dc:title>
      </cc:Work>
    </rdf:RDF>
  </metadata>
  <g
     inkscape:label="Ebene 1"
     inkscape:groupmode="layer"
     id="layer1">
    <g
       ns1:jacobian_sqrt="1.25"
       inkscapeversion="0.91"
       ns1:alignment="middle center"
       ns1:scale="1.0"
       ns1:preamble="C:\\Users\\winkler\\AppData\\Roaming\\inkscape\\extensions\\default_packages.tex"
       ns1:text="$x = \\pm \\sqrt{y^2 + z^2 \\textcolor{blue}{\\sin(\\phi)}}$"
       ns1:pdfconverter="pstoedit"
       ns1:texconverter="pdflatex"
       ns1:version="0.7.2"
       text-anchor="start"
       word-spacing="normal"
       letter-spacing="normal"
       font-size-adjust="none"
       font-stretch="normal"
       font-weight="normal"
       font-variant="normal"
       font-style="normal"
       fill-opacity="1"
       fill-rule="evenodd"
       fill="none"
       stroke-opacity="1"
       stroke-dashoffset="0"
       stroke-dasharray="none"
       stroke-miterlimit="10.433"
       stroke-linejoin="miter"
       stroke-linecap="butt"
       stroke="black"
       xml:space="preserve"
       transform="matrix(1.250000,0.000000,0.000000,-1.250000,-84.225077,988.561500)"
       id="content">
<path
   id="path5439"
   fill="black"
   stroke-width="0"
   d="M152.04,660.23 L152.05,660.26 L152.06,660.29 L152.06,660.32 L152.07,660.36 L152.08,660.4 L152.1,660.44 L152.11,660.48 L152.12,660.53 L152.14,660.57 L152.16,660.62 L152.18,660.67 L152.2,660.72 L152.22,660.77 L152.24,660.82 L152.27,660.87 L152.3,660.92 L152.33,660.97 L152.36,661.01 L152.39,661.06 L152.43,661.1 L152.46,661.15 L152.5,661.19 L152.55,661.23 L152.59,661.26 L152.64,661.29 L152.68,661.32 L152.71,661.33 L152.74,661.35 L152.76,661.36 L152.79,661.37 L152.82,661.38 L152.85,661.38 L152.87,661.39 L152.9,661.4 L152.93,661.4 L152.97,661.4 L153,661.41 L153.03,661.41 C153.08,661.41,153.32,661.41,153.53,661.28 C153.25,661.23,153.05,660.98,153.05,660.74 C153.05,660.58,153.16,660.39,153.43,660.39 C153.65,660.39,153.97,660.57,153.97,660.97 C153.97,661.49,153.38,661.63,153.04,661.63 C152.46,661.63,152.11,661.1,151.99,660.87 C151.74,661.53,151.21,661.63,150.92,661.63 C149.88,661.63,149.31,660.34,149.31,660.1 C149.31,660,149.41,660,149.43,660 C149.51,660,149.54,660.02,149.56,660.11 C149.9,661.16,150.56,661.41,150.9,661.41 C151.09,661.41,151.43,661.32,151.43,660.74 C151.43,660.43,151.26,659.77,150.9,658.38 C150.74,657.76,150.39,657.34,149.95,657.34 C149.89,657.34,149.66,657.34,149.45,657.47 C149.7,657.52,149.92,657.73,149.92,658.01 C149.92,658.28,149.7,658.36,149.55,658.36 C149.25,658.36,149,658.1,149,657.78 C149,657.32,149.5,657.13,149.94,657.13 C150.6,657.13,150.96,657.82,150.99,657.88 C151.1,657.51,151.46,657.13,152.06,657.13 C153.09,657.13,153.66,658.41,153.66,658.66 C153.66,658.76,153.57,658.76,153.54,658.76 C153.45,658.76,153.43,658.72,153.41,658.65 C153.08,657.58,152.4,657.34,152.08,657.34 C151.69,657.34,151.53,657.66,151.53,658 C151.53,658.22,151.59,658.44,151.7,658.87 Z " />
<path
   id="path5441"
   fill="black"
   stroke-width="0"
   d="M164.02,660.48 L164.05,660.48 L164.08,660.48 L164.11,660.48 L164.13,660.49 L164.14,660.49 L164.16,660.49 L164.17,660.49 L164.18,660.49 L164.2,660.49 L164.21,660.5 L164.22,660.5 L164.24,660.5 L164.25,660.51 L164.26,660.51 L164.27,660.52 L164.29,660.52 L164.3,660.53 L164.31,660.54 L164.32,660.55 L164.32,660.56 L164.33,660.57 L164.34,660.57 L164.34,660.58 L164.34,660.58 L164.35,660.59 L164.35,660.6 L164.35,660.6 L164.35,660.61 L164.36,660.62 L164.36,660.62 L164.36,660.63 L164.36,660.64 L164.36,660.65 L164.36,660.66 L164.36,660.66 L164.36,660.67 L164.36,660.68 C164.36,660.88,164.17,660.88,164.04,660.88 H158.06 C157.92,660.88,157.73,660.88,157.73,660.68 C157.73,660.48,157.92,660.48,158.07,660.48 Z " />
<path
   id="path5443"
   fill="black"
   stroke-width="0"
   d="M164.04,658.56 L164.05,658.56 L164.06,658.56 L164.09,658.56 L164.12,658.56 L164.13,658.56 L164.15,658.56 L164.16,658.56 L164.17,658.56 L164.19,658.56 L164.2,658.57 L164.21,658.57 L164.23,658.57 L164.24,658.58 L164.25,658.58 L164.26,658.59 L164.28,658.59 L164.29,658.6 L164.3,658.6 L164.31,658.61 L164.32,658.62 L164.32,658.63 L164.33,658.63 L164.33,658.64 L164.34,658.65 L164.34,658.65 L164.34,658.66 L164.35,658.66 L164.35,658.67 L164.35,658.68 L164.35,658.68 L164.36,658.69 L164.36,658.7 L164.36,658.7 L164.36,658.71 L164.36,658.72 L164.36,658.73 L164.36,658.74 L164.36,658.75 L164.36,658.76 C164.36,658.95,164.17,658.95,164.02,658.95 H158.07 C157.92,658.95,157.73,658.95,157.73,658.76 C157.73,658.56,157.92,658.56,158.06,658.56 Z " />
<path
   id="path5445"
   fill="black"
   stroke-width="0"
   d="M171.77,660.34 H174.54 C174.71,660.34,174.89,660.34,174.89,660.54 C174.89,660.74,174.71,660.74,174.54,660.74 H171.77 V663.48 C171.77,663.64,171.77,663.85,171.57,663.85 C171.37,663.85,171.37,663.67,171.37,663.51 V660.74 H168.59 C168.42,660.74,168.24,660.74,168.24,660.54 C168.24,660.34,168.42,660.34,168.59,660.34 H171.37 V657.63 H168.59 C168.42,657.63,168.24,657.63,168.24,657.43 C168.24,657.23,168.42,657.23,168.59,657.23 H174.54 C174.71,657.23,174.89,657.23,174.89,657.43 C174.89,657.63,174.71,657.63,174.54,657.63 H171.77 Z " />
<path
   id="path5447"
   fill="black"
   stroke-width="0"
   d="M179.67,654.23 L179.68,654.23 L179.69,654.23 L179.71,654.23 L179.72,654.23 L179.73,654.23 L179.75,654.23 L179.76,654.23 L179.77,654.23 L179.78,654.23 L179.79,654.23 L179.8,654.23 L179.81,654.23 L179.83,654.23 L179.85,654.23 L179.86,654.24 L179.88,654.24 L179.89,654.24 L179.91,654.24 L179.92,654.25 L179.93,654.25 L179.94,654.25 L179.95,654.26 L179.96,654.26 L179.97,654.27 L179.98,654.28 L179.99,654.28 L180,654.29 L180.01,654.3 L180.01,654.31 L180.02,654.32 L180.03,654.33 L180.04,654.34 L180.04,654.35 L180.05,654.37 L180.06,654.38 L180.07,654.39 L180.08,654.41 L180.09,654.43 L185.54,665.77 C185.61,665.9,185.61,665.92,185.61,665.95 C185.61,666.06,185.53,666.15,185.41,666.15 C185.28,666.15,185.24,666.06,185.19,665.95 L180.04,655.26 L177.92,660.19 L176.54,659.13 L176.68,658.97 L177.39,659.51 Z " />
<line
   id="line5449"
   stroke-width="0.398"
   y2="665.95"
   x2="242.75"
   y1="665.95"
   x1="185.4" />
<path
   id="path5451"
   fill="black"
   stroke-width="0"
   d="M190.25,661.02 L190.25,661.03 L190.25,661.03 L190.25,661.04 L190.25,661.04 L190.26,661.06 L190.26,661.07 L190.26,661.08 L190.27,661.09 L190.27,661.1 L190.27,661.1 L190.27,661.11 L190.27,661.12 L190.28,661.13 L190.28,661.14 L190.28,661.14 L190.28,661.15 L190.28,661.15 L190.28,661.16 L190.28,661.17 L190.28,661.17 L190.28,661.18 L190.28,661.18 L190.29,661.19 L190.29,661.2 L190.29,661.21 L190.29,661.22 L190.29,661.23 L190.29,661.24 L190.29,661.24 L190.29,661.25 C190.29,661.43,190.15,661.52,190,661.52 C189.9,661.52,189.74,661.46,189.65,661.31 C189.63,661.26,189.55,660.95,189.51,660.77 C189.44,660.51,189.37,660.24,189.31,659.98 L188.86,658.19 C188.82,658.04,188.39,657.34,187.73,657.34 C187.23,657.34,187.12,657.78,187.12,658.15 C187.12,658.61,187.29,659.22,187.63,660.1 C187.78,660.5,187.82,660.61,187.82,660.81 C187.82,661.26,187.51,661.63,187.01,661.63 C186.06,661.63,185.69,660.18,185.69,660.1 C185.69,660,185.79,660,185.81,660 C185.91,660,185.92,660.02,185.97,660.17 C186.24,661.11,186.64,661.41,186.98,661.41 C187.06,661.41,187.23,661.41,187.23,661.09 C187.23,660.84,187.13,660.58,187.06,660.39 C186.66,659.34,186.48,658.78,186.48,658.31 C186.48,657.42,187.11,657.13,187.7,657.13 C188.08,657.13,188.42,657.29,188.7,657.57 C188.57,657.06,188.45,656.57,188.05,656.04 C187.79,655.71,187.41,655.42,186.96,655.42 C186.82,655.42,186.37,655.45,186.2,655.83 C186.36,655.83,186.49,655.83,186.63,655.95 C186.73,656.04,186.83,656.17,186.83,656.36 C186.83,656.67,186.56,656.71,186.46,656.71 C186.23,656.71,185.9,656.55,185.9,656.06 C185.9,655.57,186.34,655.2,186.96,655.2 C187.98,655.2,189.01,656.1,189.29,657.22 Z " />
<path
   id="path5453"
   fill="black"
   stroke-width="0"
   d="M194.17,661.38 H193.94 C193.91,661.23,193.85,660.82,193.75,660.75 C193.7,660.7,193.16,660.7,193.06,660.7 H191.78 C192.51,661.35,192.76,661.54,193.17,661.87 C193.69,662.28,194.17,662.71,194.17,663.37 C194.17,664.22,193.43,664.73,192.54,664.73 C191.67,664.73,191.08,664.13,191.08,663.48 C191.08,663.13,191.38,663.1,191.45,663.1 C191.62,663.1,191.82,663.21,191.82,663.47 C191.82,663.59,191.78,663.83,191.41,663.83 C191.63,664.33,192.1,664.48,192.43,664.48 C193.13,664.48,193.5,663.94,193.5,663.37 C193.5,662.77,193.06,662.29,192.84,662.04 L191.15,660.38 C191.08,660.32,191.08,660.31,191.08,660.11 H193.96 Z " />
<path
   id="path5455"
   fill="black"
   stroke-width="0"
   d="M201.4,659.52 H204.19 C204.33,659.52,204.52,659.52,204.52,659.72 C204.52,659.92,204.33,659.92,204.19,659.92 H201.4 V662.7 C201.4,662.84,201.4,663.03,201.21,663.03 C201.01,663.03,201.01,662.84,201.01,662.7 V659.92 H198.21 C198.07,659.92,197.88,659.92,197.88,659.72 C197.88,659.52,198.07,659.52,198.21,659.52 H201.01 V656.74 C201.01,656.6,201.01,656.41,201.21,656.41 C201.4,656.41,201.4,656.6,201.4,656.74 Z " />
<path
   id="path5457"
   fill="black"
   stroke-width="0"
   d="M208.62,658.06 L208.66,658.11 L208.71,658.16 L208.76,658.21 L208.81,658.26 L208.85,658.31 L208.89,658.35 L208.94,658.39 L208.98,658.44 L209.02,658.48 L209.06,658.52 L209.1,658.55 L209.13,658.59 L209.17,658.63 L209.21,658.66 L209.28,658.73 L209.34,658.79 L209.41,658.85 L209.48,658.91 L209.54,658.97 L209.67,659.08 L209.74,659.13 L209.8,659.19 C209.8,659.2,210.42,659.73,210.78,660.09 C211.73,661.01,211.95,661.49,211.95,661.53 C211.95,661.63,211.86,661.63,211.84,661.63 C211.77,661.63,211.74,661.61,211.69,661.52 C211.39,661.04,211.18,660.88,210.94,660.88 C210.7,660.88,210.58,661.03,210.43,661.2 C210.24,661.43,210.07,661.63,209.74,661.63 C208.99,661.63,208.54,660.7,208.54,660.49 C208.54,660.44,208.57,660.38,208.65,660.38 C208.74,660.38,208.76,660.43,208.79,660.49 C208.97,660.95,209.55,660.96,209.63,660.96 C209.84,660.96,210.03,660.89,210.26,660.81 C210.66,660.66,210.77,660.66,211.03,660.66 C210.67,660.23,209.83,659.52,209.64,659.36 L208.74,658.53 C208.07,657.86,207.72,657.29,207.72,657.22 C207.72,657.13,207.82,657.13,207.84,657.13 C207.92,657.13,207.94,657.15,208,657.26 C208.23,657.6,208.53,657.87,208.85,657.87 C209.07,657.87,209.17,657.78,209.42,657.49 C209.59,657.28,209.77,657.13,210.06,657.13 C211.05,657.13,211.63,658.39,211.63,658.66 C211.63,658.71,211.59,658.76,211.51,658.76 C211.42,658.76,211.4,658.7,211.37,658.63 C211.14,657.98,210.5,657.79,210.17,657.79 C209.97,657.79,209.79,657.85,209.58,657.92 C209.24,658.05,209.09,658.09,208.88,658.09 C208.87,658.09,208.71,658.09,208.62,658.06 Z " />
<path
   id="path5459"
   fill="black"
   stroke-width="0"
   d="M215.89,661.38 H215.65 C215.63,661.23,215.56,660.82,215.47,660.75 C215.41,660.7,214.88,660.7,214.78,660.7 H213.49 C214.23,661.35,214.47,661.54,214.89,661.87 C215.41,662.28,215.89,662.71,215.89,663.37 C215.89,664.22,215.15,664.73,214.26,664.73 C213.39,664.73,212.8,664.13,212.8,663.48 C212.8,663.13,213.1,663.1,213.17,663.1 C213.34,663.1,213.54,663.21,213.54,663.47 C213.54,663.59,213.49,663.83,213.13,663.83 C213.35,664.33,213.82,664.48,214.15,664.48 C214.85,664.48,215.21,663.94,215.21,663.37 C215.21,662.77,214.78,662.29,214.56,662.04 L212.87,660.38 C212.8,660.32,212.8,660.31,212.8,660.11 H215.68 Z " />
<path
   id="path5461"
   fill="blue"
   stroke-width="0"
   stroke="blue"
   d="M218.9,659.16 L218.93,659.16 L218.95,659.15 L218.98,659.15 L219.01,659.14 L219.04,659.13 L219.08,659.12 L219.12,659.11 L219.16,659.1 L219.2,659.09 L219.24,659.08 L219.28,659.06 L219.33,659.04 L219.37,659.03 L219.42,659 L219.46,658.98 L219.5,658.96 L219.55,658.93 L219.59,658.9 L219.63,658.87 L219.67,658.84 L219.71,658.81 L219.74,658.77 L219.78,658.73 L219.81,658.69 L219.84,658.64 L219.85,658.62 L219.86,658.59 L219.87,658.57 L219.89,658.54 L219.9,658.52 L219.9,658.49 L219.91,658.46 L219.92,658.44 L219.93,658.41 L219.93,658.38 L219.93,658.35 L219.94,658.31 L219.94,658.28 L219.94,658.25 C219.94,657.74,219.59,657.34,218.81,657.34 C217.98,657.34,217.62,657.91,217.43,658.76 C217.4,658.88,217.39,658.92,217.29,658.92 C217.16,658.92,217.16,658.85,217.16,658.67 V657.36 C217.16,657.2,217.16,657.13,217.27,657.13 C217.32,657.13,217.33,657.14,217.52,657.32 C217.54,657.34,217.54,657.36,217.72,657.55 C218.15,657.14,218.6,657.13,218.81,657.13 C219.96,657.13,220.42,657.79,220.42,658.51 C220.42,659.03,220.12,659.33,220,659.45 C219.67,659.77,219.28,659.85,218.86,659.93 C218.3,660.04,217.64,660.16,217.64,660.74 C217.64,661.09,217.9,661.5,218.75,661.5 C219.85,661.5,219.9,660.6,219.92,660.29 C219.93,660.21,220.02,660.21,220.04,660.21 C220.17,660.21,220.17,660.26,220.17,660.44 V661.45 C220.17,661.62,220.17,661.68,220.06,661.68 C220.01,661.68,219.99,661.68,219.86,661.57 C219.83,661.53,219.73,661.44,219.69,661.41 C219.31,661.68,218.9,661.68,218.75,661.68 C217.54,661.68,217.16,661.02,217.16,660.46 C217.16,660.12,217.32,659.84,217.59,659.62 C217.91,659.36,218.18,659.3,218.9,659.16 Z " />
<path
   id="path5463"
   fill="blue"
   stroke-width="0"
   stroke="blue"
   d="M222.52,661.63 L221.13,661.52 V661.21 C221.77,661.21,221.87,661.15,221.87,660.66 V657.99 C221.87,657.54,221.76,657.54,221.09,657.54 V657.23 C221.41,657.24,221.95,657.27,222.18,657.27 C222.53,657.27,222.88,657.24,223.22,657.23 V657.54 C222.56,657.54,222.52,657.59,222.52,657.98 Z " />
<path
   id="path5465"
   fill="blue"
   stroke-width="0"
   stroke="blue"
   d="M222.56,663.35 L222.56,663.38 L222.56,663.41 L222.56,663.44 L222.55,663.47 L222.55,663.49 L222.54,663.52 L222.53,663.55 L222.52,663.57 L222.51,663.59 L222.5,663.62 L222.48,663.64 L222.47,663.66 L222.45,663.68 L222.44,663.7 L222.42,663.72 L222.4,663.74 L222.39,663.75 L222.37,663.77 L222.35,663.78 L222.32,663.8 L222.3,663.81 L222.28,663.82 L222.26,663.83 L222.24,663.84 L222.21,663.85 L222.19,663.86 L222.16,663.87 L222.14,663.87 L222.11,663.88 L222.09,663.88 L222.06,663.88 L222.04,663.88 C221.73,663.88,221.51,663.61,221.51,663.35 C221.51,663.09,221.73,662.83,222.04,662.83 C222.31,662.83,222.56,663.04,222.56,663.35 Z " />
<path
   id="path5467"
   fill="blue"
   stroke-width="0"
   stroke="blue"
   d="M224.62,660.65 V657.99 C224.62,657.54,224.51,657.54,223.85,657.54 V657.23 C224.19,657.24,224.7,657.27,224.97,657.27 C225.23,657.27,225.75,657.24,226.09,657.23 V657.54 C225.42,657.54,225.31,657.54,225.31,657.99 V659.82 C225.31,660.85,226.02,661.41,226.66,661.41 C227.29,661.41,227.4,660.87,227.4,660.3 V657.99 C227.4,657.54,227.29,657.54,226.62,657.54 V657.23 C226.97,657.24,227.48,657.27,227.74,657.27 C228,657.27,228.52,657.24,228.86,657.23 V657.54 C228.34,657.54,228.09,657.54,228.08,657.84 V659.74 C228.08,660.59,228.08,660.9,227.77,661.26 C227.63,661.43,227.3,661.63,226.73,661.63 C226,661.63,225.53,661.2,225.25,660.58 V661.63 L223.85,661.52 V661.21 C224.54,661.21,224.62,661.14,224.62,660.65 Z " />
<path
   id="path5469"
   fill="blue"
   stroke-width="0"
   stroke="blue"
   d="M232.36,654.85 L232.36,654.86 L232.36,654.86 L232.36,654.86 L232.36,654.87 L232.36,654.87 L232.36,654.87 L232.36,654.88 L232.36,654.88 L232.36,654.88 L232.35,654.89 L232.35,654.89 L232.35,654.9 L232.34,654.9 L232.34,654.91 L232.34,654.91 L232.33,654.92 L232.33,654.93 L232.32,654.93 L232.32,654.94 L232.31,654.94 L232.31,654.95 L232.31,654.95 L232.3,654.95 L232.3,654.96 L232.29,654.96 L232.29,654.97 L232.29,654.97 L232.28,654.98 L232.28,654.98 L232.27,654.99 L232.27,654.99 L232.26,655 L232.25,655.01 L232.25,655.01 L232.24,655.02 L232.24,655.03 L232.23,655.03 L232.22,655.04 L232.21,655.05 L232.21,655.05 L232.2,655.06 L232.19,655.07 C230.95,656.32,230.63,658.2,230.63,659.72 C230.63,661.45,231.01,663.17,232.23,664.42 C232.36,664.54,232.36,664.56,232.36,664.59 C232.36,664.66,232.32,664.68,232.26,664.68 C232.16,664.68,231.26,664.01,230.68,662.75 C230.17,661.66,230.05,660.55,230.05,659.72 C230.05,658.94,230.16,657.74,230.71,656.62 C231.3,655.4,232.16,654.75,232.26,654.75 C232.32,654.75,232.36,654.78,232.36,654.85 Z " />
<path
   id="path5471"
   fill="blue"
   stroke-width="0"
   stroke="blue"
   d="M237.29,663.89 L237.29,663.89 L237.29,663.89 L237.29,663.89 L237.29,663.9 L237.29,663.9 L237.29,663.9 L237.3,663.9 L237.3,663.9 L237.3,663.91 L237.3,663.91 L237.3,663.91 L237.3,663.92 L237.3,663.92 L237.3,663.93 L237.3,663.94 L237.3,663.94 L237.3,663.95 L237.31,663.95 L237.31,663.96 L237.31,663.98 L237.31,663.98 L237.31,663.99 L237.32,663.99 L237.32,664 L237.32,664 L237.32,664.01 L237.32,664.01 L237.32,664.02 L237.32,664.02 L237.32,664.02 L237.32,664.02 L237.32,664.02 L237.32,664.02 L237.32,664.03 L237.32,664.03 L237.32,664.03 L237.32,664.03 L237.32,664.03 L237.32,664.03 C237.32,664.04,237.32,664.13,237.2,664.13 C237.1,664.13,237.09,664.1,237.05,663.93 L236.48,661.64 C234.89,661.59,233.43,660.27,233.43,658.91 C233.43,657.97,234.12,657.18,235.34,657.12 L235.39,657.33 C234.79,657.36,234.07,657.71,234.07,658.71 C234.07,659.9,234.93,661.29,236.42,661.42 L235.39,657.33 L235.34,657.12 C235.26,656.81,235.19,656.49,235.11,656.18 C234.99,655.72,234.89,655.34,234.89,655.31 C234.89,655.21,234.96,655.2,235.01,655.2 C235.06,655.2,235.08,655.21,235.11,655.24 C235.13,655.26,235.19,655.5,235.22,655.64 L235.6,657.12 L235.65,657.33 L236.68,661.42 C237.43,661.38,238,660.92,238,660.05 C238,658.87,237.14,657.45,235.65,657.33 L235.6,657.12 C237.2,657.16,238.65,658.51,238.65,659.84 C238.65,660.62,238.12,661.54,236.74,661.64 Z " />
<path
   id="path5473"
   fill="blue"
   stroke-width="0"
   stroke="blue"
   d="M241.75,659.72 L241.75,659.79 L241.75,659.87 L241.75,659.95 L241.75,660.03 L241.74,660.2 L241.73,660.37 L241.71,660.55 L241.69,660.74 L241.66,660.94 L241.63,661.14 L241.59,661.34 L241.55,661.55 L241.49,661.76 L241.43,661.97 L241.36,662.18 L241.28,662.39 L241.24,662.5 L241.19,662.61 L241.15,662.71 L241.1,662.82 C240.5,664.04,239.64,664.68,239.54,664.68 C239.48,664.68,239.44,664.65,239.44,664.59 C239.44,664.56,239.44,664.54,239.63,664.36 C240.61,663.37,241.18,661.79,241.18,659.72 C241.18,658.02,240.81,656.27,239.57,655.02 C239.44,654.9,239.44,654.88,239.44,654.85 C239.44,654.79,239.48,654.75,239.54,654.75 C239.64,654.75,240.54,655.43,241.13,656.69 C241.63,657.78,241.75,658.88,241.75,659.72 Z " />
</g>  </g>
</svg>
