<?xml version="1.0" encoding="UTF-8" standalone="no"?>
<!-- Created with Inkscape (http://www.inkscape.org/) -->

<svg
   xmlns:ns1="http://www.iki.fi/pav/software/textext/"
   xmlns:dc="http://purl.org/dc/elements/1.1/"
   xmlns:cc="http://creativecommons.org/ns#"
   xmlns:rdf="http://www.w3.org/1999/02/22-rdf-syntax-ns#"
   xmlns:svg="http://www.w3.org/2000/svg"
   xmlns="http://www.w3.org/2000/svg"
   xmlns:sodipodi="http://sodipodi.sourceforge.net/DTD/sodipodi-0.dtd"
   xmlns:inkscape="http://www.inkscape.org/namespaces/inkscape"
   width="210mm"
   height="297mm"
   viewBox="0 0 210 297"
   version="1.1"
   id="svg8"
   inkscape:version="0.92.2 (5c3e80d, 2017-08-06)"
   sodipodi:docname="fontsize_i0_92_2_tt0_8_0_pstoedit.svg">
  <sodipodi:namedview
     id="base"
     pagecolor="#ffffff"
     bordercolor="#666666"
     borderopacity="1.0"
     inkscape:pageopacity="0.0"
     inkscape:pageshadow="2"
     inkscape:zoom="5.053755"
     inkscape:cx="383.12265"
     inkscape:cy="561.61863"
     inkscape:document-units="mm"
     inkscape:current-layer="layer1"
     showgrid="false"
     inkscape:window-width="1920"
     inkscape:window-height="1058"
     inkscape:window-x="-8"
     inkscape:window-y="-8"
     inkscape:window-maximized="1"
     showguides="true"
     inkscape:guide-bbox="true"
     inkscape:measure-start="294.665,556.739"
     inkscape:measure-end="294.665,565.755">
    <sodipodi:guide
       position="93.649572,147.30374"
       orientation="0,1"
       id="guide871"
       inkscape:locked="false" />
    <sodipodi:guide
       position="77.112107,149.6893"
       orientation="0,1"
       id="guide873"
       inkscape:locked="false" />
    <sodipodi:guide
       position="78.417053,149.86977"
       orientation="0,1"
       id="guide1062"
       inkscape:locked="false" />
  </sodipodi:namedview>
  <defs
     id="defs2" />
  <metadata
     id="metadata5">
    <rdf:RDF>
      <cc:Work
         rdf:about="">
        <dc:format>image/svg+xml</dc:format>
        <dc:type
           rdf:resource="http://purl.org/dc/dcmitype/StillImage" />
        <dc:title></dc:title>
      </cc:Work>
    </rdf:RDF>
  </metadata>
  <g
     id="layer1"
     inkscape:groupmode="layer"
     inkscape:label="Ebene 1">
    <text
       xml:space="preserve"
       style="font-style:normal;font-variant:normal;font-weight:normal;font-stretch:normal;font-size:7.05555534px;line-height:1000%;font-family:'Lucida Calligraphy';-inkscape-font-specification:'Lucida Calligraphy';letter-spacing:0px;word-spacing:0px;fill:#000000;fill-opacity:1;stroke:none;stroke-width:0.26458332px;stroke-linecap:butt;stroke-linejoin:miter;stroke-opacity:1"
       x="78.655449"
       y="149.70454"
       id="text869"><tspan
         sodipodi:role="line"
         id="tspan867"
         x="78.655449"
         y="149.70454"
         style="font-style:normal;font-variant:normal;font-weight:normal;font-stretch:normal;font-size:3.88055563px;font-family:'Times New Roman';-inkscape-font-specification:'Times New Roman, ';stroke-width:0.26458332px">Hello World!</tspan></text>
    <g
       ns1:jacobian_sqrt="0.352778"
       ns1:inkscapeversion="0.92.2"
       ns1:alignment="middle center"
       ns1:scale="1.0"
       ns1:preamble="C:\\Users\\winkler\\AppData\\Roaming\\inkscape\\extensions\\default_packages.tex"
       ns1:text="\\fontsize{11pt}{1em}{\\selectfont Hello World!}"
       ns1:pdfconverter="pstoedit"
       ns1:texconverter="pdflatex"
       ns1:version="0.8.0"
       text-anchor="start"
       word-spacing="normal"
       letter-spacing="normal"
       font-size-adjust="none"
       font-stretch="normal"
       font-weight="normal"
       font-variant="normal"
       font-style="normal"
       fill-opacity="1"
       fill-rule="evenodd"
       fill="none"
       stroke-opacity="1"
       stroke-dashoffset="0"
       stroke-dasharray="none"
       stroke-miterlimit="10.433"
       stroke-linejoin="miter"
       stroke-linecap="butt"
       stroke="black"
       xml:space="preserve"
       transform="matrix(0.352778,0.000000,0.000000,-0.352778,51.795064,399.160730)"
       id="content"><path
         id="path1406"
         fill="black"
         stroke-width="0"
         d="M155.41,713.71 L155.41,713.75 L155.41,713.78 L155.41,713.82 L155.41,713.85 L155.41,713.88 L155.42,713.91 L155.42,713.93 L155.43,713.96 L155.43,713.98 L155.44,714.01 L155.45,714.03 L155.46,714.05 L155.47,714.07 L155.49,714.08 L155.51,714.1 L155.53,714.12 L155.55,714.13 L155.57,714.14 L155.59,714.15 L155.6,714.16 L155.62,714.16 L155.63,714.17 L155.65,714.17 L155.66,714.18 L155.68,714.18 L155.7,714.19 L155.72,714.19 L155.74,714.19 L155.76,714.2 L155.78,714.2 L155.81,714.2 L155.83,714.21 L155.86,714.21 L155.88,714.21 L155.91,714.21 L155.94,714.22 L155.97,714.22 L156,714.22 L156.03,714.22 L156.06,714.22 L156.09,714.22 L156.13,714.22 L156.16,714.22 L156.2,714.22 L156.24,714.22 L156.27,714.22 H156.54 V714.56 C156.15,714.53,155.35,714.53,154.93,714.53 C154.51,714.53,153.7,714.53,153.31,714.56 V714.22 H153.57 C154.42,714.22,154.44,714.1,154.44,713.71 V711.16 H151.17 V713.71 C151.17,714.1,151.19,714.22,152.03,714.22 H152.3 V714.56 C151.91,714.53,151.1,714.53,150.69,714.53 C150.27,714.53,149.46,714.53,149.07,714.56 V714.22 H149.34 C150.18,714.22,150.2,714.1,150.2,713.71 V707.97 C150.2,707.58,150.18,707.46,149.34,707.46 H149.07 V707.13 C149.46,707.16,150.26,707.16,150.68,707.16 C151.09,707.16,151.91,707.16,152.3,707.13 V707.46 H152.03 C151.19,707.46,151.17,707.58,151.17,707.97 V710.83 H154.44 V707.97 C154.44,707.58,154.42,707.46,153.57,707.46 H153.31 V707.13 C153.7,707.16,154.5,707.16,154.92,707.16 C155.33,707.16,156.15,707.16,156.54,707.13 V707.46 H156.27 C155.43,707.46,155.41,707.58,155.41,707.97 Z " /><path
         id="path1408"
         fill="black"
         stroke-width="0"
         d="M158.11,709.64 L158.12,709.87 C158.18,711.49,159.1,711.76,159.47,711.76 C160.6,711.76,160.71,710.29,160.71,709.87 H158.12 L158.11,709.64 H161.15 C161.4,709.64,161.43,709.64,161.43,709.87 C161.43,710.95,160.84,712,159.47,712 C158.21,712,157.2,710.88,157.2,709.52 C157.2,708.06,158.35,707.01,159.6,707.01 C160.94,707.01,161.43,708.21,161.43,708.42 C161.43,708.53,161.34,708.55,161.29,708.55 C161.19,708.55,161.17,708.49,161.15,708.4 C160.76,707.28,159.78,707.28,159.67,707.28 C159.12,707.28,158.69,707.6,158.43,708.01 C158.11,708.53,158.11,709.25,158.11,709.64 Z " /><path
         id="path1410"
         fill="black"
         stroke-width="0"
         d="M163.68,714.68 L162.1,714.56 V714.22 C162.87,714.22,162.96,714.15,162.96,713.61 V707.95 C162.96,707.46,162.84,707.46,162.1,707.46 V707.13 C162.46,707.14,163.04,707.16,163.32,707.16 C163.59,707.16,164.12,707.14,164.53,707.13 V707.46 C163.8,707.46,163.68,707.46,163.68,707.95 Z " /><path
         id="path1412"
         fill="black"
         stroke-width="0"
         d="M166.71,714.68 L165.13,714.56 V714.22 C165.9,714.22,165.99,714.15,165.99,713.61 V707.95 C165.99,707.46,165.87,707.46,165.13,707.46 V707.13 C165.49,707.14,166.07,707.16,166.35,707.16 C166.62,707.16,167.15,707.14,167.56,707.13 V707.46 C166.83,707.46,166.71,707.46,166.71,707.95 Z " /><path
         id="path1414"
         fill="black"
         stroke-width="0"
         d="M172.95,709.46 L172.95,709.58 L172.94,709.71 L172.92,709.84 L172.9,709.96 L172.87,710.09 L172.84,710.21 L172.8,710.33 L172.76,710.44 L172.71,710.55 L172.66,710.66 L172.6,710.77 L172.53,710.87 L172.47,710.97 L172.39,711.07 L172.32,711.16 L172.24,711.25 L172.15,711.34 L172.07,711.42 L171.97,711.49 L171.88,711.56 L171.78,711.63 L171.68,711.69 L171.58,711.75 L171.47,711.8 L171.36,711.85 L171.25,711.89 L171.13,711.92 L171.02,711.95 L170.9,711.97 L170.78,711.99 L170.66,712 L170.54,712 L170.52,711.76 C171.01,711.76,171.47,711.52,171.76,711.06 C172.04,710.59,172.04,709.96,172.04,709.54 C172.04,709.15,172.04,708.56,171.8,708.08 C171.56,707.59,171.08,707.28,170.54,707.28 H170.54 C170.07,707.28,169.58,707.51,169.29,708.01 C169.02,708.49,169.02,709.15,169.02,709.54 C169.02,709.97,169.02,710.55,169.28,711.03 C169.57,711.53,170.09,711.76,170.52,711.76 L170.54,712 C169.17,712,168.11,710.82,168.11,709.46 C168.11,708.05,169.24,707.01,170.52,707.01 C171.85,707.01,172.95,708.07,172.95,709.46 Z " /><path
         id="path1416"
         fill="black"
         stroke-width="0"
         d="M186.82,713.49 L186.84,713.55 L186.86,713.61 L186.89,713.66 L186.91,713.7 L186.93,713.75 L186.96,713.79 L186.99,713.83 L187.02,713.87 L187.05,713.91 L187.08,713.94 L187.11,713.97 L187.14,714 L187.18,714.03 L187.21,714.05 L187.25,714.07 L187.28,714.09 L187.32,714.11 L187.36,714.13 L187.4,714.14 L187.43,714.16 L187.47,714.17 L187.51,714.18 L187.55,714.19 L187.59,714.2 L187.63,714.21 L187.67,714.21 L187.71,714.22 L187.75,714.22 L187.84,714.22 L187.92,714.22 V714.56 C187.59,714.54,187.25,714.53,186.92,714.53 C186.6,714.53,185.9,714.55,185.62,714.56 V714.22 C186.35,714.21,186.57,713.85,186.57,713.65 C186.57,713.58,186.54,713.49,186.52,713.43 L184.88,708.4 L183.13,713.73 C183.12,713.78,183.1,713.84,183.1,713.9 C183.1,714.22,183.73,714.22,184.01,714.22 V714.56 C183.62,714.53,182.88,714.53,182.46,714.53 C182.05,714.53,181.58,714.55,181.13,714.56 V714.22 C181.75,714.22,181.98,714.22,182.11,713.83 L182.35,713.07 L180.84,708.4 L179.08,713.76 C179.07,713.79,179.05,713.86,179.05,713.9 C179.05,714.22,179.69,714.22,179.97,714.22 V714.56 C179.58,714.53,178.84,714.53,178.42,714.53 C178.01,714.53,177.54,714.55,177.09,714.56 V714.22 C177.91,714.22,177.95,714.17,178.08,713.77 L180.27,707.09 C180.3,706.99,180.33,706.89,180.47,706.89 C180.63,706.89,180.65,706.96,180.69,707.1 L182.5,712.64 L184.31,707.09 C184.34,706.99,184.38,706.89,184.52,706.89 C184.67,706.89,184.69,706.96,184.74,707.1 Z " /><path
         id="path1418"
         fill="black"
         stroke-width="0"
         d="M192.34,709.46 L192.34,709.58 L192.33,709.71 L192.32,709.84 L192.29,709.96 L192.27,710.09 L192.23,710.21 L192.2,710.33 L192.15,710.44 L192.1,710.55 L192.05,710.66 L191.99,710.77 L191.93,710.87 L191.86,710.97 L191.79,711.07 L191.71,711.16 L191.63,711.25 L191.55,711.34 L191.46,711.42 L191.37,711.49 L191.27,711.56 L191.18,711.63 L191.07,711.69 L190.97,711.75 L190.86,711.8 L190.75,711.85 L190.64,711.89 L190.53,711.92 L190.41,711.95 L190.29,711.97 L190.17,711.99 L190.05,712 L189.93,712 L189.92,711.76 C190.4,711.76,190.87,711.52,191.15,711.06 C191.44,710.59,191.44,709.96,191.44,709.54 C191.44,709.15,191.44,708.56,191.2,708.08 C190.96,707.59,190.48,707.28,189.93,707.28 H189.93 C189.46,707.28,188.98,707.51,188.68,708.01 C188.41,708.49,188.41,709.15,188.41,709.54 C188.41,709.97,188.41,710.55,188.67,711.03 C188.97,711.53,189.48,711.76,189.92,711.76 L189.93,712 C188.56,712,187.5,710.82,187.5,709.46 C187.5,708.05,188.64,707.01,189.92,707.01 C191.24,707.01,192.34,708.07,192.34,709.46 Z " /><path
         id="path1420"
         fill="black"
         stroke-width="0"
         d="M194.48,710.74 V711.94 L192.96,711.82 V711.48 C193.72,711.48,193.81,711.4,193.81,710.87 V707.95 C193.81,707.46,193.69,707.46,192.96,707.46 V707.13 C193.38,707.14,193.9,707.16,194.2,707.16 C194.64,707.16,195.15,707.16,195.59,707.13 V707.46 H195.36 C194.55,707.46,194.53,707.58,194.53,707.97 V709.65 C194.53,710.73,194.99,711.7,195.82,711.7 C195.9,711.7,195.92,711.7,195.94,711.69 C195.91,711.68,195.69,711.55,195.69,711.26 C195.69,710.96,195.92,710.79,196.16,710.79 C196.36,710.79,196.63,710.92,196.63,711.27 C196.63,711.62,196.29,711.94,195.82,711.94 C195.02,711.94,194.63,711.21,194.48,710.74 Z " /><path
         id="path1422"
         fill="black"
         stroke-width="0"
         d="M198.86,714.68 L197.29,714.56 V714.22 C198.05,714.22,198.14,714.15,198.14,713.61 V707.95 C198.14,707.46,198.02,707.46,197.29,707.46 V707.13 C197.65,707.14,198.23,707.16,198.5,707.16 C198.77,707.16,199.31,707.14,199.71,707.13 V707.46 C198.98,707.46,198.86,707.46,198.86,707.95 Z " /><path
         id="path1424"
         fill="black"
         stroke-width="0"
         d="M204.11,707.72 V707.01 L205.71,707.13 V707.46 C204.95,707.46,204.86,707.54,204.86,708.07 V714.68 L203.29,714.56 V714.22 C204.05,714.22,204.14,714.15,204.14,713.61 V711.26 C203.82,711.66,203.35,711.94,202.76,711.94 L202.81,711.7 C203.19,711.7,203.65,711.53,203.99,711.04 C204.11,710.86,204.11,710.84,204.11,710.64 H204.11 V708.41 C204.11,708.21,204.11,708.19,203.99,708.01 C203.66,707.48,203.17,707.24,202.7,707.24 C202.21,707.24,201.81,707.53,201.55,707.94 C201.27,708.39,201.23,709.01,201.23,709.46 C201.23,709.86,201.26,710.51,201.57,711 C201.8,711.34,202.22,711.7,202.81,711.7 L202.76,711.94 C201.47,711.94,200.33,710.87,200.33,709.47 C200.33,708.08,201.4,707.01,202.64,707.01 C203.34,707.01,203.83,707.38,204.11,707.72 Z " /><path
         id="path1426"
         fill="black"
         stroke-width="0"
         d="M207.69,709.4 L208.11,714.37 C208.11,714.73,207.82,714.92,207.54,714.92 C207.25,714.92,206.96,714.73,206.96,714.37 L207.38,709.41 C207.39,709.25,207.4,709.16,207.54,709.16 C207.64,709.16,207.68,709.22,207.69,709.4 Z " /><path
         id="path1428"
         fill="black"
         stroke-width="0"
         d="M208.11,707.7 L208.11,707.73 L208.11,707.76 L208.11,707.79 L208.1,707.82 L208.1,707.85 L208.09,707.87 L208.08,707.9 L208.07,707.93 L208.06,707.95 L208.04,707.98 L208.03,708 L208.01,708.02 L208,708.05 L207.98,708.07 L207.96,708.09 L207.94,708.11 L207.92,708.13 L207.9,708.15 L207.88,708.16 L207.86,708.18 L207.83,708.19 L207.81,708.21 L207.78,708.22 L207.76,708.23 L207.73,708.24 L207.71,708.25 L207.68,708.26 L207.65,708.27 L207.62,708.27 L207.59,708.28 L207.56,708.28 L207.54,708.28 C207.22,708.28,206.96,708.02,206.96,707.7 C206.96,707.39,207.22,707.13,207.54,707.13 C207.85,707.13,208.11,707.39,208.11,707.7 Z " /></g>  </g>
</svg>
