<?xml version="1.0" encoding="UTF-8" standalone="no"?>
<!-- Created with Inkscape (http://www.inkscape.org/) -->

<svg
   xmlns:ns0="http://www.iki.fi/pav/software/textext/"
   xmlns:dc="http://purl.org/dc/elements/1.1/"
   xmlns:cc="http://creativecommons.org/ns#"
   xmlns:rdf="http://www.w3.org/1999/02/22-rdf-syntax-ns#"
   xmlns:svg="http://www.w3.org/2000/svg"
   xmlns="http://www.w3.org/2000/svg"
   xmlns:sodipodi="http://sodipodi.sourceforge.net/DTD/sodipodi-0.dtd"
   xmlns:inkscape="http://www.inkscape.org/namespaces/inkscape"
   width="210mm"
   height="297mm"
   viewBox="0 0 210 297"
   version="1.1"
   id="svg8"
   inkscape:version="0.92.3 (2405546, 2018-03-11)"
   sodipodi:docname="modified.svg">
  <sodipodi:namedview
     id="base"
     pagecolor="#ffffff"
     bordercolor="#666666"
     borderopacity="1.0"
     inkscape:pageopacity="0.0"
     inkscape:pageshadow="2"
     inkscape:zoom="0.9051743"
     inkscape:cx="-137.38487"
     inkscape:cy="438.09795"
     inkscape:document-units="mm"
     inkscape:current-layer="layer1"
     showgrid="false"
     inkscape:window-width="2560"
     inkscape:window-height="1007"
     inkscape:window-x="0"
     inkscape:window-y="0"
     inkscape:window-maximized="1" />
  <defs
     id="defs2" />
  <metadata
     id="metadata5">
    <rdf:RDF>
      <cc:Work
         rdf:about="">
        <dc:format>image/svg+xml</dc:format>
        <dc:type
           rdf:resource="http://purl.org/dc/dcmitype/StillImage" />
        <dc:title />
      </cc:Work>
    </rdf:RDF>
  </metadata>
  <g
     id="layer1"
     inkscape:groupmode="layer"
     inkscape:label="Layer 1">
    <g
       style="stroke:#000000;stroke-opacity:1;fill-opacity:1"
       ns0:jacobian_sqrt="0.705556"
       inkscapeversion="0.92.3"
       ns0:alignment="middle center"
       ns0:scale="2.0"
       ns0:preamble="/home/sergei/PycharmProjects/textext/extension/textext/default_packages.tex"
       ns0:text="$$\\lim_{y \\to 0} \\frac{\\sin(y)}{y} = 1$$\n"
       ns0:pdfconverter="pstoedit"
       ns0:texconverter="pdflatex"
       ns0:version="0.8.1"
       text-anchor="start"
       word-spacing="normal"
       letter-spacing="normal"
       font-size-adjust="none"
       font-stretch="normal"
       font-weight="normal"
       font-variant="normal"
       font-style="normal"
       fill-opacity="1"
       fill-rule="evenodd"
       fill="none"
       stroke-opacity="1"
       stroke-dashoffset="0"
       stroke-dasharray="none"
       stroke-miterlimit="10.433"
       stroke-linejoin="miter"
       stroke-linecap="butt"
       stroke="black"
       xml:space="preserve"
       transform="matrix(0.705556,0.000000,0.000000,-0.705556,-110.469752,603.364896)"
       id="content">
<path
   id="path835"
   style="stroke:#000000;stroke-opacity:1;fill-opacity:1"
   fill="black"
   stroke-width="0"
   d="M276.7,648.92 L275.27,648.81 V648.5 C275.96,648.5,276.04,648.43,276.04,647.95 V642.78 C276.04,642.34,275.93,642.34,275.27,642.34 V642.03 C275.59,642.04,276.12,642.06,276.37,642.06 C276.62,642.06,277.11,642.04,277.48,642.03 V642.34 C276.81,642.34,276.7,642.34,276.7,642.78 Z " />
<path
   id="path837"
   style="stroke:#000000;stroke-opacity:1;fill-opacity:1"
   fill="black"
   stroke-width="0"
   d="M279.47,646.42 L278.07,646.31 V646 C278.72,646,278.81,645.94,278.81,645.45 V642.78 C278.81,642.34,278.7,642.34,278.03,642.34 V642.03 C278.35,642.04,278.89,642.06,279.13,642.06 C279.48,642.06,279.83,642.04,280.17,642.03 V642.34 C279.51,642.34,279.47,642.39,279.47,642.77 Z " />
<path
   id="path839"
   style="stroke:#000000;stroke-opacity:1;fill-opacity:1"
   fill="black"
   stroke-width="0"
   d="M279.51,648.15 L279.51,648.18 L279.51,648.2 L279.5,648.23 L279.5,648.26 L279.49,648.29 L279.48,648.31 L279.48,648.34 L279.47,648.36 L279.45,648.39 L279.44,648.41 L279.43,648.43 L279.42,648.45 L279.4,648.47 L279.38,648.49 L279.37,648.51 L279.35,648.53 L279.33,648.55 L279.31,648.56 L279.29,648.58 L279.27,648.59 L279.25,648.6 L279.23,648.61 L279.2,648.63 L279.18,648.64 L279.16,648.64 L279.13,648.65 L279.11,648.66 L279.08,648.66 L279.06,648.67 L279.03,648.67 L279.01,648.67 L278.98,648.67 C278.67,648.67,278.45,648.41,278.45,648.15 C278.45,647.88,278.67,647.62,278.98,647.62 C279.26,647.62,279.51,647.83,279.51,648.15 Z " />
<path
   id="path841"
   style="stroke:#000000;stroke-opacity:1;fill-opacity:1"
   fill="black"
   stroke-width="0"
   d="M281.57,645.44 V642.78 C281.57,642.34,281.46,642.34,280.79,642.34 V642.03 C281.14,642.04,281.65,642.06,281.92,642.06 C282.18,642.06,282.7,642.04,283.03,642.03 V642.34 C282.37,642.34,282.26,642.34,282.26,642.78 V644.61 C282.26,645.64,282.96,646.2,283.6,646.2 C284.23,646.2,284.34,645.66,284.34,645.1 V642.78 C284.34,642.34,284.23,642.34,283.56,642.34 V642.03 C283.91,642.04,284.42,642.06,284.69,642.06 C284.95,642.06,285.47,642.04,285.81,642.03 V642.34 C285.14,642.34,285.03,642.34,285.03,642.78 V644.61 C285.03,645.64,285.74,646.2,286.38,646.2 C287,646.2,287.11,645.66,287.11,645.1 V642.78 C287.11,642.34,287,642.34,286.33,642.34 V642.03 C286.68,642.04,287.19,642.06,287.46,642.06 C287.72,642.06,288.24,642.04,288.58,642.03 V642.34 C288.06,642.34,287.81,642.34,287.8,642.63 V644.53 C287.8,645.39,287.8,645.69,287.49,646.05 C287.35,646.22,287.02,646.42,286.44,646.42 C285.61,646.42,285.17,645.82,285,645.44 C284.86,646.31,284.12,646.42,283.67,646.42 C282.94,646.42,282.48,645.99,282.2,645.38 V646.42 L280.79,646.31 V646 C281.49,646,281.57,645.93,281.57,645.44 Z " />
<path
   id="path843"
   style="stroke:#000000;stroke-opacity:1;fill-opacity:1"
   fill="black"
   stroke-width="0"
   d="M277.64,638.49 L277.64,638.5 L277.64,638.5 L277.64,638.51 L277.64,638.51 L277.65,638.52 L277.65,638.52 L277.65,638.53 L277.65,638.53 L277.65,638.54 L277.65,638.55 L277.66,638.55 L277.66,638.56 L277.66,638.57 L277.66,638.57 L277.66,638.57 L277.66,638.58 L277.66,638.58 L277.66,638.59 L277.66,638.59 L277.66,638.6 L277.66,638.6 L277.67,638.6 L277.67,638.61 L277.67,638.61 L277.67,638.62 L277.67,638.63 L277.67,638.63 L277.67,638.64 L277.67,638.64 L277.67,638.64 L277.67,638.65 C277.67,638.79,277.56,638.87,277.44,638.87 C277.36,638.87,277.23,638.84,277.15,638.7 C277.13,638.66,277.07,638.44,277.04,638.3 L276.89,637.72 C276.85,637.56,276.63,636.68,276.61,636.6 C276.61,636.6,276.3,636,275.75,636 C275.28,636,275.28,636.45,275.28,636.58 C275.28,636.95,275.44,637.39,275.65,637.92 C275.73,638.15,275.77,638.23,275.77,638.35 C275.77,638.68,275.48,638.94,275.1,638.94 C274.39,638.94,274.08,637.99,274.08,637.88 C274.08,637.78,274.18,637.78,274.2,637.78 C274.3,637.78,274.3,637.82,274.33,637.9 C274.5,638.47,274.8,638.74,275.08,638.74 C275.2,638.74,275.26,638.67,275.26,638.5 C275.26,638.34,275.19,638.19,275.16,638.1 C274.82,637.25,274.75,636.99,274.75,636.69 C274.75,636.57,274.75,636.24,275.02,636.02 C275.24,635.84,275.54,635.8,275.72,635.8 C276,635.8,276.26,635.91,276.49,636.12 C276.39,635.73,276.32,635.44,276.02,635.09 C275.84,634.88,275.56,634.65,275.18,634.65 C275.14,634.65,274.81,634.65,274.66,634.88 C275.04,634.92,275.04,635.25,275.04,635.26 C275.04,635.48,274.84,635.53,274.77,635.53 C274.59,635.53,274.36,635.39,274.36,635.07 C274.36,634.71,274.7,634.45,275.19,634.45 C275.9,634.45,276.76,635,276.98,635.87 Z " />
<path
   id="path845"
   style="stroke:#000000;stroke-opacity:1;fill-opacity:1"
   fill="black"
   stroke-width="0"
   d="M284.48,637.44 L284.4,637.38 L284.32,637.32 L284.25,637.26 L284.18,637.19 L284.12,637.13 L284.06,637.06 L284,637 L283.95,636.93 L283.9,636.87 L283.85,636.8 L283.81,636.74 L283.77,636.67 L283.74,636.61 L283.7,636.55 L283.67,636.49 L283.65,636.43 L283.62,636.37 L283.6,636.32 L283.58,636.26 L283.56,636.21 L283.54,636.17 L283.53,636.12 L283.52,636.08 L283.51,636.04 L283.5,636.01 L283.49,635.98 L283.49,635.95 L283.48,635.93 L283.48,635.91 L283.48,635.9 L283.48,635.89 L283.48,635.89 C283.48,635.78,283.55,635.78,283.64,635.78 C283.77,635.78,283.79,635.78,283.83,635.9 C283.87,636.08,283.98,636.52,284.34,636.9 C284.75,637.33,285.1,637.43,285.39,637.52 C285.43,637.53,285.46,637.58,285.46,637.61 C285.46,637.68,285.42,637.7,285.33,637.72 C284.32,638.04,283.96,638.75,283.82,639.36 C283.79,639.45,283.74,639.45,283.64,639.45 C283.55,639.45,283.48,639.45,283.48,639.34 C283.48,639.33,283.55,638.86,283.89,638.38 C284.05,638.15,284.24,637.95,284.48,637.78 H278.86 C278.75,637.78,278.58,637.78,278.58,637.62 C278.58,637.44,278.74,637.44,278.86,637.44 Z " />
<path
   id="path847"
   style="stroke:#000000;stroke-opacity:1;fill-opacity:1"
   fill="black"
   stroke-width="0"
   d="M289.59,638.09 L289.59,638.23 L289.59,638.37 L289.58,638.5 L289.57,638.63 L289.56,638.75 L289.55,638.87 L289.53,638.98 L289.51,639.1 L289.48,639.2 L289.45,639.31 L289.42,639.41 L289.38,639.51 L289.34,639.61 L289.29,639.71 L289.24,639.8 L289.21,639.85 L289.18,639.89 C288.96,640.21,288.53,640.49,287.97,640.49 V640.3 C288.35,640.3,288.71,640.07,288.84,639.66 C288.95,639.29,288.96,638.79,288.96,638.18 C288.96,637.67,288.96,637.15,288.87,636.71 C288.73,636.08,288.25,635.93,287.97,635.93 H287.97 C287.65,635.93,287.22,636.12,287.08,636.69 C286.98,637.1,286.98,637.67,286.98,638.18 C286.98,638.69,286.98,639.22,287.09,639.6 C287.24,640.15,287.68,640.3,287.97,640.3 V640.49 C286.35,640.49,286.35,638.59,286.35,638.09 C286.35,637.59,286.35,635.73,287.97,635.73 C289.59,635.73,289.59,637.59,289.59,638.09 Z " />
<path
   id="path849"
   style="stroke:#000000;stroke-opacity:1;fill-opacity:1"
   fill="black"
   stroke-width="0"
   d="M294.89,650.69 L294.91,650.69 L294.93,650.68 L294.96,650.68 L294.99,650.67 L295.03,650.66 L295.06,650.66 L295.1,650.65 L295.14,650.63 L295.18,650.62 L295.22,650.61 L295.27,650.59 L295.31,650.58 L295.36,650.56 L295.4,650.54 L295.44,650.51 L295.49,650.49 L295.53,650.46 L295.57,650.44 L295.61,650.41 L295.65,650.37 L295.69,650.34 L295.73,650.3 L295.76,650.26 L295.79,650.22 L295.82,650.17 L295.83,650.15 L295.85,650.13 L295.86,650.1 L295.87,650.08 L295.88,650.05 L295.89,650.02 L295.9,650 L295.9,649.97 L295.91,649.94 L295.91,649.91 L295.92,649.88 L295.92,649.85 L295.92,649.81 L295.92,649.78 C295.92,649.27,295.58,648.88,294.8,648.88 C293.96,648.88,293.6,649.44,293.41,650.29 C293.38,650.42,293.37,650.46,293.27,650.46 C293.14,650.46,293.14,650.39,293.14,650.21 V648.9 C293.14,648.73,293.14,648.66,293.25,648.66 C293.3,648.66,293.31,648.67,293.5,648.86 C293.52,648.88,293.52,648.9,293.7,649.09 C294.14,648.67,294.59,648.66,294.8,648.66 C295.94,648.66,296.4,649.32,296.4,650.04 C296.4,650.57,296.1,650.86,295.98,650.98 C295.65,651.3,295.27,651.38,294.85,651.46 C294.29,651.57,293.62,651.7,293.62,652.27 C293.62,652.62,293.88,653.03,294.74,653.03 C295.83,653.03,295.88,652.14,295.9,651.83 C295.91,651.74,296,651.74,296.02,651.74 C296.15,651.74,296.15,651.79,296.15,651.98 V652.98 C296.15,653.15,296.15,653.22,296.04,653.22 C295.99,653.22,295.97,653.22,295.85,653.1 C295.82,653.06,295.71,652.97,295.67,652.94 C295.3,653.22,294.89,653.22,294.74,653.22 C293.52,653.22,293.14,652.55,293.14,651.99 C293.14,651.65,293.3,651.37,293.57,651.15 C293.89,650.89,294.17,650.83,294.89,650.69 Z " />
<path
   id="path851"
   style="stroke:#000000;stroke-opacity:1;fill-opacity:1"
   fill="black"
   stroke-width="0"
   d="M298.51,653.16 L297.11,653.05 V652.74 C297.76,652.74,297.85,652.68,297.85,652.19 V649.52 C297.85,649.08,297.74,649.08,297.07,649.08 V648.77 C297.39,648.78,297.93,648.8,298.17,648.8 C298.52,648.8,298.87,648.78,299.2,648.77 V649.08 C298.55,649.08,298.51,649.12,298.51,649.51 Z " />
<path
   id="path853"
   style="stroke:#000000;stroke-opacity:1;fill-opacity:1"
   fill="black"
   stroke-width="0"
   d="M298.55,654.89 L298.55,654.92 L298.54,654.94 L298.54,654.97 L298.54,655 L298.53,655.03 L298.52,655.05 L298.51,655.08 L298.5,655.1 L298.49,655.13 L298.48,655.15 L298.47,655.17 L298.45,655.19 L298.44,655.21 L298.42,655.23 L298.41,655.25 L298.39,655.27 L298.37,655.29 L298.35,655.3 L298.33,655.32 L298.31,655.33 L298.29,655.34 L298.27,655.35 L298.24,655.37 L298.22,655.38 L298.2,655.38 L298.17,655.39 L298.15,655.4 L298.12,655.4 L298.1,655.41 L298.07,655.41 L298.05,655.41 L298.02,655.41 C297.71,655.41,297.49,655.15,297.49,654.89 C297.49,654.62,297.71,654.36,298.02,654.36 C298.3,654.36,298.55,654.57,298.55,654.89 Z " />
<path
   id="path855"
   style="stroke:#000000;stroke-opacity:1;fill-opacity:1"
   fill="black"
   stroke-width="0"
   d="M300.61,652.18 V649.52 C300.61,649.08,300.5,649.08,299.83,649.08 V648.77 C300.18,648.78,300.69,648.8,300.96,648.8 C301.21,648.8,301.73,648.78,302.07,648.77 V649.08 C301.4,649.08,301.3,649.08,301.3,649.52 V651.35 C301.3,652.38,302,652.94,302.64,652.94 C303.27,652.94,303.38,652.4,303.38,651.84 V649.52 C303.38,649.08,303.27,649.08,302.6,649.08 V648.77 C302.95,648.78,303.46,648.8,303.73,648.8 C303.99,648.8,304.51,648.78,304.85,648.77 V649.08 C304.33,649.08,304.08,649.08,304.07,649.37 V651.27 C304.07,652.12,304.07,652.43,303.76,652.79 C303.62,652.96,303.29,653.16,302.71,653.16 C301.98,653.16,301.51,652.73,301.23,652.11 V653.16 L299.83,653.05 V652.74 C300.53,652.74,300.61,652.67,300.61,652.18 Z " />
<path
   id="path857"
   style="stroke:#000000;stroke-opacity:1;fill-opacity:1"
   fill="black"
   stroke-width="0"
   d="M308.35,646.38 L308.35,646.39 L308.35,646.39 L308.35,646.4 L308.34,646.4 L308.34,646.4 L308.34,646.41 L308.34,646.41 L308.34,646.41 L308.34,646.42 L308.34,646.42 L308.33,646.42 L308.33,646.43 L308.33,646.43 L308.32,646.44 L308.32,646.45 L308.32,646.45 L308.31,646.46 L308.3,646.47 L308.3,646.47 L308.3,646.47 L308.29,646.48 L308.29,646.48 L308.29,646.49 L308.28,646.49 L308.28,646.5 L308.27,646.5 L308.27,646.5 L308.26,646.51 L308.26,646.52 L308.25,646.52 L308.25,646.53 L308.24,646.53 L308.24,646.54 L308.23,646.54 L308.23,646.55 L308.22,646.56 L308.21,646.56 L308.21,646.57 L308.2,646.58 L308.19,646.59 L308.18,646.59 L308.18,646.6 C306.93,647.85,306.61,649.73,306.61,651.25 C306.61,652.98,306.99,654.71,308.22,655.95 C308.35,656.07,308.35,656.09,308.35,656.12 C308.35,656.19,308.31,656.22,308.25,656.22 C308.15,656.22,307.25,655.54,306.66,654.28 C306.15,653.19,306.03,652.09,306.03,651.25 C306.03,650.48,306.14,649.27,306.69,648.15 C307.29,646.93,308.15,646.28,308.25,646.28 C308.31,646.28,308.35,646.31,308.35,646.38 Z " />
<path
   id="path859"
   style="stroke:#000000;stroke-opacity:1;fill-opacity:1"
   fill="black"
   stroke-width="0"
   d="M313.77,652.55 L313.77,652.56 L313.77,652.56 L313.77,652.57 L313.77,652.58 L313.78,652.59 L313.78,652.6 L313.78,652.61 L313.78,652.62 L313.79,652.63 L313.79,652.64 L313.79,652.64 L313.79,652.65 L313.79,652.66 L313.8,652.67 L313.8,652.67 L313.8,652.68 L313.8,652.69 L313.8,652.69 L313.8,652.7 L313.8,652.7 L313.8,652.71 L313.8,652.71 L313.8,652.72 L313.8,652.73 L313.8,652.75 L313.8,652.76 L313.8,652.76 L313.8,652.77 L313.8,652.77 L313.8,652.78 C313.8,652.96,313.67,653.05,313.52,653.05 C313.42,653.05,313.26,652.99,313.17,652.84 C313.15,652.79,313.07,652.48,313.03,652.3 C312.96,652.04,312.89,651.78,312.83,651.51 L312.38,649.72 C312.34,649.57,311.91,648.88,311.25,648.88 C310.74,648.88,310.63,649.31,310.63,649.68 C310.63,650.14,310.8,650.75,311.14,651.63 C311.3,652.03,311.34,652.14,311.34,652.34 C311.34,652.79,311.02,653.16,310.52,653.16 C309.58,653.16,309.21,651.72,309.21,651.63 C309.21,651.53,309.31,651.53,309.33,651.53 C309.43,651.53,309.44,651.55,309.49,651.71 C309.76,652.64,310.16,652.94,310.49,652.94 C310.57,652.94,310.74,652.94,310.74,652.62 C310.74,652.37,310.64,652.11,310.57,651.93 C310.17,650.87,310,650.31,310,649.84 C310,648.96,310.62,648.66,311.21,648.66 C311.6,648.66,311.94,648.83,312.22,649.1 C312.09,648.59,311.97,648.1,311.57,647.58 C311.31,647.24,310.93,646.95,310.48,646.95 C310.33,646.95,309.89,646.98,309.72,647.37 C309.88,647.37,310.01,647.37,310.15,647.49 C310.24,647.58,310.35,647.7,310.35,647.89 C310.35,648.2,310.08,648.24,309.98,648.24 C309.75,648.24,309.42,648.08,309.42,647.59 C309.42,647.1,309.86,646.73,310.48,646.73 C311.5,646.73,312.53,647.63,312.81,648.76 Z " />
<path
   id="path861"
   style="stroke:#000000;stroke-opacity:1;fill-opacity:1"
   fill="black"
   stroke-width="0"
   d="M317.04,651.25 L317.04,651.32 L317.04,651.4 L317.04,651.48 L317.04,651.56 L317.03,651.73 L317.02,651.9 L317,652.09 L316.98,652.28 L316.95,652.47 L316.92,652.67 L316.88,652.87 L316.83,653.08 L316.78,653.29 L316.72,653.5 L316.65,653.71 L316.57,653.93 L316.53,654.03 L316.48,654.14 L316.44,654.24 L316.39,654.35 C315.79,655.57,314.93,656.22,314.83,656.22 C314.77,656.22,314.73,656.18,314.73,656.12 C314.73,656.09,314.73,656.07,314.92,655.89 C315.9,654.91,316.46,653.33,316.46,651.25 C316.46,649.55,316.1,647.8,314.86,646.55 C314.73,646.43,314.73,646.41,314.73,646.38 C314.73,646.32,314.77,646.28,314.83,646.28 C314.93,646.28,315.83,646.96,316.42,648.22 C316.92,649.31,317.04,650.42,317.04,651.25 Z " />
<line
   id="line863"
   style="stroke:#000000;stroke-opacity:1;fill-opacity:1"
   stroke-width="0.398"
   y2="644.52"
   x2="318.04"
   y1="644.52"
   x1="292.81" />
<path
   id="path865"
   style="stroke:#000000;stroke-opacity:1;fill-opacity:1"
   fill="black"
   stroke-width="0"
   d="M307.65,638.98 L307.65,638.98 L307.65,638.99 L307.65,639 L307.66,639 L307.66,639.01 L307.66,639.02 L307.66,639.04 L307.67,639.04 L307.67,639.05 L307.67,639.06 L307.67,639.07 L307.68,639.08 L307.68,639.09 L307.68,639.09 L307.68,639.1 L307.68,639.11 L307.68,639.11 L307.68,639.12 L307.68,639.12 L307.69,639.13 L307.69,639.13 L307.69,639.14 L307.69,639.15 L307.69,639.16 L307.69,639.17 L307.69,639.18 L307.69,639.19 L307.69,639.19 L307.69,639.2 L307.69,639.21 C307.69,639.39,307.55,639.47,307.4,639.47 C307.3,639.47,307.14,639.41,307.05,639.27 C307.03,639.22,306.95,638.91,306.91,638.73 C306.84,638.47,306.77,638.2,306.71,637.93 L306.26,636.15 C306.22,636,305.8,635.3,305.14,635.3 C304.63,635.3,304.52,635.74,304.52,636.11 C304.52,636.56,304.69,637.18,305.03,638.05 C305.19,638.46,305.23,638.57,305.23,638.77 C305.23,639.22,304.91,639.58,304.41,639.58 C303.46,639.58,303.09,638.14,303.09,638.05 C303.09,637.96,303.19,637.96,303.21,637.96 C303.31,637.96,303.32,637.97,303.37,638.13 C303.64,639.07,304.04,639.36,304.38,639.36 C304.46,639.36,304.63,639.36,304.63,639.05 C304.63,638.8,304.53,638.54,304.46,638.35 C304.06,637.3,303.88,636.73,303.88,636.27 C303.88,635.38,304.51,635.08,305.1,635.08 C305.49,635.08,305.83,635.25,306.1,635.53 C305.97,635.01,305.85,634.53,305.46,634 C305.2,633.66,304.82,633.38,304.36,633.38 C304.22,633.38,303.77,633.41,303.6,633.79 C303.76,633.79,303.89,633.79,304.03,633.91 C304.13,634,304.23,634.13,304.23,634.32 C304.23,634.63,303.96,634.67,303.86,634.67 C303.63,634.67,303.3,634.51,303.3,634.02 C303.3,633.52,303.74,633.16,304.36,633.16 C305.39,633.16,306.41,634.06,306.69,635.18 Z " />
<path
   id="path867"
   style="stroke:#000000;stroke-opacity:1;fill-opacity:1"
   fill="black"
   stroke-width="0"
   d="M328.85,645.28 L328.88,645.28 L328.91,645.28 L328.94,645.28 L328.95,645.28 L328.96,645.28 L328.98,645.28 L328.99,645.28 L329.01,645.28 L329.02,645.29 L329.04,645.29 L329.05,645.29 L329.06,645.3 L329.07,645.3 L329.09,645.3 L329.1,645.31 L329.11,645.32 L329.12,645.32 L329.13,645.33 L329.14,645.34 L329.15,645.35 L329.16,645.36 L329.16,645.36 L329.16,645.37 L329.17,645.38 L329.17,645.38 L329.17,645.39 L329.17,645.39 L329.18,645.4 L329.18,645.41 L329.18,645.42 L329.18,645.42 L329.18,645.43 L329.19,645.44 L329.19,645.45 L329.19,645.46 L329.19,645.46 L329.19,645.47 C329.19,645.67,329,645.67,328.86,645.67 H322.89 C322.75,645.67,322.56,645.67,322.56,645.47 C322.56,645.28,322.75,645.28,322.9,645.28 Z " />
<path
   id="path869"
   style="stroke:#000000;stroke-opacity:1;fill-opacity:1"
   fill="black"
   stroke-width="0"
   d="M328.86,643.35 L328.87,643.35 L328.89,643.35 L328.91,643.35 L328.94,643.35 L328.96,643.35 L328.97,643.35 L328.98,643.35 L329,643.35 L329.01,643.36 L329.02,643.36 L329.04,643.36 L329.05,643.36 L329.06,643.37 L329.08,643.37 L329.09,643.38 L329.1,643.38 L329.11,643.39 L329.12,643.4 L329.13,643.4 L329.14,643.41 L329.15,643.42 L329.15,643.43 L329.16,643.43 L329.16,643.44 L329.16,643.44 L329.17,643.45 L329.17,643.45 L329.17,643.46 L329.17,643.47 L329.18,643.47 L329.18,643.48 L329.18,643.49 L329.18,643.5 L329.18,643.5 L329.19,643.51 L329.19,643.52 L329.19,643.53 L329.19,643.54 L329.19,643.55 C329.19,643.75,329,643.75,328.85,643.75 H322.9 C322.75,643.75,322.56,643.75,322.56,643.55 C322.56,643.35,322.75,643.35,322.89,643.35 Z " />
<path
   id="path871"
   style="stroke:#000000;stroke-opacity:1;fill-opacity:1"
   fill="black"
   stroke-width="0"
   d="M335.45,648.39 L335.45,648.4 L335.45,648.41 L335.45,648.42 L335.45,648.43 L335.45,648.44 L335.45,648.45 L335.45,648.46 L335.45,648.46 L335.45,648.47 L335.45,648.48 L335.45,648.49 L335.45,648.5 L335.45,648.5 L335.45,648.51 L335.45,648.52 L335.44,648.53 L335.44,648.53 L335.44,648.54 L335.44,648.55 L335.44,648.56 L335.44,648.57 L335.43,648.58 L335.43,648.59 L335.42,648.6 L335.42,648.6 L335.41,648.61 L335.41,648.61 L335.4,648.62 L335.39,648.62 L335.38,648.63 L335.38,648.63 L335.37,648.63 L335.37,648.63 L335.36,648.63 L335.36,648.64 L335.35,648.64 L335.35,648.64 L335.34,648.64 L335.33,648.64 L335.33,648.64 L335.32,648.64 L335.31,648.64 L335.3,648.64 L335.29,648.64 L335.29,648.64 L335.28,648.64 L335.27,648.64 L335.26,648.64 L335.25,648.64 L335.24,648.64 L335.23,648.64 L335.22,648.64 C334.6,648.01,333.72,648.01,333.4,648.01 V647.7 C333.6,647.7,334.19,647.7,334.71,647.96 V642.81 C334.71,642.45,334.68,642.34,333.78,642.34 H333.46 V642.03 C333.81,642.06,334.68,642.06,335.08,642.06 C335.48,642.06,336.35,642.06,336.7,642.03 V642.34 H336.38 C335.48,642.34,335.45,642.44,335.45,642.81 Z " />
</g>  </g>
</svg>
