<?xml version="1.0" encoding="UTF-8" standalone="no"?>
<svg
   xmlns:ns0="http://www.iki.fi/pav/software/textext/"
   xmlns:dc="http://purl.org/dc/elements/1.1/"
   xmlns:cc="http://creativecommons.org/ns#"
   xmlns:rdf="http://www.w3.org/1999/02/22-rdf-syntax-ns#"
   xmlns:svg="http://www.w3.org/2000/svg"
   xmlns="http://www.w3.org/2000/svg"
   xmlns:sodipodi="http://sodipodi.sourceforge.net/DTD/sodipodi-0.dtd"
   xmlns:inkscape="http://www.inkscape.org/namespaces/inkscape"
   width="210mm"
   height="297mm"
   viewBox="0 0 210 297"
   version="1.1"
   id="svg8"
   inkscape:version="1.0.1 (1.0.1+r74)"
   sodipodi:docname="original.svg">
  <defs
     id="defs2" />
  <sodipodi:namedview
     inkscape:window-maximized="0"
     inkscape:window-y="57"
     inkscape:window-x="54"
     inkscape:window-height="890"
     inkscape:window-width="1683"
     showgrid="false"
     inkscape:document-rotation="0"
     inkscape:current-layer="layer1"
     inkscape:document-units="mm"
     inkscape:cy="559.99854"
     inkscape:cx="400.00159"
     inkscape:zoom="3.6212098"
     inkscape:pageshadow="2"
     inkscape:pageopacity="0.0"
     borderopacity="1.0"
     bordercolor="#666666"
     pagecolor="#ffffff"
     id="base" />
  <metadata
     id="metadata5">
    <rdf:RDF>
      <cc:Work
         rdf:about="">
        <dc:format>image/svg+xml</dc:format>
        <dc:type
           rdf:resource="http://purl.org/dc/dcmitype/StillImage" />
        <dc:title />
      </cc:Work>
    </rdf:RDF>
  </metadata>
  <g
     id="layer1"
     inkscape:groupmode="layer"
     inkscape:label="Ebene 1">
    <g
       transform="matrix(0.352778 0 0 0.352778 55.7102 146.565)"
       ns0:version="1.2.0"
       ns0:texconverter="pdflatex"
       ns0:pdfconverter="inkscape"
       ns0:text="Victor jagt zwölf Boxkämpfer quer über den großen Sylter Deich."
       ns0:preamble="/home/winkler/.config/inkscape/extensions/textext/default_packages.tex"
       ns0:scale="1.0"
       ns0:alignment="middle center"
       ns0:inkscapeversion="1.0"
       ns0:jacobian_sqrt="0.352778"
       id="content">
      <defs
         id="id-a5609729-1c77-4b6c-93d4-b17c3503f329">
        <g
           id="id-719d7e36-b7f8-4e48-973b-85e8e14ef90a">
          <symbol
             overflow="visible"
             id="id-b8abdfd5-dda3-49c4-a695-859a046d559f">
            <path
               style="stroke:none"
               d=""
               id="id-3f75539b-8e33-487d-8e9a-650c3bd6e835" />
          </symbol>
          <symbol
             overflow="visible"
             id="id-34c0dd9e-f6a4-48ec-a945-329ef80b6f2a">
            <path
               style="stroke:none"
               d="M 6.1875,-5.828125 C 6.328125,-6.203125 6.59375,-6.484375 7.28125,-6.5 v -0.3125 c -0.3125,0.03125 -0.71875,0.03125 -0.96875,0.03125 -0.296875,0 -0.875,-0.015625 -1.140625,-0.03125 V -6.5 C 5.6875,-6.484375 5.90625,-6.234375 5.90625,-6 c 0,0.078125 -0.03125,0.140625 -0.046875,0.203125 L 4.03125,-1 2.125,-6.03125 C 2.0625,-6.171875 2.0625,-6.1875 2.0625,-6.203125 2.0625,-6.5 2.625,-6.5 2.875,-6.5 v -0.3125 c -0.359375,0.03125 -1.046875,0.03125 -1.421875,0.03125 -0.46875,0 -0.90625,-0.015625 -1.265625,-0.03125 V -6.5 c 0.65625,0 0.84375,0 0.984375,0.375 L 3.484375,0 c 0.0625,0.1875 0.109375,0.21875 0.25,0.21875 0.15625,0 0.1875,-0.046875 0.234375,-0.1875 z m 0,0"
               id="id-559d85c1-becf-4172-ad9a-86d041049b0a" />
          </symbol>
          <symbol
             overflow="visible"
             id="id-0a35b7b2-357c-4b2b-908c-5762dc9a0983">
            <path
               style="stroke:none"
               d="M 1.765625,-4.40625 0.375,-4.296875 v 0.3125 c 0.640625,0 0.734375,0.0625 0.734375,0.546875 V -0.75 c 0,0.4375 -0.109375,0.4375 -0.78125,0.4375 V 0 C 0.640625,-0.015625 1.1875,-0.03125 1.421875,-0.03125 1.78125,-0.03125 2.125,-0.015625 2.46875,0 v -0.3125 c -0.671875,0 -0.703125,-0.046875 -0.703125,-0.4375 z m 0.03125,-1.734375 c 0,-0.3125 -0.234375,-0.53125 -0.515625,-0.53125 -0.3125,0 -0.53125,0.265625 -0.53125,0.53125 0,0.265625 0.21875,0.53125 0.53125,0.53125 0.28125,0 0.515625,-0.21875 0.515625,-0.53125 z m 0,0"
               id="id-04b9c075-5c4d-4d9b-8001-b9605475c09f" />
          </symbol>
          <symbol
             overflow="visible"
             id="id-56052103-81a8-4b88-8214-d918ba556f41">
            <path
               style="stroke:none"
               d="m 1.171875,-2.171875 c 0,-1.625 0.8125,-2.046875 1.34375,-2.046875 0.09375,0 0.71875,0.015625 1.0625,0.375 -0.40625,0.03125 -0.46875,0.328125 -0.46875,0.453125 0,0.265625 0.1875,0.453125 0.453125,0.453125 0.265625,0 0.46875,-0.15625 0.46875,-0.46875 0,-0.671875 -0.765625,-1.0625 -1.53125,-1.0625 -1.25,0 -2.15625,1.078125 -2.15625,2.3125 0,1.28125 0.984375,2.265625 2.140625,2.265625 1.328125,0 1.65625,-1.203125 1.65625,-1.296875 0,-0.09375 -0.109375,-0.09375 -0.140625,-0.09375 -0.078125,0 -0.109375,0.03125 -0.125,0.09375 -0.28125,0.921875 -0.9375,1.046875 -1.296875,1.046875 -0.53125,0 -1.40625,-0.421875 -1.40625,-2.03125 z m 0,0"
               id="id-4e74c736-e66d-400a-b4e1-a381d61cf50a" />
          </symbol>
          <symbol
             overflow="visible"
             id="id-1d9f3c3c-f74c-4f65-a4cd-670e64b88958">
            <path
               style="stroke:none"
               d="m 1.71875,-3.984375 h 1.4375 v -0.3125 H 1.71875 V -6.125 h -0.25 c 0,0.8125 -0.296875,1.875 -1.28125,1.921875 v 0.21875 h 0.84375 v 2.75 c 0,1.21875 0.9375,1.34375 1.296875,1.34375 0.703125,0 0.984375,-0.703125 0.984375,-1.34375 v -0.5625 h -0.25 V -1.25 c 0,0.734375 -0.296875,1.109375 -0.671875,1.109375 -0.671875,0 -0.671875,-0.90625 -0.671875,-1.078125 z m 0,0"
               id="id-d7509280-476e-4b88-b8c3-09d10c27ce9e" />
          </symbol>
          <symbol
             overflow="visible"
             id="id-52b4aed7-8aa6-4ca8-9c14-68182a17ae80">
            <path
               style="stroke:none"
               d="M 4.6875,-2.140625 C 4.6875,-3.40625 3.703125,-4.46875 2.5,-4.46875 c -1.25,0 -2.21875,1.09375 -2.21875,2.328125 0,1.296875 1.03125,2.25 2.203125,2.25 1.203125,0 2.203125,-0.984375 2.203125,-2.25 z m -2.1875,2 c -0.4375,0 -0.875,-0.203125 -1.140625,-0.671875 -0.25,-0.4375 -0.25,-1.046875 -0.25,-1.40625 0,-0.390625 0,-0.921875 0.234375,-1.359375 C 1.609375,-4.03125 2.078125,-4.25 2.484375,-4.25 c 0.4375,0 0.859375,0.21875 1.125,0.65625 0.265625,0.421875 0.265625,1 0.265625,1.375 0,0.359375 0,0.90625 -0.21875,1.34375 C 3.421875,-0.421875 2.984375,-0.140625 2.5,-0.140625 Z m 0,0"
               id="id-f2881a6e-e401-4a1c-b6a2-9d818059d2e2" />
          </symbol>
          <symbol
             overflow="visible"
             id="id-9ea6d0bc-6474-468c-a7d2-e4d5229e9cda">
            <path
               style="stroke:none"
               d="M 1.671875,-3.3125 V -4.40625 L 0.28125,-4.296875 v 0.3125 c 0.703125,0 0.78125,0.0625 0.78125,0.5625 V -0.75 c 0,0.4375 -0.109375,0.4375 -0.78125,0.4375 V 0 c 0.390625,-0.015625 0.859375,-0.03125 1.140625,-0.03125 0.390625,0 0.859375,0 1.265625,0.03125 V -0.3125 H 2.46875 c -0.734375,0 -0.75,-0.109375 -0.75,-0.46875 V -2.3125 c 0,-0.984375 0.421875,-1.875 1.171875,-1.875 0.0625,0 0.09375,0 0.109375,0.015625 -0.03125,0 -0.234375,0.125 -0.234375,0.390625 0,0.265625 0.21875,0.421875 0.4375,0.421875 0.171875,0 0.421875,-0.125 0.421875,-0.4375 0,-0.3125 -0.3125,-0.609375 -0.734375,-0.609375 -0.734375,0 -1.09375,0.671875 -1.21875,1.09375 z m 0,0"
               id="id-046953cb-8d3b-433d-b35b-457ae9aa1b34" />
          </symbol>
          <symbol
             overflow="visible"
             id="id-3d93c7e2-8477-4d19-a293-9ec5111948d8">
            <path
               style="stroke:none"
               d="m 2.09375,-4.40625 -1.515625,0.109375 v 0.3125 c 0.765625,0 0.859375,0.0625 0.859375,0.5625 v 3.9375 c 0,0.453125 -0.09375,1.3125 -0.734375,1.3125 -0.046875,0 -0.28125,0 -0.53125,-0.140625 C 0.3125,1.65625 0.515625,1.515625 0.515625,1.25 0.515625,0.984375 0.34375,0.78125 0.0625,0.78125 c -0.28125,0 -0.46875,0.203125 -0.46875,0.46875 0,0.515625 0.5625,0.796875 1.140625,0.796875 C 1.46875,2.046875 2.09375,1.40625 2.09375,0.5 Z m 0,-1.734375 c 0,-0.296875 -0.234375,-0.53125 -0.53125,-0.53125 -0.28125,0 -0.53125,0.234375 -0.53125,0.53125 0,0.28125 0.25,0.53125 0.53125,0.53125 0.296875,0 0.53125,-0.25 0.53125,-0.53125 z m 0,0"
               id="id-7983bb44-93c9-4ed6-9cc0-709ac762e365" />
          </symbol>
          <symbol
             overflow="visible"
             id="id-69406d22-5b23-46c6-ae44-dcdfd192282a">
            <path
               style="stroke:none"
               d="m 3.3125,-0.75 c 0.046875,0.390625 0.3125,0.8125 0.78125,0.8125 0.21875,0 0.828125,-0.140625 0.828125,-0.953125 v -0.5625 h -0.25 v 0.5625 c 0,0.578125 -0.25,0.640625 -0.359375,0.640625 -0.328125,0 -0.375,-0.453125 -0.375,-0.5 v -1.984375 c 0,-0.421875 0,-0.8125 -0.359375,-1.1875 C 3.1875,-4.3125 2.6875,-4.46875 2.21875,-4.46875 c -0.828125,0 -1.515625,0.46875 -1.515625,1.125 0,0.296875 0.203125,0.46875 0.46875,0.46875 0.28125,0 0.453125,-0.203125 0.453125,-0.453125 0,-0.125 -0.046875,-0.453125 -0.515625,-0.453125 C 1.390625,-4.140625 1.875,-4.25 2.1875,-4.25 c 0.5,0 1.0625,0.390625 1.0625,1.28125 v 0.359375 c -0.515625,0.03125 -1.203125,0.0625 -1.828125,0.359375 -0.75,0.34375 -1,0.859375 -1,1.296875 0,0.8125 0.96875,1.0625 1.59375,1.0625 0.65625,0 1.109375,-0.40625 1.296875,-0.859375 z M 3.25,-2.390625 v 1 c 0,0.9375 -0.71875,1.28125 -1.171875,1.28125 -0.484375,0 -0.890625,-0.34375 -0.890625,-0.84375 0,-0.546875 0.421875,-1.375 2.0625,-1.4375 z m 0,0"
               id="id-15575580-e124-4542-a1d3-a7137dbf6966" />
          </symbol>
          <symbol
             overflow="visible"
             id="id-059e4969-b4e2-443e-b44b-4f9c52ea9d9e">
            <path
               style="stroke:none"
               d="m 2.21875,-1.71875 c -0.875,0 -0.875,-1 -0.875,-1.21875 0,-0.265625 0.015625,-0.59375 0.15625,-0.84375 0.078125,-0.109375 0.3125,-0.390625 0.71875,-0.390625 0.859375,0 0.859375,0.984375 0.859375,1.21875 0,0.265625 0,0.59375 -0.15625,0.84375 C 2.84375,-2 2.609375,-1.71875 2.21875,-1.71875 Z M 1.0625,-1.328125 c 0,-0.03125 0,-0.265625 0.15625,-0.46875 0.390625,0.28125 0.8125,0.3125 1,0.3125 0.921875,0 1.609375,-0.6875 1.609375,-1.453125 0,-0.375 -0.15625,-0.734375 -0.40625,-0.96875 C 3.78125,-4.25 4.140625,-4.296875 4.3125,-4.296875 c 0.03125,0 0.078125,0 0.109375,0.015625 C 4.3125,-4.25 4.25,-4.140625 4.25,-4.015625 c 0,0.171875 0.140625,0.28125 0.296875,0.28125 0.09375,0 0.28125,-0.0625 0.28125,-0.296875 0,-0.171875 -0.109375,-0.484375 -0.5,-0.484375 -0.203125,0 -0.640625,0.0625 -1.0625,0.46875 C 2.84375,-4.375 2.4375,-4.40625 2.21875,-4.40625 c -0.9375,0 -1.625,0.6875 -1.625,1.453125 0,0.4375 0.21875,0.8125 0.46875,1.03125 -0.125,0.140625 -0.3125,0.46875 -0.3125,0.828125 0,0.3125 0.140625,0.6875 0.453125,0.890625 -0.609375,0.15625 -0.921875,0.59375 -0.921875,0.984375 0,0.71875 0.984375,1.265625 2.203125,1.265625 1.171875,0 2.203125,-0.5 2.203125,-1.28125 0,-0.34375 -0.125,-0.859375 -0.640625,-1.140625 -0.53125,-0.265625 -1.109375,-0.265625 -1.71875,-0.265625 -0.25,0 -0.671875,0 -0.75,-0.015625 C 1.265625,-0.703125 1.0625,-1 1.0625,-1.328125 Z M 2.5,1.828125 c -1.015625,0 -1.703125,-0.515625 -1.703125,-1.046875 0,-0.453125 0.375,-0.828125 0.8125,-0.84375 h 0.59375 c 0.859375,0 1.96875,0 1.96875,0.84375 0,0.546875 -0.703125,1.046875 -1.671875,1.046875 z m 0,0"
               id="id-0c592d2b-0b9d-4d93-9e4b-e5e7d8782d9f" />
          </symbol>
          <symbol
             overflow="visible"
             id="id-9020e6cc-2e49-4bd2-8da8-aef67f8b0815">
            <path
               style="stroke:none"
               d="m 3.890625,-4 c 0.09375,-0.109375 0.09375,-0.125 0.09375,-0.171875 0,-0.125 -0.09375,-0.125 -0.265625,-0.125 H 0.53125 L 0.421875,-2.6875 h 0.25 c 0.0625,-1.015625 0.25,-1.390625 1.34375,-1.390625 H 3.15625 L 0.375,-0.3125 C 0.28125,-0.203125 0.28125,-0.1875 0.28125,-0.140625 0.28125,0 0.34375,0 0.53125,0 H 3.828125 L 4,-1.859375 H 3.75 C 3.65625,-0.6875 3.453125,-0.25 2.296875,-0.25 h -1.1875 z m 0,0"
               id="id-3ebeb0e1-87a9-4d05-a6e7-25556dd14eb5" />
          </symbol>
          <symbol
             overflow="visible"
             id="id-521ffb2f-d917-4404-bad8-7ba66d636891">
            <path
               style="stroke:none"
               d="m 6.171875,-3.34375 c 0.171875,-0.5 0.484375,-0.640625 0.84375,-0.640625 v -0.3125 C 6.78125,-4.28125 6.5,-4.265625 6.28125,-4.265625 c -0.296875,0 -0.734375,-0.015625 -0.921875,-0.03125 v 0.3125 c 0.359375,0 0.578125,0.1875 0.578125,0.46875 0,0.0625 0,0.09375 -0.0625,0.21875 L 4.96875,-0.75 3.984375,-3.53125 C 3.953125,-3.65625 3.9375,-3.671875 3.9375,-3.71875 c 0,-0.265625 0.390625,-0.265625 0.59375,-0.265625 v -0.3125 c -0.296875,0.015625 -0.796875,0.03125 -1.046875,0.03125 -0.296875,0 -0.578125,-0.015625 -0.875,-0.03125 v 0.3125 c 0.359375,0 0.515625,0.015625 0.625,0.140625 0.046875,0.0625 0.15625,0.359375 0.21875,0.546875 L 2.609375,-0.875 1.65625,-3.53125 C 1.609375,-3.65625 1.609375,-3.671875 1.609375,-3.71875 1.609375,-3.984375 2,-3.984375 2.1875,-3.984375 v -0.3125 c -0.296875,0.015625 -0.859375,0.03125 -1.078125,0.03125 -0.046875,0 -0.578125,-0.015625 -0.9375,-0.03125 v 0.3125 c 0.5,0 0.625,0.03125 0.75,0.34375 l 1.25,3.53125 C 2.21875,0.03125 2.25,0.109375 2.375,0.109375 c 0.140625,0 0.15625,-0.0625 0.203125,-0.203125 l 1.015625,-2.8125 1.015625,2.828125 c 0.03125,0.109375 0.0625,0.1875 0.203125,0.1875 0.125,0 0.15625,-0.09375 0.1875,-0.1875 z m 0,0"
               id="id-f7caaa56-f883-4a3a-a1cf-5c39c7979eed" />
          </symbol>
          <symbol
             overflow="visible"
             id="id-74d71904-92cf-4fd2-b8c0-def73822dfcb">
            <path
               style="stroke:none"
               d="m 2.03125,-6.171875 c 0,-0.234375 -0.203125,-0.5 -0.5,-0.5 -0.28125,0 -0.5,0.21875 -0.5,0.5 0,0.28125 0.21875,0.5 0.5,0.5 0.296875,0 0.5,-0.265625 0.5,-0.5 z m 1.921875,0 c 0,-0.28125 -0.21875,-0.5 -0.5,-0.5 -0.296875,0 -0.5,0.265625 -0.5,0.5 0,0.234375 0.203125,0.5 0.5,0.5 0.28125,0 0.5,-0.21875 0.5,-0.5 z m 0,0"
               id="id-abaef49d-77a5-4f07-9227-b9886b294eb8" />
          </symbol>
          <symbol
             overflow="visible"
             id="id-726a6d9a-9e06-42f8-81d2-274a940d502d">
            <path
               style="stroke:none"
               d="M 1.765625,-6.921875 0.328125,-6.8125 V -6.5 c 0.703125,0 0.78125,0.0625 0.78125,0.5625 V -0.75 c 0,0.4375 -0.109375,0.4375 -0.78125,0.4375 V 0 C 0.65625,-0.015625 1.1875,-0.03125 1.4375,-0.03125 c 0.25,0 0.734375,0.015625 1.109375,0.03125 v -0.3125 c -0.671875,0 -0.78125,0 -0.78125,-0.4375 z m 0,0"
               id="id-c0c950f7-0702-4a68-8e50-757f3337f530" />
          </symbol>
          <symbol
             overflow="visible"
             id="id-6120a58d-8c75-442b-8f56-8fe578f478f4">
            <path
               style="stroke:none"
               d="m 1.75,-4.296875 v -1.15625 c 0,-0.875 0.46875,-1.359375 0.90625,-1.359375 0.03125,0 0.1875,0 0.328125,0.078125 C 2.875,-6.703125 2.6875,-6.5625 2.6875,-6.3125 c 0,0.21875 0.15625,0.421875 0.4375,0.421875 0.28125,0 0.4375,-0.203125 0.4375,-0.4375 0,-0.375 -0.375,-0.703125 -0.90625,-0.703125 -0.6875,0 -1.546875,0.53125 -1.546875,1.59375 v 1.140625 h -0.78125 v 0.3125 h 0.78125 V -0.75 C 1.109375,-0.3125 1,-0.3125 0.34375,-0.3125 V 0 c 0.390625,-0.015625 0.859375,-0.03125 1.125,-0.03125 0.40625,0 0.875,0 1.265625,0.03125 V -0.3125 H 2.53125 c -0.734375,0 -0.75,-0.109375 -0.75,-0.46875 v -3.203125 h 1.125 v -0.3125 z m 0,0"
               id="id-bd9b47dc-7a7b-4536-a054-53c34a9fcb06" />
          </symbol>
          <symbol
             overflow="visible"
             id="id-4299d88e-6980-4073-bd16-ccb2d9aa28df">
            <path
               style="stroke:none"
               d="m 2.21875,-3.65625 v -2.4375 C 2.21875,-6.4375 2.234375,-6.5 2.703125,-6.5 H 3.9375 c 0.96875,0 1.3125,0.84375 1.3125,1.375 0,0.640625 -0.484375,1.46875 -1.59375,1.46875 z M 4.5625,-3.5625 C 5.53125,-3.75 6.21875,-4.390625 6.21875,-5.125 6.21875,-5.984375 5.296875,-6.8125 4,-6.8125 H 0.359375 V -6.5 H 0.59375 c 0.765625,0 0.796875,0.109375 0.796875,0.46875 v 5.25 c 0,0.359375 -0.03125,0.46875 -0.796875,0.46875 H 0.359375 V 0 h 3.90625 c 1.328125,0 2.21875,-0.890625 2.21875,-1.828125 0,-0.859375 -0.8125,-1.609375 -1.921875,-1.734375 z m -0.609375,3.25 h -1.25 c -0.46875,0 -0.484375,-0.0625 -0.484375,-0.390625 v -2.71875 h 1.875 C 5.078125,-3.421875 5.5,-2.5 5.5,-1.828125 5.5,-1.125 4.96875,-0.3125 3.953125,-0.3125 Z m 0,0"
               id="id-b89ec990-7c12-4f19-a111-ec481f6c9645" />
          </symbol>
          <symbol
             overflow="visible"
             id="id-edcd6bd4-c2a5-4650-a002-f5818254b1af">
            <path
               style="stroke:none"
               d="M 2.859375,-2.34375 C 3.15625,-2.71875 3.53125,-3.203125 3.78125,-3.46875 4.09375,-3.828125 4.5,-3.984375 4.96875,-3.984375 v -0.3125 c -0.265625,0.015625 -0.5625,0.03125 -0.828125,0.03125 -0.296875,0 -0.828125,-0.015625 -0.953125,-0.03125 v 0.3125 c 0.21875,0.015625 0.296875,0.140625 0.296875,0.3125 0,0.15625 -0.109375,0.28125 -0.15625,0.34375 L 2.71875,-2.546875 1.9375,-3.5625 C 1.84375,-3.65625 1.84375,-3.671875 1.84375,-3.734375 c 0,-0.15625 0.15625,-0.25 0.34375,-0.25 v -0.3125 c -0.25,0.015625 -0.90625,0.03125 -1.078125,0.03125 -0.203125,0 -0.671875,-0.015625 -0.9375,-0.03125 v 0.3125 c 0.703125,0 0.703125,0 1.171875,0.609375 l 0.984375,1.28125 -0.9375,1.1875 C 0.921875,-0.328125 0.328125,-0.3125 0.125,-0.3125 V 0 c 0.25,-0.015625 0.5625,-0.03125 0.828125,-0.03125 0.28125,0 0.703125,0.015625 0.9375,0.03125 v -0.3125 c -0.21875,-0.03125 -0.28125,-0.15625 -0.28125,-0.3125 0,-0.21875 0.28125,-0.546875 0.890625,-1.265625 l 0.765625,1 C 3.34375,-0.78125 3.46875,-0.625 3.46875,-0.5625 c 0,0.09375 -0.09375,0.25 -0.359375,0.25 V 0 C 3.40625,-0.015625 3.96875,-0.03125 4.1875,-0.03125 c 0.265625,0 0.65625,0.015625 0.953125,0.03125 v -0.3125 c -0.53125,0 -0.71875,-0.015625 -0.9375,-0.3125 z m 0,0"
               id="id-e57084ae-202a-47c5-9712-4a099f03606d" />
          </symbol>
          <symbol
             overflow="visible"
             id="id-864f2c6e-395e-4ea4-aa60-6fd4cd256db2">
            <path
               style="stroke:none"
               d="m 1.0625,-0.75 c 0,0.4375 -0.109375,0.4375 -0.78125,0.4375 V 0 c 0.328125,-0.015625 0.796875,-0.03125 1.078125,-0.03125 0.3125,0 0.703125,0.015625 1.109375,0.03125 v -0.3125 c -0.671875,0 -0.78125,0 -0.78125,-0.4375 v -1.03125 l 0.640625,-0.546875 c 0.765625,1.046875 1.1875,1.609375 1.1875,1.796875 0,0.1875 -0.171875,0.21875 -0.359375,0.21875 V 0 c 0.265625,-0.015625 0.859375,-0.03125 1.078125,-0.03125 0.28125,0 0.578125,0.015625 0.859375,0.03125 v -0.3125 c -0.375,0 -0.59375,0 -0.96875,-0.53125 L 2.859375,-2.625 c -0.015625,-0.015625 -0.0625,-0.078125 -0.0625,-0.109375 0,-0.03125 0.71875,-0.640625 0.8125,-0.71875 0.625,-0.5 1.046875,-0.53125 1.25,-0.53125 v -0.3125 c -0.28125,0.03125 -0.40625,0.03125 -0.6875,0.03125 -0.359375,0 -0.984375,-0.015625 -1.125,-0.03125 v 0.3125 c 0.1875,0 0.296875,0.109375 0.296875,0.25 0,0.203125 -0.140625,0.3125 -0.21875,0.390625 l -1.40625,1.203125 v -4.78125 L 0.28125,-6.8125 V -6.5 c 0.703125,0 0.78125,0.0625 0.78125,0.5625 z m 0,0"
               id="id-aacfc795-b1e8-492e-9dcb-4ee480e782b2" />
          </symbol>
          <symbol
             overflow="visible"
             id="id-f4dbb6be-19d9-48df-96e7-5df74ad47f19">
            <path
               style="stroke:none"
               d="M 1.09375,-3.421875 V -0.75 c 0,0.4375 -0.109375,0.4375 -0.78125,0.4375 V 0 c 0.359375,-0.015625 0.859375,-0.03125 1.140625,-0.03125 0.25,0 0.765625,0.015625 1.109375,0.03125 v -0.3125 c -0.671875,0 -0.78125,0 -0.78125,-0.4375 V -2.59375 C 1.78125,-3.625 2.5,-4.1875 3.125,-4.1875 c 0.640625,0 0.75,0.53125 0.75,1.109375 V -0.75 c 0,0.4375 -0.109375,0.4375 -0.78125,0.4375 V 0 c 0.34375,-0.015625 0.859375,-0.03125 1.125,-0.03125 0.25,0 0.78125,0.015625 1.109375,0.03125 v -0.3125 c -0.65625,0 -0.765625,0 -0.765625,-0.4375 v -1.84375 c 0,-1.03125 0.703125,-1.59375 1.34375,-1.59375 0.625,0 0.734375,0.53125 0.734375,1.109375 V -0.75 c 0,0.4375 -0.109375,0.4375 -0.78125,0.4375 V 0 c 0.34375,-0.015625 0.859375,-0.03125 1.125,-0.03125 0.265625,0 0.78125,0.015625 1.125,0.03125 v -0.3125 c -0.515625,0 -0.765625,0 -0.78125,-0.296875 v -1.90625 c 0,-0.859375 0,-1.15625 -0.3125,-1.515625 -0.140625,-0.171875 -0.46875,-0.375 -1.046875,-0.375 -0.828125,0 -1.28125,0.59375 -1.4375,0.984375 C 4.390625,-4.296875 3.65625,-4.40625 3.203125,-4.40625 2.46875,-4.40625 2,-3.984375 1.71875,-3.359375 V -4.40625 L 0.3125,-4.296875 v 0.3125 c 0.703125,0 0.78125,0.0625 0.78125,0.5625 z m 0,0"
               id="id-ccd50fb0-9403-4ab5-83b7-a9b4858e02ed" />
          </symbol>
          <symbol
             overflow="visible"
             id="id-a6c47006-6f3c-4203-aac0-0c6eb90755c0">
            <path
               style="stroke:none"
               d="m 1.71875,-3.75 v -0.65625 l -1.4375,0.109375 v 0.3125 c 0.703125,0 0.78125,0.0625 0.78125,0.5 v 4.65625 C 1.0625,1.625 0.953125,1.625 0.28125,1.625 V 1.9375 C 0.625,1.921875 1.140625,1.90625 1.390625,1.90625 c 0.28125,0 0.78125,0.015625 1.125,0.03125 V 1.625 C 1.859375,1.625 1.75,1.625 1.75,1.171875 V -0.59375 c 0.046875,0.171875 0.46875,0.703125 1.21875,0.703125 1.1875,0 2.21875,-0.984375 2.21875,-2.265625 0,-1.265625 -0.953125,-2.25 -2.078125,-2.25 -0.78125,0 -1.203125,0.4375 -1.390625,0.65625 z M 1.75,-1.140625 v -2.21875 C 2.03125,-3.875 2.515625,-4.15625 3.03125,-4.15625 c 0.734375,0 1.328125,0.875 1.328125,2 0,1.203125 -0.6875,2.046875 -1.421875,2.046875 -0.40625,0 -0.78125,-0.203125 -1.046875,-0.609375 C 1.75,-0.921875 1.75,-0.9375 1.75,-1.140625 Z m 0,0"
               id="id-96cd09f7-17a5-49d1-8f85-824ebdeafe44" />
          </symbol>
          <symbol
             overflow="visible"
             id="id-8fd682b5-983b-49dc-834e-e75c9b15c52c">
            <path
               style="stroke:none"
               d="M 1.109375,-2.515625 C 1.171875,-4 2.015625,-4.25 2.359375,-4.25 c 1.015625,0 1.125,1.34375 1.125,1.734375 z m 0,0.21875 h 2.78125 c 0.21875,0 0.25,0 0.25,-0.21875 0,-0.984375 -0.546875,-1.953125 -1.78125,-1.953125 -1.15625,0 -2.078125,1.03125 -2.078125,2.28125 0,1.328125 1.046875,2.296875 2.1875,2.296875 C 3.6875,0.109375 4.140625,-1 4.140625,-1.1875 4.140625,-1.28125 4.0625,-1.3125 4,-1.3125 c -0.078125,0 -0.109375,0.0625 -0.125,0.140625 -0.34375,1.03125 -1.25,1.03125 -1.34375,1.03125 -0.5,0 -0.890625,-0.296875 -1.125,-0.671875 -0.296875,-0.46875 -0.296875,-1.125 -0.296875,-1.484375 z m 0,0"
               id="id-943bd2f9-851e-4c7a-80bb-1e77b7e4d71d" />
          </symbol>
          <symbol
             overflow="visible"
             id="id-81d8108a-f70d-4654-bb8b-0482e2ad641b">
            <path
               style="stroke:none"
               d="m 3.78125,-0.609375 v 1.78125 C 3.78125,1.625 3.671875,1.625 3.015625,1.625 V 1.9375 C 3.34375,1.921875 3.875,1.90625 4.125,1.90625 c 0.265625,0 0.78125,0.015625 1.125,0.03125 V 1.625 c -0.671875,0 -0.78125,0 -0.78125,-0.453125 V -4.40625 H 4.25 L 3.875,-3.5 C 3.75,-3.78125 3.34375,-4.40625 2.546875,-4.40625 c -1.15625,0 -2.203125,0.96875 -2.203125,2.265625 0,1.25 0.96875,2.25 2.125,2.25 0.6875,0 1.09375,-0.421875 1.3125,-0.71875 z m 0.03125,-2.15625 v 1.40625 C 3.8125,-1.03125 3.640625,-0.75 3.421875,-0.515625 3.296875,-0.375 2.96875,-0.109375 2.5,-0.109375 1.78125,-0.109375 1.171875,-1 1.171875,-2.140625 c 0,-1.1875 0.6875,-2.015625 1.4375,-2.015625 0.796875,0 1.203125,0.859375 1.203125,1.390625 z m 0,0"
               id="id-a2fb8d27-be0e-4b0d-bf65-6be2d02f9c01" />
          </symbol>
          <symbol
             overflow="visible"
             id="id-32ef035a-60c0-4b9f-8c53-3b6dd2e6dfa1">
            <path
               style="stroke:none"
               d="M 3.890625,-0.78125 V 0.109375 L 5.328125,0 V -0.3125 C 4.640625,-0.3125 4.5625,-0.375 4.5625,-0.875 v -3.53125 l -1.46875,0.109375 v 0.3125 c 0.6875,0 0.78125,0.0625 0.78125,0.5625 v 1.765625 c 0,0.875 -0.484375,1.546875 -1.21875,1.546875 -0.828125,0 -0.875,-0.46875 -0.875,-0.984375 v -3.3125 L 0.3125,-4.296875 v 0.3125 c 0.78125,0 0.78125,0.03125 0.78125,0.90625 v 1.5 c 0,0.78125 0,1.6875 1.515625,1.6875 0.5625,0 1,-0.28125 1.28125,-0.890625 z m 0,0"
               id="id-d44df29b-3f8a-4feb-90d0-73b825853c03" />
          </symbol>
          <symbol
             overflow="visible"
             id="id-fcc29adb-e66d-49ec-9947-23dad364f65c">
            <path
               style="stroke:none"
               d="m 1.71875,-3.765625 v -3.15625 L 0.28125,-6.8125 V -6.5 c 0.703125,0 0.78125,0.0625 0.78125,0.5625 V 0 h 0.25 c 0,-0.015625 0.078125,-0.15625 0.359375,-0.625 0.140625,0.234375 0.5625,0.734375 1.296875,0.734375 1.1875,0 2.21875,-0.984375 2.21875,-2.265625 0,-1.265625 -0.96875,-2.25 -2.109375,-2.25 -0.78125,0 -1.203125,0.46875 -1.359375,0.640625 z m 0.03125,2.625 V -3.1875 c 0,-0.1875 0,-0.203125 0.109375,-0.359375 C 2.25,-4.109375 2.796875,-4.1875 3.03125,-4.1875 c 0.453125,0 0.8125,0.265625 1.046875,0.640625 0.265625,0.40625 0.28125,0.96875 0.28125,1.390625 0,0.359375 -0.015625,0.953125 -0.296875,1.40625 -0.21875,0.3125 -0.59375,0.640625 -1.125,0.640625 -0.453125,0 -0.8125,-0.234375 -1.046875,-0.609375 C 1.75,-0.921875 1.75,-0.953125 1.75,-1.140625 Z m 0,0"
               id="id-b57ea6cd-371e-4700-9f1e-563c9f1d3319" />
          </symbol>
          <symbol
             overflow="visible"
             id="id-f1fbe27b-9cc2-48b4-aef2-1542ad03794b">
            <path
               style="stroke:none"
               d="m 3.78125,-0.546875 v 0.65625 L 5.25,0 v -0.3125 c -0.6875,0 -0.78125,-0.0625 -0.78125,-0.5625 V -6.921875 L 3.046875,-6.8125 V -6.5 c 0.6875,0 0.765625,0.0625 0.765625,0.5625 v 2.15625 c -0.28125,-0.359375 -0.71875,-0.625 -1.25,-0.625 -1.171875,0 -2.21875,0.984375 -2.21875,2.265625 0,1.265625 0.96875,2.25 2.109375,2.25 0.640625,0 1.078125,-0.34375 1.328125,-0.65625 z m 0,-2.671875 v 2.046875 c 0,0.171875 0,0.1875 -0.109375,0.359375 C 3.375,-0.328125 2.9375,-0.109375 2.5,-0.109375 2.046875,-0.109375 1.6875,-0.375 1.453125,-0.75 1.203125,-1.15625 1.171875,-1.71875 1.171875,-2.140625 1.171875,-2.5 1.1875,-3.09375 1.46875,-3.546875 1.6875,-3.859375 2.0625,-4.1875 2.609375,-4.1875 c 0.34375,0 0.765625,0.15625 1.0625,0.59375 0.109375,0.171875 0.109375,0.1875 0.109375,0.375 z m 0,0"
               id="id-bc983087-5b8c-4188-9641-d56db89fc30d" />
          </symbol>
          <symbol
             overflow="visible"
             id="id-7f1d2281-c08a-433e-8de5-df0775c1c438">
            <path
               style="stroke:none"
               d="M 1.09375,-3.421875 V -0.75 c 0,0.4375 -0.109375,0.4375 -0.78125,0.4375 V 0 c 0.359375,-0.015625 0.859375,-0.03125 1.140625,-0.03125 0.25,0 0.765625,0.015625 1.109375,0.03125 v -0.3125 c -0.671875,0 -0.78125,0 -0.78125,-0.4375 V -2.59375 C 1.78125,-3.625 2.5,-4.1875 3.125,-4.1875 c 0.640625,0 0.75,0.53125 0.75,1.109375 V -0.75 c 0,0.4375 -0.109375,0.4375 -0.78125,0.4375 V 0 c 0.34375,-0.015625 0.859375,-0.03125 1.125,-0.03125 0.25,0 0.78125,0.015625 1.109375,0.03125 v -0.3125 c -0.515625,0 -0.765625,0 -0.765625,-0.296875 v -1.90625 c 0,-0.859375 0,-1.15625 -0.3125,-1.515625 -0.140625,-0.171875 -0.46875,-0.375 -1.046875,-0.375 C 2.46875,-4.40625 2,-3.984375 1.71875,-3.359375 V -4.40625 L 0.3125,-4.296875 v 0.3125 c 0.703125,0 0.78125,0.0625 0.78125,0.5625 z m 0,0"
               id="id-ee069a1e-c55a-4bc7-8a8e-af87bc85df6e" />
          </symbol>
          <symbol
             overflow="visible"
             id="id-4ac76169-f77d-4b00-9a9a-745396c1e439">
            <path
               style="stroke:none"
               d="m 3.09375,-4.171875 c 0.890625,-0.25 1.328125,-0.859375 1.328125,-1.4375 0,-0.75 -0.71875,-1.421875 -1.703125,-1.421875 -0.78125,0 -1.65625,0.484375 -1.65625,1.484375 v 1.25 H 0.28125 v 0.3125 H 1.0625 V -0.75 c 0,0.4375 -0.109375,0.4375 -0.78125,0.4375 V 0 C 0.46875,-0.015625 1.125,-0.03125 1.25,-0.03125 c 0.109375,0 0.28125,0 0.46875,0.03125 v -5.5625 c 0,-1.140625 0.796875,-1.25 1,-1.25 0.40625,0 0.953125,0.3125 0.953125,1.1875 0,0.640625 -0.359375,1.25 -1.234375,1.328125 -0.09375,0.015625 -0.171875,0.015625 -0.171875,0.109375 0,0.015625 0,0.09375 0.09375,0.109375 1.1875,0.09375 1.59375,1.3125 1.59375,2.359375 0,1.28125 -0.65625,1.609375 -1.03125,1.609375 -0.09375,0 -0.3125,-0.015625 -0.5,-0.1875 C 2.53125,-0.3125 2.71875,-0.421875 2.71875,-0.65625 2.71875,-0.875 2.5625,-1.015625 2.359375,-1.015625 2.1875,-1.015625 2,-0.890625 2,-0.640625 c 0,0.390625 0.375,0.75 0.953125,0.75 0.859375,0 1.734375,-0.734375 1.734375,-1.84375 0,-0.71875 -0.3125,-1.921875 -1.59375,-2.4375 z m 0,0"
               id="id-1a5b5907-0a98-40a6-b784-24e95c60e394" />
          </symbol>
          <symbol
             overflow="visible"
             id="id-b111ed5d-9b3c-48f2-a11a-3d0f0bd915ac">
            <path
               style="stroke:none"
               d="m 3.484375,-3.875 -1.28125,-0.296875 c -0.625,-0.15625 -1,-0.6875 -1,-1.265625 0,-0.703125 0.53125,-1.3125 1.3125,-1.3125 1.65625,0 1.875,1.640625 1.9375,2.078125 0.015625,0.0625 0.015625,0.125 0.125,0.125 0.125,0 0.125,-0.046875 0.125,-0.234375 v -2 c 0,-0.171875 0,-0.25 -0.109375,-0.25 -0.0625,0 -0.078125,0.015625 -0.140625,0.140625 l -0.359375,0.5625 C 3.796875,-6.625 3.390625,-7.03125 2.5,-7.03125 c -1.109375,0 -1.9375,0.875 -1.9375,1.9375 0,0.828125 0.53125,1.5625 1.296875,1.828125 0.109375,0.03125 0.625,0.15625 1.328125,0.328125 0.265625,0.0625 0.5625,0.140625 0.84375,0.5 0.203125,0.265625 0.3125,0.59375 0.3125,0.921875 0,0.703125 -0.5,1.421875 -1.34375,1.421875 -0.28125,0 -1.046875,-0.046875 -1.578125,-0.53125 C 0.84375,-1.171875 0.8125,-1.796875 0.8125,-2.15625 0.796875,-2.265625 0.71875,-2.265625 0.6875,-2.265625 c -0.125,0 -0.125,0.078125 -0.125,0.25 v 2 c 0,0.171875 0,0.234375 0.109375,0.234375 0.0625,0 0.078125,-0.015625 0.140625,-0.125 0,-0.015625 0.03125,-0.046875 0.359375,-0.578125 0.3125,0.34375 0.953125,0.703125 1.84375,0.703125 1.15625,0 1.953125,-0.96875 1.953125,-2.078125 0,-0.984375 -0.65625,-1.8125 -1.484375,-2.015625 z m 0,0"
               id="id-0c48fb10-0e91-45eb-a2b9-75721c674804" />
          </symbol>
          <symbol
             overflow="visible"
             id="id-c6cd5284-11c7-4f2b-869c-90d76cd76793">
            <path
               style="stroke:none"
               d="m 4.140625,-3.34375 c 0.25,-0.640625 0.765625,-0.640625 0.921875,-0.640625 v -0.3125 c -0.234375,0.015625 -0.515625,0.03125 -0.75,0.03125 -0.171875,0 -0.640625,-0.015625 -0.859375,-0.03125 v 0.3125 c 0.3125,0 0.46875,0.171875 0.46875,0.421875 0,0.109375 -0.015625,0.125 -0.0625,0.25 L 2.84375,-0.875 1.75,-3.546875 C 1.703125,-3.65625 1.6875,-3.6875 1.6875,-3.734375 c 0,-0.25 0.359375,-0.25 0.5625,-0.25 v -0.3125 c -0.265625,0.015625 -0.921875,0.03125 -1.09375,0.03125 -0.265625,0 -0.671875,-0.015625 -0.96875,-0.03125 v 0.3125 c 0.484375,0 0.671875,0 0.8125,0.34375 L 2.5,0 C 2.4375,0.125 2.296875,0.453125 2.25,0.59375 2.03125,1.140625 1.75,1.828125 1.109375,1.828125 c -0.046875,0 -0.28125,0 -0.46875,-0.1875 0.3125,-0.03125 0.390625,-0.25 0.390625,-0.421875 0,-0.25 -0.1875,-0.40625 -0.421875,-0.40625 -0.203125,0 -0.421875,0.125 -0.421875,0.421875 0,0.453125 0.421875,0.8125 0.921875,0.8125 0.625,0 1.03125,-0.578125 1.265625,-1.140625 z m 0,0"
               id="id-77000020-697f-4020-bba9-bf08d6e38947" />
          </symbol>
          <symbol
             overflow="visible"
             id="id-5743ebb8-2aa1-4418-89d2-0c5c7ba8a454">
            <path
               style="stroke:none"
               d="M 0.34375,-6.8125 V -6.5 h 0.25 c 0.765625,0 0.78125,0.109375 0.78125,0.46875 v 5.25 c 0,0.359375 -0.015625,0.46875 -0.78125,0.46875 h -0.25 V 0 H 4 C 5.671875,0 7.046875,-1.46875 7.046875,-3.34375 7.046875,-5.25 5.703125,-6.8125 4,-6.8125 Z m 2.375,6.5 C 2.25,-0.3125 2.234375,-0.375 2.234375,-0.703125 V -6.09375 C 2.234375,-6.4375 2.25,-6.5 2.71875,-6.5 h 1 c 0.625,0 1.3125,0.21875 1.8125,0.921875 0.4375,0.59375 0.515625,1.453125 0.515625,2.234375 0,1.09375 -0.1875,1.703125 -0.546875,2.1875 -0.203125,0.265625 -0.765625,0.84375 -1.765625,0.84375 z m 0,0"
               id="id-99adbe59-1276-4f4d-bee3-124a37569d1e" />
          </symbol>
          <symbol
             overflow="visible"
             id="id-92b204a4-2ba7-49a6-9286-22c1c23399c3">
            <path
               style="stroke:none"
               d="m 1.09375,-0.75 c 0,0.4375 -0.109375,0.4375 -0.78125,0.4375 V 0 c 0.359375,-0.015625 0.859375,-0.03125 1.140625,-0.03125 0.25,0 0.765625,0.015625 1.109375,0.03125 v -0.3125 c -0.671875,0 -0.78125,0 -0.78125,-0.4375 V -2.59375 C 1.78125,-3.625 2.5,-4.1875 3.125,-4.1875 c 0.640625,0 0.75,0.53125 0.75,1.109375 V -0.75 c 0,0.4375 -0.109375,0.4375 -0.78125,0.4375 V 0 c 0.34375,-0.015625 0.859375,-0.03125 1.125,-0.03125 0.25,0 0.78125,0.015625 1.109375,0.03125 v -0.3125 c -0.515625,0 -0.765625,0 -0.765625,-0.296875 v -1.90625 c 0,-0.859375 0,-1.15625 -0.3125,-1.515625 -0.140625,-0.171875 -0.46875,-0.375 -1.046875,-0.375 -0.84375,0 -1.28125,0.59375 -1.453125,0.984375 v -3.5 L 0.3125,-6.8125 V -6.5 c 0.703125,0 0.78125,0.0625 0.78125,0.5625 z m 0,0"
               id="id-cde99015-4b95-4ddf-bf1d-21a40a735430" />
          </symbol>
          <symbol
             overflow="visible"
             id="id-366ecbe3-6b3f-4b1f-a46e-52d379ed0043">
            <path
               style="stroke:none"
               d="m 1.90625,-0.53125 c 0,-0.28125 -0.234375,-0.53125 -0.515625,-0.53125 -0.296875,0 -0.53125,0.25 -0.53125,0.53125 C 0.859375,-0.234375 1.09375,0 1.390625,0 1.671875,0 1.90625,-0.234375 1.90625,-0.53125 Z m 0,0"
               id="id-26f6fd3f-cc2d-4833-977a-f7a089a9ebf4" />
          </symbol>
        </g>
      </defs>
      <g
         id="id-62132a49-bf20-432b-92de-de64f00baa7a"
         transform="translate(-148.9, -127.734)">
        <g
           style="fill:#000000;fill-opacity:1"
           id="id-b9d9d1f2-f500-4842-a6af-8209feab9b98">
          <g
             transform="translate(148.712, 134.765)"
             id="g6594">
            <path
               style="stroke:none"
               d="M 6.1875,-5.828125 C 6.328125,-6.203125 6.59375,-6.484375 7.28125,-6.5 v -0.3125 c -0.3125,0.03125 -0.71875,0.03125 -0.96875,0.03125 -0.296875,0 -0.875,-0.015625 -1.140625,-0.03125 V -6.5 C 5.6875,-6.484375 5.90625,-6.234375 5.90625,-6 c 0,0.078125 -0.03125,0.140625 -0.046875,0.203125 L 4.03125,-1 2.125,-6.03125 C 2.0625,-6.171875 2.0625,-6.1875 2.0625,-6.203125 2.0625,-6.5 2.625,-6.5 2.875,-6.5 v -0.3125 c -0.359375,0.03125 -1.046875,0.03125 -1.421875,0.03125 -0.46875,0 -0.90625,-0.015625 -1.265625,-0.03125 V -6.5 c 0.65625,0 0.84375,0 0.984375,0.375 L 3.484375,0 c 0.0625,0.1875 0.109375,0.21875 0.25,0.21875 0.15625,0 0.1875,-0.046875 0.234375,-0.1875 z m 0,0"
               id="id-970c04a6-c366-4754-a0be-1671482496d5" />
          </g>
          <g
             transform="translate(156.184, 134.765)"
             id="g6597">
            <path
               style="stroke:none"
               d="M 1.765625,-4.40625 0.375,-4.296875 v 0.3125 c 0.640625,0 0.734375,0.0625 0.734375,0.546875 V -0.75 c 0,0.4375 -0.109375,0.4375 -0.78125,0.4375 V 0 C 0.640625,-0.015625 1.1875,-0.03125 1.421875,-0.03125 1.78125,-0.03125 2.125,-0.015625 2.46875,0 v -0.3125 c -0.671875,0 -0.703125,-0.046875 -0.703125,-0.4375 z m 0.03125,-1.734375 c 0,-0.3125 -0.234375,-0.53125 -0.515625,-0.53125 -0.3125,0 -0.53125,0.265625 -0.53125,0.53125 0,0.265625 0.21875,0.53125 0.53125,0.53125 0.28125,0 0.515625,-0.21875 0.515625,-0.53125 z m 0,0"
               id="id-8a1350d3-8d5f-40eb-91d3-1703225aa751" />
          </g>
          <g
             transform="translate(158.952, 134.765)"
             id="g6600">
            <path
               style="stroke:none"
               d="m 1.171875,-2.171875 c 0,-1.625 0.8125,-2.046875 1.34375,-2.046875 0.09375,0 0.71875,0.015625 1.0625,0.375 -0.40625,0.03125 -0.46875,0.328125 -0.46875,0.453125 0,0.265625 0.1875,0.453125 0.453125,0.453125 0.265625,0 0.46875,-0.15625 0.46875,-0.46875 0,-0.671875 -0.765625,-1.0625 -1.53125,-1.0625 -1.25,0 -2.15625,1.078125 -2.15625,2.3125 0,1.28125 0.984375,2.265625 2.140625,2.265625 1.328125,0 1.65625,-1.203125 1.65625,-1.296875 0,-0.09375 -0.109375,-0.09375 -0.140625,-0.09375 -0.078125,0 -0.109375,0.03125 -0.125,0.09375 -0.28125,0.921875 -0.9375,1.046875 -1.296875,1.046875 -0.53125,0 -1.40625,-0.421875 -1.40625,-2.03125 z m 0,0"
               id="id-4cfc4bcb-498d-4d1e-8206-ccceed861aa7" />
          </g>
          <g
             transform="translate(163.379, 134.765)"
             id="g6603">
            <path
               style="stroke:none"
               d="m 1.71875,-3.984375 h 1.4375 v -0.3125 H 1.71875 V -6.125 h -0.25 c 0,0.8125 -0.296875,1.875 -1.28125,1.921875 v 0.21875 h 0.84375 v 2.75 c 0,1.21875 0.9375,1.34375 1.296875,1.34375 0.703125,0 0.984375,-0.703125 0.984375,-1.34375 v -0.5625 h -0.25 V -1.25 c 0,0.734375 -0.296875,1.109375 -0.671875,1.109375 -0.671875,0 -0.671875,-0.90625 -0.671875,-1.078125 z m 0,0"
               id="id-a0426ea4-296a-4e4c-9e79-e0400d703773" />
          </g>
          <g
             transform="translate(167.253, 134.765)"
             id="g6606">
            <path
               style="stroke:none"
               d="M 4.6875,-2.140625 C 4.6875,-3.40625 3.703125,-4.46875 2.5,-4.46875 c -1.25,0 -2.21875,1.09375 -2.21875,2.328125 0,1.296875 1.03125,2.25 2.203125,2.25 1.203125,0 2.203125,-0.984375 2.203125,-2.25 z m -2.1875,2 c -0.4375,0 -0.875,-0.203125 -1.140625,-0.671875 -0.25,-0.4375 -0.25,-1.046875 -0.25,-1.40625 0,-0.390625 0,-0.921875 0.234375,-1.359375 C 1.609375,-4.03125 2.078125,-4.25 2.484375,-4.25 c 0.4375,0 0.859375,0.21875 1.125,0.65625 0.265625,0.421875 0.265625,1 0.265625,1.375 0,0.359375 0,0.90625 -0.21875,1.34375 C 3.421875,-0.421875 2.984375,-0.140625 2.5,-0.140625 Z m 0,0"
               id="id-e898fc99-9747-41aa-b3a8-bdbfc0999f58" />
          </g>
          <g
             transform="translate(172.235, 134.765)"
             id="g6609">
            <path
               style="stroke:none"
               d="M 1.671875,-3.3125 V -4.40625 L 0.28125,-4.296875 v 0.3125 c 0.703125,0 0.78125,0.0625 0.78125,0.5625 V -0.75 c 0,0.4375 -0.109375,0.4375 -0.78125,0.4375 V 0 c 0.390625,-0.015625 0.859375,-0.03125 1.140625,-0.03125 0.390625,0 0.859375,0 1.265625,0.03125 V -0.3125 H 2.46875 c -0.734375,0 -0.75,-0.109375 -0.75,-0.46875 V -2.3125 c 0,-0.984375 0.421875,-1.875 1.171875,-1.875 0.0625,0 0.09375,0 0.109375,0.015625 -0.03125,0 -0.234375,0.125 -0.234375,0.390625 0,0.265625 0.21875,0.421875 0.4375,0.421875 0.171875,0 0.421875,-0.125 0.421875,-0.4375 0,-0.3125 -0.3125,-0.609375 -0.734375,-0.609375 -0.734375,0 -1.09375,0.671875 -1.21875,1.09375 z m 0,0"
               id="id-42958537-fcdb-409a-92f1-9facfb308c24" />
          </g>
        </g>
        <g
           style="fill:#000000;fill-opacity:1"
           id="id-272a11f8-ee2f-4e2e-9a1f-d7bafb7f092e">
          <g
             transform="translate(179.455, 134.765)"
             id="g6613">
            <path
               style="stroke:none"
               d="m 2.09375,-4.40625 -1.515625,0.109375 v 0.3125 c 0.765625,0 0.859375,0.0625 0.859375,0.5625 v 3.9375 c 0,0.453125 -0.09375,1.3125 -0.734375,1.3125 -0.046875,0 -0.28125,0 -0.53125,-0.140625 C 0.3125,1.65625 0.515625,1.515625 0.515625,1.25 0.515625,0.984375 0.34375,0.78125 0.0625,0.78125 c -0.28125,0 -0.46875,0.203125 -0.46875,0.46875 0,0.515625 0.5625,0.796875 1.140625,0.796875 C 1.46875,2.046875 2.09375,1.40625 2.09375,0.5 Z m 0,-1.734375 c 0,-0.296875 -0.234375,-0.53125 -0.53125,-0.53125 -0.28125,0 -0.53125,0.234375 -0.53125,0.53125 0,0.28125 0.25,0.53125 0.53125,0.53125 0.296875,0 0.53125,-0.25 0.53125,-0.53125 z m 0,0"
               id="id-3c076938-38de-4c00-a83c-fa760dea0cc9" />
          </g>
          <g
             transform="translate(182.499, 134.765)"
             id="g6616">
            <path
               style="stroke:none"
               d="m 3.3125,-0.75 c 0.046875,0.390625 0.3125,0.8125 0.78125,0.8125 0.21875,0 0.828125,-0.140625 0.828125,-0.953125 v -0.5625 h -0.25 v 0.5625 c 0,0.578125 -0.25,0.640625 -0.359375,0.640625 -0.328125,0 -0.375,-0.453125 -0.375,-0.5 v -1.984375 c 0,-0.421875 0,-0.8125 -0.359375,-1.1875 C 3.1875,-4.3125 2.6875,-4.46875 2.21875,-4.46875 c -0.828125,0 -1.515625,0.46875 -1.515625,1.125 0,0.296875 0.203125,0.46875 0.46875,0.46875 0.28125,0 0.453125,-0.203125 0.453125,-0.453125 0,-0.125 -0.046875,-0.453125 -0.515625,-0.453125 C 1.390625,-4.140625 1.875,-4.25 2.1875,-4.25 c 0.5,0 1.0625,0.390625 1.0625,1.28125 v 0.359375 c -0.515625,0.03125 -1.203125,0.0625 -1.828125,0.359375 -0.75,0.34375 -1,0.859375 -1,1.296875 0,0.8125 0.96875,1.0625 1.59375,1.0625 0.65625,0 1.109375,-0.40625 1.296875,-0.859375 z M 3.25,-2.390625 v 1 c 0,0.9375 -0.71875,1.28125 -1.171875,1.28125 -0.484375,0 -0.890625,-0.34375 -0.890625,-0.84375 0,-0.546875 0.421875,-1.375 2.0625,-1.4375 z m 0,0"
               id="id-495c30c2-cc7e-4278-ab0b-a11f13fbcb99" />
          </g>
          <g
             transform="translate(187.48, 134.765)"
             id="g6619">
            <path
               style="stroke:none"
               d="m 2.21875,-1.71875 c -0.875,0 -0.875,-1 -0.875,-1.21875 0,-0.265625 0.015625,-0.59375 0.15625,-0.84375 0.078125,-0.109375 0.3125,-0.390625 0.71875,-0.390625 0.859375,0 0.859375,0.984375 0.859375,1.21875 0,0.265625 0,0.59375 -0.15625,0.84375 C 2.84375,-2 2.609375,-1.71875 2.21875,-1.71875 Z M 1.0625,-1.328125 c 0,-0.03125 0,-0.265625 0.15625,-0.46875 0.390625,0.28125 0.8125,0.3125 1,0.3125 0.921875,0 1.609375,-0.6875 1.609375,-1.453125 0,-0.375 -0.15625,-0.734375 -0.40625,-0.96875 C 3.78125,-4.25 4.140625,-4.296875 4.3125,-4.296875 c 0.03125,0 0.078125,0 0.109375,0.015625 C 4.3125,-4.25 4.25,-4.140625 4.25,-4.015625 c 0,0.171875 0.140625,0.28125 0.296875,0.28125 0.09375,0 0.28125,-0.0625 0.28125,-0.296875 0,-0.171875 -0.109375,-0.484375 -0.5,-0.484375 -0.203125,0 -0.640625,0.0625 -1.0625,0.46875 C 2.84375,-4.375 2.4375,-4.40625 2.21875,-4.40625 c -0.9375,0 -1.625,0.6875 -1.625,1.453125 0,0.4375 0.21875,0.8125 0.46875,1.03125 -0.125,0.140625 -0.3125,0.46875 -0.3125,0.828125 0,0.3125 0.140625,0.6875 0.453125,0.890625 -0.609375,0.15625 -0.921875,0.59375 -0.921875,0.984375 0,0.71875 0.984375,1.265625 2.203125,1.265625 1.171875,0 2.203125,-0.5 2.203125,-1.28125 0,-0.34375 -0.125,-0.859375 -0.640625,-1.140625 -0.53125,-0.265625 -1.109375,-0.265625 -1.71875,-0.265625 -0.25,0 -0.671875,0 -0.75,-0.015625 C 1.265625,-0.703125 1.0625,-1 1.0625,-1.328125 Z M 2.5,1.828125 c -1.015625,0 -1.703125,-0.515625 -1.703125,-1.046875 0,-0.453125 0.375,-0.828125 0.8125,-0.84375 h 0.59375 c 0.859375,0 1.96875,0 1.96875,0.84375 0,0.546875 -0.703125,1.046875 -1.671875,1.046875 z m 0,0"
               id="id-59bf71bf-5f35-4650-9829-d44d97713dba" />
          </g>
          <g
             transform="translate(192.462, 134.765)"
             id="g6622">
            <path
               style="stroke:none"
               d="m 1.71875,-3.984375 h 1.4375 v -0.3125 H 1.71875 V -6.125 h -0.25 c 0,0.8125 -0.296875,1.875 -1.28125,1.921875 v 0.21875 h 0.84375 v 2.75 c 0,1.21875 0.9375,1.34375 1.296875,1.34375 0.703125,0 0.984375,-0.703125 0.984375,-1.34375 v -0.5625 h -0.25 V -1.25 c 0,0.734375 -0.296875,1.109375 -0.671875,1.109375 -0.671875,0 -0.671875,-0.90625 -0.671875,-1.078125 z m 0,0"
               id="id-7b2dfc86-b59d-4931-9e31-b9c5011d3a7f" />
          </g>
        </g>
        <g
           style="fill:#000000;fill-opacity:1"
           id="id-11db6cf2-053a-4bd6-aa03-ef549f677f20">
          <g
             transform="translate(199.664, 134.765)"
             id="g6626">
            <path
               style="stroke:none"
               d="m 3.890625,-4 c 0.09375,-0.109375 0.09375,-0.125 0.09375,-0.171875 0,-0.125 -0.09375,-0.125 -0.265625,-0.125 H 0.53125 L 0.421875,-2.6875 h 0.25 c 0.0625,-1.015625 0.25,-1.390625 1.34375,-1.390625 H 3.15625 L 0.375,-0.3125 C 0.28125,-0.203125 0.28125,-0.1875 0.28125,-0.140625 0.28125,0 0.34375,0 0.53125,0 H 3.828125 L 4,-1.859375 H 3.75 C 3.65625,-0.6875 3.453125,-0.25 2.296875,-0.25 h -1.1875 z m 0,0"
               id="id-34f4bbfc-d797-4e7e-8914-cc2ccde3e8db" />
          </g>
          <g
             transform="translate(204.091, 134.765)"
             id="g6629">
            <path
               style="stroke:none"
               d="m 6.171875,-3.34375 c 0.171875,-0.5 0.484375,-0.640625 0.84375,-0.640625 v -0.3125 C 6.78125,-4.28125 6.5,-4.265625 6.28125,-4.265625 c -0.296875,0 -0.734375,-0.015625 -0.921875,-0.03125 v 0.3125 c 0.359375,0 0.578125,0.1875 0.578125,0.46875 0,0.0625 0,0.09375 -0.0625,0.21875 L 4.96875,-0.75 3.984375,-3.53125 C 3.953125,-3.65625 3.9375,-3.671875 3.9375,-3.71875 c 0,-0.265625 0.390625,-0.265625 0.59375,-0.265625 v -0.3125 c -0.296875,0.015625 -0.796875,0.03125 -1.046875,0.03125 -0.296875,0 -0.578125,-0.015625 -0.875,-0.03125 v 0.3125 c 0.359375,0 0.515625,0.015625 0.625,0.140625 0.046875,0.0625 0.15625,0.359375 0.21875,0.546875 L 2.609375,-0.875 1.65625,-3.53125 C 1.609375,-3.65625 1.609375,-3.671875 1.609375,-3.71875 1.609375,-3.984375 2,-3.984375 2.1875,-3.984375 v -0.3125 c -0.296875,0.015625 -0.859375,0.03125 -1.078125,0.03125 -0.046875,0 -0.578125,-0.015625 -0.9375,-0.03125 v 0.3125 c 0.5,0 0.625,0.03125 0.75,0.34375 l 1.25,3.53125 C 2.21875,0.03125 2.25,0.109375 2.375,0.109375 c 0.140625,0 0.15625,-0.0625 0.203125,-0.203125 l 1.015625,-2.8125 1.015625,2.828125 c 0.03125,0.109375 0.0625,0.1875 0.203125,0.1875 0.125,0 0.15625,-0.09375 0.1875,-0.1875 z m 0,0"
               id="id-7f90566f-3828-4fee-b1a5-9194b4ab0dae" />
          </g>
          <g
             transform="translate(211.286, 134.765)"
             id="g6632">
            <path
               style="stroke:none"
               d="m 2.03125,-6.171875 c 0,-0.234375 -0.203125,-0.5 -0.5,-0.5 -0.28125,0 -0.5,0.21875 -0.5,0.5 0,0.28125 0.21875,0.5 0.5,0.5 0.296875,0 0.5,-0.265625 0.5,-0.5 z m 1.921875,0 c 0,-0.28125 -0.21875,-0.5 -0.5,-0.5 -0.296875,0 -0.5,0.265625 -0.5,0.5 0,0.234375 0.203125,0.5 0.5,0.5 0.28125,0 0.5,-0.21875 0.5,-0.5 z m 0,0"
               id="id-a0779540-b93d-4ccb-bb42-0b938f42e305" />
          </g>
        </g>
        <g
           style="fill:#000000;fill-opacity:1"
           id="id-accb745e-cc5f-4eaf-8540-81cb33f85e5e">
          <g
             transform="translate(211.286, 134.765)"
             id="g6636">
            <path
               style="stroke:none"
               d="M 4.6875,-2.140625 C 4.6875,-3.40625 3.703125,-4.46875 2.5,-4.46875 c -1.25,0 -2.21875,1.09375 -2.21875,2.328125 0,1.296875 1.03125,2.25 2.203125,2.25 1.203125,0 2.203125,-0.984375 2.203125,-2.25 z m -2.1875,2 c -0.4375,0 -0.875,-0.203125 -1.140625,-0.671875 -0.25,-0.4375 -0.25,-1.046875 -0.25,-1.40625 0,-0.390625 0,-0.921875 0.234375,-1.359375 C 1.609375,-4.03125 2.078125,-4.25 2.484375,-4.25 c 0.4375,0 0.859375,0.21875 1.125,0.65625 0.265625,0.421875 0.265625,1 0.265625,1.375 0,0.359375 0,0.90625 -0.21875,1.34375 C 3.421875,-0.421875 2.984375,-0.140625 2.5,-0.140625 Z m 0,0"
               id="id-2680c3bc-f775-48a5-994f-a7f68ce396cc" />
          </g>
          <g
             transform="translate(216.267, 134.765)"
             id="g6639">
            <path
               style="stroke:none"
               d="M 1.765625,-6.921875 0.328125,-6.8125 V -6.5 c 0.703125,0 0.78125,0.0625 0.78125,0.5625 V -0.75 c 0,0.4375 -0.109375,0.4375 -0.78125,0.4375 V 0 C 0.65625,-0.015625 1.1875,-0.03125 1.4375,-0.03125 c 0.25,0 0.734375,0.015625 1.109375,0.03125 v -0.3125 c -0.671875,0 -0.78125,0 -0.78125,-0.4375 z m 0,0"
               id="id-5ddbbc58-d4a8-4406-8319-340454445420" />
          </g>
          <g
             transform="translate(219.035, 134.765)"
             id="g6642">
            <path
               style="stroke:none"
               d="m 1.75,-4.296875 v -1.15625 c 0,-0.875 0.46875,-1.359375 0.90625,-1.359375 0.03125,0 0.1875,0 0.328125,0.078125 C 2.875,-6.703125 2.6875,-6.5625 2.6875,-6.3125 c 0,0.21875 0.15625,0.421875 0.4375,0.421875 0.28125,0 0.4375,-0.203125 0.4375,-0.4375 0,-0.375 -0.375,-0.703125 -0.90625,-0.703125 -0.6875,0 -1.546875,0.53125 -1.546875,1.59375 v 1.140625 h -0.78125 v 0.3125 h 0.78125 V -0.75 C 1.109375,-0.3125 1,-0.3125 0.34375,-0.3125 V 0 c 0.390625,-0.015625 0.859375,-0.03125 1.125,-0.03125 0.40625,0 0.875,0 1.265625,0.03125 V -0.3125 H 2.53125 c -0.734375,0 -0.75,-0.109375 -0.75,-0.46875 v -3.203125 h 1.125 v -0.3125 z m 0,0"
               id="id-49ab6e9e-4715-47c5-b03b-54520300f93c" />
          </g>
        </g>
        <g
           style="fill:#000000;fill-opacity:1"
           id="id-921a8ac4-9dca-4aa0-81e0-bb478acb47db">
          <g
             transform="translate(225.397, 134.765)"
             id="g6646">
            <path
               style="stroke:none"
               d="m 2.21875,-3.65625 v -2.4375 C 2.21875,-6.4375 2.234375,-6.5 2.703125,-6.5 H 3.9375 c 0.96875,0 1.3125,0.84375 1.3125,1.375 0,0.640625 -0.484375,1.46875 -1.59375,1.46875 z M 4.5625,-3.5625 C 5.53125,-3.75 6.21875,-4.390625 6.21875,-5.125 6.21875,-5.984375 5.296875,-6.8125 4,-6.8125 H 0.359375 V -6.5 H 0.59375 c 0.765625,0 0.796875,0.109375 0.796875,0.46875 v 5.25 c 0,0.359375 -0.03125,0.46875 -0.796875,0.46875 H 0.359375 V 0 h 3.90625 c 1.328125,0 2.21875,-0.890625 2.21875,-1.828125 0,-0.859375 -0.8125,-1.609375 -1.921875,-1.734375 z m -0.609375,3.25 h -1.25 c -0.46875,0 -0.484375,-0.0625 -0.484375,-0.390625 v -2.71875 h 1.875 C 5.078125,-3.421875 5.5,-2.5 5.5,-1.828125 5.5,-1.125 4.96875,-0.3125 3.953125,-0.3125 Z m 0,0"
               id="id-2eba018d-53e6-4c32-8a6f-5f0ae371cad7" />
          </g>
          <g
             transform="translate(232.454, 134.765)"
             id="g6649">
            <path
               style="stroke:none"
               d="M 4.6875,-2.140625 C 4.6875,-3.40625 3.703125,-4.46875 2.5,-4.46875 c -1.25,0 -2.21875,1.09375 -2.21875,2.328125 0,1.296875 1.03125,2.25 2.203125,2.25 1.203125,0 2.203125,-0.984375 2.203125,-2.25 z m -2.1875,2 c -0.4375,0 -0.875,-0.203125 -1.140625,-0.671875 -0.25,-0.4375 -0.25,-1.046875 -0.25,-1.40625 0,-0.390625 0,-0.921875 0.234375,-1.359375 C 1.609375,-4.03125 2.078125,-4.25 2.484375,-4.25 c 0.4375,0 0.859375,0.21875 1.125,0.65625 0.265625,0.421875 0.265625,1 0.265625,1.375 0,0.359375 0,0.90625 -0.21875,1.34375 C 3.421875,-0.421875 2.984375,-0.140625 2.5,-0.140625 Z m 0,0"
               id="id-0ab601ed-f769-4e48-b630-841b4c3768d1" />
          </g>
        </g>
        <g
           style="fill:#000000;fill-opacity:1"
           id="id-0005c96a-fa5d-4773-89d8-f6626c426acf">
          <g
             transform="translate(237.156, 134.765)"
             id="g6653">
            <path
               style="stroke:none"
               d="M 2.859375,-2.34375 C 3.15625,-2.71875 3.53125,-3.203125 3.78125,-3.46875 4.09375,-3.828125 4.5,-3.984375 4.96875,-3.984375 v -0.3125 c -0.265625,0.015625 -0.5625,0.03125 -0.828125,0.03125 -0.296875,0 -0.828125,-0.015625 -0.953125,-0.03125 v 0.3125 c 0.21875,0.015625 0.296875,0.140625 0.296875,0.3125 0,0.15625 -0.109375,0.28125 -0.15625,0.34375 L 2.71875,-2.546875 1.9375,-3.5625 C 1.84375,-3.65625 1.84375,-3.671875 1.84375,-3.734375 c 0,-0.15625 0.15625,-0.25 0.34375,-0.25 v -0.3125 c -0.25,0.015625 -0.90625,0.03125 -1.078125,0.03125 -0.203125,0 -0.671875,-0.015625 -0.9375,-0.03125 v 0.3125 c 0.703125,0 0.703125,0 1.171875,0.609375 l 0.984375,1.28125 -0.9375,1.1875 C 0.921875,-0.328125 0.328125,-0.3125 0.125,-0.3125 V 0 c 0.25,-0.015625 0.5625,-0.03125 0.828125,-0.03125 0.28125,0 0.703125,0.015625 0.9375,0.03125 v -0.3125 c -0.21875,-0.03125 -0.28125,-0.15625 -0.28125,-0.3125 0,-0.21875 0.28125,-0.546875 0.890625,-1.265625 l 0.765625,1 C 3.34375,-0.78125 3.46875,-0.625 3.46875,-0.5625 c 0,0.09375 -0.09375,0.25 -0.359375,0.25 V 0 C 3.40625,-0.015625 3.96875,-0.03125 4.1875,-0.03125 c 0.265625,0 0.65625,0.015625 0.953125,0.03125 v -0.3125 c -0.53125,0 -0.71875,-0.015625 -0.9375,-0.3125 z m 0,0"
               id="id-64dc81f9-12dd-41e8-be8e-580c4a35d857" />
          </g>
          <g
             transform="translate(242.414, 134.765)"
             id="g6656">
            <path
               style="stroke:none"
               d="m 1.0625,-0.75 c 0,0.4375 -0.109375,0.4375 -0.78125,0.4375 V 0 c 0.328125,-0.015625 0.796875,-0.03125 1.078125,-0.03125 0.3125,0 0.703125,0.015625 1.109375,0.03125 v -0.3125 c -0.671875,0 -0.78125,0 -0.78125,-0.4375 v -1.03125 l 0.640625,-0.546875 c 0.765625,1.046875 1.1875,1.609375 1.1875,1.796875 0,0.1875 -0.171875,0.21875 -0.359375,0.21875 V 0 c 0.265625,-0.015625 0.859375,-0.03125 1.078125,-0.03125 0.28125,0 0.578125,0.015625 0.859375,0.03125 v -0.3125 c -0.375,0 -0.59375,0 -0.96875,-0.53125 L 2.859375,-2.625 c -0.015625,-0.015625 -0.0625,-0.078125 -0.0625,-0.109375 0,-0.03125 0.71875,-0.640625 0.8125,-0.71875 0.625,-0.5 1.046875,-0.53125 1.25,-0.53125 v -0.3125 c -0.28125,0.03125 -0.40625,0.03125 -0.6875,0.03125 -0.359375,0 -0.984375,-0.015625 -1.125,-0.03125 v 0.3125 c 0.1875,0 0.296875,0.109375 0.296875,0.25 0,0.203125 -0.140625,0.3125 -0.21875,0.390625 l -1.40625,1.203125 v -4.78125 L 0.28125,-6.8125 V -6.5 c 0.703125,0 0.78125,0.0625 0.78125,0.5625 z m 0,0"
               id="id-3a0b98ac-8ef1-44b3-a85b-09a821591ba1" />
          </g>
          <g
             transform="translate(247.673, 134.765)"
             id="g6659">
            <path
               style="stroke:none"
               d="m 2.03125,-6.171875 c 0,-0.234375 -0.203125,-0.5 -0.5,-0.5 -0.28125,0 -0.5,0.21875 -0.5,0.5 0,0.28125 0.21875,0.5 0.5,0.5 0.296875,0 0.5,-0.265625 0.5,-0.5 z m 1.921875,0 c 0,-0.28125 -0.21875,-0.5 -0.5,-0.5 -0.296875,0 -0.5,0.265625 -0.5,0.5 0,0.234375 0.203125,0.5 0.5,0.5 0.28125,0 0.5,-0.21875 0.5,-0.5 z m 0,0"
               id="id-67f125f9-6580-46db-a825-ce55c26b17b3" />
          </g>
        </g>
        <g
           style="fill:#000000;fill-opacity:1"
           id="id-6c809c9f-5e6c-460f-95b5-172994d2e5a1">
          <g
             transform="translate(247.673, 134.765)"
             id="g6663">
            <path
               style="stroke:none"
               d="m 3.3125,-0.75 c 0.046875,0.390625 0.3125,0.8125 0.78125,0.8125 0.21875,0 0.828125,-0.140625 0.828125,-0.953125 v -0.5625 h -0.25 v 0.5625 c 0,0.578125 -0.25,0.640625 -0.359375,0.640625 -0.328125,0 -0.375,-0.453125 -0.375,-0.5 v -1.984375 c 0,-0.421875 0,-0.8125 -0.359375,-1.1875 C 3.1875,-4.3125 2.6875,-4.46875 2.21875,-4.46875 c -0.828125,0 -1.515625,0.46875 -1.515625,1.125 0,0.296875 0.203125,0.46875 0.46875,0.46875 0.28125,0 0.453125,-0.203125 0.453125,-0.453125 0,-0.125 -0.046875,-0.453125 -0.515625,-0.453125 C 1.390625,-4.140625 1.875,-4.25 2.1875,-4.25 c 0.5,0 1.0625,0.390625 1.0625,1.28125 v 0.359375 c -0.515625,0.03125 -1.203125,0.0625 -1.828125,0.359375 -0.75,0.34375 -1,0.859375 -1,1.296875 0,0.8125 0.96875,1.0625 1.59375,1.0625 0.65625,0 1.109375,-0.40625 1.296875,-0.859375 z M 3.25,-2.390625 v 1 c 0,0.9375 -0.71875,1.28125 -1.171875,1.28125 -0.484375,0 -0.890625,-0.34375 -0.890625,-0.84375 0,-0.546875 0.421875,-1.375 2.0625,-1.4375 z m 0,0"
               id="id-447a6f71-0de5-49f8-b24a-cad63b8b7cb6" />
          </g>
          <g
             transform="translate(252.654, 134.765)"
             id="g6666">
            <path
               style="stroke:none"
               d="M 1.09375,-3.421875 V -0.75 c 0,0.4375 -0.109375,0.4375 -0.78125,0.4375 V 0 c 0.359375,-0.015625 0.859375,-0.03125 1.140625,-0.03125 0.25,0 0.765625,0.015625 1.109375,0.03125 v -0.3125 c -0.671875,0 -0.78125,0 -0.78125,-0.4375 V -2.59375 C 1.78125,-3.625 2.5,-4.1875 3.125,-4.1875 c 0.640625,0 0.75,0.53125 0.75,1.109375 V -0.75 c 0,0.4375 -0.109375,0.4375 -0.78125,0.4375 V 0 c 0.34375,-0.015625 0.859375,-0.03125 1.125,-0.03125 0.25,0 0.78125,0.015625 1.109375,0.03125 v -0.3125 c -0.65625,0 -0.765625,0 -0.765625,-0.4375 v -1.84375 c 0,-1.03125 0.703125,-1.59375 1.34375,-1.59375 0.625,0 0.734375,0.53125 0.734375,1.109375 V -0.75 c 0,0.4375 -0.109375,0.4375 -0.78125,0.4375 V 0 c 0.34375,-0.015625 0.859375,-0.03125 1.125,-0.03125 0.265625,0 0.78125,0.015625 1.125,0.03125 v -0.3125 c -0.515625,0 -0.765625,0 -0.78125,-0.296875 v -1.90625 c 0,-0.859375 0,-1.15625 -0.3125,-1.515625 -0.140625,-0.171875 -0.46875,-0.375 -1.046875,-0.375 -0.828125,0 -1.28125,0.59375 -1.4375,0.984375 C 4.390625,-4.296875 3.65625,-4.40625 3.203125,-4.40625 2.46875,-4.40625 2,-3.984375 1.71875,-3.359375 V -4.40625 L 0.3125,-4.296875 v 0.3125 c 0.703125,0 0.78125,0.0625 0.78125,0.5625 z m 0,0"
               id="id-012732ab-2ef0-449b-ad86-a61e97aaf025" />
          </g>
          <g
             transform="translate(260.956, 134.765)"
             id="g6669">
            <path
               style="stroke:none"
               d="m 1.71875,-3.75 v -0.65625 l -1.4375,0.109375 v 0.3125 c 0.703125,0 0.78125,0.0625 0.78125,0.5 v 4.65625 C 1.0625,1.625 0.953125,1.625 0.28125,1.625 V 1.9375 C 0.625,1.921875 1.140625,1.90625 1.390625,1.90625 c 0.28125,0 0.78125,0.015625 1.125,0.03125 V 1.625 C 1.859375,1.625 1.75,1.625 1.75,1.171875 V -0.59375 c 0.046875,0.171875 0.46875,0.703125 1.21875,0.703125 1.1875,0 2.21875,-0.984375 2.21875,-2.265625 0,-1.265625 -0.953125,-2.25 -2.078125,-2.25 -0.78125,0 -1.203125,0.4375 -1.390625,0.65625 z M 1.75,-1.140625 v -2.21875 C 2.03125,-3.875 2.515625,-4.15625 3.03125,-4.15625 c 0.734375,0 1.328125,0.875 1.328125,2 0,1.203125 -0.6875,2.046875 -1.421875,2.046875 -0.40625,0 -0.78125,-0.203125 -1.046875,-0.609375 C 1.75,-0.921875 1.75,-0.9375 1.75,-1.140625 Z m 0,0"
               id="id-a98f055a-a99e-4205-a163-8c0fce3a9f60" />
          </g>
          <g
             transform="translate(266.491, 134.765)"
             id="g6672">
            <path
               style="stroke:none"
               d="m 1.75,-4.296875 v -1.15625 c 0,-0.875 0.46875,-1.359375 0.90625,-1.359375 0.03125,0 0.1875,0 0.328125,0.078125 C 2.875,-6.703125 2.6875,-6.5625 2.6875,-6.3125 c 0,0.21875 0.15625,0.421875 0.4375,0.421875 0.28125,0 0.4375,-0.203125 0.4375,-0.4375 0,-0.375 -0.375,-0.703125 -0.90625,-0.703125 -0.6875,0 -1.546875,0.53125 -1.546875,1.59375 v 1.140625 h -0.78125 v 0.3125 h 0.78125 V -0.75 C 1.109375,-0.3125 1,-0.3125 0.34375,-0.3125 V 0 c 0.390625,-0.015625 0.859375,-0.03125 1.125,-0.03125 0.40625,0 0.875,0 1.265625,0.03125 V -0.3125 H 2.53125 c -0.734375,0 -0.75,-0.109375 -0.75,-0.46875 v -3.203125 h 1.125 v -0.3125 z m 0,0"
               id="id-9cf5bd32-b950-46c5-a59b-309d473d2f56" />
          </g>
          <g
             transform="translate(269.535, 134.765)"
             id="g6675">
            <path
               style="stroke:none"
               d="M 1.109375,-2.515625 C 1.171875,-4 2.015625,-4.25 2.359375,-4.25 c 1.015625,0 1.125,1.34375 1.125,1.734375 z m 0,0.21875 h 2.78125 c 0.21875,0 0.25,0 0.25,-0.21875 0,-0.984375 -0.546875,-1.953125 -1.78125,-1.953125 -1.15625,0 -2.078125,1.03125 -2.078125,2.28125 0,1.328125 1.046875,2.296875 2.1875,2.296875 C 3.6875,0.109375 4.140625,-1 4.140625,-1.1875 4.140625,-1.28125 4.0625,-1.3125 4,-1.3125 c -0.078125,0 -0.109375,0.0625 -0.125,0.140625 -0.34375,1.03125 -1.25,1.03125 -1.34375,1.03125 -0.5,0 -0.890625,-0.296875 -1.125,-0.671875 -0.296875,-0.46875 -0.296875,-1.125 -0.296875,-1.484375 z m 0,0"
               id="id-6379631f-b3de-4e7e-8951-dc438ebb1606" />
          </g>
          <g
             transform="translate(273.963, 134.765)"
             id="g6678">
            <path
               style="stroke:none"
               d="M 1.671875,-3.3125 V -4.40625 L 0.28125,-4.296875 v 0.3125 c 0.703125,0 0.78125,0.0625 0.78125,0.5625 V -0.75 c 0,0.4375 -0.109375,0.4375 -0.78125,0.4375 V 0 c 0.390625,-0.015625 0.859375,-0.03125 1.140625,-0.03125 0.390625,0 0.859375,0 1.265625,0.03125 V -0.3125 H 2.46875 c -0.734375,0 -0.75,-0.109375 -0.75,-0.46875 V -2.3125 c 0,-0.984375 0.421875,-1.875 1.171875,-1.875 0.0625,0 0.09375,0 0.109375,0.015625 -0.03125,0 -0.234375,0.125 -0.234375,0.390625 0,0.265625 0.21875,0.421875 0.4375,0.421875 0.171875,0 0.421875,-0.125 0.421875,-0.4375 0,-0.3125 -0.3125,-0.609375 -0.734375,-0.609375 -0.734375,0 -1.09375,0.671875 -1.21875,1.09375 z m 0,0"
               id="id-e8058dfd-7ae7-4f44-891f-fcc76d2a44a5" />
          </g>
        </g>
        <g
           style="fill:#000000;fill-opacity:1"
           id="id-256734a6-12a8-404e-a7e2-e6151bd9af26">
          <g
             transform="translate(281.193, 134.765)"
             id="g6682">
            <path
               style="stroke:none"
               d="m 3.78125,-0.609375 v 1.78125 C 3.78125,1.625 3.671875,1.625 3.015625,1.625 V 1.9375 C 3.34375,1.921875 3.875,1.90625 4.125,1.90625 c 0.265625,0 0.78125,0.015625 1.125,0.03125 V 1.625 c -0.671875,0 -0.78125,0 -0.78125,-0.453125 V -4.40625 H 4.25 L 3.875,-3.5 C 3.75,-3.78125 3.34375,-4.40625 2.546875,-4.40625 c -1.15625,0 -2.203125,0.96875 -2.203125,2.265625 0,1.25 0.96875,2.25 2.125,2.25 0.6875,0 1.09375,-0.421875 1.3125,-0.71875 z m 0.03125,-2.15625 v 1.40625 C 3.8125,-1.03125 3.640625,-0.75 3.421875,-0.515625 3.296875,-0.375 2.96875,-0.109375 2.5,-0.109375 1.78125,-0.109375 1.171875,-1 1.171875,-2.140625 c 0,-1.1875 0.6875,-2.015625 1.4375,-2.015625 0.796875,0 1.203125,0.859375 1.203125,1.390625 z m 0,0"
               id="id-36b0ba5c-19eb-40e0-91e8-0126ef1e1a01" />
          </g>
          <g
             transform="translate(286.451, 134.765)"
             id="g6685">
            <path
               style="stroke:none"
               d="M 3.890625,-0.78125 V 0.109375 L 5.328125,0 V -0.3125 C 4.640625,-0.3125 4.5625,-0.375 4.5625,-0.875 v -3.53125 l -1.46875,0.109375 v 0.3125 c 0.6875,0 0.78125,0.0625 0.78125,0.5625 v 1.765625 c 0,0.875 -0.484375,1.546875 -1.21875,1.546875 -0.828125,0 -0.875,-0.46875 -0.875,-0.984375 v -3.3125 L 0.3125,-4.296875 v 0.3125 c 0.78125,0 0.78125,0.03125 0.78125,0.90625 v 1.5 c 0,0.78125 0,1.6875 1.515625,1.6875 0.5625,0 1,-0.28125 1.28125,-0.890625 z m 0,0"
               id="id-da119c91-0a0f-4b70-a661-1240d8f01c1d" />
          </g>
        </g>
        <g
           style="fill:#000000;fill-opacity:1"
           id="id-2a41cac1-57d9-4573-a180-d59bda90e7a4">
          <g
             transform="translate(291.976, 134.765)"
             id="g6689">
            <path
               style="stroke:none"
               d="M 1.109375,-2.515625 C 1.171875,-4 2.015625,-4.25 2.359375,-4.25 c 1.015625,0 1.125,1.34375 1.125,1.734375 z m 0,0.21875 h 2.78125 c 0.21875,0 0.25,0 0.25,-0.21875 0,-0.984375 -0.546875,-1.953125 -1.78125,-1.953125 -1.15625,0 -2.078125,1.03125 -2.078125,2.28125 0,1.328125 1.046875,2.296875 2.1875,2.296875 C 3.6875,0.109375 4.140625,-1 4.140625,-1.1875 4.140625,-1.28125 4.0625,-1.3125 4,-1.3125 c -0.078125,0 -0.109375,0.0625 -0.125,0.140625 -0.34375,1.03125 -1.25,1.03125 -1.34375,1.03125 -0.5,0 -0.890625,-0.296875 -1.125,-0.671875 -0.296875,-0.46875 -0.296875,-1.125 -0.296875,-1.484375 z m 0,0"
               id="id-d1e0c9ad-88e2-4ea8-8516-c26217095fbd" />
          </g>
        </g>
        <g
           style="fill:#000000;fill-opacity:1"
           id="id-db059681-f50a-41cf-a6b2-c3726286a637">
          <g
             transform="translate(296.414, 134.765)"
             id="g6693">
            <path
               style="stroke:none"
               d="M 1.671875,-3.3125 V -4.40625 L 0.28125,-4.296875 v 0.3125 c 0.703125,0 0.78125,0.0625 0.78125,0.5625 V -0.75 c 0,0.4375 -0.109375,0.4375 -0.78125,0.4375 V 0 c 0.390625,-0.015625 0.859375,-0.03125 1.140625,-0.03125 0.390625,0 0.859375,0 1.265625,0.03125 V -0.3125 H 2.46875 c -0.734375,0 -0.75,-0.109375 -0.75,-0.46875 V -2.3125 c 0,-0.984375 0.421875,-1.875 1.171875,-1.875 0.0625,0 0.09375,0 0.109375,0.015625 -0.03125,0 -0.234375,0.125 -0.234375,0.390625 0,0.265625 0.21875,0.421875 0.4375,0.421875 0.171875,0 0.421875,-0.125 0.421875,-0.4375 0,-0.3125 -0.3125,-0.609375 -0.734375,-0.609375 -0.734375,0 -1.09375,0.671875 -1.21875,1.09375 z m 0,0"
               id="id-2ea1cb74-533e-4058-b8d7-cdd5f72e1856" />
          </g>
        </g>
        <g
           style="fill:#000000;fill-opacity:1"
           id="id-4534ae33-7c5c-41d3-8682-bbb292f88f25">
          <g
             transform="translate(303.912, 134.765)"
             id="g6697">
            <path
               style="stroke:none"
               d="m 2.03125,-6.171875 c 0,-0.234375 -0.203125,-0.5 -0.5,-0.5 -0.28125,0 -0.5,0.21875 -0.5,0.5 0,0.28125 0.21875,0.5 0.5,0.5 0.296875,0 0.5,-0.265625 0.5,-0.5 z m 1.921875,0 c 0,-0.28125 -0.21875,-0.5 -0.5,-0.5 -0.296875,0 -0.5,0.265625 -0.5,0.5 0,0.234375 0.203125,0.5 0.5,0.5 0.28125,0 0.5,-0.21875 0.5,-0.5 z m 0,0"
               id="id-fb57ed8d-9f9a-491b-b0c7-f6baf5f0da80" />
          </g>
        </g>
        <g
           style="fill:#000000;fill-opacity:1"
           id="id-16725a38-ef05-401b-96a0-bcae4ecac28f">
          <g
             transform="translate(303.633, 134.765)"
             id="g6701">
            <path
               style="stroke:none"
               d="M 3.890625,-0.78125 V 0.109375 L 5.328125,0 V -0.3125 C 4.640625,-0.3125 4.5625,-0.375 4.5625,-0.875 v -3.53125 l -1.46875,0.109375 v 0.3125 c 0.6875,0 0.78125,0.0625 0.78125,0.5625 v 1.765625 c 0,0.875 -0.484375,1.546875 -1.21875,1.546875 -0.828125,0 -0.875,-0.46875 -0.875,-0.984375 v -3.3125 L 0.3125,-4.296875 v 0.3125 c 0.78125,0 0.78125,0.03125 0.78125,0.90625 v 1.5 c 0,0.78125 0,1.6875 1.515625,1.6875 0.5625,0 1,-0.28125 1.28125,-0.890625 z m 0,0"
               id="id-d73b6c8d-8a22-46b8-a84d-a5d54d0b654b" />
          </g>
          <g
             transform="translate(309.169, 134.765)"
             id="g6704">
            <path
               style="stroke:none"
               d="m 1.71875,-3.765625 v -3.15625 L 0.28125,-6.8125 V -6.5 c 0.703125,0 0.78125,0.0625 0.78125,0.5625 V 0 h 0.25 c 0,-0.015625 0.078125,-0.15625 0.359375,-0.625 0.140625,0.234375 0.5625,0.734375 1.296875,0.734375 1.1875,0 2.21875,-0.984375 2.21875,-2.265625 0,-1.265625 -0.96875,-2.25 -2.109375,-2.25 -0.78125,0 -1.203125,0.46875 -1.359375,0.640625 z m 0.03125,2.625 V -3.1875 c 0,-0.1875 0,-0.203125 0.109375,-0.359375 C 2.25,-4.109375 2.796875,-4.1875 3.03125,-4.1875 c 0.453125,0 0.8125,0.265625 1.046875,0.640625 0.265625,0.40625 0.28125,0.96875 0.28125,1.390625 0,0.359375 -0.015625,0.953125 -0.296875,1.40625 -0.21875,0.3125 -0.59375,0.640625 -1.125,0.640625 -0.453125,0 -0.8125,-0.234375 -1.046875,-0.609375 C 1.75,-0.921875 1.75,-0.953125 1.75,-1.140625 Z m 0,0"
               id="id-d312bf43-5d68-41f1-9b0f-643af3a0d75a" />
          </g>
        </g>
        <g
           style="fill:#000000;fill-opacity:1"
           id="id-fa0b3028-1064-47a2-9357-777603f8789f">
          <g
             transform="translate(314.983, 134.765)"
             id="g6708">
            <path
               style="stroke:none"
               d="M 1.109375,-2.515625 C 1.171875,-4 2.015625,-4.25 2.359375,-4.25 c 1.015625,0 1.125,1.34375 1.125,1.734375 z m 0,0.21875 h 2.78125 c 0.21875,0 0.25,0 0.25,-0.21875 0,-0.984375 -0.546875,-1.953125 -1.78125,-1.953125 -1.15625,0 -2.078125,1.03125 -2.078125,2.28125 0,1.328125 1.046875,2.296875 2.1875,2.296875 C 3.6875,0.109375 4.140625,-1 4.140625,-1.1875 4.140625,-1.28125 4.0625,-1.3125 4,-1.3125 c -0.078125,0 -0.109375,0.0625 -0.125,0.140625 -0.34375,1.03125 -1.25,1.03125 -1.34375,1.03125 -0.5,0 -0.890625,-0.296875 -1.125,-0.671875 -0.296875,-0.46875 -0.296875,-1.125 -0.296875,-1.484375 z m 0,0"
               id="id-e921e45c-32a3-4d4c-bda7-cd878925aa91" />
          </g>
          <g
             transform="translate(319.41, 134.765)"
             id="g6711">
            <path
               style="stroke:none"
               d="M 1.671875,-3.3125 V -4.40625 L 0.28125,-4.296875 v 0.3125 c 0.703125,0 0.78125,0.0625 0.78125,0.5625 V -0.75 c 0,0.4375 -0.109375,0.4375 -0.78125,0.4375 V 0 c 0.390625,-0.015625 0.859375,-0.03125 1.140625,-0.03125 0.390625,0 0.859375,0 1.265625,0.03125 V -0.3125 H 2.46875 c -0.734375,0 -0.75,-0.109375 -0.75,-0.46875 V -2.3125 c 0,-0.984375 0.421875,-1.875 1.171875,-1.875 0.0625,0 0.09375,0 0.109375,0.015625 -0.03125,0 -0.234375,0.125 -0.234375,0.390625 0,0.265625 0.21875,0.421875 0.4375,0.421875 0.171875,0 0.421875,-0.125 0.421875,-0.4375 0,-0.3125 -0.3125,-0.609375 -0.734375,-0.609375 -0.734375,0 -1.09375,0.671875 -1.21875,1.09375 z m 0,0"
               id="id-482e3803-a767-46fc-909b-1ea45ab0a17d" />
          </g>
        </g>
        <g
           style="fill:#000000;fill-opacity:1"
           id="id-99058a3b-444a-42ea-ab56-3e101952e5a0">
          <g
             transform="translate(326.63, 134.765)"
             id="g6715">
            <path
               style="stroke:none"
               d="m 3.78125,-0.546875 v 0.65625 L 5.25,0 v -0.3125 c -0.6875,0 -0.78125,-0.0625 -0.78125,-0.5625 V -6.921875 L 3.046875,-6.8125 V -6.5 c 0.6875,0 0.765625,0.0625 0.765625,0.5625 v 2.15625 c -0.28125,-0.359375 -0.71875,-0.625 -1.25,-0.625 -1.171875,0 -2.21875,0.984375 -2.21875,2.265625 0,1.265625 0.96875,2.25 2.109375,2.25 0.640625,0 1.078125,-0.34375 1.328125,-0.65625 z m 0,-2.671875 v 2.046875 c 0,0.171875 0,0.1875 -0.109375,0.359375 C 3.375,-0.328125 2.9375,-0.109375 2.5,-0.109375 2.046875,-0.109375 1.6875,-0.375 1.453125,-0.75 1.203125,-1.15625 1.171875,-1.71875 1.171875,-2.140625 1.171875,-2.5 1.1875,-3.09375 1.46875,-3.546875 1.6875,-3.859375 2.0625,-4.1875 2.609375,-4.1875 c 0.34375,0 0.765625,0.15625 1.0625,0.59375 0.109375,0.171875 0.109375,0.1875 0.109375,0.375 z m 0,0"
               id="id-03bd7d3c-01be-4a92-b62f-fea714ef77fb" />
          </g>
          <g
             transform="translate(332.165, 134.765)"
             id="g6718">
            <path
               style="stroke:none"
               d="M 1.109375,-2.515625 C 1.171875,-4 2.015625,-4.25 2.359375,-4.25 c 1.015625,0 1.125,1.34375 1.125,1.734375 z m 0,0.21875 h 2.78125 c 0.21875,0 0.25,0 0.25,-0.21875 0,-0.984375 -0.546875,-1.953125 -1.78125,-1.953125 -1.15625,0 -2.078125,1.03125 -2.078125,2.28125 0,1.328125 1.046875,2.296875 2.1875,2.296875 C 3.6875,0.109375 4.140625,-1 4.140625,-1.1875 4.140625,-1.28125 4.0625,-1.3125 4,-1.3125 c -0.078125,0 -0.109375,0.0625 -0.125,0.140625 -0.34375,1.03125 -1.25,1.03125 -1.34375,1.03125 -0.5,0 -0.890625,-0.296875 -1.125,-0.671875 -0.296875,-0.46875 -0.296875,-1.125 -0.296875,-1.484375 z m 0,0"
               id="id-207d0ff3-beba-4d52-bf85-75e3f8adae22" />
          </g>
          <g
             transform="translate(336.593, 134.765)"
             id="g6721">
            <path
               style="stroke:none"
               d="M 1.09375,-3.421875 V -0.75 c 0,0.4375 -0.109375,0.4375 -0.78125,0.4375 V 0 c 0.359375,-0.015625 0.859375,-0.03125 1.140625,-0.03125 0.25,0 0.765625,0.015625 1.109375,0.03125 v -0.3125 c -0.671875,0 -0.78125,0 -0.78125,-0.4375 V -2.59375 C 1.78125,-3.625 2.5,-4.1875 3.125,-4.1875 c 0.640625,0 0.75,0.53125 0.75,1.109375 V -0.75 c 0,0.4375 -0.109375,0.4375 -0.78125,0.4375 V 0 c 0.34375,-0.015625 0.859375,-0.03125 1.125,-0.03125 0.25,0 0.78125,0.015625 1.109375,0.03125 v -0.3125 c -0.515625,0 -0.765625,0 -0.765625,-0.296875 v -1.90625 c 0,-0.859375 0,-1.15625 -0.3125,-1.515625 -0.140625,-0.171875 -0.46875,-0.375 -1.046875,-0.375 C 2.46875,-4.40625 2,-3.984375 1.71875,-3.359375 V -4.40625 L 0.3125,-4.296875 v 0.3125 c 0.703125,0 0.78125,0.0625 0.78125,0.5625 z m 0,0"
               id="id-6d860cb3-176f-414b-b0b8-436d6eacb26c" />
          </g>
        </g>
        <g
           style="fill:#000000;fill-opacity:1"
           id="id-35d2db33-73aa-4f5a-8e07-78e04329a446">
          <g
             transform="translate(345.445, 134.765)"
             id="g6725">
            <path
               style="stroke:none"
               d="m 2.21875,-1.71875 c -0.875,0 -0.875,-1 -0.875,-1.21875 0,-0.265625 0.015625,-0.59375 0.15625,-0.84375 0.078125,-0.109375 0.3125,-0.390625 0.71875,-0.390625 0.859375,0 0.859375,0.984375 0.859375,1.21875 0,0.265625 0,0.59375 -0.15625,0.84375 C 2.84375,-2 2.609375,-1.71875 2.21875,-1.71875 Z M 1.0625,-1.328125 c 0,-0.03125 0,-0.265625 0.15625,-0.46875 0.390625,0.28125 0.8125,0.3125 1,0.3125 0.921875,0 1.609375,-0.6875 1.609375,-1.453125 0,-0.375 -0.15625,-0.734375 -0.40625,-0.96875 C 3.78125,-4.25 4.140625,-4.296875 4.3125,-4.296875 c 0.03125,0 0.078125,0 0.109375,0.015625 C 4.3125,-4.25 4.25,-4.140625 4.25,-4.015625 c 0,0.171875 0.140625,0.28125 0.296875,0.28125 0.09375,0 0.28125,-0.0625 0.28125,-0.296875 0,-0.171875 -0.109375,-0.484375 -0.5,-0.484375 -0.203125,0 -0.640625,0.0625 -1.0625,0.46875 C 2.84375,-4.375 2.4375,-4.40625 2.21875,-4.40625 c -0.9375,0 -1.625,0.6875 -1.625,1.453125 0,0.4375 0.21875,0.8125 0.46875,1.03125 -0.125,0.140625 -0.3125,0.46875 -0.3125,0.828125 0,0.3125 0.140625,0.6875 0.453125,0.890625 -0.609375,0.15625 -0.921875,0.59375 -0.921875,0.984375 0,0.71875 0.984375,1.265625 2.203125,1.265625 1.171875,0 2.203125,-0.5 2.203125,-1.28125 0,-0.34375 -0.125,-0.859375 -0.640625,-1.140625 -0.53125,-0.265625 -1.109375,-0.265625 -1.71875,-0.265625 -0.25,0 -0.671875,0 -0.75,-0.015625 C 1.265625,-0.703125 1.0625,-1 1.0625,-1.328125 Z M 2.5,1.828125 c -1.015625,0 -1.703125,-0.515625 -1.703125,-1.046875 0,-0.453125 0.375,-0.828125 0.8125,-0.84375 h 0.59375 c 0.859375,0 1.96875,0 1.96875,0.84375 0,0.546875 -0.703125,1.046875 -1.671875,1.046875 z m 0,0"
               id="id-58360336-b533-430d-b7e6-ae24e46fd0d4" />
          </g>
          <g
             transform="translate(350.427, 134.765)"
             id="g6728">
            <path
               style="stroke:none"
               d="M 1.671875,-3.3125 V -4.40625 L 0.28125,-4.296875 v 0.3125 c 0.703125,0 0.78125,0.0625 0.78125,0.5625 V -0.75 c 0,0.4375 -0.109375,0.4375 -0.78125,0.4375 V 0 c 0.390625,-0.015625 0.859375,-0.03125 1.140625,-0.03125 0.390625,0 0.859375,0 1.265625,0.03125 V -0.3125 H 2.46875 c -0.734375,0 -0.75,-0.109375 -0.75,-0.46875 V -2.3125 c 0,-0.984375 0.421875,-1.875 1.171875,-1.875 0.0625,0 0.09375,0 0.109375,0.015625 -0.03125,0 -0.234375,0.125 -0.234375,0.390625 0,0.265625 0.21875,0.421875 0.4375,0.421875 0.171875,0 0.421875,-0.125 0.421875,-0.4375 0,-0.3125 -0.3125,-0.609375 -0.734375,-0.609375 -0.734375,0 -1.09375,0.671875 -1.21875,1.09375 z m 0,0"
               id="id-cb16af57-e53f-46ba-a0df-5ca2bb77d812" />
          </g>
          <g
             transform="translate(354.329, 134.765)"
             id="g6731">
            <path
               style="stroke:none"
               d="M 4.6875,-2.140625 C 4.6875,-3.40625 3.703125,-4.46875 2.5,-4.46875 c -1.25,0 -2.21875,1.09375 -2.21875,2.328125 0,1.296875 1.03125,2.25 2.203125,2.25 1.203125,0 2.203125,-0.984375 2.203125,-2.25 z m -2.1875,2 c -0.4375,0 -0.875,-0.203125 -1.140625,-0.671875 -0.25,-0.4375 -0.25,-1.046875 -0.25,-1.40625 0,-0.390625 0,-0.921875 0.234375,-1.359375 C 1.609375,-4.03125 2.078125,-4.25 2.484375,-4.25 c 0.4375,0 0.859375,0.21875 1.125,0.65625 0.265625,0.421875 0.265625,1 0.265625,1.375 0,0.359375 0,0.90625 -0.21875,1.34375 C 3.421875,-0.421875 2.984375,-0.140625 2.5,-0.140625 Z m 0,0"
               id="id-f14062af-aea4-49e6-b367-996f626c0c21" />
          </g>
          <g
             transform="translate(359.31, 134.765)"
             id="g6734">
            <path
               style="stroke:none"
               d="m 3.09375,-4.171875 c 0.890625,-0.25 1.328125,-0.859375 1.328125,-1.4375 0,-0.75 -0.71875,-1.421875 -1.703125,-1.421875 -0.78125,0 -1.65625,0.484375 -1.65625,1.484375 v 1.25 H 0.28125 v 0.3125 H 1.0625 V -0.75 c 0,0.4375 -0.109375,0.4375 -0.78125,0.4375 V 0 C 0.46875,-0.015625 1.125,-0.03125 1.25,-0.03125 c 0.109375,0 0.28125,0 0.46875,0.03125 v -5.5625 c 0,-1.140625 0.796875,-1.25 1,-1.25 0.40625,0 0.953125,0.3125 0.953125,1.1875 0,0.640625 -0.359375,1.25 -1.234375,1.328125 -0.09375,0.015625 -0.171875,0.015625 -0.171875,0.109375 0,0.015625 0,0.09375 0.09375,0.109375 1.1875,0.09375 1.59375,1.3125 1.59375,2.359375 0,1.28125 -0.65625,1.609375 -1.03125,1.609375 -0.09375,0 -0.3125,-0.015625 -0.5,-0.1875 C 2.53125,-0.3125 2.71875,-0.421875 2.71875,-0.65625 2.71875,-0.875 2.5625,-1.015625 2.359375,-1.015625 2.1875,-1.015625 2,-0.890625 2,-0.640625 c 0,0.390625 0.375,0.75 0.953125,0.75 0.859375,0 1.734375,-0.734375 1.734375,-1.84375 0,-0.71875 -0.3125,-1.921875 -1.59375,-2.4375 z m 0,0"
               id="id-f92c0bf9-0ed2-49ec-833c-d298f1a3f402" />
          </g>
          <g
             transform="translate(364.292, 134.765)"
             id="g6737">
            <path
               style="stroke:none"
               d="M 1.109375,-2.515625 C 1.171875,-4 2.015625,-4.25 2.359375,-4.25 c 1.015625,0 1.125,1.34375 1.125,1.734375 z m 0,0.21875 h 2.78125 c 0.21875,0 0.25,0 0.25,-0.21875 0,-0.984375 -0.546875,-1.953125 -1.78125,-1.953125 -1.15625,0 -2.078125,1.03125 -2.078125,2.28125 0,1.328125 1.046875,2.296875 2.1875,2.296875 C 3.6875,0.109375 4.140625,-1 4.140625,-1.1875 4.140625,-1.28125 4.0625,-1.3125 4,-1.3125 c -0.078125,0 -0.109375,0.0625 -0.125,0.140625 -0.34375,1.03125 -1.25,1.03125 -1.34375,1.03125 -0.5,0 -0.890625,-0.296875 -1.125,-0.671875 -0.296875,-0.46875 -0.296875,-1.125 -0.296875,-1.484375 z m 0,0"
               id="id-509605f1-f72d-4294-bdd3-fec3d5574303" />
          </g>
          <g
             transform="translate(368.719, 134.765)"
             id="g6740">
            <path
               style="stroke:none"
               d="M 1.09375,-3.421875 V -0.75 c 0,0.4375 -0.109375,0.4375 -0.78125,0.4375 V 0 c 0.359375,-0.015625 0.859375,-0.03125 1.140625,-0.03125 0.25,0 0.765625,0.015625 1.109375,0.03125 v -0.3125 c -0.671875,0 -0.78125,0 -0.78125,-0.4375 V -2.59375 C 1.78125,-3.625 2.5,-4.1875 3.125,-4.1875 c 0.640625,0 0.75,0.53125 0.75,1.109375 V -0.75 c 0,0.4375 -0.109375,0.4375 -0.78125,0.4375 V 0 c 0.34375,-0.015625 0.859375,-0.03125 1.125,-0.03125 0.25,0 0.78125,0.015625 1.109375,0.03125 v -0.3125 c -0.515625,0 -0.765625,0 -0.765625,-0.296875 v -1.90625 c 0,-0.859375 0,-1.15625 -0.3125,-1.515625 -0.140625,-0.171875 -0.46875,-0.375 -1.046875,-0.375 C 2.46875,-4.40625 2,-3.984375 1.71875,-3.359375 V -4.40625 L 0.3125,-4.296875 v 0.3125 c 0.703125,0 0.78125,0.0625 0.78125,0.5625 z m 0,0"
               id="id-37b08c20-a213-4a77-88e5-c0e958c5082b" />
          </g>
        </g>
        <g
           style="fill:#000000;fill-opacity:1"
           id="id-efbe9eda-cf38-45cc-ace3-4f9b575fe4e6">
          <g
             transform="translate(377.572, 134.765)"
             id="g6744">
            <path
               style="stroke:none"
               d="m 3.484375,-3.875 -1.28125,-0.296875 c -0.625,-0.15625 -1,-0.6875 -1,-1.265625 0,-0.703125 0.53125,-1.3125 1.3125,-1.3125 1.65625,0 1.875,1.640625 1.9375,2.078125 0.015625,0.0625 0.015625,0.125 0.125,0.125 0.125,0 0.125,-0.046875 0.125,-0.234375 v -2 c 0,-0.171875 0,-0.25 -0.109375,-0.25 -0.0625,0 -0.078125,0.015625 -0.140625,0.140625 l -0.359375,0.5625 C 3.796875,-6.625 3.390625,-7.03125 2.5,-7.03125 c -1.109375,0 -1.9375,0.875 -1.9375,1.9375 0,0.828125 0.53125,1.5625 1.296875,1.828125 0.109375,0.03125 0.625,0.15625 1.328125,0.328125 0.265625,0.0625 0.5625,0.140625 0.84375,0.5 0.203125,0.265625 0.3125,0.59375 0.3125,0.921875 0,0.703125 -0.5,1.421875 -1.34375,1.421875 -0.28125,0 -1.046875,-0.046875 -1.578125,-0.53125 C 0.84375,-1.171875 0.8125,-1.796875 0.8125,-2.15625 0.796875,-2.265625 0.71875,-2.265625 0.6875,-2.265625 c -0.125,0 -0.125,0.078125 -0.125,0.25 v 2 c 0,0.171875 0,0.234375 0.109375,0.234375 0.0625,0 0.078125,-0.015625 0.140625,-0.125 0,-0.015625 0.03125,-0.046875 0.359375,-0.578125 0.3125,0.34375 0.953125,0.703125 1.84375,0.703125 1.15625,0 1.953125,-0.96875 1.953125,-2.078125 0,-0.984375 -0.65625,-1.8125 -1.484375,-2.015625 z m 0,0"
               id="id-c7403280-e022-44f7-9669-713d030dde1b" />
          </g>
          <g
             transform="translate(383.107, 134.765)"
             id="g6747">
            <path
               style="stroke:none"
               d="m 4.140625,-3.34375 c 0.25,-0.640625 0.765625,-0.640625 0.921875,-0.640625 v -0.3125 c -0.234375,0.015625 -0.515625,0.03125 -0.75,0.03125 -0.171875,0 -0.640625,-0.015625 -0.859375,-0.03125 v 0.3125 c 0.3125,0 0.46875,0.171875 0.46875,0.421875 0,0.109375 -0.015625,0.125 -0.0625,0.25 L 2.84375,-0.875 1.75,-3.546875 C 1.703125,-3.65625 1.6875,-3.6875 1.6875,-3.734375 c 0,-0.25 0.359375,-0.25 0.5625,-0.25 v -0.3125 c -0.265625,0.015625 -0.921875,0.03125 -1.09375,0.03125 -0.265625,0 -0.671875,-0.015625 -0.96875,-0.03125 v 0.3125 c 0.484375,0 0.671875,0 0.8125,0.34375 L 2.5,0 C 2.4375,0.125 2.296875,0.453125 2.25,0.59375 2.03125,1.140625 1.75,1.828125 1.109375,1.828125 c -0.046875,0 -0.28125,0 -0.46875,-0.1875 0.3125,-0.03125 0.390625,-0.25 0.390625,-0.421875 0,-0.25 -0.1875,-0.40625 -0.421875,-0.40625 -0.203125,0 -0.421875,0.125 -0.421875,0.421875 0,0.453125 0.421875,0.8125 0.921875,0.8125 0.625,0 1.03125,-0.578125 1.265625,-1.140625 z m 0,0"
               id="id-952be0dd-0d6e-4a1d-a17f-7fa189803c7b" />
          </g>
          <g
             transform="translate(388.365, 134.765)"
             id="g6750">
            <path
               style="stroke:none"
               d="M 1.765625,-6.921875 0.328125,-6.8125 V -6.5 c 0.703125,0 0.78125,0.0625 0.78125,0.5625 V -0.75 c 0,0.4375 -0.109375,0.4375 -0.78125,0.4375 V 0 C 0.65625,-0.015625 1.1875,-0.03125 1.4375,-0.03125 c 0.25,0 0.734375,0.015625 1.109375,0.03125 v -0.3125 c -0.671875,0 -0.78125,0 -0.78125,-0.4375 z m 0,0"
               id="id-a3073a0a-b7e6-4ca9-99d4-b681c473c064" />
          </g>
          <g
             transform="translate(391.133, 134.765)"
             id="g6753">
            <path
               style="stroke:none"
               d="m 1.71875,-3.984375 h 1.4375 v -0.3125 H 1.71875 V -6.125 h -0.25 c 0,0.8125 -0.296875,1.875 -1.28125,1.921875 v 0.21875 h 0.84375 v 2.75 c 0,1.21875 0.9375,1.34375 1.296875,1.34375 0.703125,0 0.984375,-0.703125 0.984375,-1.34375 v -0.5625 h -0.25 V -1.25 c 0,0.734375 -0.296875,1.109375 -0.671875,1.109375 -0.671875,0 -0.671875,-0.90625 -0.671875,-1.078125 z m 0,0"
               id="id-516ae32c-2226-4920-ab9d-a259a67b3d38" />
          </g>
          <g
             transform="translate(395.007, 134.765)"
             id="g6756">
            <path
               style="stroke:none"
               d="M 1.109375,-2.515625 C 1.171875,-4 2.015625,-4.25 2.359375,-4.25 c 1.015625,0 1.125,1.34375 1.125,1.734375 z m 0,0.21875 h 2.78125 c 0.21875,0 0.25,0 0.25,-0.21875 0,-0.984375 -0.546875,-1.953125 -1.78125,-1.953125 -1.15625,0 -2.078125,1.03125 -2.078125,2.28125 0,1.328125 1.046875,2.296875 2.1875,2.296875 C 3.6875,0.109375 4.140625,-1 4.140625,-1.1875 4.140625,-1.28125 4.0625,-1.3125 4,-1.3125 c -0.078125,0 -0.109375,0.0625 -0.125,0.140625 -0.34375,1.03125 -1.25,1.03125 -1.34375,1.03125 -0.5,0 -0.890625,-0.296875 -1.125,-0.671875 -0.296875,-0.46875 -0.296875,-1.125 -0.296875,-1.484375 z m 0,0"
               id="id-4e9f1084-36c9-4fee-b6fb-2215d6ed236e" />
          </g>
          <g
             transform="translate(399.435, 134.765)"
             id="g6759">
            <path
               style="stroke:none"
               d="M 1.671875,-3.3125 V -4.40625 L 0.28125,-4.296875 v 0.3125 c 0.703125,0 0.78125,0.0625 0.78125,0.5625 V -0.75 c 0,0.4375 -0.109375,0.4375 -0.78125,0.4375 V 0 c 0.390625,-0.015625 0.859375,-0.03125 1.140625,-0.03125 0.390625,0 0.859375,0 1.265625,0.03125 V -0.3125 H 2.46875 c -0.734375,0 -0.75,-0.109375 -0.75,-0.46875 V -2.3125 c 0,-0.984375 0.421875,-1.875 1.171875,-1.875 0.0625,0 0.09375,0 0.109375,0.015625 -0.03125,0 -0.234375,0.125 -0.234375,0.390625 0,0.265625 0.21875,0.421875 0.4375,0.421875 0.171875,0 0.421875,-0.125 0.421875,-0.4375 0,-0.3125 -0.3125,-0.609375 -0.734375,-0.609375 -0.734375,0 -1.09375,0.671875 -1.21875,1.09375 z m 0,0"
               id="id-d2ac9ef2-035b-4463-b54b-1baa754dcf2b" />
          </g>
        </g>
        <g
           style="fill:#000000;fill-opacity:1"
           id="id-2fdc1a5b-346e-4fed-9e9a-20f5f2f58e0c">
          <g
             transform="translate(406.665, 134.765)"
             id="g6763">
            <path
               style="stroke:none"
               d="M 0.34375,-6.8125 V -6.5 h 0.25 c 0.765625,0 0.78125,0.109375 0.78125,0.46875 v 5.25 c 0,0.359375 -0.015625,0.46875 -0.78125,0.46875 h -0.25 V 0 H 4 C 5.671875,0 7.046875,-1.46875 7.046875,-3.34375 7.046875,-5.25 5.703125,-6.8125 4,-6.8125 Z m 2.375,6.5 C 2.25,-0.3125 2.234375,-0.375 2.234375,-0.703125 V -6.09375 C 2.234375,-6.4375 2.25,-6.5 2.71875,-6.5 h 1 c 0.625,0 1.3125,0.21875 1.8125,0.921875 0.4375,0.59375 0.515625,1.453125 0.515625,2.234375 0,1.09375 -0.1875,1.703125 -0.546875,2.1875 -0.203125,0.265625 -0.765625,0.84375 -1.765625,0.84375 z m 0,0"
               id="id-cfbe957f-76f1-4c4f-8d18-10094f4c2731" />
          </g>
          <g
             transform="translate(414.275, 134.765)"
             id="g6766">
            <path
               style="stroke:none"
               d="M 1.109375,-2.515625 C 1.171875,-4 2.015625,-4.25 2.359375,-4.25 c 1.015625,0 1.125,1.34375 1.125,1.734375 z m 0,0.21875 h 2.78125 c 0.21875,0 0.25,0 0.25,-0.21875 0,-0.984375 -0.546875,-1.953125 -1.78125,-1.953125 -1.15625,0 -2.078125,1.03125 -2.078125,2.28125 0,1.328125 1.046875,2.296875 2.1875,2.296875 C 3.6875,0.109375 4.140625,-1 4.140625,-1.1875 4.140625,-1.28125 4.0625,-1.3125 4,-1.3125 c -0.078125,0 -0.109375,0.0625 -0.125,0.140625 -0.34375,1.03125 -1.25,1.03125 -1.34375,1.03125 -0.5,0 -0.890625,-0.296875 -1.125,-0.671875 -0.296875,-0.46875 -0.296875,-1.125 -0.296875,-1.484375 z m 0,0"
               id="id-15f3c753-586d-4de6-99f2-dcbdf854f4cf" />
          </g>
          <g
             transform="translate(418.702, 134.765)"
             id="g6769">
            <path
               style="stroke:none"
               d="M 1.765625,-4.40625 0.375,-4.296875 v 0.3125 c 0.640625,0 0.734375,0.0625 0.734375,0.546875 V -0.75 c 0,0.4375 -0.109375,0.4375 -0.78125,0.4375 V 0 C 0.640625,-0.015625 1.1875,-0.03125 1.421875,-0.03125 1.78125,-0.03125 2.125,-0.015625 2.46875,0 v -0.3125 c -0.671875,0 -0.703125,-0.046875 -0.703125,-0.4375 z m 0.03125,-1.734375 c 0,-0.3125 -0.234375,-0.53125 -0.515625,-0.53125 -0.3125,0 -0.53125,0.265625 -0.53125,0.53125 0,0.265625 0.21875,0.53125 0.53125,0.53125 0.28125,0 0.515625,-0.21875 0.515625,-0.53125 z m 0,0"
               id="id-e0704847-4d1c-4768-924f-8d1f6718aa8d" />
          </g>
          <g
             transform="translate(421.47, 134.765)"
             id="g6772">
            <path
               style="stroke:none"
               d="m 1.171875,-2.171875 c 0,-1.625 0.8125,-2.046875 1.34375,-2.046875 0.09375,0 0.71875,0.015625 1.0625,0.375 -0.40625,0.03125 -0.46875,0.328125 -0.46875,0.453125 0,0.265625 0.1875,0.453125 0.453125,0.453125 0.265625,0 0.46875,-0.15625 0.46875,-0.46875 0,-0.671875 -0.765625,-1.0625 -1.53125,-1.0625 -1.25,0 -2.15625,1.078125 -2.15625,2.3125 0,1.28125 0.984375,2.265625 2.140625,2.265625 1.328125,0 1.65625,-1.203125 1.65625,-1.296875 0,-0.09375 -0.109375,-0.09375 -0.140625,-0.09375 -0.078125,0 -0.109375,0.03125 -0.125,0.09375 -0.28125,0.921875 -0.9375,1.046875 -1.296875,1.046875 -0.53125,0 -1.40625,-0.421875 -1.40625,-2.03125 z m 0,0"
               id="id-9b851913-fdc9-4976-bd23-f271d057dde5" />
          </g>
        </g>
        <g
           style="fill:#000000;fill-opacity:1"
           id="id-93d353df-c554-4393-ae37-c9d7c86972c8">
          <g
             transform="translate(425.618, 134.765)"
             id="g6776">
            <path
               style="stroke:none"
               d="m 1.09375,-0.75 c 0,0.4375 -0.109375,0.4375 -0.78125,0.4375 V 0 c 0.359375,-0.015625 0.859375,-0.03125 1.140625,-0.03125 0.25,0 0.765625,0.015625 1.109375,0.03125 v -0.3125 c -0.671875,0 -0.78125,0 -0.78125,-0.4375 V -2.59375 C 1.78125,-3.625 2.5,-4.1875 3.125,-4.1875 c 0.640625,0 0.75,0.53125 0.75,1.109375 V -0.75 c 0,0.4375 -0.109375,0.4375 -0.78125,0.4375 V 0 c 0.34375,-0.015625 0.859375,-0.03125 1.125,-0.03125 0.25,0 0.78125,0.015625 1.109375,0.03125 v -0.3125 c -0.515625,0 -0.765625,0 -0.765625,-0.296875 v -1.90625 c 0,-0.859375 0,-1.15625 -0.3125,-1.515625 -0.140625,-0.171875 -0.46875,-0.375 -1.046875,-0.375 -0.84375,0 -1.28125,0.59375 -1.453125,0.984375 v -3.5 L 0.3125,-6.8125 V -6.5 c 0.703125,0 0.78125,0.0625 0.78125,0.5625 z m 0,0"
               id="id-76142c16-8ffe-4632-9370-2e0e55a890c2" />
          </g>
          <g
             transform="translate(431.154, 134.765)"
             id="g6779">
            <path
               style="stroke:none"
               d="m 1.90625,-0.53125 c 0,-0.28125 -0.234375,-0.53125 -0.515625,-0.53125 -0.296875,0 -0.53125,0.25 -0.53125,0.53125 C 0.859375,-0.234375 1.09375,0 1.390625,0 1.671875,0 1.90625,-0.234375 1.90625,-0.53125 Z m 0,0"
               id="id-225a5d3f-34cd-43a9-b9c0-b6123e38f9f5" />
          </g>
        </g>
      </g>
    </g>
  </g>
</svg>
