<?xml version="1.0" encoding="UTF-8" standalone="no"?>
<!-- Created with Inkscape (http://www.inkscape.org/) -->

<svg
   width="210mm"
   height="297mm"
   viewBox="0 0 210 297"
   version="1.1"
   id="svg1"
   inkscape:version="1.4 (1:1.4+202410161351+e7c3feb100)"
   sodipodi:docname="original.svg"
   xmlns:inkscape="http://www.inkscape.org/namespaces/inkscape"
   xmlns:sodipodi="http://sodipodi.sourceforge.net/DTD/sodipodi-0.dtd"
   xmlns="http://www.w3.org/2000/svg"
   xmlns:svg="http://www.w3.org/2000/svg"
   xmlns:ns7="http://www.iki.fi/pav/software/textext/">
  <sodipodi:namedview
     id="namedview1"
     pagecolor="#ffffff"
     bordercolor="#000000"
     borderopacity="0.25"
     inkscape:showpageshadow="2"
     inkscape:pageopacity="0.0"
     inkscape:pagecheckerboard="0"
     inkscape:deskcolor="#d1d1d1"
     inkscape:document-units="mm"
     inkscape:zoom="0.72426347"
     inkscape:cx="396.95499"
     inkscape:cy="561.25984"
     inkscape:window-width="1920"
     inkscape:window-height="1022"
     inkscape:window-x="0"
     inkscape:window-y="0"
     inkscape:window-maximized="1"
     inkscape:current-layer="layer1" />
  <defs
     id="defs1" />
  <g
     inkscape:label="Layer 1"
     inkscape:groupmode="layer"
     id="layer1">
    <g
       transform="matrix(0.24523921,0.25359426,-0.25359426,0.24523921,101.21414,138.48305)"
       ns7:version="1.11.0"
       ns7:texconverter="pdflatex"
       ns7:pdfconverter="inkscape"
       ns7:text="\\[\r\nw = \\sqrt{\\frac{x + y}{z}}\r\n\\]"
       ns7:preamble="/home/winkler/.config/inkscape/extensions/textext/default_packages.tex"
       ns7:scale="1.0"
       ns7:alignment="middle center"
       ns7:stroke-to-path="0"
       ns7:inkscapeversion="1.4"
       ns7:jacobian_sqrt="0.352778"
       id="content"
       style="fill:#ff0000">
      <defs
         id="id-95859c62-4001-4f13-854d-f931121a0e50">
        <g
           id="id-389b69b0-5c80-4cd4-871a-084c575f6a57">
          <g
             id="id-ef3688fc-e1eb-435a-8a4e-ee101c70c647">
            <path
               d="M 4.609375,-3.375 C 4.65625,-3.59375 4.75,-3.96875 4.75,-4.03125 c 0,-0.171875 -0.140625,-0.265625 -0.28125,-0.265625 -0.125,0 -0.296875,0.078125 -0.375,0.28125 -0.03125,0.0625 -0.5,1.96875 -0.5625,2.234375 C 3.453125,-1.484375 3.4375,-1.3125 3.4375,-1.125 c 0,0.109375 0,0.125 0.015625,0.171875 -0.234375,0.53125 -0.53125,0.84375 -0.921875,0.84375 -0.796875,0 -0.796875,-0.734375 -0.796875,-0.90625 0,-0.3125 0.046875,-0.703125 0.515625,-1.9375 0.109375,-0.296875 0.171875,-0.4375 0.171875,-0.640625 0,-0.4375 -0.328125,-0.8125 -0.8125,-0.8125 -0.953125,0 -1.3125,1.453125 -1.3125,1.53125 0,0.109375 0.09375,0.109375 0.109375,0.109375 0.109375,0 0.109375,-0.03125 0.15625,-0.1875 C 0.84375,-3.875 1.21875,-4.1875 1.578125,-4.1875 c 0.09375,0 0.25,0.015625 0.25,0.328125 0,0.25 -0.109375,0.53125 -0.1875,0.703125 -0.4375,1.171875 -0.546875,1.625 -0.546875,2.015625 0,0.90625 0.65625,1.25 1.40625,1.25 0.171875,0 0.640625,0 1.03125,-0.703125 0.265625,0.640625 0.953125,0.703125 1.25,0.703125 0.75,0 1.1875,-0.625 1.453125,-1.21875 0.328125,-0.78125 0.65625,-2.125 0.65625,-2.59375 0,-0.546875 -0.265625,-0.703125 -0.4375,-0.703125 -0.25,0 -0.5,0.265625 -0.5,0.484375 0,0.125 0.0625,0.1875 0.140625,0.265625 0.109375,0.109375 0.359375,0.359375 0.359375,0.84375 0,0.34375 -0.28125,1.3125 -0.546875,1.828125 -0.25,0.53125 -0.609375,0.875 -1.09375,0.875 -0.46875,0 -0.734375,-0.296875 -0.734375,-0.875 0,-0.265625 0.0625,-0.578125 0.109375,-0.71875 z m 0,0"
               id="id-ed1bdb55-ee95-4e86-8380-bcd41a837739" />
          </g>
          <g
             id="id-ddf28fb8-eaba-4e01-8375-b3d5038a7a6d">
            <path
               d="M 3.328125,-3.015625 C 3.390625,-3.265625 3.625,-4.1875 4.3125,-4.1875 c 0.046875,0 0.296875,0 0.5,0.125 C 4.53125,-4 4.34375,-3.765625 4.34375,-3.515625 c 0,0.15625 0.109375,0.34375 0.375,0.34375 0.21875,0 0.53125,-0.171875 0.53125,-0.578125 0,-0.515625 -0.578125,-0.65625 -0.921875,-0.65625 -0.578125,0 -0.921875,0.53125 -1.046875,0.75 -0.25,-0.65625 -0.78125,-0.75 -1.078125,-0.75 -1.03125,0 -1.609375,1.28125 -1.609375,1.53125 0,0.109375 0.109375,0.109375 0.125,0.109375 0.078125,0 0.109375,-0.03125 0.125,-0.109375 0.34375,-1.0625 1,-1.3125 1.34375,-1.3125 0.1875,0 0.53125,0.09375 0.53125,0.671875 0,0.3125 -0.171875,0.96875 -0.53125,2.375 -0.15625,0.609375 -0.515625,1.03125 -0.953125,1.03125 -0.0625,0 -0.28125,0 -0.5,-0.125 0.25,-0.0625 0.46875,-0.265625 0.46875,-0.546875 0,-0.265625 -0.21875,-0.34375 -0.359375,-0.34375 -0.3125,0 -0.546875,0.25 -0.546875,0.578125 0,0.453125 0.484375,0.65625 0.921875,0.65625 0.671875,0 1.03125,-0.703125 1.046875,-0.75 0.125,0.359375 0.484375,0.75 1.078125,0.75 1.03125,0 1.59375,-1.28125 1.59375,-1.53125 0,-0.109375 -0.078125,-0.109375 -0.109375,-0.109375 -0.09375,0 -0.109375,0.046875 -0.140625,0.109375 -0.328125,1.078125 -1,1.3125 -1.3125,1.3125 -0.390625,0 -0.546875,-0.3125 -0.546875,-0.65625 0,-0.21875 0.046875,-0.4375 0.15625,-0.875 z m 0,0"
               id="id-018b723a-8fe9-4a4a-891b-06225515d944" />
          </g>
          <g
             id="id-9561459d-26e8-4be8-a9d1-1bd8b55f85c9">
            <path
               d="m 4.84375,-3.796875 c 0.046875,-0.140625 0.046875,-0.15625 0.046875,-0.234375 0,-0.171875 -0.140625,-0.265625 -0.296875,-0.265625 -0.09375,0 -0.25,0.0625 -0.34375,0.203125 -0.015625,0.0625 -0.109375,0.359375 -0.140625,0.546875 -0.078125,0.25 -0.140625,0.53125 -0.203125,0.796875 l -0.453125,1.796875 c -0.03125,0.140625 -0.46875,0.84375 -1.125,0.84375 -0.5,0 -0.609375,-0.4375 -0.609375,-0.8125 C 1.71875,-1.375 1.890625,-2 2.21875,-2.875 2.375,-3.28125 2.421875,-3.390625 2.421875,-3.59375 c 0,-0.4375 -0.3125,-0.8125 -0.8125,-0.8125 -0.953125,0 -1.3125,1.453125 -1.3125,1.53125 0,0.109375 0.09375,0.109375 0.109375,0.109375 0.109375,0 0.109375,-0.03125 0.15625,-0.1875 0.28125,-0.9375 0.671875,-1.234375 1.015625,-1.234375 0.078125,0 0.25,0 0.25,0.3125 0,0.25 -0.109375,0.515625 -0.171875,0.703125 -0.40625,1.0625 -0.578125,1.625 -0.578125,2.09375 0,0.890625 0.625,1.1875 1.21875,1.1875 0.390625,0 0.71875,-0.171875 1,-0.453125 -0.125,0.515625 -0.25,1.015625 -0.640625,1.546875 -0.265625,0.328125 -0.640625,0.625 -1.09375,0.625 -0.140625,0 -0.59375,-0.03125 -0.765625,-0.421875 0.15625,0 0.296875,0 0.421875,-0.125 C 1.328125,1.203125 1.421875,1.0625 1.421875,0.875 1.421875,0.5625 1.15625,0.53125 1.0625,0.53125 0.828125,0.53125 0.5,0.6875 0.5,1.171875 c 0,0.5 0.4375,0.875 1.0625,0.875 1.015625,0 2.046875,-0.90625 2.328125,-2.03125 z m 0,0"
               id="id-6644b7db-e39a-43bf-be82-c93a8a7be2bb" />
          </g>
          <g
             id="id-e2efcc47-e376-4835-9cc7-243fc8424a2b">
            <path
               d="m 1.328125,-0.828125 c 0.53125,-0.578125 0.828125,-0.828125 1.1875,-1.140625 0,0 0.609375,-0.53125 0.96875,-0.890625 C 4.4375,-3.78125 4.65625,-4.265625 4.65625,-4.3125 c 0,-0.09375 -0.09375,-0.09375 -0.109375,-0.09375 -0.078125,0 -0.09375,0.015625 -0.15625,0.109375 -0.296875,0.484375 -0.5,0.640625 -0.734375,0.640625 -0.25,0 -0.359375,-0.15625 -0.515625,-0.328125 -0.1875,-0.21875 -0.359375,-0.421875 -0.6875,-0.421875 -0.75,0 -1.203125,0.921875 -1.203125,1.140625 0,0.046875 0.03125,0.109375 0.109375,0.109375 0.09375,0 0.109375,-0.046875 0.140625,-0.109375 0.1875,-0.46875 0.765625,-0.46875 0.84375,-0.46875 0.203125,0 0.390625,0.0625 0.625,0.140625 0.40625,0.15625 0.515625,0.15625 0.765625,0.15625 -0.359375,0.421875 -1.1875,1.140625 -1.375,1.296875 l -0.90625,0.84375 C 0.78125,-0.625 0.421875,-0.0625 0.421875,0.015625 c 0,0.09375 0.109375,0.09375 0.125,0.09375 0.078125,0 0.09375,-0.015625 0.15625,-0.125 0.234375,-0.359375 0.53125,-0.625 0.859375,-0.625 0.21875,0 0.328125,0.09375 0.578125,0.375 0.15625,0.21875 0.34375,0.375 0.625,0.375 1,0 1.578125,-1.265625 1.578125,-1.53125 0,-0.046875 -0.046875,-0.109375 -0.125,-0.109375 -0.09375,0 -0.109375,0.0625 -0.140625,0.140625 C 3.84375,-0.75 3.203125,-0.5625 2.875,-0.5625 c -0.1875,0 -0.375,-0.0625 -0.578125,-0.125 -0.34375,-0.125 -0.5,-0.171875 -0.703125,-0.171875 -0.015625,0 -0.171875,0 -0.265625,0.03125 z m 0,0"
               id="id-cc1b4c93-b0c1-4ce2-a78c-fd965e52704e" />
          </g>
          <g
             id="id-7cdcf52e-e29b-4a08-8a7c-42076d83de56">
            <path
               d="m 6.84375,-3.265625 c 0.15625,0 0.34375,0 0.34375,-0.1875 C 7.1875,-3.65625 7,-3.65625 6.859375,-3.65625 h -5.96875 c -0.140625,0 -0.328125,0 -0.328125,0.203125 0,0.1875 0.1875,0.1875 0.328125,0.1875 z m 0.015625,1.9375 c 0.140625,0 0.328125,0 0.328125,-0.203125 0,-0.1875 -0.1875,-0.1875 -0.34375,-0.1875 H 0.890625 c -0.140625,0 -0.328125,0 -0.328125,0.1875 0,0.203125 0.1875,0.203125 0.328125,0.203125 z m 0,0"
               id="id-ab270afb-9897-47a3-9d8a-d510b8528c48" />
          </g>
          <g
             id="id-4a54a1eb-2f2b-4388-9f40-aba78625cb55">
            <path
               d="m 4.078125,-2.296875 h 2.78125 C 7,-2.296875 7.1875,-2.296875 7.1875,-2.5 7.1875,-2.6875 7,-2.6875 6.859375,-2.6875 h -2.78125 v -2.796875 c 0,-0.140625 0,-0.328125 -0.203125,-0.328125 -0.203125,0 -0.203125,0.1875 -0.203125,0.328125 V -2.6875 h -2.78125 c -0.140625,0 -0.328125,0 -0.328125,0.1875 0,0.203125 0.1875,0.203125 0.328125,0.203125 h 2.78125 V 0.5 c 0,0.140625 0,0.328125 0.203125,0.328125 0.203125,0 0.203125,-0.1875 0.203125,-0.328125 z m 0,0"
               id="id-83590941-76cf-4413-a48c-52c447208b99" />
          </g>
          <g
             id="id-0926e28e-f04b-4897-bfa4-d88c78798aa7">
            <path
               d="M 4.640625,21.546875 2.484375,11.5625 1.171875,13.625 c -0.0625,0.07813 -0.0625,0.109375 -0.0625,0.109375 0,0.04687 0.125,0.15625 0.140625,0.15625 l 0.671875,-1.0625 2.3125,10.703125 c 0.328125,0 0.34375,0 0.40625,-0.265625 l 5.484375,-23.25 c 0.01563,-0.078125 0.04687,-0.171875 0.04687,-0.21875 0,-0.109375 -0.07813,-0.203125 -0.203125,-0.203125 -0.15625,0 -0.1875,0.140625 -0.21875,0.28125 z m 0,0"
               id="id-b1632f1c-b19a-429b-94b3-660b1ed4946d" />
          </g>
        </g>
      </defs>
      <g
         fill="#000000"
         fill-opacity="1"
         id="id-c0ec02dd-66dc-46d8-b554-79231280cdfd"
         transform="translate(-277.846,-136.152)"
         style="fill:#ff0000">
        <g
           transform="translate(277.549,151.908)"
           id="g1"
           style="fill:#ff0000">
          <path
             d="M 4.609375,-3.375 C 4.65625,-3.59375 4.75,-3.96875 4.75,-4.03125 c 0,-0.171875 -0.140625,-0.265625 -0.28125,-0.265625 -0.125,0 -0.296875,0.078125 -0.375,0.28125 -0.03125,0.0625 -0.5,1.96875 -0.5625,2.234375 C 3.453125,-1.484375 3.4375,-1.3125 3.4375,-1.125 c 0,0.109375 0,0.125 0.015625,0.171875 -0.234375,0.53125 -0.53125,0.84375 -0.921875,0.84375 -0.796875,0 -0.796875,-0.734375 -0.796875,-0.90625 0,-0.3125 0.046875,-0.703125 0.515625,-1.9375 0.109375,-0.296875 0.171875,-0.4375 0.171875,-0.640625 0,-0.4375 -0.328125,-0.8125 -0.8125,-0.8125 -0.953125,0 -1.3125,1.453125 -1.3125,1.53125 0,0.109375 0.09375,0.109375 0.109375,0.109375 0.109375,0 0.109375,-0.03125 0.15625,-0.1875 C 0.84375,-3.875 1.21875,-4.1875 1.578125,-4.1875 c 0.09375,0 0.25,0.015625 0.25,0.328125 0,0.25 -0.109375,0.53125 -0.1875,0.703125 -0.4375,1.171875 -0.546875,1.625 -0.546875,2.015625 0,0.90625 0.65625,1.25 1.40625,1.25 0.171875,0 0.640625,0 1.03125,-0.703125 0.265625,0.640625 0.953125,0.703125 1.25,0.703125 0.75,0 1.1875,-0.625 1.453125,-1.21875 0.328125,-0.78125 0.65625,-2.125 0.65625,-2.59375 0,-0.546875 -0.265625,-0.703125 -0.4375,-0.703125 -0.25,0 -0.5,0.265625 -0.5,0.484375 0,0.125 0.0625,0.1875 0.140625,0.265625 0.109375,0.109375 0.359375,0.359375 0.359375,0.84375 0,0.34375 -0.28125,1.3125 -0.546875,1.828125 -0.25,0.53125 -0.609375,0.875 -1.09375,0.875 -0.46875,0 -0.734375,-0.296875 -0.734375,-0.875 0,-0.265625 0.0625,-0.578125 0.109375,-0.71875 z m 0,0"
             id="id-a22b023b-8da1-4aad-bc81-94ef84335900"
             style="fill:#ff0000" />
        </g>
      </g>
      <g
         fill="#000000"
         fill-opacity="1"
         id="id-18f99437-8ce8-49fd-8947-fb61e33398ea"
         transform="translate(-277.846,-136.152)"
         style="fill:#ff0000">
        <g
           transform="translate(287.717,151.908)"
           id="g2"
           style="fill:#ff0000">
          <path
             d="m 6.84375,-3.265625 c 0.15625,0 0.34375,0 0.34375,-0.1875 C 7.1875,-3.65625 7,-3.65625 6.859375,-3.65625 h -5.96875 c -0.140625,0 -0.328125,0 -0.328125,0.203125 0,0.1875 0.1875,0.1875 0.328125,0.1875 z m 0.015625,1.9375 c 0.140625,0 0.328125,0 0.328125,-0.203125 0,-0.1875 -0.1875,-0.1875 -0.34375,-0.1875 H 0.890625 c -0.140625,0 -0.328125,0 -0.328125,0.1875 0,0.203125 0.1875,0.203125 0.328125,0.203125 z m 0,0"
             id="id-9962faec-3f3f-4526-a921-198e0818d0e2"
             style="fill:#ff0000" />
        </g>
      </g>
      <g
         fill="#000000"
         fill-opacity="1"
         id="id-0b7267e2-ab2b-4e70-b28f-f5b215f14295"
         transform="translate(-277.846,-136.152)"
         style="fill:#ff0000">
        <g
           transform="translate(298.233,136.558)"
           id="g3"
           style="fill:#ff0000">
          <path
             d="M 4.640625,21.546875 2.484375,11.5625 1.171875,13.625 c -0.0625,0.07813 -0.0625,0.109375 -0.0625,0.109375 0,0.04687 0.125,0.15625 0.140625,0.15625 l 0.671875,-1.0625 2.3125,10.703125 c 0.328125,0 0.34375,0 0.40625,-0.265625 l 5.484375,-23.25 c 0.01563,-0.078125 0.04687,-0.171875 0.04687,-0.21875 0,-0.109375 -0.07813,-0.203125 -0.203125,-0.203125 -0.15625,0 -0.1875,0.140625 -0.21875,0.28125 z m 0,0"
             id="id-61c97c55-3a83-47b6-b878-ccac43bb4c11"
             style="fill:#ff0000" />
        </g>
      </g>
      <path
         fill="#000000"
         d="m 30.349426,0.00862634 h 25.503907 v 0.398 H 30.349426 Z"
         id="id-1a6c6fa8-6201-4610-b447-6b25e96fc511"
         style="fill:#ff0000" />
      <g
         fill="#000000"
         fill-opacity="1"
         id="id-acfa0a80-a40e-4105-80cc-1fab4bda0328"
         transform="translate(-277.846,-136.152)"
         style="fill:#ff0000">
        <g
           transform="translate(309.391,145.168)"
           id="g4"
           style="fill:#ff0000">
          <path
             d="M 3.328125,-3.015625 C 3.390625,-3.265625 3.625,-4.1875 4.3125,-4.1875 c 0.046875,0 0.296875,0 0.5,0.125 C 4.53125,-4 4.34375,-3.765625 4.34375,-3.515625 c 0,0.15625 0.109375,0.34375 0.375,0.34375 0.21875,0 0.53125,-0.171875 0.53125,-0.578125 0,-0.515625 -0.578125,-0.65625 -0.921875,-0.65625 -0.578125,0 -0.921875,0.53125 -1.046875,0.75 -0.25,-0.65625 -0.78125,-0.75 -1.078125,-0.75 -1.03125,0 -1.609375,1.28125 -1.609375,1.53125 0,0.109375 0.109375,0.109375 0.125,0.109375 0.078125,0 0.109375,-0.03125 0.125,-0.109375 0.34375,-1.0625 1,-1.3125 1.34375,-1.3125 0.1875,0 0.53125,0.09375 0.53125,0.671875 0,0.3125 -0.171875,0.96875 -0.53125,2.375 -0.15625,0.609375 -0.515625,1.03125 -0.953125,1.03125 -0.0625,0 -0.28125,0 -0.5,-0.125 0.25,-0.0625 0.46875,-0.265625 0.46875,-0.546875 0,-0.265625 -0.21875,-0.34375 -0.359375,-0.34375 -0.3125,0 -0.546875,0.25 -0.546875,0.578125 0,0.453125 0.484375,0.65625 0.921875,0.65625 0.671875,0 1.03125,-0.703125 1.046875,-0.75 0.125,0.359375 0.484375,0.75 1.078125,0.75 1.03125,0 1.59375,-1.28125 1.59375,-1.53125 0,-0.109375 -0.078125,-0.109375 -0.109375,-0.109375 -0.09375,0 -0.109375,0.046875 -0.140625,0.109375 -0.328125,1.078125 -1,1.3125 -1.3125,1.3125 -0.390625,0 -0.546875,-0.3125 -0.546875,-0.65625 0,-0.21875 0.046875,-0.4375 0.15625,-0.875 z m 0,0"
             id="id-7f38d273-1d98-4e5e-a675-626ebb4e1f2f"
             style="fill:#ff0000" />
        </g>
      </g>
      <g
         fill="#000000"
         fill-opacity="1"
         id="id-9e57489b-83c1-48b5-adf0-abb82b1dfc0f"
         transform="translate(-277.846,-136.152)"
         style="fill:#ff0000">
        <g
           transform="translate(317.299,145.168)"
           id="g5"
           style="fill:#ff0000">
          <path
             d="m 4.078125,-2.296875 h 2.78125 C 7,-2.296875 7.1875,-2.296875 7.1875,-2.5 7.1875,-2.6875 7,-2.6875 6.859375,-2.6875 h -2.78125 v -2.796875 c 0,-0.140625 0,-0.328125 -0.203125,-0.328125 -0.203125,0 -0.203125,0.1875 -0.203125,0.328125 V -2.6875 h -2.78125 c -0.140625,0 -0.328125,0 -0.328125,0.1875 0,0.203125 0.1875,0.203125 0.328125,0.203125 h 2.78125 V 0.5 c 0,0.140625 0,0.328125 0.203125,0.328125 0.203125,0 0.203125,-0.1875 0.203125,-0.328125 z m 0,0"
             id="id-d2b86c9c-32ba-417f-818b-d5927b8e52d0"
             style="fill:#ff0000" />
        </g>
      </g>
      <g
         fill="#000000"
         fill-opacity="1"
         id="id-34d060aa-0e5d-4a32-a6f4-8b062aa2917b"
         transform="translate(-277.846,-136.152)"
         style="fill:#ff0000">
        <g
           transform="translate(327.261,145.168)"
           id="g6"
           style="fill:#ff0000">
          <path
             d="m 4.84375,-3.796875 c 0.046875,-0.140625 0.046875,-0.15625 0.046875,-0.234375 0,-0.171875 -0.140625,-0.265625 -0.296875,-0.265625 -0.09375,0 -0.25,0.0625 -0.34375,0.203125 -0.015625,0.0625 -0.109375,0.359375 -0.140625,0.546875 -0.078125,0.25 -0.140625,0.53125 -0.203125,0.796875 l -0.453125,1.796875 c -0.03125,0.140625 -0.46875,0.84375 -1.125,0.84375 -0.5,0 -0.609375,-0.4375 -0.609375,-0.8125 C 1.71875,-1.375 1.890625,-2 2.21875,-2.875 2.375,-3.28125 2.421875,-3.390625 2.421875,-3.59375 c 0,-0.4375 -0.3125,-0.8125 -0.8125,-0.8125 -0.953125,0 -1.3125,1.453125 -1.3125,1.53125 0,0.109375 0.09375,0.109375 0.109375,0.109375 0.109375,0 0.109375,-0.03125 0.15625,-0.1875 0.28125,-0.9375 0.671875,-1.234375 1.015625,-1.234375 0.078125,0 0.25,0 0.25,0.3125 0,0.25 -0.109375,0.515625 -0.171875,0.703125 -0.40625,1.0625 -0.578125,1.625 -0.578125,2.09375 0,0.890625 0.625,1.1875 1.21875,1.1875 0.390625,0 0.71875,-0.171875 1,-0.453125 -0.125,0.515625 -0.25,1.015625 -0.640625,1.546875 -0.265625,0.328125 -0.640625,0.625 -1.09375,0.625 -0.140625,0 -0.59375,-0.03125 -0.765625,-0.421875 0.15625,0 0.296875,0 0.421875,-0.125 C 1.328125,1.203125 1.421875,1.0625 1.421875,0.875 1.421875,0.5625 1.15625,0.53125 1.0625,0.53125 0.828125,0.53125 0.5,0.6875 0.5,1.171875 c 0,0.5 0.4375,0.875 1.0625,0.875 1.015625,0 2.046875,-0.90625 2.328125,-2.03125 z m 0,0"
             id="id-2e4274b3-fbf6-4557-8642-730c4ad03ae6"
             style="fill:#ff0000" />
        </g>
      </g>
      <path
         fill="#000000"
         d="M 31.544739,13.06722 H 54.65802 v 0.398 H 31.544739 Z"
         id="id-b6d6fd48-5139-409e-9755-92131ffce138"
         style="fill:#ff0000" />
      <g
         fill="#000000"
         fill-opacity="1"
         id="id-489700dd-45e6-4475-8c88-2f8d394d8f75"
         transform="translate(-277.846,-136.152)"
         style="fill:#ff0000">
        <g
           transform="translate(318.412,158.742)"
           id="g7"
           style="fill:#ff0000">
          <path
             d="m 1.328125,-0.828125 c 0.53125,-0.578125 0.828125,-0.828125 1.1875,-1.140625 0,0 0.609375,-0.53125 0.96875,-0.890625 C 4.4375,-3.78125 4.65625,-4.265625 4.65625,-4.3125 c 0,-0.09375 -0.09375,-0.09375 -0.109375,-0.09375 -0.078125,0 -0.09375,0.015625 -0.15625,0.109375 -0.296875,0.484375 -0.5,0.640625 -0.734375,0.640625 -0.25,0 -0.359375,-0.15625 -0.515625,-0.328125 -0.1875,-0.21875 -0.359375,-0.421875 -0.6875,-0.421875 -0.75,0 -1.203125,0.921875 -1.203125,1.140625 0,0.046875 0.03125,0.109375 0.109375,0.109375 0.09375,0 0.109375,-0.046875 0.140625,-0.109375 0.1875,-0.46875 0.765625,-0.46875 0.84375,-0.46875 0.203125,0 0.390625,0.0625 0.625,0.140625 0.40625,0.15625 0.515625,0.15625 0.765625,0.15625 -0.359375,0.421875 -1.1875,1.140625 -1.375,1.296875 l -0.90625,0.84375 C 0.78125,-0.625 0.421875,-0.0625 0.421875,0.015625 c 0,0.09375 0.109375,0.09375 0.125,0.09375 0.078125,0 0.09375,-0.015625 0.15625,-0.125 0.234375,-0.359375 0.53125,-0.625 0.859375,-0.625 0.21875,0 0.328125,0.09375 0.578125,0.375 0.15625,0.21875 0.34375,0.375 0.625,0.375 1,0 1.578125,-1.265625 1.578125,-1.53125 0,-0.046875 -0.046875,-0.109375 -0.125,-0.109375 -0.09375,0 -0.109375,0.0625 -0.140625,0.140625 C 3.84375,-0.75 3.203125,-0.5625 2.875,-0.5625 c -0.1875,0 -0.375,-0.0625 -0.578125,-0.125 -0.34375,-0.125 -0.5,-0.171875 -0.703125,-0.171875 -0.015625,0 -0.171875,0 -0.265625,0.03125 z m 0,0"
             id="id-c8d3b44c-0f9b-48ec-900d-9e88ff419089"
             style="fill:#ff0000" />
        </g>
      </g>
    </g>
  </g>
</svg>
