<?xml version="1.0" encoding="UTF-8" standalone="no"?>
<!-- Created with Inkscape (http://www.inkscape.org/) -->

<svg
   xmlns:ns0="http://www.iki.fi/pav/software/textext/"
   xmlns:dc="http://purl.org/dc/elements/1.1/"
   xmlns:cc="http://creativecommons.org/ns#"
   xmlns:rdf="http://www.w3.org/1999/02/22-rdf-syntax-ns#"
   xmlns:svg="http://www.w3.org/2000/svg"
   xmlns="http://www.w3.org/2000/svg"
   xmlns:sodipodi="http://sodipodi.sourceforge.net/DTD/sodipodi-0.dtd"
   xmlns:inkscape="http://www.inkscape.org/namespaces/inkscape"
   width="128"
   height="128"
   viewBox="0 0 33.866667 33.866668"
   version="1.1"
   id="svg8"
   inkscape:version="0.92.3 (2405546, 2018-03-11)"
   sodipodi:docname="logo.svg"
   inkscape:export-filename="C:\Users\winkler\Uni\Projekte\Allgemein\TexText\github\textext-textext\extension\textext\icons\logo-16x16.png"
   inkscape:export-xdpi="12"
   inkscape:export-ydpi="12">
  <defs
     id="defs2" />
  <sodipodi:namedview
     id="base"
     pagecolor="#ffffff"
     bordercolor="#666666"
     borderopacity="1.0"
     inkscape:pageopacity="1"
     inkscape:pageshadow="2"
     inkscape:zoom="6.3418579"
     inkscape:cx="38.376586"
     inkscape:cy="63.077212"
     inkscape:document-units="mm"
     inkscape:current-layer="layer1"
     showgrid="false"
     inkscape:window-width="1920"
     inkscape:window-height="1057"
     inkscape:window-x="-8"
     inkscape:window-y="-8"
     inkscape:window-maximized="1"
     fit-margin-left="5"
     fit-margin-top="5"
     fit-margin-bottom="5"
     fit-margin-right="5"
     units="px"
     showguides="true"
     inkscape:guide-bbox="true" />
  <metadata
     id="metadata5">
    <rdf:RDF>
      <cc:Work
         rdf:about="">
        <dc:format>image/svg+xml</dc:format>
        <dc:type
           rdf:resource="http://purl.org/dc/dcmitype/StillImage" />
        <dc:title />
      </cc:Work>
    </rdf:RDF>
  </metadata>
  <g
     inkscape:label="Ebene 1"
     inkscape:groupmode="layer"
     id="layer1"
     transform="translate(-99.309583,-118.72209)">
    <g
       ns0:jacobian_sqrt="0.5"
       ns0:alignment="middle center"
       ns0:scale="1.41732283468"
       ns0:preamble="C:\\Users\\winkler\\AppData\\Roaming\\inkscape\\extensions\\textext\\default_packages.tex"
       ns0:text="\\TeX"
       ns0:pdfconverter="pstoedit"
       ns0:texconverter="pdflatex"
       ns0:version="0.10.2"
       word-spacing="normal"
       letter-spacing="normal"
       font-size-adjust="none"
       font-stretch="normal"
       font-weight="normal"
       font-variant="normal"
       font-style="normal"
       stroke-miterlimit="10.433"
       xml:space="preserve"
       transform="matrix(1.6007241,0,0,-1.6007241,-136.74352,1184.2604)"
       id="content"
       style="font-style:normal;font-variant:normal;font-weight:normal;font-stretch:normal;letter-spacing:normal;word-spacing:normal;text-anchor:start;fill:none;fill-opacity:1;fill-rule:evenodd;stroke:#000000;stroke-width:0.31235865;stroke-linecap:butt;stroke-linejoin:miter;stroke-miterlimit:10.43299961;stroke-dasharray:none;stroke-dashoffset:0;stroke-opacity:1">
<path
   id="path818"
   d="m 155.35,663.96 h -6.09 l -0.19,-2.24 h 0.25 c 0.14,1.6 0.29,1.93 1.8,1.93 0.17,0 0.43,0 0.53,-0.02 0.21,-0.04 0.21,-0.15 0.21,-0.37 v -5.24 c 0,-0.34 0,-0.48 -1.04,-0.48 h -0.4 v -0.31 c 0.41,0.04 1.42,0.04 1.88,0.04 0.46,0 1.49,0 1.9,-0.04 v 0.31 h -0.4 c -1.05,0 -1.05,0.14 -1.05,0.48 v 5.24 c 0,0.19 0,0.33 0.18,0.37 0.11,0.02 0.38,0.02 0.57,0.02 1.5,0 1.65,-0.33 1.79,-1.93 h 0.25 z"
   inkscape:connector-curvature="0"
   style="fill:#000000;stroke-width:0" />
<path
   id="path820"
   d="m 155.6,655.87 v -0.04 -0.03 -0.03 -0.03 -0.02 -0.03 l -0.01,-0.02 v -0.03 l -0.01,-0.02 -0.01,-0.02 v -0.02 l -0.01,-0.02 -0.02,-0.02 -0.01,-0.01 -0.02,-0.02 -0.01,-0.01 -0.02,-0.01 -0.03,-0.02 h -0.01 l -0.01,-0.01 h -0.01 l -0.02,-0.01 h -0.01 l -0.02,-0.01 h -0.01 -0.02 l -0.02,-0.01 h -0.02 l -0.02,-0.01 h -0.02 -0.02 -0.02 l -0.02,-0.01 h -0.03 -0.02 -0.03 -0.02 l -0.03,-0.01 h -0.03 -0.03 -0.03 -0.03 -0.03 -0.04 -0.03 -0.03 -0.24 v -0.31 h 5.75 l 0.42,2.56 h -0.25 c -0.25,-1.53 -0.48,-2.25 -2.19,-2.25 h -1.33 c -0.47,0 -0.49,0.07 -0.49,0.4 v 2.65 h 0.9 c 0.96,0 1.07,-0.32 1.07,-1.16 h 0.25 v 2.63 h -0.25 c 0,-0.85 -0.11,-1.16 -1.07,-1.16 h -0.9 v 2.38 c 0,0.33 0.02,0.4 0.49,0.4 h 1.29 c 1.52,0 1.79,-0.55 1.95,-1.93 h 0.25 l -0.28,2.24 h -5.61 v -0.31 h 0.24 c 0.76,0 0.78,-0.11 0.78,-0.47 z"
   inkscape:connector-curvature="0"
   style="fill:#000000;stroke-width:0" />
<path
   id="path822"
   d="m 163.79,661.07 1.37,2 c 0.22,0.31 0.55,0.63 1.44,0.64 v 0.31 c -0.39,-0.01 -0.86,-0.03 -1.1,-0.03 -0.4,0 -0.88,0 -1.28,0.03 v -0.31 c 0.4,-0.01 0.62,-0.23 0.62,-0.45 0,-0.1 -0.02,-0.12 -0.09,-0.23 l -1.14,-1.68 -1.29,1.92 c -0.02,0.02 -0.06,0.1 -0.06,0.14 0,0.12 0.22,0.29 0.64,0.3 v 0.31 c -0.35,-0.03 -1.07,-0.03 -1.45,-0.03 -0.31,0 -0.93,0.01 -1.3,0.03 v -0.31 h 0.19 c 0.55,0 0.74,-0.07 0.93,-0.35 l 1.83,-2.76 -1.63,-2.4 c -0.14,-0.2 -0.44,-0.66 -1.45,-0.66 v -0.31 c 0.36,0.01 0.78,0.04 1.11,0.04 0.37,0 0.92,0 1.27,-0.04 v 0.31 c -0.45,0.01 -0.62,0.28 -0.62,0.46 0,0.09 0.03,0.13 0.1,0.24 l 1.41,2.08 1.58,-2.37 c 0.02,-0.04 0.05,-0.08 0.05,-0.11 0,-0.12 -0.22,-0.29 -0.65,-0.3 v -0.31 c 0.35,0.04 1.08,0.04 1.46,0.04 0.41,0 0.87,-0.01 1.29,-0.04 v 0.31 h -0.19 c -0.52,0 -0.73,0.05 -0.93,0.36 z"
   inkscape:connector-curvature="0"
   style="fill:#000000;stroke-width:0" />
</g>    <g
       ns0:jacobian_sqrt="0.5"
       ns0:alignment="middle center"
       ns0:scale="1.41732283468"
       ns0:preamble="C:\\Users\\winkler\\AppData\\Roaming\\inkscape\\extensions\\textext\\default_packages.tex"
       ns0:text="Text"
       ns0:pdfconverter="pstoedit"
       ns0:texconverter="pdflatex"
       ns0:version="0.10.2"
       word-spacing="normal"
       letter-spacing="normal"
       font-size-adjust="none"
       font-stretch="normal"
       font-weight="normal"
       font-variant="normal"
       font-style="normal"
       stroke-miterlimit="10.433"
       xml:space="preserve"
       transform="matrix(1.6007241,0,0,-1.6007241,-137.59191,1201.847)"
       id="g846"
       style="font-style:normal;font-variant:normal;font-weight:normal;font-stretch:normal;letter-spacing:normal;word-spacing:normal;text-anchor:start;fill:none;fill-opacity:1;fill-rule:evenodd;stroke:#000000;stroke-width:0.31235865;stroke-linecap:butt;stroke-linejoin:miter;stroke-miterlimit:10.43299961;stroke-dasharray:none;stroke-dashoffset:0;stroke-opacity:1">
<path
   id="path838"
   d="m 155.35,663.96 h -6.09 l -0.19,-2.24 h 0.25 c 0.14,1.6 0.29,1.93 1.8,1.93 0.17,0 0.43,0 0.53,-0.02 0.21,-0.04 0.21,-0.15 0.21,-0.37 v -5.24 c 0,-0.34 0,-0.48 -1.04,-0.48 h -0.4 v -0.31 c 0.41,0.04 1.42,0.04 1.88,0.04 0.46,0 1.49,0 1.9,-0.04 v 0.31 h -0.4 c -1.05,0 -1.05,0.14 -1.05,0.48 v 5.24 c 0,0.19 0,0.33 0.18,0.37 0.11,0.02 0.38,0.02 0.57,0.02 1.5,0 1.65,-0.33 1.79,-1.93 h 0.25 z"
   inkscape:connector-curvature="0"
   style="fill:#000000;stroke-width:0" />
<path
   id="path840"
   d="m 156.19,659.53 0.01,0.21 c 0.06,1.48 0.89,1.73 1.23,1.73 1.03,0 1.13,-1.34 1.13,-1.73 h -2.36 l -0.01,-0.21 h 2.78 c 0.22,0 0.25,0 0.25,0.21 0,0.98 -0.54,1.94 -1.79,1.94 -1.15,0 -2.07,-1.02 -2.07,-2.26 0,-1.33 1.05,-2.29 2.19,-2.29 1.22,0 1.67,1.1 1.67,1.29 0,0.1 -0.08,0.12 -0.13,0.12 -0.09,0 -0.11,-0.06 -0.13,-0.14 -0.35,-1.03 -1.25,-1.03 -1.35,-1.03 -0.5,0 -0.89,0.3 -1.12,0.67 -0.3,0.48 -0.3,1.13 -0.3,1.49 z"
   inkscape:connector-curvature="0"
   style="fill:#000000;stroke-width:0" />
<path
   id="path842"
   d="m 162.37,659.57 0.06,0.07 0.05,0.08 0.06,0.07 0.07,0.08 0.12,0.15 0.06,0.08 0.06,0.08 0.06,0.07 0.06,0.07 0.06,0.07 0.05,0.07 0.03,0.03 0.03,0.03 0.03,0.04 0.02,0.03 0.03,0.02 0.02,0.03 0.02,0.03 0.03,0.02 c 0.31,0.36 0.72,0.51 1.18,0.52 v 0.31 c -0.26,-0.02 -0.56,-0.03 -0.81,-0.03 -0.3,0 -0.83,0.02 -0.96,0.03 v -0.31 c 0.21,-0.02 0.29,-0.15 0.29,-0.31 0,-0.16 -0.1,-0.29 -0.15,-0.35 l -0.62,-0.77 -0.78,1 c -0.09,0.1 -0.09,0.12 -0.09,0.18 0,0.15 0.15,0.24 0.35,0.25 v 0.31 c -0.26,-0.01 -0.92,-0.03 -1.08,-0.03 -0.21,0 -0.67,0.01 -0.94,0.03 v -0.31 c 0.7,0 0.7,-0.01 1.17,-0.61 l 0.99,-1.28 -0.94,-1.18 c -0.47,-0.58 -1.06,-0.6 -1.27,-0.6 v -0.31 c 0.26,0.03 0.57,0.04 0.83,0.04 0.28,0 0.7,-0.03 0.94,-0.04 v 0.31 c -0.22,0.03 -0.29,0.16 -0.29,0.31 0,0.22 0.29,0.55 0.9,1.26 l 0.76,-0.99 c 0.08,-0.11 0.21,-0.27 0.21,-0.33 0,-0.09 -0.09,-0.24 -0.36,-0.25 v -0.31 c 0.3,0.01 0.86,0.04 1.08,0.04 0.26,0 0.65,-0.01 0.95,-0.04 v 0.31 c -0.53,0 -0.72,0.02 -0.94,0.31 z"
   inkscape:connector-curvature="0"
   style="fill:#000000;stroke-width:0" />
<path
   id="path844"
   d="m 166.49,661.21 h 1.43 v 0.31 h -1.43 v 1.82 h -0.25 c -0.01,-0.81 -0.31,-1.87 -1.28,-1.91 v -0.22 h 0.84 v -2.74 c 0,-1.23 0.93,-1.34 1.29,-1.34 0.71,0 0.99,0.7 0.99,1.34 v 0.56 h -0.25 v -0.54 c 0,-0.74 -0.3,-1.12 -0.67,-1.12 -0.67,0 -0.67,0.91 -0.67,1.08 z"
   inkscape:connector-curvature="0"
   style="fill:#000000;stroke-width:0" />
</g>  </g>
</svg>
