<?xml version="1.0" encoding="UTF-8" standalone="no"?>
<svg
   xmlns:ns0="http://www.iki.fi/pav/software/textext/"
   xmlns:dc="http://purl.org/dc/elements/1.1/"
   xmlns:cc="http://creativecommons.org/ns#"
   xmlns:rdf="http://www.w3.org/1999/02/22-rdf-syntax-ns#"
   xmlns:svg="http://www.w3.org/2000/svg"
   xmlns="http://www.w3.org/2000/svg"
   xmlns:sodipodi="http://sodipodi.sourceforge.net/DTD/sodipodi-0.dtd"
   xmlns:inkscape="http://www.inkscape.org/namespaces/inkscape"
   sodipodi:docname="original.svg"
   inkscape:version="1.0.1 (1.0.1+r74)"
   id="svg8"
   version="1.1"
   viewBox="0 0 210 297"
   height="297mm"
   width="210mm">
  <defs
     id="defs2" />
  <sodipodi:namedview
     id="base"
     pagecolor="#ffffff"
     bordercolor="#666666"
     borderopacity="1.0"
     inkscape:pageopacity="0.0"
     inkscape:pageshadow="2"
     inkscape:zoom="3.6212098"
     inkscape:cx="400.00159"
     inkscape:cy="559.99854"
     inkscape:document-units="mm"
     inkscape:current-layer="layer1"
     inkscape:document-rotation="0"
     showgrid="false"
     inkscape:window-width="1683"
     inkscape:window-height="890"
     inkscape:window-x="101"
     inkscape:window-y="40"
     inkscape:window-maximized="0" />
  <metadata
     id="metadata5">
    <rdf:RDF>
      <cc:Work
         rdf:about="">
        <dc:format>image/svg+xml</dc:format>
        <dc:type
           rdf:resource="http://purl.org/dc/dcmitype/StillImage" />
        <dc:title />
      </cc:Work>
    </rdf:RDF>
  </metadata>
  <g
     inkscape:label="Ebene 1"
     inkscape:groupmode="layer"
     id="layer1">
    <g
       transform="matrix(0.352778 0 0 0.352778 74.468 146.871)"
       ns0:version="1.2.0"
       ns0:texconverter="pdflatex"
       ns0:pdfconverter="inkscape"
       ns0:text="Ильюшин Ил-62 - элегантный самолет!"
       ns0:preamble="/home/winkler/Develop/TexText/textext-jcwinkler/snippets/inkscape-1.0.1/textext-1.2.0/inkscape/08/utf8_cyrillic_packages.tex"
       ns0:scale="1.0"
       ns0:alignment="middle center"
       ns0:inkscapeversion="1.0.1"
       ns0:jacobian_sqrt="0.352778"
       id="content">
      <defs
         id="id-140cfd00-9c7e-455e-bf57-f24cbd100337">
        <g
           id="id-389f8e75-8ab0-4042-8fa3-a4b3de42fa20">
          <symbol
             overflow="visible"
             id="id-4d6f0647-4053-4dc2-a93a-bea1d1ec623a">
            <path
               style="stroke:none"
               d=""
               id="id-853cda62-082a-4c9c-8f39-2e2f65f9f53f" />
          </symbol>
          <symbol
             overflow="visible"
             id="id-3c66f874-156e-4e79-b675-f149c63f14fc">
            <path
               style="stroke:none"
               d="m 0.328125,-6.8125 v 0.296875 c 0.125,0 0.265625,0 0.375,0 0.359375,0 0.65625,0.046875 0.65625,0.4375 V -0.75 c 0,0.375 -0.328125,0.4375 -0.671875,0.4375 -0.125,0 -0.25,0 -0.359375,0 v 0.296875 h 2.9375 V -0.3125 h -0.3125 C 2.640625,-0.3125 2.3125,-0.34375 2.25,-0.578125 V -0.625 c 0,-0.109375 0.125,-0.234375 0.1875,-0.328125 C 3.3125,-2.359375 4.234375,-3.78125 5.15625,-5.15625 5.28125,-5.328125 5.390625,-5.5 5.5,-5.671875 v 4.9375 c 0,0.375 -0.34375,0.421875 -0.671875,0.421875 -0.125,0 -0.25,0 -0.359375,0 v 0.296875 H 7.421875 V -0.3125 c -0.125,0 -0.25,0 -0.375,0 -0.34375,0 -0.65625,-0.046875 -0.65625,-0.4375 v -5.328125 c 0,-0.375 0.3125,-0.4375 0.65625,-0.4375 0.125,0 0.265625,0 0.375,0 V -6.8125 H 4.46875 v 0.296875 h 0.328125 c 0.3125,0 0.640625,0.03125 0.703125,0.265625 v 0.046875 C 5.5,-6.09375 5.375,-5.96875 5.3125,-5.875 4.421875,-4.46875 3.515625,-3.046875 2.578125,-1.671875 2.46875,-1.5 2.359375,-1.328125 2.25,-1.15625 v -4.9375 c 0,-0.375 0.328125,-0.421875 0.671875,-0.421875 0.125,0 0.234375,0 0.34375,0 V -6.8125 Z m 0,0"
               id="id-307b7238-fa64-4928-8ab7-2b6dd7f8ec65" />
          </symbol>
          <symbol
             overflow="visible"
             id="id-823fb0cd-5d23-493d-9851-15c7e38b2253">
            <path
               style="stroke:none"
               d="m 1.171875,-4.296875 v 0.21875 h 0.21875 c 0.3125,0 0.59375,0.046875 0.59375,0.453125 0,0.75 -0.03125,1.578125 -0.1875,2.3125 -0.09375,0.484375 -0.21875,1.21875 -0.8125,1.21875 -0.15625,0 -0.265625,-0.0625 -0.390625,-0.140625 0.25,-0.03125 0.4375,-0.171875 0.4375,-0.421875 0,-0.234375 -0.1875,-0.421875 -0.4375,-0.421875 -0.234375,0 -0.40625,0.171875 -0.40625,0.453125 0,0.453125 0.359375,0.78125 0.796875,0.78125 0.6875,0 0.921875,-0.71875 1.046875,-1.265625 0.15625,-0.75 0.203125,-1.546875 0.203125,-2.3125 V -3.625 C 2.234375,-3.84375 2.25,-4.046875 2.5,-4.078125 h 0.953125 c 0.25,0 0.34375,0.109375 0.34375,0.359375 v 3.03125 c 0,0.421875 -0.203125,0.453125 -0.78125,0.453125 v 0.21875 H 5.28125 v -0.21875 H 5.046875 C 4.765625,-0.234375 4.5,-0.265625 4.5,-0.671875 V -3.625 c 0,-0.421875 0.25,-0.453125 0.78125,-0.453125 v -0.21875 z m 0,0"
               id="id-8d21db7f-9937-4dbc-a6d6-5cd9e7964edf" />
          </symbol>
          <symbol
             overflow="visible"
             id="id-b67e77ef-0b56-477d-aec8-c0e97d5184ac">
            <path
               style="stroke:none"
               d="m 0.265625,-4.296875 v 0.21875 h 0.21875 c 0.296875,0 0.546875,0.046875 0.546875,0.453125 v 2.953125 c 0,0.421875 -0.265625,0.4375 -0.765625,0.4375 v 0.21875 H 3.03125 c 0.703125,-0.03125 1.609375,-0.4375 1.609375,-1.234375 0,-0.75 -0.875,-1.21875 -1.578125,-1.21875 H 1.734375 v -1.1875 c 0,-0.34375 0.171875,-0.421875 0.78125,-0.421875 v -0.21875 z m 1.46875,2.03125 H 2.625 c 0.578125,0 1.1875,0.375 1.1875,1.015625 v 0.03125 c 0,0.46875 -0.453125,0.859375 -0.875,0.9375 -0.15625,0.015625 -0.3125,0.015625 -0.453125,0.015625 H 1.953125 C 1.75,-0.265625 1.734375,-0.46875 1.734375,-0.625 Z m 0,0"
               id="id-6b66275f-591e-4fb8-bfdd-70e72ffe4a4f" />
          </symbol>
          <symbol
             overflow="visible"
             id="id-de167f90-87c9-45d6-9e2d-4c2c15083294">
            <path
               style="stroke:none"
               d="m 1.734375,-2.46875 v -1.1875 c 0,-0.34375 0.171875,-0.421875 0.78125,-0.421875 v -0.21875 h -2.25 v 0.21875 h 0.21875 c 0.296875,0 0.546875,0.046875 0.546875,0.453125 v 2.953125 c 0,0.421875 -0.265625,0.4375 -0.765625,0.4375 v 0.21875 h 2.25 v -0.21875 h -0.25 c -0.28125,0 -0.546875,-0.03125 -0.546875,-0.4375 0,-0.078125 0.015625,-0.15625 0.015625,-0.21875 v -1.375 h 1.03125 c 0,1.125 0.734375,2.359375 2.171875,2.359375 1.15625,0 2.25,-0.90625 2.25,-2.234375 0,-1.171875 -0.890625,-2.328125 -2.234375,-2.328125 -1.078125,0 -1.9375,0.875 -2.140625,1.90625 -0.015625,0.0625 -0.046875,0.09375 -0.125,0.09375 z m 1.875,0.578125 v -0.4375 C 3.609375,-3.09375 3.84375,-4.25 4.96875,-4.25 c 0.8125,0 1.265625,0.6875 1.359375,1.4375 0.015625,0.21875 0.015625,0.4375 0.015625,0.65625 0,0.640625 -0.0625,1.453125 -0.703125,1.8125 C 5.4375,-0.203125 5.21875,-0.15625 5,-0.15625 4.265625,-0.15625 3.765625,-0.71875 3.65625,-1.5 3.625,-1.625 3.625,-1.765625 3.609375,-1.890625 Z m 0,0"
               id="id-4718bf68-9ada-4358-8bed-d82b70b43626" />
          </symbol>
          <symbol
             overflow="visible"
             id="id-1c80babd-1d30-4533-8c31-9b2144170eb7">
            <path
               style="stroke:none"
               d="m 0.265625,-4.296875 v 0.21875 h 0.21875 c 0.296875,0 0.546875,0.046875 0.546875,0.453125 v 2.953125 c 0,0.421875 -0.265625,0.4375 -0.765625,0.4375 v 0.21875 H 7.75 v -0.21875 H 7.53125 c -0.296875,0 -0.546875,-0.03125 -0.546875,-0.453125 V -3.625 C 6.984375,-4.0625 7.25,-4.078125 7.75,-4.078125 v -0.21875 H 5.5 v 0.21875 h 0.234375 c 0.28125,0 0.546875,0.046875 0.546875,0.453125 v 3.015625 c 0,0.25 -0.078125,0.375 -0.34375,0.375 H 5.796875 c -0.328125,0 -0.6875,0.03125 -1.015625,0.03125 -0.21875,0 -0.421875,-0.0625 -0.421875,-0.390625 v -3.0625 c 0,-0.34375 0.203125,-0.421875 0.78125,-0.421875 v -0.21875 H 2.875 v 0.21875 h 0.234375 c 0.28125,0 0.546875,0.046875 0.546875,0.453125 v 3.015625 c 0,0.25 -0.0625,0.375 -0.34375,0.375 H 3.171875 c -0.328125,0 -0.671875,0.03125 -1.015625,0.03125 -0.21875,0 -0.421875,-0.0625 -0.421875,-0.390625 v -3.0625 c 0,-0.34375 0.203125,-0.421875 0.78125,-0.421875 v -0.21875 z m 0,0"
               id="id-3fba9b7a-c492-42b7-a27f-614a671a868c" />
          </symbol>
          <symbol
             overflow="visible"
             id="id-45bead8a-3443-4e58-a69b-42a9d40ee206">
            <path
               style="stroke:none"
               d="m 0.25,-4.296875 v 0.21875 h 0.234375 c 0.28125,0 0.546875,0.046875 0.546875,0.453125 v 2.953125 c 0,0.421875 -0.28125,0.4375 -0.78125,0.4375 v 0.21875 H 2.5 v -0.21875 H 2.328125 C 2.03125,-0.234375 1.71875,-0.265625 1.71875,-0.625 1.734375,-0.71875 1.828125,-0.78125 1.875,-0.859375 L 2.265625,-1.34375 C 2.78125,-1.96875 3.25,-2.65625 3.796875,-3.25 v 2.578125 c 0,0.34375 -0.140625,0.4375 -0.78125,0.4375 v 0.21875 H 5.28125 v -0.21875 H 5.046875 C 4.765625,-0.234375 4.5,-0.265625 4.5,-0.671875 V -3.625 c 0,-0.421875 0.25,-0.453125 0.78125,-0.453125 v -0.21875 H 3.015625 v 0.21875 h 0.1875 c 0.28125,0 0.59375,0.03125 0.59375,0.40625 -0.015625,0.078125 -0.09375,0.15625 -0.140625,0.21875 l -0.390625,0.5 c -0.53125,0.625 -1,1.296875 -1.546875,1.890625 v -2.578125 c 0,-0.34375 0.140625,-0.4375 0.78125,-0.4375 v -0.21875 z m 0,0"
               id="id-c31a56b9-76fa-4d70-806f-17b0681c6def" />
          </symbol>
          <symbol
             overflow="visible"
             id="id-1e99d28d-21a5-42ce-a728-add589a623a7">
            <path
               style="stroke:none"
               d="m 0.25,-4.296875 v 0.21875 h 0.234375 c 0.28125,0 0.546875,0.046875 0.546875,0.453125 v 2.953125 c 0,0.421875 -0.28125,0.4375 -0.78125,0.4375 v 0.21875 H 2.5 v -0.21875 H 2.265625 c -0.296875,0 -0.546875,-0.03125 -0.546875,-0.4375 0,-0.078125 0,-0.15625 0,-0.21875 v -1.375 h 2.078125 v 1.375 c 0,0.0625 0.015625,0.140625 0.015625,0.21875 0,0.4375 -0.328125,0.4375 -0.796875,0.4375 v 0.21875 H 5.28125 v -0.21875 H 5.046875 C 4.765625,-0.234375 4.5,-0.265625 4.5,-0.671875 V -3.625 c 0,-0.421875 0.25,-0.453125 0.78125,-0.453125 v -0.21875 H 3.015625 v 0.21875 h 0.21875 c 0.28125,0 0.5625,0.046875 0.5625,0.421875 v 1.1875 H 1.71875 v -1.1875 c 0,-0.328125 0.125,-0.421875 0.78125,-0.421875 v -0.21875 z m 0,0"
               id="id-86d5cb17-68b3-49f5-bbdb-20dfe1767b97" />
          </symbol>
          <symbol
             overflow="visible"
             id="id-34a15084-da31-45c8-b1a2-cc2bdc1d372e">
            <path
               style="stroke:none"
               d="m 0.109375,-2.4375 v 0.578125 h 2.65625 V -2.4375 Z m 0,0"
               id="id-53e28ebc-774e-496c-b91b-4a60f85a8958" />
          </symbol>
          <symbol
             overflow="visible"
             id="id-b4a15156-0c15-4866-805c-2d5d00eff35a">
            <path
               style="stroke:none"
               d="M 1.328125,-3.296875 H 1.3125 C 1.3125,-4.1875 1.359375,-5.203125 2,-5.890625 2.28125,-6.1875 2.640625,-6.40625 3.078125,-6.40625 3.40625,-6.40625 3.734375,-6.265625 3.9375,-6 3.90625,-6.015625 3.875,-6.015625 3.84375,-6.015625 c -0.265625,0 -0.453125,0.203125 -0.453125,0.46875 0,0.25 0.203125,0.453125 0.453125,0.453125 0.265625,0 0.46875,-0.1875 0.46875,-0.515625 0,-0.734375 -0.6875,-1.046875 -1.28125,-1.046875 -1.671875,0 -2.609375,1.890625 -2.609375,3.390625 0,1.375 0.28125,3.46875 2.125,3.46875 1.21875,0 2.015625,-1.125 2.015625,-2.25 C 4.5625,-3.09375 3.84375,-4.25 2.65625,-4.25 2.078125,-4.25 1.5,-3.953125 1.328125,-3.296875 Z m 0,1.171875 v -0.09375 c 0,-0.6875 0.25,-1.8125 1.234375,-1.8125 1.09375,0 1.09375,1.3125 1.09375,1.921875 v 0.1875 c 0,0.671875 -0.0625,1.859375 -1.140625,1.859375 -0.859375,0 -1.125,-0.96875 -1.171875,-1.75 0,-0.09375 0,-0.21875 -0.015625,-0.3125 z m 0,0"
               id="id-ad01c8bd-23a7-46f7-9c26-c6eecb6a1963" />
          </symbol>
          <symbol
             overflow="visible"
             id="id-e785af68-22f9-4916-9e83-80d83907e785">
            <path
               style="stroke:none"
               d="M 0.890625,-5.328125 C 1.125,-5.828125 1.5,-6.34375 2.21875,-6.34375 c 0.9375,0 1.34375,0.859375 1.34375,1.640625 0,0.921875 -0.609375,1.671875 -1.1875,2.328125 -0.5625,0.671875 -1.171875,1.3125 -1.75,1.96875 C 0.53125,-0.3125 0.5,-0.265625 0.5,-0.125 v 0.109375 H 4.203125 L 4.46875,-1.75 H 4.234375 C 4.140625,-1.296875 4.203125,-0.796875 3.6875,-0.796875 H 3.296875 C 3,-0.78125 2.71875,-0.78125 2.421875,-0.78125 c -0.390625,0 -0.765625,0 -1.140625,0 l 0.6875,-0.671875 c 0.28125,-0.265625 0.546875,-0.53125 0.828125,-0.78125 0.734375,-0.65625 1.671875,-1.375 1.671875,-2.484375 0,-1.125 -0.953125,-1.9375 -2.078125,-1.9375 C 1.4375,-6.65625 0.5,-5.9375 0.5,-4.859375 c 0,0.25 0.09375,0.5625 0.515625,0.5625 0.296875,0 0.53125,-0.203125 0.53125,-0.515625 0,-0.265625 -0.203125,-0.515625 -0.515625,-0.515625 -0.046875,0 -0.09375,0 -0.140625,0 z m 0,0"
               id="id-0edb5d4f-c5e2-42bb-a3be-3ebf1527b622" />
          </symbol>
          <symbol
             overflow="visible"
             id="id-1475283a-d796-44c6-bd04-5c81fa916536">
            <path
               style="stroke:none"
               d="m 3.234375,-2.421875 c -0.140625,0.046875 -0.28125,0.0625 -0.4375,0.0625 -0.46875,0 -0.75,-0.28125 -1.21875,-0.28125 -0.296875,0 -0.796875,0.109375 -0.796875,0.296875 0,0.03125 0.015625,0.0625 0.0625,0.078125 H 0.875 c 0.046875,0 0.125,-0.03125 0.171875,-0.046875 H 1.09375 c 0.4375,0 0.75,0.375 1.203125,0.375 0.328125,0 0.65625,-0.140625 0.953125,-0.28125 0,0.796875 -0.203125,1.703125 -1.078125,2.015625 C 2.0625,-0.171875 1.9375,-0.15625 1.828125,-0.15625 H 1.75 C 1.203125,-0.203125 0.78125,-0.515625 0.5625,-1.078125 0.53125,-1.15625 0.53125,-1.296875 0.40625,-1.296875 c -0.0625,0 -0.09375,0.015625 -0.109375,0.0625 v 0.03125 c 0,0.125 0.046875,0.25 0.109375,0.359375 0.265625,0.609375 0.859375,0.9375 1.515625,0.9375 1.1875,0 2.171875,-0.984375 2.171875,-2.25 0,-1.0625 -0.671875,-2.046875 -1.8125,-2.28125 -0.109375,-0.015625 -0.234375,-0.03125 -0.34375,-0.03125 -0.34375,0 -0.6875,0.09375 -0.96875,0.25 C 0.921875,-4.1875 0.875,-4.140625 0.8125,-4.140625 H 0.796875 c -0.09375,0 -0.28125,-0.265625 -0.421875,-0.265625 -0.078125,0 -0.09375,0.078125 -0.09375,0.15625 v 0.703125 c 0,0.03125 -0.015625,0.078125 -0.015625,0.125 0,0.109375 0.03125,0.1875 0.140625,0.1875 0.140625,0 0.1875,-0.28125 0.265625,-0.375 C 0.953125,-4 1.4375,-4.21875 1.90625,-4.21875 h 0.0625 c 0.90625,0.109375 1.265625,1.046875 1.265625,1.796875 z m 0,0"
               id="id-5fc5bdd4-a2e5-4d41-af4f-cf6918b8ac5f" />
          </symbol>
          <symbol
             overflow="visible"
             id="id-71e52ea6-337b-44ff-85b7-bfea5c68b91b">
            <path
               style="stroke:none"
               d="m 1.109375,-2.3125 h 2.875 c 0.109375,0 0.15625,-0.0625 0.15625,-0.1875 0,-1.046875 -0.640625,-1.96875 -1.765625,-1.96875 -1.21875,0 -2.09375,1.09375 -2.09375,2.28125 0,0.90625 0.5,1.734375 1.390625,2.125 0.21875,0.109375 0.484375,0.15625 0.734375,0.15625 H 2.4375 c 0.765625,0 1.40625,-0.421875 1.671875,-1.1875 C 4.125,-1.125 4.125,-1.171875 4.125,-1.203125 4.125,-1.265625 4.09375,-1.3125 4.015625,-1.3125 3.875,-1.3125 3.8125,-0.984375 3.75,-0.875 3.5,-0.4375 3.015625,-0.15625 2.5,-0.15625 c -0.359375,0 -0.6875,-0.203125 -0.953125,-0.46875 -0.40625,-0.46875 -0.4375,-1.109375 -0.4375,-1.6875 z M 1.125,-2.515625 C 1.125,-3.296875 1.53125,-4.25 2.359375,-4.25 H 2.40625 c 0.96875,0.09375 0.96875,1.125 1.0625,1.734375 z m 0,0"
               id="id-2f9e2b4a-0ef9-4b27-8d7a-d60231e7a313" />
          </symbol>
          <symbol
             overflow="visible"
             id="id-a756d1fa-97d5-4638-be69-04825ab69693">
            <path
               style="stroke:none"
               d="m 0.25,-4.296875 v 0.21875 h 0.234375 c 0.28125,0 0.546875,0.046875 0.546875,0.453125 v 2.953125 c 0,0.421875 -0.28125,0.4375 -0.78125,0.4375 v 0.21875 h 2.4375 v -0.21875 H 2.390625 c -0.359375,0 -0.671875,-0.03125 -0.671875,-0.46875 V -3.71875 c 0,-0.203125 0.078125,-0.359375 0.3125,-0.359375 h 0.625 c 0.671875,0 1.203125,0.046875 1.265625,1.390625 h 0.25 L 4.0625,-4.296875 Z m 0,0"
               id="id-595fa234-089d-4e40-9224-f5402e4deb8c" />
          </symbol>
          <symbol
             overflow="visible"
             id="id-eacdf37c-0078-4a17-b7df-64d9f9bb7557">
            <path
               style="stroke:none"
               d="m 1.109375,-3.796875 c 0.25,-0.3125 0.6875,-0.453125 1.0625,-0.453125 0.734375,0 1.0625,0.671875 1.0625,1.375 v 0.265625 c -1.140625,0 -2.828125,0.359375 -2.828125,1.65625 V -0.875 c 0.078125,0.78125 1.046875,0.96875 1.625,0.96875 0.5,0 1.15625,-0.328125 1.28125,-0.84375 0.0625,0.4375 0.34375,0.796875 0.78125,0.796875 0.40625,0 0.765625,-0.328125 0.828125,-0.78125 v -0.71875 h -0.25 v 0.5 c 0,0.28125 -0.0625,0.6875 -0.359375,0.6875 -0.328125,0 -0.375,-0.390625 -0.375,-0.65625 V -2.59375 c 0,-0.125 0.015625,-0.25 0.015625,-0.375 0,-0.96875 -0.90625,-1.5 -1.734375,-1.5 -0.640625,0 -1.515625,0.3125 -1.515625,1.109375 0,0.28125 0.203125,0.484375 0.46875,0.484375 0.28125,0 0.4375,-0.21875 0.4375,-0.46875 0,-0.28125 -0.21875,-0.453125 -0.5,-0.453125 z m 2.125,1.390625 v 1.015625 c 0,0.6875 -0.46875,1.234375 -1.125,1.265625 H 2.078125 C 1.609375,-0.125 1.1875,-0.484375 1.1875,-0.96875 V -1.015625 C 1.25,-2.03125 2.375,-2.375 3.234375,-2.40625 Z m 0,0"
               id="id-3cc9ef8e-fd92-48ce-961a-8cc3a519377a" />
          </symbol>
          <symbol
             overflow="visible"
             id="id-732ecdce-868e-4e77-a4cd-b802fa2556fb">
            <path
               style="stroke:none"
               d="M 0.359375,-4.296875 0.25,-2.6875 H 0.5 c 0.015625,-0.375 0.03125,-0.875 0.234375,-1.125 C 0.921875,-4.03125 1.25,-4.078125 1.53125,-4.078125 h 0.1875 c 0.234375,0 0.421875,0.015625 0.421875,0.375 v 2.96875 c 0,0.453125 -0.375,0.515625 -0.75,0.515625 -0.109375,0 -0.25,-0.015625 -0.359375,-0.015625 v 0.21875 h 2.890625 v -0.21875 c -0.125,0 -0.25,0.015625 -0.375,0.015625 -0.375,0 -0.71875,-0.0625 -0.71875,-0.515625 v -2.96875 c 0,-0.203125 0,-0.375 0.421875,-0.375 h 0.1875 c 0.625,0 0.984375,0.203125 1.03125,1.390625 h 0.25 L 4.609375,-4.296875 Z m 0,0"
               id="id-947c5c74-c434-4896-b46f-d841a63012e5" />
          </symbol>
          <symbol
             overflow="visible"
             id="id-647899e3-7081-4121-8fd1-fdc4d4948b77">
            <path
               style="stroke:none"
               d="m 0.265625,-4.296875 v 0.21875 h 0.21875 c 0.296875,0 0.546875,0.046875 0.546875,0.453125 v 2.953125 c 0,0.421875 -0.265625,0.4375 -0.765625,0.4375 v 0.21875 H 3.03125 c 0.703125,-0.03125 1.609375,-0.4375 1.609375,-1.234375 0,-0.75 -0.875,-1.21875 -1.578125,-1.21875 H 1.734375 v -1.1875 c 0,-0.34375 0.171875,-0.421875 0.78125,-0.421875 v -0.21875 z m 4.40625,0 v 0.21875 h 0.21875 c 0.296875,0 0.5625,0.046875 0.5625,0.453125 v 2.921875 c 0,0.40625 -0.203125,0.46875 -0.78125,0.46875 v 0.21875 h 2.25 v -0.21875 h -0.1875 c -0.3125,0 -0.578125,-0.03125 -0.578125,-0.453125 V -3.625 c 0,-0.390625 0.203125,-0.453125 0.765625,-0.453125 v -0.21875 z m -2.9375,2.03125 H 2.625 c 0.578125,0 1.1875,0.375 1.1875,1.015625 v 0.03125 c 0,0.46875 -0.453125,0.859375 -0.875,0.9375 -0.15625,0.015625 -0.3125,0.015625 -0.453125,0.015625 H 1.953125 C 1.75,-0.265625 1.734375,-0.46875 1.734375,-0.625 Z m 0,0"
               id="id-f9f70255-8558-431a-ae02-e2222abcad79" />
          </symbol>
          <symbol
             overflow="visible"
             id="id-c63124a1-6d1f-4175-9122-75313e940085">
            <path
               style="stroke:none"
               d="m 0.25,-4.296875 v 0.21875 h 0.234375 c 0.28125,0 0.546875,0.046875 0.546875,0.453125 v 2.953125 c 0,0.421875 -0.28125,0.4375 -0.78125,0.4375 v 0.21875 H 2.5 v -0.21875 H 2.328125 C 2.03125,-0.234375 1.71875,-0.265625 1.71875,-0.625 1.734375,-0.71875 1.828125,-0.78125 1.875,-0.859375 L 2.265625,-1.34375 C 2.78125,-1.96875 3.25,-2.65625 3.796875,-3.25 v 2.578125 c 0,0.34375 -0.140625,0.4375 -0.78125,0.4375 v 0.21875 H 5.28125 v -0.21875 H 5.046875 C 4.765625,-0.234375 4.5,-0.265625 4.5,-0.671875 V -3.625 c 0,-0.421875 0.25,-0.453125 0.78125,-0.453125 v -0.21875 H 3.015625 v 0.21875 h 0.1875 c 0.28125,0 0.59375,0.03125 0.59375,0.40625 -0.015625,0.078125 -0.09375,0.15625 -0.140625,0.21875 l -0.390625,0.5 c -0.53125,0.625 -1,1.296875 -1.546875,1.890625 v -2.578125 c 0,-0.34375 0.140625,-0.4375 0.78125,-0.4375 v -0.21875 z m 3.328125,-0.84375 -0.296875,0.0625 -0.71875,0.03125 -0.625,-0.09375 C 2.140625,-5.25 2.265625,-5.375 2.296875,-5.59375 c 0,-0.3125 -0.234375,-0.53125 -0.5,-0.53125 -0.296875,0 -0.5,0.25 -0.5,0.515625 0,0.71875 1,0.875 1.5,0.875 0.578125,0 1.390625,-0.203125 1.4375,-0.84375 V -5.625 c 0,-0.28125 -0.25,-0.5 -0.5,-0.5 -0.3125,0 -0.5,0.25 -0.5,0.5 0,0.234375 0.140625,0.40625 0.34375,0.484375 z m 0,0"
               id="id-52158e74-4812-4521-9f40-dcda99a931e1" />
          </symbol>
          <symbol
             overflow="visible"
             id="id-3136f39e-e804-4d67-bd83-b3fad070fe4c">
            <path
               style="stroke:none"
               d="m 3.578125,-3.859375 c -0.265625,0.015625 -0.46875,0.1875 -0.46875,0.453125 0,0.28125 0.1875,0.46875 0.453125,0.46875 0.3125,0 0.46875,-0.21875 0.46875,-0.5 V -3.5 C 3.921875,-4.234375 3.078125,-4.46875 2.5,-4.46875 c -1.21875,0 -2.171875,1.0625 -2.171875,2.3125 0,1.125 0.875,2.25 2.171875,2.25 0.65625,0 1.296875,-0.359375 1.5625,-1.046875 0.03125,-0.0625 0.078125,-0.15625 0.078125,-0.21875 0,-0.078125 -0.046875,-0.125 -0.125,-0.125 -0.140625,0 -0.234375,0.375 -0.3125,0.515625 -0.234375,0.375 -0.640625,0.625 -1.09375,0.625 -1.0625,0 -1.390625,-1.0625 -1.4375,-1.84375 v -0.125 c 0,-0.796875 0.1875,-1.984375 1.28125,-2.09375 H 2.53125 c 0.375,0 0.765625,0.109375 1.046875,0.359375 z m 0,0"
               id="id-4a90b343-859f-43a3-8e6e-72aaacd05d39" />
          </symbol>
          <symbol
             overflow="visible"
             id="id-65ede3ab-ceb3-4c68-8e20-e88e7f90e7ce">
            <path
               style="stroke:none"
               d="m 0.296875,-4.296875 v 0.21875 h 0.21875 c 0.296875,0 0.5625,0.046875 0.5625,0.421875 v 2.625 c 0,0.625 -0.34375,0.796875 -0.78125,0.796875 v 0.21875 h 1.84375 v -0.21875 C 1.734375,-0.234375 1.359375,-0.375 1.359375,-1 v -2.953125 c 0.03125,0.125 0.109375,0.25 0.171875,0.390625 0.453125,1.125 0.90625,2.25 1.421875,3.359375 0.03125,0.078125 0.078125,0.1875 0.171875,0.1875 H 3.140625 C 3.25,-0.03125 3.296875,-0.15625 3.328125,-0.25 L 3.625,-0.96875 C 4,-1.859375 4.375,-2.75 4.765625,-3.640625 4.828125,-3.78125 4.890625,-3.921875 4.9375,-4.0625 v 3.421875 c 0,0.40625 -0.328125,0.40625 -0.703125,0.40625 h -0.0625 v 0.21875 H 6.34375 v -0.21875 H 6.109375 c -0.28125,0 -0.546875,-0.03125 -0.546875,-0.4375 V -3.625 c 0,-0.421875 0.265625,-0.453125 0.78125,-0.453125 v -0.21875 H 5.046875 c -0.21875,0 -0.265625,0.125 -0.328125,0.296875 -0.09375,0.234375 -0.1875,0.453125 -0.28125,0.6875 l -0.75,1.75 C 3.5625,-1.28125 3.484375,-1 3.34375,-0.75 2.90625,-1.828125 2.40625,-2.90625 1.96875,-4 1.890625,-4.140625 1.890625,-4.296875 1.640625,-4.296875 Z m 0,0"
               id="id-1a730176-9c1b-4492-b820-93b1ca9b736a" />
          </symbol>
          <symbol
             overflow="visible"
             id="id-84c8fce8-6e74-458e-ab1f-85def52898e9">
            <path
               style="stroke:none"
               d="m 2.34375,-4.46875 c -1.25,0.125 -2.0625,1.1875 -2.0625,2.34375 0,1.125 0.890625,2.21875 2.21875,2.21875 1.1875,0 2.1875,-0.96875 2.1875,-2.234375 0,-1.171875 -0.890625,-2.328125 -2.21875,-2.328125 -0.03125,0 -0.09375,0 -0.125,0 z m -1.234375,2.578125 v -0.4375 c 0,-0.765625 0.25,-1.921875 1.375,-1.921875 0.8125,0 1.265625,0.6875 1.359375,1.4375 0.015625,0.21875 0.015625,0.4375 0.015625,0.65625 0,0.640625 -0.078125,1.453125 -0.703125,1.8125 C 2.953125,-0.203125 2.734375,-0.15625 2.5,-0.15625 1.78125,-0.15625 1.265625,-0.71875 1.15625,-1.5 1.140625,-1.625 1.140625,-1.765625 1.109375,-1.890625 Z m 0,0"
               id="id-43fd20a8-0084-44e2-8387-b69877a09050" />
          </symbol>
          <symbol
             overflow="visible"
             id="id-c1a00437-a008-4d4a-b962-c2dc07082eaa">
            <path
               style="stroke:none"
               d="m 1.3125,-7.140625 c -0.3125,0 -0.453125,0.296875 -0.453125,0.5625 0,0.140625 0.03125,0.296875 0.03125,0.4375 0.078125,1.03125 0.203125,2.0625 0.28125,3.09375 0.015625,0.3125 0.046875,0.609375 0.078125,0.90625 0,0.109375 -0.015625,0.25 0.109375,0.265625 h 0.0625 c 0.125,-0.015625 0.09375,-0.203125 0.109375,-0.296875 C 1.6875,-3.5625 1.765625,-4.953125 1.890625,-6.34375 1.90625,-6.4375 1.90625,-6.53125 1.90625,-6.625 c 0,-0.3125 -0.234375,-0.515625 -0.515625,-0.515625 -0.03125,0 -0.0625,0 -0.078125,0 z m 0,6.078125 c -0.25,0.03125 -0.453125,0.25 -0.453125,0.53125 0,0.28125 0.25,0.515625 0.53125,0.515625 0.265625,0 0.515625,-0.21875 0.515625,-0.515625 0,-0.296875 -0.234375,-0.53125 -0.515625,-0.53125 -0.03125,0 -0.0625,0 -0.078125,0 z m 0,0"
               id="id-1af68863-5d34-46de-86bb-dc64c4ac7886" />
          </symbol>
        </g>
      </defs>
      <g
         id="id-0bec01ff-31ce-4f32-aa49-c7c4e04a867b"
         transform="translate(-149.04, -127.624)">
        <g
           style="fill:#000000;fill-opacity:1"
           id="id-9ef05e21-d5f6-4496-ac67-d021d7d38f91">
          <g
             transform="translate(148.712, 134.765)"
             id="g9218">
            <path
               style="stroke:none"
               d="m 0.328125,-6.8125 v 0.296875 c 0.125,0 0.265625,0 0.375,0 0.359375,0 0.65625,0.046875 0.65625,0.4375 V -0.75 c 0,0.375 -0.328125,0.4375 -0.671875,0.4375 -0.125,0 -0.25,0 -0.359375,0 v 0.296875 h 2.9375 V -0.3125 h -0.3125 C 2.640625,-0.3125 2.3125,-0.34375 2.25,-0.578125 V -0.625 c 0,-0.109375 0.125,-0.234375 0.1875,-0.328125 C 3.3125,-2.359375 4.234375,-3.78125 5.15625,-5.15625 5.28125,-5.328125 5.390625,-5.5 5.5,-5.671875 v 4.9375 c 0,0.375 -0.34375,0.421875 -0.671875,0.421875 -0.125,0 -0.25,0 -0.359375,0 v 0.296875 H 7.421875 V -0.3125 c -0.125,0 -0.25,0 -0.375,0 -0.34375,0 -0.65625,-0.046875 -0.65625,-0.4375 v -5.328125 c 0,-0.375 0.3125,-0.4375 0.65625,-0.4375 0.125,0 0.265625,0 0.375,0 V -6.8125 H 4.46875 v 0.296875 h 0.328125 c 0.3125,0 0.640625,0.03125 0.703125,0.265625 v 0.046875 C 5.5,-6.09375 5.375,-5.96875 5.3125,-5.875 4.421875,-4.46875 3.515625,-3.046875 2.578125,-1.671875 2.46875,-1.5 2.359375,-1.328125 2.25,-1.15625 v -4.9375 c 0,-0.375 0.328125,-0.421875 0.671875,-0.421875 0.125,0 0.234375,0 0.34375,0 V -6.8125 Z m 0,0"
               id="id-4baa473b-aabc-4496-b4c0-592c9e711ec6" />
          </g>
          <g
             transform="translate(156.459, 134.765)"
             id="g9221">
            <path
               style="stroke:none"
               d="m 1.171875,-4.296875 v 0.21875 h 0.21875 c 0.3125,0 0.59375,0.046875 0.59375,0.453125 0,0.75 -0.03125,1.578125 -0.1875,2.3125 -0.09375,0.484375 -0.21875,1.21875 -0.8125,1.21875 -0.15625,0 -0.265625,-0.0625 -0.390625,-0.140625 0.25,-0.03125 0.4375,-0.171875 0.4375,-0.421875 0,-0.234375 -0.1875,-0.421875 -0.4375,-0.421875 -0.234375,0 -0.40625,0.171875 -0.40625,0.453125 0,0.453125 0.359375,0.78125 0.796875,0.78125 0.6875,0 0.921875,-0.71875 1.046875,-1.265625 0.15625,-0.75 0.203125,-1.546875 0.203125,-2.3125 V -3.625 C 2.234375,-3.84375 2.25,-4.046875 2.5,-4.078125 h 0.953125 c 0.25,0 0.34375,0.109375 0.34375,0.359375 v 3.03125 c 0,0.421875 -0.203125,0.453125 -0.78125,0.453125 v 0.21875 H 5.28125 v -0.21875 H 5.046875 C 4.765625,-0.234375 4.5,-0.265625 4.5,-0.671875 V -3.625 c 0,-0.421875 0.25,-0.453125 0.78125,-0.453125 v -0.21875 z m 0,0"
               id="id-a2e1a3ce-55c7-450d-9548-4b3aae79b4d1" />
          </g>
          <g
             transform="translate(161.992, 134.765)"
             id="g9224">
            <path
               style="stroke:none"
               d="m 0.265625,-4.296875 v 0.21875 h 0.21875 c 0.296875,0 0.546875,0.046875 0.546875,0.453125 v 2.953125 c 0,0.421875 -0.265625,0.4375 -0.765625,0.4375 v 0.21875 H 3.03125 c 0.703125,-0.03125 1.609375,-0.4375 1.609375,-1.234375 0,-0.75 -0.875,-1.21875 -1.578125,-1.21875 H 1.734375 v -1.1875 c 0,-0.34375 0.171875,-0.421875 0.78125,-0.421875 v -0.21875 z m 1.46875,2.03125 H 2.625 c 0.578125,0 1.1875,0.375 1.1875,1.015625 v 0.03125 c 0,0.46875 -0.453125,0.859375 -0.875,0.9375 -0.15625,0.015625 -0.3125,0.015625 -0.453125,0.015625 H 1.953125 C 1.75,-0.265625 1.734375,-0.46875 1.734375,-0.625 Z m 0,0"
               id="id-f1512a8f-d7dc-4073-a994-aabde5829d43" />
          </g>
          <g
             transform="translate(166.972, 134.765)"
             id="g9227">
            <path
               style="stroke:none"
               d="m 1.734375,-2.46875 v -1.1875 c 0,-0.34375 0.171875,-0.421875 0.78125,-0.421875 v -0.21875 h -2.25 v 0.21875 h 0.21875 c 0.296875,0 0.546875,0.046875 0.546875,0.453125 v 2.953125 c 0,0.421875 -0.265625,0.4375 -0.765625,0.4375 v 0.21875 h 2.25 v -0.21875 h -0.25 c -0.28125,0 -0.546875,-0.03125 -0.546875,-0.4375 0,-0.078125 0.015625,-0.15625 0.015625,-0.21875 v -1.375 h 1.03125 c 0,1.125 0.734375,2.359375 2.171875,2.359375 1.15625,0 2.25,-0.90625 2.25,-2.234375 0,-1.171875 -0.890625,-2.328125 -2.234375,-2.328125 -1.078125,0 -1.9375,0.875 -2.140625,1.90625 -0.015625,0.0625 -0.046875,0.09375 -0.125,0.09375 z m 1.875,0.578125 v -0.4375 C 3.609375,-3.09375 3.84375,-4.25 4.96875,-4.25 c 0.8125,0 1.265625,0.6875 1.359375,1.4375 0.015625,0.21875 0.015625,0.4375 0.015625,0.65625 0,0.640625 -0.0625,1.453125 -0.703125,1.8125 C 5.4375,-0.203125 5.21875,-0.15625 5,-0.15625 4.265625,-0.15625 3.765625,-0.71875 3.65625,-1.5 3.625,-1.625 3.625,-1.765625 3.609375,-1.890625 Z m 0,0"
               id="id-64e2e869-748d-4dc5-84b0-33af2cf82886" />
          </g>
          <g
             transform="translate(174.442, 134.765)"
             id="g9230">
            <path
               style="stroke:none"
               d="m 0.265625,-4.296875 v 0.21875 h 0.21875 c 0.296875,0 0.546875,0.046875 0.546875,0.453125 v 2.953125 c 0,0.421875 -0.265625,0.4375 -0.765625,0.4375 v 0.21875 H 7.75 v -0.21875 H 7.53125 c -0.296875,0 -0.546875,-0.03125 -0.546875,-0.453125 V -3.625 C 6.984375,-4.0625 7.25,-4.078125 7.75,-4.078125 v -0.21875 H 5.5 v 0.21875 h 0.234375 c 0.28125,0 0.546875,0.046875 0.546875,0.453125 v 3.015625 c 0,0.25 -0.078125,0.375 -0.34375,0.375 H 5.796875 c -0.328125,0 -0.6875,0.03125 -1.015625,0.03125 -0.21875,0 -0.421875,-0.0625 -0.421875,-0.390625 v -3.0625 c 0,-0.34375 0.203125,-0.421875 0.78125,-0.421875 v -0.21875 H 2.875 v 0.21875 h 0.234375 c 0.28125,0 0.546875,0.046875 0.546875,0.453125 v 3.015625 c 0,0.25 -0.0625,0.375 -0.34375,0.375 H 3.171875 c -0.328125,0 -0.671875,0.03125 -1.015625,0.03125 -0.21875,0 -0.421875,-0.0625 -0.421875,-0.390625 v -3.0625 c 0,-0.34375 0.203125,-0.421875 0.78125,-0.421875 v -0.21875 z m 0,0"
               id="id-e072036b-d92d-4021-a3fd-4d57532c9838" />
          </g>
          <g
             transform="translate(182.466, 134.765)"
             id="g9233">
            <path
               style="stroke:none"
               d="m 0.25,-4.296875 v 0.21875 h 0.234375 c 0.28125,0 0.546875,0.046875 0.546875,0.453125 v 2.953125 c 0,0.421875 -0.28125,0.4375 -0.78125,0.4375 v 0.21875 H 2.5 v -0.21875 H 2.328125 C 2.03125,-0.234375 1.71875,-0.265625 1.71875,-0.625 1.734375,-0.71875 1.828125,-0.78125 1.875,-0.859375 L 2.265625,-1.34375 C 2.78125,-1.96875 3.25,-2.65625 3.796875,-3.25 v 2.578125 c 0,0.34375 -0.140625,0.4375 -0.78125,0.4375 v 0.21875 H 5.28125 v -0.21875 H 5.046875 C 4.765625,-0.234375 4.5,-0.265625 4.5,-0.671875 V -3.625 c 0,-0.421875 0.25,-0.453125 0.78125,-0.453125 v -0.21875 H 3.015625 v 0.21875 h 0.1875 c 0.28125,0 0.59375,0.03125 0.59375,0.40625 -0.015625,0.078125 -0.09375,0.15625 -0.140625,0.21875 l -0.390625,0.5 c -0.53125,0.625 -1,1.296875 -1.546875,1.890625 v -2.578125 c 0,-0.34375 0.140625,-0.4375 0.78125,-0.4375 v -0.21875 z m 0,0"
               id="id-0e14fd87-ae88-4543-acb2-811397dca37b" />
          </g>
          <g
             transform="translate(188, 134.765)"
             id="g9236">
            <path
               style="stroke:none"
               d="m 0.25,-4.296875 v 0.21875 h 0.234375 c 0.28125,0 0.546875,0.046875 0.546875,0.453125 v 2.953125 c 0,0.421875 -0.28125,0.4375 -0.78125,0.4375 v 0.21875 H 2.5 v -0.21875 H 2.265625 c -0.296875,0 -0.546875,-0.03125 -0.546875,-0.4375 0,-0.078125 0,-0.15625 0,-0.21875 v -1.375 h 2.078125 v 1.375 c 0,0.0625 0.015625,0.140625 0.015625,0.21875 0,0.4375 -0.328125,0.4375 -0.796875,0.4375 v 0.21875 H 5.28125 v -0.21875 H 5.046875 C 4.765625,-0.234375 4.5,-0.265625 4.5,-0.671875 V -3.625 c 0,-0.421875 0.25,-0.453125 0.78125,-0.453125 v -0.21875 H 3.015625 v 0.21875 h 0.21875 c 0.28125,0 0.5625,0.046875 0.5625,0.421875 v 1.1875 H 1.71875 v -1.1875 c 0,-0.328125 0.125,-0.421875 0.78125,-0.421875 v -0.21875 z m 0,0"
               id="id-17c93618-1352-4727-9977-f661db222502" />
          </g>
        </g>
        <g
           style="fill:#000000;fill-opacity:1"
           id="id-58c7a0d8-9485-4255-a212-eb29780d4ff4">
          <g
             transform="translate(196.85, 134.765)"
             id="g9240">
            <path
               style="stroke:none"
               d="m 0.328125,-6.8125 v 0.296875 c 0.125,0 0.265625,0 0.375,0 0.359375,0 0.65625,0.046875 0.65625,0.4375 V -0.75 c 0,0.375 -0.328125,0.4375 -0.671875,0.4375 -0.125,0 -0.25,0 -0.359375,0 v 0.296875 h 2.9375 V -0.3125 h -0.3125 C 2.640625,-0.3125 2.3125,-0.34375 2.25,-0.578125 V -0.625 c 0,-0.109375 0.125,-0.234375 0.1875,-0.328125 C 3.3125,-2.359375 4.234375,-3.78125 5.15625,-5.15625 5.28125,-5.328125 5.390625,-5.5 5.5,-5.671875 v 4.9375 c 0,0.375 -0.34375,0.421875 -0.671875,0.421875 -0.125,0 -0.25,0 -0.359375,0 v 0.296875 H 7.421875 V -0.3125 c -0.125,0 -0.25,0 -0.375,0 -0.34375,0 -0.65625,-0.046875 -0.65625,-0.4375 v -5.328125 c 0,-0.375 0.3125,-0.4375 0.65625,-0.4375 0.125,0 0.265625,0 0.375,0 V -6.8125 H 4.46875 v 0.296875 h 0.328125 c 0.3125,0 0.640625,0.03125 0.703125,0.265625 v 0.046875 C 5.5,-6.09375 5.375,-5.96875 5.3125,-5.875 4.421875,-4.46875 3.515625,-3.046875 2.578125,-1.671875 2.46875,-1.5 2.359375,-1.328125 2.25,-1.15625 v -4.9375 c 0,-0.375 0.328125,-0.421875 0.671875,-0.421875 0.125,0 0.234375,0 0.34375,0 V -6.8125 Z m 0,0"
               id="id-9eb49bfb-a601-4348-97e6-a19a2c8ef23b" />
          </g>
          <g
             transform="translate(204.597, 134.765)"
             id="g9243">
            <path
               style="stroke:none"
               d="m 1.171875,-4.296875 v 0.21875 h 0.21875 c 0.3125,0 0.59375,0.046875 0.59375,0.453125 0,0.75 -0.03125,1.578125 -0.1875,2.3125 -0.09375,0.484375 -0.21875,1.21875 -0.8125,1.21875 -0.15625,0 -0.265625,-0.0625 -0.390625,-0.140625 0.25,-0.03125 0.4375,-0.171875 0.4375,-0.421875 0,-0.234375 -0.1875,-0.421875 -0.4375,-0.421875 -0.234375,0 -0.40625,0.171875 -0.40625,0.453125 0,0.453125 0.359375,0.78125 0.796875,0.78125 0.6875,0 0.921875,-0.71875 1.046875,-1.265625 0.15625,-0.75 0.203125,-1.546875 0.203125,-2.3125 V -3.625 C 2.234375,-3.84375 2.25,-4.046875 2.5,-4.078125 h 0.953125 c 0.25,0 0.34375,0.109375 0.34375,0.359375 v 3.03125 c 0,0.421875 -0.203125,0.453125 -0.78125,0.453125 v 0.21875 H 5.28125 v -0.21875 H 5.046875 C 4.765625,-0.234375 4.5,-0.265625 4.5,-0.671875 V -3.625 c 0,-0.421875 0.25,-0.453125 0.78125,-0.453125 v -0.21875 z m 0,0"
               id="id-3eb47d5a-1dce-4db2-8853-807623f8d2cd" />
          </g>
          <g
             transform="translate(210.13, 134.765)"
             id="g9246">
            <path
               style="stroke:none"
               d="m 0.109375,-2.4375 v 0.578125 h 2.65625 V -2.4375 Z m 0,0"
               id="id-8a4f0dc1-359a-45dc-81f7-50baab9d24e1" />
          </g>
          <g
             transform="translate(213.451, 134.765)"
             id="g9249">
            <path
               style="stroke:none"
               d="M 1.328125,-3.296875 H 1.3125 C 1.3125,-4.1875 1.359375,-5.203125 2,-5.890625 2.28125,-6.1875 2.640625,-6.40625 3.078125,-6.40625 3.40625,-6.40625 3.734375,-6.265625 3.9375,-6 3.90625,-6.015625 3.875,-6.015625 3.84375,-6.015625 c -0.265625,0 -0.453125,0.203125 -0.453125,0.46875 0,0.25 0.203125,0.453125 0.453125,0.453125 0.265625,0 0.46875,-0.1875 0.46875,-0.515625 0,-0.734375 -0.6875,-1.046875 -1.28125,-1.046875 -1.671875,0 -2.609375,1.890625 -2.609375,3.390625 0,1.375 0.28125,3.46875 2.125,3.46875 1.21875,0 2.015625,-1.125 2.015625,-2.25 C 4.5625,-3.09375 3.84375,-4.25 2.65625,-4.25 2.078125,-4.25 1.5,-3.953125 1.328125,-3.296875 Z m 0,1.171875 v -0.09375 c 0,-0.6875 0.25,-1.8125 1.234375,-1.8125 1.09375,0 1.09375,1.3125 1.09375,1.921875 v 0.1875 c 0,0.671875 -0.0625,1.859375 -1.140625,1.859375 -0.859375,0 -1.125,-0.96875 -1.171875,-1.75 0,-0.09375 0,-0.21875 -0.015625,-0.3125 z m 0,0"
               id="id-8a03f9cf-5984-43c1-b27c-e39ddc64f88e" />
          </g>
          <g
             transform="translate(218.431, 134.765)"
             id="g9252">
            <path
               style="stroke:none"
               d="M 0.890625,-5.328125 C 1.125,-5.828125 1.5,-6.34375 2.21875,-6.34375 c 0.9375,0 1.34375,0.859375 1.34375,1.640625 0,0.921875 -0.609375,1.671875 -1.1875,2.328125 -0.5625,0.671875 -1.171875,1.3125 -1.75,1.96875 C 0.53125,-0.3125 0.5,-0.265625 0.5,-0.125 v 0.109375 H 4.203125 L 4.46875,-1.75 H 4.234375 C 4.140625,-1.296875 4.203125,-0.796875 3.6875,-0.796875 H 3.296875 C 3,-0.78125 2.71875,-0.78125 2.421875,-0.78125 c -0.390625,0 -0.765625,0 -1.140625,0 l 0.6875,-0.671875 c 0.28125,-0.265625 0.546875,-0.53125 0.828125,-0.78125 0.734375,-0.65625 1.671875,-1.375 1.671875,-2.484375 0,-1.125 -0.953125,-1.9375 -2.078125,-1.9375 C 1.4375,-6.65625 0.5,-5.9375 0.5,-4.859375 c 0,0.25 0.09375,0.5625 0.515625,0.5625 0.296875,0 0.53125,-0.203125 0.53125,-0.515625 0,-0.265625 -0.203125,-0.515625 -0.515625,-0.515625 -0.046875,0 -0.09375,0 -0.140625,0 z m 0,0"
               id="id-74125a10-63bd-4189-b74b-b100dbc9951e" />
          </g>
        </g>
        <g
           style="fill:#000000;fill-opacity:1"
           id="id-334d1197-aa1e-434f-9057-c9f5e8461c31">
          <g
             transform="translate(226.729, 134.765)"
             id="g9256">
            <path
               style="stroke:none"
               d="m 0.109375,-2.4375 v 0.578125 h 2.65625 V -2.4375 Z m 0,0"
               id="id-4901ef8f-4651-43f1-9c07-137c29edcadd" />
          </g>
        </g>
        <g
           style="fill:#000000;fill-opacity:1"
           id="id-2c93e30e-cd1f-47b5-ad3f-601f0e0e81fa">
          <g
             transform="translate(233.377, 134.765)"
             id="g9260">
            <path
               style="stroke:none"
               d="m 3.234375,-2.421875 c -0.140625,0.046875 -0.28125,0.0625 -0.4375,0.0625 -0.46875,0 -0.75,-0.28125 -1.21875,-0.28125 -0.296875,0 -0.796875,0.109375 -0.796875,0.296875 0,0.03125 0.015625,0.0625 0.0625,0.078125 H 0.875 c 0.046875,0 0.125,-0.03125 0.171875,-0.046875 H 1.09375 c 0.4375,0 0.75,0.375 1.203125,0.375 0.328125,0 0.65625,-0.140625 0.953125,-0.28125 0,0.796875 -0.203125,1.703125 -1.078125,2.015625 C 2.0625,-0.171875 1.9375,-0.15625 1.828125,-0.15625 H 1.75 C 1.203125,-0.203125 0.78125,-0.515625 0.5625,-1.078125 0.53125,-1.15625 0.53125,-1.296875 0.40625,-1.296875 c -0.0625,0 -0.09375,0.015625 -0.109375,0.0625 v 0.03125 c 0,0.125 0.046875,0.25 0.109375,0.359375 0.265625,0.609375 0.859375,0.9375 1.515625,0.9375 1.1875,0 2.171875,-0.984375 2.171875,-2.25 0,-1.0625 -0.671875,-2.046875 -1.8125,-2.28125 -0.109375,-0.015625 -0.234375,-0.03125 -0.34375,-0.03125 -0.34375,0 -0.6875,0.09375 -0.96875,0.25 C 0.921875,-4.1875 0.875,-4.140625 0.8125,-4.140625 H 0.796875 c -0.09375,0 -0.28125,-0.265625 -0.421875,-0.265625 -0.078125,0 -0.09375,0.078125 -0.09375,0.15625 v 0.703125 c 0,0.03125 -0.015625,0.078125 -0.015625,0.125 0,0.109375 0.03125,0.1875 0.140625,0.1875 0.140625,0 0.1875,-0.28125 0.265625,-0.375 C 0.953125,-4 1.4375,-4.21875 1.90625,-4.21875 h 0.0625 c 0.90625,0.109375 1.265625,1.046875 1.265625,1.796875 z m 0,0"
               id="id-ddb2be6f-6121-4d3e-8756-830238b5e928" />
          </g>
          <g
             transform="translate(237.804, 134.765)"
             id="g9263">
            <path
               style="stroke:none"
               d="m 1.171875,-4.296875 v 0.21875 h 0.21875 c 0.3125,0 0.59375,0.046875 0.59375,0.453125 0,0.75 -0.03125,1.578125 -0.1875,2.3125 -0.09375,0.484375 -0.21875,1.21875 -0.8125,1.21875 -0.15625,0 -0.265625,-0.0625 -0.390625,-0.140625 0.25,-0.03125 0.4375,-0.171875 0.4375,-0.421875 0,-0.234375 -0.1875,-0.421875 -0.4375,-0.421875 -0.234375,0 -0.40625,0.171875 -0.40625,0.453125 0,0.453125 0.359375,0.78125 0.796875,0.78125 0.6875,0 0.921875,-0.71875 1.046875,-1.265625 0.15625,-0.75 0.203125,-1.546875 0.203125,-2.3125 V -3.625 C 2.234375,-3.84375 2.25,-4.046875 2.5,-4.078125 h 0.953125 c 0.25,0 0.34375,0.109375 0.34375,0.359375 v 3.03125 c 0,0.421875 -0.203125,0.453125 -0.78125,0.453125 v 0.21875 H 5.28125 v -0.21875 H 5.046875 C 4.765625,-0.234375 4.5,-0.265625 4.5,-0.671875 V -3.625 c 0,-0.421875 0.25,-0.453125 0.78125,-0.453125 v -0.21875 z m 0,0"
               id="id-76df3de7-4478-4ee4-8146-1e35f28da197" />
          </g>
          <g
             transform="translate(243.337, 134.765)"
             id="g9266">
            <path
               style="stroke:none"
               d="m 1.109375,-2.3125 h 2.875 c 0.109375,0 0.15625,-0.0625 0.15625,-0.1875 0,-1.046875 -0.640625,-1.96875 -1.765625,-1.96875 -1.21875,0 -2.09375,1.09375 -2.09375,2.28125 0,0.90625 0.5,1.734375 1.390625,2.125 0.21875,0.109375 0.484375,0.15625 0.734375,0.15625 H 2.4375 c 0.765625,0 1.40625,-0.421875 1.671875,-1.1875 C 4.125,-1.125 4.125,-1.171875 4.125,-1.203125 4.125,-1.265625 4.09375,-1.3125 4.015625,-1.3125 3.875,-1.3125 3.8125,-0.984375 3.75,-0.875 3.5,-0.4375 3.015625,-0.15625 2.5,-0.15625 c -0.359375,0 -0.6875,-0.203125 -0.953125,-0.46875 -0.40625,-0.46875 -0.4375,-1.109375 -0.4375,-1.6875 z M 1.125,-2.515625 C 1.125,-3.296875 1.53125,-4.25 2.359375,-4.25 H 2.40625 c 0.96875,0.09375 0.96875,1.125 1.0625,1.734375 z m 0,0"
               id="id-ff818e7a-558b-41e6-8c27-188d63902455" />
          </g>
          <g
             transform="translate(247.763, 134.765)"
             id="g9269">
            <path
               style="stroke:none"
               d="m 0.25,-4.296875 v 0.21875 h 0.234375 c 0.28125,0 0.546875,0.046875 0.546875,0.453125 v 2.953125 c 0,0.421875 -0.28125,0.4375 -0.78125,0.4375 v 0.21875 h 2.4375 v -0.21875 H 2.390625 c -0.359375,0 -0.671875,-0.03125 -0.671875,-0.46875 V -3.71875 c 0,-0.203125 0.078125,-0.359375 0.3125,-0.359375 h 0.625 c 0.671875,0 1.203125,0.046875 1.265625,1.390625 h 0.25 L 4.0625,-4.296875 Z m 0,0"
               id="id-fa5db193-41b5-4589-b08e-0886033cfd0d" />
          </g>
        </g>
        <g
           style="fill:#000000;fill-opacity:1"
           id="id-f12a8f15-939f-4ea7-81f6-e44ef7bdb3a9">
          <g
             transform="translate(251.911, 134.765)"
             id="g9273">
            <path
               style="stroke:none"
               d="m 1.109375,-3.796875 c 0.25,-0.3125 0.6875,-0.453125 1.0625,-0.453125 0.734375,0 1.0625,0.671875 1.0625,1.375 v 0.265625 c -1.140625,0 -2.828125,0.359375 -2.828125,1.65625 V -0.875 c 0.078125,0.78125 1.046875,0.96875 1.625,0.96875 0.5,0 1.15625,-0.328125 1.28125,-0.84375 0.0625,0.4375 0.34375,0.796875 0.78125,0.796875 0.40625,0 0.765625,-0.328125 0.828125,-0.78125 v -0.71875 h -0.25 v 0.5 c 0,0.28125 -0.0625,0.6875 -0.359375,0.6875 -0.328125,0 -0.375,-0.390625 -0.375,-0.65625 V -2.59375 c 0,-0.125 0.015625,-0.25 0.015625,-0.375 0,-0.96875 -0.90625,-1.5 -1.734375,-1.5 -0.640625,0 -1.515625,0.3125 -1.515625,1.109375 0,0.28125 0.203125,0.484375 0.46875,0.484375 0.28125,0 0.4375,-0.21875 0.4375,-0.46875 0,-0.28125 -0.21875,-0.453125 -0.5,-0.453125 z m 2.125,1.390625 v 1.015625 c 0,0.6875 -0.46875,1.234375 -1.125,1.265625 H 2.078125 C 1.609375,-0.125 1.1875,-0.484375 1.1875,-0.96875 V -1.015625 C 1.25,-2.03125 2.375,-2.375 3.234375,-2.40625 Z m 0,0"
               id="id-a4aedcd6-505d-48a7-9cde-134b93f56f83" />
          </g>
          <g
             transform="translate(256.891, 134.765)"
             id="g9276">
            <path
               style="stroke:none"
               d="m 0.25,-4.296875 v 0.21875 h 0.234375 c 0.28125,0 0.546875,0.046875 0.546875,0.453125 v 2.953125 c 0,0.421875 -0.28125,0.4375 -0.78125,0.4375 v 0.21875 H 2.5 v -0.21875 H 2.265625 c -0.296875,0 -0.546875,-0.03125 -0.546875,-0.4375 0,-0.078125 0,-0.15625 0,-0.21875 v -1.375 h 2.078125 v 1.375 c 0,0.0625 0.015625,0.140625 0.015625,0.21875 0,0.4375 -0.328125,0.4375 -0.796875,0.4375 v 0.21875 H 5.28125 v -0.21875 H 5.046875 C 4.765625,-0.234375 4.5,-0.265625 4.5,-0.671875 V -3.625 c 0,-0.421875 0.25,-0.453125 0.78125,-0.453125 v -0.21875 H 3.015625 v 0.21875 h 0.21875 c 0.28125,0 0.5625,0.046875 0.5625,0.421875 v 1.1875 H 1.71875 v -1.1875 c 0,-0.328125 0.125,-0.421875 0.78125,-0.421875 v -0.21875 z m 0,0"
               id="id-c03b3e2c-7900-4bf8-8fce-95a54cf82d3f" />
          </g>
          <g
             transform="translate(262.424, 134.765)"
             id="g9279">
            <path
               style="stroke:none"
               d="M 0.359375,-4.296875 0.25,-2.6875 H 0.5 c 0.015625,-0.375 0.03125,-0.875 0.234375,-1.125 C 0.921875,-4.03125 1.25,-4.078125 1.53125,-4.078125 h 0.1875 c 0.234375,0 0.421875,0.015625 0.421875,0.375 v 2.96875 c 0,0.453125 -0.375,0.515625 -0.75,0.515625 -0.109375,0 -0.25,-0.015625 -0.359375,-0.015625 v 0.21875 h 2.890625 v -0.21875 c -0.125,0 -0.25,0.015625 -0.375,0.015625 -0.375,0 -0.71875,-0.0625 -0.71875,-0.515625 v -2.96875 c 0,-0.203125 0,-0.375 0.421875,-0.375 h 0.1875 c 0.625,0 0.984375,0.203125 1.03125,1.390625 h 0.25 L 4.609375,-4.296875 Z m 0,0"
               id="id-862cb47c-23be-43f3-8357-96e896277605" />
          </g>
          <g
             transform="translate(267.404, 134.765)"
             id="g9282">
            <path
               style="stroke:none"
               d="m 0.25,-4.296875 v 0.21875 h 0.234375 c 0.28125,0 0.546875,0.046875 0.546875,0.453125 v 2.953125 c 0,0.421875 -0.28125,0.4375 -0.78125,0.4375 v 0.21875 H 2.5 v -0.21875 H 2.265625 c -0.296875,0 -0.546875,-0.03125 -0.546875,-0.4375 0,-0.078125 0,-0.15625 0,-0.21875 v -1.375 h 2.078125 v 1.375 c 0,0.0625 0.015625,0.140625 0.015625,0.21875 0,0.4375 -0.328125,0.4375 -0.796875,0.4375 v 0.21875 H 5.28125 v -0.21875 H 5.046875 C 4.765625,-0.234375 4.5,-0.265625 4.5,-0.671875 V -3.625 c 0,-0.421875 0.25,-0.453125 0.78125,-0.453125 v -0.21875 H 3.015625 v 0.21875 h 0.21875 c 0.28125,0 0.5625,0.046875 0.5625,0.421875 v 1.1875 H 1.71875 v -1.1875 c 0,-0.328125 0.125,-0.421875 0.78125,-0.421875 v -0.21875 z m 0,0"
               id="id-2f5b73a8-fb28-4af8-acdd-994bb244181f" />
          </g>
          <g
             transform="translate(272.938, 134.765)"
             id="g9285">
            <path
               style="stroke:none"
               d="m 0.265625,-4.296875 v 0.21875 h 0.21875 c 0.296875,0 0.546875,0.046875 0.546875,0.453125 v 2.953125 c 0,0.421875 -0.265625,0.4375 -0.765625,0.4375 v 0.21875 H 3.03125 c 0.703125,-0.03125 1.609375,-0.4375 1.609375,-1.234375 0,-0.75 -0.875,-1.21875 -1.578125,-1.21875 H 1.734375 v -1.1875 c 0,-0.34375 0.171875,-0.421875 0.78125,-0.421875 v -0.21875 z m 4.40625,0 v 0.21875 h 0.21875 c 0.296875,0 0.5625,0.046875 0.5625,0.453125 v 2.921875 c 0,0.40625 -0.203125,0.46875 -0.78125,0.46875 v 0.21875 h 2.25 v -0.21875 h -0.1875 c -0.3125,0 -0.578125,-0.03125 -0.578125,-0.453125 V -3.625 c 0,-0.390625 0.203125,-0.453125 0.765625,-0.453125 v -0.21875 z m -2.9375,2.03125 H 2.625 c 0.578125,0 1.1875,0.375 1.1875,1.015625 v 0.03125 c 0,0.46875 -0.453125,0.859375 -0.875,0.9375 -0.15625,0.015625 -0.3125,0.015625 -0.453125,0.015625 H 1.953125 C 1.75,-0.265625 1.734375,-0.46875 1.734375,-0.625 Z m 0,0"
               id="id-137fbdb4-29df-4189-8d6e-005964cd1e9d" />
          </g>
          <g
             transform="translate(280.131, 134.765)"
             id="g9288">
            <path
               style="stroke:none"
               d="m 0.25,-4.296875 v 0.21875 h 0.234375 c 0.28125,0 0.546875,0.046875 0.546875,0.453125 v 2.953125 c 0,0.421875 -0.28125,0.4375 -0.78125,0.4375 v 0.21875 H 2.5 v -0.21875 H 2.328125 C 2.03125,-0.234375 1.71875,-0.265625 1.71875,-0.625 1.734375,-0.71875 1.828125,-0.78125 1.875,-0.859375 L 2.265625,-1.34375 C 2.78125,-1.96875 3.25,-2.65625 3.796875,-3.25 v 2.578125 c 0,0.34375 -0.140625,0.4375 -0.78125,0.4375 v 0.21875 H 5.28125 v -0.21875 H 5.046875 C 4.765625,-0.234375 4.5,-0.265625 4.5,-0.671875 V -3.625 c 0,-0.421875 0.25,-0.453125 0.78125,-0.453125 v -0.21875 H 3.015625 v 0.21875 h 0.1875 c 0.28125,0 0.59375,0.03125 0.59375,0.40625 -0.015625,0.078125 -0.09375,0.15625 -0.140625,0.21875 l -0.390625,0.5 c -0.53125,0.625 -1,1.296875 -1.546875,1.890625 v -2.578125 c 0,-0.34375 0.140625,-0.4375 0.78125,-0.4375 v -0.21875 z m 3.328125,-0.84375 -0.296875,0.0625 -0.71875,0.03125 -0.625,-0.09375 C 2.140625,-5.25 2.265625,-5.375 2.296875,-5.59375 c 0,-0.3125 -0.234375,-0.53125 -0.5,-0.53125 -0.296875,0 -0.5,0.25 -0.5,0.515625 0,0.71875 1,0.875 1.5,0.875 0.578125,0 1.390625,-0.203125 1.4375,-0.84375 V -5.625 c 0,-0.28125 -0.25,-0.5 -0.5,-0.5 -0.3125,0 -0.5,0.25 -0.5,0.5 0,0.234375 0.140625,0.40625 0.34375,0.484375 z m 0,0"
               id="id-5b46b29c-f0ca-4383-99a3-880ca07f2346" />
          </g>
        </g>
        <g
           style="fill:#000000;fill-opacity:1"
           id="id-0c791c3d-b6c3-4a8d-a776-a448b3a4e261">
          <g
             transform="translate(288.981, 134.765)"
             id="g9292">
            <path
               style="stroke:none"
               d="m 3.578125,-3.859375 c -0.265625,0.015625 -0.46875,0.1875 -0.46875,0.453125 0,0.28125 0.1875,0.46875 0.453125,0.46875 0.3125,0 0.46875,-0.21875 0.46875,-0.5 V -3.5 C 3.921875,-4.234375 3.078125,-4.46875 2.5,-4.46875 c -1.21875,0 -2.171875,1.0625 -2.171875,2.3125 0,1.125 0.875,2.25 2.171875,2.25 0.65625,0 1.296875,-0.359375 1.5625,-1.046875 0.03125,-0.0625 0.078125,-0.15625 0.078125,-0.21875 0,-0.078125 -0.046875,-0.125 -0.125,-0.125 -0.140625,0 -0.234375,0.375 -0.3125,0.515625 -0.234375,0.375 -0.640625,0.625 -1.09375,0.625 -1.0625,0 -1.390625,-1.0625 -1.4375,-1.84375 v -0.125 c 0,-0.796875 0.1875,-1.984375 1.28125,-2.09375 H 2.53125 c 0.375,0 0.765625,0.109375 1.046875,0.359375 z m 0,0"
               id="id-b62335bd-cdb6-429c-9831-69a8b5bb1be5" />
          </g>
          <g
             transform="translate(293.408, 134.765)"
             id="g9295">
            <path
               style="stroke:none"
               d="m 1.109375,-3.796875 c 0.25,-0.3125 0.6875,-0.453125 1.0625,-0.453125 0.734375,0 1.0625,0.671875 1.0625,1.375 v 0.265625 c -1.140625,0 -2.828125,0.359375 -2.828125,1.65625 V -0.875 c 0.078125,0.78125 1.046875,0.96875 1.625,0.96875 0.5,0 1.15625,-0.328125 1.28125,-0.84375 0.0625,0.4375 0.34375,0.796875 0.78125,0.796875 0.40625,0 0.765625,-0.328125 0.828125,-0.78125 v -0.71875 h -0.25 v 0.5 c 0,0.28125 -0.0625,0.6875 -0.359375,0.6875 -0.328125,0 -0.375,-0.390625 -0.375,-0.65625 V -2.59375 c 0,-0.125 0.015625,-0.25 0.015625,-0.375 0,-0.96875 -0.90625,-1.5 -1.734375,-1.5 -0.640625,0 -1.515625,0.3125 -1.515625,1.109375 0,0.28125 0.203125,0.484375 0.46875,0.484375 0.28125,0 0.4375,-0.21875 0.4375,-0.46875 0,-0.28125 -0.21875,-0.453125 -0.5,-0.453125 z m 2.125,1.390625 v 1.015625 c 0,0.6875 -0.46875,1.234375 -1.125,1.265625 H 2.078125 C 1.609375,-0.125 1.1875,-0.484375 1.1875,-0.96875 V -1.015625 C 1.25,-2.03125 2.375,-2.375 3.234375,-2.40625 Z m 0,0"
               id="id-0c43fbf8-44c7-4a35-a4dd-fdccc3ee88dc" />
          </g>
          <g
             transform="translate(298.388, 134.765)"
             id="g9298">
            <path
               style="stroke:none"
               d="m 0.296875,-4.296875 v 0.21875 h 0.21875 c 0.296875,0 0.5625,0.046875 0.5625,0.421875 v 2.625 c 0,0.625 -0.34375,0.796875 -0.78125,0.796875 v 0.21875 h 1.84375 v -0.21875 C 1.734375,-0.234375 1.359375,-0.375 1.359375,-1 v -2.953125 c 0.03125,0.125 0.109375,0.25 0.171875,0.390625 0.453125,1.125 0.90625,2.25 1.421875,3.359375 0.03125,0.078125 0.078125,0.1875 0.171875,0.1875 H 3.140625 C 3.25,-0.03125 3.296875,-0.15625 3.328125,-0.25 L 3.625,-0.96875 C 4,-1.859375 4.375,-2.75 4.765625,-3.640625 4.828125,-3.78125 4.890625,-3.921875 4.9375,-4.0625 v 3.421875 c 0,0.40625 -0.328125,0.40625 -0.703125,0.40625 h -0.0625 v 0.21875 H 6.34375 v -0.21875 H 6.109375 c -0.28125,0 -0.546875,-0.03125 -0.546875,-0.4375 V -3.625 c 0,-0.421875 0.265625,-0.453125 0.78125,-0.453125 v -0.21875 H 5.046875 c -0.21875,0 -0.265625,0.125 -0.328125,0.296875 -0.09375,0.234375 -0.1875,0.453125 -0.28125,0.6875 l -0.75,1.75 C 3.5625,-1.28125 3.484375,-1 3.34375,-0.75 2.90625,-1.828125 2.40625,-2.90625 1.96875,-4 1.890625,-4.140625 1.890625,-4.296875 1.640625,-4.296875 Z m 0,0"
               id="id-c9247437-f337-42b4-978c-159eba7e28d7" />
          </g>
          <g
             transform="translate(305.028, 134.765)"
             id="g9301">
            <path
               style="stroke:none"
               d="m 2.34375,-4.46875 c -1.25,0.125 -2.0625,1.1875 -2.0625,2.34375 0,1.125 0.890625,2.21875 2.21875,2.21875 1.1875,0 2.1875,-0.96875 2.1875,-2.234375 0,-1.171875 -0.890625,-2.328125 -2.21875,-2.328125 -0.03125,0 -0.09375,0 -0.125,0 z m -1.234375,2.578125 v -0.4375 c 0,-0.765625 0.25,-1.921875 1.375,-1.921875 0.8125,0 1.265625,0.6875 1.359375,1.4375 0.015625,0.21875 0.015625,0.4375 0.015625,0.65625 0,0.640625 -0.078125,1.453125 -0.703125,1.8125 C 2.953125,-0.203125 2.734375,-0.15625 2.5,-0.15625 1.78125,-0.15625 1.265625,-0.71875 1.15625,-1.5 1.140625,-1.625 1.140625,-1.765625 1.109375,-1.890625 Z m 0,0"
               id="id-8b40516b-96bf-432e-8f30-cf5a42b1568c" />
          </g>
          <g
             transform="translate(310.008, 134.765)"
             id="g9304">
            <path
               style="stroke:none"
               d="m 1.171875,-4.296875 v 0.21875 h 0.21875 c 0.3125,0 0.59375,0.046875 0.59375,0.453125 0,0.75 -0.03125,1.578125 -0.1875,2.3125 -0.09375,0.484375 -0.21875,1.21875 -0.8125,1.21875 -0.15625,0 -0.265625,-0.0625 -0.390625,-0.140625 0.25,-0.03125 0.4375,-0.171875 0.4375,-0.421875 0,-0.234375 -0.1875,-0.421875 -0.4375,-0.421875 -0.234375,0 -0.40625,0.171875 -0.40625,0.453125 0,0.453125 0.359375,0.78125 0.796875,0.78125 0.6875,0 0.921875,-0.71875 1.046875,-1.265625 0.15625,-0.75 0.203125,-1.546875 0.203125,-2.3125 V -3.625 C 2.234375,-3.84375 2.25,-4.046875 2.5,-4.078125 h 0.953125 c 0.25,0 0.34375,0.109375 0.34375,0.359375 v 3.03125 c 0,0.421875 -0.203125,0.453125 -0.78125,0.453125 v 0.21875 H 5.28125 v -0.21875 H 5.046875 C 4.765625,-0.234375 4.5,-0.265625 4.5,-0.671875 V -3.625 c 0,-0.421875 0.25,-0.453125 0.78125,-0.453125 v -0.21875 z m 0,0"
               id="id-19938707-92c1-4617-ac18-7c56702ad8b2" />
          </g>
          <g
             transform="translate(315.542, 134.765)"
             id="g9307">
            <path
               style="stroke:none"
               d="m 1.109375,-2.3125 h 2.875 c 0.109375,0 0.15625,-0.0625 0.15625,-0.1875 0,-1.046875 -0.640625,-1.96875 -1.765625,-1.96875 -1.21875,0 -2.09375,1.09375 -2.09375,2.28125 0,0.90625 0.5,1.734375 1.390625,2.125 0.21875,0.109375 0.484375,0.15625 0.734375,0.15625 H 2.4375 c 0.765625,0 1.40625,-0.421875 1.671875,-1.1875 C 4.125,-1.125 4.125,-1.171875 4.125,-1.203125 4.125,-1.265625 4.09375,-1.3125 4.015625,-1.3125 3.875,-1.3125 3.8125,-0.984375 3.75,-0.875 3.5,-0.4375 3.015625,-0.15625 2.5,-0.15625 c -0.359375,0 -0.6875,-0.203125 -0.953125,-0.46875 -0.40625,-0.46875 -0.4375,-1.109375 -0.4375,-1.6875 z M 1.125,-2.515625 C 1.125,-3.296875 1.53125,-4.25 2.359375,-4.25 H 2.40625 c 0.96875,0.09375 0.96875,1.125 1.0625,1.734375 z m 0,0"
               id="id-a51b6802-91c7-418c-b0c7-20a49c4cf524" />
          </g>
          <g
             transform="translate(319.968, 134.765)"
             id="g9310">
            <path
               style="stroke:none"
               d="M 0.359375,-4.296875 0.25,-2.6875 H 0.5 c 0.015625,-0.375 0.03125,-0.875 0.234375,-1.125 C 0.921875,-4.03125 1.25,-4.078125 1.53125,-4.078125 h 0.1875 c 0.234375,0 0.421875,0.015625 0.421875,0.375 v 2.96875 c 0,0.453125 -0.375,0.515625 -0.75,0.515625 -0.109375,0 -0.25,-0.015625 -0.359375,-0.015625 v 0.21875 h 2.890625 v -0.21875 c -0.125,0 -0.25,0.015625 -0.375,0.015625 -0.375,0 -0.71875,-0.0625 -0.71875,-0.515625 v -2.96875 c 0,-0.203125 0,-0.375 0.421875,-0.375 h 0.1875 c 0.625,0 0.984375,0.203125 1.03125,1.390625 h 0.25 L 4.609375,-4.296875 Z m 0,0"
               id="id-d47a843a-d18e-487e-a646-1ae78efdb924" />
          </g>
          <g
             transform="translate(324.948, 134.765)"
             id="g9313">
            <path
               style="stroke:none"
               d="m 1.3125,-7.140625 c -0.3125,0 -0.453125,0.296875 -0.453125,0.5625 0,0.140625 0.03125,0.296875 0.03125,0.4375 0.078125,1.03125 0.203125,2.0625 0.28125,3.09375 0.015625,0.3125 0.046875,0.609375 0.078125,0.90625 0,0.109375 -0.015625,0.25 0.109375,0.265625 h 0.0625 c 0.125,-0.015625 0.09375,-0.203125 0.109375,-0.296875 C 1.6875,-3.5625 1.765625,-4.953125 1.890625,-6.34375 1.90625,-6.4375 1.90625,-6.53125 1.90625,-6.625 c 0,-0.3125 -0.234375,-0.515625 -0.515625,-0.515625 -0.03125,0 -0.0625,0 -0.078125,0 z m 0,6.078125 c -0.25,0.03125 -0.453125,0.25 -0.453125,0.53125 0,0.28125 0.25,0.515625 0.53125,0.515625 0.265625,0 0.515625,-0.21875 0.515625,-0.515625 0,-0.296875 -0.234375,-0.53125 -0.515625,-0.53125 -0.03125,0 -0.0625,0 -0.078125,0 z m 0,0"
               id="id-35d5b0e8-2076-467d-87c5-5d87224982a0" />
          </g>
        </g>
      </g>
    </g>
  </g>
</svg>
