<?xml version="1.0" encoding="UTF-8" standalone="no"?>
<svg
   xmlns:ns0="http://www.iki.fi/pav/software/textext/"
   xmlns:dc="http://purl.org/dc/elements/1.1/"
   xmlns:cc="http://creativecommons.org/ns#"
   xmlns:rdf="http://www.w3.org/1999/02/22-rdf-syntax-ns#"
   xmlns:svg="http://www.w3.org/2000/svg"
   xmlns="http://www.w3.org/2000/svg"
   xmlns:sodipodi="http://sodipodi.sourceforge.net/DTD/sodipodi-0.dtd"
   xmlns:inkscape="http://www.inkscape.org/namespaces/inkscape"
   width="210mm"
   height="297mm"
   viewBox="0 0 210 297"
   version="1.1"
   id="svg8"
   inkscape:version="1.0.1 (1.0.1+r74)"
   sodipodi:docname="original.svg">
  <defs
     id="defs2" />
  <sodipodi:namedview
     id="base"
     pagecolor="#ffffff"
     bordercolor="#666666"
     borderopacity="1.0"
     inkscape:pageopacity="0.0"
     inkscape:pageshadow="2"
     inkscape:zoom="2.3224633"
     inkscape:cx="400.0002"
     inkscape:cy="559.99874"
     inkscape:document-units="mm"
     inkscape:current-layer="layer1"
     inkscape:document-rotation="0"
     showgrid="false"
     inkscape:window-width="1245"
     inkscape:window-height="1015"
     inkscape:window-x="0"
     inkscape:window-y="0"
     inkscape:window-maximized="0" />
  <metadata
     id="metadata5">
    <rdf:RDF>
      <cc:Work
         rdf:about="">
        <dc:format>image/svg+xml</dc:format>
        <dc:type
           rdf:resource="http://purl.org/dc/dcmitype/StillImage" />
        <dc:title />
      </cc:Work>
    </rdf:RDF>
  </metadata>
  <g
     inkscape:label="Ebene 1"
     inkscape:groupmode="layer"
     id="layer1">
    <g
       transform="matrix(0.352778 0 0 0.352778 71.11 139.095)"
       ns0:version="1.1.0"
       ns0:texconverter="pdflatex"
       ns0:pdfconverter="inkscape"
       ns0:text="\\noindent Satz des Pythagoras (\u0422\u0435\u043e\u0440\u0435\u043c\u0430 \u041f\u0438\u0444\u0430\u0433\u043e\u0440\u0430):\n\\begin{equation*}\na^2 + b^2 = c^2\n\\end{equation*}\n\xe4\xf6\xfc\xdf"
       ns0:preamble="/home/winkler/Develop/TexText/textext-jcwinkler/snippets/inkscape-1.0.1/textext-1.1.0/inkscape/10/utf8_cyrillic_packages.tex"
       ns0:scale="1.0"
       ns0:alignment="middle center"
       ns0:inkscapeversion="1.0.1"
       ns0:jacobian_sqrt="0.352778"
       id="content">
      <defs
         id="id-cb1d47ef-89ad-4040-b45e-15aa800785dd">
        <g
           id="id-61c42b59-582a-4475-8da0-1727ed80e776">
          <symbol
             overflow="visible"
             id="id-de2eadc5-47b5-42c3-9577-c9fbc48b10af">
            <path
               style="stroke:none"
               d=""
               id="id-3b0cc1a2-8ef2-4be0-8aef-af3572e12235" />
          </symbol>
          <symbol
             overflow="visible"
             id="id-0a5a3769-3ba1-4957-8c9d-355b09b24ae9">
            <path
               style="stroke:none"
               d="m 1.15625,-0.484375 c 0.625,0.484375 1.109375,0.6875 1.890625,0.6875 1.1875,0 1.921875,-1.0625 1.921875,-2.078125 C 4.96875,-2.703125 4.5,-3.46875 3.703125,-3.796875 3.09375,-4.046875 2.34375,-4.03125 1.8125,-4.34375 c -0.390625,-0.25 -0.625,-0.6875 -0.625,-1.125 0,-0.78125 0.671875,-1.296875 1.375,-1.296875 0.984375,0 1.671875,0.796875 1.828125,1.796875 0.03125,0.140625 0,0.40625 0.1875,0.40625 0.109375,0 0.109375,-0.078125 0.109375,-0.171875 v -2.15625 c 0,-0.078125 -0.015625,-0.140625 -0.09375,-0.140625 -0.140625,0 -0.25,0.265625 -0.34375,0.40625 -0.046875,0.078125 -0.125,0.1875 -0.15625,0.28125 -0.421875,-0.40625 -0.890625,-0.6875 -1.546875,-0.6875 -0.984375,0 -2,0.671875 -2,1.9375 0,1.03125 0.765625,1.71875 1.734375,1.921875 C 2.5,-3.125 2.6875,-3.0625 2.90625,-3.015625 3.453125,-2.875 4.015625,-2.734375 4.25,-2.03125 c 0.0625,0.15625 0.09375,0.3125 0.09375,0.46875 0,0.75 -0.515625,1.46875 -1.359375,1.46875 C 2,-0.09375 1.03125,-0.625 0.828125,-1.78125 0.8125,-1.859375 0.8125,-1.96875 0.796875,-2.046875 V -2.125 c 0,-0.09375 -0.046875,-0.140625 -0.125,-0.140625 -0.109375,0 -0.125,0.078125 -0.125,0.140625 v 2.1875 c 0,0.078125 0.015625,0.140625 0.09375,0.140625 0.15625,0 0.265625,-0.265625 0.34375,-0.40625 0.0625,-0.09375 0.125,-0.1875 0.171875,-0.28125 z m 0,0"
               id="id-f54b1512-8dfe-4484-8dc9-4dc43d6c5ad9" />
          </symbol>
          <symbol
             overflow="visible"
             id="id-ee870323-9b4b-4b8c-ab42-3e2cebaca928">
            <path
               style="stroke:none"
               d="m 1.109375,-3.796875 c 0.25,-0.3125 0.6875,-0.453125 1.0625,-0.453125 0.734375,0 1.0625,0.671875 1.0625,1.375 v 0.265625 c -1.140625,0 -2.828125,0.359375 -2.828125,1.65625 V -0.875 c 0.078125,0.78125 1.046875,0.96875 1.625,0.96875 0.5,0 1.15625,-0.328125 1.28125,-0.84375 0.0625,0.4375 0.34375,0.796875 0.78125,0.796875 0.40625,0 0.765625,-0.328125 0.828125,-0.78125 v -0.71875 h -0.25 v 0.5 c 0,0.28125 -0.0625,0.6875 -0.359375,0.6875 -0.328125,0 -0.375,-0.390625 -0.375,-0.65625 V -2.59375 c 0,-0.125 0.015625,-0.25 0.015625,-0.375 0,-0.96875 -0.90625,-1.5 -1.734375,-1.5 -0.640625,0 -1.515625,0.3125 -1.515625,1.109375 0,0.28125 0.203125,0.484375 0.46875,0.484375 0.28125,0 0.4375,-0.21875 0.4375,-0.46875 0,-0.28125 -0.21875,-0.453125 -0.5,-0.453125 z m 2.125,1.390625 v 1.015625 c 0,0.6875 -0.46875,1.234375 -1.125,1.265625 H 2.078125 C 1.609375,-0.125 1.1875,-0.484375 1.1875,-0.96875 V -1.015625 C 1.25,-2.03125 2.375,-2.375 3.234375,-2.40625 Z m 0,0"
               id="id-c6dfe96a-f71d-4bec-86ca-54288d57477b" />
          </symbol>
          <symbol
             overflow="visible"
             id="id-79de1a32-6bbc-4bfd-bfe8-04e1f9fd6d21">
            <path
               style="stroke:none"
               d="m 1.484375,-6.140625 c 0,0.6875 -0.28125,1.9375 -1.3125,1.9375 v 0.21875 H 1.03125 v 2.5625 c 0,0.328125 0.03125,0.671875 0.1875,0.953125 0.21875,0.40625 0.6875,0.5625 1.125,0.5625 0.8125,0 0.96875,-0.90625 0.96875,-1.546875 V -1.8125 H 3.078125 c 0,0.140625 0,0.296875 0,0.453125 0,0.4375 -0.09375,1.203125 -0.6875,1.203125 -0.5625,0 -0.65625,-0.6875 -0.65625,-1.125 V -3.984375 H 3.15625 v -0.3125 H 1.734375 v -1.84375 z m 0,0"
               id="id-d841595a-0b5a-4bc4-ad86-06526d4c7570" />
          </symbol>
          <symbol
             overflow="visible"
             id="id-16ba3718-f4ff-49f0-8a33-e3965c535c2d">
            <path
               style="stroke:none"
               d="M 0.53125,-4.296875 0.421875,-2.6875 h 0.25 c 0.015625,-0.359375 0.03125,-0.765625 0.25,-1.046875 0.25,-0.3125 0.71875,-0.34375 1.109375,-0.34375 H 3.140625 C 2.203125,-2.875 1.3125,-1.59375 0.390625,-0.375 0.34375,-0.3125 0.28125,-0.21875 0.28125,-0.140625 c 0,0.09375 0.0625,0.125 0.171875,0.125 h 3.375 L 4,-1.875 H 3.75 C 3.671875,-1.203125 3.625,-0.375 2.671875,-0.28125 2.4375,-0.265625 2.21875,-0.265625 2,-0.265625 H 1.125 C 1.859375,-1.25 2.59375,-2.25 3.328125,-3.234375 3.546875,-3.53125 3.984375,-4 3.984375,-4.171875 c 0,-0.09375 -0.09375,-0.125 -0.171875,-0.125 z m 0,0"
               id="id-99724485-ebab-4e31-80f4-e08b0f8dad0a" />
          </symbol>
          <symbol
             overflow="visible"
             id="id-1d559a13-9825-451a-a7eb-d1d7ee70fa6d">
            <path
               style="stroke:none"
               d="m 3.03125,-6.8125 v 0.296875 H 3.1875 c 0.34375,0 0.625,0.046875 0.625,0.625 l -0.015625,2.09375 C 3.5625,-4.203125 2.984375,-4.40625 2.53125,-4.40625 c -1.21875,0 -2.203125,1.0625 -2.203125,2.265625 0,1.0625 0.8125,2.234375 2.140625,2.234375 0.515625,0 0.984375,-0.25 1.3125,-0.640625 V 0.09375 L 5.25,-0.015625 V -0.3125 H 5.078125 c -0.296875,0 -0.609375,-0.03125 -0.609375,-0.5 V -6.921875 Z M 1.171875,-1.90625 V -2.046875 C 1.171875,-2.796875 1.25,-3.53125 1.9375,-4 2.140625,-4.109375 2.375,-4.1875 2.609375,-4.1875 c 0.484375,0 1.171875,0.40625 1.171875,1.03125 0,0.125 0,0.25 0,0.390625 v 1.65625 c 0,0.125 -0.046875,0.21875 -0.125,0.3125 C 3.40625,-0.40625 2.96875,-0.125 2.5,-0.125 1.78125,-0.125 1.3125,-0.78125 1.203125,-1.46875 1.1875,-1.609375 1.1875,-1.765625 1.171875,-1.90625 Z m 0,0"
               id="id-537fa042-0b8a-4890-9bd4-9d750b709af6" />
          </symbol>
          <symbol
             overflow="visible"
             id="id-a765aa95-5755-4d41-b485-7726bb853305">
            <path
               style="stroke:none"
               d="m 1.109375,-2.3125 h 2.875 c 0.109375,0 0.15625,-0.0625 0.15625,-0.1875 0,-1.046875 -0.640625,-1.96875 -1.765625,-1.96875 -1.21875,0 -2.09375,1.09375 -2.09375,2.28125 0,0.90625 0.5,1.734375 1.390625,2.125 0.21875,0.109375 0.484375,0.15625 0.734375,0.15625 H 2.4375 c 0.765625,0 1.40625,-0.421875 1.671875,-1.1875 C 4.125,-1.125 4.125,-1.171875 4.125,-1.203125 4.125,-1.265625 4.09375,-1.3125 4.015625,-1.3125 3.875,-1.3125 3.8125,-0.984375 3.75,-0.875 3.5,-0.4375 3.015625,-0.15625 2.5,-0.15625 c -0.359375,0 -0.6875,-0.203125 -0.953125,-0.46875 -0.40625,-0.46875 -0.4375,-1.109375 -0.4375,-1.6875 z M 1.125,-2.515625 C 1.125,-3.296875 1.53125,-4.25 2.359375,-4.25 H 2.40625 c 0.96875,0.09375 0.96875,1.125 1.0625,1.734375 z m 0,0"
               id="id-28d9aee6-c292-4a4d-9fbb-e9eee678cd36" />
          </symbol>
          <symbol
             overflow="visible"
             id="id-5eb3430a-3ffa-40eb-85ba-56fa31085cf3">
            <path
               style="stroke:none"
               d="M 1.75,-4.46875 C 1.390625,-4.421875 1,-4.359375 0.703125,-4.109375 c -0.234375,0.21875 -0.375,0.546875 -0.375,0.875 C 0.328125,-1.53125 3.09375,-2.5 3.09375,-1 3.09375,-0.40625 2.546875,-0.125 2,-0.125 1.25,-0.125 0.734375,-0.65625 0.59375,-1.515625 0.578125,-1.609375 0.5625,-1.6875 0.453125,-1.6875 c -0.078125,0 -0.125,0.046875 -0.125,0.125 V 0.015625 C 0.34375,0.0625 0.375,0.09375 0.421875,0.09375 H 0.4375 c 0.15625,0 0.3125,-0.359375 0.4375,-0.390625 h 0.015625 c 0.078125,0 0.34375,0.25 0.5625,0.3125 0.15625,0.0625 0.34375,0.078125 0.515625,0.078125 0.828125,0 1.625,-0.4375 1.625,-1.34375 0,-0.65625 -0.484375,-1.203125 -1.140625,-1.375 -0.625,-0.171875 -1.640625,-0.171875 -1.640625,-0.890625 0,-0.609375 0.671875,-0.765625 1.109375,-0.765625 0.484375,0 1.171875,0.28125 1.171875,1.125 0,0.09375 0,0.171875 0.109375,0.171875 0.109375,0 0.140625,-0.078125 0.140625,-0.171875 0,-0.046875 0,-0.109375 0,-0.140625 v -1.03125 c 0,-0.0625 -0.03125,-0.140625 -0.109375,-0.140625 -0.15625,0 -0.265625,0.25 -0.375,0.25 H 2.84375 c -0.078125,0 -0.234375,-0.125 -0.34375,-0.171875 -0.1875,-0.0625 -0.390625,-0.078125 -0.578125,-0.078125 -0.0625,0 -0.109375,0 -0.171875,0 z m 0,0"
               id="id-d4d6d334-e864-421c-b281-056a00b70fcf" />
          </symbol>
          <symbol
             overflow="visible"
             id="id-18c44a46-ad84-49d6-af39-b4cac11567df">
            <path
               style="stroke:none"
               d="m 0.34375,-6.8125 v 0.296875 c 0.125,0 0.25,0 0.375,0 0.359375,0 0.640625,0.046875 0.640625,0.4375 V -0.75 c 0,0.375 -0.328125,0.4375 -0.65625,0.4375 -0.140625,0 -0.25,0 -0.359375,0 v 0.296875 h 2.9375 V -0.3125 H 2.9375 C 2.515625,-0.3125 2.25,-0.34375 2.25,-0.75 v -2.40625 h 1.84375 c 0.9375,-0.078125 2.125,-0.65625 2.125,-1.796875 0,-1.0625 -1.046875,-1.75 -2.046875,-1.859375 -0.15625,0 -0.296875,-0.015625 -0.4375,-0.015625 -0.203125,0 -0.40625,0.015625 -0.59375,0.015625 z m 1.875,3.390625 V -6.1875 c 0,-0.265625 0.171875,-0.296875 0.359375,-0.328125 h 0.75 c 0.5625,0 1.203125,0.03125 1.59375,0.5 0.234375,0.28125 0.265625,0.6875 0.265625,1.046875 0,0.359375 -0.03125,0.734375 -0.25,1.03125 -0.328125,0.421875 -0.90625,0.515625 -1.421875,0.515625 z m 0,0"
               id="id-fd92487a-b5ff-48c3-85b0-9f55fdf859b7" />
          </symbol>
          <symbol
             overflow="visible"
             id="id-02a33bd9-b19d-4e04-bdc0-6aff62cf62e7">
            <path
               style="stroke:none"
               d="m 0.1875,-4.296875 v 0.3125 h 0.15625 c 0.28125,0 0.5,0.03125 0.671875,0.40625 C 1.46875,-2.484375 1.90625,-1.375 2.375,-0.28125 2.40625,-0.203125 2.484375,-0.09375 2.484375,0 2.484375,0.015625 2.46875,0.03125 2.46875,0.046875 2.40625,0.25 2.296875,0.453125 2.21875,0.640625 2.015625,1.140625 1.71875,1.8125 1.109375,1.8125 0.953125,1.8125 0.75,1.75 0.640625,1.640625 0.828125,1.609375 1.03125,1.5 1.03125,1.21875 1.03125,1 0.875,0.8125 0.65625,0.796875 c -0.3125,0 -0.46875,0.1875 -0.46875,0.421875 0,0.5 0.46875,0.8125 0.921875,0.8125 0.71875,0 1.109375,-0.734375 1.359375,-1.328125 l 0.296875,-0.71875 C 3.109375,-0.875 3.46875,-1.71875 3.828125,-2.578125 L 4.0625,-3.15625 c 0.171875,-0.46875 0.4375,-0.828125 1,-0.828125 v -0.3125 H 3.453125 v 0.3125 c 0.234375,0 0.46875,0.15625 0.46875,0.40625 0,0.125 -0.0625,0.265625 -0.109375,0.375 -0.296875,0.6875 -0.546875,1.375 -0.859375,2.046875 C 2.9375,-1.0625 2.875,-0.984375 2.859375,-0.890625 H 2.84375 C 2.78125,-1.109375 2.671875,-1.328125 2.578125,-1.546875 2.328125,-2.1875 2.015625,-2.84375 1.78125,-3.515625 1.75,-3.578125 1.703125,-3.65625 1.703125,-3.734375 v -0.03125 c 0.0625,-0.21875 0.34375,-0.21875 0.546875,-0.21875 v -0.3125 z m 0,0"
               id="id-ceca2a39-22b7-468f-af25-bb5ecadc285b" />
          </symbol>
          <symbol
             overflow="visible"
             id="id-99957682-d90d-4d2e-b038-fa8f520e4b70">
            <path
               style="stroke:none"
               d="m 0.3125,-6.8125 v 0.296875 h 0.15625 c 0.375,0 0.625,0.046875 0.625,0.53125 v 5.03125 c 0,0.0625 0.015625,0.140625 0.015625,0.21875 0,0.375 -0.265625,0.421875 -0.546875,0.421875 h -0.25 v 0.296875 H 2.578125 V -0.3125 H 2.3125 c -0.28125,0 -0.515625,-0.046875 -0.515625,-0.421875 v -1.8125 c 0,-0.71875 0.359375,-1.640625 1.359375,-1.640625 0.625,0 0.6875,0.6875 0.6875,1.109375 V -0.6875 c 0,0.34375 -0.28125,0.375 -0.59375,0.375 H 3.078125 v 0.296875 h 2.25 V -0.3125 h -0.25 c -0.265625,0 -0.53125,-0.046875 -0.53125,-0.390625 V -2.875 c 0,-0.328125 -0.015625,-0.65625 -0.15625,-0.96875 -0.25,-0.4375 -0.734375,-0.5625 -1.203125,-0.5625 -0.578125,0 -1.21875,0.390625 -1.40625,0.953125 l -0.015625,-3.46875 z m 0,0"
               id="id-399d240a-ff2e-407f-a467-a754a4fbfc50" />
          </symbol>
          <symbol
             overflow="visible"
             id="id-cea61ec1-aff4-409a-b06f-b07bbb792104">
            <path
               style="stroke:none"
               d="m 1.1875,-0.234375 v 0.015625 c -0.46875,0.09375 -0.90625,0.53125 -0.90625,1 0,0.9375 1.4375,1.265625 2.203125,1.265625 C 3.3125,2.046875 4.6875,1.75 4.6875,0.71875 4.6875,0.0625 4.234375,-0.375 3.640625,-0.546875 3.28125,-0.65625 2.90625,-0.671875 2.53125,-0.671875 H 1.625 c -0.3125,-0.03125 -0.5625,-0.34375 -0.5625,-0.65625 v -0.0625 c 0,-0.125 0.078125,-0.390625 0.171875,-0.390625 C 1.359375,-1.75 1.5,-1.640625 1.65625,-1.578125 1.828125,-1.53125 2.03125,-1.5 2.21875,-1.5 c 0.828125,0 1.625,-0.609375 1.625,-1.453125 0,-0.34375 -0.140625,-0.734375 -0.421875,-0.953125 v -0.015625 c 0.28125,-0.1875 0.53125,-0.375 0.890625,-0.375 0.03125,0 0.0625,0 0.09375,0.015625 -0.09375,0.046875 -0.15625,0.125 -0.15625,0.25 0,0.15625 0.140625,0.296875 0.296875,0.296875 0.171875,0 0.28125,-0.140625 0.28125,-0.296875 0,-0.265625 -0.21875,-0.484375 -0.484375,-0.484375 -0.359375,0 -0.6875,0.140625 -0.953125,0.359375 C 3.359375,-4.125 3.3125,-4.09375 3.28125,-4.078125 H 3.265625 c -0.0625,0 -0.140625,-0.078125 -0.1875,-0.109375 -0.25,-0.140625 -0.5625,-0.21875 -0.859375,-0.21875 -0.78125,0 -1.625,0.546875 -1.625,1.453125 0,0.328125 0.125,0.625 0.328125,0.890625 0.03125,0.03125 0.109375,0.09375 0.109375,0.140625 0,0.046875 -0.0625,0.09375 -0.078125,0.140625 C 0.8125,-1.578125 0.75,-1.328125 0.75,-1.09375 c 0,0.3125 0.140625,0.71875 0.4375,0.859375 z M 0.8125,0.84375 V 0.75 c 0,-0.515625 0.453125,-0.828125 0.984375,-0.828125 h 0.78125 c 0.625,0 1.59375,0.09375 1.59375,0.859375 C 4.171875,1.5 3.09375,1.8125 2.484375,1.8125 1.828125,1.8125 0.90625,1.515625 0.8125,0.84375 Z M 1.34375,-2.75 v -0.125 c 0,-0.546875 0.125,-1.296875 0.875,-1.296875 0.609375,0 0.859375,0.578125 0.859375,1.21875 0,0.40625 -0.078125,1.21875 -0.859375,1.21875 -0.25,0 -0.5,-0.125 -0.671875,-0.34375 C 1.390625,-2.265625 1.375,-2.515625 1.34375,-2.75 Z m 0,0"
               id="id-8ff1e8b5-0e8f-423b-8864-52da2620dc36" />
          </symbol>
          <symbol
             overflow="visible"
             id="id-998e72d0-770b-4ebc-9ca7-2b36dbd2ebdc">
            <path
               style="stroke:none"
               d="m 2.34375,-4.46875 c -1.25,0.125 -2.0625,1.1875 -2.0625,2.34375 0,1.125 0.890625,2.21875 2.21875,2.21875 1.1875,0 2.1875,-0.96875 2.1875,-2.234375 0,-1.171875 -0.890625,-2.328125 -2.21875,-2.328125 -0.03125,0 -0.09375,0 -0.125,0 z m -1.234375,2.578125 v -0.4375 c 0,-0.765625 0.25,-1.921875 1.375,-1.921875 0.8125,0 1.265625,0.6875 1.359375,1.4375 0.015625,0.21875 0.015625,0.4375 0.015625,0.65625 0,0.640625 -0.078125,1.453125 -0.703125,1.8125 C 2.953125,-0.203125 2.734375,-0.15625 2.5,-0.15625 1.78125,-0.15625 1.265625,-0.71875 1.15625,-1.5 1.140625,-1.625 1.140625,-1.765625 1.109375,-1.890625 Z m 0,0"
               id="id-b1988f69-e100-4a0c-9017-220aa8674b66" />
          </symbol>
          <symbol
             overflow="visible"
             id="id-3bb97012-33b2-4823-96d4-b59337598099">
            <path
               style="stroke:none"
               d="m 0.265625,-4.296875 v 0.3125 h 0.15625 c 0.328125,0 0.625,0.03125 0.625,0.5 v 2.75 c 0,0.40625 -0.28125,0.421875 -0.71875,0.421875 h -0.0625 v 0.296875 H 2.6875 V -0.3125 c -0.125,0 -0.265625,0 -0.390625,0 -0.3125,0 -0.578125,-0.046875 -0.578125,-0.421875 v -1.3125 c 0,-0.859375 0.1875,-2.140625 1.171875,-2.140625 0.046875,0 0.0625,0 0.109375,0.015625 -0.15625,0.0625 -0.234375,0.21875 -0.234375,0.390625 0,0.21875 0.15625,0.375 0.390625,0.421875 0.28125,0 0.46875,-0.171875 0.46875,-0.421875 0,-0.40625 -0.375,-0.625 -0.734375,-0.625 -0.59375,0 -1.109375,0.53125 -1.21875,1.0625 v -1.0625 z m 0,0"
               id="id-504fc823-f8e6-4f74-a02b-1d21aefa4744" />
          </symbol>
          <symbol
             overflow="visible"
             id="id-280ae3ef-7bec-419c-94df-953cca9db219">
            <path
               style="stroke:none"
               d="m 3.15625,-7.484375 c -0.140625,0.0625 -0.3125,0.25 -0.4375,0.375 C 1.5,-5.875 1,-4.1875 1,-2.5 1,-0.703125 1.578125,1.21875 3.046875,2.40625 3.09375,2.4375 3.15625,2.484375 3.21875,2.484375 3.28125,2.484375 3.3125,2.421875 3.3125,2.375 3.3125,2.265625 3.046875,2.0625 2.9375,1.9375 1.90625,0.703125 1.578125,-0.921875 1.578125,-2.5 c 0,-1.640625 0.328125,-3.4375 1.578125,-4.671875 0.046875,-0.0625 0.15625,-0.140625 0.15625,-0.21875 0,-0.0625 -0.046875,-0.09375 -0.109375,-0.09375 -0.015625,0 -0.03125,0 -0.046875,0 z m 0,0"
               id="id-eaf027c2-c886-4e53-8a12-6e4064e74688" />
          </symbol>
          <symbol
             overflow="visible"
             id="id-916e8492-d432-4fd4-acd0-6220adca4892">
            <path
               style="stroke:none"
               d="m 0.546875,-6.8125 -0.1875,2.234375 h 0.25 c 0.03125,-0.515625 0.0625,-1.21875 0.375,-1.5625 0.34375,-0.34375 0.90625,-0.375 1.375,-0.375 h 0.28125 c 0.25,0 0.515625,0 0.515625,0.34375 v 5.40625 C 3.15625,-0.375 2.75,-0.3125 2.390625,-0.3125 c -0.125,0 -0.25,0 -0.359375,0 H 1.703125 v 0.296875 h 3.78125 V -0.3125 H 4.8125 c -0.390625,0 -0.78125,-0.046875 -0.78125,-0.453125 v -5.40625 c 0,-0.28125 0.171875,-0.34375 0.546875,-0.34375 h 0.25 c 0.46875,0 1.03125,0.03125 1.375,0.375 0.3125,0.34375 0.34375,1.046875 0.375,1.5625 h 0.25 L 6.640625,-6.8125 Z m 0,0"
               id="id-1ed9f23d-933a-438f-b362-ce982df97fd5" />
          </symbol>
          <symbol
             overflow="visible"
             id="id-f1ea76d3-22aa-4509-9008-9d81919a611e">
            <path
               style="stroke:none"
               d="m 1.109375,-2.3125 h 2.875 c 0.109375,0 0.15625,-0.0625 0.15625,-0.1875 0,-1.046875 -0.640625,-1.96875 -1.765625,-1.96875 -1.21875,0 -2.09375,1.09375 -2.09375,2.28125 0,0.90625 0.5,1.734375 1.390625,2.125 0.21875,0.109375 0.484375,0.15625 0.734375,0.15625 H 2.4375 c 0.765625,0 1.40625,-0.421875 1.671875,-1.1875 C 4.125,-1.125 4.125,-1.171875 4.125,-1.203125 4.125,-1.265625 4.09375,-1.3125 4.015625,-1.3125 3.875,-1.3125 3.8125,-0.984375 3.75,-0.875 3.5,-0.4375 3.015625,-0.15625 2.5,-0.15625 c -0.359375,0 -0.6875,-0.203125 -0.953125,-0.46875 -0.40625,-0.46875 -0.4375,-1.109375 -0.4375,-1.6875 z M 1.125,-2.515625 C 1.125,-3.296875 1.53125,-4.25 2.359375,-4.25 H 2.40625 c 0.96875,0.09375 0.96875,1.125 1.0625,1.734375 z m 0,0"
               id="id-43f58243-ac75-4628-a4a0-793a986b822e" />
          </symbol>
          <symbol
             overflow="visible"
             id="id-2e6e6ed7-78af-4dee-879d-18ffe5676023">
            <path
               style="stroke:none"
               d="m 2.34375,-4.46875 c -1.25,0.125 -2.0625,1.1875 -2.0625,2.34375 0,1.125 0.890625,2.21875 2.21875,2.21875 1.1875,0 2.1875,-0.96875 2.1875,-2.234375 0,-1.171875 -0.890625,-2.328125 -2.21875,-2.328125 -0.03125,0 -0.09375,0 -0.125,0 z m -1.234375,2.578125 v -0.4375 c 0,-0.765625 0.25,-1.921875 1.375,-1.921875 0.8125,0 1.265625,0.6875 1.359375,1.4375 0.015625,0.21875 0.015625,0.4375 0.015625,0.65625 0,0.640625 -0.078125,1.453125 -0.703125,1.8125 C 2.953125,-0.203125 2.734375,-0.15625 2.5,-0.15625 1.78125,-0.15625 1.265625,-0.71875 1.15625,-1.5 1.140625,-1.625 1.140625,-1.765625 1.109375,-1.890625 Z m 0,0"
               id="id-fd10152d-ed15-4fb0-b69e-8bf6c37f5f32" />
          </symbol>
          <symbol
             overflow="visible"
             id="id-0893d2a8-8b95-44b5-992b-c4ade399523d">
            <path
               style="stroke:none"
               d="m 0.265625,-4.296875 v 0.3125 h 0.1875 c 0.296875,0 0.59375,0.03125 0.59375,0.421875 V 1.21875 C 1.046875,1.578125 0.78125,1.609375 0.5,1.609375 H 0.265625 v 0.3125 h 2.25 v -0.3125 H 2.28125 C 1.984375,1.609375 1.75,1.578125 1.75,1.21875 v -1.734375 c 0.234375,0.421875 0.796875,0.609375 1.21875,0.609375 1.234375,0 2.21875,-1.046875 2.21875,-2.25 0,-1.203125 -0.921875,-2.25 -2.09375,-2.25 -0.546875,0 -1.015625,0.234375 -1.375,0.640625 V -4.40625 Z m 4.078125,2.3125 C 4.296875,-1.25 3.90625,-0.203125 3,-0.125 H 2.9375 C 2.515625,-0.125 2.125,-0.359375 1.890625,-0.71875 1.796875,-0.828125 1.75,-0.921875 1.75,-1.0625 V -2.734375 C 1.75,-2.875 1.734375,-3 1.734375,-3.125 1.734375,-3.65625 2.40625,-4.15625 3,-4.15625 c 1,0 1.359375,1.3125 1.359375,2.015625 0,0.046875 0,0.109375 -0.015625,0.15625 z m 0,0"
               id="id-6f1dce93-253c-4dc9-aa96-869702f013c9" />
          </symbol>
          <symbol
             overflow="visible"
             id="id-d555cfd2-2c8b-4abf-a6c1-b16fea391f9c">
            <path
               style="stroke:none"
               d="m 0.296875,-4.296875 v 0.21875 h 0.21875 c 0.296875,0 0.5625,0.046875 0.5625,0.421875 v 2.625 c 0,0.625 -0.34375,0.796875 -0.78125,0.796875 v 0.21875 h 1.84375 v -0.21875 C 1.734375,-0.234375 1.359375,-0.375 1.359375,-1 v -2.953125 c 0.03125,0.125 0.109375,0.25 0.171875,0.390625 0.453125,1.125 0.90625,2.25 1.421875,3.359375 0.03125,0.078125 0.078125,0.1875 0.171875,0.1875 H 3.140625 C 3.25,-0.03125 3.296875,-0.15625 3.328125,-0.25 L 3.625,-0.96875 C 4,-1.859375 4.375,-2.75 4.765625,-3.640625 4.828125,-3.78125 4.890625,-3.921875 4.9375,-4.0625 v 3.421875 c 0,0.40625 -0.328125,0.40625 -0.703125,0.40625 h -0.0625 v 0.21875 H 6.34375 v -0.21875 H 6.109375 c -0.28125,0 -0.546875,-0.03125 -0.546875,-0.4375 V -3.625 c 0,-0.421875 0.265625,-0.453125 0.78125,-0.453125 v -0.21875 H 5.046875 c -0.21875,0 -0.265625,0.125 -0.328125,0.296875 -0.09375,0.234375 -0.1875,0.453125 -0.28125,0.6875 l -0.75,1.75 C 3.5625,-1.28125 3.484375,-1 3.34375,-0.75 2.90625,-1.828125 2.40625,-2.90625 1.96875,-4 1.890625,-4.140625 1.890625,-4.296875 1.640625,-4.296875 Z m 0,0"
               id="id-6b5782d3-5c26-4c46-b1c5-1118e04d1cdc" />
          </symbol>
          <symbol
             overflow="visible"
             id="id-bab1f232-bc36-43de-901b-7ac18a8b8404">
            <path
               style="stroke:none"
               d="m 1.109375,-3.796875 c 0.25,-0.3125 0.6875,-0.453125 1.0625,-0.453125 0.734375,0 1.0625,0.671875 1.0625,1.375 v 0.265625 c -1.140625,0 -2.828125,0.359375 -2.828125,1.65625 V -0.875 c 0.078125,0.78125 1.046875,0.96875 1.625,0.96875 0.5,0 1.15625,-0.328125 1.28125,-0.84375 0.0625,0.4375 0.34375,0.796875 0.78125,0.796875 0.40625,0 0.765625,-0.328125 0.828125,-0.78125 v -0.71875 h -0.25 v 0.5 c 0,0.28125 -0.0625,0.6875 -0.359375,0.6875 -0.328125,0 -0.375,-0.390625 -0.375,-0.65625 V -2.59375 c 0,-0.125 0.015625,-0.25 0.015625,-0.375 0,-0.96875 -0.90625,-1.5 -1.734375,-1.5 -0.640625,0 -1.515625,0.3125 -1.515625,1.109375 0,0.28125 0.203125,0.484375 0.46875,0.484375 0.28125,0 0.4375,-0.21875 0.4375,-0.46875 0,-0.28125 -0.21875,-0.453125 -0.5,-0.453125 z m 2.125,1.390625 v 1.015625 c 0,0.6875 -0.46875,1.234375 -1.125,1.265625 H 2.078125 C 1.609375,-0.125 1.1875,-0.484375 1.1875,-0.96875 V -1.015625 C 1.25,-2.03125 2.375,-2.375 3.234375,-2.40625 Z m 0,0"
               id="id-058e7c17-4709-4d0e-b5ab-c254563eadf6" />
          </symbol>
          <symbol
             overflow="visible"
             id="id-933fb07a-4881-4cf2-973b-784eeaeff187">
            <path
               style="stroke:none"
               d="m 0.328125,-6.8125 v 0.296875 c 0.125,0 0.265625,0 0.375,0 0.359375,0 0.65625,0.046875 0.65625,0.4375 V -0.75 c 0,0.375 -0.328125,0.4375 -0.671875,0.4375 -0.125,0 -0.25,0 -0.359375,0 v 0.296875 h 2.9375 V -0.3125 c -0.109375,0 -0.25,0 -0.359375,0 C 2.546875,-0.3125 2.25,-0.359375 2.25,-0.75 v -5.234375 c 0,-0.0625 -0.015625,-0.125 -0.015625,-0.1875 0,-0.296875 0.1875,-0.34375 0.53125,-0.34375 H 5.15625 C 5.34375,-6.484375 5.5,-6.453125 5.5,-6.171875 V -0.75 c 0,0.390625 -0.34375,0.4375 -0.71875,0.4375 h -0.3125 v 0.296875 H 7.421875 V -0.3125 c -0.125,0 -0.25,0 -0.375,0 -0.34375,0 -0.65625,-0.046875 -0.65625,-0.4375 v -5.328125 c 0,-0.375 0.3125,-0.4375 0.65625,-0.4375 0.125,0 0.265625,0 0.375,0 V -6.8125 Z m 0,0"
               id="id-d822a618-75ca-4959-a3e2-e00da31913f9" />
          </symbol>
          <symbol
             overflow="visible"
             id="id-74aa2cea-0abe-4efb-a4c0-95f7132a414e">
            <path
               style="stroke:none"
               d="m 0.25,-4.296875 v 0.21875 h 0.234375 c 0.28125,0 0.546875,0.046875 0.546875,0.453125 v 2.953125 c 0,0.421875 -0.28125,0.4375 -0.78125,0.4375 v 0.21875 H 2.5 v -0.21875 H 2.328125 C 2.03125,-0.234375 1.71875,-0.265625 1.71875,-0.625 1.734375,-0.71875 1.828125,-0.78125 1.875,-0.859375 L 2.265625,-1.34375 C 2.78125,-1.96875 3.25,-2.65625 3.796875,-3.25 v 2.578125 c 0,0.34375 -0.140625,0.4375 -0.78125,0.4375 v 0.21875 H 5.28125 v -0.21875 H 5.046875 C 4.765625,-0.234375 4.5,-0.265625 4.5,-0.671875 V -3.625 c 0,-0.421875 0.25,-0.453125 0.78125,-0.453125 v -0.21875 H 3.015625 v 0.21875 h 0.1875 c 0.28125,0 0.59375,0.03125 0.59375,0.40625 -0.015625,0.078125 -0.09375,0.15625 -0.140625,0.21875 l -0.390625,0.5 c -0.53125,0.625 -1,1.296875 -1.546875,1.890625 v -2.578125 c 0,-0.34375 0.140625,-0.4375 0.78125,-0.4375 v -0.21875 z m 0,0"
               id="id-fcabce82-b654-47af-9bd5-730fcfd1bd49" />
          </symbol>
          <symbol
             overflow="visible"
             id="id-bbc9e552-f348-4219-acf9-a50f1cdd90dd">
            <path
               style="stroke:none"
               d="m 2.765625,-6.8125 v 0.296875 H 2.9375 c 0.328125,0 0.59375,0.046875 0.59375,0.59375 v 2 C 3.3125,-4.25 2.90625,-4.40625 2.515625,-4.40625 c -1.203125,0 -2.171875,1.0625 -2.171875,2.25 0,1.203125 0.984375,2.25 2.234375,2.25 0.40625,0 0.703125,-0.171875 0.953125,-0.46875 v 1.359375 c 0,0.0625 0.015625,0.140625 0.015625,0.21875 0,0.40625 -0.296875,0.40625 -0.71875,0.40625 h -0.0625 v 0.3125 h 2.21875 v -0.3125 H 4.75 c -0.296875,0 -0.546875,-0.03125 -0.546875,-0.40625 0,-0.078125 0,-0.15625 0,-0.21875 V -0.375 c 0.265625,0.296875 0.5625,0.46875 0.953125,0.46875 1.234375,0 2.25,-1.015625 2.25,-2.25 0,-1.125 -0.90625,-2.25 -2.1875,-2.25 -0.375,0 -0.796875,0.15625 -1,0.484375 l -0.015625,-3 z M 6.5625,-1.984375 C 6.5,-1.1875 6.0625,-0.125 5.109375,-0.125 c -0.40625,0 -0.90625,-0.421875 -0.90625,-0.859375 V -3.4375 c 0.078125,-0.4375 0.59375,-0.71875 0.9375,-0.71875 1.015625,0 1.4375,1.25 1.4375,2.015625 0,0.046875 0,0.109375 -0.015625,0.15625 z M 1.171875,-2 v -0.109375 c 0,-0.8125 0.421875,-2.046875 1.4375,-2.046875 0.40625,0 0.875,0.359375 0.921875,0.71875 v 2.453125 C 3.53125,-0.515625 3.015625,-0.125 2.625,-0.125 1.6875,-0.125 1.25,-1.171875 1.171875,-2 Z m 0,0"
               id="id-0683f567-a9f1-4745-b4b3-aaccb2bc6744" />
          </symbol>
          <symbol
             overflow="visible"
             id="id-1238a689-5b0d-440c-a358-49fdef9e2f58">
            <path
               style="stroke:none"
               d="m 0.25,-4.296875 v 0.21875 h 0.234375 c 0.28125,0 0.546875,0.046875 0.546875,0.453125 v 2.953125 c 0,0.421875 -0.28125,0.4375 -0.78125,0.4375 v 0.21875 h 2.4375 v -0.21875 H 2.390625 c -0.359375,0 -0.671875,-0.03125 -0.671875,-0.46875 V -3.71875 c 0,-0.203125 0.078125,-0.359375 0.3125,-0.359375 h 0.625 c 0.671875,0 1.203125,0.046875 1.265625,1.390625 h 0.25 L 4.0625,-4.296875 Z m 0,0"
               id="id-9d44d282-7b4f-42e7-a388-8c68fc51fdc9" />
          </symbol>
          <symbol
             overflow="visible"
             id="id-48803261-5e41-4181-9263-71468bf60495">
            <path
               style="stroke:none"
               d="m 0.625,-7.484375 c -0.046875,0.03125 -0.0625,0.0625 -0.0625,0.09375 0,0.109375 0.21875,0.28125 0.328125,0.40625 C 1.96875,-5.75 2.28125,-4.0625 2.28125,-2.5 2.28125,-0.890625 1.953125,0.9375 0.75,2.140625 0.6875,2.203125 0.5625,2.296875 0.5625,2.375 c 0,0.0625 0.046875,0.109375 0.109375,0.109375 C 0.796875,2.46875 1,2.25 1.109375,2.140625 2.375,0.875 2.875,-0.8125 2.875,-2.515625 2.875,-4.34375 2.265625,-6.171875 0.8125,-7.40625 0.765625,-7.4375 0.71875,-7.484375 0.65625,-7.484375 c -0.015625,0 -0.015625,0 -0.03125,0 z m 0,0"
               id="id-864f3622-5c66-479f-b6ec-ea0724410932" />
          </symbol>
          <symbol
             overflow="visible"
             id="id-2e9bf336-6ba3-4691-a09e-4b7374235fbc">
            <path
               style="stroke:none"
               d="m 1.3125,-4.28125 c -0.25,0.03125 -0.453125,0.25 -0.453125,0.5 0,0.25 0.203125,0.546875 0.5,0.546875 0.28125,0 0.546875,-0.21875 0.546875,-0.53125 0,-0.25 -0.1875,-0.53125 -0.515625,-0.53125 -0.03125,0 -0.0625,0.015625 -0.078125,0.015625 z m 0,3.21875 c -0.25,0.03125 -0.453125,0.265625 -0.453125,0.515625 0,0.25 0.203125,0.53125 0.5,0.53125 0.28125,0 0.546875,-0.203125 0.546875,-0.515625 0,-0.25 -0.1875,-0.53125 -0.515625,-0.53125 -0.03125,0 -0.0625,0 -0.078125,0 z m 0,0"
               id="id-13ef3021-7de2-403c-a24b-29d6863fa054" />
          </symbol>
          <symbol
             overflow="visible"
             id="id-6b5d0673-22df-4f1c-ac64-989df3e59611">
            <path
               style="stroke:none"
               d="m 1.453125,-6.5625 c -0.25,0.015625 -0.46875,0.25 -0.46875,0.515625 0,0.28125 0.25,0.53125 0.53125,0.53125 0.28125,0 0.53125,-0.234375 0.53125,-0.53125 0,-0.265625 -0.1875,-0.53125 -0.515625,-0.53125 -0.03125,0 -0.0625,0.015625 -0.078125,0.015625 z m 1.921875,0 c -0.25,0.015625 -0.4375,0.25 -0.4375,0.515625 0,0.25 0.1875,0.53125 0.484375,0.53125 0.3125,0 0.5625,-0.234375 0.5625,-0.53125 0,-0.296875 -0.25,-0.53125 -0.53125,-0.53125 -0.03125,0 -0.046875,0.015625 -0.078125,0.015625 z m 0,0"
               id="id-776edb5b-6717-4939-b0c0-cdca75a08daa" />
          </symbol>
          <symbol
             overflow="visible"
             id="id-c182d710-ce98-4141-a4f2-e115cea82c21">
            <path
               style="stroke:none"
               d="m 0.3125,-4.296875 v 0.3125 h 0.140625 c 0.28125,0 0.578125,0.015625 0.640625,0.3125 0,0.109375 0,0.21875 0,0.328125 v 1.984375 c 0,0.328125 0.015625,0.625 0.1875,0.921875 0.28125,0.421875 0.84375,0.546875 1.3125,0.546875 0.453125,0 0.859375,-0.203125 1.109375,-0.5625 C 3.765625,-0.5625 3.84375,-0.65625 3.875,-0.78125 v 0.875 L 5.328125,-0.015625 V -0.3125 h -0.15625 c -0.328125,0 -0.625,-0.03125 -0.625,-0.484375 V -4.40625 l -1.46875,0.109375 v 0.3125 H 3.21875 c 0.328125,0 0.625,0.03125 0.625,0.5 V -1.6875 c 0,0.734375 -0.375,1.5625 -1.203125,1.5625 -0.5625,0 -0.84375,-0.140625 -0.84375,-1.203125 V -4.40625 Z m 0,0"
               id="id-da2447bf-1a19-4b66-b8f8-e2270bfc2ffd" />
          </symbol>
          <symbol
             overflow="visible"
             id="id-f7e430eb-b115-414a-b593-b8e175886dc7">
            <path
               style="stroke:none"
               d=""
               id="id-f93f8236-32d0-49ee-9e16-384d2623e2d2" />
          </symbol>
          <symbol
             overflow="visible"
             id="id-e4874c49-cd01-40ff-9b6a-5a0dca2eae78">
            <path
               style="stroke:none"
               d="M 3.71875,-3.765625 C 3.53125,-4.140625 3.25,-4.40625 2.796875,-4.40625 c -1.15625,0 -2.390625,1.46875 -2.390625,2.921875 0,0.9375 0.546875,1.59375 1.3125,1.59375 0.203125,0 0.703125,-0.046875 1.296875,-0.75 0.078125,0.421875 0.4375,0.75 0.90625,0.75 0.359375,0 0.578125,-0.234375 0.75,-0.546875 0.15625,-0.359375 0.296875,-0.96875 0.296875,-0.984375 0,-0.109375 -0.09375,-0.109375 -0.125,-0.109375 -0.09375,0 -0.109375,0.046875 -0.140625,0.1875 -0.171875,0.640625 -0.34375,1.234375 -0.75,1.234375 -0.28125,0 -0.296875,-0.265625 -0.296875,-0.453125 0,-0.21875 0.015625,-0.3125 0.125,-0.75 C 3.890625,-1.71875 3.90625,-1.828125 4,-2.203125 L 4.359375,-3.59375 c 0.0625,-0.28125 0.0625,-0.296875 0.0625,-0.34375 0,-0.171875 -0.109375,-0.265625 -0.28125,-0.265625 -0.25,0 -0.390625,0.21875 -0.421875,0.4375 z M 3.078125,-1.1875 C 3.015625,-1 3.015625,-0.984375 2.875,-0.8125 2.4375,-0.265625 2.03125,-0.109375 1.75,-0.109375 c -0.5,0 -0.640625,-0.546875 -0.640625,-0.9375 0,-0.5 0.3125,-1.71875 0.546875,-2.1875 0.3125,-0.578125 0.75,-0.953125 1.15625,-0.953125 0.640625,0 0.78125,0.8125 0.78125,0.875 0,0.0625 -0.015625,0.125 -0.03125,0.171875 z m 0,0"
               id="id-081101ba-e1f5-4036-af1a-de3277e46f88" />
          </symbol>
          <symbol
             overflow="visible"
             id="id-d822318f-194a-41a6-a15c-7de5857a9a97">
            <path
               style="stroke:none"
               d="m 2.375,-6.8125 c 0,0 0,-0.109375 -0.125,-0.109375 -0.21875,0 -0.953125,0.078125 -1.21875,0.109375 -0.078125,0 -0.1875,0.015625 -0.1875,0.1875 0,0.125 0.09375,0.125 0.25,0.125 0.46875,0 0.484375,0.0625 0.484375,0.171875 0,0.0625 -0.078125,0.40625 -0.125,0.609375 l -0.828125,3.25 c -0.109375,0.5 -0.15625,0.671875 -0.15625,1.015625 0,0.9375 0.53125,1.5625 1.265625,1.5625 1.171875,0 2.40625,-1.484375 2.40625,-2.921875 0,-0.90625 -0.53125,-1.59375 -1.328125,-1.59375 -0.453125,0 -0.875,0.296875 -1.171875,0.59375 z M 1.453125,-3.046875 C 1.5,-3.265625 1.5,-3.28125 1.59375,-3.390625 2.078125,-4.03125 2.53125,-4.1875 2.796875,-4.1875 c 0.359375,0 0.625,0.296875 0.625,0.9375 0,0.59375 -0.328125,1.734375 -0.515625,2.109375 -0.328125,0.671875 -0.78125,1.03125 -1.171875,1.03125 -0.34375,0 -0.671875,-0.265625 -0.671875,-1 0,-0.203125 0,-0.390625 0.15625,-1.015625 z m 0,0"
               id="id-e045b3b8-2870-42c5-afcb-565fc36714d0" />
          </symbol>
          <symbol
             overflow="visible"
             id="id-098cd5c3-5fde-4674-aeba-1cb515dced28">
            <path
               style="stroke:none"
               d="m 3.953125,-3.78125 c -0.171875,0 -0.296875,0 -0.4375,0.125 -0.171875,0.15625 -0.1875,0.328125 -0.1875,0.390625 0,0.25 0.1875,0.359375 0.375,0.359375 0.28125,0 0.546875,-0.25 0.546875,-0.640625 0,-0.484375 -0.46875,-0.859375 -1.171875,-0.859375 -1.34375,0 -2.671875,1.421875 -2.671875,2.828125 0,0.90625 0.578125,1.6875 1.625,1.6875 1.421875,0 2.25,-1.0625 2.25,-1.171875 0,-0.0625 -0.046875,-0.140625 -0.109375,-0.140625 -0.0625,0 -0.078125,0.03125 -0.140625,0.109375 -0.78125,0.984375 -1.875,0.984375 -1.984375,0.984375 -0.625,0 -0.90625,-0.484375 -0.90625,-1.09375 0,-0.40625 0.203125,-1.375 0.546875,-1.984375 0.3125,-0.578125 0.859375,-1 1.40625,-1 0.328125,0 0.71875,0.125 0.859375,0.40625 z m 0,0"
               id="id-84f8e116-1dbc-4634-a1e8-08f5057facd9" />
          </symbol>
          <symbol
             overflow="visible"
             id="id-8a965ffe-fbbf-4bde-8a03-5a8833471124">
            <path
               style="stroke:none"
               d=""
               id="id-cf9c8e1a-4207-48bf-aa61-88829a4f5dc3" />
          </symbol>
          <symbol
             overflow="visible"
             id="id-16211861-e5fe-4d4f-9e9e-b9cf3db1e793">
            <path
               style="stroke:none"
               d="M 3.515625,-1.265625 H 3.28125 c -0.015625,0.15625 -0.09375,0.5625 -0.1875,0.625 C 3.046875,-0.59375 2.515625,-0.59375 2.40625,-0.59375 H 1.125 c 0.734375,-0.640625 0.984375,-0.84375 1.390625,-1.171875 0.515625,-0.40625 1,-0.84375 1,-1.5 0,-0.84375 -0.734375,-1.359375 -1.625,-1.359375 -0.859375,0 -1.453125,0.609375 -1.453125,1.25 0,0.34375 0.296875,0.390625 0.375,0.390625 0.15625,0 0.359375,-0.125 0.359375,-0.375 0,-0.125 -0.046875,-0.375 -0.40625,-0.375 C 0.984375,-4.21875 1.453125,-4.375 1.78125,-4.375 c 0.703125,0 1.0625,0.546875 1.0625,1.109375 0,0.609375 -0.4375,1.078125 -0.65625,1.328125 L 0.515625,-0.265625 C 0.4375,-0.203125 0.4375,-0.1875 0.4375,0 h 2.875 z m 0,0"
               id="id-541a38a2-f792-41c5-bf17-63ded1e10532" />
          </symbol>
          <symbol
             overflow="visible"
             id="id-3ccecc51-c314-4544-b8a1-0e42a7541d12">
            <path
               style="stroke:none"
               d=""
               id="id-dc3e3720-a4fc-48e5-bea1-f62afd5af103" />
          </symbol>
          <symbol
             overflow="visible"
             id="id-206566c1-cf6a-4f85-9443-5adc0773fea9">
            <path
               style="stroke:none"
               d="m 4.078125,-2.296875 h 2.78125 C 7,-2.296875 7.1875,-2.296875 7.1875,-2.5 7.1875,-2.6875 7,-2.6875 6.859375,-2.6875 h -2.78125 v -2.796875 c 0,-0.140625 0,-0.328125 -0.203125,-0.328125 -0.203125,0 -0.203125,0.1875 -0.203125,0.328125 V -2.6875 h -2.78125 c -0.140625,0 -0.328125,0 -0.328125,0.1875 0,0.203125 0.1875,0.203125 0.328125,0.203125 h 2.78125 V 0.5 c 0,0.140625 0,0.328125 0.203125,0.328125 0.203125,0 0.203125,-0.1875 0.203125,-0.328125 z m 0,0"
               id="id-57a87299-4c55-4bee-8aa1-fce0b329c0e5" />
          </symbol>
          <symbol
             overflow="visible"
             id="id-804df925-3d74-4db7-bacf-78a908e50c4f">
            <path
               style="stroke:none"
               d="m 6.84375,-3.265625 c 0.15625,0 0.34375,0 0.34375,-0.1875 C 7.1875,-3.65625 7,-3.65625 6.859375,-3.65625 h -5.96875 c -0.140625,0 -0.328125,0 -0.328125,0.203125 0,0.1875 0.1875,0.1875 0.328125,0.1875 z m 0.015625,1.9375 c 0.140625,0 0.328125,0 0.328125,-0.203125 0,-0.1875 -0.1875,-0.1875 -0.34375,-0.1875 H 0.890625 c -0.140625,0 -0.328125,0 -0.328125,0.1875 0,0.203125 0.1875,0.203125 0.328125,0.203125 z m 0,0"
               id="id-505fc3c3-4c52-4c75-b04f-523274767316" />
          </symbol>
          <symbol
             overflow="visible"
             id="id-0c9ac2de-ef76-4400-abb5-9b48805239d4">
            <path
               style="stroke:none"
               d="m 3.09375,-4.171875 c 0.890625,-0.25 1.328125,-0.859375 1.328125,-1.4375 0,-0.75 -0.71875,-1.421875 -1.703125,-1.421875 -0.78125,0 -1.65625,0.484375 -1.65625,1.484375 v 1.25 H 0.28125 v 0.3125 H 1.0625 V -0.75 c 0,0.4375 -0.109375,0.4375 -0.78125,0.4375 V 0 C 0.46875,-0.015625 1.125,-0.03125 1.25,-0.03125 c 0.109375,0 0.28125,0 0.46875,0.03125 v -5.5625 c 0,-1.140625 0.796875,-1.25 1,-1.25 0.40625,0 0.953125,0.3125 0.953125,1.1875 0,0.640625 -0.359375,1.25 -1.234375,1.328125 -0.09375,0.015625 -0.171875,0.015625 -0.171875,0.109375 0,0.015625 0,0.09375 0.09375,0.109375 1.1875,0.09375 1.59375,1.3125 1.59375,2.359375 0,1.28125 -0.65625,1.609375 -1.03125,1.609375 -0.09375,0 -0.3125,-0.015625 -0.5,-0.1875 C 2.53125,-0.3125 2.71875,-0.421875 2.71875,-0.65625 2.71875,-0.875 2.5625,-1.015625 2.359375,-1.015625 2.1875,-1.015625 2,-0.890625 2,-0.640625 c 0,0.390625 0.375,0.75 0.953125,0.75 0.859375,0 1.734375,-0.734375 1.734375,-1.84375 0,-0.71875 -0.3125,-1.921875 -1.59375,-2.4375 z m 0,0"
               id="id-1dcad7f0-4c3d-4ea0-8eef-fd20c3354e54" />
          </symbol>
        </g>
      </defs>
      <g
         id="id-e4c73ce9-5df0-49fb-a90e-1001c90cf486"
         transform="translate(-134.173, -127.281)">
        <g
           style="fill:#000000;fill-opacity:1"
           id="id-bcb95501-d068-49c9-8a19-a9e5ba91af8e">
          <g
             transform="translate(133.768, 134.765)"
             id="g1173">
            <path
               style="stroke:none"
               d="m 1.15625,-0.484375 c 0.625,0.484375 1.109375,0.6875 1.890625,0.6875 1.1875,0 1.921875,-1.0625 1.921875,-2.078125 C 4.96875,-2.703125 4.5,-3.46875 3.703125,-3.796875 3.09375,-4.046875 2.34375,-4.03125 1.8125,-4.34375 c -0.390625,-0.25 -0.625,-0.6875 -0.625,-1.125 0,-0.78125 0.671875,-1.296875 1.375,-1.296875 0.984375,0 1.671875,0.796875 1.828125,1.796875 0.03125,0.140625 0,0.40625 0.1875,0.40625 0.109375,0 0.109375,-0.078125 0.109375,-0.171875 v -2.15625 c 0,-0.078125 -0.015625,-0.140625 -0.09375,-0.140625 -0.140625,0 -0.25,0.265625 -0.34375,0.40625 -0.046875,0.078125 -0.125,0.1875 -0.15625,0.28125 -0.421875,-0.40625 -0.890625,-0.6875 -1.546875,-0.6875 -0.984375,0 -2,0.671875 -2,1.9375 0,1.03125 0.765625,1.71875 1.734375,1.921875 C 2.5,-3.125 2.6875,-3.0625 2.90625,-3.015625 3.453125,-2.875 4.015625,-2.734375 4.25,-2.03125 c 0.0625,0.15625 0.09375,0.3125 0.09375,0.46875 0,0.75 -0.515625,1.46875 -1.359375,1.46875 C 2,-0.09375 1.03125,-0.625 0.828125,-1.78125 0.8125,-1.859375 0.8125,-1.96875 0.796875,-2.046875 V -2.125 c 0,-0.09375 -0.046875,-0.140625 -0.125,-0.140625 -0.109375,0 -0.125,0.078125 -0.125,0.140625 v 2.1875 c 0,0.078125 0.015625,0.140625 0.09375,0.140625 0.15625,0 0.265625,-0.265625 0.34375,-0.40625 0.0625,-0.09375 0.125,-0.1875 0.171875,-0.28125 z m 0,0"
               id="id-235be29a-740e-46bf-83cc-84ec303fa21a" />
          </g>
          <g
             transform="translate(139.301, 134.765)"
             id="g1176">
            <path
               style="stroke:none"
               d="m 1.109375,-3.796875 c 0.25,-0.3125 0.6875,-0.453125 1.0625,-0.453125 0.734375,0 1.0625,0.671875 1.0625,1.375 v 0.265625 c -1.140625,0 -2.828125,0.359375 -2.828125,1.65625 V -0.875 c 0.078125,0.78125 1.046875,0.96875 1.625,0.96875 0.5,0 1.15625,-0.328125 1.28125,-0.84375 0.0625,0.4375 0.34375,0.796875 0.78125,0.796875 0.40625,0 0.765625,-0.328125 0.828125,-0.78125 v -0.71875 h -0.25 v 0.5 c 0,0.28125 -0.0625,0.6875 -0.359375,0.6875 -0.328125,0 -0.375,-0.390625 -0.375,-0.65625 V -2.59375 c 0,-0.125 0.015625,-0.25 0.015625,-0.375 0,-0.96875 -0.90625,-1.5 -1.734375,-1.5 -0.640625,0 -1.515625,0.3125 -1.515625,1.109375 0,0.28125 0.203125,0.484375 0.46875,0.484375 0.28125,0 0.4375,-0.21875 0.4375,-0.46875 0,-0.28125 -0.21875,-0.453125 -0.5,-0.453125 z m 2.125,1.390625 v 1.015625 c 0,0.6875 -0.46875,1.234375 -1.125,1.265625 H 2.078125 C 1.609375,-0.125 1.1875,-0.484375 1.1875,-0.96875 V -1.015625 C 1.25,-2.03125 2.375,-2.375 3.234375,-2.40625 Z m 0,0"
               id="id-33340b16-f1dc-4717-9832-a40c24464fef" />
          </g>
          <g
             transform="translate(144.282, 134.765)"
             id="g1179">
            <path
               style="stroke:none"
               d="m 1.484375,-6.140625 c 0,0.6875 -0.28125,1.9375 -1.3125,1.9375 v 0.21875 H 1.03125 v 2.5625 c 0,0.328125 0.03125,0.671875 0.1875,0.953125 0.21875,0.40625 0.6875,0.5625 1.125,0.5625 0.8125,0 0.96875,-0.90625 0.96875,-1.546875 V -1.8125 H 3.078125 c 0,0.140625 0,0.296875 0,0.453125 0,0.4375 -0.09375,1.203125 -0.6875,1.203125 -0.5625,0 -0.65625,-0.6875 -0.65625,-1.125 V -3.984375 H 3.15625 v -0.3125 H 1.734375 v -1.84375 z m 0,0"
               id="id-308b15d0-e483-4267-95e0-b321f84e590c" />
          </g>
          <g
             transform="translate(148.155, 134.765)"
             id="g1182">
            <path
               style="stroke:none"
               d="M 0.53125,-4.296875 0.421875,-2.6875 h 0.25 c 0.015625,-0.359375 0.03125,-0.765625 0.25,-1.046875 0.25,-0.3125 0.71875,-0.34375 1.109375,-0.34375 H 3.140625 C 2.203125,-2.875 1.3125,-1.59375 0.390625,-0.375 0.34375,-0.3125 0.28125,-0.21875 0.28125,-0.140625 c 0,0.09375 0.0625,0.125 0.171875,0.125 h 3.375 L 4,-1.875 H 3.75 C 3.671875,-1.203125 3.625,-0.375 2.671875,-0.28125 2.4375,-0.265625 2.21875,-0.265625 2,-0.265625 H 1.125 C 1.859375,-1.25 2.59375,-2.25 3.328125,-3.234375 3.546875,-3.53125 3.984375,-4 3.984375,-4.171875 c 0,-0.09375 -0.09375,-0.125 -0.171875,-0.125 z m 0,0"
               id="id-515d8852-397d-4197-9c14-71edf8dfe507" />
          </g>
        </g>
        <g
           style="fill:#000000;fill-opacity:1"
           id="id-ec81f831-a88a-40cc-8cb8-32e08aa497ff">
          <g
             transform="translate(155.899, 134.765)"
             id="g1186">
            <path
               style="stroke:none"
               d="m 3.03125,-6.8125 v 0.296875 H 3.1875 c 0.34375,0 0.625,0.046875 0.625,0.625 l -0.015625,2.09375 C 3.5625,-4.203125 2.984375,-4.40625 2.53125,-4.40625 c -1.21875,0 -2.203125,1.0625 -2.203125,2.265625 0,1.0625 0.8125,2.234375 2.140625,2.234375 0.515625,0 0.984375,-0.25 1.3125,-0.640625 V 0.09375 L 5.25,-0.015625 V -0.3125 H 5.078125 c -0.296875,0 -0.609375,-0.03125 -0.609375,-0.5 V -6.921875 Z M 1.171875,-1.90625 V -2.046875 C 1.171875,-2.796875 1.25,-3.53125 1.9375,-4 2.140625,-4.109375 2.375,-4.1875 2.609375,-4.1875 c 0.484375,0 1.171875,0.40625 1.171875,1.03125 0,0.125 0,0.25 0,0.390625 v 1.65625 c 0,0.125 -0.046875,0.21875 -0.125,0.3125 C 3.40625,-0.40625 2.96875,-0.125 2.5,-0.125 1.78125,-0.125 1.3125,-0.78125 1.203125,-1.46875 1.1875,-1.609375 1.1875,-1.765625 1.171875,-1.90625 Z m 0,0"
               id="id-0562d040-13d5-4096-a1f5-6988abf0598e" />
          </g>
          <g
             transform="translate(161.432, 134.765)"
             id="g1189">
            <path
               style="stroke:none"
               d="m 1.109375,-2.3125 h 2.875 c 0.109375,0 0.15625,-0.0625 0.15625,-0.1875 0,-1.046875 -0.640625,-1.96875 -1.765625,-1.96875 -1.21875,0 -2.09375,1.09375 -2.09375,2.28125 0,0.90625 0.5,1.734375 1.390625,2.125 0.21875,0.109375 0.484375,0.15625 0.734375,0.15625 H 2.4375 c 0.765625,0 1.40625,-0.421875 1.671875,-1.1875 C 4.125,-1.125 4.125,-1.171875 4.125,-1.203125 4.125,-1.265625 4.09375,-1.3125 4.015625,-1.3125 3.875,-1.3125 3.8125,-0.984375 3.75,-0.875 3.5,-0.4375 3.015625,-0.15625 2.5,-0.15625 c -0.359375,0 -0.6875,-0.203125 -0.953125,-0.46875 -0.40625,-0.46875 -0.4375,-1.109375 -0.4375,-1.6875 z M 1.125,-2.515625 C 1.125,-3.296875 1.53125,-4.25 2.359375,-4.25 H 2.40625 c 0.96875,0.09375 0.96875,1.125 1.0625,1.734375 z m 0,0"
               id="id-5c698ac7-1636-4ae3-a1b1-ef1058092d2f" />
          </g>
          <g
             transform="translate(165.859, 134.765)"
             id="g1192">
            <path
               style="stroke:none"
               d="M 1.75,-4.46875 C 1.390625,-4.421875 1,-4.359375 0.703125,-4.109375 c -0.234375,0.21875 -0.375,0.546875 -0.375,0.875 C 0.328125,-1.53125 3.09375,-2.5 3.09375,-1 3.09375,-0.40625 2.546875,-0.125 2,-0.125 1.25,-0.125 0.734375,-0.65625 0.59375,-1.515625 0.578125,-1.609375 0.5625,-1.6875 0.453125,-1.6875 c -0.078125,0 -0.125,0.046875 -0.125,0.125 V 0.015625 C 0.34375,0.0625 0.375,0.09375 0.421875,0.09375 H 0.4375 c 0.15625,0 0.3125,-0.359375 0.4375,-0.390625 h 0.015625 c 0.078125,0 0.34375,0.25 0.5625,0.3125 0.15625,0.0625 0.34375,0.078125 0.515625,0.078125 0.828125,0 1.625,-0.4375 1.625,-1.34375 0,-0.65625 -0.484375,-1.203125 -1.140625,-1.375 -0.625,-0.171875 -1.640625,-0.171875 -1.640625,-0.890625 0,-0.609375 0.671875,-0.765625 1.109375,-0.765625 0.484375,0 1.171875,0.28125 1.171875,1.125 0,0.09375 0,0.171875 0.109375,0.171875 0.109375,0 0.140625,-0.078125 0.140625,-0.171875 0,-0.046875 0,-0.109375 0,-0.140625 v -1.03125 c 0,-0.0625 -0.03125,-0.140625 -0.109375,-0.140625 -0.15625,0 -0.265625,0.25 -0.375,0.25 H 2.84375 c -0.078125,0 -0.234375,-0.125 -0.34375,-0.171875 -0.1875,-0.0625 -0.390625,-0.078125 -0.578125,-0.078125 -0.0625,0 -0.109375,0 -0.171875,0 z m 0,0"
               id="id-17f66b54-9fd6-47b2-95cd-6ecf3c29ba04" />
          </g>
        </g>
        <g
           style="fill:#000000;fill-opacity:1"
           id="id-d89f86e3-53d5-41c3-8c6f-484dabb90e28">
          <g
             transform="translate(173.114, 134.765)"
             id="g1196">
            <path
               style="stroke:none"
               d="m 0.34375,-6.8125 v 0.296875 c 0.125,0 0.25,0 0.375,0 0.359375,0 0.640625,0.046875 0.640625,0.4375 V -0.75 c 0,0.375 -0.328125,0.4375 -0.65625,0.4375 -0.140625,0 -0.25,0 -0.359375,0 v 0.296875 h 2.9375 V -0.3125 H 2.9375 C 2.515625,-0.3125 2.25,-0.34375 2.25,-0.75 v -2.40625 h 1.84375 c 0.9375,-0.078125 2.125,-0.65625 2.125,-1.796875 0,-1.0625 -1.046875,-1.75 -2.046875,-1.859375 -0.15625,0 -0.296875,-0.015625 -0.4375,-0.015625 -0.203125,0 -0.40625,0.015625 -0.59375,0.015625 z m 1.875,3.390625 V -6.1875 c 0,-0.265625 0.171875,-0.296875 0.359375,-0.328125 h 0.75 c 0.5625,0 1.203125,0.03125 1.59375,0.5 0.234375,0.28125 0.265625,0.6875 0.265625,1.046875 0,0.359375 -0.03125,0.734375 -0.25,1.03125 -0.328125,0.421875 -0.90625,0.515625 -1.421875,0.515625 z m 0,0"
               id="id-fba39829-6115-4e93-beb6-7ac21bb147fe" />
          </g>
          <g
             transform="translate(179.893, 134.765)"
             id="g1199">
            <path
               style="stroke:none"
               d="m 0.1875,-4.296875 v 0.3125 h 0.15625 c 0.28125,0 0.5,0.03125 0.671875,0.40625 C 1.46875,-2.484375 1.90625,-1.375 2.375,-0.28125 2.40625,-0.203125 2.484375,-0.09375 2.484375,0 2.484375,0.015625 2.46875,0.03125 2.46875,0.046875 2.40625,0.25 2.296875,0.453125 2.21875,0.640625 2.015625,1.140625 1.71875,1.8125 1.109375,1.8125 0.953125,1.8125 0.75,1.75 0.640625,1.640625 0.828125,1.609375 1.03125,1.5 1.03125,1.21875 1.03125,1 0.875,0.8125 0.65625,0.796875 c -0.3125,0 -0.46875,0.1875 -0.46875,0.421875 0,0.5 0.46875,0.8125 0.921875,0.8125 0.71875,0 1.109375,-0.734375 1.359375,-1.328125 l 0.296875,-0.71875 C 3.109375,-0.875 3.46875,-1.71875 3.828125,-2.578125 L 4.0625,-3.15625 c 0.171875,-0.46875 0.4375,-0.828125 1,-0.828125 v -0.3125 H 3.453125 v 0.3125 c 0.234375,0 0.46875,0.15625 0.46875,0.40625 0,0.125 -0.0625,0.265625 -0.109375,0.375 -0.296875,0.6875 -0.546875,1.375 -0.859375,2.046875 C 2.9375,-1.0625 2.875,-0.984375 2.859375,-0.890625 H 2.84375 C 2.78125,-1.109375 2.671875,-1.328125 2.578125,-1.546875 2.328125,-2.1875 2.015625,-2.84375 1.78125,-3.515625 1.75,-3.578125 1.703125,-3.65625 1.703125,-3.734375 v -0.03125 c 0.0625,-0.21875 0.34375,-0.21875 0.546875,-0.21875 v -0.3125 z m 0,0"
               id="id-54161866-786a-4e3d-bf46-18146e0359f3" />
          </g>
          <g
             transform="translate(185.15, 134.765)"
             id="g1202">
            <path
               style="stroke:none"
               d="m 1.484375,-6.140625 c 0,0.6875 -0.28125,1.9375 -1.3125,1.9375 v 0.21875 H 1.03125 v 2.5625 c 0,0.328125 0.03125,0.671875 0.1875,0.953125 0.21875,0.40625 0.6875,0.5625 1.125,0.5625 0.8125,0 0.96875,-0.90625 0.96875,-1.546875 V -1.8125 H 3.078125 c 0,0.140625 0,0.296875 0,0.453125 0,0.4375 -0.09375,1.203125 -0.6875,1.203125 -0.5625,0 -0.65625,-0.6875 -0.65625,-1.125 V -3.984375 H 3.15625 v -0.3125 H 1.734375 v -1.84375 z m 0,0"
               id="id-a91cfa9e-75d7-4026-bbe7-7d98ee195d89" />
          </g>
          <g
             transform="translate(189.024, 134.765)"
             id="g1205">
            <path
               style="stroke:none"
               d="m 0.3125,-6.8125 v 0.296875 h 0.15625 c 0.375,0 0.625,0.046875 0.625,0.53125 v 5.03125 c 0,0.0625 0.015625,0.140625 0.015625,0.21875 0,0.375 -0.265625,0.421875 -0.546875,0.421875 h -0.25 v 0.296875 H 2.578125 V -0.3125 H 2.3125 c -0.28125,0 -0.515625,-0.046875 -0.515625,-0.421875 v -1.8125 c 0,-0.71875 0.359375,-1.640625 1.359375,-1.640625 0.625,0 0.6875,0.6875 0.6875,1.109375 V -0.6875 c 0,0.34375 -0.28125,0.375 -0.59375,0.375 H 3.078125 v 0.296875 h 2.25 V -0.3125 h -0.25 c -0.265625,0 -0.53125,-0.046875 -0.53125,-0.390625 V -2.875 c 0,-0.328125 -0.015625,-0.65625 -0.15625,-0.96875 -0.25,-0.4375 -0.734375,-0.5625 -1.203125,-0.5625 -0.578125,0 -1.21875,0.390625 -1.40625,0.953125 l -0.015625,-3.46875 z m 0,0"
               id="id-ae452781-98f4-4136-9e04-2746a645f18a" />
          </g>
          <g
             transform="translate(194.557, 134.765)"
             id="g1208">
            <path
               style="stroke:none"
               d="m 1.109375,-3.796875 c 0.25,-0.3125 0.6875,-0.453125 1.0625,-0.453125 0.734375,0 1.0625,0.671875 1.0625,1.375 v 0.265625 c -1.140625,0 -2.828125,0.359375 -2.828125,1.65625 V -0.875 c 0.078125,0.78125 1.046875,0.96875 1.625,0.96875 0.5,0 1.15625,-0.328125 1.28125,-0.84375 0.0625,0.4375 0.34375,0.796875 0.78125,0.796875 0.40625,0 0.765625,-0.328125 0.828125,-0.78125 v -0.71875 h -0.25 v 0.5 c 0,0.28125 -0.0625,0.6875 -0.359375,0.6875 -0.328125,0 -0.375,-0.390625 -0.375,-0.65625 V -2.59375 c 0,-0.125 0.015625,-0.25 0.015625,-0.375 0,-0.96875 -0.90625,-1.5 -1.734375,-1.5 -0.640625,0 -1.515625,0.3125 -1.515625,1.109375 0,0.28125 0.203125,0.484375 0.46875,0.484375 0.28125,0 0.4375,-0.21875 0.4375,-0.46875 0,-0.28125 -0.21875,-0.453125 -0.5,-0.453125 z m 2.125,1.390625 v 1.015625 c 0,0.6875 -0.46875,1.234375 -1.125,1.265625 H 2.078125 C 1.609375,-0.125 1.1875,-0.484375 1.1875,-0.96875 V -1.015625 C 1.25,-2.03125 2.375,-2.375 3.234375,-2.40625 Z m 0,0"
               id="id-a1b4d7d5-9f76-4d0f-aa79-0c1fe918c953" />
          </g>
          <g
             transform="translate(199.537, 134.765)"
             id="g1211">
            <path
               style="stroke:none"
               d="m 1.1875,-0.234375 v 0.015625 c -0.46875,0.09375 -0.90625,0.53125 -0.90625,1 0,0.9375 1.4375,1.265625 2.203125,1.265625 C 3.3125,2.046875 4.6875,1.75 4.6875,0.71875 4.6875,0.0625 4.234375,-0.375 3.640625,-0.546875 3.28125,-0.65625 2.90625,-0.671875 2.53125,-0.671875 H 1.625 c -0.3125,-0.03125 -0.5625,-0.34375 -0.5625,-0.65625 v -0.0625 c 0,-0.125 0.078125,-0.390625 0.171875,-0.390625 C 1.359375,-1.75 1.5,-1.640625 1.65625,-1.578125 1.828125,-1.53125 2.03125,-1.5 2.21875,-1.5 c 0.828125,0 1.625,-0.609375 1.625,-1.453125 0,-0.34375 -0.140625,-0.734375 -0.421875,-0.953125 v -0.015625 c 0.28125,-0.1875 0.53125,-0.375 0.890625,-0.375 0.03125,0 0.0625,0 0.09375,0.015625 -0.09375,0.046875 -0.15625,0.125 -0.15625,0.25 0,0.15625 0.140625,0.296875 0.296875,0.296875 0.171875,0 0.28125,-0.140625 0.28125,-0.296875 0,-0.265625 -0.21875,-0.484375 -0.484375,-0.484375 -0.359375,0 -0.6875,0.140625 -0.953125,0.359375 C 3.359375,-4.125 3.3125,-4.09375 3.28125,-4.078125 H 3.265625 c -0.0625,0 -0.140625,-0.078125 -0.1875,-0.109375 -0.25,-0.140625 -0.5625,-0.21875 -0.859375,-0.21875 -0.78125,0 -1.625,0.546875 -1.625,1.453125 0,0.328125 0.125,0.625 0.328125,0.890625 0.03125,0.03125 0.109375,0.09375 0.109375,0.140625 0,0.046875 -0.0625,0.09375 -0.078125,0.140625 C 0.8125,-1.578125 0.75,-1.328125 0.75,-1.09375 c 0,0.3125 0.140625,0.71875 0.4375,0.859375 z M 0.8125,0.84375 V 0.75 c 0,-0.515625 0.453125,-0.828125 0.984375,-0.828125 h 0.78125 c 0.625,0 1.59375,0.09375 1.59375,0.859375 C 4.171875,1.5 3.09375,1.8125 2.484375,1.8125 1.828125,1.8125 0.90625,1.515625 0.8125,0.84375 Z M 1.34375,-2.75 v -0.125 c 0,-0.546875 0.125,-1.296875 0.875,-1.296875 0.609375,0 0.859375,0.578125 0.859375,1.21875 0,0.40625 -0.078125,1.21875 -0.859375,1.21875 -0.25,0 -0.5,-0.125 -0.671875,-0.34375 C 1.390625,-2.265625 1.375,-2.515625 1.34375,-2.75 Z m 0,0"
               id="id-14a56c06-6fa3-4627-bb58-ce38c4f94fd4" />
          </g>
          <g
             transform="translate(204.517, 134.765)"
             id="g1214">
            <path
               style="stroke:none"
               d="m 2.34375,-4.46875 c -1.25,0.125 -2.0625,1.1875 -2.0625,2.34375 0,1.125 0.890625,2.21875 2.21875,2.21875 1.1875,0 2.1875,-0.96875 2.1875,-2.234375 0,-1.171875 -0.890625,-2.328125 -2.21875,-2.328125 -0.03125,0 -0.09375,0 -0.125,0 z m -1.234375,2.578125 v -0.4375 c 0,-0.765625 0.25,-1.921875 1.375,-1.921875 0.8125,0 1.265625,0.6875 1.359375,1.4375 0.015625,0.21875 0.015625,0.4375 0.015625,0.65625 0,0.640625 -0.078125,1.453125 -0.703125,1.8125 C 2.953125,-0.203125 2.734375,-0.15625 2.5,-0.15625 1.78125,-0.15625 1.265625,-0.71875 1.15625,-1.5 1.140625,-1.625 1.140625,-1.765625 1.109375,-1.890625 Z m 0,0"
               id="id-4c4c36c4-b259-4896-b88f-25581faa59ab" />
          </g>
          <g
             transform="translate(209.498, 134.765)"
             id="g1217">
            <path
               style="stroke:none"
               d="m 0.265625,-4.296875 v 0.3125 h 0.15625 c 0.328125,0 0.625,0.03125 0.625,0.5 v 2.75 c 0,0.40625 -0.28125,0.421875 -0.71875,0.421875 h -0.0625 v 0.296875 H 2.6875 V -0.3125 c -0.125,0 -0.265625,0 -0.390625,0 -0.3125,0 -0.578125,-0.046875 -0.578125,-0.421875 v -1.3125 c 0,-0.859375 0.1875,-2.140625 1.171875,-2.140625 0.046875,0 0.0625,0 0.109375,0.015625 -0.15625,0.0625 -0.234375,0.21875 -0.234375,0.390625 0,0.21875 0.15625,0.375 0.390625,0.421875 0.28125,0 0.46875,-0.171875 0.46875,-0.421875 0,-0.40625 -0.375,-0.625 -0.734375,-0.625 -0.59375,0 -1.109375,0.53125 -1.21875,1.0625 v -1.0625 z m 0,0"
               id="id-709b6e31-90c9-4213-9863-62a79621b111" />
          </g>
          <g
             transform="translate(213.399, 134.765)"
             id="g1220">
            <path
               style="stroke:none"
               d="m 1.109375,-3.796875 c 0.25,-0.3125 0.6875,-0.453125 1.0625,-0.453125 0.734375,0 1.0625,0.671875 1.0625,1.375 v 0.265625 c -1.140625,0 -2.828125,0.359375 -2.828125,1.65625 V -0.875 c 0.078125,0.78125 1.046875,0.96875 1.625,0.96875 0.5,0 1.15625,-0.328125 1.28125,-0.84375 0.0625,0.4375 0.34375,0.796875 0.78125,0.796875 0.40625,0 0.765625,-0.328125 0.828125,-0.78125 v -0.71875 h -0.25 v 0.5 c 0,0.28125 -0.0625,0.6875 -0.359375,0.6875 -0.328125,0 -0.375,-0.390625 -0.375,-0.65625 V -2.59375 c 0,-0.125 0.015625,-0.25 0.015625,-0.375 0,-0.96875 -0.90625,-1.5 -1.734375,-1.5 -0.640625,0 -1.515625,0.3125 -1.515625,1.109375 0,0.28125 0.203125,0.484375 0.46875,0.484375 0.28125,0 0.4375,-0.21875 0.4375,-0.46875 0,-0.28125 -0.21875,-0.453125 -0.5,-0.453125 z m 2.125,1.390625 v 1.015625 c 0,0.6875 -0.46875,1.234375 -1.125,1.265625 H 2.078125 C 1.609375,-0.125 1.1875,-0.484375 1.1875,-0.96875 V -1.015625 C 1.25,-2.03125 2.375,-2.375 3.234375,-2.40625 Z m 0,0"
               id="id-c073c065-0f5a-40ae-9588-494768f0239a" />
          </g>
          <g
             transform="translate(218.379, 134.765)"
             id="g1223">
            <path
               style="stroke:none"
               d="M 1.75,-4.46875 C 1.390625,-4.421875 1,-4.359375 0.703125,-4.109375 c -0.234375,0.21875 -0.375,0.546875 -0.375,0.875 C 0.328125,-1.53125 3.09375,-2.5 3.09375,-1 3.09375,-0.40625 2.546875,-0.125 2,-0.125 1.25,-0.125 0.734375,-0.65625 0.59375,-1.515625 0.578125,-1.609375 0.5625,-1.6875 0.453125,-1.6875 c -0.078125,0 -0.125,0.046875 -0.125,0.125 V 0.015625 C 0.34375,0.0625 0.375,0.09375 0.421875,0.09375 H 0.4375 c 0.15625,0 0.3125,-0.359375 0.4375,-0.390625 h 0.015625 c 0.078125,0 0.34375,0.25 0.5625,0.3125 0.15625,0.0625 0.34375,0.078125 0.515625,0.078125 0.828125,0 1.625,-0.4375 1.625,-1.34375 0,-0.65625 -0.484375,-1.203125 -1.140625,-1.375 -0.625,-0.171875 -1.640625,-0.171875 -1.640625,-0.890625 0,-0.609375 0.671875,-0.765625 1.109375,-0.765625 0.484375,0 1.171875,0.28125 1.171875,1.125 0,0.09375 0,0.171875 0.109375,0.171875 0.109375,0 0.140625,-0.078125 0.140625,-0.171875 0,-0.046875 0,-0.109375 0,-0.140625 v -1.03125 c 0,-0.0625 -0.03125,-0.140625 -0.109375,-0.140625 -0.15625,0 -0.265625,0.25 -0.375,0.25 H 2.84375 c -0.078125,0 -0.234375,-0.125 -0.34375,-0.171875 -0.1875,-0.0625 -0.390625,-0.078125 -0.578125,-0.078125 -0.0625,0 -0.109375,0 -0.171875,0 z m 0,0"
               id="id-b87251ac-78f2-4c1a-a23d-925404aae5cc" />
          </g>
        </g>
        <g
           style="fill:#000000;fill-opacity:1"
           id="id-a3fd1cbe-1718-4464-a8d2-444333267c36">
          <g
             transform="translate(225.625, 134.765)"
             id="g1227">
            <path
               style="stroke:none"
               d="m 3.15625,-7.484375 c -0.140625,0.0625 -0.3125,0.25 -0.4375,0.375 C 1.5,-5.875 1,-4.1875 1,-2.5 1,-0.703125 1.578125,1.21875 3.046875,2.40625 3.09375,2.4375 3.15625,2.484375 3.21875,2.484375 3.28125,2.484375 3.3125,2.421875 3.3125,2.375 3.3125,2.265625 3.046875,2.0625 2.9375,1.9375 1.90625,0.703125 1.578125,-0.921875 1.578125,-2.5 c 0,-1.640625 0.328125,-3.4375 1.578125,-4.671875 0.046875,-0.0625 0.15625,-0.140625 0.15625,-0.21875 0,-0.0625 -0.046875,-0.09375 -0.109375,-0.09375 -0.015625,0 -0.03125,0 -0.046875,0 z m 0,0"
               id="id-5a61e727-72bd-496d-9194-075c332b218e" />
          </g>
          <g
             transform="translate(229.499, 134.765)"
             id="g1230">
            <path
               style="stroke:none"
               d="m 0.546875,-6.8125 -0.1875,2.234375 h 0.25 c 0.03125,-0.515625 0.0625,-1.21875 0.375,-1.5625 0.34375,-0.34375 0.90625,-0.375 1.375,-0.375 h 0.28125 c 0.25,0 0.515625,0 0.515625,0.34375 v 5.40625 C 3.15625,-0.375 2.75,-0.3125 2.390625,-0.3125 c -0.125,0 -0.25,0 -0.359375,0 H 1.703125 v 0.296875 h 3.78125 V -0.3125 H 4.8125 c -0.390625,0 -0.78125,-0.046875 -0.78125,-0.453125 v -5.40625 c 0,-0.28125 0.171875,-0.34375 0.546875,-0.34375 h 0.25 c 0.46875,0 1.03125,0.03125 1.375,0.375 0.3125,0.34375 0.34375,1.046875 0.375,1.5625 h 0.25 L 6.640625,-6.8125 Z m 0,0"
               id="id-fe311282-53c6-48db-9bbf-826e4ba1fda0" />
          </g>
        </g>
        <g
           style="fill:#000000;fill-opacity:1"
           id="id-8403eedd-1ccf-4f11-b2fd-139e52037dce">
          <g
             transform="translate(235.865, 134.765)"
             id="g1234">
            <path
               style="stroke:none"
               d="m 1.109375,-2.3125 h 2.875 c 0.109375,0 0.15625,-0.0625 0.15625,-0.1875 0,-1.046875 -0.640625,-1.96875 -1.765625,-1.96875 -1.21875,0 -2.09375,1.09375 -2.09375,2.28125 0,0.90625 0.5,1.734375 1.390625,2.125 0.21875,0.109375 0.484375,0.15625 0.734375,0.15625 H 2.4375 c 0.765625,0 1.40625,-0.421875 1.671875,-1.1875 C 4.125,-1.125 4.125,-1.171875 4.125,-1.203125 4.125,-1.265625 4.09375,-1.3125 4.015625,-1.3125 3.875,-1.3125 3.8125,-0.984375 3.75,-0.875 3.5,-0.4375 3.015625,-0.15625 2.5,-0.15625 c -0.359375,0 -0.6875,-0.203125 -0.953125,-0.46875 -0.40625,-0.46875 -0.4375,-1.109375 -0.4375,-1.6875 z M 1.125,-2.515625 C 1.125,-3.296875 1.53125,-4.25 2.359375,-4.25 H 2.40625 c 0.96875,0.09375 0.96875,1.125 1.0625,1.734375 z m 0,0"
               id="id-7d3677c5-a7cb-43e8-8137-bd961b3a3d5a" />
          </g>
          <g
             transform="translate(240.291, 134.765)"
             id="g1237">
            <path
               style="stroke:none"
               d="m 2.34375,-4.46875 c -1.25,0.125 -2.0625,1.1875 -2.0625,2.34375 0,1.125 0.890625,2.21875 2.21875,2.21875 1.1875,0 2.1875,-0.96875 2.1875,-2.234375 0,-1.171875 -0.890625,-2.328125 -2.21875,-2.328125 -0.03125,0 -0.09375,0 -0.125,0 z m -1.234375,2.578125 v -0.4375 c 0,-0.765625 0.25,-1.921875 1.375,-1.921875 0.8125,0 1.265625,0.6875 1.359375,1.4375 0.015625,0.21875 0.015625,0.4375 0.015625,0.65625 0,0.640625 -0.078125,1.453125 -0.703125,1.8125 C 2.953125,-0.203125 2.734375,-0.15625 2.5,-0.15625 1.78125,-0.15625 1.265625,-0.71875 1.15625,-1.5 1.140625,-1.625 1.140625,-1.765625 1.109375,-1.890625 Z m 0,0"
               id="id-37bc7d64-e130-4cec-9c28-1685657f3935" />
          </g>
          <g
             transform="translate(245.271, 134.765)"
             id="g1240">
            <path
               style="stroke:none"
               d="m 0.265625,-4.296875 v 0.3125 h 0.1875 c 0.296875,0 0.59375,0.03125 0.59375,0.421875 V 1.21875 C 1.046875,1.578125 0.78125,1.609375 0.5,1.609375 H 0.265625 v 0.3125 h 2.25 v -0.3125 H 2.28125 C 1.984375,1.609375 1.75,1.578125 1.75,1.21875 v -1.734375 c 0.234375,0.421875 0.796875,0.609375 1.21875,0.609375 1.234375,0 2.21875,-1.046875 2.21875,-2.25 0,-1.203125 -0.921875,-2.25 -2.09375,-2.25 -0.546875,0 -1.015625,0.234375 -1.375,0.640625 V -4.40625 Z m 4.078125,2.3125 C 4.296875,-1.25 3.90625,-0.203125 3,-0.125 H 2.9375 C 2.515625,-0.125 2.125,-0.359375 1.890625,-0.71875 1.796875,-0.828125 1.75,-0.921875 1.75,-1.0625 V -2.734375 C 1.75,-2.875 1.734375,-3 1.734375,-3.125 1.734375,-3.65625 2.40625,-4.15625 3,-4.15625 c 1,0 1.359375,1.3125 1.359375,2.015625 0,0.046875 0,0.109375 -0.015625,0.15625 z m 0,0"
               id="id-ea7aa9d7-da1f-42df-852c-3c0a79789cda" />
          </g>
          <g
             transform="translate(250.805, 134.765)"
             id="g1243">
            <path
               style="stroke:none"
               d="m 1.109375,-2.3125 h 2.875 c 0.109375,0 0.15625,-0.0625 0.15625,-0.1875 0,-1.046875 -0.640625,-1.96875 -1.765625,-1.96875 -1.21875,0 -2.09375,1.09375 -2.09375,2.28125 0,0.90625 0.5,1.734375 1.390625,2.125 0.21875,0.109375 0.484375,0.15625 0.734375,0.15625 H 2.4375 c 0.765625,0 1.40625,-0.421875 1.671875,-1.1875 C 4.125,-1.125 4.125,-1.171875 4.125,-1.203125 4.125,-1.265625 4.09375,-1.3125 4.015625,-1.3125 3.875,-1.3125 3.8125,-0.984375 3.75,-0.875 3.5,-0.4375 3.015625,-0.15625 2.5,-0.15625 c -0.359375,0 -0.6875,-0.203125 -0.953125,-0.46875 -0.40625,-0.46875 -0.4375,-1.109375 -0.4375,-1.6875 z M 1.125,-2.515625 C 1.125,-3.296875 1.53125,-4.25 2.359375,-4.25 H 2.40625 c 0.96875,0.09375 0.96875,1.125 1.0625,1.734375 z m 0,0"
               id="id-bd738db4-3029-4d2c-8dec-48ea1d688acd" />
          </g>
          <g
             transform="translate(255.231, 134.765)"
             id="g1246">
            <path
               style="stroke:none"
               d="m 0.296875,-4.296875 v 0.21875 h 0.21875 c 0.296875,0 0.5625,0.046875 0.5625,0.421875 v 2.625 c 0,0.625 -0.34375,0.796875 -0.78125,0.796875 v 0.21875 h 1.84375 v -0.21875 C 1.734375,-0.234375 1.359375,-0.375 1.359375,-1 v -2.953125 c 0.03125,0.125 0.109375,0.25 0.171875,0.390625 0.453125,1.125 0.90625,2.25 1.421875,3.359375 0.03125,0.078125 0.078125,0.1875 0.171875,0.1875 H 3.140625 C 3.25,-0.03125 3.296875,-0.15625 3.328125,-0.25 L 3.625,-0.96875 C 4,-1.859375 4.375,-2.75 4.765625,-3.640625 4.828125,-3.78125 4.890625,-3.921875 4.9375,-4.0625 v 3.421875 c 0,0.40625 -0.328125,0.40625 -0.703125,0.40625 h -0.0625 v 0.21875 H 6.34375 v -0.21875 H 6.109375 c -0.28125,0 -0.546875,-0.03125 -0.546875,-0.4375 V -3.625 c 0,-0.421875 0.265625,-0.453125 0.78125,-0.453125 v -0.21875 H 5.046875 c -0.21875,0 -0.265625,0.125 -0.328125,0.296875 -0.09375,0.234375 -0.1875,0.453125 -0.28125,0.6875 l -0.75,1.75 C 3.5625,-1.28125 3.484375,-1 3.34375,-0.75 2.90625,-1.828125 2.40625,-2.90625 1.96875,-4 1.890625,-4.140625 1.890625,-4.296875 1.640625,-4.296875 Z m 0,0"
               id="id-0da3ae7b-3f20-4d38-8012-a7e693b76aa9" />
          </g>
          <g
             transform="translate(261.871, 134.765)"
             id="g1249">
            <path
               style="stroke:none"
               d="m 1.109375,-3.796875 c 0.25,-0.3125 0.6875,-0.453125 1.0625,-0.453125 0.734375,0 1.0625,0.671875 1.0625,1.375 v 0.265625 c -1.140625,0 -2.828125,0.359375 -2.828125,1.65625 V -0.875 c 0.078125,0.78125 1.046875,0.96875 1.625,0.96875 0.5,0 1.15625,-0.328125 1.28125,-0.84375 0.0625,0.4375 0.34375,0.796875 0.78125,0.796875 0.40625,0 0.765625,-0.328125 0.828125,-0.78125 v -0.71875 h -0.25 v 0.5 c 0,0.28125 -0.0625,0.6875 -0.359375,0.6875 -0.328125,0 -0.375,-0.390625 -0.375,-0.65625 V -2.59375 c 0,-0.125 0.015625,-0.25 0.015625,-0.375 0,-0.96875 -0.90625,-1.5 -1.734375,-1.5 -0.640625,0 -1.515625,0.3125 -1.515625,1.109375 0,0.28125 0.203125,0.484375 0.46875,0.484375 0.28125,0 0.4375,-0.21875 0.4375,-0.46875 0,-0.28125 -0.21875,-0.453125 -0.5,-0.453125 z m 2.125,1.390625 v 1.015625 c 0,0.6875 -0.46875,1.234375 -1.125,1.265625 H 2.078125 C 1.609375,-0.125 1.1875,-0.484375 1.1875,-0.96875 V -1.015625 C 1.25,-2.03125 2.375,-2.375 3.234375,-2.40625 Z m 0,0"
               id="id-611fd1fb-9bb6-4686-b738-8330fa05d19e" />
          </g>
        </g>
        <g
           style="fill:#000000;fill-opacity:1"
           id="id-9f287fc3-6954-438a-9a78-7ce59a012a77">
          <g
             transform="translate(270.169, 134.765)"
             id="g1253">
            <path
               style="stroke:none"
               d="m 0.328125,-6.8125 v 0.296875 c 0.125,0 0.265625,0 0.375,0 0.359375,0 0.65625,0.046875 0.65625,0.4375 V -0.75 c 0,0.375 -0.328125,0.4375 -0.671875,0.4375 -0.125,0 -0.25,0 -0.359375,0 v 0.296875 h 2.9375 V -0.3125 c -0.109375,0 -0.25,0 -0.359375,0 C 2.546875,-0.3125 2.25,-0.359375 2.25,-0.75 v -5.234375 c 0,-0.0625 -0.015625,-0.125 -0.015625,-0.1875 0,-0.296875 0.1875,-0.34375 0.53125,-0.34375 H 5.15625 C 5.34375,-6.484375 5.5,-6.453125 5.5,-6.171875 V -0.75 c 0,0.390625 -0.34375,0.4375 -0.71875,0.4375 h -0.3125 v 0.296875 H 7.421875 V -0.3125 c -0.125,0 -0.25,0 -0.375,0 -0.34375,0 -0.65625,-0.046875 -0.65625,-0.4375 v -5.328125 c 0,-0.375 0.3125,-0.4375 0.65625,-0.4375 0.125,0 0.265625,0 0.375,0 V -6.8125 Z m 0,0"
               id="id-0ad82445-244c-4c5c-a82c-d75ef72c5a54" />
          </g>
          <g
             transform="translate(277.916, 134.765)"
             id="g1256">
            <path
               style="stroke:none"
               d="m 0.25,-4.296875 v 0.21875 h 0.234375 c 0.28125,0 0.546875,0.046875 0.546875,0.453125 v 2.953125 c 0,0.421875 -0.28125,0.4375 -0.78125,0.4375 v 0.21875 H 2.5 v -0.21875 H 2.328125 C 2.03125,-0.234375 1.71875,-0.265625 1.71875,-0.625 1.734375,-0.71875 1.828125,-0.78125 1.875,-0.859375 L 2.265625,-1.34375 C 2.78125,-1.96875 3.25,-2.65625 3.796875,-3.25 v 2.578125 c 0,0.34375 -0.140625,0.4375 -0.78125,0.4375 v 0.21875 H 5.28125 v -0.21875 H 5.046875 C 4.765625,-0.234375 4.5,-0.265625 4.5,-0.671875 V -3.625 c 0,-0.421875 0.25,-0.453125 0.78125,-0.453125 v -0.21875 H 3.015625 v 0.21875 h 0.1875 c 0.28125,0 0.59375,0.03125 0.59375,0.40625 -0.015625,0.078125 -0.09375,0.15625 -0.140625,0.21875 l -0.390625,0.5 c -0.53125,0.625 -1,1.296875 -1.546875,1.890625 v -2.578125 c 0,-0.34375 0.140625,-0.4375 0.78125,-0.4375 v -0.21875 z m 0,0"
               id="id-b9bc6051-78dc-4350-a051-addac6d1d4ee" />
          </g>
          <g
             transform="translate(283.449, 134.765)"
             id="g1259">
            <path
               style="stroke:none"
               d="m 2.765625,-6.8125 v 0.296875 H 2.9375 c 0.328125,0 0.59375,0.046875 0.59375,0.59375 v 2 C 3.3125,-4.25 2.90625,-4.40625 2.515625,-4.40625 c -1.203125,0 -2.171875,1.0625 -2.171875,2.25 0,1.203125 0.984375,2.25 2.234375,2.25 0.40625,0 0.703125,-0.171875 0.953125,-0.46875 v 1.359375 c 0,0.0625 0.015625,0.140625 0.015625,0.21875 0,0.40625 -0.296875,0.40625 -0.71875,0.40625 h -0.0625 v 0.3125 h 2.21875 v -0.3125 H 4.75 c -0.296875,0 -0.546875,-0.03125 -0.546875,-0.40625 0,-0.078125 0,-0.15625 0,-0.21875 V -0.375 c 0.265625,0.296875 0.5625,0.46875 0.953125,0.46875 1.234375,0 2.25,-1.015625 2.25,-2.25 0,-1.125 -0.90625,-2.25 -2.1875,-2.25 -0.375,0 -0.796875,0.15625 -1,0.484375 l -0.015625,-3 z M 6.5625,-1.984375 C 6.5,-1.1875 6.0625,-0.125 5.109375,-0.125 c -0.40625,0 -0.90625,-0.421875 -0.90625,-0.859375 V -3.4375 c 0.078125,-0.4375 0.59375,-0.71875 0.9375,-0.71875 1.015625,0 1.4375,1.25 1.4375,2.015625 0,0.046875 0,0.109375 -0.015625,0.15625 z M 1.171875,-2 v -0.109375 c 0,-0.8125 0.421875,-2.046875 1.4375,-2.046875 0.40625,0 0.875,0.359375 0.921875,0.71875 v 2.453125 C 3.53125,-0.515625 3.015625,-0.125 2.625,-0.125 1.6875,-0.125 1.25,-1.171875 1.171875,-2 Z m 0,0"
               id="id-80bbb507-3981-4721-8793-180e5df6541c" />
          </g>
          <g
             transform="translate(291.196, 134.765)"
             id="g1262">
            <path
               style="stroke:none"
               d="m 1.109375,-3.796875 c 0.25,-0.3125 0.6875,-0.453125 1.0625,-0.453125 0.734375,0 1.0625,0.671875 1.0625,1.375 v 0.265625 c -1.140625,0 -2.828125,0.359375 -2.828125,1.65625 V -0.875 c 0.078125,0.78125 1.046875,0.96875 1.625,0.96875 0.5,0 1.15625,-0.328125 1.28125,-0.84375 0.0625,0.4375 0.34375,0.796875 0.78125,0.796875 0.40625,0 0.765625,-0.328125 0.828125,-0.78125 v -0.71875 h -0.25 v 0.5 c 0,0.28125 -0.0625,0.6875 -0.359375,0.6875 -0.328125,0 -0.375,-0.390625 -0.375,-0.65625 V -2.59375 c 0,-0.125 0.015625,-0.25 0.015625,-0.375 0,-0.96875 -0.90625,-1.5 -1.734375,-1.5 -0.640625,0 -1.515625,0.3125 -1.515625,1.109375 0,0.28125 0.203125,0.484375 0.46875,0.484375 0.28125,0 0.4375,-0.21875 0.4375,-0.46875 0,-0.28125 -0.21875,-0.453125 -0.5,-0.453125 z m 2.125,1.390625 v 1.015625 c 0,0.6875 -0.46875,1.234375 -1.125,1.265625 H 2.078125 C 1.609375,-0.125 1.1875,-0.484375 1.1875,-0.96875 V -1.015625 C 1.25,-2.03125 2.375,-2.375 3.234375,-2.40625 Z m 0,0"
               id="id-16928fa5-f36c-4b6f-b7af-6e5ef840d468" />
          </g>
          <g
             transform="translate(296.176, 134.765)"
             id="g1265">
            <path
               style="stroke:none"
               d="m 0.25,-4.296875 v 0.21875 h 0.234375 c 0.28125,0 0.546875,0.046875 0.546875,0.453125 v 2.953125 c 0,0.421875 -0.28125,0.4375 -0.78125,0.4375 v 0.21875 h 2.4375 v -0.21875 H 2.390625 c -0.359375,0 -0.671875,-0.03125 -0.671875,-0.46875 V -3.71875 c 0,-0.203125 0.078125,-0.359375 0.3125,-0.359375 h 0.625 c 0.671875,0 1.203125,0.046875 1.265625,1.390625 h 0.25 L 4.0625,-4.296875 Z m 0,0"
               id="id-60243459-84da-4931-b665-58b073cab9bc" />
          </g>
          <g
             transform="translate(300.603, 134.765)"
             id="g1268">
            <path
               style="stroke:none"
               d="m 2.34375,-4.46875 c -1.25,0.125 -2.0625,1.1875 -2.0625,2.34375 0,1.125 0.890625,2.21875 2.21875,2.21875 1.1875,0 2.1875,-0.96875 2.1875,-2.234375 0,-1.171875 -0.890625,-2.328125 -2.21875,-2.328125 -0.03125,0 -0.09375,0 -0.125,0 z m -1.234375,2.578125 v -0.4375 c 0,-0.765625 0.25,-1.921875 1.375,-1.921875 0.8125,0 1.265625,0.6875 1.359375,1.4375 0.015625,0.21875 0.015625,0.4375 0.015625,0.65625 0,0.640625 -0.078125,1.453125 -0.703125,1.8125 C 2.953125,-0.203125 2.734375,-0.15625 2.5,-0.15625 1.78125,-0.15625 1.265625,-0.71875 1.15625,-1.5 1.140625,-1.625 1.140625,-1.765625 1.109375,-1.890625 Z m 0,0"
               id="id-75d99674-bbed-4907-a7eb-ea8cbb7d613a" />
          </g>
          <g
             transform="translate(305.583, 134.765)"
             id="g1271">
            <path
               style="stroke:none"
               d="m 0.265625,-4.296875 v 0.3125 h 0.1875 c 0.296875,0 0.59375,0.03125 0.59375,0.421875 V 1.21875 C 1.046875,1.578125 0.78125,1.609375 0.5,1.609375 H 0.265625 v 0.3125 h 2.25 v -0.3125 H 2.28125 C 1.984375,1.609375 1.75,1.578125 1.75,1.21875 v -1.734375 c 0.234375,0.421875 0.796875,0.609375 1.21875,0.609375 1.234375,0 2.21875,-1.046875 2.21875,-2.25 0,-1.203125 -0.921875,-2.25 -2.09375,-2.25 -0.546875,0 -1.015625,0.234375 -1.375,0.640625 V -4.40625 Z m 4.078125,2.3125 C 4.296875,-1.25 3.90625,-0.203125 3,-0.125 H 2.9375 C 2.515625,-0.125 2.125,-0.359375 1.890625,-0.71875 1.796875,-0.828125 1.75,-0.921875 1.75,-1.0625 V -2.734375 C 1.75,-2.875 1.734375,-3 1.734375,-3.125 1.734375,-3.65625 2.40625,-4.15625 3,-4.15625 c 1,0 1.359375,1.3125 1.359375,2.015625 0,0.046875 0,0.109375 -0.015625,0.15625 z m 0,0"
               id="id-6d13aeb7-6899-4b2d-b7f5-44c50cfe63e0" />
          </g>
          <g
             transform="translate(311.116, 134.765)"
             id="g1274">
            <path
               style="stroke:none"
               d="m 1.109375,-3.796875 c 0.25,-0.3125 0.6875,-0.453125 1.0625,-0.453125 0.734375,0 1.0625,0.671875 1.0625,1.375 v 0.265625 c -1.140625,0 -2.828125,0.359375 -2.828125,1.65625 V -0.875 c 0.078125,0.78125 1.046875,0.96875 1.625,0.96875 0.5,0 1.15625,-0.328125 1.28125,-0.84375 0.0625,0.4375 0.34375,0.796875 0.78125,0.796875 0.40625,0 0.765625,-0.328125 0.828125,-0.78125 v -0.71875 h -0.25 v 0.5 c 0,0.28125 -0.0625,0.6875 -0.359375,0.6875 -0.328125,0 -0.375,-0.390625 -0.375,-0.65625 V -2.59375 c 0,-0.125 0.015625,-0.25 0.015625,-0.375 0,-0.96875 -0.90625,-1.5 -1.734375,-1.5 -0.640625,0 -1.515625,0.3125 -1.515625,1.109375 0,0.28125 0.203125,0.484375 0.46875,0.484375 0.28125,0 0.4375,-0.21875 0.4375,-0.46875 0,-0.28125 -0.21875,-0.453125 -0.5,-0.453125 z m 2.125,1.390625 v 1.015625 c 0,0.6875 -0.46875,1.234375 -1.125,1.265625 H 2.078125 C 1.609375,-0.125 1.1875,-0.484375 1.1875,-0.96875 V -1.015625 C 1.25,-2.03125 2.375,-2.375 3.234375,-2.40625 Z m 0,0"
               id="id-932d9629-2ab5-4784-9956-7bb15cd4de7f" />
          </g>
          <g
             transform="translate(316.097, 134.765)"
             id="g1277">
            <path
               style="stroke:none"
               d="m 0.625,-7.484375 c -0.046875,0.03125 -0.0625,0.0625 -0.0625,0.09375 0,0.109375 0.21875,0.28125 0.328125,0.40625 C 1.96875,-5.75 2.28125,-4.0625 2.28125,-2.5 2.28125,-0.890625 1.953125,0.9375 0.75,2.140625 0.6875,2.203125 0.5625,2.296875 0.5625,2.375 c 0,0.0625 0.046875,0.109375 0.109375,0.109375 C 0.796875,2.46875 1,2.25 1.109375,2.140625 2.375,0.875 2.875,-0.8125 2.875,-2.515625 2.875,-4.34375 2.265625,-6.171875 0.8125,-7.40625 0.765625,-7.4375 0.71875,-7.484375 0.65625,-7.484375 c -0.015625,0 -0.015625,0 -0.03125,0 z m 0,0"
               id="id-c871f5ab-dcf3-44a5-b358-67a4646cef8d" />
          </g>
          <g
             transform="translate(319.97, 134.765)"
             id="g1280">
            <path
               style="stroke:none"
               d="m 1.3125,-4.28125 c -0.25,0.03125 -0.453125,0.25 -0.453125,0.5 0,0.25 0.203125,0.546875 0.5,0.546875 0.28125,0 0.546875,-0.21875 0.546875,-0.53125 0,-0.25 -0.1875,-0.53125 -0.515625,-0.53125 -0.03125,0 -0.0625,0.015625 -0.078125,0.015625 z m 0,3.21875 c -0.25,0.03125 -0.453125,0.265625 -0.453125,0.515625 0,0.25 0.203125,0.53125 0.5,0.53125 0.28125,0 0.546875,-0.203125 0.546875,-0.515625 0,-0.25 -0.1875,-0.53125 -0.515625,-0.53125 -0.03125,0 -0.0625,0 -0.078125,0 z m 0,0"
               id="id-e3bd509d-4243-45bc-a950-840dba526a7a" />
          </g>
        </g>
        <g
           style="fill:#000000;fill-opacity:1"
           id="id-6694501a-e79f-4b0c-bd1e-909ec3af6846">
          <g
             transform="translate(279.263, 156.682)"
             id="g1284">
            <path
               style="stroke:none"
               d="M 3.71875,-3.765625 C 3.53125,-4.140625 3.25,-4.40625 2.796875,-4.40625 c -1.15625,0 -2.390625,1.46875 -2.390625,2.921875 0,0.9375 0.546875,1.59375 1.3125,1.59375 0.203125,0 0.703125,-0.046875 1.296875,-0.75 0.078125,0.421875 0.4375,0.75 0.90625,0.75 0.359375,0 0.578125,-0.234375 0.75,-0.546875 0.15625,-0.359375 0.296875,-0.96875 0.296875,-0.984375 0,-0.109375 -0.09375,-0.109375 -0.125,-0.109375 -0.09375,0 -0.109375,0.046875 -0.140625,0.1875 -0.171875,0.640625 -0.34375,1.234375 -0.75,1.234375 -0.28125,0 -0.296875,-0.265625 -0.296875,-0.453125 0,-0.21875 0.015625,-0.3125 0.125,-0.75 C 3.890625,-1.71875 3.90625,-1.828125 4,-2.203125 L 4.359375,-3.59375 c 0.0625,-0.28125 0.0625,-0.296875 0.0625,-0.34375 0,-0.171875 -0.109375,-0.265625 -0.28125,-0.265625 -0.25,0 -0.390625,0.21875 -0.421875,0.4375 z M 3.078125,-1.1875 C 3.015625,-1 3.015625,-0.984375 2.875,-0.8125 2.4375,-0.265625 2.03125,-0.109375 1.75,-0.109375 c -0.5,0 -0.640625,-0.546875 -0.640625,-0.9375 0,-0.5 0.3125,-1.71875 0.546875,-2.1875 0.3125,-0.578125 0.75,-0.953125 1.15625,-0.953125 0.640625,0 0.78125,0.8125 0.78125,0.875 0,0.0625 -0.015625,0.125 -0.03125,0.171875 z m 0,0"
               id="id-359c8e86-6a1e-448f-8100-ca982906ffe3" />
          </g>
        </g>
        <g
           style="fill:#000000;fill-opacity:1"
           id="id-d3bc19ab-ae39-4e1f-88b4-e1497d064a90">
          <g
             transform="translate(284.529, 152.569)"
             id="g1288">
            <path
               style="stroke:none"
               d="M 3.515625,-1.265625 H 3.28125 c -0.015625,0.15625 -0.09375,0.5625 -0.1875,0.625 C 3.046875,-0.59375 2.515625,-0.59375 2.40625,-0.59375 H 1.125 c 0.734375,-0.640625 0.984375,-0.84375 1.390625,-1.171875 0.515625,-0.40625 1,-0.84375 1,-1.5 0,-0.84375 -0.734375,-1.359375 -1.625,-1.359375 -0.859375,0 -1.453125,0.609375 -1.453125,1.25 0,0.34375 0.296875,0.390625 0.375,0.390625 0.15625,0 0.359375,-0.125 0.359375,-0.375 0,-0.125 -0.046875,-0.375 -0.40625,-0.375 C 0.984375,-4.21875 1.453125,-4.375 1.78125,-4.375 c 0.703125,0 1.0625,0.546875 1.0625,1.109375 0,0.609375 -0.4375,1.078125 -0.65625,1.328125 L 0.515625,-0.265625 C 0.4375,-0.203125 0.4375,-0.1875 0.4375,0 h 2.875 z m 0,0"
               id="id-4241ac9e-c047-4566-a4b1-7f08050cca84" />
          </g>
        </g>
        <g
           style="fill:#000000;fill-opacity:1"
           id="id-6edc088e-8675-4949-9098-c314af9b04d5">
          <g
             transform="translate(291.213, 156.682)"
             id="g1292">
            <path
               style="stroke:none"
               d="m 4.078125,-2.296875 h 2.78125 C 7,-2.296875 7.1875,-2.296875 7.1875,-2.5 7.1875,-2.6875 7,-2.6875 6.859375,-2.6875 h -2.78125 v -2.796875 c 0,-0.140625 0,-0.328125 -0.203125,-0.328125 -0.203125,0 -0.203125,0.1875 -0.203125,0.328125 V -2.6875 h -2.78125 c -0.140625,0 -0.328125,0 -0.328125,0.1875 0,0.203125 0.1875,0.203125 0.328125,0.203125 h 2.78125 V 0.5 c 0,0.140625 0,0.328125 0.203125,0.328125 0.203125,0 0.203125,-0.1875 0.203125,-0.328125 z m 0,0"
               id="id-314b3c02-8f1e-403f-9f60-fdd2169fcc39" />
          </g>
        </g>
        <g
           style="fill:#000000;fill-opacity:1"
           id="id-b60ee419-91f4-4f9e-8382-325a4fefb27c">
          <g
             transform="translate(301.175, 156.682)"
             id="g1296">
            <path
               style="stroke:none"
               d="m 2.375,-6.8125 c 0,0 0,-0.109375 -0.125,-0.109375 -0.21875,0 -0.953125,0.078125 -1.21875,0.109375 -0.078125,0 -0.1875,0.015625 -0.1875,0.1875 0,0.125 0.09375,0.125 0.25,0.125 0.46875,0 0.484375,0.0625 0.484375,0.171875 0,0.0625 -0.078125,0.40625 -0.125,0.609375 l -0.828125,3.25 c -0.109375,0.5 -0.15625,0.671875 -0.15625,1.015625 0,0.9375 0.53125,1.5625 1.265625,1.5625 1.171875,0 2.40625,-1.484375 2.40625,-2.921875 0,-0.90625 -0.53125,-1.59375 -1.328125,-1.59375 -0.453125,0 -0.875,0.296875 -1.171875,0.59375 z M 1.453125,-3.046875 C 1.5,-3.265625 1.5,-3.28125 1.59375,-3.390625 2.078125,-4.03125 2.53125,-4.1875 2.796875,-4.1875 c 0.359375,0 0.625,0.296875 0.625,0.9375 0,0.59375 -0.328125,1.734375 -0.515625,2.109375 -0.328125,0.671875 -0.78125,1.03125 -1.171875,1.03125 -0.34375,0 -0.671875,-0.265625 -0.671875,-1 0,-0.203125 0,-0.390625 0.15625,-1.015625 z m 0,0"
               id="id-12d07855-09e8-4b22-9e34-cec6e05b82af" />
          </g>
        </g>
        <g
           style="fill:#000000;fill-opacity:1"
           id="id-2d6786b4-1bc3-4a43-af52-4d86911229e0">
          <g
             transform="translate(305.451, 152.569)"
             id="g1300">
            <path
               style="stroke:none"
               d="M 3.515625,-1.265625 H 3.28125 c -0.015625,0.15625 -0.09375,0.5625 -0.1875,0.625 C 3.046875,-0.59375 2.515625,-0.59375 2.40625,-0.59375 H 1.125 c 0.734375,-0.640625 0.984375,-0.84375 1.390625,-1.171875 0.515625,-0.40625 1,-0.84375 1,-1.5 0,-0.84375 -0.734375,-1.359375 -1.625,-1.359375 -0.859375,0 -1.453125,0.609375 -1.453125,1.25 0,0.34375 0.296875,0.390625 0.375,0.390625 0.15625,0 0.359375,-0.125 0.359375,-0.375 0,-0.125 -0.046875,-0.375 -0.40625,-0.375 C 0.984375,-4.21875 1.453125,-4.375 1.78125,-4.375 c 0.703125,0 1.0625,0.546875 1.0625,1.109375 0,0.609375 -0.4375,1.078125 -0.65625,1.328125 L 0.515625,-0.265625 C 0.4375,-0.203125 0.4375,-0.1875 0.4375,0 h 2.875 z m 0,0"
               id="id-7670fe09-ed50-4d89-ae2d-94ecdfeae3af" />
          </g>
        </g>
        <g
           style="fill:#000000;fill-opacity:1"
           id="id-c19557af-93b2-4fc3-b7af-60813c5dfa5d">
          <g
             transform="translate(312.688, 156.682)"
             id="g1304">
            <path
               style="stroke:none"
               d="m 6.84375,-3.265625 c 0.15625,0 0.34375,0 0.34375,-0.1875 C 7.1875,-3.65625 7,-3.65625 6.859375,-3.65625 h -5.96875 c -0.140625,0 -0.328125,0 -0.328125,0.203125 0,0.1875 0.1875,0.1875 0.328125,0.1875 z m 0.015625,1.9375 c 0.140625,0 0.328125,0 0.328125,-0.203125 0,-0.1875 -0.1875,-0.1875 -0.34375,-0.1875 H 0.890625 c -0.140625,0 -0.328125,0 -0.328125,0.1875 0,0.203125 0.1875,0.203125 0.328125,0.203125 z m 0,0"
               id="id-a00f87b6-de8a-4829-8682-6dd61a18008e" />
          </g>
        </g>
        <g
           style="fill:#000000;fill-opacity:1"
           id="id-f22ad97b-21df-4f10-bf1d-6b5cddd0c7e0">
          <g
             transform="translate(323.204, 156.682)"
             id="g1308">
            <path
               style="stroke:none"
               d="m 3.953125,-3.78125 c -0.171875,0 -0.296875,0 -0.4375,0.125 -0.171875,0.15625 -0.1875,0.328125 -0.1875,0.390625 0,0.25 0.1875,0.359375 0.375,0.359375 0.28125,0 0.546875,-0.25 0.546875,-0.640625 0,-0.484375 -0.46875,-0.859375 -1.171875,-0.859375 -1.34375,0 -2.671875,1.421875 -2.671875,2.828125 0,0.90625 0.578125,1.6875 1.625,1.6875 1.421875,0 2.25,-1.0625 2.25,-1.171875 0,-0.0625 -0.046875,-0.140625 -0.109375,-0.140625 -0.0625,0 -0.078125,0.03125 -0.140625,0.109375 -0.78125,0.984375 -1.875,0.984375 -1.984375,0.984375 -0.625,0 -0.90625,-0.484375 -0.90625,-1.09375 0,-0.40625 0.203125,-1.375 0.546875,-1.984375 0.3125,-0.578125 0.859375,-1 1.40625,-1 0.328125,0 0.71875,0.125 0.859375,0.40625 z m 0,0"
               id="id-7dad01a1-a222-4294-ad07-4afbb94623c3" />
          </g>
        </g>
        <g
           style="fill:#000000;fill-opacity:1"
           id="id-34a48884-36d3-485d-87bd-02067f492ef7">
          <g
             transform="translate(327.515, 152.569)"
             id="g1312">
            <path
               style="stroke:none"
               d="M 3.515625,-1.265625 H 3.28125 c -0.015625,0.15625 -0.09375,0.5625 -0.1875,0.625 C 3.046875,-0.59375 2.515625,-0.59375 2.40625,-0.59375 H 1.125 c 0.734375,-0.640625 0.984375,-0.84375 1.390625,-1.171875 0.515625,-0.40625 1,-0.84375 1,-1.5 0,-0.84375 -0.734375,-1.359375 -1.625,-1.359375 -0.859375,0 -1.453125,0.609375 -1.453125,1.25 0,0.34375 0.296875,0.390625 0.375,0.390625 0.15625,0 0.359375,-0.125 0.359375,-0.375 0,-0.125 -0.046875,-0.375 -0.40625,-0.375 C 0.984375,-4.21875 1.453125,-4.375 1.78125,-4.375 c 0.703125,0 1.0625,0.546875 1.0625,1.109375 0,0.609375 -0.4375,1.078125 -0.65625,1.328125 L 0.515625,-0.265625 C 0.4375,-0.203125 0.4375,-0.1875 0.4375,0 h 2.875 z m 0,0"
               id="id-164705b7-42d4-46b8-963d-c76119898a9e" />
          </g>
        </g>
        <g
           style="fill:#000000;fill-opacity:1"
           id="id-587a8b1e-b9b7-4093-9070-3f2449a49ebd">
          <g
             transform="translate(133.768, 178.6)"
             id="g1316">
            <path
               style="stroke:none"
               d="m 1.453125,-6.5625 c -0.25,0.015625 -0.46875,0.25 -0.46875,0.515625 0,0.28125 0.25,0.53125 0.53125,0.53125 0.28125,0 0.53125,-0.234375 0.53125,-0.53125 0,-0.265625 -0.1875,-0.53125 -0.515625,-0.53125 -0.03125,0 -0.0625,0.015625 -0.078125,0.015625 z m 1.921875,0 c -0.25,0.015625 -0.4375,0.25 -0.4375,0.515625 0,0.25 0.1875,0.53125 0.484375,0.53125 0.3125,0 0.5625,-0.234375 0.5625,-0.53125 0,-0.296875 -0.25,-0.53125 -0.53125,-0.53125 -0.03125,0 -0.046875,0.015625 -0.078125,0.015625 z m 0,0"
               id="id-53beb547-5663-4940-a065-897ead9bc357" />
          </g>
        </g>
        <g
           style="fill:#000000;fill-opacity:1"
           id="id-b78382c4-1e4b-427b-a684-763a2d5de636">
          <g
             transform="translate(133.767, 178.6)"
             id="g1320">
            <path
               style="stroke:none"
               d="m 1.109375,-3.796875 c 0.25,-0.3125 0.6875,-0.453125 1.0625,-0.453125 0.734375,0 1.0625,0.671875 1.0625,1.375 v 0.265625 c -1.140625,0 -2.828125,0.359375 -2.828125,1.65625 V -0.875 c 0.078125,0.78125 1.046875,0.96875 1.625,0.96875 0.5,0 1.15625,-0.328125 1.28125,-0.84375 0.0625,0.4375 0.34375,0.796875 0.78125,0.796875 0.40625,0 0.765625,-0.328125 0.828125,-0.78125 v -0.71875 h -0.25 v 0.5 c 0,0.28125 -0.0625,0.6875 -0.359375,0.6875 -0.328125,0 -0.375,-0.390625 -0.375,-0.65625 V -2.59375 c 0,-0.125 0.015625,-0.25 0.015625,-0.375 0,-0.96875 -0.90625,-1.5 -1.734375,-1.5 -0.640625,0 -1.515625,0.3125 -1.515625,1.109375 0,0.28125 0.203125,0.484375 0.46875,0.484375 0.28125,0 0.4375,-0.21875 0.4375,-0.46875 0,-0.28125 -0.21875,-0.453125 -0.5,-0.453125 z m 2.125,1.390625 v 1.015625 c 0,0.6875 -0.46875,1.234375 -1.125,1.265625 H 2.078125 C 1.609375,-0.125 1.1875,-0.484375 1.1875,-0.96875 V -1.015625 C 1.25,-2.03125 2.375,-2.375 3.234375,-2.40625 Z m 0,0"
               id="id-9cb33c42-7ce2-414c-b5bc-b107eeb1c0bd" />
          </g>
          <g
             transform="translate(138.747, 178.6)"
             id="g1323">
            <path
               style="stroke:none"
               d="m 1.453125,-6.5625 c -0.25,0.015625 -0.46875,0.25 -0.46875,0.515625 0,0.28125 0.25,0.53125 0.53125,0.53125 0.28125,0 0.53125,-0.234375 0.53125,-0.53125 0,-0.265625 -0.1875,-0.53125 -0.515625,-0.53125 -0.03125,0 -0.0625,0.015625 -0.078125,0.015625 z m 1.921875,0 c -0.25,0.015625 -0.4375,0.25 -0.4375,0.515625 0,0.25 0.1875,0.53125 0.484375,0.53125 0.3125,0 0.5625,-0.234375 0.5625,-0.53125 0,-0.296875 -0.25,-0.53125 -0.53125,-0.53125 -0.03125,0 -0.046875,0.015625 -0.078125,0.015625 z m 0,0"
               id="id-3ac87623-1fe1-4fbb-93bc-3d20702e50d0" />
          </g>
        </g>
        <g
           style="fill:#000000;fill-opacity:1"
           id="id-d73e8dfb-8122-426d-8b4c-a358055f3260">
          <g
             transform="translate(138.746, 178.6)"
             id="g1327">
            <path
               style="stroke:none"
               d="m 2.34375,-4.46875 c -1.25,0.125 -2.0625,1.1875 -2.0625,2.34375 0,1.125 0.890625,2.21875 2.21875,2.21875 1.1875,0 2.1875,-0.96875 2.1875,-2.234375 0,-1.171875 -0.890625,-2.328125 -2.21875,-2.328125 -0.03125,0 -0.09375,0 -0.125,0 z m -1.234375,2.578125 v -0.4375 c 0,-0.765625 0.25,-1.921875 1.375,-1.921875 0.8125,0 1.265625,0.6875 1.359375,1.4375 0.015625,0.21875 0.015625,0.4375 0.015625,0.65625 0,0.640625 -0.078125,1.453125 -0.703125,1.8125 C 2.953125,-0.203125 2.734375,-0.15625 2.5,-0.15625 1.78125,-0.15625 1.265625,-0.71875 1.15625,-1.5 1.140625,-1.625 1.140625,-1.765625 1.109375,-1.890625 Z m 0,0"
               id="id-840e70ca-7c86-4d64-ab85-9f6e5fc34553" />
          </g>
        </g>
        <g
           style="fill:#000000;fill-opacity:1"
           id="id-c70d2d4d-b33a-49d9-95a5-1629e92edcd7">
          <g
             transform="translate(144.006, 178.6)"
             id="g1331">
            <path
               style="stroke:none"
               d="m 1.453125,-6.5625 c -0.25,0.015625 -0.46875,0.25 -0.46875,0.515625 0,0.28125 0.25,0.53125 0.53125,0.53125 0.28125,0 0.53125,-0.234375 0.53125,-0.53125 0,-0.265625 -0.1875,-0.53125 -0.515625,-0.53125 -0.03125,0 -0.0625,0.015625 -0.078125,0.015625 z m 1.921875,0 c -0.25,0.015625 -0.4375,0.25 -0.4375,0.515625 0,0.25 0.1875,0.53125 0.484375,0.53125 0.3125,0 0.5625,-0.234375 0.5625,-0.53125 0,-0.296875 -0.25,-0.53125 -0.53125,-0.53125 -0.03125,0 -0.046875,0.015625 -0.078125,0.015625 z m 0,0"
               id="id-d39b715a-7715-4103-ba63-f8c5ec171643" />
          </g>
        </g>
        <g
           style="fill:#000000;fill-opacity:1"
           id="id-cf999c84-df7e-494b-8cc5-1939ea5bb295">
          <g
             transform="translate(143.726, 178.6)"
             id="g1335">
            <path
               style="stroke:none"
               d="m 0.3125,-4.296875 v 0.3125 h 0.140625 c 0.28125,0 0.578125,0.015625 0.640625,0.3125 0,0.109375 0,0.21875 0,0.328125 v 1.984375 c 0,0.328125 0.015625,0.625 0.1875,0.921875 0.28125,0.421875 0.84375,0.546875 1.3125,0.546875 0.453125,0 0.859375,-0.203125 1.109375,-0.5625 C 3.765625,-0.5625 3.84375,-0.65625 3.875,-0.78125 v 0.875 L 5.328125,-0.015625 V -0.3125 h -0.15625 c -0.328125,0 -0.625,-0.03125 -0.625,-0.484375 V -4.40625 l -1.46875,0.109375 v 0.3125 H 3.21875 c 0.328125,0 0.625,0.03125 0.625,0.5 V -1.6875 c 0,0.734375 -0.375,1.5625 -1.203125,1.5625 -0.5625,0 -0.84375,-0.140625 -0.84375,-1.203125 V -4.40625 Z m 0,0"
               id="id-8b193821-f253-49e5-9f08-45f8312a33d8" />
          </g>
        </g>
        <g
           style="fill:#000000;fill-opacity:1"
           id="id-92e08849-6631-4b61-a9a7-a7d42084bcf7">
          <g
             transform="translate(149.262, 178.6)"
             id="g1339">
            <path
               style="stroke:none"
               d="m 3.09375,-4.171875 c 0.890625,-0.25 1.328125,-0.859375 1.328125,-1.4375 0,-0.75 -0.71875,-1.421875 -1.703125,-1.421875 -0.78125,0 -1.65625,0.484375 -1.65625,1.484375 v 1.25 H 0.28125 v 0.3125 H 1.0625 V -0.75 c 0,0.4375 -0.109375,0.4375 -0.78125,0.4375 V 0 C 0.46875,-0.015625 1.125,-0.03125 1.25,-0.03125 c 0.109375,0 0.28125,0 0.46875,0.03125 v -5.5625 c 0,-1.140625 0.796875,-1.25 1,-1.25 0.40625,0 0.953125,0.3125 0.953125,1.1875 0,0.640625 -0.359375,1.25 -1.234375,1.328125 -0.09375,0.015625 -0.171875,0.015625 -0.171875,0.109375 0,0.015625 0,0.09375 0.09375,0.109375 1.1875,0.09375 1.59375,1.3125 1.59375,2.359375 0,1.28125 -0.65625,1.609375 -1.03125,1.609375 -0.09375,0 -0.3125,-0.015625 -0.5,-0.1875 C 2.53125,-0.3125 2.71875,-0.421875 2.71875,-0.65625 2.71875,-0.875 2.5625,-1.015625 2.359375,-1.015625 2.1875,-1.015625 2,-0.890625 2,-0.640625 c 0,0.390625 0.375,0.75 0.953125,0.75 0.859375,0 1.734375,-0.734375 1.734375,-1.84375 0,-0.71875 -0.3125,-1.921875 -1.59375,-2.4375 z m 0,0"
               id="id-3d6f151a-034c-482c-b5b0-1c6eb0c16df9" />
          </g>
        </g>
      </g>
    </g>
  </g>
</svg>
