<?xml version="1.0" encoding="UTF-8" standalone="no"?>
<svg
   xmlns:ns0="http://www.iki.fi/pav/software/textext/"
   xmlns:dc="http://purl.org/dc/elements/1.1/"
   xmlns:cc="http://creativecommons.org/ns#"
   xmlns:rdf="http://www.w3.org/1999/02/22-rdf-syntax-ns#"
   xmlns:svg="http://www.w3.org/2000/svg"
   xmlns="http://www.w3.org/2000/svg"
   xmlns:sodipodi="http://sodipodi.sourceforge.net/DTD/sodipodi-0.dtd"
   xmlns:inkscape="http://www.inkscape.org/namespaces/inkscape"
   width="210mm"
   height="297mm"
   viewBox="0 0 210 297"
   version="1.1"
   id="svg8"
   inkscape:version="1.0.1 (1.0.1+r74)"
   sodipodi:docname="modified.svg">
  <defs
     id="defs2" />
  <sodipodi:namedview
     id="base"
     pagecolor="#ffffff"
     bordercolor="#666666"
     borderopacity="1.0"
     inkscape:pageopacity="0.0"
     inkscape:pageshadow="2"
     inkscape:zoom="3.6212098"
     inkscape:cx="400.00159"
     inkscape:cy="559.99854"
     inkscape:document-units="mm"
     inkscape:current-layer="layer1"
     inkscape:document-rotation="0"
     showgrid="false"
     inkscape:window-width="1683"
     inkscape:window-height="890"
     inkscape:window-x="101"
     inkscape:window-y="40"
     inkscape:window-maximized="0" />
  <metadata
     id="metadata5">
    <rdf:RDF>
      <cc:Work
         rdf:about="">
        <dc:format>image/svg+xml</dc:format>
        <dc:type
           rdf:resource="http://purl.org/dc/dcmitype/StillImage" />
        <dc:title />
      </cc:Work>
    </rdf:RDF>
  </metadata>
  <g
     inkscape:label="Ebene 1"
     inkscape:groupmode="layer"
     id="layer1">
    <g
       transform="matrix(0.352778 0 0 0.352778 74.468 146.871)"
       ns0:version="1.1.0"
       ns0:texconverter="pdflatex"
       ns0:pdfconverter="inkscape"
       ns0:text="\u0418\u043b\u044c\u044e\u0448\u0438\u043d \u0418\u043b-62 - \u044d\u043b\u0435\u0433\u0430\u043d\u0442\u043d\u044b\u0439 \u0441\u0430\u043c\u043e\u043b\u0435\u0442!"
       ns0:preamble="utf8_cyrillic_packages.tex"
       ns0:scale="1.0"
       ns0:alignment="middle center"
       ns0:inkscapeversion="1.0.1"
       ns0:jacobian_sqrt="0.352778"
       id="content">
      <defs
         id="id-3f3b6a45-c837-4068-a43d-7a55304be1b8">
        <g
           id="id-d9140fef-6afb-44f5-8510-6fd4977e7a29">
          <symbol
             overflow="visible"
             id="id-8991ae60-2dbd-42ba-bb8c-5690cad00932">
            <path
               style="stroke:none"
               d=""
               id="id-a2288345-4dc5-4ffc-979f-ada8f7638f1c" />
          </symbol>
          <symbol
             overflow="visible"
             id="id-779b94db-9214-4fee-86bc-0224450d0ced">
            <path
               style="stroke:none"
               d="m 0.328125,-6.8125 v 0.296875 c 0.125,0 0.265625,0 0.375,0 0.359375,0 0.65625,0.046875 0.65625,0.4375 V -0.75 c 0,0.375 -0.328125,0.4375 -0.671875,0.4375 -0.125,0 -0.25,0 -0.359375,0 v 0.296875 h 2.9375 V -0.3125 h -0.3125 C 2.640625,-0.3125 2.3125,-0.34375 2.25,-0.578125 V -0.625 c 0,-0.109375 0.125,-0.234375 0.1875,-0.328125 C 3.3125,-2.359375 4.234375,-3.78125 5.15625,-5.15625 5.28125,-5.328125 5.390625,-5.5 5.5,-5.671875 v 4.9375 c 0,0.375 -0.34375,0.421875 -0.671875,0.421875 -0.125,0 -0.25,0 -0.359375,0 v 0.296875 H 7.421875 V -0.3125 c -0.125,0 -0.25,0 -0.375,0 -0.34375,0 -0.65625,-0.046875 -0.65625,-0.4375 v -5.328125 c 0,-0.375 0.3125,-0.4375 0.65625,-0.4375 0.125,0 0.265625,0 0.375,0 V -6.8125 H 4.46875 v 0.296875 h 0.328125 c 0.3125,0 0.640625,0.03125 0.703125,0.265625 v 0.046875 C 5.5,-6.09375 5.375,-5.96875 5.3125,-5.875 4.421875,-4.46875 3.515625,-3.046875 2.578125,-1.671875 2.46875,-1.5 2.359375,-1.328125 2.25,-1.15625 v -4.9375 c 0,-0.375 0.328125,-0.421875 0.671875,-0.421875 0.125,0 0.234375,0 0.34375,0 V -6.8125 Z m 0,0"
               id="id-3469f7d8-70e7-45d6-92d6-af00b9149fb4" />
          </symbol>
          <symbol
             overflow="visible"
             id="id-0a8a09ed-3c55-4868-b616-f0e6b4f3c8bf">
            <path
               style="stroke:none"
               d="m 1.171875,-4.296875 v 0.21875 h 0.21875 c 0.3125,0 0.59375,0.046875 0.59375,0.453125 0,0.75 -0.03125,1.578125 -0.1875,2.3125 -0.09375,0.484375 -0.21875,1.21875 -0.8125,1.21875 -0.15625,0 -0.265625,-0.0625 -0.390625,-0.140625 0.25,-0.03125 0.4375,-0.171875 0.4375,-0.421875 0,-0.234375 -0.1875,-0.421875 -0.4375,-0.421875 -0.234375,0 -0.40625,0.171875 -0.40625,0.453125 0,0.453125 0.359375,0.78125 0.796875,0.78125 0.6875,0 0.921875,-0.71875 1.046875,-1.265625 0.15625,-0.75 0.203125,-1.546875 0.203125,-2.3125 V -3.625 C 2.234375,-3.84375 2.25,-4.046875 2.5,-4.078125 h 0.953125 c 0.25,0 0.34375,0.109375 0.34375,0.359375 v 3.03125 c 0,0.421875 -0.203125,0.453125 -0.78125,0.453125 v 0.21875 H 5.28125 v -0.21875 H 5.046875 C 4.765625,-0.234375 4.5,-0.265625 4.5,-0.671875 V -3.625 c 0,-0.421875 0.25,-0.453125 0.78125,-0.453125 v -0.21875 z m 0,0"
               id="id-451eb979-5d55-46bc-8204-cd976c314f59" />
          </symbol>
          <symbol
             overflow="visible"
             id="id-636c2bde-74a7-4bd5-8e09-e845ab76fc6a">
            <path
               style="stroke:none"
               d="m 0.265625,-4.296875 v 0.21875 h 0.21875 c 0.296875,0 0.546875,0.046875 0.546875,0.453125 v 2.953125 c 0,0.421875 -0.265625,0.4375 -0.765625,0.4375 v 0.21875 H 3.03125 c 0.703125,-0.03125 1.609375,-0.4375 1.609375,-1.234375 0,-0.75 -0.875,-1.21875 -1.578125,-1.21875 H 1.734375 v -1.1875 c 0,-0.34375 0.171875,-0.421875 0.78125,-0.421875 v -0.21875 z m 1.46875,2.03125 H 2.625 c 0.578125,0 1.1875,0.375 1.1875,1.015625 v 0.03125 c 0,0.46875 -0.453125,0.859375 -0.875,0.9375 -0.15625,0.015625 -0.3125,0.015625 -0.453125,0.015625 H 1.953125 C 1.75,-0.265625 1.734375,-0.46875 1.734375,-0.625 Z m 0,0"
               id="id-52e745b3-dac4-47f8-bfd1-fc17d2eae7c3" />
          </symbol>
          <symbol
             overflow="visible"
             id="id-4fedff0f-11f4-4ecc-9d1b-ac414f4e7def">
            <path
               style="stroke:none"
               d="m 1.734375,-2.46875 v -1.1875 c 0,-0.34375 0.171875,-0.421875 0.78125,-0.421875 v -0.21875 h -2.25 v 0.21875 h 0.21875 c 0.296875,0 0.546875,0.046875 0.546875,0.453125 v 2.953125 c 0,0.421875 -0.265625,0.4375 -0.765625,0.4375 v 0.21875 h 2.25 v -0.21875 h -0.25 c -0.28125,0 -0.546875,-0.03125 -0.546875,-0.4375 0,-0.078125 0.015625,-0.15625 0.015625,-0.21875 v -1.375 h 1.03125 c 0,1.125 0.734375,2.359375 2.171875,2.359375 1.15625,0 2.25,-0.90625 2.25,-2.234375 0,-1.171875 -0.890625,-2.328125 -2.234375,-2.328125 -1.078125,0 -1.9375,0.875 -2.140625,1.90625 -0.015625,0.0625 -0.046875,0.09375 -0.125,0.09375 z m 1.875,0.578125 v -0.4375 C 3.609375,-3.09375 3.84375,-4.25 4.96875,-4.25 c 0.8125,0 1.265625,0.6875 1.359375,1.4375 0.015625,0.21875 0.015625,0.4375 0.015625,0.65625 0,0.640625 -0.0625,1.453125 -0.703125,1.8125 C 5.4375,-0.203125 5.21875,-0.15625 5,-0.15625 4.265625,-0.15625 3.765625,-0.71875 3.65625,-1.5 3.625,-1.625 3.625,-1.765625 3.609375,-1.890625 Z m 0,0"
               id="id-db44e41b-02ee-404a-9d88-a58cb5298824" />
          </symbol>
          <symbol
             overflow="visible"
             id="id-0567b155-be94-41b6-a6db-824356a4a2ec">
            <path
               style="stroke:none"
               d="m 0.265625,-4.296875 v 0.21875 h 0.21875 c 0.296875,0 0.546875,0.046875 0.546875,0.453125 v 2.953125 c 0,0.421875 -0.265625,0.4375 -0.765625,0.4375 v 0.21875 H 7.75 v -0.21875 H 7.53125 c -0.296875,0 -0.546875,-0.03125 -0.546875,-0.453125 V -3.625 C 6.984375,-4.0625 7.25,-4.078125 7.75,-4.078125 v -0.21875 H 5.5 v 0.21875 h 0.234375 c 0.28125,0 0.546875,0.046875 0.546875,0.453125 v 3.015625 c 0,0.25 -0.078125,0.375 -0.34375,0.375 H 5.796875 c -0.328125,0 -0.6875,0.03125 -1.015625,0.03125 -0.21875,0 -0.421875,-0.0625 -0.421875,-0.390625 v -3.0625 c 0,-0.34375 0.203125,-0.421875 0.78125,-0.421875 v -0.21875 H 2.875 v 0.21875 h 0.234375 c 0.28125,0 0.546875,0.046875 0.546875,0.453125 v 3.015625 c 0,0.25 -0.0625,0.375 -0.34375,0.375 H 3.171875 c -0.328125,0 -0.671875,0.03125 -1.015625,0.03125 -0.21875,0 -0.421875,-0.0625 -0.421875,-0.390625 v -3.0625 c 0,-0.34375 0.203125,-0.421875 0.78125,-0.421875 v -0.21875 z m 0,0"
               id="id-67470bf0-dec9-485d-9f36-6e6fb594e160" />
          </symbol>
          <symbol
             overflow="visible"
             id="id-2d9537d4-8ffd-4e94-b65e-5ede64452e2b">
            <path
               style="stroke:none"
               d="m 0.25,-4.296875 v 0.21875 h 0.234375 c 0.28125,0 0.546875,0.046875 0.546875,0.453125 v 2.953125 c 0,0.421875 -0.28125,0.4375 -0.78125,0.4375 v 0.21875 H 2.5 v -0.21875 H 2.328125 C 2.03125,-0.234375 1.71875,-0.265625 1.71875,-0.625 1.734375,-0.71875 1.828125,-0.78125 1.875,-0.859375 L 2.265625,-1.34375 C 2.78125,-1.96875 3.25,-2.65625 3.796875,-3.25 v 2.578125 c 0,0.34375 -0.140625,0.4375 -0.78125,0.4375 v 0.21875 H 5.28125 v -0.21875 H 5.046875 C 4.765625,-0.234375 4.5,-0.265625 4.5,-0.671875 V -3.625 c 0,-0.421875 0.25,-0.453125 0.78125,-0.453125 v -0.21875 H 3.015625 v 0.21875 h 0.1875 c 0.28125,0 0.59375,0.03125 0.59375,0.40625 -0.015625,0.078125 -0.09375,0.15625 -0.140625,0.21875 l -0.390625,0.5 c -0.53125,0.625 -1,1.296875 -1.546875,1.890625 v -2.578125 c 0,-0.34375 0.140625,-0.4375 0.78125,-0.4375 v -0.21875 z m 0,0"
               id="id-7cc93a30-1d6e-4f73-8bff-43450dbe34f6" />
          </symbol>
          <symbol
             overflow="visible"
             id="id-fc24885e-0792-40c6-b469-20b65fd10543">
            <path
               style="stroke:none"
               d="m 0.25,-4.296875 v 0.21875 h 0.234375 c 0.28125,0 0.546875,0.046875 0.546875,0.453125 v 2.953125 c 0,0.421875 -0.28125,0.4375 -0.78125,0.4375 v 0.21875 H 2.5 v -0.21875 H 2.265625 c -0.296875,0 -0.546875,-0.03125 -0.546875,-0.4375 0,-0.078125 0,-0.15625 0,-0.21875 v -1.375 h 2.078125 v 1.375 c 0,0.0625 0.015625,0.140625 0.015625,0.21875 0,0.4375 -0.328125,0.4375 -0.796875,0.4375 v 0.21875 H 5.28125 v -0.21875 H 5.046875 C 4.765625,-0.234375 4.5,-0.265625 4.5,-0.671875 V -3.625 c 0,-0.421875 0.25,-0.453125 0.78125,-0.453125 v -0.21875 H 3.015625 v 0.21875 h 0.21875 c 0.28125,0 0.5625,0.046875 0.5625,0.421875 v 1.1875 H 1.71875 v -1.1875 c 0,-0.328125 0.125,-0.421875 0.78125,-0.421875 v -0.21875 z m 0,0"
               id="id-9d8de5bd-41ce-42b6-951c-e7fbf63afc38" />
          </symbol>
          <symbol
             overflow="visible"
             id="id-8af270ed-58ec-4754-a57e-8014bdcd6c85">
            <path
               style="stroke:none"
               d="m 0.109375,-2.4375 v 0.578125 h 2.65625 V -2.4375 Z m 0,0"
               id="id-6ebf03fb-6ba0-4acd-85ec-ba8e08004e4c" />
          </symbol>
          <symbol
             overflow="visible"
             id="id-452c98b0-c6e9-4498-9419-886e946716cc">
            <path
               style="stroke:none"
               d="M 1.328125,-3.296875 H 1.3125 C 1.3125,-4.1875 1.359375,-5.203125 2,-5.890625 2.28125,-6.1875 2.640625,-6.40625 3.078125,-6.40625 3.40625,-6.40625 3.734375,-6.265625 3.9375,-6 3.90625,-6.015625 3.875,-6.015625 3.84375,-6.015625 c -0.265625,0 -0.453125,0.203125 -0.453125,0.46875 0,0.25 0.203125,0.453125 0.453125,0.453125 0.265625,0 0.46875,-0.1875 0.46875,-0.515625 0,-0.734375 -0.6875,-1.046875 -1.28125,-1.046875 -1.671875,0 -2.609375,1.890625 -2.609375,3.390625 0,1.375 0.28125,3.46875 2.125,3.46875 1.21875,0 2.015625,-1.125 2.015625,-2.25 C 4.5625,-3.09375 3.84375,-4.25 2.65625,-4.25 2.078125,-4.25 1.5,-3.953125 1.328125,-3.296875 Z m 0,1.171875 v -0.09375 c 0,-0.6875 0.25,-1.8125 1.234375,-1.8125 1.09375,0 1.09375,1.3125 1.09375,1.921875 v 0.1875 c 0,0.671875 -0.0625,1.859375 -1.140625,1.859375 -0.859375,0 -1.125,-0.96875 -1.171875,-1.75 0,-0.09375 0,-0.21875 -0.015625,-0.3125 z m 0,0"
               id="id-459cf9fd-40a4-47d0-8ffa-b28c177f2f67" />
          </symbol>
          <symbol
             overflow="visible"
             id="id-a77d3240-3ba1-4fcb-b2a9-53d20a485e70">
            <path
               style="stroke:none"
               d="M 0.890625,-5.328125 C 1.125,-5.828125 1.5,-6.34375 2.21875,-6.34375 c 0.9375,0 1.34375,0.859375 1.34375,1.640625 0,0.921875 -0.609375,1.671875 -1.1875,2.328125 -0.5625,0.671875 -1.171875,1.3125 -1.75,1.96875 C 0.53125,-0.3125 0.5,-0.265625 0.5,-0.125 v 0.109375 H 4.203125 L 4.46875,-1.75 H 4.234375 C 4.140625,-1.296875 4.203125,-0.796875 3.6875,-0.796875 H 3.296875 C 3,-0.78125 2.71875,-0.78125 2.421875,-0.78125 c -0.390625,0 -0.765625,0 -1.140625,0 l 0.6875,-0.671875 c 0.28125,-0.265625 0.546875,-0.53125 0.828125,-0.78125 0.734375,-0.65625 1.671875,-1.375 1.671875,-2.484375 0,-1.125 -0.953125,-1.9375 -2.078125,-1.9375 C 1.4375,-6.65625 0.5,-5.9375 0.5,-4.859375 c 0,0.25 0.09375,0.5625 0.515625,0.5625 0.296875,0 0.53125,-0.203125 0.53125,-0.515625 0,-0.265625 -0.203125,-0.515625 -0.515625,-0.515625 -0.046875,0 -0.09375,0 -0.140625,0 z m 0,0"
               id="id-4aa31469-22ed-4741-922f-45b22358ed99" />
          </symbol>
          <symbol
             overflow="visible"
             id="id-d07d4255-ab42-40c9-ba1a-07a32d8b637e">
            <path
               style="stroke:none"
               d="m 3.234375,-2.421875 c -0.140625,0.046875 -0.28125,0.0625 -0.4375,0.0625 -0.46875,0 -0.75,-0.28125 -1.21875,-0.28125 -0.296875,0 -0.796875,0.109375 -0.796875,0.296875 0,0.03125 0.015625,0.0625 0.0625,0.078125 H 0.875 c 0.046875,0 0.125,-0.03125 0.171875,-0.046875 H 1.09375 c 0.4375,0 0.75,0.375 1.203125,0.375 0.328125,0 0.65625,-0.140625 0.953125,-0.28125 0,0.796875 -0.203125,1.703125 -1.078125,2.015625 C 2.0625,-0.171875 1.9375,-0.15625 1.828125,-0.15625 H 1.75 C 1.203125,-0.203125 0.78125,-0.515625 0.5625,-1.078125 0.53125,-1.15625 0.53125,-1.296875 0.40625,-1.296875 c -0.0625,0 -0.09375,0.015625 -0.109375,0.0625 v 0.03125 c 0,0.125 0.046875,0.25 0.109375,0.359375 0.265625,0.609375 0.859375,0.9375 1.515625,0.9375 1.1875,0 2.171875,-0.984375 2.171875,-2.25 0,-1.0625 -0.671875,-2.046875 -1.8125,-2.28125 -0.109375,-0.015625 -0.234375,-0.03125 -0.34375,-0.03125 -0.34375,0 -0.6875,0.09375 -0.96875,0.25 C 0.921875,-4.1875 0.875,-4.140625 0.8125,-4.140625 H 0.796875 c -0.09375,0 -0.28125,-0.265625 -0.421875,-0.265625 -0.078125,0 -0.09375,0.078125 -0.09375,0.15625 v 0.703125 c 0,0.03125 -0.015625,0.078125 -0.015625,0.125 0,0.109375 0.03125,0.1875 0.140625,0.1875 0.140625,0 0.1875,-0.28125 0.265625,-0.375 C 0.953125,-4 1.4375,-4.21875 1.90625,-4.21875 h 0.0625 c 0.90625,0.109375 1.265625,1.046875 1.265625,1.796875 z m 0,0"
               id="id-c652896d-93ca-4104-b859-d304d25b94bd" />
          </symbol>
          <symbol
             overflow="visible"
             id="id-273e06d0-3896-4f3c-8ba0-a05060244bbd">
            <path
               style="stroke:none"
               d="m 1.109375,-2.3125 h 2.875 c 0.109375,0 0.15625,-0.0625 0.15625,-0.1875 0,-1.046875 -0.640625,-1.96875 -1.765625,-1.96875 -1.21875,0 -2.09375,1.09375 -2.09375,2.28125 0,0.90625 0.5,1.734375 1.390625,2.125 0.21875,0.109375 0.484375,0.15625 0.734375,0.15625 H 2.4375 c 0.765625,0 1.40625,-0.421875 1.671875,-1.1875 C 4.125,-1.125 4.125,-1.171875 4.125,-1.203125 4.125,-1.265625 4.09375,-1.3125 4.015625,-1.3125 3.875,-1.3125 3.8125,-0.984375 3.75,-0.875 3.5,-0.4375 3.015625,-0.15625 2.5,-0.15625 c -0.359375,0 -0.6875,-0.203125 -0.953125,-0.46875 -0.40625,-0.46875 -0.4375,-1.109375 -0.4375,-1.6875 z M 1.125,-2.515625 C 1.125,-3.296875 1.53125,-4.25 2.359375,-4.25 H 2.40625 c 0.96875,0.09375 0.96875,1.125 1.0625,1.734375 z m 0,0"
               id="id-831deb67-5b80-48df-b662-7087998ee44a" />
          </symbol>
          <symbol
             overflow="visible"
             id="id-b6ccb5d6-141d-41a8-a4c8-f48ef553b402">
            <path
               style="stroke:none"
               d="m 0.25,-4.296875 v 0.21875 h 0.234375 c 0.28125,0 0.546875,0.046875 0.546875,0.453125 v 2.953125 c 0,0.421875 -0.28125,0.4375 -0.78125,0.4375 v 0.21875 h 2.4375 v -0.21875 H 2.390625 c -0.359375,0 -0.671875,-0.03125 -0.671875,-0.46875 V -3.71875 c 0,-0.203125 0.078125,-0.359375 0.3125,-0.359375 h 0.625 c 0.671875,0 1.203125,0.046875 1.265625,1.390625 h 0.25 L 4.0625,-4.296875 Z m 0,0"
               id="id-9dc69722-22fb-43d1-9121-732c67e8e535" />
          </symbol>
          <symbol
             overflow="visible"
             id="id-d9f17067-8548-4e19-a32d-994d97ec8d57">
            <path
               style="stroke:none"
               d="m 1.109375,-3.796875 c 0.25,-0.3125 0.6875,-0.453125 1.0625,-0.453125 0.734375,0 1.0625,0.671875 1.0625,1.375 v 0.265625 c -1.140625,0 -2.828125,0.359375 -2.828125,1.65625 V -0.875 c 0.078125,0.78125 1.046875,0.96875 1.625,0.96875 0.5,0 1.15625,-0.328125 1.28125,-0.84375 0.0625,0.4375 0.34375,0.796875 0.78125,0.796875 0.40625,0 0.765625,-0.328125 0.828125,-0.78125 v -0.71875 h -0.25 v 0.5 c 0,0.28125 -0.0625,0.6875 -0.359375,0.6875 -0.328125,0 -0.375,-0.390625 -0.375,-0.65625 V -2.59375 c 0,-0.125 0.015625,-0.25 0.015625,-0.375 0,-0.96875 -0.90625,-1.5 -1.734375,-1.5 -0.640625,0 -1.515625,0.3125 -1.515625,1.109375 0,0.28125 0.203125,0.484375 0.46875,0.484375 0.28125,0 0.4375,-0.21875 0.4375,-0.46875 0,-0.28125 -0.21875,-0.453125 -0.5,-0.453125 z m 2.125,1.390625 v 1.015625 c 0,0.6875 -0.46875,1.234375 -1.125,1.265625 H 2.078125 C 1.609375,-0.125 1.1875,-0.484375 1.1875,-0.96875 V -1.015625 C 1.25,-2.03125 2.375,-2.375 3.234375,-2.40625 Z m 0,0"
               id="id-59cc7fa7-cbaf-406b-bb3f-8ad7facf772a" />
          </symbol>
          <symbol
             overflow="visible"
             id="id-42262f3a-6a9d-471d-bbe7-65af31c4e342">
            <path
               style="stroke:none"
               d="M 0.359375,-4.296875 0.25,-2.6875 H 0.5 c 0.015625,-0.375 0.03125,-0.875 0.234375,-1.125 C 0.921875,-4.03125 1.25,-4.078125 1.53125,-4.078125 h 0.1875 c 0.234375,0 0.421875,0.015625 0.421875,0.375 v 2.96875 c 0,0.453125 -0.375,0.515625 -0.75,0.515625 -0.109375,0 -0.25,-0.015625 -0.359375,-0.015625 v 0.21875 h 2.890625 v -0.21875 c -0.125,0 -0.25,0.015625 -0.375,0.015625 -0.375,0 -0.71875,-0.0625 -0.71875,-0.515625 v -2.96875 c 0,-0.203125 0,-0.375 0.421875,-0.375 h 0.1875 c 0.625,0 0.984375,0.203125 1.03125,1.390625 h 0.25 L 4.609375,-4.296875 Z m 0,0"
               id="id-f4f97c7e-b0c9-4153-a893-e82e5710c3f7" />
          </symbol>
          <symbol
             overflow="visible"
             id="id-b01632df-fae5-4580-ba58-c4be596a45e3">
            <path
               style="stroke:none"
               d="m 0.265625,-4.296875 v 0.21875 h 0.21875 c 0.296875,0 0.546875,0.046875 0.546875,0.453125 v 2.953125 c 0,0.421875 -0.265625,0.4375 -0.765625,0.4375 v 0.21875 H 3.03125 c 0.703125,-0.03125 1.609375,-0.4375 1.609375,-1.234375 0,-0.75 -0.875,-1.21875 -1.578125,-1.21875 H 1.734375 v -1.1875 c 0,-0.34375 0.171875,-0.421875 0.78125,-0.421875 v -0.21875 z m 4.40625,0 v 0.21875 h 0.21875 c 0.296875,0 0.5625,0.046875 0.5625,0.453125 v 2.921875 c 0,0.40625 -0.203125,0.46875 -0.78125,0.46875 v 0.21875 h 2.25 v -0.21875 h -0.1875 c -0.3125,0 -0.578125,-0.03125 -0.578125,-0.453125 V -3.625 c 0,-0.390625 0.203125,-0.453125 0.765625,-0.453125 v -0.21875 z m -2.9375,2.03125 H 2.625 c 0.578125,0 1.1875,0.375 1.1875,1.015625 v 0.03125 c 0,0.46875 -0.453125,0.859375 -0.875,0.9375 -0.15625,0.015625 -0.3125,0.015625 -0.453125,0.015625 H 1.953125 C 1.75,-0.265625 1.734375,-0.46875 1.734375,-0.625 Z m 0,0"
               id="id-455db0ef-8279-4e67-9d09-61c9486712f9" />
          </symbol>
          <symbol
             overflow="visible"
             id="id-d9978b0d-33e0-466c-aaf1-3b9fb4a0da20">
            <path
               style="stroke:none"
               d="m 0.25,-4.296875 v 0.21875 h 0.234375 c 0.28125,0 0.546875,0.046875 0.546875,0.453125 v 2.953125 c 0,0.421875 -0.28125,0.4375 -0.78125,0.4375 v 0.21875 H 2.5 v -0.21875 H 2.328125 C 2.03125,-0.234375 1.71875,-0.265625 1.71875,-0.625 1.734375,-0.71875 1.828125,-0.78125 1.875,-0.859375 L 2.265625,-1.34375 C 2.78125,-1.96875 3.25,-2.65625 3.796875,-3.25 v 2.578125 c 0,0.34375 -0.140625,0.4375 -0.78125,0.4375 v 0.21875 H 5.28125 v -0.21875 H 5.046875 C 4.765625,-0.234375 4.5,-0.265625 4.5,-0.671875 V -3.625 c 0,-0.421875 0.25,-0.453125 0.78125,-0.453125 v -0.21875 H 3.015625 v 0.21875 h 0.1875 c 0.28125,0 0.59375,0.03125 0.59375,0.40625 -0.015625,0.078125 -0.09375,0.15625 -0.140625,0.21875 l -0.390625,0.5 c -0.53125,0.625 -1,1.296875 -1.546875,1.890625 v -2.578125 c 0,-0.34375 0.140625,-0.4375 0.78125,-0.4375 v -0.21875 z m 3.328125,-0.84375 -0.296875,0.0625 -0.71875,0.03125 -0.625,-0.09375 C 2.140625,-5.25 2.265625,-5.375 2.296875,-5.59375 c 0,-0.3125 -0.234375,-0.53125 -0.5,-0.53125 -0.296875,0 -0.5,0.25 -0.5,0.515625 0,0.71875 1,0.875 1.5,0.875 0.578125,0 1.390625,-0.203125 1.4375,-0.84375 V -5.625 c 0,-0.28125 -0.25,-0.5 -0.5,-0.5 -0.3125,0 -0.5,0.25 -0.5,0.5 0,0.234375 0.140625,0.40625 0.34375,0.484375 z m 0,0"
               id="id-13daa892-2237-482a-97c0-820e4fd587ff" />
          </symbol>
          <symbol
             overflow="visible"
             id="id-36b4b69f-3b7b-4c82-8459-4316d0edde6e">
            <path
               style="stroke:none"
               d="m 3.578125,-3.859375 c -0.265625,0.015625 -0.46875,0.1875 -0.46875,0.453125 0,0.28125 0.1875,0.46875 0.453125,0.46875 0.3125,0 0.46875,-0.21875 0.46875,-0.5 V -3.5 C 3.921875,-4.234375 3.078125,-4.46875 2.5,-4.46875 c -1.21875,0 -2.171875,1.0625 -2.171875,2.3125 0,1.125 0.875,2.25 2.171875,2.25 0.65625,0 1.296875,-0.359375 1.5625,-1.046875 0.03125,-0.0625 0.078125,-0.15625 0.078125,-0.21875 0,-0.078125 -0.046875,-0.125 -0.125,-0.125 -0.140625,0 -0.234375,0.375 -0.3125,0.515625 -0.234375,0.375 -0.640625,0.625 -1.09375,0.625 -1.0625,0 -1.390625,-1.0625 -1.4375,-1.84375 v -0.125 c 0,-0.796875 0.1875,-1.984375 1.28125,-2.09375 H 2.53125 c 0.375,0 0.765625,0.109375 1.046875,0.359375 z m 0,0"
               id="id-5688b59e-2c5a-4fd8-8cd6-a57dd57b8d71" />
          </symbol>
          <symbol
             overflow="visible"
             id="id-9c68ea81-ccff-4f27-82d6-5cef097b2b77">
            <path
               style="stroke:none"
               d="m 0.296875,-4.296875 v 0.21875 h 0.21875 c 0.296875,0 0.5625,0.046875 0.5625,0.421875 v 2.625 c 0,0.625 -0.34375,0.796875 -0.78125,0.796875 v 0.21875 h 1.84375 v -0.21875 C 1.734375,-0.234375 1.359375,-0.375 1.359375,-1 v -2.953125 c 0.03125,0.125 0.109375,0.25 0.171875,0.390625 0.453125,1.125 0.90625,2.25 1.421875,3.359375 0.03125,0.078125 0.078125,0.1875 0.171875,0.1875 H 3.140625 C 3.25,-0.03125 3.296875,-0.15625 3.328125,-0.25 L 3.625,-0.96875 C 4,-1.859375 4.375,-2.75 4.765625,-3.640625 4.828125,-3.78125 4.890625,-3.921875 4.9375,-4.0625 v 3.421875 c 0,0.40625 -0.328125,0.40625 -0.703125,0.40625 h -0.0625 v 0.21875 H 6.34375 v -0.21875 H 6.109375 c -0.28125,0 -0.546875,-0.03125 -0.546875,-0.4375 V -3.625 c 0,-0.421875 0.265625,-0.453125 0.78125,-0.453125 v -0.21875 H 5.046875 c -0.21875,0 -0.265625,0.125 -0.328125,0.296875 -0.09375,0.234375 -0.1875,0.453125 -0.28125,0.6875 l -0.75,1.75 C 3.5625,-1.28125 3.484375,-1 3.34375,-0.75 2.90625,-1.828125 2.40625,-2.90625 1.96875,-4 1.890625,-4.140625 1.890625,-4.296875 1.640625,-4.296875 Z m 0,0"
               id="id-cc36d6cc-3b5d-48da-a3d4-ca06523152aa" />
          </symbol>
          <symbol
             overflow="visible"
             id="id-0fc4d4ad-ac23-417a-a05f-e5595b2c3e61">
            <path
               style="stroke:none"
               d="m 2.34375,-4.46875 c -1.25,0.125 -2.0625,1.1875 -2.0625,2.34375 0,1.125 0.890625,2.21875 2.21875,2.21875 1.1875,0 2.1875,-0.96875 2.1875,-2.234375 0,-1.171875 -0.890625,-2.328125 -2.21875,-2.328125 -0.03125,0 -0.09375,0 -0.125,0 z m -1.234375,2.578125 v -0.4375 c 0,-0.765625 0.25,-1.921875 1.375,-1.921875 0.8125,0 1.265625,0.6875 1.359375,1.4375 0.015625,0.21875 0.015625,0.4375 0.015625,0.65625 0,0.640625 -0.078125,1.453125 -0.703125,1.8125 C 2.953125,-0.203125 2.734375,-0.15625 2.5,-0.15625 1.78125,-0.15625 1.265625,-0.71875 1.15625,-1.5 1.140625,-1.625 1.140625,-1.765625 1.109375,-1.890625 Z m 0,0"
               id="id-c069ecf7-b781-49d9-b7ea-74acecb9f1fd" />
          </symbol>
          <symbol
             overflow="visible"
             id="id-6b71c8ec-3b47-4d80-bf09-5cc82467e052">
            <path
               style="stroke:none"
               d="m 1.3125,-7.140625 c -0.3125,0 -0.453125,0.296875 -0.453125,0.5625 0,0.140625 0.03125,0.296875 0.03125,0.4375 0.078125,1.03125 0.203125,2.0625 0.28125,3.09375 0.015625,0.3125 0.046875,0.609375 0.078125,0.90625 0,0.109375 -0.015625,0.25 0.109375,0.265625 h 0.0625 c 0.125,-0.015625 0.09375,-0.203125 0.109375,-0.296875 C 1.6875,-3.5625 1.765625,-4.953125 1.890625,-6.34375 1.90625,-6.4375 1.90625,-6.53125 1.90625,-6.625 c 0,-0.3125 -0.234375,-0.515625 -0.515625,-0.515625 -0.03125,0 -0.0625,0 -0.078125,0 z m 0,6.078125 c -0.25,0.03125 -0.453125,0.25 -0.453125,0.53125 0,0.28125 0.25,0.515625 0.53125,0.515625 0.265625,0 0.515625,-0.21875 0.515625,-0.515625 0,-0.296875 -0.234375,-0.53125 -0.515625,-0.53125 -0.03125,0 -0.0625,0 -0.078125,0 z m 0,0"
               id="id-f95daec0-3c66-4755-ace2-c34f37fdd3b2" />
          </symbol>
        </g>
      </defs>
      <g
         id="id-ab0947d0-a2a4-4285-a01d-cb0f9792b2cf"
         transform="translate(-149.04, -127.624)">
        <g
           style="fill:#000000;fill-opacity:1"
           id="id-50c9a80c-2d01-4936-881f-6dd94fb5cf68">
          <g
             transform="translate(148.712, 134.765)"
             id="g9457">
            <path
               style="stroke:none"
               d="m 0.328125,-6.8125 v 0.296875 c 0.125,0 0.265625,0 0.375,0 0.359375,0 0.65625,0.046875 0.65625,0.4375 V -0.75 c 0,0.375 -0.328125,0.4375 -0.671875,0.4375 -0.125,0 -0.25,0 -0.359375,0 v 0.296875 h 2.9375 V -0.3125 h -0.3125 C 2.640625,-0.3125 2.3125,-0.34375 2.25,-0.578125 V -0.625 c 0,-0.109375 0.125,-0.234375 0.1875,-0.328125 C 3.3125,-2.359375 4.234375,-3.78125 5.15625,-5.15625 5.28125,-5.328125 5.390625,-5.5 5.5,-5.671875 v 4.9375 c 0,0.375 -0.34375,0.421875 -0.671875,0.421875 -0.125,0 -0.25,0 -0.359375,0 v 0.296875 H 7.421875 V -0.3125 c -0.125,0 -0.25,0 -0.375,0 -0.34375,0 -0.65625,-0.046875 -0.65625,-0.4375 v -5.328125 c 0,-0.375 0.3125,-0.4375 0.65625,-0.4375 0.125,0 0.265625,0 0.375,0 V -6.8125 H 4.46875 v 0.296875 h 0.328125 c 0.3125,0 0.640625,0.03125 0.703125,0.265625 v 0.046875 C 5.5,-6.09375 5.375,-5.96875 5.3125,-5.875 4.421875,-4.46875 3.515625,-3.046875 2.578125,-1.671875 2.46875,-1.5 2.359375,-1.328125 2.25,-1.15625 v -4.9375 c 0,-0.375 0.328125,-0.421875 0.671875,-0.421875 0.125,0 0.234375,0 0.34375,0 V -6.8125 Z m 0,0"
               id="id-99eb5918-cd10-4aa1-825e-4113cedc65c5" />
          </g>
          <g
             transform="translate(156.459, 134.765)"
             id="g9460">
            <path
               style="stroke:none"
               d="m 1.171875,-4.296875 v 0.21875 h 0.21875 c 0.3125,0 0.59375,0.046875 0.59375,0.453125 0,0.75 -0.03125,1.578125 -0.1875,2.3125 -0.09375,0.484375 -0.21875,1.21875 -0.8125,1.21875 -0.15625,0 -0.265625,-0.0625 -0.390625,-0.140625 0.25,-0.03125 0.4375,-0.171875 0.4375,-0.421875 0,-0.234375 -0.1875,-0.421875 -0.4375,-0.421875 -0.234375,0 -0.40625,0.171875 -0.40625,0.453125 0,0.453125 0.359375,0.78125 0.796875,0.78125 0.6875,0 0.921875,-0.71875 1.046875,-1.265625 0.15625,-0.75 0.203125,-1.546875 0.203125,-2.3125 V -3.625 C 2.234375,-3.84375 2.25,-4.046875 2.5,-4.078125 h 0.953125 c 0.25,0 0.34375,0.109375 0.34375,0.359375 v 3.03125 c 0,0.421875 -0.203125,0.453125 -0.78125,0.453125 v 0.21875 H 5.28125 v -0.21875 H 5.046875 C 4.765625,-0.234375 4.5,-0.265625 4.5,-0.671875 V -3.625 c 0,-0.421875 0.25,-0.453125 0.78125,-0.453125 v -0.21875 z m 0,0"
               id="id-56ce0bc7-1500-459f-ad52-ea9de4c36b41" />
          </g>
          <g
             transform="translate(161.992, 134.765)"
             id="g9463">
            <path
               style="stroke:none"
               d="m 0.265625,-4.296875 v 0.21875 h 0.21875 c 0.296875,0 0.546875,0.046875 0.546875,0.453125 v 2.953125 c 0,0.421875 -0.265625,0.4375 -0.765625,0.4375 v 0.21875 H 3.03125 c 0.703125,-0.03125 1.609375,-0.4375 1.609375,-1.234375 0,-0.75 -0.875,-1.21875 -1.578125,-1.21875 H 1.734375 v -1.1875 c 0,-0.34375 0.171875,-0.421875 0.78125,-0.421875 v -0.21875 z m 1.46875,2.03125 H 2.625 c 0.578125,0 1.1875,0.375 1.1875,1.015625 v 0.03125 c 0,0.46875 -0.453125,0.859375 -0.875,0.9375 -0.15625,0.015625 -0.3125,0.015625 -0.453125,0.015625 H 1.953125 C 1.75,-0.265625 1.734375,-0.46875 1.734375,-0.625 Z m 0,0"
               id="id-c9184ae9-18a4-4182-b5b0-c1e28b7d9dc5" />
          </g>
          <g
             transform="translate(166.972, 134.765)"
             id="g9466">
            <path
               style="stroke:none"
               d="m 1.734375,-2.46875 v -1.1875 c 0,-0.34375 0.171875,-0.421875 0.78125,-0.421875 v -0.21875 h -2.25 v 0.21875 h 0.21875 c 0.296875,0 0.546875,0.046875 0.546875,0.453125 v 2.953125 c 0,0.421875 -0.265625,0.4375 -0.765625,0.4375 v 0.21875 h 2.25 v -0.21875 h -0.25 c -0.28125,0 -0.546875,-0.03125 -0.546875,-0.4375 0,-0.078125 0.015625,-0.15625 0.015625,-0.21875 v -1.375 h 1.03125 c 0,1.125 0.734375,2.359375 2.171875,2.359375 1.15625,0 2.25,-0.90625 2.25,-2.234375 0,-1.171875 -0.890625,-2.328125 -2.234375,-2.328125 -1.078125,0 -1.9375,0.875 -2.140625,1.90625 -0.015625,0.0625 -0.046875,0.09375 -0.125,0.09375 z m 1.875,0.578125 v -0.4375 C 3.609375,-3.09375 3.84375,-4.25 4.96875,-4.25 c 0.8125,0 1.265625,0.6875 1.359375,1.4375 0.015625,0.21875 0.015625,0.4375 0.015625,0.65625 0,0.640625 -0.0625,1.453125 -0.703125,1.8125 C 5.4375,-0.203125 5.21875,-0.15625 5,-0.15625 4.265625,-0.15625 3.765625,-0.71875 3.65625,-1.5 3.625,-1.625 3.625,-1.765625 3.609375,-1.890625 Z m 0,0"
               id="id-594dbaaf-d154-40b5-b773-03a6041cb9f9" />
          </g>
          <g
             transform="translate(174.442, 134.765)"
             id="g9469">
            <path
               style="stroke:none"
               d="m 0.265625,-4.296875 v 0.21875 h 0.21875 c 0.296875,0 0.546875,0.046875 0.546875,0.453125 v 2.953125 c 0,0.421875 -0.265625,0.4375 -0.765625,0.4375 v 0.21875 H 7.75 v -0.21875 H 7.53125 c -0.296875,0 -0.546875,-0.03125 -0.546875,-0.453125 V -3.625 C 6.984375,-4.0625 7.25,-4.078125 7.75,-4.078125 v -0.21875 H 5.5 v 0.21875 h 0.234375 c 0.28125,0 0.546875,0.046875 0.546875,0.453125 v 3.015625 c 0,0.25 -0.078125,0.375 -0.34375,0.375 H 5.796875 c -0.328125,0 -0.6875,0.03125 -1.015625,0.03125 -0.21875,0 -0.421875,-0.0625 -0.421875,-0.390625 v -3.0625 c 0,-0.34375 0.203125,-0.421875 0.78125,-0.421875 v -0.21875 H 2.875 v 0.21875 h 0.234375 c 0.28125,0 0.546875,0.046875 0.546875,0.453125 v 3.015625 c 0,0.25 -0.0625,0.375 -0.34375,0.375 H 3.171875 c -0.328125,0 -0.671875,0.03125 -1.015625,0.03125 -0.21875,0 -0.421875,-0.0625 -0.421875,-0.390625 v -3.0625 c 0,-0.34375 0.203125,-0.421875 0.78125,-0.421875 v -0.21875 z m 0,0"
               id="id-1b312f66-b89b-49e9-a189-42901db01d17" />
          </g>
          <g
             transform="translate(182.466, 134.765)"
             id="g9472">
            <path
               style="stroke:none"
               d="m 0.25,-4.296875 v 0.21875 h 0.234375 c 0.28125,0 0.546875,0.046875 0.546875,0.453125 v 2.953125 c 0,0.421875 -0.28125,0.4375 -0.78125,0.4375 v 0.21875 H 2.5 v -0.21875 H 2.328125 C 2.03125,-0.234375 1.71875,-0.265625 1.71875,-0.625 1.734375,-0.71875 1.828125,-0.78125 1.875,-0.859375 L 2.265625,-1.34375 C 2.78125,-1.96875 3.25,-2.65625 3.796875,-3.25 v 2.578125 c 0,0.34375 -0.140625,0.4375 -0.78125,0.4375 v 0.21875 H 5.28125 v -0.21875 H 5.046875 C 4.765625,-0.234375 4.5,-0.265625 4.5,-0.671875 V -3.625 c 0,-0.421875 0.25,-0.453125 0.78125,-0.453125 v -0.21875 H 3.015625 v 0.21875 h 0.1875 c 0.28125,0 0.59375,0.03125 0.59375,0.40625 -0.015625,0.078125 -0.09375,0.15625 -0.140625,0.21875 l -0.390625,0.5 c -0.53125,0.625 -1,1.296875 -1.546875,1.890625 v -2.578125 c 0,-0.34375 0.140625,-0.4375 0.78125,-0.4375 v -0.21875 z m 0,0"
               id="id-4abd200c-6ded-421d-bb40-2d99e1deebba" />
          </g>
          <g
             transform="translate(188, 134.765)"
             id="g9475">
            <path
               style="stroke:none"
               d="m 0.25,-4.296875 v 0.21875 h 0.234375 c 0.28125,0 0.546875,0.046875 0.546875,0.453125 v 2.953125 c 0,0.421875 -0.28125,0.4375 -0.78125,0.4375 v 0.21875 H 2.5 v -0.21875 H 2.265625 c -0.296875,0 -0.546875,-0.03125 -0.546875,-0.4375 0,-0.078125 0,-0.15625 0,-0.21875 v -1.375 h 2.078125 v 1.375 c 0,0.0625 0.015625,0.140625 0.015625,0.21875 0,0.4375 -0.328125,0.4375 -0.796875,0.4375 v 0.21875 H 5.28125 v -0.21875 H 5.046875 C 4.765625,-0.234375 4.5,-0.265625 4.5,-0.671875 V -3.625 c 0,-0.421875 0.25,-0.453125 0.78125,-0.453125 v -0.21875 H 3.015625 v 0.21875 h 0.21875 c 0.28125,0 0.5625,0.046875 0.5625,0.421875 v 1.1875 H 1.71875 v -1.1875 c 0,-0.328125 0.125,-0.421875 0.78125,-0.421875 v -0.21875 z m 0,0"
               id="id-89329355-1413-490c-b8ef-6a64b4ad3804" />
          </g>
        </g>
        <g
           style="fill:#000000;fill-opacity:1"
           id="id-067ab5a8-cd36-4b40-b31f-551d5a2e936c">
          <g
             transform="translate(196.85, 134.765)"
             id="g9479">
            <path
               style="stroke:none"
               d="m 0.328125,-6.8125 v 0.296875 c 0.125,0 0.265625,0 0.375,0 0.359375,0 0.65625,0.046875 0.65625,0.4375 V -0.75 c 0,0.375 -0.328125,0.4375 -0.671875,0.4375 -0.125,0 -0.25,0 -0.359375,0 v 0.296875 h 2.9375 V -0.3125 h -0.3125 C 2.640625,-0.3125 2.3125,-0.34375 2.25,-0.578125 V -0.625 c 0,-0.109375 0.125,-0.234375 0.1875,-0.328125 C 3.3125,-2.359375 4.234375,-3.78125 5.15625,-5.15625 5.28125,-5.328125 5.390625,-5.5 5.5,-5.671875 v 4.9375 c 0,0.375 -0.34375,0.421875 -0.671875,0.421875 -0.125,0 -0.25,0 -0.359375,0 v 0.296875 H 7.421875 V -0.3125 c -0.125,0 -0.25,0 -0.375,0 -0.34375,0 -0.65625,-0.046875 -0.65625,-0.4375 v -5.328125 c 0,-0.375 0.3125,-0.4375 0.65625,-0.4375 0.125,0 0.265625,0 0.375,0 V -6.8125 H 4.46875 v 0.296875 h 0.328125 c 0.3125,0 0.640625,0.03125 0.703125,0.265625 v 0.046875 C 5.5,-6.09375 5.375,-5.96875 5.3125,-5.875 4.421875,-4.46875 3.515625,-3.046875 2.578125,-1.671875 2.46875,-1.5 2.359375,-1.328125 2.25,-1.15625 v -4.9375 c 0,-0.375 0.328125,-0.421875 0.671875,-0.421875 0.125,0 0.234375,0 0.34375,0 V -6.8125 Z m 0,0"
               id="id-ff1d542a-f2af-4fcf-bb6d-1c4841868e25" />
          </g>
          <g
             transform="translate(204.597, 134.765)"
             id="g9482">
            <path
               style="stroke:none"
               d="m 1.171875,-4.296875 v 0.21875 h 0.21875 c 0.3125,0 0.59375,0.046875 0.59375,0.453125 0,0.75 -0.03125,1.578125 -0.1875,2.3125 -0.09375,0.484375 -0.21875,1.21875 -0.8125,1.21875 -0.15625,0 -0.265625,-0.0625 -0.390625,-0.140625 0.25,-0.03125 0.4375,-0.171875 0.4375,-0.421875 0,-0.234375 -0.1875,-0.421875 -0.4375,-0.421875 -0.234375,0 -0.40625,0.171875 -0.40625,0.453125 0,0.453125 0.359375,0.78125 0.796875,0.78125 0.6875,0 0.921875,-0.71875 1.046875,-1.265625 0.15625,-0.75 0.203125,-1.546875 0.203125,-2.3125 V -3.625 C 2.234375,-3.84375 2.25,-4.046875 2.5,-4.078125 h 0.953125 c 0.25,0 0.34375,0.109375 0.34375,0.359375 v 3.03125 c 0,0.421875 -0.203125,0.453125 -0.78125,0.453125 v 0.21875 H 5.28125 v -0.21875 H 5.046875 C 4.765625,-0.234375 4.5,-0.265625 4.5,-0.671875 V -3.625 c 0,-0.421875 0.25,-0.453125 0.78125,-0.453125 v -0.21875 z m 0,0"
               id="id-938755c3-8a6d-4447-b4f2-454174717a5a" />
          </g>
          <g
             transform="translate(210.13, 134.765)"
             id="g9485">
            <path
               style="stroke:none"
               d="m 0.109375,-2.4375 v 0.578125 h 2.65625 V -2.4375 Z m 0,0"
               id="id-fd167b9c-b24a-482e-94c1-b1f89b00a990" />
          </g>
          <g
             transform="translate(213.451, 134.765)"
             id="g9488">
            <path
               style="stroke:none"
               d="M 1.328125,-3.296875 H 1.3125 C 1.3125,-4.1875 1.359375,-5.203125 2,-5.890625 2.28125,-6.1875 2.640625,-6.40625 3.078125,-6.40625 3.40625,-6.40625 3.734375,-6.265625 3.9375,-6 3.90625,-6.015625 3.875,-6.015625 3.84375,-6.015625 c -0.265625,0 -0.453125,0.203125 -0.453125,0.46875 0,0.25 0.203125,0.453125 0.453125,0.453125 0.265625,0 0.46875,-0.1875 0.46875,-0.515625 0,-0.734375 -0.6875,-1.046875 -1.28125,-1.046875 -1.671875,0 -2.609375,1.890625 -2.609375,3.390625 0,1.375 0.28125,3.46875 2.125,3.46875 1.21875,0 2.015625,-1.125 2.015625,-2.25 C 4.5625,-3.09375 3.84375,-4.25 2.65625,-4.25 2.078125,-4.25 1.5,-3.953125 1.328125,-3.296875 Z m 0,1.171875 v -0.09375 c 0,-0.6875 0.25,-1.8125 1.234375,-1.8125 1.09375,0 1.09375,1.3125 1.09375,1.921875 v 0.1875 c 0,0.671875 -0.0625,1.859375 -1.140625,1.859375 -0.859375,0 -1.125,-0.96875 -1.171875,-1.75 0,-0.09375 0,-0.21875 -0.015625,-0.3125 z m 0,0"
               id="id-1b84812b-e7f7-4508-8728-2e6203f28b70" />
          </g>
          <g
             transform="translate(218.431, 134.765)"
             id="g9491">
            <path
               style="stroke:none"
               d="M 0.890625,-5.328125 C 1.125,-5.828125 1.5,-6.34375 2.21875,-6.34375 c 0.9375,0 1.34375,0.859375 1.34375,1.640625 0,0.921875 -0.609375,1.671875 -1.1875,2.328125 -0.5625,0.671875 -1.171875,1.3125 -1.75,1.96875 C 0.53125,-0.3125 0.5,-0.265625 0.5,-0.125 v 0.109375 H 4.203125 L 4.46875,-1.75 H 4.234375 C 4.140625,-1.296875 4.203125,-0.796875 3.6875,-0.796875 H 3.296875 C 3,-0.78125 2.71875,-0.78125 2.421875,-0.78125 c -0.390625,0 -0.765625,0 -1.140625,0 l 0.6875,-0.671875 c 0.28125,-0.265625 0.546875,-0.53125 0.828125,-0.78125 0.734375,-0.65625 1.671875,-1.375 1.671875,-2.484375 0,-1.125 -0.953125,-1.9375 -2.078125,-1.9375 C 1.4375,-6.65625 0.5,-5.9375 0.5,-4.859375 c 0,0.25 0.09375,0.5625 0.515625,0.5625 0.296875,0 0.53125,-0.203125 0.53125,-0.515625 0,-0.265625 -0.203125,-0.515625 -0.515625,-0.515625 -0.046875,0 -0.09375,0 -0.140625,0 z m 0,0"
               id="id-100bb1cb-f7d9-45f3-a395-061b8abee280" />
          </g>
        </g>
        <g
           style="fill:#000000;fill-opacity:1"
           id="id-b1440077-e295-4575-a676-36c077365d13">
          <g
             transform="translate(226.729, 134.765)"
             id="g9495">
            <path
               style="stroke:none"
               d="m 0.109375,-2.4375 v 0.578125 h 2.65625 V -2.4375 Z m 0,0"
               id="id-63b89a11-d430-4f4c-b31e-1fa85c56f262" />
          </g>
        </g>
        <g
           style="fill:#000000;fill-opacity:1"
           id="id-0885a206-1169-4dc3-81d5-beb36abf2a0c">
          <g
             transform="translate(233.377, 134.765)"
             id="g9499">
            <path
               style="stroke:none"
               d="m 3.234375,-2.421875 c -0.140625,0.046875 -0.28125,0.0625 -0.4375,0.0625 -0.46875,0 -0.75,-0.28125 -1.21875,-0.28125 -0.296875,0 -0.796875,0.109375 -0.796875,0.296875 0,0.03125 0.015625,0.0625 0.0625,0.078125 H 0.875 c 0.046875,0 0.125,-0.03125 0.171875,-0.046875 H 1.09375 c 0.4375,0 0.75,0.375 1.203125,0.375 0.328125,0 0.65625,-0.140625 0.953125,-0.28125 0,0.796875 -0.203125,1.703125 -1.078125,2.015625 C 2.0625,-0.171875 1.9375,-0.15625 1.828125,-0.15625 H 1.75 C 1.203125,-0.203125 0.78125,-0.515625 0.5625,-1.078125 0.53125,-1.15625 0.53125,-1.296875 0.40625,-1.296875 c -0.0625,0 -0.09375,0.015625 -0.109375,0.0625 v 0.03125 c 0,0.125 0.046875,0.25 0.109375,0.359375 0.265625,0.609375 0.859375,0.9375 1.515625,0.9375 1.1875,0 2.171875,-0.984375 2.171875,-2.25 0,-1.0625 -0.671875,-2.046875 -1.8125,-2.28125 -0.109375,-0.015625 -0.234375,-0.03125 -0.34375,-0.03125 -0.34375,0 -0.6875,0.09375 -0.96875,0.25 C 0.921875,-4.1875 0.875,-4.140625 0.8125,-4.140625 H 0.796875 c -0.09375,0 -0.28125,-0.265625 -0.421875,-0.265625 -0.078125,0 -0.09375,0.078125 -0.09375,0.15625 v 0.703125 c 0,0.03125 -0.015625,0.078125 -0.015625,0.125 0,0.109375 0.03125,0.1875 0.140625,0.1875 0.140625,0 0.1875,-0.28125 0.265625,-0.375 C 0.953125,-4 1.4375,-4.21875 1.90625,-4.21875 h 0.0625 c 0.90625,0.109375 1.265625,1.046875 1.265625,1.796875 z m 0,0"
               id="id-f3801c3a-34e8-4d25-8873-da36ceba0741" />
          </g>
          <g
             transform="translate(237.804, 134.765)"
             id="g9502">
            <path
               style="stroke:none"
               d="m 1.171875,-4.296875 v 0.21875 h 0.21875 c 0.3125,0 0.59375,0.046875 0.59375,0.453125 0,0.75 -0.03125,1.578125 -0.1875,2.3125 -0.09375,0.484375 -0.21875,1.21875 -0.8125,1.21875 -0.15625,0 -0.265625,-0.0625 -0.390625,-0.140625 0.25,-0.03125 0.4375,-0.171875 0.4375,-0.421875 0,-0.234375 -0.1875,-0.421875 -0.4375,-0.421875 -0.234375,0 -0.40625,0.171875 -0.40625,0.453125 0,0.453125 0.359375,0.78125 0.796875,0.78125 0.6875,0 0.921875,-0.71875 1.046875,-1.265625 0.15625,-0.75 0.203125,-1.546875 0.203125,-2.3125 V -3.625 C 2.234375,-3.84375 2.25,-4.046875 2.5,-4.078125 h 0.953125 c 0.25,0 0.34375,0.109375 0.34375,0.359375 v 3.03125 c 0,0.421875 -0.203125,0.453125 -0.78125,0.453125 v 0.21875 H 5.28125 v -0.21875 H 5.046875 C 4.765625,-0.234375 4.5,-0.265625 4.5,-0.671875 V -3.625 c 0,-0.421875 0.25,-0.453125 0.78125,-0.453125 v -0.21875 z m 0,0"
               id="id-330b340b-2041-4a5d-ab2a-99ec3004c2de" />
          </g>
          <g
             transform="translate(243.337, 134.765)"
             id="g9505">
            <path
               style="stroke:none"
               d="m 1.109375,-2.3125 h 2.875 c 0.109375,0 0.15625,-0.0625 0.15625,-0.1875 0,-1.046875 -0.640625,-1.96875 -1.765625,-1.96875 -1.21875,0 -2.09375,1.09375 -2.09375,2.28125 0,0.90625 0.5,1.734375 1.390625,2.125 0.21875,0.109375 0.484375,0.15625 0.734375,0.15625 H 2.4375 c 0.765625,0 1.40625,-0.421875 1.671875,-1.1875 C 4.125,-1.125 4.125,-1.171875 4.125,-1.203125 4.125,-1.265625 4.09375,-1.3125 4.015625,-1.3125 3.875,-1.3125 3.8125,-0.984375 3.75,-0.875 3.5,-0.4375 3.015625,-0.15625 2.5,-0.15625 c -0.359375,0 -0.6875,-0.203125 -0.953125,-0.46875 -0.40625,-0.46875 -0.4375,-1.109375 -0.4375,-1.6875 z M 1.125,-2.515625 C 1.125,-3.296875 1.53125,-4.25 2.359375,-4.25 H 2.40625 c 0.96875,0.09375 0.96875,1.125 1.0625,1.734375 z m 0,0"
               id="id-c0e5353c-0546-463d-8a7b-3027b5b70877" />
          </g>
          <g
             transform="translate(247.763, 134.765)"
             id="g9508">
            <path
               style="stroke:none"
               d="m 0.25,-4.296875 v 0.21875 h 0.234375 c 0.28125,0 0.546875,0.046875 0.546875,0.453125 v 2.953125 c 0,0.421875 -0.28125,0.4375 -0.78125,0.4375 v 0.21875 h 2.4375 v -0.21875 H 2.390625 c -0.359375,0 -0.671875,-0.03125 -0.671875,-0.46875 V -3.71875 c 0,-0.203125 0.078125,-0.359375 0.3125,-0.359375 h 0.625 c 0.671875,0 1.203125,0.046875 1.265625,1.390625 h 0.25 L 4.0625,-4.296875 Z m 0,0"
               id="id-0c419594-5cbd-43ad-86bb-c23f6c181ff8" />
          </g>
        </g>
        <g
           style="fill:#000000;fill-opacity:1"
           id="id-74d1195b-67be-4d21-a78e-70902eeb54a6">
          <g
             transform="translate(251.911, 134.765)"
             id="g9512">
            <path
               style="stroke:none"
               d="m 1.109375,-3.796875 c 0.25,-0.3125 0.6875,-0.453125 1.0625,-0.453125 0.734375,0 1.0625,0.671875 1.0625,1.375 v 0.265625 c -1.140625,0 -2.828125,0.359375 -2.828125,1.65625 V -0.875 c 0.078125,0.78125 1.046875,0.96875 1.625,0.96875 0.5,0 1.15625,-0.328125 1.28125,-0.84375 0.0625,0.4375 0.34375,0.796875 0.78125,0.796875 0.40625,0 0.765625,-0.328125 0.828125,-0.78125 v -0.71875 h -0.25 v 0.5 c 0,0.28125 -0.0625,0.6875 -0.359375,0.6875 -0.328125,0 -0.375,-0.390625 -0.375,-0.65625 V -2.59375 c 0,-0.125 0.015625,-0.25 0.015625,-0.375 0,-0.96875 -0.90625,-1.5 -1.734375,-1.5 -0.640625,0 -1.515625,0.3125 -1.515625,1.109375 0,0.28125 0.203125,0.484375 0.46875,0.484375 0.28125,0 0.4375,-0.21875 0.4375,-0.46875 0,-0.28125 -0.21875,-0.453125 -0.5,-0.453125 z m 2.125,1.390625 v 1.015625 c 0,0.6875 -0.46875,1.234375 -1.125,1.265625 H 2.078125 C 1.609375,-0.125 1.1875,-0.484375 1.1875,-0.96875 V -1.015625 C 1.25,-2.03125 2.375,-2.375 3.234375,-2.40625 Z m 0,0"
               id="id-1a0e8841-657a-46b3-bf43-673387ea7702" />
          </g>
          <g
             transform="translate(256.891, 134.765)"
             id="g9515">
            <path
               style="stroke:none"
               d="m 0.25,-4.296875 v 0.21875 h 0.234375 c 0.28125,0 0.546875,0.046875 0.546875,0.453125 v 2.953125 c 0,0.421875 -0.28125,0.4375 -0.78125,0.4375 v 0.21875 H 2.5 v -0.21875 H 2.265625 c -0.296875,0 -0.546875,-0.03125 -0.546875,-0.4375 0,-0.078125 0,-0.15625 0,-0.21875 v -1.375 h 2.078125 v 1.375 c 0,0.0625 0.015625,0.140625 0.015625,0.21875 0,0.4375 -0.328125,0.4375 -0.796875,0.4375 v 0.21875 H 5.28125 v -0.21875 H 5.046875 C 4.765625,-0.234375 4.5,-0.265625 4.5,-0.671875 V -3.625 c 0,-0.421875 0.25,-0.453125 0.78125,-0.453125 v -0.21875 H 3.015625 v 0.21875 h 0.21875 c 0.28125,0 0.5625,0.046875 0.5625,0.421875 v 1.1875 H 1.71875 v -1.1875 c 0,-0.328125 0.125,-0.421875 0.78125,-0.421875 v -0.21875 z m 0,0"
               id="id-5a5f482f-8b28-45a2-9ed8-dbc9925662fa" />
          </g>
          <g
             transform="translate(262.424, 134.765)"
             id="g9518">
            <path
               style="stroke:none"
               d="M 0.359375,-4.296875 0.25,-2.6875 H 0.5 c 0.015625,-0.375 0.03125,-0.875 0.234375,-1.125 C 0.921875,-4.03125 1.25,-4.078125 1.53125,-4.078125 h 0.1875 c 0.234375,0 0.421875,0.015625 0.421875,0.375 v 2.96875 c 0,0.453125 -0.375,0.515625 -0.75,0.515625 -0.109375,0 -0.25,-0.015625 -0.359375,-0.015625 v 0.21875 h 2.890625 v -0.21875 c -0.125,0 -0.25,0.015625 -0.375,0.015625 -0.375,0 -0.71875,-0.0625 -0.71875,-0.515625 v -2.96875 c 0,-0.203125 0,-0.375 0.421875,-0.375 h 0.1875 c 0.625,0 0.984375,0.203125 1.03125,1.390625 h 0.25 L 4.609375,-4.296875 Z m 0,0"
               id="id-37259859-fabc-4f5c-892f-67f26dfca378" />
          </g>
          <g
             transform="translate(267.404, 134.765)"
             id="g9521">
            <path
               style="stroke:none"
               d="m 0.25,-4.296875 v 0.21875 h 0.234375 c 0.28125,0 0.546875,0.046875 0.546875,0.453125 v 2.953125 c 0,0.421875 -0.28125,0.4375 -0.78125,0.4375 v 0.21875 H 2.5 v -0.21875 H 2.265625 c -0.296875,0 -0.546875,-0.03125 -0.546875,-0.4375 0,-0.078125 0,-0.15625 0,-0.21875 v -1.375 h 2.078125 v 1.375 c 0,0.0625 0.015625,0.140625 0.015625,0.21875 0,0.4375 -0.328125,0.4375 -0.796875,0.4375 v 0.21875 H 5.28125 v -0.21875 H 5.046875 C 4.765625,-0.234375 4.5,-0.265625 4.5,-0.671875 V -3.625 c 0,-0.421875 0.25,-0.453125 0.78125,-0.453125 v -0.21875 H 3.015625 v 0.21875 h 0.21875 c 0.28125,0 0.5625,0.046875 0.5625,0.421875 v 1.1875 H 1.71875 v -1.1875 c 0,-0.328125 0.125,-0.421875 0.78125,-0.421875 v -0.21875 z m 0,0"
               id="id-184a9c66-3ab8-481b-a5a5-9887059c199c" />
          </g>
          <g
             transform="translate(272.938, 134.765)"
             id="g9524">
            <path
               style="stroke:none"
               d="m 0.265625,-4.296875 v 0.21875 h 0.21875 c 0.296875,0 0.546875,0.046875 0.546875,0.453125 v 2.953125 c 0,0.421875 -0.265625,0.4375 -0.765625,0.4375 v 0.21875 H 3.03125 c 0.703125,-0.03125 1.609375,-0.4375 1.609375,-1.234375 0,-0.75 -0.875,-1.21875 -1.578125,-1.21875 H 1.734375 v -1.1875 c 0,-0.34375 0.171875,-0.421875 0.78125,-0.421875 v -0.21875 z m 4.40625,0 v 0.21875 h 0.21875 c 0.296875,0 0.5625,0.046875 0.5625,0.453125 v 2.921875 c 0,0.40625 -0.203125,0.46875 -0.78125,0.46875 v 0.21875 h 2.25 v -0.21875 h -0.1875 c -0.3125,0 -0.578125,-0.03125 -0.578125,-0.453125 V -3.625 c 0,-0.390625 0.203125,-0.453125 0.765625,-0.453125 v -0.21875 z m -2.9375,2.03125 H 2.625 c 0.578125,0 1.1875,0.375 1.1875,1.015625 v 0.03125 c 0,0.46875 -0.453125,0.859375 -0.875,0.9375 -0.15625,0.015625 -0.3125,0.015625 -0.453125,0.015625 H 1.953125 C 1.75,-0.265625 1.734375,-0.46875 1.734375,-0.625 Z m 0,0"
               id="id-b8c85e9c-a67b-4c02-85b9-e54c983e26a1" />
          </g>
          <g
             transform="translate(280.131, 134.765)"
             id="g9527">
            <path
               style="stroke:none"
               d="m 0.25,-4.296875 v 0.21875 h 0.234375 c 0.28125,0 0.546875,0.046875 0.546875,0.453125 v 2.953125 c 0,0.421875 -0.28125,0.4375 -0.78125,0.4375 v 0.21875 H 2.5 v -0.21875 H 2.328125 C 2.03125,-0.234375 1.71875,-0.265625 1.71875,-0.625 1.734375,-0.71875 1.828125,-0.78125 1.875,-0.859375 L 2.265625,-1.34375 C 2.78125,-1.96875 3.25,-2.65625 3.796875,-3.25 v 2.578125 c 0,0.34375 -0.140625,0.4375 -0.78125,0.4375 v 0.21875 H 5.28125 v -0.21875 H 5.046875 C 4.765625,-0.234375 4.5,-0.265625 4.5,-0.671875 V -3.625 c 0,-0.421875 0.25,-0.453125 0.78125,-0.453125 v -0.21875 H 3.015625 v 0.21875 h 0.1875 c 0.28125,0 0.59375,0.03125 0.59375,0.40625 -0.015625,0.078125 -0.09375,0.15625 -0.140625,0.21875 l -0.390625,0.5 c -0.53125,0.625 -1,1.296875 -1.546875,1.890625 v -2.578125 c 0,-0.34375 0.140625,-0.4375 0.78125,-0.4375 v -0.21875 z m 3.328125,-0.84375 -0.296875,0.0625 -0.71875,0.03125 -0.625,-0.09375 C 2.140625,-5.25 2.265625,-5.375 2.296875,-5.59375 c 0,-0.3125 -0.234375,-0.53125 -0.5,-0.53125 -0.296875,0 -0.5,0.25 -0.5,0.515625 0,0.71875 1,0.875 1.5,0.875 0.578125,0 1.390625,-0.203125 1.4375,-0.84375 V -5.625 c 0,-0.28125 -0.25,-0.5 -0.5,-0.5 -0.3125,0 -0.5,0.25 -0.5,0.5 0,0.234375 0.140625,0.40625 0.34375,0.484375 z m 0,0"
               id="id-0ae80ee6-ef5e-4b36-abbf-5393ffd13ffa" />
          </g>
        </g>
        <g
           style="fill:#000000;fill-opacity:1"
           id="id-6779ed36-adae-4efc-bf87-6ec00fc6641b">
          <g
             transform="translate(288.981, 134.765)"
             id="g9531">
            <path
               style="stroke:none"
               d="m 3.578125,-3.859375 c -0.265625,0.015625 -0.46875,0.1875 -0.46875,0.453125 0,0.28125 0.1875,0.46875 0.453125,0.46875 0.3125,0 0.46875,-0.21875 0.46875,-0.5 V -3.5 C 3.921875,-4.234375 3.078125,-4.46875 2.5,-4.46875 c -1.21875,0 -2.171875,1.0625 -2.171875,2.3125 0,1.125 0.875,2.25 2.171875,2.25 0.65625,0 1.296875,-0.359375 1.5625,-1.046875 0.03125,-0.0625 0.078125,-0.15625 0.078125,-0.21875 0,-0.078125 -0.046875,-0.125 -0.125,-0.125 -0.140625,0 -0.234375,0.375 -0.3125,0.515625 -0.234375,0.375 -0.640625,0.625 -1.09375,0.625 -1.0625,0 -1.390625,-1.0625 -1.4375,-1.84375 v -0.125 c 0,-0.796875 0.1875,-1.984375 1.28125,-2.09375 H 2.53125 c 0.375,0 0.765625,0.109375 1.046875,0.359375 z m 0,0"
               id="id-0da14be7-04d7-4441-8903-14c01fde2495" />
          </g>
          <g
             transform="translate(293.408, 134.765)"
             id="g9534">
            <path
               style="stroke:none"
               d="m 1.109375,-3.796875 c 0.25,-0.3125 0.6875,-0.453125 1.0625,-0.453125 0.734375,0 1.0625,0.671875 1.0625,1.375 v 0.265625 c -1.140625,0 -2.828125,0.359375 -2.828125,1.65625 V -0.875 c 0.078125,0.78125 1.046875,0.96875 1.625,0.96875 0.5,0 1.15625,-0.328125 1.28125,-0.84375 0.0625,0.4375 0.34375,0.796875 0.78125,0.796875 0.40625,0 0.765625,-0.328125 0.828125,-0.78125 v -0.71875 h -0.25 v 0.5 c 0,0.28125 -0.0625,0.6875 -0.359375,0.6875 -0.328125,0 -0.375,-0.390625 -0.375,-0.65625 V -2.59375 c 0,-0.125 0.015625,-0.25 0.015625,-0.375 0,-0.96875 -0.90625,-1.5 -1.734375,-1.5 -0.640625,0 -1.515625,0.3125 -1.515625,1.109375 0,0.28125 0.203125,0.484375 0.46875,0.484375 0.28125,0 0.4375,-0.21875 0.4375,-0.46875 0,-0.28125 -0.21875,-0.453125 -0.5,-0.453125 z m 2.125,1.390625 v 1.015625 c 0,0.6875 -0.46875,1.234375 -1.125,1.265625 H 2.078125 C 1.609375,-0.125 1.1875,-0.484375 1.1875,-0.96875 V -1.015625 C 1.25,-2.03125 2.375,-2.375 3.234375,-2.40625 Z m 0,0"
               id="id-fbaf0dac-a24c-45f3-9ee1-3e2887c20305" />
          </g>
          <g
             transform="translate(298.388, 134.765)"
             id="g9537">
            <path
               style="stroke:none"
               d="m 0.296875,-4.296875 v 0.21875 h 0.21875 c 0.296875,0 0.5625,0.046875 0.5625,0.421875 v 2.625 c 0,0.625 -0.34375,0.796875 -0.78125,0.796875 v 0.21875 h 1.84375 v -0.21875 C 1.734375,-0.234375 1.359375,-0.375 1.359375,-1 v -2.953125 c 0.03125,0.125 0.109375,0.25 0.171875,0.390625 0.453125,1.125 0.90625,2.25 1.421875,3.359375 0.03125,0.078125 0.078125,0.1875 0.171875,0.1875 H 3.140625 C 3.25,-0.03125 3.296875,-0.15625 3.328125,-0.25 L 3.625,-0.96875 C 4,-1.859375 4.375,-2.75 4.765625,-3.640625 4.828125,-3.78125 4.890625,-3.921875 4.9375,-4.0625 v 3.421875 c 0,0.40625 -0.328125,0.40625 -0.703125,0.40625 h -0.0625 v 0.21875 H 6.34375 v -0.21875 H 6.109375 c -0.28125,0 -0.546875,-0.03125 -0.546875,-0.4375 V -3.625 c 0,-0.421875 0.265625,-0.453125 0.78125,-0.453125 v -0.21875 H 5.046875 c -0.21875,0 -0.265625,0.125 -0.328125,0.296875 -0.09375,0.234375 -0.1875,0.453125 -0.28125,0.6875 l -0.75,1.75 C 3.5625,-1.28125 3.484375,-1 3.34375,-0.75 2.90625,-1.828125 2.40625,-2.90625 1.96875,-4 1.890625,-4.140625 1.890625,-4.296875 1.640625,-4.296875 Z m 0,0"
               id="id-e5b0e80c-a489-4e2b-aeb3-a7c24da3b950" />
          </g>
          <g
             transform="translate(305.028, 134.765)"
             id="g9540">
            <path
               style="stroke:none"
               d="m 2.34375,-4.46875 c -1.25,0.125 -2.0625,1.1875 -2.0625,2.34375 0,1.125 0.890625,2.21875 2.21875,2.21875 1.1875,0 2.1875,-0.96875 2.1875,-2.234375 0,-1.171875 -0.890625,-2.328125 -2.21875,-2.328125 -0.03125,0 -0.09375,0 -0.125,0 z m -1.234375,2.578125 v -0.4375 c 0,-0.765625 0.25,-1.921875 1.375,-1.921875 0.8125,0 1.265625,0.6875 1.359375,1.4375 0.015625,0.21875 0.015625,0.4375 0.015625,0.65625 0,0.640625 -0.078125,1.453125 -0.703125,1.8125 C 2.953125,-0.203125 2.734375,-0.15625 2.5,-0.15625 1.78125,-0.15625 1.265625,-0.71875 1.15625,-1.5 1.140625,-1.625 1.140625,-1.765625 1.109375,-1.890625 Z m 0,0"
               id="id-a015dcd9-6e19-4a20-8552-2d8016c8c7ea" />
          </g>
          <g
             transform="translate(310.008, 134.765)"
             id="g9543">
            <path
               style="stroke:none"
               d="m 1.171875,-4.296875 v 0.21875 h 0.21875 c 0.3125,0 0.59375,0.046875 0.59375,0.453125 0,0.75 -0.03125,1.578125 -0.1875,2.3125 -0.09375,0.484375 -0.21875,1.21875 -0.8125,1.21875 -0.15625,0 -0.265625,-0.0625 -0.390625,-0.140625 0.25,-0.03125 0.4375,-0.171875 0.4375,-0.421875 0,-0.234375 -0.1875,-0.421875 -0.4375,-0.421875 -0.234375,0 -0.40625,0.171875 -0.40625,0.453125 0,0.453125 0.359375,0.78125 0.796875,0.78125 0.6875,0 0.921875,-0.71875 1.046875,-1.265625 0.15625,-0.75 0.203125,-1.546875 0.203125,-2.3125 V -3.625 C 2.234375,-3.84375 2.25,-4.046875 2.5,-4.078125 h 0.953125 c 0.25,0 0.34375,0.109375 0.34375,0.359375 v 3.03125 c 0,0.421875 -0.203125,0.453125 -0.78125,0.453125 v 0.21875 H 5.28125 v -0.21875 H 5.046875 C 4.765625,-0.234375 4.5,-0.265625 4.5,-0.671875 V -3.625 c 0,-0.421875 0.25,-0.453125 0.78125,-0.453125 v -0.21875 z m 0,0"
               id="id-7713230c-0752-46e3-9bdd-3e11bce0e506" />
          </g>
          <g
             transform="translate(315.542, 134.765)"
             id="g9546">
            <path
               style="stroke:none"
               d="m 1.109375,-2.3125 h 2.875 c 0.109375,0 0.15625,-0.0625 0.15625,-0.1875 0,-1.046875 -0.640625,-1.96875 -1.765625,-1.96875 -1.21875,0 -2.09375,1.09375 -2.09375,2.28125 0,0.90625 0.5,1.734375 1.390625,2.125 0.21875,0.109375 0.484375,0.15625 0.734375,0.15625 H 2.4375 c 0.765625,0 1.40625,-0.421875 1.671875,-1.1875 C 4.125,-1.125 4.125,-1.171875 4.125,-1.203125 4.125,-1.265625 4.09375,-1.3125 4.015625,-1.3125 3.875,-1.3125 3.8125,-0.984375 3.75,-0.875 3.5,-0.4375 3.015625,-0.15625 2.5,-0.15625 c -0.359375,0 -0.6875,-0.203125 -0.953125,-0.46875 -0.40625,-0.46875 -0.4375,-1.109375 -0.4375,-1.6875 z M 1.125,-2.515625 C 1.125,-3.296875 1.53125,-4.25 2.359375,-4.25 H 2.40625 c 0.96875,0.09375 0.96875,1.125 1.0625,1.734375 z m 0,0"
               id="id-17001769-c98c-488d-bb43-4db6afdd348c" />
          </g>
          <g
             transform="translate(319.968, 134.765)"
             id="g9549">
            <path
               style="stroke:none"
               d="M 0.359375,-4.296875 0.25,-2.6875 H 0.5 c 0.015625,-0.375 0.03125,-0.875 0.234375,-1.125 C 0.921875,-4.03125 1.25,-4.078125 1.53125,-4.078125 h 0.1875 c 0.234375,0 0.421875,0.015625 0.421875,0.375 v 2.96875 c 0,0.453125 -0.375,0.515625 -0.75,0.515625 -0.109375,0 -0.25,-0.015625 -0.359375,-0.015625 v 0.21875 h 2.890625 v -0.21875 c -0.125,0 -0.25,0.015625 -0.375,0.015625 -0.375,0 -0.71875,-0.0625 -0.71875,-0.515625 v -2.96875 c 0,-0.203125 0,-0.375 0.421875,-0.375 h 0.1875 c 0.625,0 0.984375,0.203125 1.03125,1.390625 h 0.25 L 4.609375,-4.296875 Z m 0,0"
               id="id-978cd9a2-c83e-478f-aaf7-9cdb540e3536" />
          </g>
          <g
             transform="translate(324.948, 134.765)"
             id="g9552">
            <path
               style="stroke:none"
               d="m 1.3125,-7.140625 c -0.3125,0 -0.453125,0.296875 -0.453125,0.5625 0,0.140625 0.03125,0.296875 0.03125,0.4375 0.078125,1.03125 0.203125,2.0625 0.28125,3.09375 0.015625,0.3125 0.046875,0.609375 0.078125,0.90625 0,0.109375 -0.015625,0.25 0.109375,0.265625 h 0.0625 c 0.125,-0.015625 0.09375,-0.203125 0.109375,-0.296875 C 1.6875,-3.5625 1.765625,-4.953125 1.890625,-6.34375 1.90625,-6.4375 1.90625,-6.53125 1.90625,-6.625 c 0,-0.3125 -0.234375,-0.515625 -0.515625,-0.515625 -0.03125,0 -0.0625,0 -0.078125,0 z m 0,6.078125 c -0.25,0.03125 -0.453125,0.25 -0.453125,0.53125 0,0.28125 0.25,0.515625 0.53125,0.515625 0.265625,0 0.515625,-0.21875 0.515625,-0.515625 0,-0.296875 -0.234375,-0.53125 -0.515625,-0.53125 -0.03125,0 -0.0625,0 -0.078125,0 z m 0,0"
               id="id-f59cad5c-f403-4f67-ae5a-0ad777ef82a7" />
          </g>
        </g>
      </g>
    </g>
  </g>
</svg>
