<?xml version="1.0" encoding="UTF-8" standalone="no"?>
<svg
   xmlns:ns0="http://www.iki.fi/pav/software/textext/"
   xmlns:dc="http://purl.org/dc/elements/1.1/"
   xmlns:cc="http://creativecommons.org/ns#"
   xmlns:rdf="http://www.w3.org/1999/02/22-rdf-syntax-ns#"
   xmlns:svg="http://www.w3.org/2000/svg"
   xmlns="http://www.w3.org/2000/svg"
   xmlns:sodipodi="http://sodipodi.sourceforge.net/DTD/sodipodi-0.dtd"
   xmlns:inkscape="http://www.inkscape.org/namespaces/inkscape"
   sodipodi:docname="original.svg"
   inkscape:version="1.0.1 (1.0.1+r74)"
   id="svg8"
   version="1.1"
   viewBox="0 0 210 297"
   height="297mm"
   width="210mm">
  <defs
     id="defs2" />
  <sodipodi:namedview
     id="base"
     pagecolor="#ffffff"
     bordercolor="#666666"
     borderopacity="1.0"
     inkscape:pageopacity="0.0"
     inkscape:pageshadow="2"
     inkscape:zoom="3.6212098"
     inkscape:cx="400.00159"
     inkscape:cy="559.99854"
     inkscape:document-units="mm"
     inkscape:current-layer="layer1"
     inkscape:document-rotation="0"
     showgrid="false"
     inkscape:window-width="1683"
     inkscape:window-height="890"
     inkscape:window-x="101"
     inkscape:window-y="40"
     inkscape:window-maximized="0" />
  <metadata
     id="metadata5">
    <rdf:RDF>
      <cc:Work
         rdf:about="">
        <dc:format>image/svg+xml</dc:format>
        <dc:type
           rdf:resource="http://purl.org/dc/dcmitype/StillImage" />
        <dc:title />
      </cc:Work>
    </rdf:RDF>
  </metadata>
  <g
     inkscape:label="Ebene 1"
     inkscape:groupmode="layer"
     id="layer1">
    <g
       transform="matrix(0.352778 0 0 0.352778 74.468 146.871)"
       ns0:version="1.1.0"
       ns0:texconverter="pdflatex"
       ns0:pdfconverter="inkscape"
       ns0:text="\u0418\u043b\u044c\u044e\u0448\u0438\u043d \u0418\u043b-62 - \u044d\u043b\u0435\u0433\u0430\u043d\u0442\u043d\u044b\u0439 \u0441\u0430\u043c\u043e\u043b\u0435\u0442!"
       ns0:preamble="utf8_cyrillic_packages.tex"
       ns0:scale="1.0"
       ns0:alignment="middle center"
       ns0:inkscapeversion="1.0.1"
       ns0:jacobian_sqrt="0.352778"
       id="content">
      <defs
         id="id-c3179a85-ac74-413c-a89e-fe30fd8280ca">
        <g
           id="id-37300422-92ac-47b3-b43e-2f361f01c8e3">
          <symbol
             overflow="visible"
             id="id-f500322a-d3b5-47d5-bc6f-0826a25f795f">
            <path
               style="stroke:none"
               d=""
               id="id-074494fb-053a-40ef-8370-6ed293e7efe7" />
          </symbol>
          <symbol
             overflow="visible"
             id="id-8b7dd46e-085e-4325-8164-3b656e6e187f">
            <path
               style="stroke:none"
               d="m 0.328125,-6.8125 v 0.296875 c 0.125,0 0.265625,0 0.375,0 0.359375,0 0.65625,0.046875 0.65625,0.4375 V -0.75 c 0,0.375 -0.328125,0.4375 -0.671875,0.4375 -0.125,0 -0.25,0 -0.359375,0 v 0.296875 h 2.9375 V -0.3125 h -0.3125 C 2.640625,-0.3125 2.3125,-0.34375 2.25,-0.578125 V -0.625 c 0,-0.109375 0.125,-0.234375 0.1875,-0.328125 C 3.3125,-2.359375 4.234375,-3.78125 5.15625,-5.15625 5.28125,-5.328125 5.390625,-5.5 5.5,-5.671875 v 4.9375 c 0,0.375 -0.34375,0.421875 -0.671875,0.421875 -0.125,0 -0.25,0 -0.359375,0 v 0.296875 H 7.421875 V -0.3125 c -0.125,0 -0.25,0 -0.375,0 -0.34375,0 -0.65625,-0.046875 -0.65625,-0.4375 v -5.328125 c 0,-0.375 0.3125,-0.4375 0.65625,-0.4375 0.125,0 0.265625,0 0.375,0 V -6.8125 H 4.46875 v 0.296875 h 0.328125 c 0.3125,0 0.640625,0.03125 0.703125,0.265625 v 0.046875 C 5.5,-6.09375 5.375,-5.96875 5.3125,-5.875 4.421875,-4.46875 3.515625,-3.046875 2.578125,-1.671875 2.46875,-1.5 2.359375,-1.328125 2.25,-1.15625 v -4.9375 c 0,-0.375 0.328125,-0.421875 0.671875,-0.421875 0.125,0 0.234375,0 0.34375,0 V -6.8125 Z m 0,0"
               id="id-49da12f9-5cb6-405f-936f-c31d2aa5d160" />
          </symbol>
          <symbol
             overflow="visible"
             id="id-d7eda56d-b9df-46ad-b45f-feccd8e027e3">
            <path
               style="stroke:none"
               d="m 1.171875,-4.296875 v 0.21875 h 0.21875 c 0.3125,0 0.59375,0.046875 0.59375,0.453125 0,0.75 -0.03125,1.578125 -0.1875,2.3125 -0.09375,0.484375 -0.21875,1.21875 -0.8125,1.21875 -0.15625,0 -0.265625,-0.0625 -0.390625,-0.140625 0.25,-0.03125 0.4375,-0.171875 0.4375,-0.421875 0,-0.234375 -0.1875,-0.421875 -0.4375,-0.421875 -0.234375,0 -0.40625,0.171875 -0.40625,0.453125 0,0.453125 0.359375,0.78125 0.796875,0.78125 0.6875,0 0.921875,-0.71875 1.046875,-1.265625 0.15625,-0.75 0.203125,-1.546875 0.203125,-2.3125 V -3.625 C 2.234375,-3.84375 2.25,-4.046875 2.5,-4.078125 h 0.953125 c 0.25,0 0.34375,0.109375 0.34375,0.359375 v 3.03125 c 0,0.421875 -0.203125,0.453125 -0.78125,0.453125 v 0.21875 H 5.28125 v -0.21875 H 5.046875 C 4.765625,-0.234375 4.5,-0.265625 4.5,-0.671875 V -3.625 c 0,-0.421875 0.25,-0.453125 0.78125,-0.453125 v -0.21875 z m 0,0"
               id="id-17d9b0ac-9bf1-43a0-8ac8-e317c1432154" />
          </symbol>
          <symbol
             overflow="visible"
             id="id-677a96dd-36e8-4c09-86b7-61984b810ee1">
            <path
               style="stroke:none"
               d="m 0.265625,-4.296875 v 0.21875 h 0.21875 c 0.296875,0 0.546875,0.046875 0.546875,0.453125 v 2.953125 c 0,0.421875 -0.265625,0.4375 -0.765625,0.4375 v 0.21875 H 3.03125 c 0.703125,-0.03125 1.609375,-0.4375 1.609375,-1.234375 0,-0.75 -0.875,-1.21875 -1.578125,-1.21875 H 1.734375 v -1.1875 c 0,-0.34375 0.171875,-0.421875 0.78125,-0.421875 v -0.21875 z m 1.46875,2.03125 H 2.625 c 0.578125,0 1.1875,0.375 1.1875,1.015625 v 0.03125 c 0,0.46875 -0.453125,0.859375 -0.875,0.9375 -0.15625,0.015625 -0.3125,0.015625 -0.453125,0.015625 H 1.953125 C 1.75,-0.265625 1.734375,-0.46875 1.734375,-0.625 Z m 0,0"
               id="id-ecc2ba4f-11c8-4f85-860b-12563453ded1" />
          </symbol>
          <symbol
             overflow="visible"
             id="id-ac0cc126-38fa-40eb-87f3-8d278efb39e7">
            <path
               style="stroke:none"
               d="m 1.734375,-2.46875 v -1.1875 c 0,-0.34375 0.171875,-0.421875 0.78125,-0.421875 v -0.21875 h -2.25 v 0.21875 h 0.21875 c 0.296875,0 0.546875,0.046875 0.546875,0.453125 v 2.953125 c 0,0.421875 -0.265625,0.4375 -0.765625,0.4375 v 0.21875 h 2.25 v -0.21875 h -0.25 c -0.28125,0 -0.546875,-0.03125 -0.546875,-0.4375 0,-0.078125 0.015625,-0.15625 0.015625,-0.21875 v -1.375 h 1.03125 c 0,1.125 0.734375,2.359375 2.171875,2.359375 1.15625,0 2.25,-0.90625 2.25,-2.234375 0,-1.171875 -0.890625,-2.328125 -2.234375,-2.328125 -1.078125,0 -1.9375,0.875 -2.140625,1.90625 -0.015625,0.0625 -0.046875,0.09375 -0.125,0.09375 z m 1.875,0.578125 v -0.4375 C 3.609375,-3.09375 3.84375,-4.25 4.96875,-4.25 c 0.8125,0 1.265625,0.6875 1.359375,1.4375 0.015625,0.21875 0.015625,0.4375 0.015625,0.65625 0,0.640625 -0.0625,1.453125 -0.703125,1.8125 C 5.4375,-0.203125 5.21875,-0.15625 5,-0.15625 4.265625,-0.15625 3.765625,-0.71875 3.65625,-1.5 3.625,-1.625 3.625,-1.765625 3.609375,-1.890625 Z m 0,0"
               id="id-a7171823-1d82-42b7-a72b-89784db9bb1e" />
          </symbol>
          <symbol
             overflow="visible"
             id="id-540080ab-d6bc-4d80-b9e8-3fa9bf405d56">
            <path
               style="stroke:none"
               d="m 0.265625,-4.296875 v 0.21875 h 0.21875 c 0.296875,0 0.546875,0.046875 0.546875,0.453125 v 2.953125 c 0,0.421875 -0.265625,0.4375 -0.765625,0.4375 v 0.21875 H 7.75 v -0.21875 H 7.53125 c -0.296875,0 -0.546875,-0.03125 -0.546875,-0.453125 V -3.625 C 6.984375,-4.0625 7.25,-4.078125 7.75,-4.078125 v -0.21875 H 5.5 v 0.21875 h 0.234375 c 0.28125,0 0.546875,0.046875 0.546875,0.453125 v 3.015625 c 0,0.25 -0.078125,0.375 -0.34375,0.375 H 5.796875 c -0.328125,0 -0.6875,0.03125 -1.015625,0.03125 -0.21875,0 -0.421875,-0.0625 -0.421875,-0.390625 v -3.0625 c 0,-0.34375 0.203125,-0.421875 0.78125,-0.421875 v -0.21875 H 2.875 v 0.21875 h 0.234375 c 0.28125,0 0.546875,0.046875 0.546875,0.453125 v 3.015625 c 0,0.25 -0.0625,0.375 -0.34375,0.375 H 3.171875 c -0.328125,0 -0.671875,0.03125 -1.015625,0.03125 -0.21875,0 -0.421875,-0.0625 -0.421875,-0.390625 v -3.0625 c 0,-0.34375 0.203125,-0.421875 0.78125,-0.421875 v -0.21875 z m 0,0"
               id="id-d9d2b668-428a-4d9c-8fab-5ca27d3c9fdd" />
          </symbol>
          <symbol
             overflow="visible"
             id="id-1beddc16-1f08-43e0-a1f6-38c3174716c6">
            <path
               style="stroke:none"
               d="m 0.25,-4.296875 v 0.21875 h 0.234375 c 0.28125,0 0.546875,0.046875 0.546875,0.453125 v 2.953125 c 0,0.421875 -0.28125,0.4375 -0.78125,0.4375 v 0.21875 H 2.5 v -0.21875 H 2.328125 C 2.03125,-0.234375 1.71875,-0.265625 1.71875,-0.625 1.734375,-0.71875 1.828125,-0.78125 1.875,-0.859375 L 2.265625,-1.34375 C 2.78125,-1.96875 3.25,-2.65625 3.796875,-3.25 v 2.578125 c 0,0.34375 -0.140625,0.4375 -0.78125,0.4375 v 0.21875 H 5.28125 v -0.21875 H 5.046875 C 4.765625,-0.234375 4.5,-0.265625 4.5,-0.671875 V -3.625 c 0,-0.421875 0.25,-0.453125 0.78125,-0.453125 v -0.21875 H 3.015625 v 0.21875 h 0.1875 c 0.28125,0 0.59375,0.03125 0.59375,0.40625 -0.015625,0.078125 -0.09375,0.15625 -0.140625,0.21875 l -0.390625,0.5 c -0.53125,0.625 -1,1.296875 -1.546875,1.890625 v -2.578125 c 0,-0.34375 0.140625,-0.4375 0.78125,-0.4375 v -0.21875 z m 0,0"
               id="id-57c40561-18c0-487a-8da2-cb259d4bda41" />
          </symbol>
          <symbol
             overflow="visible"
             id="id-6f784660-05d6-4839-bb8b-e851b10e5042">
            <path
               style="stroke:none"
               d="m 0.25,-4.296875 v 0.21875 h 0.234375 c 0.28125,0 0.546875,0.046875 0.546875,0.453125 v 2.953125 c 0,0.421875 -0.28125,0.4375 -0.78125,0.4375 v 0.21875 H 2.5 v -0.21875 H 2.265625 c -0.296875,0 -0.546875,-0.03125 -0.546875,-0.4375 0,-0.078125 0,-0.15625 0,-0.21875 v -1.375 h 2.078125 v 1.375 c 0,0.0625 0.015625,0.140625 0.015625,0.21875 0,0.4375 -0.328125,0.4375 -0.796875,0.4375 v 0.21875 H 5.28125 v -0.21875 H 5.046875 C 4.765625,-0.234375 4.5,-0.265625 4.5,-0.671875 V -3.625 c 0,-0.421875 0.25,-0.453125 0.78125,-0.453125 v -0.21875 H 3.015625 v 0.21875 h 0.21875 c 0.28125,0 0.5625,0.046875 0.5625,0.421875 v 1.1875 H 1.71875 v -1.1875 c 0,-0.328125 0.125,-0.421875 0.78125,-0.421875 v -0.21875 z m 0,0"
               id="id-d2059b69-5841-4bba-9389-837d4589811e" />
          </symbol>
          <symbol
             overflow="visible"
             id="id-f745106c-b642-441e-a719-0bf41a559c72">
            <path
               style="stroke:none"
               d="m 0.109375,-2.4375 v 0.578125 h 2.65625 V -2.4375 Z m 0,0"
               id="id-513f234e-77bf-47fb-bb15-70bf55d97062" />
          </symbol>
          <symbol
             overflow="visible"
             id="id-9316da6c-28f1-452a-95ec-818ef3a1c081">
            <path
               style="stroke:none"
               d="M 1.328125,-3.296875 H 1.3125 C 1.3125,-4.1875 1.359375,-5.203125 2,-5.890625 2.28125,-6.1875 2.640625,-6.40625 3.078125,-6.40625 3.40625,-6.40625 3.734375,-6.265625 3.9375,-6 3.90625,-6.015625 3.875,-6.015625 3.84375,-6.015625 c -0.265625,0 -0.453125,0.203125 -0.453125,0.46875 0,0.25 0.203125,0.453125 0.453125,0.453125 0.265625,0 0.46875,-0.1875 0.46875,-0.515625 0,-0.734375 -0.6875,-1.046875 -1.28125,-1.046875 -1.671875,0 -2.609375,1.890625 -2.609375,3.390625 0,1.375 0.28125,3.46875 2.125,3.46875 1.21875,0 2.015625,-1.125 2.015625,-2.25 C 4.5625,-3.09375 3.84375,-4.25 2.65625,-4.25 2.078125,-4.25 1.5,-3.953125 1.328125,-3.296875 Z m 0,1.171875 v -0.09375 c 0,-0.6875 0.25,-1.8125 1.234375,-1.8125 1.09375,0 1.09375,1.3125 1.09375,1.921875 v 0.1875 c 0,0.671875 -0.0625,1.859375 -1.140625,1.859375 -0.859375,0 -1.125,-0.96875 -1.171875,-1.75 0,-0.09375 0,-0.21875 -0.015625,-0.3125 z m 0,0"
               id="id-746ddaa2-9d1c-4879-ae45-b188b51a4d73" />
          </symbol>
          <symbol
             overflow="visible"
             id="id-b7341e5c-b22e-4a78-a49d-f29c9ad0fa8e">
            <path
               style="stroke:none"
               d="M 0.890625,-5.328125 C 1.125,-5.828125 1.5,-6.34375 2.21875,-6.34375 c 0.9375,0 1.34375,0.859375 1.34375,1.640625 0,0.921875 -0.609375,1.671875 -1.1875,2.328125 -0.5625,0.671875 -1.171875,1.3125 -1.75,1.96875 C 0.53125,-0.3125 0.5,-0.265625 0.5,-0.125 v 0.109375 H 4.203125 L 4.46875,-1.75 H 4.234375 C 4.140625,-1.296875 4.203125,-0.796875 3.6875,-0.796875 H 3.296875 C 3,-0.78125 2.71875,-0.78125 2.421875,-0.78125 c -0.390625,0 -0.765625,0 -1.140625,0 l 0.6875,-0.671875 c 0.28125,-0.265625 0.546875,-0.53125 0.828125,-0.78125 0.734375,-0.65625 1.671875,-1.375 1.671875,-2.484375 0,-1.125 -0.953125,-1.9375 -2.078125,-1.9375 C 1.4375,-6.65625 0.5,-5.9375 0.5,-4.859375 c 0,0.25 0.09375,0.5625 0.515625,0.5625 0.296875,0 0.53125,-0.203125 0.53125,-0.515625 0,-0.265625 -0.203125,-0.515625 -0.515625,-0.515625 -0.046875,0 -0.09375,0 -0.140625,0 z m 0,0"
               id="id-cb9180f1-62d7-4df7-b012-28029002dd3e" />
          </symbol>
          <symbol
             overflow="visible"
             id="id-facaaca5-6597-4d65-97a4-ccfa1af366a5">
            <path
               style="stroke:none"
               d="m 3.234375,-2.421875 c -0.140625,0.046875 -0.28125,0.0625 -0.4375,0.0625 -0.46875,0 -0.75,-0.28125 -1.21875,-0.28125 -0.296875,0 -0.796875,0.109375 -0.796875,0.296875 0,0.03125 0.015625,0.0625 0.0625,0.078125 H 0.875 c 0.046875,0 0.125,-0.03125 0.171875,-0.046875 H 1.09375 c 0.4375,0 0.75,0.375 1.203125,0.375 0.328125,0 0.65625,-0.140625 0.953125,-0.28125 0,0.796875 -0.203125,1.703125 -1.078125,2.015625 C 2.0625,-0.171875 1.9375,-0.15625 1.828125,-0.15625 H 1.75 C 1.203125,-0.203125 0.78125,-0.515625 0.5625,-1.078125 0.53125,-1.15625 0.53125,-1.296875 0.40625,-1.296875 c -0.0625,0 -0.09375,0.015625 -0.109375,0.0625 v 0.03125 c 0,0.125 0.046875,0.25 0.109375,0.359375 0.265625,0.609375 0.859375,0.9375 1.515625,0.9375 1.1875,0 2.171875,-0.984375 2.171875,-2.25 0,-1.0625 -0.671875,-2.046875 -1.8125,-2.28125 -0.109375,-0.015625 -0.234375,-0.03125 -0.34375,-0.03125 -0.34375,0 -0.6875,0.09375 -0.96875,0.25 C 0.921875,-4.1875 0.875,-4.140625 0.8125,-4.140625 H 0.796875 c -0.09375,0 -0.28125,-0.265625 -0.421875,-0.265625 -0.078125,0 -0.09375,0.078125 -0.09375,0.15625 v 0.703125 c 0,0.03125 -0.015625,0.078125 -0.015625,0.125 0,0.109375 0.03125,0.1875 0.140625,0.1875 0.140625,0 0.1875,-0.28125 0.265625,-0.375 C 0.953125,-4 1.4375,-4.21875 1.90625,-4.21875 h 0.0625 c 0.90625,0.109375 1.265625,1.046875 1.265625,1.796875 z m 0,0"
               id="id-ead71b92-7555-49ae-b22c-32efe28f879f" />
          </symbol>
          <symbol
             overflow="visible"
             id="id-11f9b03d-b53b-456f-9133-da04353b4143">
            <path
               style="stroke:none"
               d="m 1.109375,-2.3125 h 2.875 c 0.109375,0 0.15625,-0.0625 0.15625,-0.1875 0,-1.046875 -0.640625,-1.96875 -1.765625,-1.96875 -1.21875,0 -2.09375,1.09375 -2.09375,2.28125 0,0.90625 0.5,1.734375 1.390625,2.125 0.21875,0.109375 0.484375,0.15625 0.734375,0.15625 H 2.4375 c 0.765625,0 1.40625,-0.421875 1.671875,-1.1875 C 4.125,-1.125 4.125,-1.171875 4.125,-1.203125 4.125,-1.265625 4.09375,-1.3125 4.015625,-1.3125 3.875,-1.3125 3.8125,-0.984375 3.75,-0.875 3.5,-0.4375 3.015625,-0.15625 2.5,-0.15625 c -0.359375,0 -0.6875,-0.203125 -0.953125,-0.46875 -0.40625,-0.46875 -0.4375,-1.109375 -0.4375,-1.6875 z M 1.125,-2.515625 C 1.125,-3.296875 1.53125,-4.25 2.359375,-4.25 H 2.40625 c 0.96875,0.09375 0.96875,1.125 1.0625,1.734375 z m 0,0"
               id="id-fdd8821c-0a7e-4f96-a315-b710c41de7b6" />
          </symbol>
          <symbol
             overflow="visible"
             id="id-6040a4db-a406-486d-a40c-31d40e01d1e7">
            <path
               style="stroke:none"
               d="m 0.25,-4.296875 v 0.21875 h 0.234375 c 0.28125,0 0.546875,0.046875 0.546875,0.453125 v 2.953125 c 0,0.421875 -0.28125,0.4375 -0.78125,0.4375 v 0.21875 h 2.4375 v -0.21875 H 2.390625 c -0.359375,0 -0.671875,-0.03125 -0.671875,-0.46875 V -3.71875 c 0,-0.203125 0.078125,-0.359375 0.3125,-0.359375 h 0.625 c 0.671875,0 1.203125,0.046875 1.265625,1.390625 h 0.25 L 4.0625,-4.296875 Z m 0,0"
               id="id-838a275a-5b54-413d-b46d-aeac71737617" />
          </symbol>
          <symbol
             overflow="visible"
             id="id-90d12b01-ec52-410d-9eb9-34e53e2e3a2b">
            <path
               style="stroke:none"
               d="m 1.109375,-3.796875 c 0.25,-0.3125 0.6875,-0.453125 1.0625,-0.453125 0.734375,0 1.0625,0.671875 1.0625,1.375 v 0.265625 c -1.140625,0 -2.828125,0.359375 -2.828125,1.65625 V -0.875 c 0.078125,0.78125 1.046875,0.96875 1.625,0.96875 0.5,0 1.15625,-0.328125 1.28125,-0.84375 0.0625,0.4375 0.34375,0.796875 0.78125,0.796875 0.40625,0 0.765625,-0.328125 0.828125,-0.78125 v -0.71875 h -0.25 v 0.5 c 0,0.28125 -0.0625,0.6875 -0.359375,0.6875 -0.328125,0 -0.375,-0.390625 -0.375,-0.65625 V -2.59375 c 0,-0.125 0.015625,-0.25 0.015625,-0.375 0,-0.96875 -0.90625,-1.5 -1.734375,-1.5 -0.640625,0 -1.515625,0.3125 -1.515625,1.109375 0,0.28125 0.203125,0.484375 0.46875,0.484375 0.28125,0 0.4375,-0.21875 0.4375,-0.46875 0,-0.28125 -0.21875,-0.453125 -0.5,-0.453125 z m 2.125,1.390625 v 1.015625 c 0,0.6875 -0.46875,1.234375 -1.125,1.265625 H 2.078125 C 1.609375,-0.125 1.1875,-0.484375 1.1875,-0.96875 V -1.015625 C 1.25,-2.03125 2.375,-2.375 3.234375,-2.40625 Z m 0,0"
               id="id-a8ce1736-ed3a-442c-8562-1d4c8c437ca0" />
          </symbol>
          <symbol
             overflow="visible"
             id="id-32be3268-5b75-4365-ad3b-1e11efaf6e10">
            <path
               style="stroke:none"
               d="M 0.359375,-4.296875 0.25,-2.6875 H 0.5 c 0.015625,-0.375 0.03125,-0.875 0.234375,-1.125 C 0.921875,-4.03125 1.25,-4.078125 1.53125,-4.078125 h 0.1875 c 0.234375,0 0.421875,0.015625 0.421875,0.375 v 2.96875 c 0,0.453125 -0.375,0.515625 -0.75,0.515625 -0.109375,0 -0.25,-0.015625 -0.359375,-0.015625 v 0.21875 h 2.890625 v -0.21875 c -0.125,0 -0.25,0.015625 -0.375,0.015625 -0.375,0 -0.71875,-0.0625 -0.71875,-0.515625 v -2.96875 c 0,-0.203125 0,-0.375 0.421875,-0.375 h 0.1875 c 0.625,0 0.984375,0.203125 1.03125,1.390625 h 0.25 L 4.609375,-4.296875 Z m 0,0"
               id="id-9fb2c7d3-20fd-4968-992d-ba766a8cf860" />
          </symbol>
          <symbol
             overflow="visible"
             id="id-8bd7f640-0656-4233-9b69-cdd1e519e2d9">
            <path
               style="stroke:none"
               d="m 0.265625,-4.296875 v 0.21875 h 0.21875 c 0.296875,0 0.546875,0.046875 0.546875,0.453125 v 2.953125 c 0,0.421875 -0.265625,0.4375 -0.765625,0.4375 v 0.21875 H 3.03125 c 0.703125,-0.03125 1.609375,-0.4375 1.609375,-1.234375 0,-0.75 -0.875,-1.21875 -1.578125,-1.21875 H 1.734375 v -1.1875 c 0,-0.34375 0.171875,-0.421875 0.78125,-0.421875 v -0.21875 z m 4.40625,0 v 0.21875 h 0.21875 c 0.296875,0 0.5625,0.046875 0.5625,0.453125 v 2.921875 c 0,0.40625 -0.203125,0.46875 -0.78125,0.46875 v 0.21875 h 2.25 v -0.21875 h -0.1875 c -0.3125,0 -0.578125,-0.03125 -0.578125,-0.453125 V -3.625 c 0,-0.390625 0.203125,-0.453125 0.765625,-0.453125 v -0.21875 z m -2.9375,2.03125 H 2.625 c 0.578125,0 1.1875,0.375 1.1875,1.015625 v 0.03125 c 0,0.46875 -0.453125,0.859375 -0.875,0.9375 -0.15625,0.015625 -0.3125,0.015625 -0.453125,0.015625 H 1.953125 C 1.75,-0.265625 1.734375,-0.46875 1.734375,-0.625 Z m 0,0"
               id="id-c83816a4-c95a-455d-8799-f9b6de1f46f0" />
          </symbol>
          <symbol
             overflow="visible"
             id="id-25767aca-09ba-4ce7-b69c-a666247537e1">
            <path
               style="stroke:none"
               d="m 0.25,-4.296875 v 0.21875 h 0.234375 c 0.28125,0 0.546875,0.046875 0.546875,0.453125 v 2.953125 c 0,0.421875 -0.28125,0.4375 -0.78125,0.4375 v 0.21875 H 2.5 v -0.21875 H 2.328125 C 2.03125,-0.234375 1.71875,-0.265625 1.71875,-0.625 1.734375,-0.71875 1.828125,-0.78125 1.875,-0.859375 L 2.265625,-1.34375 C 2.78125,-1.96875 3.25,-2.65625 3.796875,-3.25 v 2.578125 c 0,0.34375 -0.140625,0.4375 -0.78125,0.4375 v 0.21875 H 5.28125 v -0.21875 H 5.046875 C 4.765625,-0.234375 4.5,-0.265625 4.5,-0.671875 V -3.625 c 0,-0.421875 0.25,-0.453125 0.78125,-0.453125 v -0.21875 H 3.015625 v 0.21875 h 0.1875 c 0.28125,0 0.59375,0.03125 0.59375,0.40625 -0.015625,0.078125 -0.09375,0.15625 -0.140625,0.21875 l -0.390625,0.5 c -0.53125,0.625 -1,1.296875 -1.546875,1.890625 v -2.578125 c 0,-0.34375 0.140625,-0.4375 0.78125,-0.4375 v -0.21875 z m 3.328125,-0.84375 -0.296875,0.0625 -0.71875,0.03125 -0.625,-0.09375 C 2.140625,-5.25 2.265625,-5.375 2.296875,-5.59375 c 0,-0.3125 -0.234375,-0.53125 -0.5,-0.53125 -0.296875,0 -0.5,0.25 -0.5,0.515625 0,0.71875 1,0.875 1.5,0.875 0.578125,0 1.390625,-0.203125 1.4375,-0.84375 V -5.625 c 0,-0.28125 -0.25,-0.5 -0.5,-0.5 -0.3125,0 -0.5,0.25 -0.5,0.5 0,0.234375 0.140625,0.40625 0.34375,0.484375 z m 0,0"
               id="id-41cd8893-122f-46f4-a1a3-a7a1239c2042" />
          </symbol>
          <symbol
             overflow="visible"
             id="id-0b40ecae-f7c4-4e7f-80a0-ba2b6c3f72ba">
            <path
               style="stroke:none"
               d="m 3.578125,-3.859375 c -0.265625,0.015625 -0.46875,0.1875 -0.46875,0.453125 0,0.28125 0.1875,0.46875 0.453125,0.46875 0.3125,0 0.46875,-0.21875 0.46875,-0.5 V -3.5 C 3.921875,-4.234375 3.078125,-4.46875 2.5,-4.46875 c -1.21875,0 -2.171875,1.0625 -2.171875,2.3125 0,1.125 0.875,2.25 2.171875,2.25 0.65625,0 1.296875,-0.359375 1.5625,-1.046875 0.03125,-0.0625 0.078125,-0.15625 0.078125,-0.21875 0,-0.078125 -0.046875,-0.125 -0.125,-0.125 -0.140625,0 -0.234375,0.375 -0.3125,0.515625 -0.234375,0.375 -0.640625,0.625 -1.09375,0.625 -1.0625,0 -1.390625,-1.0625 -1.4375,-1.84375 v -0.125 c 0,-0.796875 0.1875,-1.984375 1.28125,-2.09375 H 2.53125 c 0.375,0 0.765625,0.109375 1.046875,0.359375 z m 0,0"
               id="id-03dac297-de95-4679-a439-f33b134bf988" />
          </symbol>
          <symbol
             overflow="visible"
             id="id-a9149887-7d48-4fbf-8367-72e8e01f417f">
            <path
               style="stroke:none"
               d="m 0.296875,-4.296875 v 0.21875 h 0.21875 c 0.296875,0 0.5625,0.046875 0.5625,0.421875 v 2.625 c 0,0.625 -0.34375,0.796875 -0.78125,0.796875 v 0.21875 h 1.84375 v -0.21875 C 1.734375,-0.234375 1.359375,-0.375 1.359375,-1 v -2.953125 c 0.03125,0.125 0.109375,0.25 0.171875,0.390625 0.453125,1.125 0.90625,2.25 1.421875,3.359375 0.03125,0.078125 0.078125,0.1875 0.171875,0.1875 H 3.140625 C 3.25,-0.03125 3.296875,-0.15625 3.328125,-0.25 L 3.625,-0.96875 C 4,-1.859375 4.375,-2.75 4.765625,-3.640625 4.828125,-3.78125 4.890625,-3.921875 4.9375,-4.0625 v 3.421875 c 0,0.40625 -0.328125,0.40625 -0.703125,0.40625 h -0.0625 v 0.21875 H 6.34375 v -0.21875 H 6.109375 c -0.28125,0 -0.546875,-0.03125 -0.546875,-0.4375 V -3.625 c 0,-0.421875 0.265625,-0.453125 0.78125,-0.453125 v -0.21875 H 5.046875 c -0.21875,0 -0.265625,0.125 -0.328125,0.296875 -0.09375,0.234375 -0.1875,0.453125 -0.28125,0.6875 l -0.75,1.75 C 3.5625,-1.28125 3.484375,-1 3.34375,-0.75 2.90625,-1.828125 2.40625,-2.90625 1.96875,-4 1.890625,-4.140625 1.890625,-4.296875 1.640625,-4.296875 Z m 0,0"
               id="id-8309a95d-cee4-424f-a385-110ed962edb8" />
          </symbol>
          <symbol
             overflow="visible"
             id="id-90f1a298-95f4-42fc-a05d-dc84b270f7eb">
            <path
               style="stroke:none"
               d="m 2.34375,-4.46875 c -1.25,0.125 -2.0625,1.1875 -2.0625,2.34375 0,1.125 0.890625,2.21875 2.21875,2.21875 1.1875,0 2.1875,-0.96875 2.1875,-2.234375 0,-1.171875 -0.890625,-2.328125 -2.21875,-2.328125 -0.03125,0 -0.09375,0 -0.125,0 z m -1.234375,2.578125 v -0.4375 c 0,-0.765625 0.25,-1.921875 1.375,-1.921875 0.8125,0 1.265625,0.6875 1.359375,1.4375 0.015625,0.21875 0.015625,0.4375 0.015625,0.65625 0,0.640625 -0.078125,1.453125 -0.703125,1.8125 C 2.953125,-0.203125 2.734375,-0.15625 2.5,-0.15625 1.78125,-0.15625 1.265625,-0.71875 1.15625,-1.5 1.140625,-1.625 1.140625,-1.765625 1.109375,-1.890625 Z m 0,0"
               id="id-d7a057fe-3d0d-43d6-93d6-a59dae0e9118" />
          </symbol>
          <symbol
             overflow="visible"
             id="id-490b9e90-68bf-4d69-b1c9-c35c63774ace">
            <path
               style="stroke:none"
               d="m 1.3125,-7.140625 c -0.3125,0 -0.453125,0.296875 -0.453125,0.5625 0,0.140625 0.03125,0.296875 0.03125,0.4375 0.078125,1.03125 0.203125,2.0625 0.28125,3.09375 0.015625,0.3125 0.046875,0.609375 0.078125,0.90625 0,0.109375 -0.015625,0.25 0.109375,0.265625 h 0.0625 c 0.125,-0.015625 0.09375,-0.203125 0.109375,-0.296875 C 1.6875,-3.5625 1.765625,-4.953125 1.890625,-6.34375 1.90625,-6.4375 1.90625,-6.53125 1.90625,-6.625 c 0,-0.3125 -0.234375,-0.515625 -0.515625,-0.515625 -0.03125,0 -0.0625,0 -0.078125,0 z m 0,6.078125 c -0.25,0.03125 -0.453125,0.25 -0.453125,0.53125 0,0.28125 0.25,0.515625 0.53125,0.515625 0.265625,0 0.515625,-0.21875 0.515625,-0.515625 0,-0.296875 -0.234375,-0.53125 -0.515625,-0.53125 -0.03125,0 -0.0625,0 -0.078125,0 z m 0,0"
               id="id-5e10f245-3a41-4fe5-8837-d4011f9bb282" />
          </symbol>
        </g>
      </defs>
      <g
         id="id-c2f5c84c-93f4-4ced-ba81-0e3b74d11090"
         transform="translate(-149.04, -127.624)">
        <g
           style="fill:#000000;fill-opacity:1"
           id="id-e87b5925-d535-4162-8d59-e1d4e1b41325">
          <g
             transform="translate(148.712, 134.765)"
             id="g8928">
            <path
               style="stroke:none"
               d="m 0.328125,-6.8125 v 0.296875 c 0.125,0 0.265625,0 0.375,0 0.359375,0 0.65625,0.046875 0.65625,0.4375 V -0.75 c 0,0.375 -0.328125,0.4375 -0.671875,0.4375 -0.125,0 -0.25,0 -0.359375,0 v 0.296875 h 2.9375 V -0.3125 h -0.3125 C 2.640625,-0.3125 2.3125,-0.34375 2.25,-0.578125 V -0.625 c 0,-0.109375 0.125,-0.234375 0.1875,-0.328125 C 3.3125,-2.359375 4.234375,-3.78125 5.15625,-5.15625 5.28125,-5.328125 5.390625,-5.5 5.5,-5.671875 v 4.9375 c 0,0.375 -0.34375,0.421875 -0.671875,0.421875 -0.125,0 -0.25,0 -0.359375,0 v 0.296875 H 7.421875 V -0.3125 c -0.125,0 -0.25,0 -0.375,0 -0.34375,0 -0.65625,-0.046875 -0.65625,-0.4375 v -5.328125 c 0,-0.375 0.3125,-0.4375 0.65625,-0.4375 0.125,0 0.265625,0 0.375,0 V -6.8125 H 4.46875 v 0.296875 h 0.328125 c 0.3125,0 0.640625,0.03125 0.703125,0.265625 v 0.046875 C 5.5,-6.09375 5.375,-5.96875 5.3125,-5.875 4.421875,-4.46875 3.515625,-3.046875 2.578125,-1.671875 2.46875,-1.5 2.359375,-1.328125 2.25,-1.15625 v -4.9375 c 0,-0.375 0.328125,-0.421875 0.671875,-0.421875 0.125,0 0.234375,0 0.34375,0 V -6.8125 Z m 0,0"
               id="id-b0513fdd-b2fb-4fab-a9e7-8fcbe4245fb2" />
          </g>
          <g
             transform="translate(156.459, 134.765)"
             id="g8931">
            <path
               style="stroke:none"
               d="m 1.171875,-4.296875 v 0.21875 h 0.21875 c 0.3125,0 0.59375,0.046875 0.59375,0.453125 0,0.75 -0.03125,1.578125 -0.1875,2.3125 -0.09375,0.484375 -0.21875,1.21875 -0.8125,1.21875 -0.15625,0 -0.265625,-0.0625 -0.390625,-0.140625 0.25,-0.03125 0.4375,-0.171875 0.4375,-0.421875 0,-0.234375 -0.1875,-0.421875 -0.4375,-0.421875 -0.234375,0 -0.40625,0.171875 -0.40625,0.453125 0,0.453125 0.359375,0.78125 0.796875,0.78125 0.6875,0 0.921875,-0.71875 1.046875,-1.265625 0.15625,-0.75 0.203125,-1.546875 0.203125,-2.3125 V -3.625 C 2.234375,-3.84375 2.25,-4.046875 2.5,-4.078125 h 0.953125 c 0.25,0 0.34375,0.109375 0.34375,0.359375 v 3.03125 c 0,0.421875 -0.203125,0.453125 -0.78125,0.453125 v 0.21875 H 5.28125 v -0.21875 H 5.046875 C 4.765625,-0.234375 4.5,-0.265625 4.5,-0.671875 V -3.625 c 0,-0.421875 0.25,-0.453125 0.78125,-0.453125 v -0.21875 z m 0,0"
               id="id-f9341f19-2fa0-4923-a0aa-23526f913f1a" />
          </g>
          <g
             transform="translate(161.992, 134.765)"
             id="g8934">
            <path
               style="stroke:none"
               d="m 0.265625,-4.296875 v 0.21875 h 0.21875 c 0.296875,0 0.546875,0.046875 0.546875,0.453125 v 2.953125 c 0,0.421875 -0.265625,0.4375 -0.765625,0.4375 v 0.21875 H 3.03125 c 0.703125,-0.03125 1.609375,-0.4375 1.609375,-1.234375 0,-0.75 -0.875,-1.21875 -1.578125,-1.21875 H 1.734375 v -1.1875 c 0,-0.34375 0.171875,-0.421875 0.78125,-0.421875 v -0.21875 z m 1.46875,2.03125 H 2.625 c 0.578125,0 1.1875,0.375 1.1875,1.015625 v 0.03125 c 0,0.46875 -0.453125,0.859375 -0.875,0.9375 -0.15625,0.015625 -0.3125,0.015625 -0.453125,0.015625 H 1.953125 C 1.75,-0.265625 1.734375,-0.46875 1.734375,-0.625 Z m 0,0"
               id="id-77cc3c05-b2d3-4584-b554-d23c7acb136a" />
          </g>
          <g
             transform="translate(166.972, 134.765)"
             id="g8937">
            <path
               style="stroke:none"
               d="m 1.734375,-2.46875 v -1.1875 c 0,-0.34375 0.171875,-0.421875 0.78125,-0.421875 v -0.21875 h -2.25 v 0.21875 h 0.21875 c 0.296875,0 0.546875,0.046875 0.546875,0.453125 v 2.953125 c 0,0.421875 -0.265625,0.4375 -0.765625,0.4375 v 0.21875 h 2.25 v -0.21875 h -0.25 c -0.28125,0 -0.546875,-0.03125 -0.546875,-0.4375 0,-0.078125 0.015625,-0.15625 0.015625,-0.21875 v -1.375 h 1.03125 c 0,1.125 0.734375,2.359375 2.171875,2.359375 1.15625,0 2.25,-0.90625 2.25,-2.234375 0,-1.171875 -0.890625,-2.328125 -2.234375,-2.328125 -1.078125,0 -1.9375,0.875 -2.140625,1.90625 -0.015625,0.0625 -0.046875,0.09375 -0.125,0.09375 z m 1.875,0.578125 v -0.4375 C 3.609375,-3.09375 3.84375,-4.25 4.96875,-4.25 c 0.8125,0 1.265625,0.6875 1.359375,1.4375 0.015625,0.21875 0.015625,0.4375 0.015625,0.65625 0,0.640625 -0.0625,1.453125 -0.703125,1.8125 C 5.4375,-0.203125 5.21875,-0.15625 5,-0.15625 4.265625,-0.15625 3.765625,-0.71875 3.65625,-1.5 3.625,-1.625 3.625,-1.765625 3.609375,-1.890625 Z m 0,0"
               id="id-9c9bb5cf-0947-4cfd-b709-f7f30f93005b" />
          </g>
          <g
             transform="translate(174.442, 134.765)"
             id="g8940">
            <path
               style="stroke:none"
               d="m 0.265625,-4.296875 v 0.21875 h 0.21875 c 0.296875,0 0.546875,0.046875 0.546875,0.453125 v 2.953125 c 0,0.421875 -0.265625,0.4375 -0.765625,0.4375 v 0.21875 H 7.75 v -0.21875 H 7.53125 c -0.296875,0 -0.546875,-0.03125 -0.546875,-0.453125 V -3.625 C 6.984375,-4.0625 7.25,-4.078125 7.75,-4.078125 v -0.21875 H 5.5 v 0.21875 h 0.234375 c 0.28125,0 0.546875,0.046875 0.546875,0.453125 v 3.015625 c 0,0.25 -0.078125,0.375 -0.34375,0.375 H 5.796875 c -0.328125,0 -0.6875,0.03125 -1.015625,0.03125 -0.21875,0 -0.421875,-0.0625 -0.421875,-0.390625 v -3.0625 c 0,-0.34375 0.203125,-0.421875 0.78125,-0.421875 v -0.21875 H 2.875 v 0.21875 h 0.234375 c 0.28125,0 0.546875,0.046875 0.546875,0.453125 v 3.015625 c 0,0.25 -0.0625,0.375 -0.34375,0.375 H 3.171875 c -0.328125,0 -0.671875,0.03125 -1.015625,0.03125 -0.21875,0 -0.421875,-0.0625 -0.421875,-0.390625 v -3.0625 c 0,-0.34375 0.203125,-0.421875 0.78125,-0.421875 v -0.21875 z m 0,0"
               id="id-9e8ce965-1973-4482-9cd7-a9cc5388af63" />
          </g>
          <g
             transform="translate(182.466, 134.765)"
             id="g8943">
            <path
               style="stroke:none"
               d="m 0.25,-4.296875 v 0.21875 h 0.234375 c 0.28125,0 0.546875,0.046875 0.546875,0.453125 v 2.953125 c 0,0.421875 -0.28125,0.4375 -0.78125,0.4375 v 0.21875 H 2.5 v -0.21875 H 2.328125 C 2.03125,-0.234375 1.71875,-0.265625 1.71875,-0.625 1.734375,-0.71875 1.828125,-0.78125 1.875,-0.859375 L 2.265625,-1.34375 C 2.78125,-1.96875 3.25,-2.65625 3.796875,-3.25 v 2.578125 c 0,0.34375 -0.140625,0.4375 -0.78125,0.4375 v 0.21875 H 5.28125 v -0.21875 H 5.046875 C 4.765625,-0.234375 4.5,-0.265625 4.5,-0.671875 V -3.625 c 0,-0.421875 0.25,-0.453125 0.78125,-0.453125 v -0.21875 H 3.015625 v 0.21875 h 0.1875 c 0.28125,0 0.59375,0.03125 0.59375,0.40625 -0.015625,0.078125 -0.09375,0.15625 -0.140625,0.21875 l -0.390625,0.5 c -0.53125,0.625 -1,1.296875 -1.546875,1.890625 v -2.578125 c 0,-0.34375 0.140625,-0.4375 0.78125,-0.4375 v -0.21875 z m 0,0"
               id="id-9d4d395c-9dbe-4356-9a0b-5c9622b904f7" />
          </g>
          <g
             transform="translate(188, 134.765)"
             id="g8946">
            <path
               style="stroke:none"
               d="m 0.25,-4.296875 v 0.21875 h 0.234375 c 0.28125,0 0.546875,0.046875 0.546875,0.453125 v 2.953125 c 0,0.421875 -0.28125,0.4375 -0.78125,0.4375 v 0.21875 H 2.5 v -0.21875 H 2.265625 c -0.296875,0 -0.546875,-0.03125 -0.546875,-0.4375 0,-0.078125 0,-0.15625 0,-0.21875 v -1.375 h 2.078125 v 1.375 c 0,0.0625 0.015625,0.140625 0.015625,0.21875 0,0.4375 -0.328125,0.4375 -0.796875,0.4375 v 0.21875 H 5.28125 v -0.21875 H 5.046875 C 4.765625,-0.234375 4.5,-0.265625 4.5,-0.671875 V -3.625 c 0,-0.421875 0.25,-0.453125 0.78125,-0.453125 v -0.21875 H 3.015625 v 0.21875 h 0.21875 c 0.28125,0 0.5625,0.046875 0.5625,0.421875 v 1.1875 H 1.71875 v -1.1875 c 0,-0.328125 0.125,-0.421875 0.78125,-0.421875 v -0.21875 z m 0,0"
               id="id-7dbe276b-a5a9-4461-83dd-88c5e28820d5" />
          </g>
        </g>
        <g
           style="fill:#000000;fill-opacity:1"
           id="id-157326e1-ca3e-46f6-93e0-f1c769bf622d">
          <g
             transform="translate(196.85, 134.765)"
             id="g8950">
            <path
               style="stroke:none"
               d="m 0.328125,-6.8125 v 0.296875 c 0.125,0 0.265625,0 0.375,0 0.359375,0 0.65625,0.046875 0.65625,0.4375 V -0.75 c 0,0.375 -0.328125,0.4375 -0.671875,0.4375 -0.125,0 -0.25,0 -0.359375,0 v 0.296875 h 2.9375 V -0.3125 h -0.3125 C 2.640625,-0.3125 2.3125,-0.34375 2.25,-0.578125 V -0.625 c 0,-0.109375 0.125,-0.234375 0.1875,-0.328125 C 3.3125,-2.359375 4.234375,-3.78125 5.15625,-5.15625 5.28125,-5.328125 5.390625,-5.5 5.5,-5.671875 v 4.9375 c 0,0.375 -0.34375,0.421875 -0.671875,0.421875 -0.125,0 -0.25,0 -0.359375,0 v 0.296875 H 7.421875 V -0.3125 c -0.125,0 -0.25,0 -0.375,0 -0.34375,0 -0.65625,-0.046875 -0.65625,-0.4375 v -5.328125 c 0,-0.375 0.3125,-0.4375 0.65625,-0.4375 0.125,0 0.265625,0 0.375,0 V -6.8125 H 4.46875 v 0.296875 h 0.328125 c 0.3125,0 0.640625,0.03125 0.703125,0.265625 v 0.046875 C 5.5,-6.09375 5.375,-5.96875 5.3125,-5.875 4.421875,-4.46875 3.515625,-3.046875 2.578125,-1.671875 2.46875,-1.5 2.359375,-1.328125 2.25,-1.15625 v -4.9375 c 0,-0.375 0.328125,-0.421875 0.671875,-0.421875 0.125,0 0.234375,0 0.34375,0 V -6.8125 Z m 0,0"
               id="id-a91c6978-87af-4cbf-b0aa-81cc58b5492f" />
          </g>
          <g
             transform="translate(204.597, 134.765)"
             id="g8953">
            <path
               style="stroke:none"
               d="m 1.171875,-4.296875 v 0.21875 h 0.21875 c 0.3125,0 0.59375,0.046875 0.59375,0.453125 0,0.75 -0.03125,1.578125 -0.1875,2.3125 -0.09375,0.484375 -0.21875,1.21875 -0.8125,1.21875 -0.15625,0 -0.265625,-0.0625 -0.390625,-0.140625 0.25,-0.03125 0.4375,-0.171875 0.4375,-0.421875 0,-0.234375 -0.1875,-0.421875 -0.4375,-0.421875 -0.234375,0 -0.40625,0.171875 -0.40625,0.453125 0,0.453125 0.359375,0.78125 0.796875,0.78125 0.6875,0 0.921875,-0.71875 1.046875,-1.265625 0.15625,-0.75 0.203125,-1.546875 0.203125,-2.3125 V -3.625 C 2.234375,-3.84375 2.25,-4.046875 2.5,-4.078125 h 0.953125 c 0.25,0 0.34375,0.109375 0.34375,0.359375 v 3.03125 c 0,0.421875 -0.203125,0.453125 -0.78125,0.453125 v 0.21875 H 5.28125 v -0.21875 H 5.046875 C 4.765625,-0.234375 4.5,-0.265625 4.5,-0.671875 V -3.625 c 0,-0.421875 0.25,-0.453125 0.78125,-0.453125 v -0.21875 z m 0,0"
               id="id-76e736aa-ff98-4e58-a6a0-9c8eb0a49e58" />
          </g>
          <g
             transform="translate(210.13, 134.765)"
             id="g8956">
            <path
               style="stroke:none"
               d="m 0.109375,-2.4375 v 0.578125 h 2.65625 V -2.4375 Z m 0,0"
               id="id-7e674b73-b678-47b2-99b3-d58837a60a0d" />
          </g>
          <g
             transform="translate(213.451, 134.765)"
             id="g8959">
            <path
               style="stroke:none"
               d="M 1.328125,-3.296875 H 1.3125 C 1.3125,-4.1875 1.359375,-5.203125 2,-5.890625 2.28125,-6.1875 2.640625,-6.40625 3.078125,-6.40625 3.40625,-6.40625 3.734375,-6.265625 3.9375,-6 3.90625,-6.015625 3.875,-6.015625 3.84375,-6.015625 c -0.265625,0 -0.453125,0.203125 -0.453125,0.46875 0,0.25 0.203125,0.453125 0.453125,0.453125 0.265625,0 0.46875,-0.1875 0.46875,-0.515625 0,-0.734375 -0.6875,-1.046875 -1.28125,-1.046875 -1.671875,0 -2.609375,1.890625 -2.609375,3.390625 0,1.375 0.28125,3.46875 2.125,3.46875 1.21875,0 2.015625,-1.125 2.015625,-2.25 C 4.5625,-3.09375 3.84375,-4.25 2.65625,-4.25 2.078125,-4.25 1.5,-3.953125 1.328125,-3.296875 Z m 0,1.171875 v -0.09375 c 0,-0.6875 0.25,-1.8125 1.234375,-1.8125 1.09375,0 1.09375,1.3125 1.09375,1.921875 v 0.1875 c 0,0.671875 -0.0625,1.859375 -1.140625,1.859375 -0.859375,0 -1.125,-0.96875 -1.171875,-1.75 0,-0.09375 0,-0.21875 -0.015625,-0.3125 z m 0,0"
               id="id-a9fc3278-ea23-4b4c-bc5e-62af344bc8f7" />
          </g>
          <g
             transform="translate(218.431, 134.765)"
             id="g8962">
            <path
               style="stroke:none"
               d="M 0.890625,-5.328125 C 1.125,-5.828125 1.5,-6.34375 2.21875,-6.34375 c 0.9375,0 1.34375,0.859375 1.34375,1.640625 0,0.921875 -0.609375,1.671875 -1.1875,2.328125 -0.5625,0.671875 -1.171875,1.3125 -1.75,1.96875 C 0.53125,-0.3125 0.5,-0.265625 0.5,-0.125 v 0.109375 H 4.203125 L 4.46875,-1.75 H 4.234375 C 4.140625,-1.296875 4.203125,-0.796875 3.6875,-0.796875 H 3.296875 C 3,-0.78125 2.71875,-0.78125 2.421875,-0.78125 c -0.390625,0 -0.765625,0 -1.140625,0 l 0.6875,-0.671875 c 0.28125,-0.265625 0.546875,-0.53125 0.828125,-0.78125 0.734375,-0.65625 1.671875,-1.375 1.671875,-2.484375 0,-1.125 -0.953125,-1.9375 -2.078125,-1.9375 C 1.4375,-6.65625 0.5,-5.9375 0.5,-4.859375 c 0,0.25 0.09375,0.5625 0.515625,0.5625 0.296875,0 0.53125,-0.203125 0.53125,-0.515625 0,-0.265625 -0.203125,-0.515625 -0.515625,-0.515625 -0.046875,0 -0.09375,0 -0.140625,0 z m 0,0"
               id="id-e8aa78e9-d461-4ec6-9f0d-382275e2cf98" />
          </g>
        </g>
        <g
           style="fill:#000000;fill-opacity:1"
           id="id-be839706-905e-44b8-8911-645c6fc5a0bf">
          <g
             transform="translate(226.729, 134.765)"
             id="g8966">
            <path
               style="stroke:none"
               d="m 0.109375,-2.4375 v 0.578125 h 2.65625 V -2.4375 Z m 0,0"
               id="id-adc84e93-403b-4fef-8a98-158f193cd8c5" />
          </g>
        </g>
        <g
           style="fill:#000000;fill-opacity:1"
           id="id-50cb0d16-25b5-497b-b910-3eb344bd3e7d">
          <g
             transform="translate(233.377, 134.765)"
             id="g8970">
            <path
               style="stroke:none"
               d="m 3.234375,-2.421875 c -0.140625,0.046875 -0.28125,0.0625 -0.4375,0.0625 -0.46875,0 -0.75,-0.28125 -1.21875,-0.28125 -0.296875,0 -0.796875,0.109375 -0.796875,0.296875 0,0.03125 0.015625,0.0625 0.0625,0.078125 H 0.875 c 0.046875,0 0.125,-0.03125 0.171875,-0.046875 H 1.09375 c 0.4375,0 0.75,0.375 1.203125,0.375 0.328125,0 0.65625,-0.140625 0.953125,-0.28125 0,0.796875 -0.203125,1.703125 -1.078125,2.015625 C 2.0625,-0.171875 1.9375,-0.15625 1.828125,-0.15625 H 1.75 C 1.203125,-0.203125 0.78125,-0.515625 0.5625,-1.078125 0.53125,-1.15625 0.53125,-1.296875 0.40625,-1.296875 c -0.0625,0 -0.09375,0.015625 -0.109375,0.0625 v 0.03125 c 0,0.125 0.046875,0.25 0.109375,0.359375 0.265625,0.609375 0.859375,0.9375 1.515625,0.9375 1.1875,0 2.171875,-0.984375 2.171875,-2.25 0,-1.0625 -0.671875,-2.046875 -1.8125,-2.28125 -0.109375,-0.015625 -0.234375,-0.03125 -0.34375,-0.03125 -0.34375,0 -0.6875,0.09375 -0.96875,0.25 C 0.921875,-4.1875 0.875,-4.140625 0.8125,-4.140625 H 0.796875 c -0.09375,0 -0.28125,-0.265625 -0.421875,-0.265625 -0.078125,0 -0.09375,0.078125 -0.09375,0.15625 v 0.703125 c 0,0.03125 -0.015625,0.078125 -0.015625,0.125 0,0.109375 0.03125,0.1875 0.140625,0.1875 0.140625,0 0.1875,-0.28125 0.265625,-0.375 C 0.953125,-4 1.4375,-4.21875 1.90625,-4.21875 h 0.0625 c 0.90625,0.109375 1.265625,1.046875 1.265625,1.796875 z m 0,0"
               id="id-432f9efe-96fc-49dc-afb6-20f20135ae28" />
          </g>
          <g
             transform="translate(237.804, 134.765)"
             id="g8973">
            <path
               style="stroke:none"
               d="m 1.171875,-4.296875 v 0.21875 h 0.21875 c 0.3125,0 0.59375,0.046875 0.59375,0.453125 0,0.75 -0.03125,1.578125 -0.1875,2.3125 -0.09375,0.484375 -0.21875,1.21875 -0.8125,1.21875 -0.15625,0 -0.265625,-0.0625 -0.390625,-0.140625 0.25,-0.03125 0.4375,-0.171875 0.4375,-0.421875 0,-0.234375 -0.1875,-0.421875 -0.4375,-0.421875 -0.234375,0 -0.40625,0.171875 -0.40625,0.453125 0,0.453125 0.359375,0.78125 0.796875,0.78125 0.6875,0 0.921875,-0.71875 1.046875,-1.265625 0.15625,-0.75 0.203125,-1.546875 0.203125,-2.3125 V -3.625 C 2.234375,-3.84375 2.25,-4.046875 2.5,-4.078125 h 0.953125 c 0.25,0 0.34375,0.109375 0.34375,0.359375 v 3.03125 c 0,0.421875 -0.203125,0.453125 -0.78125,0.453125 v 0.21875 H 5.28125 v -0.21875 H 5.046875 C 4.765625,-0.234375 4.5,-0.265625 4.5,-0.671875 V -3.625 c 0,-0.421875 0.25,-0.453125 0.78125,-0.453125 v -0.21875 z m 0,0"
               id="id-35dd3926-871b-4fe3-9966-10fd6c5df0e8" />
          </g>
          <g
             transform="translate(243.337, 134.765)"
             id="g8976">
            <path
               style="stroke:none"
               d="m 1.109375,-2.3125 h 2.875 c 0.109375,0 0.15625,-0.0625 0.15625,-0.1875 0,-1.046875 -0.640625,-1.96875 -1.765625,-1.96875 -1.21875,0 -2.09375,1.09375 -2.09375,2.28125 0,0.90625 0.5,1.734375 1.390625,2.125 0.21875,0.109375 0.484375,0.15625 0.734375,0.15625 H 2.4375 c 0.765625,0 1.40625,-0.421875 1.671875,-1.1875 C 4.125,-1.125 4.125,-1.171875 4.125,-1.203125 4.125,-1.265625 4.09375,-1.3125 4.015625,-1.3125 3.875,-1.3125 3.8125,-0.984375 3.75,-0.875 3.5,-0.4375 3.015625,-0.15625 2.5,-0.15625 c -0.359375,0 -0.6875,-0.203125 -0.953125,-0.46875 -0.40625,-0.46875 -0.4375,-1.109375 -0.4375,-1.6875 z M 1.125,-2.515625 C 1.125,-3.296875 1.53125,-4.25 2.359375,-4.25 H 2.40625 c 0.96875,0.09375 0.96875,1.125 1.0625,1.734375 z m 0,0"
               id="id-9ad19232-5082-41dc-9dee-cc9eb0b42461" />
          </g>
          <g
             transform="translate(247.763, 134.765)"
             id="g8979">
            <path
               style="stroke:none"
               d="m 0.25,-4.296875 v 0.21875 h 0.234375 c 0.28125,0 0.546875,0.046875 0.546875,0.453125 v 2.953125 c 0,0.421875 -0.28125,0.4375 -0.78125,0.4375 v 0.21875 h 2.4375 v -0.21875 H 2.390625 c -0.359375,0 -0.671875,-0.03125 -0.671875,-0.46875 V -3.71875 c 0,-0.203125 0.078125,-0.359375 0.3125,-0.359375 h 0.625 c 0.671875,0 1.203125,0.046875 1.265625,1.390625 h 0.25 L 4.0625,-4.296875 Z m 0,0"
               id="id-297991b4-44b3-4fcc-a6e5-96ef0c4f5d8b" />
          </g>
        </g>
        <g
           style="fill:#000000;fill-opacity:1"
           id="id-b0131222-8b1e-4bdb-9b0c-dbb6970afcf6">
          <g
             transform="translate(251.911, 134.765)"
             id="g8983">
            <path
               style="stroke:none"
               d="m 1.109375,-3.796875 c 0.25,-0.3125 0.6875,-0.453125 1.0625,-0.453125 0.734375,0 1.0625,0.671875 1.0625,1.375 v 0.265625 c -1.140625,0 -2.828125,0.359375 -2.828125,1.65625 V -0.875 c 0.078125,0.78125 1.046875,0.96875 1.625,0.96875 0.5,0 1.15625,-0.328125 1.28125,-0.84375 0.0625,0.4375 0.34375,0.796875 0.78125,0.796875 0.40625,0 0.765625,-0.328125 0.828125,-0.78125 v -0.71875 h -0.25 v 0.5 c 0,0.28125 -0.0625,0.6875 -0.359375,0.6875 -0.328125,0 -0.375,-0.390625 -0.375,-0.65625 V -2.59375 c 0,-0.125 0.015625,-0.25 0.015625,-0.375 0,-0.96875 -0.90625,-1.5 -1.734375,-1.5 -0.640625,0 -1.515625,0.3125 -1.515625,1.109375 0,0.28125 0.203125,0.484375 0.46875,0.484375 0.28125,0 0.4375,-0.21875 0.4375,-0.46875 0,-0.28125 -0.21875,-0.453125 -0.5,-0.453125 z m 2.125,1.390625 v 1.015625 c 0,0.6875 -0.46875,1.234375 -1.125,1.265625 H 2.078125 C 1.609375,-0.125 1.1875,-0.484375 1.1875,-0.96875 V -1.015625 C 1.25,-2.03125 2.375,-2.375 3.234375,-2.40625 Z m 0,0"
               id="id-e60bd9a9-6490-44cf-8c9f-91334203b35a" />
          </g>
          <g
             transform="translate(256.891, 134.765)"
             id="g8986">
            <path
               style="stroke:none"
               d="m 0.25,-4.296875 v 0.21875 h 0.234375 c 0.28125,0 0.546875,0.046875 0.546875,0.453125 v 2.953125 c 0,0.421875 -0.28125,0.4375 -0.78125,0.4375 v 0.21875 H 2.5 v -0.21875 H 2.265625 c -0.296875,0 -0.546875,-0.03125 -0.546875,-0.4375 0,-0.078125 0,-0.15625 0,-0.21875 v -1.375 h 2.078125 v 1.375 c 0,0.0625 0.015625,0.140625 0.015625,0.21875 0,0.4375 -0.328125,0.4375 -0.796875,0.4375 v 0.21875 H 5.28125 v -0.21875 H 5.046875 C 4.765625,-0.234375 4.5,-0.265625 4.5,-0.671875 V -3.625 c 0,-0.421875 0.25,-0.453125 0.78125,-0.453125 v -0.21875 H 3.015625 v 0.21875 h 0.21875 c 0.28125,0 0.5625,0.046875 0.5625,0.421875 v 1.1875 H 1.71875 v -1.1875 c 0,-0.328125 0.125,-0.421875 0.78125,-0.421875 v -0.21875 z m 0,0"
               id="id-e1ff9fc9-76ab-45a3-a184-c149d046ef0f" />
          </g>
          <g
             transform="translate(262.424, 134.765)"
             id="g8989">
            <path
               style="stroke:none"
               d="M 0.359375,-4.296875 0.25,-2.6875 H 0.5 c 0.015625,-0.375 0.03125,-0.875 0.234375,-1.125 C 0.921875,-4.03125 1.25,-4.078125 1.53125,-4.078125 h 0.1875 c 0.234375,0 0.421875,0.015625 0.421875,0.375 v 2.96875 c 0,0.453125 -0.375,0.515625 -0.75,0.515625 -0.109375,0 -0.25,-0.015625 -0.359375,-0.015625 v 0.21875 h 2.890625 v -0.21875 c -0.125,0 -0.25,0.015625 -0.375,0.015625 -0.375,0 -0.71875,-0.0625 -0.71875,-0.515625 v -2.96875 c 0,-0.203125 0,-0.375 0.421875,-0.375 h 0.1875 c 0.625,0 0.984375,0.203125 1.03125,1.390625 h 0.25 L 4.609375,-4.296875 Z m 0,0"
               id="id-c85cc8a3-237a-4d5c-9c03-2dcff369fc1b" />
          </g>
          <g
             transform="translate(267.404, 134.765)"
             id="g8992">
            <path
               style="stroke:none"
               d="m 0.25,-4.296875 v 0.21875 h 0.234375 c 0.28125,0 0.546875,0.046875 0.546875,0.453125 v 2.953125 c 0,0.421875 -0.28125,0.4375 -0.78125,0.4375 v 0.21875 H 2.5 v -0.21875 H 2.265625 c -0.296875,0 -0.546875,-0.03125 -0.546875,-0.4375 0,-0.078125 0,-0.15625 0,-0.21875 v -1.375 h 2.078125 v 1.375 c 0,0.0625 0.015625,0.140625 0.015625,0.21875 0,0.4375 -0.328125,0.4375 -0.796875,0.4375 v 0.21875 H 5.28125 v -0.21875 H 5.046875 C 4.765625,-0.234375 4.5,-0.265625 4.5,-0.671875 V -3.625 c 0,-0.421875 0.25,-0.453125 0.78125,-0.453125 v -0.21875 H 3.015625 v 0.21875 h 0.21875 c 0.28125,0 0.5625,0.046875 0.5625,0.421875 v 1.1875 H 1.71875 v -1.1875 c 0,-0.328125 0.125,-0.421875 0.78125,-0.421875 v -0.21875 z m 0,0"
               id="id-1401a969-6e72-4f9b-b361-84c077da01db" />
          </g>
          <g
             transform="translate(272.938, 134.765)"
             id="g8995">
            <path
               style="stroke:none"
               d="m 0.265625,-4.296875 v 0.21875 h 0.21875 c 0.296875,0 0.546875,0.046875 0.546875,0.453125 v 2.953125 c 0,0.421875 -0.265625,0.4375 -0.765625,0.4375 v 0.21875 H 3.03125 c 0.703125,-0.03125 1.609375,-0.4375 1.609375,-1.234375 0,-0.75 -0.875,-1.21875 -1.578125,-1.21875 H 1.734375 v -1.1875 c 0,-0.34375 0.171875,-0.421875 0.78125,-0.421875 v -0.21875 z m 4.40625,0 v 0.21875 h 0.21875 c 0.296875,0 0.5625,0.046875 0.5625,0.453125 v 2.921875 c 0,0.40625 -0.203125,0.46875 -0.78125,0.46875 v 0.21875 h 2.25 v -0.21875 h -0.1875 c -0.3125,0 -0.578125,-0.03125 -0.578125,-0.453125 V -3.625 c 0,-0.390625 0.203125,-0.453125 0.765625,-0.453125 v -0.21875 z m -2.9375,2.03125 H 2.625 c 0.578125,0 1.1875,0.375 1.1875,1.015625 v 0.03125 c 0,0.46875 -0.453125,0.859375 -0.875,0.9375 -0.15625,0.015625 -0.3125,0.015625 -0.453125,0.015625 H 1.953125 C 1.75,-0.265625 1.734375,-0.46875 1.734375,-0.625 Z m 0,0"
               id="id-65fa5298-00dc-4e5f-af49-287e4f8b7fbb" />
          </g>
          <g
             transform="translate(280.131, 134.765)"
             id="g8998">
            <path
               style="stroke:none"
               d="m 0.25,-4.296875 v 0.21875 h 0.234375 c 0.28125,0 0.546875,0.046875 0.546875,0.453125 v 2.953125 c 0,0.421875 -0.28125,0.4375 -0.78125,0.4375 v 0.21875 H 2.5 v -0.21875 H 2.328125 C 2.03125,-0.234375 1.71875,-0.265625 1.71875,-0.625 1.734375,-0.71875 1.828125,-0.78125 1.875,-0.859375 L 2.265625,-1.34375 C 2.78125,-1.96875 3.25,-2.65625 3.796875,-3.25 v 2.578125 c 0,0.34375 -0.140625,0.4375 -0.78125,0.4375 v 0.21875 H 5.28125 v -0.21875 H 5.046875 C 4.765625,-0.234375 4.5,-0.265625 4.5,-0.671875 V -3.625 c 0,-0.421875 0.25,-0.453125 0.78125,-0.453125 v -0.21875 H 3.015625 v 0.21875 h 0.1875 c 0.28125,0 0.59375,0.03125 0.59375,0.40625 -0.015625,0.078125 -0.09375,0.15625 -0.140625,0.21875 l -0.390625,0.5 c -0.53125,0.625 -1,1.296875 -1.546875,1.890625 v -2.578125 c 0,-0.34375 0.140625,-0.4375 0.78125,-0.4375 v -0.21875 z m 3.328125,-0.84375 -0.296875,0.0625 -0.71875,0.03125 -0.625,-0.09375 C 2.140625,-5.25 2.265625,-5.375 2.296875,-5.59375 c 0,-0.3125 -0.234375,-0.53125 -0.5,-0.53125 -0.296875,0 -0.5,0.25 -0.5,0.515625 0,0.71875 1,0.875 1.5,0.875 0.578125,0 1.390625,-0.203125 1.4375,-0.84375 V -5.625 c 0,-0.28125 -0.25,-0.5 -0.5,-0.5 -0.3125,0 -0.5,0.25 -0.5,0.5 0,0.234375 0.140625,0.40625 0.34375,0.484375 z m 0,0"
               id="id-1eed57df-1da6-4404-8594-73f9079e36b6" />
          </g>
        </g>
        <g
           style="fill:#000000;fill-opacity:1"
           id="id-a3d7e301-6ac1-4221-b57e-02b22a61c118">
          <g
             transform="translate(288.981, 134.765)"
             id="g9002">
            <path
               style="stroke:none"
               d="m 3.578125,-3.859375 c -0.265625,0.015625 -0.46875,0.1875 -0.46875,0.453125 0,0.28125 0.1875,0.46875 0.453125,0.46875 0.3125,0 0.46875,-0.21875 0.46875,-0.5 V -3.5 C 3.921875,-4.234375 3.078125,-4.46875 2.5,-4.46875 c -1.21875,0 -2.171875,1.0625 -2.171875,2.3125 0,1.125 0.875,2.25 2.171875,2.25 0.65625,0 1.296875,-0.359375 1.5625,-1.046875 0.03125,-0.0625 0.078125,-0.15625 0.078125,-0.21875 0,-0.078125 -0.046875,-0.125 -0.125,-0.125 -0.140625,0 -0.234375,0.375 -0.3125,0.515625 -0.234375,0.375 -0.640625,0.625 -1.09375,0.625 -1.0625,0 -1.390625,-1.0625 -1.4375,-1.84375 v -0.125 c 0,-0.796875 0.1875,-1.984375 1.28125,-2.09375 H 2.53125 c 0.375,0 0.765625,0.109375 1.046875,0.359375 z m 0,0"
               id="id-03eea550-6ddf-4364-a347-e19dca6f52d4" />
          </g>
          <g
             transform="translate(293.408, 134.765)"
             id="g9005">
            <path
               style="stroke:none"
               d="m 1.109375,-3.796875 c 0.25,-0.3125 0.6875,-0.453125 1.0625,-0.453125 0.734375,0 1.0625,0.671875 1.0625,1.375 v 0.265625 c -1.140625,0 -2.828125,0.359375 -2.828125,1.65625 V -0.875 c 0.078125,0.78125 1.046875,0.96875 1.625,0.96875 0.5,0 1.15625,-0.328125 1.28125,-0.84375 0.0625,0.4375 0.34375,0.796875 0.78125,0.796875 0.40625,0 0.765625,-0.328125 0.828125,-0.78125 v -0.71875 h -0.25 v 0.5 c 0,0.28125 -0.0625,0.6875 -0.359375,0.6875 -0.328125,0 -0.375,-0.390625 -0.375,-0.65625 V -2.59375 c 0,-0.125 0.015625,-0.25 0.015625,-0.375 0,-0.96875 -0.90625,-1.5 -1.734375,-1.5 -0.640625,0 -1.515625,0.3125 -1.515625,1.109375 0,0.28125 0.203125,0.484375 0.46875,0.484375 0.28125,0 0.4375,-0.21875 0.4375,-0.46875 0,-0.28125 -0.21875,-0.453125 -0.5,-0.453125 z m 2.125,1.390625 v 1.015625 c 0,0.6875 -0.46875,1.234375 -1.125,1.265625 H 2.078125 C 1.609375,-0.125 1.1875,-0.484375 1.1875,-0.96875 V -1.015625 C 1.25,-2.03125 2.375,-2.375 3.234375,-2.40625 Z m 0,0"
               id="id-ba513333-7bef-471f-a400-0efff8176591" />
          </g>
          <g
             transform="translate(298.388, 134.765)"
             id="g9008">
            <path
               style="stroke:none"
               d="m 0.296875,-4.296875 v 0.21875 h 0.21875 c 0.296875,0 0.5625,0.046875 0.5625,0.421875 v 2.625 c 0,0.625 -0.34375,0.796875 -0.78125,0.796875 v 0.21875 h 1.84375 v -0.21875 C 1.734375,-0.234375 1.359375,-0.375 1.359375,-1 v -2.953125 c 0.03125,0.125 0.109375,0.25 0.171875,0.390625 0.453125,1.125 0.90625,2.25 1.421875,3.359375 0.03125,0.078125 0.078125,0.1875 0.171875,0.1875 H 3.140625 C 3.25,-0.03125 3.296875,-0.15625 3.328125,-0.25 L 3.625,-0.96875 C 4,-1.859375 4.375,-2.75 4.765625,-3.640625 4.828125,-3.78125 4.890625,-3.921875 4.9375,-4.0625 v 3.421875 c 0,0.40625 -0.328125,0.40625 -0.703125,0.40625 h -0.0625 v 0.21875 H 6.34375 v -0.21875 H 6.109375 c -0.28125,0 -0.546875,-0.03125 -0.546875,-0.4375 V -3.625 c 0,-0.421875 0.265625,-0.453125 0.78125,-0.453125 v -0.21875 H 5.046875 c -0.21875,0 -0.265625,0.125 -0.328125,0.296875 -0.09375,0.234375 -0.1875,0.453125 -0.28125,0.6875 l -0.75,1.75 C 3.5625,-1.28125 3.484375,-1 3.34375,-0.75 2.90625,-1.828125 2.40625,-2.90625 1.96875,-4 1.890625,-4.140625 1.890625,-4.296875 1.640625,-4.296875 Z m 0,0"
               id="id-57e3e95c-1582-4274-bf9c-d3324620120f" />
          </g>
          <g
             transform="translate(305.028, 134.765)"
             id="g9011">
            <path
               style="stroke:none"
               d="m 2.34375,-4.46875 c -1.25,0.125 -2.0625,1.1875 -2.0625,2.34375 0,1.125 0.890625,2.21875 2.21875,2.21875 1.1875,0 2.1875,-0.96875 2.1875,-2.234375 0,-1.171875 -0.890625,-2.328125 -2.21875,-2.328125 -0.03125,0 -0.09375,0 -0.125,0 z m -1.234375,2.578125 v -0.4375 c 0,-0.765625 0.25,-1.921875 1.375,-1.921875 0.8125,0 1.265625,0.6875 1.359375,1.4375 0.015625,0.21875 0.015625,0.4375 0.015625,0.65625 0,0.640625 -0.078125,1.453125 -0.703125,1.8125 C 2.953125,-0.203125 2.734375,-0.15625 2.5,-0.15625 1.78125,-0.15625 1.265625,-0.71875 1.15625,-1.5 1.140625,-1.625 1.140625,-1.765625 1.109375,-1.890625 Z m 0,0"
               id="id-347060cf-e9fe-44c2-a6ff-c643f5027185" />
          </g>
          <g
             transform="translate(310.008, 134.765)"
             id="g9014">
            <path
               style="stroke:none"
               d="m 1.171875,-4.296875 v 0.21875 h 0.21875 c 0.3125,0 0.59375,0.046875 0.59375,0.453125 0,0.75 -0.03125,1.578125 -0.1875,2.3125 -0.09375,0.484375 -0.21875,1.21875 -0.8125,1.21875 -0.15625,0 -0.265625,-0.0625 -0.390625,-0.140625 0.25,-0.03125 0.4375,-0.171875 0.4375,-0.421875 0,-0.234375 -0.1875,-0.421875 -0.4375,-0.421875 -0.234375,0 -0.40625,0.171875 -0.40625,0.453125 0,0.453125 0.359375,0.78125 0.796875,0.78125 0.6875,0 0.921875,-0.71875 1.046875,-1.265625 0.15625,-0.75 0.203125,-1.546875 0.203125,-2.3125 V -3.625 C 2.234375,-3.84375 2.25,-4.046875 2.5,-4.078125 h 0.953125 c 0.25,0 0.34375,0.109375 0.34375,0.359375 v 3.03125 c 0,0.421875 -0.203125,0.453125 -0.78125,0.453125 v 0.21875 H 5.28125 v -0.21875 H 5.046875 C 4.765625,-0.234375 4.5,-0.265625 4.5,-0.671875 V -3.625 c 0,-0.421875 0.25,-0.453125 0.78125,-0.453125 v -0.21875 z m 0,0"
               id="id-43322f3a-d2cf-4ab5-a916-a21fa595c7fe" />
          </g>
          <g
             transform="translate(315.542, 134.765)"
             id="g9017">
            <path
               style="stroke:none"
               d="m 1.109375,-2.3125 h 2.875 c 0.109375,0 0.15625,-0.0625 0.15625,-0.1875 0,-1.046875 -0.640625,-1.96875 -1.765625,-1.96875 -1.21875,0 -2.09375,1.09375 -2.09375,2.28125 0,0.90625 0.5,1.734375 1.390625,2.125 0.21875,0.109375 0.484375,0.15625 0.734375,0.15625 H 2.4375 c 0.765625,0 1.40625,-0.421875 1.671875,-1.1875 C 4.125,-1.125 4.125,-1.171875 4.125,-1.203125 4.125,-1.265625 4.09375,-1.3125 4.015625,-1.3125 3.875,-1.3125 3.8125,-0.984375 3.75,-0.875 3.5,-0.4375 3.015625,-0.15625 2.5,-0.15625 c -0.359375,0 -0.6875,-0.203125 -0.953125,-0.46875 -0.40625,-0.46875 -0.4375,-1.109375 -0.4375,-1.6875 z M 1.125,-2.515625 C 1.125,-3.296875 1.53125,-4.25 2.359375,-4.25 H 2.40625 c 0.96875,0.09375 0.96875,1.125 1.0625,1.734375 z m 0,0"
               id="id-d61ccb33-b70b-46a2-af4a-f46970964095" />
          </g>
          <g
             transform="translate(319.968, 134.765)"
             id="g9020">
            <path
               style="stroke:none"
               d="M 0.359375,-4.296875 0.25,-2.6875 H 0.5 c 0.015625,-0.375 0.03125,-0.875 0.234375,-1.125 C 0.921875,-4.03125 1.25,-4.078125 1.53125,-4.078125 h 0.1875 c 0.234375,0 0.421875,0.015625 0.421875,0.375 v 2.96875 c 0,0.453125 -0.375,0.515625 -0.75,0.515625 -0.109375,0 -0.25,-0.015625 -0.359375,-0.015625 v 0.21875 h 2.890625 v -0.21875 c -0.125,0 -0.25,0.015625 -0.375,0.015625 -0.375,0 -0.71875,-0.0625 -0.71875,-0.515625 v -2.96875 c 0,-0.203125 0,-0.375 0.421875,-0.375 h 0.1875 c 0.625,0 0.984375,0.203125 1.03125,1.390625 h 0.25 L 4.609375,-4.296875 Z m 0,0"
               id="id-c4d1e242-8ba6-44ae-af62-39aee1b56983" />
          </g>
          <g
             transform="translate(324.948, 134.765)"
             id="g9023">
            <path
               style="stroke:none"
               d="m 1.3125,-7.140625 c -0.3125,0 -0.453125,0.296875 -0.453125,0.5625 0,0.140625 0.03125,0.296875 0.03125,0.4375 0.078125,1.03125 0.203125,2.0625 0.28125,3.09375 0.015625,0.3125 0.046875,0.609375 0.078125,0.90625 0,0.109375 -0.015625,0.25 0.109375,0.265625 h 0.0625 c 0.125,-0.015625 0.09375,-0.203125 0.109375,-0.296875 C 1.6875,-3.5625 1.765625,-4.953125 1.890625,-6.34375 1.90625,-6.4375 1.90625,-6.53125 1.90625,-6.625 c 0,-0.3125 -0.234375,-0.515625 -0.515625,-0.515625 -0.03125,0 -0.0625,0 -0.078125,0 z m 0,6.078125 c -0.25,0.03125 -0.453125,0.25 -0.453125,0.53125 0,0.28125 0.25,0.515625 0.53125,0.515625 0.265625,0 0.515625,-0.21875 0.515625,-0.515625 0,-0.296875 -0.234375,-0.53125 -0.515625,-0.53125 -0.03125,0 -0.0625,0 -0.078125,0 z m 0,0"
               id="id-7e20e870-1493-48db-8abb-e17e64ece2fc" />
          </g>
        </g>
      </g>
    </g>
  </g>
</svg>
