<?xml version="1.0" encoding="UTF-8" standalone="no"?>
<!-- Created with Inkscape (http://www.inkscape.org/) -->

<svg
   xmlns:ns0="http://www.iki.fi/pav/software/textext/"
   xmlns:dc="http://purl.org/dc/elements/1.1/"
   xmlns:cc="http://creativecommons.org/ns#"
   xmlns:rdf="http://www.w3.org/1999/02/22-rdf-syntax-ns#"
   xmlns:svg="http://www.w3.org/2000/svg"
   xmlns="http://www.w3.org/2000/svg"
   xmlns:sodipodi="http://sodipodi.sourceforge.net/DTD/sodipodi-0.dtd"
   xmlns:inkscape="http://www.inkscape.org/namespaces/inkscape"
   width="210mm"
   height="297mm"
   viewBox="0 0 210 296.99999"
   version="1.1"
   id="svg8"
   inkscape:version="0.92.3 (2405546, 2018-03-11)"
   sodipodi:docname="modified.svg">
  <sodipodi:namedview
     id="base"
     pagecolor="#ffffff"
     bordercolor="#666666"
     borderopacity="1.0"
     inkscape:pageopacity="0.0"
     inkscape:pageshadow="2"
     inkscape:zoom="1.9857977"
     inkscape:cx="416.20942"
     inkscape:cy="509.94915"
     inkscape:document-units="mm"
     inkscape:current-layer="layer1"
     showgrid="false"
     inkscape:window-width="2560"
     inkscape:window-height="1007"
     inkscape:window-x="0"
     inkscape:window-y="0"
     inkscape:window-maximized="1" />
  <defs
     id="defs2" />
  <metadata
     id="metadata5">
    <rdf:RDF>
      <cc:Work
         rdf:about="">
        <dc:format>image/svg+xml</dc:format>
        <dc:type
           rdf:resource="http://purl.org/dc/dcmitype/StillImage" />
        <dc:title />
      </cc:Work>
    </rdf:RDF>
  </metadata>
  <g
     inkscape:label="Layer 1"
     inkscape:groupmode="layer"
     id="layer1">
    <g
       ns0:jacobian_sqrt="0.352778"
       inkscapeversion="0.92.3"
       ns0:alignment="middle center"
       ns0:scale="1.0"
       ns0:preamble="/home/sergei/PycharmProjects/textext/extension/textext/default_packages.tex"
       ns0:text="$$\\lim_{n \\to \\infty} \\left(1+\\frac{1}{n}\\right)^n = e$$ \\textcolor{red}{second remarkable limit}\n"
       ns0:pdfconverter="pstoedit"
       ns0:texconverter="pdflatex"
       ns0:version="0.8.1"
       text-anchor="start"
       word-spacing="normal"
       letter-spacing="normal"
       font-size-adjust="none"
       font-stretch="normal"
       font-weight="normal"
       font-variant="normal"
       font-style="normal"
       fill-opacity="1"
       fill-rule="evenodd"
       fill="none"
       stroke-opacity="1"
       stroke-dashoffset="0"
       stroke-dasharray="none"
       stroke-miterlimit="10.433"
       stroke-linejoin="miter"
       stroke-linecap="butt"
       stroke="black"
       xml:space="preserve"
       transform="matrix(0.352778,0.000000,0.000000,-0.352778,19.913474,373.235461)"
       id="content">
<path
   id="path1091"
   fill="black"
   stroke-width="0"
   d="M267.87,648.15 L266.43,648.04 V647.73 C267.13,647.73,267.21,647.66,267.21,647.17 V642.01 C267.21,641.56,267.1,641.56,266.43,641.56 V641.25 C266.76,641.26,267.29,641.28,267.54,641.28 C267.79,641.28,268.28,641.26,268.65,641.25 V641.56 C267.98,641.56,267.87,641.56,267.87,642.01 Z " />
<path
   id="path1093"
   fill="black"
   stroke-width="0"
   d="M270.64,645.65 L269.24,645.53 V645.23 C269.89,645.23,269.98,645.17,269.98,644.68 V642.01 C269.98,641.56,269.87,641.56,269.2,641.56 V641.25 C269.52,641.26,270.06,641.28,270.3,641.28 C270.65,641.28,271,641.26,271.34,641.25 V641.56 C270.68,641.56,270.64,641.61,270.64,642 Z " />
<path
   id="path1095"
   fill="black"
   stroke-width="0"
   d="M270.68,647.37 L270.68,647.4 L270.68,647.43 L270.67,647.46 L270.67,647.49 L270.66,647.51 L270.65,647.54 L270.64,647.56 L270.63,647.59 L270.62,647.61 L270.61,647.64 L270.6,647.66 L270.58,647.68 L270.57,647.7 L270.55,647.72 L270.54,647.74 L270.52,647.76 L270.5,647.77 L270.48,647.79 L270.46,647.8 L270.44,647.82 L270.42,647.83 L270.4,647.84 L270.37,647.85 L270.35,647.86 L270.33,647.87 L270.3,647.88 L270.28,647.89 L270.25,647.89 L270.23,647.89 L270.2,647.9 L270.18,647.9 L270.15,647.9 C269.84,647.9,269.62,647.63,269.62,647.37 C269.62,647.1,269.84,646.85,270.15,646.85 C270.43,646.85,270.68,647.05,270.68,647.37 Z " />
<path
   id="path1097"
   fill="black"
   stroke-width="0"
   d="M272.74,644.67 V642.01 C272.74,641.56,272.63,641.56,271.96,641.56 V641.25 C272.31,641.26,272.82,641.28,273.09,641.28 C273.35,641.28,273.86,641.26,274.2,641.25 V641.56 C273.54,641.56,273.42,641.56,273.42,642.01 V643.84 C273.42,644.87,274.13,645.43,274.77,645.43 C275.4,645.43,275.51,644.89,275.51,644.32 V642.01 C275.51,641.56,275.4,641.56,274.73,641.56 V641.25 C275.08,641.26,275.59,641.28,275.86,641.28 C276.12,641.28,276.64,641.26,276.98,641.25 V641.56 C276.31,641.56,276.2,641.56,276.2,642.01 V643.84 C276.2,644.87,276.9,645.43,277.54,645.43 C278.17,645.43,278.28,644.89,278.28,644.32 V642.01 C278.28,641.56,278.17,641.56,277.5,641.56 V641.25 C277.85,641.26,278.36,641.28,278.63,641.28 C278.89,641.28,279.41,641.26,279.75,641.25 V641.56 C279.23,641.56,278.98,641.56,278.97,641.86 V643.76 C278.97,644.61,278.97,644.92,278.66,645.28 C278.52,645.45,278.19,645.65,277.61,645.65 C276.78,645.65,276.34,645.05,276.17,644.67 C276.03,645.53,275.29,645.65,274.84,645.65 C274.11,645.65,273.64,645.22,273.36,644.6 V645.65 L271.96,645.53 V645.23 C272.66,645.23,272.74,645.16,272.74,644.67 Z " />
<path
   id="path1099"
   fill="black"
   stroke-width="0"
   d="M263.47,635.71 L263.47,635.71 L263.47,635.7 L263.46,635.69 L263.46,635.68 L263.46,635.67 L263.45,635.66 L263.45,635.65 L263.45,635.63 L263.44,635.61 L263.44,635.59 L263.43,635.57 L263.43,635.55 L263.42,635.53 L263.42,635.52 L263.42,635.51 L263.42,635.5 L263.41,635.5 L263.41,635.49 L263.41,635.48 L263.41,635.47 L263.41,635.46 L263.41,635.46 L263.4,635.45 L263.4,635.44 L263.4,635.44 L263.4,635.43 L263.4,635.43 L263.4,635.43 L263.4,635.43 L263.4,635.43 C263.4,635.28,263.53,635.21,263.64,635.21 C263.77,635.21,263.88,635.3,263.91,635.36 C263.95,635.42,264,635.65,264.04,635.79 C264.07,635.92,264.15,636.24,264.19,636.42 C264.23,636.57,264.27,636.72,264.31,636.88 C264.39,637.17,264.4,637.22,264.6,637.51 C264.8,637.79,265.13,638.15,265.65,638.15 C266.06,638.15,266.07,637.79,266.07,637.66 C266.07,637.24,265.76,636.47,265.65,636.18 C265.58,635.98,265.55,635.92,265.55,635.8 C265.55,635.44,265.86,635.21,266.21,635.21 C266.91,635.21,267.22,636.17,267.22,636.27 C267.22,636.36,267.13,636.36,267.11,636.36 C267.01,636.36,267,636.32,266.97,636.24 C266.81,635.69,266.51,635.4,266.23,635.4 C266.09,635.4,266.06,635.5,266.06,635.65 C266.06,635.8,266.09,635.9,266.22,636.21 C266.3,636.42,266.59,637.16,266.59,637.55 C266.59,638.22,266.05,638.34,265.68,638.34 C265.1,638.34,264.71,637.99,264.5,637.71 C264.45,638.19,264.04,638.34,263.75,638.34 C263.45,638.34,263.29,638.13,263.2,637.97 C263.05,637.71,262.95,637.31,262.95,637.28 C262.95,637.19,263.05,637.19,263.07,637.19 C263.16,637.19,263.17,637.21,263.22,637.4 C263.32,637.81,263.46,638.15,263.73,638.15 C263.91,638.15,263.96,637.99,263.96,637.81 C263.96,637.67,263.9,637.42,263.85,637.23 C263.8,637.04,263.73,636.76,263.7,636.6 Z " />
<path
   id="path1101"
   fill="black"
   stroke-width="0"
   d="M273.98,636.85 L273.9,636.79 L273.82,636.72 L273.75,636.66 L273.68,636.6 L273.62,636.53 L273.56,636.47 L273.5,636.4 L273.45,636.34 L273.4,636.27 L273.35,636.2 L273.31,636.14 L273.27,636.08 L273.24,636.01 L273.2,635.95 L273.17,635.89 L273.15,635.83 L273.12,635.77 L273.1,635.72 L273.08,635.67 L273.06,635.62 L273.04,635.57 L273.03,635.53 L273.02,635.48 L273.01,635.45 L273,635.41 L272.99,635.38 L272.99,635.35 L272.98,635.33 L272.98,635.31 L272.98,635.3 L272.98,635.29 L272.98,635.29 C272.98,635.19,273.05,635.19,273.14,635.19 C273.27,635.19,273.29,635.19,273.33,635.3 C273.37,635.48,273.48,635.92,273.84,636.3 C274.25,636.73,274.6,636.83,274.89,636.92 C274.93,636.94,274.96,636.98,274.96,637.01 C274.96,637.08,274.92,637.1,274.83,637.13 C273.82,637.45,273.46,638.16,273.32,638.77 C273.29,638.85,273.24,638.85,273.14,638.85 C273.05,638.85,272.98,638.85,272.98,638.75 C272.98,638.73,273.05,638.27,273.39,637.79 C273.55,637.55,273.74,637.35,273.98,637.19 H268.36 C268.25,637.19,268.08,637.19,268.08,637.02 C268.08,636.85,268.24,636.85,268.36,636.85 Z " />
<path
   id="path1103"
   fill="black"
   stroke-width="0"
   d="M279.53,637.18 L279.49,637.22 L279.46,637.26 L279.43,637.29 L279.4,637.33 L279.37,637.36 L279.34,637.39 L279.32,637.42 L279.29,637.45 L279.27,637.48 L279.24,637.51 L279.22,637.53 L279.2,637.55 L279.18,637.58 L279.15,637.6 L279.13,637.62 L279.11,637.64 L279.07,637.68 L279.03,637.72 L279,637.75 L278.96,637.78 L278.91,637.82 L278.87,637.85 L278.85,637.87 L278.83,637.88 L278.8,637.9 L278.78,637.92 C278.35,638.22,277.9,638.34,277.52,638.34 C276.65,638.34,276.02,637.6,276.02,636.77 H276.22 C276.22,637.44,276.77,637.96,277.41,637.96 C278.06,637.96,278.51,637.43,279.18,636.62 H279.18 C278.9,636.17,278.29,635.47,277.44,635.47 C276.72,635.47,276.22,636.1,276.22,636.77 H276.02 C276.02,635.96,276.62,635.21,277.5,635.21 C278.47,635.21,279.15,636,279.4,636.37 C279.77,635.94,279.88,635.82,280.15,635.63 C280.58,635.33,281.02,635.21,281.41,635.21 C282.27,635.21,282.9,635.94,282.9,636.78 H282.71 C282.71,636.11,282.16,635.59,281.52,635.59 C280.87,635.59,280.42,636.12,279.75,636.92 H279.75 C280.03,637.38,280.64,638.08,281.49,638.08 C282.21,638.08,282.71,637.45,282.71,636.78 H282.9 C282.9,637.59,282.3,638.34,281.43,638.34 C280.46,638.34,279.78,637.55,279.53,637.18 Z " />
<path
   id="path1105"
   fill="black"
   stroke-width="0"
   d="M292.07,631.97 L292.07,631.97 L292.07,631.97 L292.07,631.98 L292.07,631.98 L292.07,631.98 L292.07,631.99 L292.07,631.99 L292.07,631.99 L292.06,632 L292.06,632 L292.06,632 L292.06,632 L292.06,632.01 L292.06,632.01 L292.06,632.01 L292.06,632.01 L292.05,632.02 L292.05,632.02 L292.05,632.03 L292.04,632.03 L292.04,632.04 L292.04,632.05 L292.03,632.05 L292.03,632.06 C291.66,632.42,290.99,633.09,290.32,634.16 C288.72,636.72,287.99,639.95,287.99,643.78 C287.99,646.45,288.35,649.9,289.99,652.86 C290.78,654.27,291.6,655.08,292.04,655.52 C292.07,655.55,292.07,655.57,292.07,655.6 C292.07,655.7,292,655.7,291.86,655.7 C291.72,655.7,291.7,655.7,291.55,655.55 C288.21,652.52,287.16,647.97,287.16,643.79 C287.16,639.88,288.06,635.95,290.59,632.98 C290.79,632.75,291.17,632.34,291.58,631.99 C291.7,631.87,291.72,631.87,291.86,631.87 C292,631.87,292.07,631.87,292.07,631.97 Z " />
<path
   id="path1107"
   fill="black"
   stroke-width="0"
   d="M295.35,647.61 L295.35,647.62 L295.35,647.63 L295.35,647.64 L295.35,647.65 L295.35,647.66 L295.35,647.67 L295.35,647.68 L295.35,647.69 L295.35,647.7 L295.35,647.71 L295.35,647.72 L295.35,647.72 L295.35,647.73 L295.35,647.74 L295.35,647.75 L295.35,647.75 L295.35,647.76 L295.35,647.77 L295.35,647.78 L295.34,647.79 L295.34,647.8 L295.34,647.81 L295.33,647.82 L295.33,647.82 L295.33,647.83 L295.32,647.84 L295.31,647.84 L295.31,647.85 L295.3,647.85 L295.29,647.85 L295.28,647.86 L295.28,647.86 L295.27,647.86 L295.27,647.86 L295.26,647.86 L295.26,647.86 L295.25,647.86 L295.24,647.87 L295.24,647.87 L295.23,647.87 L295.22,647.87 L295.22,647.87 L295.21,647.87 L295.2,647.87 L295.19,647.87 L295.18,647.87 L295.17,647.87 L295.16,647.87 L295.15,647.87 L295.14,647.87 L295.13,647.87 L295.12,647.87 C294.51,647.23,293.63,647.23,293.31,647.23 V646.93 C293.51,646.93,294.1,646.93,294.62,647.18 V642.04 C294.62,641.68,294.59,641.56,293.69,641.56 H293.37 V641.25 C293.72,641.28,294.59,641.28,294.98,641.28 C295.38,641.28,296.25,641.28,296.6,641.25 V641.56 H296.28 C295.38,641.56,295.35,641.67,295.35,642.04 Z " />
<path
   id="path1109"
   fill="black"
   stroke-width="0"
   d="M303.69,643.54 H306.48 C306.61,643.54,306.8,643.54,306.8,643.74 C306.8,643.94,306.61,643.94,306.48,643.94 H303.69 V646.72 C303.69,646.86,303.69,647.04,303.49,647.04 C303.3,647.04,303.3,646.86,303.3,646.72 V643.94 H300.5 C300.36,643.94,300.17,643.94,300.17,643.74 C300.17,643.54,300.36,643.54,300.5,643.54 H303.3 V640.76 C303.3,640.62,303.3,640.43,303.49,640.43 C303.69,640.43,303.69,640.62,303.69,640.76 Z " />
<path
   id="path1111"
   fill="black"
   stroke-width="0"
   d="M314.21,654.35 L314.21,654.36 L314.21,654.37 L314.21,654.38 L314.21,654.39 L314.21,654.4 L314.21,654.41 L314.21,654.42 L314.21,654.43 L314.21,654.44 L314.21,654.45 L314.21,654.46 L314.21,654.46 L314.21,654.47 L314.2,654.48 L314.2,654.48 L314.2,654.49 L314.2,654.5 L314.2,654.5 L314.2,654.52 L314.2,654.53 L314.19,654.54 L314.19,654.55 L314.19,654.55 L314.18,654.56 L314.18,654.57 L314.17,654.58 L314.17,654.58 L314.16,654.59 L314.15,654.59 L314.14,654.59 L314.14,654.6 L314.13,654.6 L314.13,654.6 L314.12,654.6 L314.12,654.6 L314.11,654.6 L314.1,654.6 L314.1,654.6 L314.09,654.6 L314.08,654.61 L314.08,654.61 L314.07,654.61 L314.06,654.61 L314.05,654.61 L314.04,654.61 L314.04,654.61 L314.03,654.61 L314.02,654.61 L314.01,654.61 L314,654.61 L313.99,654.61 L313.98,654.61 C313.36,653.97,312.48,653.97,312.16,653.97 V653.66 C312.36,653.66,312.95,653.66,313.47,653.92 V648.78 C313.47,648.42,313.44,648.3,312.54,648.3 H312.22 V647.99 C312.57,648.02,313.44,648.02,313.84,648.02 C314.24,648.02,315.1,648.02,315.45,647.99 V648.3 H315.13 C314.24,648.3,314.21,648.41,314.21,648.78 Z " />
<line
   id="line1113"
   stroke-width="0.398"
   y2="643.74"
   x2="316.76"
   y1="643.74"
   x1="310.77" />
<path
   id="path1115"
   fill="black"
   stroke-width="0"
   d="M311.65,635.01 L311.65,634.99 L311.65,634.98 L311.64,634.96 L311.64,634.95 L311.63,634.92 L311.63,634.88 L311.62,634.85 L311.61,634.82 L311.6,634.79 L311.6,634.76 L311.59,634.74 L311.59,634.73 L311.59,634.71 L311.58,634.7 L311.58,634.68 L311.58,634.67 L311.58,634.66 L311.57,634.65 L311.57,634.63 L311.57,634.62 L311.57,634.61 L311.57,634.61 L311.56,634.6 L311.56,634.59 L311.56,634.58 L311.56,634.58 C311.56,634.4,311.7,634.31,311.85,634.31 C311.97,634.31,312.15,634.39,312.22,634.59 C312.23,634.61,312.35,635.08,312.41,635.32 L312.63,636.22 C312.69,636.44,312.75,636.66,312.8,636.88 C312.84,637.05,312.92,637.34,312.93,637.38 C313.08,637.69,313.61,638.59,314.55,638.59 C315,638.59,315.09,638.22,315.09,637.9 C315.09,637.28,314.6,636.01,314.45,635.58 C314.36,635.35,314.35,635.23,314.35,635.12 C314.35,634.66,314.69,634.31,315.16,634.31 C316.1,634.31,316.47,635.76,316.47,635.84 C316.47,635.94,316.38,635.94,316.35,635.94 C316.25,635.94,316.25,635.91,316.2,635.76 C316,635.09,315.67,634.53,315.18,634.53 C315.01,634.53,314.94,634.63,314.94,634.86 C314.94,635.1,315.03,635.34,315.12,635.56 C315.31,636.09,315.73,637.18,315.73,637.75 C315.73,638.41,315.3,638.81,314.58,638.81 C313.69,638.81,313.2,638.17,313.03,637.95 C312.98,638.5,312.57,638.81,312.11,638.81 C311.65,638.81,311.46,638.42,311.36,638.24 C311.2,637.91,311.06,637.32,311.06,637.28 C311.06,637.18,311.16,637.18,311.18,637.18 C311.28,637.18,311.29,637.19,311.35,637.41 C311.52,638.11,311.72,638.59,312.08,638.59 C312.28,638.59,312.39,638.46,312.39,638.14 C312.39,637.93,312.36,637.82,312.23,637.3 Z " />
<path
   id="path1117"
   fill="black"
   stroke-width="0"
   d="M323.21,643.78 L323.2,644.51 L323.16,645.24 L323.11,645.97 L323.03,646.7 L322.92,647.42 L322.79,648.13 L322.63,648.84 L322.44,649.53 L322.22,650.22 L322.1,650.56 L321.97,650.89 L321.84,651.22 L321.69,651.55 L321.54,651.87 L321.38,652.19 L321.21,652.51 L321.03,652.82 L320.85,653.13 L320.65,653.43 L320.45,653.73 L320.23,654.02 L320.01,654.3 L319.78,654.59 C319.58,654.81,319.2,655.22,318.79,655.58 C318.67,655.7,318.65,655.7,318.51,655.7 C318.39,655.7,318.3,655.7,318.3,655.6 C318.3,655.56,318.34,655.52,318.36,655.5 C318.71,655.14,319.38,654.48,320.05,653.4 C321.65,650.84,322.38,647.61,322.38,643.79 C322.38,641.11,322.02,637.67,320.37,634.71 C319.59,633.3,318.76,632.47,318.34,632.06 C318.32,632.03,318.3,632,318.3,631.97 C318.3,631.87,318.39,631.87,318.51,631.87 C318.65,631.87,318.67,631.87,318.82,632.02 C322.16,635.05,323.21,639.59,323.21,643.78 Z " />
<path
   id="path1119"
   fill="black"
   stroke-width="0"
   d="M326.14,653.67 L326.13,653.67 L326.13,653.66 L326.13,653.65 L326.13,653.64 L326.12,653.63 L326.12,653.62 L326.12,653.61 L326.11,653.59 L326.11,653.57 L326.1,653.55 L326.1,653.53 L326.09,653.51 L326.09,653.49 L326.09,653.48 L326.08,653.47 L326.08,653.46 L326.08,653.46 L326.08,653.45 L326.08,653.44 L326.07,653.43 L326.07,653.42 L326.07,653.42 L326.07,653.41 L326.07,653.4 L326.07,653.4 L326.07,653.39 L326.07,653.39 L326.07,653.39 L326.07,653.39 L326.07,653.39 C326.07,653.24,326.19,653.17,326.3,653.17 C326.43,653.17,326.54,653.26,326.58,653.32 C326.61,653.38,326.67,653.6,326.7,653.75 C326.74,653.88,326.82,654.2,326.86,654.38 C326.9,654.53,326.94,654.68,326.98,654.84 C327.05,655.13,327.07,655.18,327.27,655.47 C327.46,655.75,327.79,656.11,328.32,656.11 C328.72,656.11,328.73,655.75,328.73,655.62 C328.73,655.2,328.43,654.43,328.32,654.14 C328.24,653.95,328.21,653.88,328.21,653.76 C328.21,653.4,328.52,653.17,328.88,653.17 C329.58,653.17,329.89,654.13,329.89,654.23 C329.89,654.32,329.79,654.32,329.77,654.32 C329.67,654.32,329.67,654.28,329.64,654.2 C329.48,653.65,329.18,653.36,328.9,653.36 C328.75,653.36,328.72,653.46,328.72,653.6 C328.72,653.76,328.76,653.85,328.89,654.17 C328.97,654.38,329.26,655.12,329.26,655.51 C329.26,656.18,328.72,656.3,328.35,656.3 C327.77,656.3,327.38,655.95,327.17,655.67 C327.12,656.15,326.7,656.3,326.42,656.3 C326.12,656.3,325.95,656.09,325.86,655.93 C325.71,655.67,325.61,655.27,325.61,655.24 C325.61,655.15,325.71,655.15,325.73,655.15 C325.83,655.15,325.84,655.17,325.89,655.36 C325.99,655.77,326.12,656.11,326.4,656.11 C326.58,656.11,326.63,655.96,326.63,655.77 C326.63,655.64,326.56,655.38,326.52,655.19 C326.47,655,326.4,654.72,326.36,654.56 Z " />
<path
   id="path1121"
   fill="black"
   stroke-width="0"
   d="M340.33,644.5 L340.35,644.5 L340.38,644.5 L340.41,644.5 L340.43,644.5 L340.44,644.51 L340.46,644.51 L340.47,644.51 L340.48,644.51 L340.5,644.51 L340.51,644.52 L340.53,644.52 L340.54,644.52 L340.55,644.53 L340.56,644.53 L340.58,644.54 L340.59,644.54 L340.6,644.55 L340.61,644.56 L340.62,644.57 L340.63,644.58 L340.63,644.59 L340.64,644.59 L340.64,644.6 L340.64,644.6 L340.65,644.61 L340.65,644.62 L340.65,644.62 L340.65,644.63 L340.66,644.64 L340.66,644.64 L340.66,644.65 L340.66,644.66 L340.66,644.67 L340.66,644.67 L340.66,644.68 L340.66,644.69 L340.67,644.7 C340.67,644.9,340.48,644.9,340.34,644.9 H334.36 C334.22,644.9,334.03,644.9,334.03,644.7 C334.03,644.5,334.22,644.5,334.37,644.5 Z " />
<path
   id="path1123"
   fill="black"
   stroke-width="0"
   d="M340.34,642.58 L340.35,642.58 L340.36,642.58 L340.39,642.58 L340.42,642.58 L340.43,642.58 L340.45,642.58 L340.46,642.58 L340.47,642.58 L340.49,642.58 L340.5,642.59 L340.51,642.59 L340.53,642.59 L340.54,642.6 L340.55,642.6 L340.56,642.6 L340.58,642.61 L340.59,642.62 L340.6,642.62 L340.61,642.63 L340.62,642.64 L340.63,642.65 L340.63,642.65 L340.63,642.66 L340.64,642.66 L340.64,642.67 L340.64,642.68 L340.65,642.68 L340.65,642.69 L340.65,642.69 L340.65,642.7 L340.66,642.71 L340.66,642.72 L340.66,642.72 L340.66,642.73 L340.66,642.74 L340.66,642.75 L340.66,642.76 L340.66,642.76 L340.67,642.77 C340.67,642.97,340.48,642.97,340.33,642.97 H334.37 C334.22,642.97,334.03,642.97,334.03,642.77 C334.03,642.58,334.22,642.58,334.36,642.58 Z " />
<path
   id="path1125"
   fill="black"
   stroke-width="0"
   d="M345.86,643.55 L345.88,643.55 L345.92,643.55 L345.95,643.55 L345.98,643.55 L346.02,643.55 L346.06,643.55 L346.1,643.55 L346.15,643.56 L346.19,643.56 L346.24,643.56 L346.29,643.56 L346.33,643.57 L346.38,643.57 L346.44,643.57 L346.54,643.58 L346.65,643.6 L346.76,643.61 L346.86,643.63 L346.97,643.65 L347.08,643.68 L347.13,643.69 L347.18,643.71 L347.24,643.72 L347.28,643.74 L347.33,643.76 L347.38,643.78 C348.08,644.08,348.13,644.66,348.13,644.8 C348.13,645.24,347.75,645.65,347.06,645.65 V645.43 C347.53,645.43,347.8,645.14,347.8,644.8 C347.8,643.77,346.2,643.77,345.8,643.77 H345.39 C345.78,645.28,346.8,645.43,347.06,645.43 V645.65 C345.96,645.65,344.45,644.68,344.45,642.94 C344.45,641.93,345.04,641.15,346.02,641.15 C347.44,641.15,348.28,642.2,348.28,642.32 C348.28,642.38,348.22,642.45,348.16,642.45 C348.11,642.45,348.09,642.43,348.03,642.35 C347.24,641.36,346.15,641.36,346.04,641.36 C345.26,641.36,345.17,642.2,345.17,642.52 C345.17,642.64,345.18,642.94,345.33,643.55 Z " />
<path
   id="path1127"
   fill="red"
   stroke-width="0"
   stroke="red"
   d="M135.84,619.82 L135.86,619.82 L135.89,619.81 L135.92,619.81 L135.95,619.8 L135.98,619.79 L136.02,619.79 L136.06,619.78 L136.1,619.76 L136.14,619.75 L136.18,619.74 L136.22,619.72 L136.27,619.71 L136.31,619.69 L136.36,619.67 L136.4,619.64 L136.44,619.62 L136.49,619.59 L136.53,619.57 L136.57,619.54 L136.61,619.5 L136.65,619.47 L136.68,619.43 L136.72,619.39 L136.75,619.35 L136.78,619.3 L136.79,619.28 L136.8,619.26 L136.81,619.23 L136.82,619.21 L136.83,619.18 L136.84,619.15 L136.85,619.13 L136.86,619.1 L136.86,619.07 L136.87,619.04 L136.87,619.01 L136.88,618.98 L136.88,618.94 L136.88,618.91 C136.88,618.4,136.53,618.01,135.75,618.01 C134.91,618.01,134.56,618.57,134.37,619.42 C134.34,619.55,134.33,619.59,134.23,619.59 C134.1,619.59,134.1,619.52,134.1,619.34 V618.03 C134.1,617.86,134.1,617.79,134.21,617.79 C134.26,617.79,134.27,617.8,134.46,617.99 C134.48,618.01,134.48,618.03,134.65,618.22 C135.09,617.8,135.54,617.79,135.75,617.79 C136.9,617.79,137.36,618.45,137.36,619.17 C137.36,619.7,137.06,619.99,136.94,620.11 C136.61,620.43,136.22,620.51,135.8,620.59 C135.24,620.7,134.58,620.83,134.58,621.4 C134.58,621.75,134.84,622.16,135.69,622.16 C136.79,622.16,136.84,621.27,136.86,620.96 C136.87,620.87,136.96,620.87,136.98,620.87 C137.11,620.87,137.11,620.92,137.11,621.11 V622.11 C137.11,622.28,137.11,622.35,137,622.35 C136.95,622.35,136.93,622.35,136.8,622.23 C136.77,622.19,136.67,622.1,136.63,622.07 C136.25,622.35,135.84,622.35,135.69,622.35 C134.48,622.35,134.1,621.68,134.1,621.12 C134.1,620.78,134.26,620.5,134.53,620.28 C134.85,620.02,135.12,619.96,135.84,619.82 Z " />
<path
   id="path1129"
   fill="red"
   stroke-width="0"
   stroke="red"
   d="M138.8,620.19 L138.81,620.4 C138.87,621.88,139.71,622.13,140.05,622.13 C141.08,622.13,141.18,620.79,141.18,620.4 H138.81 L138.8,620.19 H141.59 C141.81,620.19,141.84,620.19,141.84,620.4 C141.84,621.38,141.3,622.35,140.05,622.35 C138.89,622.35,137.98,621.32,137.98,620.08 C137.98,618.75,139.02,617.79,140.17,617.79 C141.39,617.79,141.84,618.89,141.84,619.08 C141.84,619.18,141.76,619.2,141.71,619.2 C141.62,619.2,141.6,619.14,141.58,619.06 C141.23,618.04,140.33,618.04,140.23,618.04 C139.73,618.04,139.33,618.33,139.1,618.7 C138.8,619.18,138.8,619.83,138.8,620.19 Z " />
<path
   id="path1131"
   fill="red"
   stroke-width="0"
   stroke="red"
   d="M143.29,620.06 L143.29,620.14 L143.29,620.21 L143.3,620.28 L143.3,620.35 L143.31,620.42 L143.31,620.49 L143.32,620.55 L143.33,620.62 L143.34,620.68 L143.35,620.74 L143.36,620.8 L143.37,620.85 L143.4,620.96 L143.43,621.06 L143.46,621.16 L143.5,621.25 L143.54,621.34 L143.58,621.42 L143.62,621.49 L143.67,621.56 L143.72,621.63 L143.77,621.69 L143.82,621.74 L143.87,621.79 L143.92,621.84 L143.98,621.88 L144.03,621.92 L144.09,621.95 L144.15,621.98 L144.2,622.01 L144.26,622.03 L144.32,622.05 L144.37,622.07 L144.43,622.08 L144.48,622.09 L144.54,622.09 L144.59,622.1 L144.64,622.1 C144.73,622.1,145.36,622.09,145.71,621.73 C145.3,621.7,145.24,621.4,145.24,621.27 C145.24,621.02,145.41,620.82,145.7,620.82 C145.95,620.82,146.15,620.99,146.15,621.28 C146.15,621.96,145.4,622.35,144.63,622.35 C143.38,622.35,142.46,621.27,142.46,620.04 C142.46,618.77,143.45,617.79,144.61,617.79 C145.94,617.79,146.26,618.98,146.26,619.08 C146.26,619.18,146.16,619.18,146.13,619.18 C146.04,619.18,146.02,619.14,146,619.08 C145.71,618.16,145.07,618.04,144.7,618.04 C144.17,618.04,143.29,618.46,143.29,620.06 Z " />
<path
   id="path1133"
   fill="red"
   stroke-width="0"
   stroke="red"
   d="M151.25,620.02 L151.25,620.14 L151.24,620.26 L151.22,620.37 L151.2,620.49 L151.18,620.6 L151.15,620.71 L151.11,620.82 L151.07,620.92 L151.03,621.03 L150.98,621.13 L150.93,621.22 L150.87,621.32 L150.81,621.41 L150.74,621.5 L150.67,621.58 L150.6,621.66 L150.52,621.74 L150.44,621.81 L150.36,621.88 L150.27,621.95 L150.18,622.01 L150.09,622.06 L150,622.12 L149.9,622.16 L149.8,622.2 L149.7,622.24 L149.59,622.27 L149.49,622.3 L149.38,622.32 L149.27,622.33 L149.16,622.34 L149.04,622.35 L149.04,622.13 C149.47,622.13,149.9,621.91,150.16,621.48 C150.42,621.06,150.42,620.48,150.42,620.1 C150.42,619.74,150.42,619.21,150.2,618.77 C149.98,618.32,149.54,618.04,149.04,618.04 H149.04 C148.62,618.04,148.18,618.24,147.91,618.7 C147.66,619.14,147.66,619.74,147.66,620.1 C147.66,620.49,147.66,621.03,147.9,621.46 C148.17,621.92,148.64,622.13,149.04,622.13 L149.04,622.35 C147.8,622.35,146.83,621.27,146.83,620.02 C146.83,618.74,147.87,617.79,149.04,617.79 C150.24,617.79,151.25,618.76,151.25,620.02 Z " />
<path
   id="path1135"
   fill="red"
   stroke-width="0"
   stroke="red"
   d="M152.63,621.31 V618.65 C152.63,618.21,152.52,618.21,151.85,618.21 V617.9 C152.2,617.91,152.71,617.93,152.98,617.93 C153.24,617.93,153.76,617.91,154.1,617.9 V618.21 C153.43,618.21,153.32,618.21,153.32,618.65 V620.48 C153.32,621.51,154.03,622.07,154.66,622.07 C155.29,622.07,155.4,621.53,155.4,620.97 V618.65 C155.4,618.21,155.29,618.21,154.62,618.21 V617.9 C154.97,617.91,155.48,617.93,155.75,617.93 C156.01,617.93,156.53,617.91,156.87,617.9 V618.21 C156.35,618.21,156.1,618.21,156.09,618.5 V620.4 C156.09,621.26,156.09,621.56,155.78,621.92 C155.64,622.09,155.31,622.29,154.73,622.29 C154.01,622.29,153.54,621.86,153.26,621.24 V622.29 L151.85,622.18 V621.87 C152.55,621.87,152.63,621.8,152.63,621.31 Z " />
<path
   id="path1137"
   fill="red"
   stroke-width="0"
   stroke="red"
   d="M160.86,618.44 V617.79 L162.32,617.9 V618.21 C161.63,618.21,161.55,618.27,161.55,618.76 V624.79 L160.11,624.68 V624.37 C160.81,624.37,160.89,624.3,160.89,623.82 V621.67 C160.6,622.03,160.17,622.29,159.63,622.29 L159.67,622.07 C160.02,622.07,160.44,621.92,160.75,621.47 C160.86,621.3,160.86,621.28,160.86,621.11 H160.86 V619.07 C160.86,618.89,160.86,618.87,160.75,618.7 C160.45,618.22,160,618.01,159.57,618.01 C159.12,618.01,158.76,618.26,158.52,618.64 C158.26,619.05,158.24,619.62,158.24,620.02 C158.24,620.39,158.26,620.99,158.54,621.43 C158.75,621.74,159.13,622.07,159.67,622.07 L159.63,622.29 C158.46,622.29,157.41,621.31,157.41,620.03 C157.41,618.77,158.38,617.79,159.52,617.79 C160.16,617.79,160.61,618.12,160.86,618.44 Z " />
<path
   id="path1139"
   fill="red"
   stroke-width="0"
   stroke="red"
   d="M167.59,621.2 V622.29 L166.2,622.18 V621.87 C166.9,621.87,166.98,621.8,166.98,621.31 V618.65 C166.98,618.21,166.87,618.21,166.2,618.21 V617.9 C166.59,617.91,167.06,617.93,167.34,617.93 C167.74,617.93,168.21,617.93,168.6,617.9 V618.21 H168.39 C167.66,618.21,167.64,618.31,167.64,618.67 V620.2 C167.64,621.18,168.05,622.07,168.81,622.07 C168.88,622.07,168.9,622.07,168.92,622.06 C168.89,622.05,168.69,621.93,168.69,621.67 C168.69,621.39,168.9,621.24,169.12,621.24 C169.3,621.24,169.55,621.36,169.55,621.68 C169.55,622,169.24,622.29,168.81,622.29 C168.09,622.29,167.73,621.62,167.59,621.2 Z " />
<path
   id="path1141"
   fill="red"
   stroke-width="0"
   stroke="red"
   d="M170.93,620.19 L170.94,620.4 C171,621.88,171.84,622.13,172.18,622.13 C173.2,622.13,173.3,620.79,173.3,620.4 H170.94 L170.93,620.19 H173.71 C173.93,620.19,173.96,620.19,173.96,620.4 C173.96,621.38,173.42,622.35,172.18,622.35 C171.02,622.35,170.1,621.32,170.1,620.08 C170.1,618.75,171.15,617.79,172.3,617.79 C173.51,617.79,173.96,618.89,173.96,619.08 C173.96,619.18,173.88,619.2,173.83,619.2 C173.74,619.2,173.72,619.14,173.7,619.06 C173.35,618.04,172.46,618.04,172.36,618.04 C171.86,618.04,171.46,618.33,171.23,618.7 C170.93,619.18,170.93,619.83,170.93,620.19 Z " />
<path
   id="path1143"
   fill="red"
   stroke-width="0"
   stroke="red"
   d="M175.35,621.31 V618.65 C175.35,618.21,175.24,618.21,174.57,618.21 V617.9 C174.92,617.91,175.43,617.93,175.7,617.93 C175.96,617.93,176.48,617.91,176.81,617.9 V618.21 C176.15,618.21,176.04,618.21,176.04,618.65 V620.48 C176.04,621.51,176.74,622.07,177.38,622.07 C178.01,622.07,178.12,621.53,178.12,620.97 V618.65 C178.12,618.21,178.01,618.21,177.34,618.21 V617.9 C177.69,617.91,178.2,617.93,178.47,617.93 C178.73,617.93,179.25,617.91,179.59,617.9 V618.21 C178.92,618.21,178.81,618.21,178.81,618.65 V620.48 C178.81,621.51,179.52,622.07,180.15,622.07 C180.78,622.07,180.89,621.53,180.89,620.97 V618.65 C180.89,618.21,180.78,618.21,180.12,618.21 V617.9 C180.46,617.91,180.97,617.93,181.24,617.93 C181.5,617.93,182.02,617.91,182.36,617.9 V618.21 C181.84,618.21,181.59,618.21,181.58,618.5 V620.4 C181.58,621.26,181.58,621.56,181.27,621.92 C181.13,622.09,180.8,622.29,180.22,622.29 C179.39,622.29,178.95,621.69,178.78,621.31 C178.64,622.18,177.9,622.29,177.45,622.29 C176.72,622.29,176.26,621.86,175.98,621.24 V622.29 L174.57,622.18 V621.87 C175.27,621.87,175.35,621.8,175.35,621.31 Z " />
<path
   id="path1145"
   fill="red"
   stroke-width="0"
   stroke="red"
   d="M185.87,618.65 L185.88,618.61 L185.88,618.58 L185.89,618.54 L185.9,618.5 L185.91,618.47 L185.92,618.43 L185.93,618.39 L185.95,618.36 L185.96,618.32 L185.98,618.29 L185.99,618.25 L186.01,618.22 L186.03,618.19 L186.06,618.16 L186.08,618.13 L186.1,618.1 L186.13,618.07 L186.15,618.04 L186.18,618.01 L186.21,617.99 L186.24,617.97 L186.27,617.95 L186.3,617.93 L186.34,617.91 L186.37,617.89 L186.41,617.88 L186.45,617.87 L186.48,617.86 L186.52,617.85 L186.57,617.84 L186.61,617.84 L186.65,617.84 C186.86,617.84,187.47,617.98,187.47,618.78 V619.34 H187.22 V618.78 C187.22,618.21,186.97,618.15,186.86,618.15 C186.53,618.15,186.49,618.59,186.49,618.64 V620.63 C186.49,621.05,186.49,621.43,186.13,621.8 C185.74,622.19,185.24,622.35,184.77,622.35 C183.95,622.35,183.26,621.88,183.26,621.22 C183.26,620.93,183.46,620.76,183.72,620.76 C184,620.76,184.18,620.96,184.18,621.22 C184.18,621.33,184.13,621.66,183.67,621.67 C183.94,622.02,184.43,622.13,184.75,622.13 C185.24,622.13,185.8,621.74,185.8,620.86 V620.49 V620.28 V619.29 C185.8,618.34,185.09,618.01,184.64,618.01 C184.15,618.01,183.74,618.35,183.74,618.85 C183.74,619.4,184.16,620.22,185.8,620.28 H185.8 V620.49 C185.29,620.46,184.6,620.43,183.97,620.13 C183.22,619.79,182.97,619.28,182.97,618.84 C182.97,618.04,183.94,617.79,184.57,617.79 C185.23,617.79,185.68,618.18,185.87,618.65 Z " />
<path
   id="path1147"
   fill="red"
   stroke-width="0"
   stroke="red"
   d="M189.2,621.2 V622.29 L187.81,622.18 V621.87 C188.51,621.87,188.59,621.8,188.59,621.31 V618.65 C188.59,618.21,188.48,618.21,187.81,618.21 V617.9 C188.2,617.91,188.67,617.93,188.95,617.93 C189.35,617.93,189.82,617.93,190.22,617.9 V618.21 H190.01 C189.27,618.21,189.25,618.31,189.25,618.67 V620.2 C189.25,621.18,189.67,622.07,190.43,622.07 C190.5,622.07,190.52,622.07,190.54,622.06 C190.51,622.05,190.31,621.93,190.31,621.67 C190.31,621.39,190.52,621.24,190.74,621.24 C190.91,621.24,191.16,621.36,191.16,621.68 C191.16,622,190.85,622.29,190.43,622.29 C189.7,622.29,189.34,621.62,189.2,621.2 Z " />
<path
   id="path1149"
   fill="red"
   stroke-width="0"
   stroke="red"
   d="M192.49,618.65 L192.49,618.63 L192.49,618.61 L192.49,618.57 L192.49,618.54 L192.49,618.5 L192.48,618.47 L192.48,618.44 L192.47,618.42 L192.47,618.39 L192.46,618.37 L192.45,618.35 L192.44,618.33 L192.42,618.31 L192.41,618.3 L192.39,618.28 L192.37,618.27 L192.35,618.26 L192.33,618.25 L192.31,618.24 L192.28,618.23 L192.26,618.23 L192.22,618.22 L192.19,618.22 L192.16,618.21 L192.14,618.21 L192.12,618.21 L192.1,618.21 L192.08,618.21 L192.06,618.21 L192.04,618.21 L192.01,618.21 L191.99,618.21 L191.97,618.21 L191.94,618.21 L191.92,618.21 L191.89,618.21 L191.86,618.21 L191.83,618.21 L191.81,618.21 L191.78,618.21 L191.75,618.21 L191.72,618.21 V617.9 C192.04,617.91,192.51,617.93,192.8,617.93 C193.1,617.93,193.5,617.92,193.9,617.9 V618.21 C193.23,618.21,193.12,618.21,193.12,618.65 V619.67 L193.76,620.22 C194.53,619.17,194.95,618.61,194.95,618.43 C194.95,618.24,194.78,618.21,194.59,618.21 V617.9 C194.87,617.91,195.46,617.93,195.66,617.93 C195.95,617.93,196.24,617.92,196.53,617.9 V618.21 C196.16,618.21,195.94,618.21,195.57,618.73 L194.3,620.51 C194.29,620.53,194.24,620.59,194.24,620.62 C194.24,620.66,194.95,621.26,195.05,621.33 C195.67,621.84,196.09,621.86,196.3,621.87 V622.18 C196.01,622.15,195.88,622.15,195.6,622.15 C195.25,622.15,194.63,622.17,194.49,622.18 V621.87 C194.68,621.86,194.78,621.75,194.78,621.62 C194.78,621.42,194.64,621.3,194.56,621.23 L193.15,620.02 V624.79 L191.72,624.68 V624.37 C192.41,624.37,192.49,624.3,192.49,623.82 Z " />
<path
   id="path1151"
   fill="red"
   stroke-width="0"
   stroke="red"
   d="M199.47,618.65 L199.47,618.61 L199.48,618.58 L199.48,618.54 L199.49,618.5 L199.5,618.47 L199.51,618.43 L199.53,618.39 L199.54,618.36 L199.55,618.32 L199.57,618.29 L199.59,618.25 L199.61,618.22 L199.63,618.19 L199.65,618.16 L199.67,618.13 L199.7,618.1 L199.72,618.07 L199.75,618.04 L199.77,618.01 L199.8,617.99 L199.83,617.97 L199.87,617.95 L199.9,617.93 L199.93,617.91 L199.97,617.89 L200,617.88 L200.04,617.87 L200.08,617.86 L200.12,617.85 L200.16,617.84 L200.2,617.84 L200.24,617.84 C200.46,617.84,201.06,617.98,201.06,618.78 V619.34 H200.81 V618.78 C200.81,618.21,200.56,618.15,200.46,618.15 C200.13,618.15,200.09,618.59,200.09,618.64 V620.63 C200.09,621.05,200.09,621.43,199.73,621.8 C199.34,622.19,198.84,622.35,198.36,622.35 C197.54,622.35,196.85,621.88,196.85,621.22 C196.85,620.93,197.05,620.76,197.31,620.76 C197.59,620.76,197.77,620.96,197.77,621.22 C197.77,621.33,197.72,621.66,197.26,621.67 C197.53,622.02,198.02,622.13,198.34,622.13 C198.83,622.13,199.4,621.74,199.4,620.86 V620.49 V620.28 V619.29 C199.4,618.34,198.68,618.01,198.23,618.01 C197.74,618.01,197.33,618.35,197.33,618.85 C197.33,619.4,197.75,620.22,199.4,620.28 H199.4 V620.49 C198.89,620.46,198.19,620.43,197.56,620.13 C196.82,619.79,196.57,619.28,196.57,618.84 C196.57,618.04,197.53,617.79,198.16,617.79 C198.82,617.79,199.28,618.18,199.47,618.65 Z " />
<path
   id="path1153"
   fill="red"
   stroke-width="0"
   stroke="red"
   d="M202.84,621.64 V624.79 L201.41,624.68 V624.37 C202.1,624.37,202.18,624.3,202.18,623.82 V617.9 H202.43 C202.44,617.91,202.52,618.05,202.79,618.51 C202.94,618.28,203.36,617.79,204.1,617.79 L204.06,618.01 C203.61,618.01,203.25,618.24,203.01,618.61 C202.87,618.82,202.87,618.85,202.87,619.03 H202.87 V621.08 C202.87,621.27,202.87,621.27,202.98,621.43 C203.37,621.99,203.92,622.07,204.16,622.07 C204.61,622.07,204.97,621.81,205.21,621.43 C205.47,621.03,205.5,620.46,205.5,620.05 C205.5,619.68,205.48,619.09,205.19,618.64 C204.98,618.33,204.6,618.01,204.06,618.01 L204.1,617.79 C205.29,617.79,206.32,618.76,206.32,620.04 C206.32,621.3,205.35,622.29,204.21,622.29 C203.43,622.29,203,621.82,202.84,621.64 Z " />
<path
   id="path1155"
   fill="red"
   stroke-width="0"
   stroke="red"
   d="M208.43,624.79 L206.99,624.68 V624.37 C207.69,624.37,207.77,624.3,207.77,623.82 V618.65 C207.77,618.21,207.66,618.21,206.99,618.21 V617.9 C207.32,617.91,207.85,617.93,208.1,617.93 C208.35,617.93,208.84,617.91,209.21,617.9 V618.21 C208.54,618.21,208.43,618.21,208.43,618.65 Z " />
<path
   id="path1157"
   fill="red"
   stroke-width="0"
   stroke="red"
   d="M210.54,620.19 L210.55,620.4 C210.61,621.88,211.45,622.13,211.78,622.13 C212.81,622.13,212.91,620.79,212.91,620.4 H210.55 L210.54,620.19 H213.32 C213.54,620.19,213.57,620.19,213.57,620.4 C213.57,621.38,213.03,622.35,211.78,622.35 C210.63,622.35,209.71,621.32,209.71,620.08 C209.71,618.75,210.76,617.79,211.9,617.79 C213.12,617.79,213.57,618.89,213.57,619.08 C213.57,619.18,213.49,619.2,213.44,619.2 C213.35,619.2,213.33,619.14,213.31,619.06 C212.96,618.04,212.06,618.04,211.96,618.04 C211.46,618.04,211.07,618.33,210.84,618.7 C210.54,619.18,210.54,619.83,210.54,620.19 Z " />
<path
   id="path1159"
   fill="red"
   stroke-width="0"
   stroke="red"
   d="M218.94,624.79 L217.51,624.68 V624.37 C218.2,624.37,218.28,624.3,218.28,623.82 V618.65 C218.28,618.21,218.17,618.21,217.51,618.21 V617.9 C217.83,617.91,218.36,617.93,218.61,617.93 C218.86,617.93,219.35,617.91,219.72,617.9 V618.21 C219.05,618.21,218.94,618.21,218.94,618.65 Z " />
<path
   id="path1161"
   fill="red"
   stroke-width="0"
   stroke="red"
   d="M221.71,622.29 L220.31,622.18 V621.87 C220.96,621.87,221.05,621.81,221.05,621.32 V618.65 C221.05,618.21,220.94,618.21,220.27,618.21 V617.9 C220.59,617.91,221.13,617.93,221.37,617.93 C221.72,617.93,222.07,617.91,222.41,617.9 V618.21 C221.75,618.21,221.71,618.26,221.71,618.64 Z " />
<path
   id="path1163"
   fill="red"
   stroke-width="0"
   stroke="red"
   d="M221.75,624.02 L221.75,624.05 L221.75,624.07 L221.74,624.1 L221.74,624.13 L221.73,624.16 L221.72,624.18 L221.71,624.21 L221.7,624.23 L221.69,624.26 L221.68,624.28 L221.67,624.3 L221.65,624.32 L221.64,624.34 L221.62,624.36 L221.61,624.38 L221.59,624.4 L221.57,624.42 L221.55,624.43 L221.53,624.45 L221.51,624.46 L221.49,624.47 L221.47,624.48 L221.44,624.5 L221.42,624.51 L221.4,624.51 L221.37,624.52 L221.35,624.53 L221.32,624.53 L221.3,624.54 L221.27,624.54 L221.25,624.54 L221.22,624.54 C220.91,624.54,220.69,624.28,220.69,624.02 C220.69,623.75,220.91,623.49,221.22,623.49 C221.5,623.49,221.75,623.7,221.75,624.02 Z " />
<path
   id="path1165"
   fill="red"
   stroke-width="0"
   stroke="red"
   d="M223.81,621.31 V618.65 C223.81,618.21,223.7,618.21,223.03,618.21 V617.9 C223.38,617.91,223.89,617.93,224.16,617.93 C224.42,617.93,224.93,617.91,225.27,617.9 V618.21 C224.61,618.21,224.5,618.21,224.5,618.65 V620.48 C224.5,621.51,225.2,622.07,225.84,622.07 C226.47,622.07,226.58,621.53,226.58,620.97 V618.65 C226.58,618.21,226.47,618.21,225.8,618.21 V617.9 C226.15,617.91,226.66,617.93,226.93,617.93 C227.19,617.93,227.71,617.91,228.05,617.9 V618.21 C227.38,618.21,227.27,618.21,227.27,618.65 V620.48 C227.27,621.51,227.98,622.07,228.61,622.07 C229.24,622.07,229.35,621.53,229.35,620.97 V618.65 C229.35,618.21,229.24,618.21,228.57,618.21 V617.9 C228.92,617.91,229.43,617.93,229.7,617.93 C229.96,617.93,230.48,617.91,230.82,617.9 V618.21 C230.3,618.21,230.05,618.21,230.04,618.5 V620.4 C230.04,621.26,230.04,621.56,229.73,621.92 C229.59,622.09,229.26,622.29,228.68,622.29 C227.85,622.29,227.41,621.69,227.24,621.31 C227.1,622.18,226.36,622.29,225.91,622.29 C225.18,622.29,224.71,621.86,224.44,621.24 V622.29 L223.03,622.18 V621.87 C223.73,621.87,223.81,621.8,223.81,621.31 Z " />
<path
   id="path1167"
   fill="red"
   stroke-width="0"
   stroke="red"
   d="M232.78,622.29 L231.38,622.18 V621.87 C232.03,621.87,232.12,621.81,232.12,621.32 V618.65 C232.12,618.21,232.01,618.21,231.34,618.21 V617.9 C231.66,617.91,232.2,617.93,232.44,617.93 C232.79,617.93,233.14,617.91,233.48,617.9 V618.21 C232.82,618.21,232.78,618.26,232.78,618.64 Z " />
<path
   id="path1169"
   fill="red"
   stroke-width="0"
   stroke="red"
   d="M232.82,624.02 L232.82,624.05 L232.82,624.07 L232.81,624.1 L232.81,624.13 L232.8,624.16 L232.79,624.18 L232.78,624.21 L232.77,624.23 L232.76,624.26 L232.75,624.28 L232.74,624.3 L232.72,624.32 L232.71,624.34 L232.69,624.36 L232.68,624.38 L232.66,624.4 L232.64,624.42 L232.62,624.43 L232.6,624.45 L232.58,624.46 L232.56,624.47 L232.54,624.48 L232.51,624.5 L232.49,624.51 L232.47,624.51 L232.44,624.52 L232.42,624.53 L232.39,624.53 L232.37,624.54 L232.34,624.54 L232.32,624.54 L232.29,624.54 C231.98,624.54,231.76,624.28,231.76,624.02 C231.76,623.75,231.98,623.49,232.29,623.49 C232.57,623.49,232.82,623.7,232.82,624.02 Z " />
<path
   id="path1171"
   fill="red"
   stroke-width="0"
   stroke="red"
   d="M235.51,621.87 H236.93 V622.18 H235.51 V624.01 H235.26 C235.25,623.19,234.95,622.13,233.97,622.09 V621.87 H234.82 V619.13 C234.82,617.91,235.74,617.79,236.1,617.79 C236.81,617.79,237.09,618.49,237.09,619.13 V619.7 H236.84 V619.15 C236.84,618.41,236.54,618.04,236.17,618.04 C235.51,618.04,235.51,618.94,235.51,619.11 Z " />
</g>  </g>
</svg>
