<?xml version="1.0" encoding="UTF-8" standalone="no"?>
<!-- Created with Inkscape (http://www.inkscape.org/) -->

<svg
   xmlns:ns0="http://www.iki.fi/pav/software/textext/"
   xmlns:dc="http://purl.org/dc/elements/1.1/"
   xmlns:cc="http://creativecommons.org/ns#"
   xmlns:rdf="http://www.w3.org/1999/02/22-rdf-syntax-ns#"
   xmlns:svg="http://www.w3.org/2000/svg"
   xmlns="http://www.w3.org/2000/svg"
   xmlns:sodipodi="http://sodipodi.sourceforge.net/DTD/sodipodi-0.dtd"
   xmlns:inkscape="http://www.inkscape.org/namespaces/inkscape"
   width="210mm"
   height="297mm"
   viewBox="0 0 210 296.99999"
   version="1.1"
   id="svg8"
   inkscape:version="0.92.3 (2405546, 2018-03-11)"
   sodipodi:docname="original.svg">
  <sodipodi:namedview
     id="base"
     pagecolor="#ffffff"
     bordercolor="#666666"
     borderopacity="1.0"
     inkscape:pageopacity="0.0"
     inkscape:pageshadow="2"
     inkscape:zoom="0.84580653"
     inkscape:cx="-383.97248"
     inkscape:cy="273.87775"
     inkscape:document-units="mm"
     inkscape:current-layer="layer1"
     showgrid="false"
     inkscape:window-width="2560"
     inkscape:window-height="1007"
     inkscape:window-x="0"
     inkscape:window-y="0"
     inkscape:window-maximized="1" />
  <defs
     id="defs2" />
  <metadata
     id="metadata5">
    <rdf:RDF>
      <cc:Work
         rdf:about="">
        <dc:format>image/svg+xml</dc:format>
        <dc:type
           rdf:resource="http://purl.org/dc/dcmitype/StillImage" />
        <dc:title />
      </cc:Work>
    </rdf:RDF>
  </metadata>
  <g
     id="layer1"
     inkscape:groupmode="layer"
     inkscape:label="Layer 1">
    <g
       ns0:jacobian_sqrt="0.352778"
       inkscapeversion="0.92.3"
       ns0:alignment="middle center"
       ns0:scale="1.0"
       ns0:preamble="/home/sergei/PycharmProjects/textext/extension/textext/default_packages.tex"
       ns0:text="$$\\lim_{n \\to \\infty} \\left(1+\\frac{1}{n}\\right)^n = e$$\n"
       ns0:pdfconverter="pstoedit"
       ns0:texconverter="pdflatex"
       ns0:version="0.8.1"
       text-anchor="start"
       word-spacing="normal"
       letter-spacing="normal"
       font-size-adjust="none"
       font-stretch="normal"
       font-weight="normal"
       font-variant="normal"
       font-style="normal"
       fill-opacity="1"
       fill-rule="evenodd"
       fill="none"
       stroke-opacity="1"
       stroke-dashoffset="0"
       stroke-dasharray="none"
       stroke-miterlimit="10.433"
       stroke-linejoin="miter"
       stroke-linecap="butt"
       stroke="black"
       xml:space="preserve"
       transform="matrix(0.352778, 0.0, 0.0, -0.352778, -2.814248, 375.719018)"
       id="content"
       style="fill:#ee1717;fill-opacity:1;stroke:#e61313;stroke-opacity:1">
<path
   id="path815"
   fill="black"
   stroke-width="0"
   d="M267.87,648.15 L266.43,648.04 V647.73 C267.13,647.73,267.21,647.66,267.21,647.17 V642.01 C267.21,641.56,267.1,641.56,266.43,641.56 V641.25 C266.76,641.26,267.29,641.28,267.54,641.28 C267.79,641.28,268.28,641.26,268.65,641.25 V641.56 C267.98,641.56,267.87,641.56,267.87,642.01 Z "
   style="fill:#ee1717;fill-opacity:1;stroke:#e61313;stroke-opacity:1" />
<path
   id="path817"
   fill="black"
   stroke-width="0"
   d="M270.64,645.65 L269.24,645.53 V645.23 C269.89,645.23,269.98,645.17,269.98,644.68 V642.01 C269.98,641.56,269.87,641.56,269.2,641.56 V641.25 C269.52,641.26,270.06,641.28,270.3,641.28 C270.65,641.28,271,641.26,271.34,641.25 V641.56 C270.68,641.56,270.64,641.61,270.64,642 Z "
   style="fill:#ee1717;fill-opacity:1;stroke:#e61313;stroke-opacity:1" />
<path
   id="path819"
   fill="black"
   stroke-width="0"
   d="M270.68,647.37 L270.68,647.4 L270.68,647.43 L270.67,647.46 L270.67,647.49 L270.66,647.51 L270.65,647.54 L270.64,647.56 L270.63,647.59 L270.62,647.61 L270.61,647.64 L270.6,647.66 L270.58,647.68 L270.57,647.7 L270.55,647.72 L270.54,647.74 L270.52,647.76 L270.5,647.77 L270.48,647.79 L270.46,647.8 L270.44,647.82 L270.42,647.83 L270.4,647.84 L270.37,647.85 L270.35,647.86 L270.33,647.87 L270.3,647.88 L270.28,647.89 L270.25,647.89 L270.23,647.89 L270.2,647.9 L270.18,647.9 L270.15,647.9 C269.84,647.9,269.62,647.63,269.62,647.37 C269.62,647.1,269.84,646.85,270.15,646.85 C270.43,646.85,270.68,647.05,270.68,647.37 Z "
   style="fill:#ee1717;fill-opacity:1;stroke:#e61313;stroke-opacity:1" />
<path
   id="path821"
   fill="black"
   stroke-width="0"
   d="M272.74,644.67 V642.01 C272.74,641.56,272.63,641.56,271.96,641.56 V641.25 C272.31,641.26,272.82,641.28,273.09,641.28 C273.35,641.28,273.86,641.26,274.2,641.25 V641.56 C273.54,641.56,273.42,641.56,273.42,642.01 V643.84 C273.42,644.87,274.13,645.43,274.77,645.43 C275.4,645.43,275.51,644.89,275.51,644.32 V642.01 C275.51,641.56,275.4,641.56,274.73,641.56 V641.25 C275.08,641.26,275.59,641.28,275.86,641.28 C276.12,641.28,276.64,641.26,276.98,641.25 V641.56 C276.31,641.56,276.2,641.56,276.2,642.01 V643.84 C276.2,644.87,276.9,645.43,277.54,645.43 C278.17,645.43,278.28,644.89,278.28,644.32 V642.01 C278.28,641.56,278.17,641.56,277.5,641.56 V641.25 C277.85,641.26,278.36,641.28,278.63,641.28 C278.89,641.28,279.41,641.26,279.75,641.25 V641.56 C279.23,641.56,278.98,641.56,278.97,641.86 V643.76 C278.97,644.61,278.97,644.92,278.66,645.28 C278.52,645.45,278.19,645.65,277.61,645.65 C276.78,645.65,276.34,645.05,276.17,644.67 C276.03,645.53,275.29,645.65,274.84,645.65 C274.11,645.65,273.64,645.22,273.36,644.6 V645.65 L271.96,645.53 V645.23 C272.66,645.23,272.74,645.16,272.74,644.67 Z "
   style="fill:#ee1717;fill-opacity:1;stroke:#e61313;stroke-opacity:1" />
<path
   id="path823"
   fill="black"
   stroke-width="0"
   d="M263.47,635.71 L263.47,635.71 L263.47,635.7 L263.46,635.69 L263.46,635.68 L263.46,635.67 L263.45,635.66 L263.45,635.65 L263.45,635.63 L263.44,635.61 L263.44,635.59 L263.43,635.57 L263.43,635.55 L263.42,635.53 L263.42,635.52 L263.42,635.51 L263.42,635.5 L263.41,635.5 L263.41,635.49 L263.41,635.48 L263.41,635.47 L263.41,635.46 L263.41,635.46 L263.4,635.45 L263.4,635.44 L263.4,635.44 L263.4,635.43 L263.4,635.43 L263.4,635.43 L263.4,635.43 L263.4,635.43 C263.4,635.28,263.53,635.21,263.64,635.21 C263.77,635.21,263.88,635.3,263.91,635.36 C263.95,635.42,264,635.65,264.04,635.79 C264.07,635.92,264.15,636.24,264.19,636.42 C264.23,636.57,264.27,636.72,264.31,636.88 C264.39,637.17,264.4,637.22,264.6,637.51 C264.8,637.79,265.13,638.15,265.65,638.15 C266.06,638.15,266.07,637.79,266.07,637.66 C266.07,637.24,265.76,636.47,265.65,636.18 C265.58,635.98,265.55,635.92,265.55,635.8 C265.55,635.44,265.86,635.21,266.21,635.21 C266.91,635.21,267.22,636.17,267.22,636.27 C267.22,636.36,267.13,636.36,267.11,636.36 C267.01,636.36,267,636.32,266.97,636.24 C266.81,635.69,266.51,635.4,266.23,635.4 C266.09,635.4,266.06,635.5,266.06,635.65 C266.06,635.8,266.09,635.9,266.22,636.21 C266.3,636.42,266.59,637.16,266.59,637.55 C266.59,638.22,266.05,638.34,265.68,638.34 C265.1,638.34,264.71,637.99,264.5,637.71 C264.45,638.19,264.04,638.34,263.75,638.34 C263.45,638.34,263.29,638.13,263.2,637.97 C263.05,637.71,262.95,637.31,262.95,637.28 C262.95,637.19,263.05,637.19,263.07,637.19 C263.16,637.19,263.17,637.21,263.22,637.4 C263.32,637.81,263.46,638.15,263.73,638.15 C263.91,638.15,263.96,637.99,263.96,637.81 C263.96,637.67,263.9,637.42,263.85,637.23 C263.8,637.04,263.73,636.76,263.7,636.6 Z "
   style="fill:#ee1717;fill-opacity:1;stroke:#e61313;stroke-opacity:1" />
<path
   id="path825"
   fill="black"
   stroke-width="0"
   d="M273.98,636.85 L273.9,636.79 L273.82,636.72 L273.75,636.66 L273.68,636.6 L273.62,636.53 L273.56,636.47 L273.5,636.4 L273.45,636.34 L273.4,636.27 L273.35,636.2 L273.31,636.14 L273.27,636.08 L273.24,636.01 L273.2,635.95 L273.17,635.89 L273.15,635.83 L273.12,635.77 L273.1,635.72 L273.08,635.67 L273.06,635.62 L273.04,635.57 L273.03,635.53 L273.02,635.48 L273.01,635.45 L273,635.41 L272.99,635.38 L272.99,635.35 L272.98,635.33 L272.98,635.31 L272.98,635.3 L272.98,635.29 L272.98,635.29 C272.98,635.19,273.05,635.19,273.14,635.19 C273.27,635.19,273.29,635.19,273.33,635.3 C273.37,635.48,273.48,635.92,273.84,636.3 C274.25,636.73,274.6,636.83,274.89,636.92 C274.93,636.94,274.96,636.98,274.96,637.01 C274.96,637.08,274.92,637.1,274.83,637.13 C273.82,637.45,273.46,638.16,273.32,638.77 C273.29,638.85,273.24,638.85,273.14,638.85 C273.05,638.85,272.98,638.85,272.98,638.75 C272.98,638.73,273.05,638.27,273.39,637.79 C273.55,637.55,273.74,637.35,273.98,637.19 H268.36 C268.25,637.19,268.08,637.19,268.08,637.02 C268.08,636.85,268.24,636.85,268.36,636.85 Z "
   style="fill:#ee1717;fill-opacity:1;stroke:#e61313;stroke-opacity:1" />
<path
   id="path827"
   fill="black"
   stroke-width="0"
   d="M279.53,637.18 L279.49,637.22 L279.46,637.26 L279.43,637.29 L279.4,637.33 L279.37,637.36 L279.34,637.39 L279.32,637.42 L279.29,637.45 L279.27,637.48 L279.24,637.51 L279.22,637.53 L279.2,637.55 L279.18,637.58 L279.15,637.6 L279.13,637.62 L279.11,637.64 L279.07,637.68 L279.03,637.72 L279,637.75 L278.96,637.78 L278.91,637.82 L278.87,637.85 L278.85,637.87 L278.83,637.88 L278.8,637.9 L278.78,637.92 C278.35,638.22,277.9,638.34,277.52,638.34 C276.65,638.34,276.02,637.6,276.02,636.77 H276.22 C276.22,637.44,276.77,637.96,277.41,637.96 C278.06,637.96,278.51,637.43,279.18,636.62 H279.18 C278.9,636.17,278.29,635.47,277.44,635.47 C276.72,635.47,276.22,636.1,276.22,636.77 H276.02 C276.02,635.96,276.62,635.21,277.5,635.21 C278.47,635.21,279.15,636,279.4,636.37 C279.77,635.94,279.88,635.82,280.15,635.63 C280.58,635.33,281.02,635.21,281.41,635.21 C282.27,635.21,282.9,635.94,282.9,636.78 H282.71 C282.71,636.11,282.16,635.59,281.52,635.59 C280.87,635.59,280.42,636.12,279.75,636.92 H279.75 C280.03,637.38,280.64,638.08,281.49,638.08 C282.21,638.08,282.71,637.45,282.71,636.78 H282.9 C282.9,637.59,282.3,638.34,281.43,638.34 C280.46,638.34,279.78,637.55,279.53,637.18 Z "
   style="fill:#ee1717;fill-opacity:1;stroke:#e61313;stroke-opacity:1" />
<path
   id="path829"
   fill="black"
   stroke-width="0"
   d="M292.07,631.97 L292.07,631.97 L292.07,631.97 L292.07,631.98 L292.07,631.98 L292.07,631.98 L292.07,631.99 L292.07,631.99 L292.07,631.99 L292.06,632 L292.06,632 L292.06,632 L292.06,632 L292.06,632.01 L292.06,632.01 L292.06,632.01 L292.06,632.01 L292.05,632.02 L292.05,632.02 L292.05,632.03 L292.04,632.03 L292.04,632.04 L292.04,632.05 L292.03,632.05 L292.03,632.06 C291.66,632.42,290.99,633.09,290.32,634.16 C288.72,636.72,287.99,639.95,287.99,643.78 C287.99,646.45,288.35,649.9,289.99,652.86 C290.78,654.27,291.6,655.08,292.04,655.52 C292.07,655.55,292.07,655.57,292.07,655.6 C292.07,655.7,292,655.7,291.86,655.7 C291.72,655.7,291.7,655.7,291.55,655.55 C288.21,652.52,287.16,647.97,287.16,643.79 C287.16,639.88,288.06,635.95,290.59,632.98 C290.79,632.75,291.17,632.34,291.58,631.99 C291.7,631.87,291.72,631.87,291.86,631.87 C292,631.87,292.07,631.87,292.07,631.97 Z "
   style="fill:#ee1717;fill-opacity:1;stroke:#e61313;stroke-opacity:1" />
<path
   id="path831"
   fill="black"
   stroke-width="0"
   d="M295.35,647.61 L295.35,647.62 L295.35,647.63 L295.35,647.64 L295.35,647.65 L295.35,647.66 L295.35,647.67 L295.35,647.68 L295.35,647.69 L295.35,647.7 L295.35,647.71 L295.35,647.72 L295.35,647.72 L295.35,647.73 L295.35,647.74 L295.35,647.75 L295.35,647.75 L295.35,647.76 L295.35,647.77 L295.35,647.78 L295.34,647.79 L295.34,647.8 L295.34,647.81 L295.33,647.82 L295.33,647.82 L295.33,647.83 L295.32,647.84 L295.31,647.84 L295.31,647.85 L295.3,647.85 L295.29,647.85 L295.28,647.86 L295.28,647.86 L295.27,647.86 L295.27,647.86 L295.26,647.86 L295.26,647.86 L295.25,647.86 L295.24,647.87 L295.24,647.87 L295.23,647.87 L295.22,647.87 L295.22,647.87 L295.21,647.87 L295.2,647.87 L295.19,647.87 L295.18,647.87 L295.17,647.87 L295.16,647.87 L295.15,647.87 L295.14,647.87 L295.13,647.87 L295.12,647.87 C294.51,647.23,293.63,647.23,293.31,647.23 V646.93 C293.51,646.93,294.1,646.93,294.62,647.18 V642.04 C294.62,641.68,294.59,641.56,293.69,641.56 H293.37 V641.25 C293.72,641.28,294.59,641.28,294.98,641.28 C295.38,641.28,296.25,641.28,296.6,641.25 V641.56 H296.28 C295.38,641.56,295.35,641.67,295.35,642.04 Z "
   style="fill:#ee1717;fill-opacity:1;stroke:#e61313;stroke-opacity:1" />
<path
   id="path833"
   fill="black"
   stroke-width="0"
   d="M303.69,643.54 H306.48 C306.61,643.54,306.8,643.54,306.8,643.74 C306.8,643.94,306.61,643.94,306.48,643.94 H303.69 V646.72 C303.69,646.86,303.69,647.04,303.49,647.04 C303.3,647.04,303.3,646.86,303.3,646.72 V643.94 H300.5 C300.36,643.94,300.17,643.94,300.17,643.74 C300.17,643.54,300.36,643.54,300.5,643.54 H303.3 V640.76 C303.3,640.62,303.3,640.43,303.49,640.43 C303.69,640.43,303.69,640.62,303.69,640.76 Z "
   style="fill:#ee1717;fill-opacity:1;stroke:#e61313;stroke-opacity:1" />
<path
   id="path835"
   fill="black"
   stroke-width="0"
   d="M314.21,654.35 L314.21,654.36 L314.21,654.37 L314.21,654.38 L314.21,654.39 L314.21,654.4 L314.21,654.41 L314.21,654.42 L314.21,654.43 L314.21,654.44 L314.21,654.45 L314.21,654.46 L314.21,654.46 L314.21,654.47 L314.2,654.48 L314.2,654.48 L314.2,654.49 L314.2,654.5 L314.2,654.5 L314.2,654.52 L314.2,654.53 L314.19,654.54 L314.19,654.55 L314.19,654.55 L314.18,654.56 L314.18,654.57 L314.17,654.58 L314.17,654.58 L314.16,654.59 L314.15,654.59 L314.14,654.59 L314.14,654.6 L314.13,654.6 L314.13,654.6 L314.12,654.6 L314.12,654.6 L314.11,654.6 L314.1,654.6 L314.1,654.6 L314.09,654.6 L314.08,654.61 L314.08,654.61 L314.07,654.61 L314.06,654.61 L314.05,654.61 L314.04,654.61 L314.04,654.61 L314.03,654.61 L314.02,654.61 L314.01,654.61 L314,654.61 L313.99,654.61 L313.98,654.61 C313.36,653.97,312.48,653.97,312.16,653.97 V653.66 C312.36,653.66,312.95,653.66,313.47,653.92 V648.78 C313.47,648.42,313.44,648.3,312.54,648.3 H312.22 V647.99 C312.57,648.02,313.44,648.02,313.84,648.02 C314.24,648.02,315.1,648.02,315.45,647.99 V648.3 H315.13 C314.24,648.3,314.21,648.41,314.21,648.78 Z "
   style="fill:#ee1717;fill-opacity:1;stroke:#e61313;stroke-opacity:1" />
<line
   id="line837"
   stroke-width="0.398"
   y2="643.74"
   x2="316.76"
   y1="643.74"
   x1="310.77"
   style="fill:#ee1717;fill-opacity:1;stroke:#e61313;stroke-opacity:1" />
<path
   id="path839"
   fill="black"
   stroke-width="0"
   d="M311.65,635.01 L311.65,634.99 L311.65,634.98 L311.64,634.96 L311.64,634.95 L311.63,634.92 L311.63,634.88 L311.62,634.85 L311.61,634.82 L311.6,634.79 L311.6,634.76 L311.59,634.74 L311.59,634.73 L311.59,634.71 L311.58,634.7 L311.58,634.68 L311.58,634.67 L311.58,634.66 L311.57,634.65 L311.57,634.63 L311.57,634.62 L311.57,634.61 L311.57,634.61 L311.56,634.6 L311.56,634.59 L311.56,634.58 L311.56,634.58 C311.56,634.4,311.7,634.31,311.85,634.31 C311.97,634.31,312.15,634.39,312.22,634.59 C312.23,634.61,312.35,635.08,312.41,635.32 L312.63,636.22 C312.69,636.44,312.75,636.66,312.8,636.88 C312.84,637.05,312.92,637.34,312.93,637.38 C313.08,637.69,313.61,638.59,314.55,638.59 C315,638.59,315.09,638.22,315.09,637.9 C315.09,637.28,314.6,636.01,314.45,635.58 C314.36,635.35,314.35,635.23,314.35,635.12 C314.35,634.66,314.69,634.31,315.16,634.31 C316.1,634.31,316.47,635.76,316.47,635.84 C316.47,635.94,316.38,635.94,316.35,635.94 C316.25,635.94,316.25,635.91,316.2,635.76 C316,635.09,315.67,634.53,315.18,634.53 C315.01,634.53,314.94,634.63,314.94,634.86 C314.94,635.1,315.03,635.34,315.12,635.56 C315.31,636.09,315.73,637.18,315.73,637.75 C315.73,638.41,315.3,638.81,314.58,638.81 C313.69,638.81,313.2,638.17,313.03,637.95 C312.98,638.5,312.57,638.81,312.11,638.81 C311.65,638.81,311.46,638.42,311.36,638.24 C311.2,637.91,311.06,637.32,311.06,637.28 C311.06,637.18,311.16,637.18,311.18,637.18 C311.28,637.18,311.29,637.19,311.35,637.41 C311.52,638.11,311.72,638.59,312.08,638.59 C312.28,638.59,312.39,638.46,312.39,638.14 C312.39,637.93,312.36,637.82,312.23,637.3 Z "
   style="fill:#ee1717;fill-opacity:1;stroke:#e61313;stroke-opacity:1" />
<path
   id="path841"
   fill="black"
   stroke-width="0"
   d="M323.21,643.78 L323.2,644.51 L323.16,645.24 L323.11,645.97 L323.03,646.7 L322.92,647.42 L322.79,648.13 L322.63,648.84 L322.44,649.53 L322.22,650.22 L322.1,650.56 L321.97,650.89 L321.84,651.22 L321.69,651.55 L321.54,651.87 L321.38,652.19 L321.21,652.51 L321.03,652.82 L320.85,653.13 L320.65,653.43 L320.45,653.73 L320.23,654.02 L320.01,654.3 L319.78,654.59 C319.58,654.81,319.2,655.22,318.79,655.58 C318.67,655.7,318.65,655.7,318.51,655.7 C318.39,655.7,318.3,655.7,318.3,655.6 C318.3,655.56,318.34,655.52,318.36,655.5 C318.71,655.14,319.38,654.48,320.05,653.4 C321.65,650.84,322.38,647.61,322.38,643.79 C322.38,641.11,322.02,637.67,320.37,634.71 C319.59,633.3,318.76,632.47,318.34,632.06 C318.32,632.03,318.3,632,318.3,631.97 C318.3,631.87,318.39,631.87,318.51,631.87 C318.65,631.87,318.67,631.87,318.82,632.02 C322.16,635.05,323.21,639.59,323.21,643.78 Z "
   style="fill:#ee1717;fill-opacity:1;stroke:#e61313;stroke-opacity:1" />
<path
   id="path843"
   fill="black"
   stroke-width="0"
   d="M326.14,653.67 L326.13,653.67 L326.13,653.66 L326.13,653.65 L326.13,653.64 L326.12,653.63 L326.12,653.62 L326.12,653.61 L326.11,653.59 L326.11,653.57 L326.1,653.55 L326.1,653.53 L326.09,653.51 L326.09,653.49 L326.09,653.48 L326.08,653.47 L326.08,653.46 L326.08,653.46 L326.08,653.45 L326.08,653.44 L326.07,653.43 L326.07,653.42 L326.07,653.42 L326.07,653.41 L326.07,653.4 L326.07,653.4 L326.07,653.39 L326.07,653.39 L326.07,653.39 L326.07,653.39 L326.07,653.39 C326.07,653.24,326.19,653.17,326.3,653.17 C326.43,653.17,326.54,653.26,326.58,653.32 C326.61,653.38,326.67,653.6,326.7,653.75 C326.74,653.88,326.82,654.2,326.86,654.38 C326.9,654.53,326.94,654.68,326.98,654.84 C327.05,655.13,327.07,655.18,327.27,655.47 C327.46,655.75,327.79,656.11,328.32,656.11 C328.72,656.11,328.73,655.75,328.73,655.62 C328.73,655.2,328.43,654.43,328.32,654.14 C328.24,653.95,328.21,653.88,328.21,653.76 C328.21,653.4,328.52,653.17,328.88,653.17 C329.58,653.17,329.89,654.13,329.89,654.23 C329.89,654.32,329.79,654.32,329.77,654.32 C329.67,654.32,329.67,654.28,329.64,654.2 C329.48,653.65,329.18,653.36,328.9,653.36 C328.75,653.36,328.72,653.46,328.72,653.6 C328.72,653.76,328.76,653.85,328.89,654.17 C328.97,654.38,329.26,655.12,329.26,655.51 C329.26,656.18,328.72,656.3,328.35,656.3 C327.77,656.3,327.38,655.95,327.17,655.67 C327.12,656.15,326.7,656.3,326.42,656.3 C326.12,656.3,325.95,656.09,325.86,655.93 C325.71,655.67,325.61,655.27,325.61,655.24 C325.61,655.15,325.71,655.15,325.73,655.15 C325.83,655.15,325.84,655.17,325.89,655.36 C325.99,655.77,326.12,656.11,326.4,656.11 C326.58,656.11,326.63,655.96,326.63,655.77 C326.63,655.64,326.56,655.38,326.52,655.19 C326.47,655,326.4,654.72,326.36,654.56 Z "
   style="fill:#ee1717;fill-opacity:1;stroke:#e61313;stroke-opacity:1" />
<path
   id="path845"
   fill="black"
   stroke-width="0"
   d="M340.33,644.5 L340.35,644.5 L340.38,644.5 L340.41,644.5 L340.43,644.5 L340.44,644.51 L340.46,644.51 L340.47,644.51 L340.48,644.51 L340.5,644.51 L340.51,644.52 L340.53,644.52 L340.54,644.52 L340.55,644.53 L340.56,644.53 L340.58,644.54 L340.59,644.54 L340.6,644.55 L340.61,644.56 L340.62,644.57 L340.63,644.58 L340.63,644.59 L340.64,644.59 L340.64,644.6 L340.64,644.6 L340.65,644.61 L340.65,644.62 L340.65,644.62 L340.65,644.63 L340.66,644.64 L340.66,644.64 L340.66,644.65 L340.66,644.66 L340.66,644.67 L340.66,644.67 L340.66,644.68 L340.66,644.69 L340.67,644.7 C340.67,644.9,340.48,644.9,340.34,644.9 H334.36 C334.22,644.9,334.03,644.9,334.03,644.7 C334.03,644.5,334.22,644.5,334.37,644.5 Z "
   style="fill:#ee1717;fill-opacity:1;stroke:#e61313;stroke-opacity:1" />
<path
   id="path847"
   fill="black"
   stroke-width="0"
   d="M340.34,642.58 L340.35,642.58 L340.36,642.58 L340.39,642.58 L340.42,642.58 L340.43,642.58 L340.45,642.58 L340.46,642.58 L340.47,642.58 L340.49,642.58 L340.5,642.59 L340.51,642.59 L340.53,642.59 L340.54,642.6 L340.55,642.6 L340.56,642.6 L340.58,642.61 L340.59,642.62 L340.6,642.62 L340.61,642.63 L340.62,642.64 L340.63,642.65 L340.63,642.65 L340.63,642.66 L340.64,642.66 L340.64,642.67 L340.64,642.68 L340.65,642.68 L340.65,642.69 L340.65,642.69 L340.65,642.7 L340.66,642.71 L340.66,642.72 L340.66,642.72 L340.66,642.73 L340.66,642.74 L340.66,642.75 L340.66,642.76 L340.66,642.76 L340.67,642.77 C340.67,642.97,340.48,642.97,340.33,642.97 H334.37 C334.22,642.97,334.03,642.97,334.03,642.77 C334.03,642.58,334.22,642.58,334.36,642.58 Z "
   style="fill:#ee1717;fill-opacity:1;stroke:#e61313;stroke-opacity:1" />
<path
   id="path849"
   fill="black"
   stroke-width="0"
   d="M345.86,643.55 L345.88,643.55 L345.92,643.55 L345.95,643.55 L345.98,643.55 L346.02,643.55 L346.06,643.55 L346.1,643.55 L346.15,643.56 L346.19,643.56 L346.24,643.56 L346.29,643.56 L346.33,643.57 L346.38,643.57 L346.44,643.57 L346.54,643.58 L346.65,643.6 L346.76,643.61 L346.86,643.63 L346.97,643.65 L347.08,643.68 L347.13,643.69 L347.18,643.71 L347.24,643.72 L347.28,643.74 L347.33,643.76 L347.38,643.78 C348.08,644.08,348.13,644.66,348.13,644.8 C348.13,645.24,347.75,645.65,347.06,645.65 V645.43 C347.53,645.43,347.8,645.14,347.8,644.8 C347.8,643.77,346.2,643.77,345.8,643.77 H345.39 C345.78,645.28,346.8,645.43,347.06,645.43 V645.65 C345.96,645.65,344.45,644.68,344.45,642.94 C344.45,641.93,345.04,641.15,346.02,641.15 C347.44,641.15,348.28,642.2,348.28,642.32 C348.28,642.38,348.22,642.45,348.16,642.45 C348.11,642.45,348.09,642.43,348.03,642.35 C347.24,641.36,346.15,641.36,346.04,641.36 C345.26,641.36,345.17,642.2,345.17,642.52 C345.17,642.64,345.18,642.94,345.33,643.55 Z "
   style="fill:#ee1717;fill-opacity:1;stroke:#e61313;stroke-opacity:1" />
</g>  </g>
</svg>
