<?xml version="1.0" encoding="UTF-8" standalone="no"?>
<!-- Created with Inkscape (http://www.inkscape.org/) -->

<svg
   xmlns:ns0="http://www.iki.fi/pav/software/textext/"
   xmlns:dc="http://purl.org/dc/elements/1.1/"
   xmlns:cc="http://creativecommons.org/ns#"
   xmlns:rdf="http://www.w3.org/1999/02/22-rdf-syntax-ns#"
   xmlns:svg="http://www.w3.org/2000/svg"
   xmlns="http://www.w3.org/2000/svg"
   xmlns:sodipodi="http://sodipodi.sourceforge.net/DTD/sodipodi-0.dtd"
   xmlns:inkscape="http://www.inkscape.org/namespaces/inkscape"
   width="210mm"
   height="297mm"
   viewBox="0 0 210 296.99999"
   version="1.1"
   id="svg8"
   inkscape:version="0.92.3 (2405546, 2018-03-11)"
   sodipodi:docname="modified.svg">
  <sodipodi:namedview
     id="base"
     pagecolor="#ffffff"
     bordercolor="#666666"
     borderopacity="1.0"
     inkscape:pageopacity="0.0"
     inkscape:pageshadow="2"
     inkscape:zoom="0.59807552"
     inkscape:cx="-246.70373"
     inkscape:cy="534.55999"
     inkscape:document-units="mm"
     inkscape:current-layer="layer1"
     showgrid="false"
     inkscape:window-width="2560"
     inkscape:window-height="1007"
     inkscape:window-x="0"
     inkscape:window-y="0"
     inkscape:window-maximized="1" />
  <defs
     id="defs2" />
  <metadata
     id="metadata5">
    <rdf:RDF>
      <cc:Work
         rdf:about="">
        <dc:format>image/svg+xml</dc:format>
        <dc:type
           rdf:resource="http://purl.org/dc/dcmitype/StillImage" />
        <dc:title />
      </cc:Work>
    </rdf:RDF>
  </metadata>
  <g
     inkscape:label="Layer 1"
     inkscape:groupmode="layer"
     id="layer1">
    <g
       ns0:preamble="/home/sergei/PycharmProjects/textext/extension/textext/default_packages.tex"
       ns0:text="$$\\lim_{k \\to \\infty} \\left(1+\\frac{1}{k}\\right)^k = e$$"
       text-anchor="start"
       word-spacing="normal"
       letter-spacing="normal"
       font-size-adjust="none"
       font-stretch="normal"
       font-weight="normal"
       font-variant="normal"
       font-style="normal"
       fill-opacity="1"
       fill-rule="evenodd"
       fill="none"
       stroke-opacity="1"
       stroke-dashoffset="0"
       stroke-dasharray="none"
       stroke-miterlimit="10.433"
       stroke-linejoin="miter"
       stroke-linecap="butt"
       stroke="black"
       xml:space="preserve"
       transform="matrix(1.000000,0,0,-1.000000,-200.000000,750.000000)"
       id="content">
<path
   id="path837"
   fill="black"
   stroke-width="0"
   d="M358.03,477.27 L356.6,477.16 V476.85 C357.3,476.85,357.38,476.78,357.38,476.29 V471.13 C357.38,470.68,357.27,470.68,356.6,470.68 V470.37 C356.93,470.38,357.46,470.4,357.7,470.4 C357.95,470.4,358.44,470.38,358.81,470.37 V470.68 C358.14,470.68,358.03,470.68,358.03,471.13 Z " />
<path
   id="path839"
   fill="black"
   stroke-width="0"
   d="M360.8,474.76 L359.41,474.65 V474.35 C360.05,474.35,360.14,474.29,360.14,473.8 V471.13 C360.14,470.68,360.03,470.68,359.37,470.68 V470.37 C359.68,470.38,360.22,470.4,360.46,470.4 C360.81,470.4,361.16,470.38,361.5,470.37 V470.68 C360.84,470.68,360.8,470.73,360.8,471.12 Z " />
<path
   id="path841"
   fill="black"
   stroke-width="0"
   d="M360.84,476.49 L360.84,476.52 L360.84,476.55 L360.84,476.58 L360.83,476.6 L360.82,476.63 L360.82,476.66 L360.81,476.68 L360.8,476.71 L360.79,476.73 L360.78,476.75 L360.76,476.78 L360.75,476.8 L360.73,476.82 L360.72,476.84 L360.7,476.86 L360.68,476.87 L360.66,476.89 L360.64,476.91 L360.62,476.92 L360.6,476.94 L360.58,476.95 L360.56,476.96 L360.54,476.97 L360.51,476.98 L360.49,476.99 L360.47,477 L360.44,477 L360.42,477.01 L360.39,477.01 L360.36,477.02 L360.34,477.02 L360.31,477.02 C360,477.02,359.78,476.75,359.78,476.49 C359.78,476.22,360,475.96,360.31,475.96 C360.59,475.96,360.84,476.17,360.84,476.49 Z " />
<path
   id="path843"
   fill="black"
   stroke-width="0"
   d="M362.9,473.79 V471.13 C362.9,470.68,362.79,470.68,362.12,470.68 V470.37 C362.47,470.38,362.98,470.4,363.25,470.4 C363.51,470.4,364.03,470.38,364.37,470.37 V470.68 C363.7,470.68,363.59,470.68,363.59,471.13 V472.95 C363.59,473.99,364.3,474.54,364.93,474.54 C365.56,474.54,365.67,474.01,365.67,473.44 V471.13 C365.67,470.68,365.56,470.68,364.89,470.68 V470.37 C365.24,470.38,365.75,470.4,366.02,470.4 C366.28,470.4,366.8,470.38,367.14,470.37 V470.68 C366.47,470.68,366.36,470.68,366.36,471.13 V472.95 C366.36,473.99,367.07,474.54,367.71,474.54 C368.34,474.54,368.45,474.01,368.45,473.44 V471.13 C368.45,470.68,368.34,470.68,367.67,470.68 V470.37 C368.02,470.38,368.52,470.4,368.8,470.4 C369.05,470.4,369.57,470.38,369.91,470.37 V470.68 C369.39,470.68,369.14,470.68,369.13,470.98 V472.88 C369.13,473.73,369.13,474.04,368.83,474.39 C368.68,474.56,368.36,474.76,367.78,474.76 C366.94,474.76,366.5,474.17,366.33,473.79 C366.19,474.65,365.45,474.76,365.01,474.76 C364.28,474.76,363.81,474.34,363.53,473.72 V474.76 L362.12,474.65 V474.35 C362.82,474.35,362.9,474.28,362.9,473.79 Z " />
<path
   id="path845"
   fill="black"
   stroke-width="0"
   d="M355.23,468.49 L355.23,468.49 L355.23,468.49 L355.23,468.49 L355.23,468.49 L355.23,468.49 L355.23,468.49 L355.23,468.49 L355.23,468.49 L355.24,468.5 L355.24,468.5 L355.24,468.5 L355.24,468.51 L355.24,468.51 L355.24,468.52 L355.24,468.52 L355.24,468.53 L355.24,468.53 L355.25,468.54 L355.25,468.54 L355.25,468.55 L355.25,468.56 L355.25,468.56 L355.25,468.57 L355.25,468.57 L355.25,468.58 L355.26,468.58 L355.26,468.58 L355.26,468.59 L355.26,468.59 L355.26,468.59 L355.26,468.59 L355.26,468.59 L355.26,468.59 L355.26,468.59 L355.26,468.59 L355.26,468.6 L355.26,468.6 L355.26,468.6 L355.26,468.6 L355.26,468.6 C355.26,468.63,355.23,468.7,355.15,468.7 C355.01,468.7,354.43,468.64,354.25,468.62 C354.2,468.62,354.1,468.61,354.1,468.46 C354.1,468.37,354.2,468.37,354.28,468.37 C354.62,468.37,354.62,468.32,354.62,468.26 C354.62,468.21,354.6,468.17,354.59,468.11 L353.6,464.17 C353.57,464.05,353.57,464.04,353.57,464.02 C353.57,463.92,353.65,463.8,353.8,463.8 C353.99,463.8,354.08,463.94,354.13,464.09 C354.14,464.12,354.44,465.34,354.47,465.44 C354.97,465.39,355.36,465.23,355.36,464.87 C355.36,464.84,355.36,464.8,355.35,464.73 C355.32,464.63,355.32,464.59,355.32,464.52 C355.32,464.02,355.73,463.8,356.06,463.8 C356.74,463.8,356.95,464.86,356.95,464.86 C356.95,464.95,356.86,464.95,356.84,464.95 C356.74,464.95,356.73,464.92,356.7,464.79 C356.62,464.49,356.43,463.99,356.08,463.99 C355.9,463.99,355.84,464.17,355.84,464.36 C355.84,464.47,355.84,464.49,355.88,464.67 C355.89,464.69,355.92,464.81,355.92,464.88 C355.92,465.5,355.08,465.6,354.78,465.62 C354.99,465.75,355.24,465.98,355.36,466.08 C355.72,466.41,356.07,466.74,356.46,466.74 C356.55,466.74,356.64,466.72,356.69,466.65 C356.39,466.6,356.33,466.36,356.33,466.26 C356.33,466.11,356.45,466,356.61,466 C356.8,466,357.01,466.16,357.01,466.45 C357.01,466.68,356.84,466.94,356.47,466.94 C356.07,466.94,355.71,466.65,355.35,466.32 C355.06,466.05,354.83,465.83,354.54,465.71 Z " />
<path
   id="path847"
   fill="black"
   stroke-width="0"
   d="M363.88,465.44 L363.8,465.38 L363.72,465.32 L363.65,465.25 L363.58,465.19 L363.52,465.13 L363.46,465.06 L363.4,464.99 L363.35,464.93 L363.3,464.86 L363.26,464.8 L363.22,464.73 L363.18,464.67 L363.14,464.61 L363.11,464.54 L363.08,464.48 L363.05,464.42 L363.02,464.37 L363,464.31 L362.98,464.26 L362.96,464.21 L362.95,464.16 L362.93,464.12 L362.92,464.08 L362.91,464.04 L362.9,464.01 L362.9,463.97 L362.89,463.95 L362.89,463.93 L362.88,463.91 L362.88,463.89 L362.88,463.89 L362.88,463.88 C362.88,463.78,362.95,463.78,363.05,463.78 C363.17,463.78,363.19,463.78,363.23,463.9 C363.27,464.07,363.38,464.52,363.75,464.9 C364.15,465.32,364.5,465.43,364.8,465.52 C364.84,465.53,364.86,465.57,364.86,465.61 C364.86,465.68,364.82,465.69,364.73,465.72 C363.73,466.04,363.37,466.75,363.22,467.36 C363.19,467.44,363.14,467.44,363.05,467.44 C362.95,467.44,362.88,467.44,362.88,467.34 C362.88,467.33,362.95,466.86,363.29,466.38 C363.45,466.14,363.65,465.95,363.88,465.78 H358.27 C358.15,465.78,357.98,465.78,357.98,465.61 C357.98,465.44,358.15,465.44,358.27,465.44 Z " />
<path
   id="path849"
   fill="black"
   stroke-width="0"
   d="M369.43,465.77 L369.4,465.81 L369.36,465.85 L369.33,465.89 L369.3,465.92 L369.27,465.95 L369.25,465.99 L369.22,466.02 L369.19,466.05 L369.17,466.07 L369.15,466.1 L369.12,466.12 L369.1,466.15 L369.08,466.17 L369.06,466.19 L369.04,466.21 L369.02,466.23 L368.98,466.27 L368.94,466.31 L368.9,466.34 L368.86,466.38 L368.82,466.41 L368.78,466.44 L368.75,466.46 L368.73,466.48 L368.71,466.49 L368.68,466.51 C368.26,466.82,367.81,466.94,367.42,466.94 C366.56,466.94,365.93,466.2,365.93,465.36 H366.12 C366.12,466.03,366.67,466.55,367.31,466.55 C367.96,466.55,368.41,466.02,369.08,465.22 H369.08 C368.8,464.77,368.19,464.06,367.34,464.06 C366.62,464.06,366.12,464.7,366.12,465.36 H365.93 C365.93,464.55,366.53,463.8,367.4,463.8 C368.38,463.8,369.05,464.59,369.3,464.96 C369.67,464.53,369.79,464.41,370.05,464.22 C370.48,463.92,370.93,463.8,371.31,463.8 C372.18,463.8,372.81,464.54,372.81,465.37 H372.61 C372.61,464.7,372.07,464.18,371.42,464.18 C370.77,464.18,370.33,464.71,369.65,465.52 H369.65 C369.93,465.97,370.54,466.67,371.4,466.67 C372.12,466.67,372.61,466.04,372.61,465.37 H372.81 C372.81,466.18,372.21,466.94,371.33,466.94 C370.36,466.94,369.68,466.14,369.43,465.77 Z " />
<path
   id="path851"
   fill="black"
   stroke-width="0"
   d="M381.97,461.08 L381.97,461.09 L381.97,461.09 L381.97,461.1 L381.97,461.1 L381.97,461.1 L381.97,461.11 L381.97,461.11 L381.97,461.11 L381.97,461.11 L381.97,461.12 L381.97,461.12 L381.97,461.12 L381.96,461.13 L381.96,461.13 L381.96,461.13 L381.96,461.13 L381.96,461.14 L381.95,461.14 L381.95,461.15 L381.95,461.15 L381.94,461.16 L381.94,461.16 L381.94,461.17 L381.93,461.17 C381.56,461.54,380.89,462.21,380.23,463.28 C378.62,465.84,377.89,469.07,377.89,472.9 C377.89,475.57,378.25,479.02,379.9,481.98 C380.69,483.39,381.5,484.2,381.94,484.64 C381.97,484.67,381.97,484.69,381.97,484.72 C381.97,484.82,381.9,484.82,381.76,484.82 C381.62,484.82,381.6,484.82,381.45,484.67 C378.11,481.64,377.07,477.09,377.07,472.91 C377.07,469,377.96,465.07,380.5,462.1 C380.7,461.87,381.08,461.46,381.48,461.11 C381.6,460.99,381.62,460.99,381.76,460.99 C381.9,460.99,381.97,460.99,381.97,461.08 Z " />
<path
   id="path853"
   fill="black"
   stroke-width="0"
   d="M385.26,476.73 L385.26,476.74 L385.26,476.75 L385.26,476.76 L385.26,476.77 L385.26,476.78 L385.26,476.79 L385.26,476.8 L385.26,476.81 L385.26,476.82 L385.26,476.83 L385.26,476.83 L385.26,476.84 L385.26,476.85 L385.26,476.86 L385.26,476.86 L385.25,476.87 L385.25,476.88 L385.25,476.88 L385.25,476.9 L385.25,476.91 L385.25,476.92 L385.24,476.93 L385.24,476.93 L385.23,476.94 L385.23,476.95 L385.22,476.95 L385.22,476.96 L385.21,476.96 L385.2,476.97 L385.19,476.97 L385.19,476.97 L385.18,476.98 L385.18,476.98 L385.17,476.98 L385.17,476.98 L385.16,476.98 L385.15,476.98 L385.15,476.98 L385.14,476.98 L385.13,476.98 L385.13,476.99 L385.12,476.99 L385.11,476.99 L385.1,476.99 L385.1,476.99 L385.09,476.99 L385.08,476.99 L385.07,476.99 L385.06,476.99 L385.05,476.99 L385.04,476.99 L385.03,476.99 C384.41,476.35,383.53,476.35,383.21,476.35 V476.04 C383.41,476.04,384,476.04,384.52,476.3 V471.16 C384.52,470.8,384.49,470.68,383.59,470.68 H383.27 V470.37 C383.62,470.4,384.49,470.4,384.89,470.4 C385.29,470.4,386.15,470.4,386.5,470.37 V470.68 H386.18 C385.29,470.68,385.26,470.79,385.26,471.16 Z " />
<path
   id="path855"
   fill="black"
   stroke-width="0"
   d="M393.6,472.66 H396.38 C396.52,472.66,396.71,472.66,396.71,472.86 C396.71,473.05,396.52,473.05,396.38,473.05 H393.6 V475.84 C393.6,475.98,393.6,476.16,393.4,476.16 C393.2,476.16,393.2,475.98,393.2,475.84 V473.05 H390.41 C390.27,473.05,390.08,473.05,390.08,472.86 C390.08,472.66,390.27,472.66,390.41,472.66 H393.2 V469.88 C393.2,469.74,393.2,469.55,393.4,469.55 C393.6,469.55,393.6,469.74,393.6,469.88 Z " />
<path
   id="path857"
   fill="black"
   stroke-width="0"
   d="M403.87,483.47 L403.87,483.48 L403.87,483.49 L403.87,483.5 L403.87,483.51 L403.87,483.52 L403.87,483.53 L403.87,483.54 L403.87,483.55 L403.87,483.56 L403.87,483.57 L403.87,483.57 L403.87,483.58 L403.87,483.59 L403.87,483.6 L403.87,483.6 L403.87,483.61 L403.87,483.62 L403.86,483.62 L403.86,483.64 L403.86,483.65 L403.86,483.66 L403.85,483.67 L403.85,483.67 L403.85,483.68 L403.84,483.69 L403.84,483.69 L403.83,483.7 L403.82,483.7 L403.81,483.71 L403.81,483.71 L403.8,483.71 L403.8,483.72 L403.79,483.72 L403.78,483.72 L403.78,483.72 L403.77,483.72 L403.77,483.72 L403.76,483.72 L403.75,483.72 L403.75,483.72 L403.74,483.73 L403.73,483.73 L403.72,483.73 L403.72,483.73 L403.71,483.73 L403.7,483.73 L403.69,483.73 L403.68,483.73 L403.67,483.73 L403.66,483.73 L403.65,483.73 L403.64,483.73 C403.02,483.09,402.14,483.09,401.83,483.09 V482.78 C402.02,482.78,402.61,482.78,403.13,483.04 V477.9 C403.13,477.54,403.1,477.42,402.2,477.42 H401.89 V477.11 C402.23,477.14,403.1,477.14,403.5,477.14 C403.9,477.14,404.77,477.14,405.12,477.11 V477.42 H404.8 C403.9,477.42,403.87,477.53,403.87,477.9 Z " />
<line
   id="line859"
   stroke-width="0.398"
   y2="472.86"
   x2="406.18"
   y1="472.86"
   x1="400.68" />
<path
   id="path861"
   fill="black"
   stroke-width="0"
   d="M403.54,470.32 L403.54,470.32 L403.54,470.32 L403.54,470.33 L403.54,470.33 L403.54,470.33 L403.54,470.33 L403.54,470.34 L403.54,470.34 L403.54,470.34 L403.54,470.35 L403.54,470.35 L403.54,470.36 L403.53,470.36 L403.53,470.37 L403.53,470.37 L403.53,470.38 L403.52,470.38 L403.52,470.39 L403.52,470.39 L403.51,470.4 L403.51,470.4 L403.51,470.4 L403.5,470.4 L403.5,470.41 L403.5,470.41 L403.5,470.41 L403.49,470.41 L403.49,470.41 L403.49,470.42 L403.48,470.42 L403.48,470.42 L403.48,470.42 L403.47,470.42 L403.47,470.42 L403.46,470.43 L403.46,470.43 L403.45,470.43 L403.45,470.43 L403.44,470.43 L403.44,470.43 L403.43,470.43 L403.43,470.43 L403.42,470.43 L403.42,470.43 L403.41,470.43 C403.18,470.43,402.45,470.35,402.2,470.33 C402.11,470.32,402.01,470.31,402.01,470.13 C402.01,470.02,402.1,470.02,402.24,470.02 C402.72,470.02,402.74,469.95,402.74,469.85 L402.71,469.65 L401.27,463.92 C401.23,463.79,401.23,463.77,401.23,463.71 C401.23,463.48,401.43,463.43,401.52,463.43 C401.65,463.43,401.8,463.52,401.86,463.64 C401.91,463.73,402.35,465.57,402.41,465.81 C402.75,465.78,403.57,465.62,403.57,464.97 C403.57,464.9,403.57,464.86,403.54,464.76 C403.52,464.64,403.5,464.52,403.5,464.41 C403.5,463.83,403.9,463.43,404.42,463.43 C404.72,463.43,404.99,463.59,405.21,463.95 C405.46,464.39,405.57,464.94,405.57,464.96 C405.57,465.06,405.48,465.06,405.45,465.06 C405.35,465.06,405.34,465.02,405.31,464.88 C405.11,464.15,404.88,463.65,404.44,463.65 C404.25,463.65,404.12,463.76,404.12,464.11 C404.12,464.28,404.16,464.51,404.2,464.67 C404.24,464.84,404.24,464.88,404.24,464.98 C404.24,465.62,403.61,465.91,402.76,466.02 C403.07,466.2,403.39,466.52,403.62,466.76 C404.1,467.28,404.56,467.71,405.05,467.71 C405.11,467.71,405.12,467.71,405.14,467.7 C405.26,467.68,405.27,467.68,405.35,467.62 C405.37,467.61,405.37,467.6,405.39,467.58 C404.91,467.55,404.82,467.16,404.82,467.05 C404.82,466.89,404.93,466.7,405.2,466.7 C405.46,466.7,405.74,466.92,405.74,467.3 C405.74,467.6,405.52,467.93,405.07,467.93 C404.79,467.93,404.33,467.85,403.61,467.05 C403.27,466.68,402.88,466.28,402.5,466.13 Z " />
<path
   id="path863"
   fill="black"
   stroke-width="0"
   d="M412.63,472.9 L412.62,473.63 L412.59,474.36 L412.53,475.09 L412.45,475.82 L412.34,476.54 L412.21,477.25 L412.05,477.95 L411.86,478.65 L411.65,479.34 L411.53,479.67 L411.4,480.01 L411.26,480.34 L411.12,480.67 L410.97,480.99 L410.8,481.31 L410.64,481.63 L410.46,481.94 L410.27,482.25 L410.07,482.55 L409.87,482.85 L409.66,483.14 L409.43,483.42 L409.2,483.7 C409,483.93,408.62,484.34,408.21,484.7 C408.09,484.82,408.07,484.82,407.93,484.82 C407.81,484.82,407.72,484.82,407.72,484.72 C407.72,484.68,407.76,484.64,407.78,484.62 C408.13,484.26,408.8,483.6,409.47,482.52 C411.08,479.96,411.8,476.73,411.8,472.91 C411.8,470.23,411.44,466.79,409.8,463.83 C409.01,462.42,408.18,461.59,407.76,461.17 C407.74,461.14,407.72,461.11,407.72,461.08 C407.72,460.99,407.81,460.99,407.93,460.99 C408.07,460.99,408.09,460.99,408.24,461.14 C411.58,464.17,412.63,468.71,412.63,472.9 Z " />
<path
   id="path865"
   fill="black"
   stroke-width="0"
   d="M416.9,486.97 L416.9,486.97 L416.9,486.97 L416.9,486.97 L416.9,486.98 L416.9,486.98 L416.9,486.98 L416.9,486.98 L416.9,486.98 L416.9,486.98 L416.9,486.99 L416.9,486.99 L416.9,486.99 L416.9,487 L416.91,487 L416.91,487.01 L416.91,487.01 L416.91,487.02 L416.91,487.02 L416.91,487.03 L416.91,487.04 L416.92,487.04 L416.92,487.04 L416.92,487.05 L416.92,487.05 L416.92,487.06 L416.92,487.06 L416.92,487.07 L416.92,487.07 L416.92,487.07 L416.92,487.07 L416.92,487.07 L416.92,487.08 L416.92,487.08 L416.92,487.08 L416.92,487.08 L416.92,487.08 L416.92,487.08 L416.92,487.08 L416.92,487.08 L416.92,487.08 L416.92,487.08 C416.92,487.12,416.9,487.18,416.81,487.18 C416.67,487.18,416.09,487.12,415.92,487.11 C415.86,487.1,415.76,487.1,415.76,486.95 C415.76,486.85,415.86,486.85,415.95,486.85 C416.28,486.85,416.28,486.8,416.28,486.75 C416.28,486.7,416.27,486.66,416.25,486.6 L415.27,482.66 C415.23,482.54,415.23,482.52,415.23,482.51 C415.23,482.4,415.32,482.29,415.47,482.29 C415.66,482.29,415.75,482.42,415.79,482.58 C415.81,482.61,416.11,483.83,416.13,483.93 C416.63,483.88,417.03,483.72,417.03,483.36 C417.03,483.32,417.03,483.29,417.02,483.22 C416.99,483.11,416.99,483.08,416.99,483 C416.99,482.51,417.39,482.29,417.73,482.29 C418.41,482.29,418.62,483.34,418.62,483.35 C418.62,483.44,418.53,483.44,418.51,483.44 C418.41,483.44,418.4,483.4,418.36,483.27 C418.28,482.97,418.09,482.48,417.75,482.48 C417.56,482.48,417.51,482.65,417.51,482.84 C417.51,482.96,417.51,482.97,417.55,483.15 C417.55,483.18,417.58,483.29,417.58,483.37 C417.58,483.99,416.74,484.09,416.45,484.11 C416.65,484.23,416.91,484.46,417.03,484.57 C417.39,484.9,417.74,485.23,418.13,485.23 C418.21,485.23,418.3,485.21,418.36,485.14 C418.06,485.09,417.99,484.85,417.99,484.75 C417.99,484.59,418.11,484.49,418.27,484.49 C418.46,484.49,418.67,484.64,418.67,484.93 C418.67,485.16,418.51,485.42,418.13,485.42 C417.74,485.42,417.37,485.14,417.02,484.81 C416.72,484.53,416.49,484.32,416.2,484.2 Z " />
<path
   id="path867"
   fill="black"
   stroke-width="0"
   d="M429.23,473.62 L429.26,473.62 L429.29,473.62 L429.31,473.62 L429.33,473.62 L429.34,473.62 L429.36,473.62 L429.37,473.63 L429.39,473.63 L429.4,473.63 L429.41,473.63 L429.43,473.64 L429.44,473.64 L429.45,473.64 L429.47,473.65 L429.48,473.66 L429.49,473.66 L429.5,473.67 L429.51,473.68 L429.52,473.68 L429.53,473.69 L429.53,473.7 L429.54,473.71 L429.54,473.71 L429.55,473.72 L429.55,473.73 L429.55,473.73 L429.55,473.74 L429.56,473.75 L429.56,473.75 L429.56,473.76 L429.56,473.77 L429.56,473.78 L429.56,473.78 L429.57,473.79 L429.57,473.8 L429.57,473.81 L429.57,473.82 C429.57,474.02,429.38,474.02,429.24,474.02 H423.26 C423.12,474.02,422.93,474.02,422.93,473.82 C422.93,473.62,423.12,473.62,423.27,473.62 Z " />
<path
   id="path869"
   fill="black"
   stroke-width="0"
   d="M429.24,471.69 L429.25,471.69 L429.26,471.69 L429.29,471.69 L429.32,471.69 L429.33,471.7 L429.35,471.7 L429.36,471.7 L429.38,471.7 L429.39,471.7 L429.4,471.7 L429.42,471.71 L429.43,471.71 L429.44,471.71 L429.45,471.72 L429.47,471.72 L429.48,471.73 L429.49,471.73 L429.5,471.74 L429.51,471.75 L429.52,471.76 L429.53,471.77 L429.53,471.77 L429.54,471.78 L429.54,471.78 L429.54,471.79 L429.55,471.79 L429.55,471.8 L429.55,471.81 L429.55,471.81 L429.56,471.82 L429.56,471.83 L429.56,471.83 L429.56,471.84 L429.56,471.85 L429.56,471.86 L429.57,471.87 L429.57,471.87 L429.57,471.88 L429.57,471.89 C429.57,472.09,429.38,472.09,429.23,472.09 H423.27 C423.12,472.09,422.93,472.09,422.93,471.89 C422.93,471.69,423.12,471.69,423.26,471.69 Z " />
<path
   id="path871"
   fill="black"
   stroke-width="0"
   d="M434.76,472.67 L434.79,472.67 L434.82,472.67 L434.85,472.67 L434.89,472.67 L434.92,472.67 L434.96,472.67 L435,472.67 L435.05,472.67 L435.09,472.68 L435.14,472.68 L435.19,472.68 L435.24,472.68 L435.29,472.69 L435.34,472.69 L435.44,472.7 L435.55,472.72 L435.66,472.73 L435.77,472.75 L435.88,472.77 L435.98,472.8 L436.03,472.81 L436.09,472.83 L436.14,472.84 L436.19,472.86 L436.24,472.88 L436.28,472.89 C436.98,473.19,437.03,473.78,437.03,473.92 C437.03,474.36,436.65,474.76,435.96,474.76 V474.54 C436.43,474.54,436.7,474.26,436.7,473.92 C436.7,472.89,435.11,472.89,434.7,472.89 H434.29 C434.68,474.39,435.7,474.54,435.96,474.54 V474.76 C434.86,474.76,433.35,473.8,433.35,472.06 C433.35,471.05,433.94,470.26,434.92,470.26 C436.34,470.26,437.18,471.32,437.18,471.43 C437.18,471.49,437.12,471.56,437.06,471.56 C437.01,471.56,436.99,471.54,436.93,471.46 C436.14,470.48,435.06,470.48,434.94,470.48 C434.16,470.48,434.07,471.32,434.07,471.63 C434.07,471.75,434.08,472.06,434.23,472.67 Z " />
</g>  </g>
</svg>
