<?xml version="1.0" encoding="UTF-8" standalone="no"?>
<!-- Created with Inkscape (http://www.inkscape.org/) -->

<svg
   xmlns:ns0="http://www.iki.fi/pav/software/textext/"
   xmlns:dc="http://purl.org/dc/elements/1.1/"
   xmlns:cc="http://creativecommons.org/ns#"
   xmlns:rdf="http://www.w3.org/1999/02/22-rdf-syntax-ns#"
   xmlns:svg="http://www.w3.org/2000/svg"
   xmlns="http://www.w3.org/2000/svg"
   xmlns:sodipodi="http://sodipodi.sourceforge.net/DTD/sodipodi-0.dtd"
   xmlns:inkscape="http://www.inkscape.org/namespaces/inkscape"
   width="210mm"
   height="297mm"
   viewBox="0 0 210 296.99999"
   version="1.1"
   id="svg8"
   inkscape:version="0.92.3 (2405546, 2018-03-11)"
   sodipodi:docname="empty.svg">
  <sodipodi:namedview
     id="base"
     pagecolor="#ffffff"
     bordercolor="#666666"
     borderopacity="1.0"
     inkscape:pageopacity="0.0"
     inkscape:pageshadow="2"
     inkscape:zoom="0.7205051"
     inkscape:cx="295.22095"
     inkscape:cy="386.46112"
     inkscape:document-units="mm"
     inkscape:current-layer="layer1"
     showgrid="false"
     inkscape:window-width="2560"
     inkscape:window-height="1007"
     inkscape:window-x="0"
     inkscape:window-y="0"
     inkscape:window-maximized="1" />
  <defs
     id="defs2" />
  <metadata
     id="metadata5">
    <rdf:RDF>
      <cc:Work
         rdf:about="">
        <dc:format>image/svg+xml</dc:format>
        <dc:type
           rdf:resource="http://purl.org/dc/dcmitype/StillImage" />
        <dc:title />
      </cc:Work>
    </rdf:RDF>
  </metadata>
  <g
     id="layer1"
     inkscape:groupmode="layer"
     inkscape:label="Layer 1">
    <g
       ns0:preamble="/home/sergei/PycharmProjects/textext/extension/textext/default_packages.tex"
       ns0:text="$$\\lim_{n \\to \\infty} \\left(1+\\frac{1}{n}\\right)^n = e$$"
       text-anchor="start"
       word-spacing="normal"
       letter-spacing="normal"
       font-size-adjust="none"
       font-stretch="normal"
       font-weight="normal"
       font-variant="normal"
       font-style="normal"
       fill-opacity="1"
       fill-rule="evenodd"
       fill="none"
       stroke-opacity="1"
       stroke-dashoffset="0"
       stroke-dasharray="none"
       stroke-miterlimit="10.433"
       stroke-linejoin="miter"
       stroke-linecap="butt"
       stroke="black"
       xml:space="preserve"
       transform="matrix(1.000000,0,0,-1.000000,-200.000000,750.000000)"
       id="content">
<path
   id="path815"
   fill="black"
   stroke-width="0"
   d="M357.53,479.11 L356.1,479 V478.69 C356.8,478.69,356.88,478.62,356.88,478.13 V472.97 C356.88,472.52,356.77,472.52,356.1,472.52 V472.21 C356.43,472.22,356.95,472.24,357.2,472.24 C357.45,472.24,357.94,472.22,358.31,472.21 V472.52 C357.64,472.52,357.53,472.52,357.53,472.97 Z " />
<path
   id="path817"
   fill="black"
   stroke-width="0"
   d="M360.3,476.6 L358.9,476.49 V476.19 C359.55,476.19,359.64,476.13,359.64,475.64 V472.97 C359.64,472.52,359.53,472.52,358.86,472.52 V472.21 C359.18,472.22,359.72,472.24,359.96,472.24 C360.31,472.24,360.66,472.22,361,472.21 V472.52 C360.34,472.52,360.3,472.57,360.3,472.96 Z " />
<path
   id="path819"
   fill="black"
   stroke-width="0"
   d="M360.34,478.33 L360.34,478.36 L360.34,478.39 L360.33,478.42 L360.33,478.44 L360.32,478.47 L360.32,478.5 L360.31,478.52 L360.3,478.55 L360.29,478.57 L360.27,478.59 L360.26,478.62 L360.25,478.64 L360.23,478.66 L360.22,478.68 L360.2,478.7 L360.18,478.71 L360.16,478.73 L360.14,478.75 L360.12,478.76 L360.1,478.78 L360.08,478.79 L360.06,478.8 L360.04,478.81 L360.01,478.82 L359.99,478.83 L359.96,478.84 L359.94,478.84 L359.91,478.85 L359.89,478.85 L359.86,478.86 L359.84,478.86 L359.81,478.86 C359.5,478.86,359.28,478.59,359.28,478.33 C359.28,478.06,359.5,477.8,359.81,477.8 C360.09,477.8,360.34,478.01,360.34,478.33 Z " />
<path
   id="path821"
   fill="black"
   stroke-width="0"
   d="M362.4,475.63 V472.97 C362.4,472.52,362.29,472.52,361.62,472.52 V472.21 C361.97,472.22,362.48,472.24,362.75,472.24 C363.01,472.24,363.53,472.22,363.87,472.21 V472.52 C363.2,472.52,363.09,472.52,363.09,472.97 V474.8 C363.09,475.83,363.8,476.38,364.43,476.38 C365.06,476.38,365.17,475.85,365.17,475.28 V472.97 C365.17,472.52,365.06,472.52,364.39,472.52 V472.21 C364.74,472.22,365.25,472.24,365.52,472.24 C365.78,472.24,366.3,472.22,366.64,472.21 V472.52 C365.97,472.52,365.86,472.52,365.86,472.97 V474.8 C365.86,475.83,366.57,476.38,367.21,476.38 C367.83,476.38,367.95,475.85,367.95,475.28 V472.97 C367.95,472.52,367.83,472.52,367.17,472.52 V472.21 C367.52,472.22,368.02,472.24,368.29,472.24 C368.55,472.24,369.07,472.22,369.41,472.21 V472.52 C368.89,472.52,368.64,472.52,368.63,472.82 V474.71 C368.63,475.57,368.63,475.88,368.32,476.23 C368.18,476.4,367.86,476.6,367.28,476.6 C366.44,476.6,366,476.01,365.83,475.63 C365.69,476.49,364.95,476.6,364.5,476.6 C363.78,476.6,363.31,476.18,363.03,475.56 V476.6 L361.62,476.49 V476.19 C362.32,476.19,362.4,476.12,362.4,475.63 Z " />
<path
   id="path823"
   fill="black"
   stroke-width="0"
   d="M353.14,466.67 L353.13,466.66 L353.13,466.66 L353.13,466.65 L353.12,466.64 L353.12,466.63 L353.12,466.62 L353.12,466.6 L353.11,466.59 L353.11,466.57 L353.1,466.55 L353.09,466.53 L353.09,466.5 L353.09,466.49 L353.08,466.48 L353.08,466.47 L353.08,466.46 L353.08,466.45 L353.08,466.45 L353.07,466.44 L353.07,466.43 L353.07,466.42 L353.07,466.41 L353.07,466.41 L353.07,466.4 L353.07,466.4 L353.07,466.39 L353.07,466.39 L353.07,466.39 L353.07,466.39 L353.07,466.39 C353.07,466.23,353.19,466.17,353.3,466.17 C353.43,466.17,353.54,466.26,353.58,466.32 C353.61,466.38,353.67,466.6,353.7,466.75 C353.74,466.88,353.81,467.2,353.86,467.38 C353.9,467.53,353.94,467.68,353.97,467.84 C354.05,468.13,354.07,468.18,354.27,468.47 C354.46,468.74,354.79,469.11,355.32,469.11 C355.72,469.11,355.73,468.75,355.73,468.62 C355.73,468.2,355.43,467.43,355.32,467.14 C355.24,466.94,355.21,466.88,355.21,466.76 C355.21,466.39,355.52,466.17,355.88,466.17 C356.58,466.17,356.88,467.12,356.88,467.23 C356.88,467.32,356.79,467.32,356.77,467.32 C356.67,467.32,356.67,467.28,356.64,467.2 C356.48,466.64,356.18,466.36,355.9,466.36 C355.75,466.36,355.72,466.46,355.72,466.6 C355.72,466.76,355.76,466.85,355.88,467.17 C355.97,467.38,356.25,468.12,356.25,468.51 C356.25,469.18,355.71,469.3,355.34,469.3 C354.76,469.3,354.37,468.95,354.16,468.67 C354.11,469.15,353.7,469.3,353.42,469.3 C353.11,469.3,352.95,469.09,352.86,468.93 C352.71,468.67,352.61,468.27,352.61,468.24 C352.61,468.15,352.71,468.15,352.73,468.15 C352.83,468.15,352.83,468.17,352.88,468.36 C352.99,468.77,353.12,469.11,353.39,469.11 C353.58,469.11,353.62,468.95,353.62,468.77 C353.62,468.63,353.56,468.38,353.51,468.19 C353.46,468,353.39,467.72,353.36,467.56 Z " />
<path
   id="path825"
   fill="black"
   stroke-width="0"
   d="M363.64,467.81 L363.56,467.75 L363.48,467.68 L363.41,467.62 L363.34,467.56 L363.28,467.49 L363.22,467.43 L363.16,467.36 L363.11,467.29 L363.06,467.23 L363.02,467.16 L362.98,467.1 L362.94,467.03 L362.9,466.97 L362.87,466.91 L362.84,466.85 L362.81,466.79 L362.78,466.73 L362.76,466.68 L362.74,466.63 L362.72,466.58 L362.71,466.53 L362.69,466.48 L362.68,466.44 L362.67,466.41 L362.66,466.37 L362.66,466.34 L362.65,466.31 L362.65,466.29 L362.64,466.27 L362.64,466.26 L362.64,466.25 L362.64,466.25 C362.64,466.14,362.71,466.14,362.81,466.14 C362.93,466.14,362.95,466.14,362.99,466.26 C363.03,466.44,363.14,466.88,363.51,467.26 C363.91,467.69,364.26,467.79,364.55,467.88 C364.6,467.9,364.62,467.94,364.62,467.97 C364.62,468.04,364.58,468.06,364.49,468.08 C363.49,468.4,363.13,469.11,362.98,469.73 C362.95,469.81,362.9,469.81,362.81,469.81 C362.71,469.81,362.64,469.81,362.64,469.7 C362.64,469.69,362.71,469.23,363.05,468.74 C363.21,468.51,363.41,468.31,363.64,468.15 H358.02 C357.91,468.15,357.74,468.15,357.74,467.98 C357.74,467.81,357.91,467.81,358.02,467.81 Z " />
<path
   id="path827"
   fill="black"
   stroke-width="0"
   d="M369.19,468.14 L369.16,468.18 L369.12,468.22 L369.09,468.25 L369.06,468.29 L369.03,468.32 L369.01,468.35 L368.98,468.38 L368.95,468.41 L368.93,468.44 L368.91,468.46 L368.88,468.49 L368.86,468.51 L368.84,468.54 L368.82,468.56 L368.8,468.58 L368.78,468.6 L368.74,468.64 L368.7,468.68 L368.66,468.71 L368.62,468.74 L368.58,468.78 L368.54,468.81 L368.51,468.83 L368.49,468.84 L368.47,468.86 L368.44,468.88 C368.02,469.18,367.57,469.3,367.18,469.3 C366.32,469.3,365.69,468.56,365.69,467.73 H365.88 C365.88,468.4,366.43,468.92,367.07,468.92 C367.72,468.92,368.17,468.39,368.84,467.58 H368.84 C368.56,467.13,367.95,466.43,367.1,466.43 C366.38,466.43,365.88,467.06,365.88,467.73 H365.69 C365.69,466.92,366.29,466.17,367.16,466.17 C368.14,466.17,368.81,466.96,369.07,467.33 C369.43,466.9,369.55,466.78,369.81,466.59 C370.24,466.28,370.69,466.17,371.07,466.17 C371.94,466.17,372.57,466.9,372.57,467.74 H372.37 C372.37,467.07,371.83,466.55,371.18,466.55 C370.53,466.55,370.09,467.08,369.41,467.88 H369.41 C369.69,468.33,370.3,469.04,371.16,469.04 C371.88,469.04,372.37,468.4,372.37,467.74 H372.57 C372.57,468.55,371.97,469.3,371.09,469.3 C370.12,469.3,369.44,468.51,369.19,468.14 Z " />
<path
   id="path829"
   fill="black"
   stroke-width="0"
   d="M381.73,462.92 L381.73,462.93 L381.73,462.93 L381.73,462.94 L381.73,462.94 L381.73,462.94 L381.73,462.95 L381.73,462.95 L381.73,462.95 L381.73,462.95 L381.73,462.96 L381.73,462.96 L381.73,462.96 L381.72,462.97 L381.72,462.97 L381.72,462.97 L381.72,462.97 L381.72,462.98 L381.71,462.98 L381.71,462.99 L381.71,462.99 L381.7,463 L381.7,463 L381.7,463.01 L381.69,463.02 C381.32,463.38,380.65,464.05,379.99,465.12 C378.38,467.68,377.65,470.91,377.65,474.74 C377.65,477.41,378.01,480.86,379.66,483.82 C380.45,485.23,381.26,486.04,381.7,486.48 C381.73,486.51,381.73,486.53,381.73,486.56 C381.73,486.66,381.66,486.66,381.52,486.66 C381.38,486.66,381.36,486.66,381.21,486.51 C377.87,483.48,376.83,478.93,376.83,474.75 C376.83,470.84,377.72,466.91,380.26,463.94 C380.46,463.71,380.83,463.3,381.24,462.95 C381.36,462.83,381.38,462.83,381.52,462.83 C381.66,462.83,381.73,462.83,381.73,462.92 Z " />
<path
   id="path831"
   fill="black"
   stroke-width="0"
   d="M385.02,478.57 L385.02,478.58 L385.02,478.59 L385.02,478.6 L385.02,478.61 L385.02,478.62 L385.02,478.63 L385.02,478.64 L385.02,478.65 L385.02,478.66 L385.02,478.67 L385.02,478.67 L385.02,478.68 L385.02,478.69 L385.02,478.7 L385.02,478.7 L385.01,478.71 L385.01,478.72 L385.01,478.72 L385.01,478.74 L385.01,478.75 L385.01,478.76 L385,478.77 L385,478.77 L384.99,478.78 L384.99,478.79 L384.98,478.79 L384.98,478.8 L384.97,478.8 L384.96,478.81 L384.95,478.81 L384.95,478.81 L384.94,478.82 L384.94,478.82 L384.93,478.82 L384.93,478.82 L384.92,478.82 L384.91,478.82 L384.91,478.82 L384.9,478.82 L384.89,478.82 L384.89,478.83 L384.88,478.83 L384.87,478.83 L384.86,478.83 L384.86,478.83 L384.85,478.83 L384.84,478.83 L384.83,478.83 L384.82,478.83 L384.81,478.83 L384.8,478.83 L384.79,478.83 C384.17,478.19,383.29,478.19,382.97,478.19 V477.88 C383.17,477.88,383.76,477.88,384.28,478.14 V473 C384.28,472.64,384.25,472.52,383.35,472.52 H383.03 V472.21 C383.38,472.24,384.25,472.24,384.65,472.24 C385.05,472.24,385.92,472.24,386.26,472.21 V472.52 H385.95 C385.05,472.52,385.02,472.63,385.02,473 Z " />
<path
   id="path833"
   fill="black"
   stroke-width="0"
   d="M393.36,474.5 H396.14 C396.28,474.5,396.47,474.5,396.47,474.7 C396.47,474.89,396.28,474.89,396.14,474.89 H393.36 V477.68 C393.36,477.82,393.36,478,393.16,478 C392.96,478,392.96,477.82,392.96,477.68 V474.89 H390.17 C390.03,474.89,389.84,474.89,389.84,474.7 C389.84,474.5,390.03,474.5,390.17,474.5 H392.96 V471.71 C392.96,471.58,392.96,471.39,393.16,471.39 C393.36,471.39,393.36,471.58,393.36,471.71 Z " />
<path
   id="path835"
   fill="black"
   stroke-width="0"
   d="M403.87,485.31 L403.87,485.32 L403.87,485.33 L403.87,485.34 L403.87,485.35 L403.87,485.36 L403.87,485.37 L403.87,485.38 L403.87,485.39 L403.87,485.4 L403.87,485.41 L403.87,485.41 L403.87,485.42 L403.87,485.43 L403.87,485.44 L403.87,485.44 L403.87,485.45 L403.87,485.46 L403.86,485.46 L403.86,485.48 L403.86,485.49 L403.86,485.5 L403.85,485.51 L403.85,485.51 L403.85,485.52 L403.84,485.53 L403.84,485.53 L403.83,485.54 L403.82,485.54 L403.81,485.55 L403.81,485.55 L403.8,485.55 L403.8,485.56 L403.79,485.56 L403.78,485.56 L403.78,485.56 L403.77,485.56 L403.77,485.56 L403.76,485.56 L403.75,485.56 L403.75,485.56 L403.74,485.57 L403.73,485.57 L403.72,485.57 L403.72,485.57 L403.71,485.57 L403.7,485.57 L403.69,485.57 L403.68,485.57 L403.67,485.57 L403.66,485.57 L403.65,485.57 L403.64,485.57 C403.02,484.93,402.14,484.93,401.83,484.93 V484.62 C402.02,484.62,402.61,484.62,403.13,484.88 V479.74 C403.13,479.38,403.1,479.26,402.2,479.26 H401.89 V478.95 C402.23,478.98,403.1,478.98,403.5,478.98 C403.9,478.98,404.77,478.98,405.12,478.95 V479.26 H404.8 C403.9,479.26,403.87,479.37,403.87,479.74 Z " />
<line
   id="line837"
   stroke-width="0.398"
   y2="474.7"
   x2="406.42"
   y1="474.7"
   x1="400.44" />
<path
   id="path839"
   fill="black"
   stroke-width="0"
   d="M401.32,465.96 L401.31,465.95 L401.31,465.94 L401.31,465.92 L401.3,465.91 L401.3,465.87 L401.29,465.84 L401.28,465.81 L401.28,465.78 L401.27,465.75 L401.26,465.71 L401.26,465.7 L401.25,465.68 L401.25,465.67 L401.25,465.66 L401.24,465.64 L401.24,465.63 L401.24,465.62 L401.24,465.6 L401.23,465.59 L401.23,465.58 L401.23,465.57 L401.23,465.56 L401.23,465.56 L401.23,465.55 L401.23,465.54 L401.23,465.54 C401.23,465.36,401.37,465.27,401.52,465.27 C401.64,465.27,401.82,465.35,401.89,465.55 C401.89,465.57,402.02,466.04,402.07,466.28 L402.29,467.18 C402.35,467.4,402.41,467.61,402.46,467.84 C402.5,468.01,402.58,468.3,402.59,468.34 C402.74,468.65,403.27,469.55,404.22,469.55 C404.67,469.55,404.76,469.18,404.76,468.86 C404.76,468.24,404.27,466.97,404.11,466.54 C404.02,466.31,404.01,466.19,404.01,466.08 C404.01,465.62,404.36,465.27,404.83,465.27 C405.76,465.27,406.13,466.72,406.13,466.8 C406.13,466.9,406.04,466.9,406.01,466.9 C405.91,466.9,405.91,466.87,405.86,466.72 C405.66,466.05,405.33,465.49,404.85,465.49 C404.68,465.49,404.61,465.59,404.61,465.82 C404.61,466.06,404.7,466.3,404.79,466.52 C404.98,467.05,405.39,468.14,405.39,468.71 C405.39,469.37,404.97,469.77,404.25,469.77 C403.35,469.77,402.86,469.13,402.69,468.91 C402.64,469.46,402.23,469.77,401.77,469.77 C401.32,469.77,401.13,469.38,401.03,469.2 C400.87,468.87,400.73,468.28,400.73,468.24 C400.73,468.14,400.83,468.14,400.85,468.14 C400.95,468.14,400.96,468.15,401.02,468.37 C401.19,469.07,401.39,469.55,401.74,469.55 C401.95,469.55,402.05,469.42,402.05,469.09 C402.05,468.89,402.02,468.78,401.89,468.26 Z " />
<path
   id="path841"
   fill="black"
   stroke-width="0"
   d="M412.87,474.74 L412.86,475.47 L412.83,476.2 L412.77,476.93 L412.69,477.66 L412.58,478.38 L412.45,479.09 L412.29,479.79 L412.1,480.49 L411.89,481.18 L411.77,481.51 L411.64,481.85 L411.5,482.18 L411.36,482.51 L411.2,482.83 L411.04,483.15 L410.87,483.47 L410.7,483.78 L410.51,484.09 L410.31,484.39 L410.11,484.69 L409.89,484.98 L409.67,485.26 L409.44,485.55 C409.24,485.77,408.86,486.18,408.45,486.54 C408.33,486.66,408.31,486.66,408.17,486.66 C408.05,486.66,407.96,486.66,407.96,486.56 C407.96,486.52,408,486.48,408.02,486.46 C408.37,486.1,409.04,485.43,409.71,484.36 C411.31,481.8,412.04,478.57,412.04,474.75 C412.04,472.07,411.68,468.63,410.04,465.67 C409.25,464.26,408.42,463.43,408,463.02 C407.98,462.98,407.96,462.95,407.96,462.92 C407.96,462.83,408.05,462.83,408.17,462.83 C408.31,462.83,408.33,462.83,408.48,462.98 C411.82,466.01,412.87,470.55,412.87,474.74 Z " />
<path
   id="path843"
   fill="black"
   stroke-width="0"
   d="M415.8,484.63 L415.8,484.62 L415.8,484.62 L415.79,484.61 L415.79,484.6 L415.79,484.59 L415.78,484.58 L415.78,484.56 L415.78,484.55 L415.77,484.53 L415.77,484.51 L415.76,484.49 L415.76,484.46 L415.75,484.45 L415.75,484.44 L415.75,484.43 L415.75,484.42 L415.74,484.41 L415.74,484.41 L415.74,484.4 L415.74,484.39 L415.74,484.38 L415.74,484.37 L415.73,484.37 L415.73,484.36 L415.73,484.36 L415.73,484.35 L415.73,484.35 L415.73,484.35 L415.73,484.35 L415.73,484.35 C415.73,484.2,415.86,484.13,415.97,484.13 C416.1,484.13,416.21,484.22,416.24,484.28 C416.28,484.34,416.33,484.56,416.37,484.71 C416.4,484.84,416.48,485.16,416.52,485.33 C416.56,485.49,416.61,485.64,416.64,485.8 C416.72,486.09,416.73,486.14,416.93,486.43 C417.13,486.7,417.46,487.07,417.98,487.07 C418.39,487.07,418.39,486.71,418.39,486.58 C418.39,486.16,418.09,485.39,417.98,485.1 C417.91,484.9,417.88,484.84,417.88,484.72 C417.88,484.36,418.18,484.13,418.54,484.13 C419.24,484.13,419.55,485.08,419.55,485.19 C419.55,485.28,419.46,485.28,419.44,485.28 C419.34,485.28,419.33,485.24,419.3,485.16 C419.14,484.61,418.84,484.32,418.56,484.32 C418.42,484.32,418.39,484.42,418.39,484.56 C418.39,484.72,418.42,484.81,418.55,485.13 C418.63,485.34,418.92,486.08,418.92,486.47 C418.92,487.14,418.38,487.26,418.01,487.26 C417.43,487.26,417.04,486.91,416.83,486.63 C416.78,487.11,416.37,487.26,416.08,487.26 C415.78,487.26,415.62,487.05,415.53,486.89 C415.38,486.63,415.28,486.23,415.28,486.2 C415.28,486.11,415.38,486.11,415.4,486.11 C415.49,486.11,415.5,486.13,415.55,486.32 C415.65,486.73,415.79,487.07,416.06,487.07 C416.24,487.07,416.29,486.91,416.29,486.73 C416.29,486.59,416.23,486.34,416.18,486.15 C416.13,485.96,416.06,485.68,416.02,485.52 Z " />
<path
   id="path845"
   fill="black"
   stroke-width="0"
   d="M429.99,475.46 L430.02,475.46 L430.05,475.46 L430.08,475.46 L430.09,475.46 L430.1,475.46 L430.12,475.46 L430.13,475.47 L430.15,475.47 L430.16,475.47 L430.18,475.47 L430.19,475.48 L430.2,475.48 L430.21,475.48 L430.23,475.49 L430.24,475.5 L430.25,475.5 L430.26,475.51 L430.27,475.52 L430.28,475.52 L430.29,475.53 L430.3,475.54 L430.3,475.55 L430.3,475.55 L430.31,475.56 L430.31,475.57 L430.31,475.57 L430.31,475.58 L430.32,475.59 L430.32,475.59 L430.32,475.6 L430.32,475.61 L430.32,475.62 L430.33,475.62 L430.33,475.63 L430.33,475.64 L430.33,475.65 L430.33,475.66 C430.33,475.86,430.14,475.86,430,475.86 H424.02 C423.89,475.86,423.7,475.86,423.7,475.66 C423.7,475.46,423.89,475.46,424.04,475.46 Z " />
<path
   id="path847"
   fill="black"
   stroke-width="0"
   d="M430,473.53 L430.01,473.53 L430.03,473.53 L430.05,473.53 L430.08,473.53 L430.1,473.54 L430.11,473.54 L430.12,473.54 L430.14,473.54 L430.15,473.54 L430.16,473.54 L430.18,473.55 L430.19,473.55 L430.2,473.55 L430.22,473.56 L430.23,473.56 L430.24,473.57 L430.25,473.57 L430.26,473.58 L430.27,473.59 L430.28,473.6 L430.29,473.61 L430.29,473.61 L430.3,473.62 L430.3,473.62 L430.3,473.63 L430.31,473.63 L430.31,473.64 L430.31,473.65 L430.32,473.65 L430.32,473.66 L430.32,473.67 L430.32,473.67 L430.32,473.68 L430.32,473.69 L430.33,473.7 L430.33,473.71 L430.33,473.71 L430.33,473.72 L430.33,473.73 C430.33,473.93,430.14,473.93,429.99,473.93 H424.04 C423.89,473.93,423.7,473.93,423.7,473.73 C423.7,473.53,423.89,473.53,424.02,473.53 Z " />
<path
   id="path849"
   fill="black"
   stroke-width="0"
   d="M435.52,474.51 L435.55,474.51 L435.58,474.51 L435.61,474.51 L435.65,474.51 L435.69,474.51 L435.73,474.51 L435.77,474.51 L435.81,474.51 L435.86,474.52 L435.9,474.52 L435.95,474.52 L436,474.52 L436.05,474.53 L436.1,474.53 L436.2,474.54 L436.31,474.56 L436.42,474.57 L436.53,474.59 L436.64,474.61 L436.74,474.64 L436.8,474.65 L436.85,474.67 L436.9,474.68 L436.95,474.7 L437,474.72 L437.05,474.73 C437.74,475.03,437.79,475.62,437.79,475.76 C437.79,476.2,437.41,476.6,436.73,476.6 V476.38 C437.2,476.38,437.46,476.1,437.46,475.76 C437.46,474.73,435.87,474.73,435.46,474.73 H435.05 C435.44,476.23,436.47,476.38,436.73,476.38 V476.6 C435.62,476.6,434.11,475.64,434.11,473.9 C434.11,472.89,434.7,472.1,435.68,472.1 C437.11,472.1,437.94,473.16,437.94,473.27 C437.94,473.33,437.88,473.4,437.82,473.4 C437.77,473.4,437.75,473.38,437.69,473.3 C436.91,472.32,435.82,472.32,435.7,472.32 C434.92,472.32,434.83,473.16,434.83,473.47 C434.83,473.59,434.84,473.9,434.99,474.51 Z " />
</g>  </g>
</svg>
