<?xml version="1.0" encoding="UTF-8" standalone="no"?>
<!-- Created with Inkscape (http://www.inkscape.org/) -->

<svg
   xmlns:ns0="http://www.iki.fi/pav/software/textext/"
   xmlns:dc="http://purl.org/dc/elements/1.1/"
   xmlns:cc="http://creativecommons.org/ns#"
   xmlns:rdf="http://www.w3.org/1999/02/22-rdf-syntax-ns#"
   xmlns:svg="http://www.w3.org/2000/svg"
   xmlns="http://www.w3.org/2000/svg"
   xmlns:sodipodi="http://sodipodi.sourceforge.net/DTD/sodipodi-0.dtd"
   xmlns:inkscape="http://www.inkscape.org/namespaces/inkscape"
   width="210mm"
   height="297mm"
   viewBox="0 0 210 297"
   version="1.1"
   id="svg8"
   inkscape:version="0.92.3 (2405546, 2018-03-11)"
   sodipodi:docname="original.svg">
  <sodipodi:namedview
     id="base"
     pagecolor="#ffffff"
     bordercolor="#666666"
     borderopacity="1.0"
     inkscape:pageopacity="0.0"
     inkscape:pageshadow="2"
     inkscape:zoom="0.92892209"
     inkscape:cx="-534.63408"
     inkscape:cy="737.17708"
     inkscape:document-units="mm"
     inkscape:current-layer="layer1"
     showgrid="false"
     inkscape:window-width="2560"
     inkscape:window-height="1007"
     inkscape:window-x="0"
     inkscape:window-y="0"
     inkscape:window-maximized="1" />
  <defs
     id="defs2" />
  <metadata
     id="metadata5">
    <rdf:RDF>
      <cc:Work
         rdf:about="">
        <dc:format>image/svg+xml</dc:format>
        <dc:type
           rdf:resource="http://purl.org/dc/dcmitype/StillImage" />
        <dc:title />
      </cc:Work>
    </rdf:RDF>
  </metadata>
  <g
     inkscape:label="Layer 1"
     inkscape:groupmode="layer"
     id="layer1">
    <g
       ns0:jacobian_sqrt="0.352778"
       inkscapeversion="0.92.3"
       ns0:alignment="middle center"
       ns0:scale="1.0"
       ns0:preamble="/home/sergei/PycharmProjects/textext/extension/textext/default_packages.tex"
       ns0:text="$$\\lim_{x \\to 0} \\frac{\\sin(x)}{x} = 1$$\n"
       ns0:pdfconverter="pstoedit"
       ns0:texconverter="pdflatex"
       ns0:version="0.8.1"
       text-anchor="start"
       word-spacing="normal"
       letter-spacing="normal"
       font-size-adjust="none"
       font-stretch="normal"
       font-weight="normal"
       font-variant="normal"
       font-style="normal"
       fill-opacity="1"
       fill-rule="evenodd"
       fill="none"
       stroke-opacity="1"
       stroke-dashoffset="0"
       stroke-dasharray="none"
       stroke-miterlimit="10.433"
       stroke-linejoin="miter"
       stroke-linecap="butt"
       stroke="black"
       xml:space="preserve"
       transform="matrix(0.352778,0.000000,0.000000,-0.352778,-2.736638,376.271116)"
       id="content">
<path
   id="path835"
   fill="black"
   stroke-width="0"
   d="M276.48,648.92 L275.04,648.81 V648.5 C275.74,648.5,275.82,648.43,275.82,647.95 V642.78 C275.82,642.34,275.71,642.34,275.04,642.34 V642.03 C275.37,642.04,275.9,642.06,276.15,642.06 C276.39,642.06,276.88,642.04,277.25,642.03 V642.34 C276.58,642.34,276.48,642.34,276.48,642.78 Z " />
<path
   id="path837"
   fill="black"
   stroke-width="0"
   d="M279.24,646.42 L277.85,646.31 V646 C278.49,646,278.58,645.94,278.58,645.45 V642.78 C278.58,642.34,278.48,642.34,277.81,642.34 V642.03 C278.13,642.04,278.66,642.06,278.9,642.06 C279.25,642.06,279.6,642.04,279.94,642.03 V642.34 C279.28,642.34,279.24,642.39,279.24,642.77 Z " />
<path
   id="path839"
   fill="black"
   stroke-width="0"
   d="M279.28,648.15 L279.28,648.18 L279.28,648.2 L279.28,648.23 L279.27,648.26 L279.27,648.29 L279.26,648.31 L279.25,648.34 L279.24,648.36 L279.23,648.39 L279.22,648.41 L279.2,648.43 L279.19,648.45 L279.17,648.47 L279.16,648.49 L279.14,648.51 L279.12,648.53 L279.1,648.55 L279.09,648.56 L279.06,648.58 L279.04,648.59 L279.02,648.6 L279,648.61 L278.98,648.63 L278.95,648.64 L278.93,648.64 L278.91,648.65 L278.88,648.66 L278.86,648.66 L278.83,648.67 L278.81,648.67 L278.78,648.67 L278.75,648.67 C278.45,648.67,278.23,648.41,278.23,648.15 C278.23,647.88,278.45,647.62,278.75,647.62 C279.03,647.62,279.28,647.83,279.28,648.15 Z " />
<path
   id="path841"
   fill="black"
   stroke-width="0"
   d="M281.34,645.44 V642.78 C281.34,642.34,281.23,642.34,280.56,642.34 V642.03 C280.91,642.04,281.42,642.06,281.69,642.06 C281.95,642.06,282.47,642.04,282.81,642.03 V642.34 C282.14,642.34,282.03,642.34,282.03,642.78 V644.61 C282.03,645.64,282.74,646.2,283.38,646.2 C284.01,646.2,284.11,645.66,284.11,645.1 V642.78 C284.11,642.34,284.01,642.34,283.34,642.34 V642.03 C283.69,642.04,284.19,642.06,284.46,642.06 C284.72,642.06,285.24,642.04,285.58,642.03 V642.34 C284.91,642.34,284.8,642.34,284.8,642.78 V644.61 C284.8,645.64,285.51,646.2,286.15,646.2 C286.78,646.2,286.89,645.66,286.89,645.1 V642.78 C286.89,642.34,286.78,642.34,286.11,642.34 V642.03 C286.46,642.04,286.97,642.06,287.24,642.06 C287.49,642.06,288.01,642.04,288.35,642.03 V642.34 C287.83,642.34,287.58,642.34,287.58,642.63 V644.53 C287.58,645.39,287.58,645.69,287.27,646.05 C287.13,646.22,286.8,646.42,286.22,646.42 C285.38,646.42,284.94,645.82,284.77,645.44 C284.63,646.31,283.89,646.42,283.45,646.42 C282.72,646.42,282.25,645.99,281.97,645.38 V646.42 L280.56,646.31 V646 C281.26,646,281.34,645.93,281.34,645.44 Z " />
<path
   id="path843"
   fill="black"
   stroke-width="0"
   d="M275.15,636.61 L275.15,636.59 L275.14,636.56 L275.13,636.54 L275.12,636.52 L275.11,636.49 L275.1,636.47 L275.09,636.44 L275.07,636.41 L275.06,636.39 L275.04,636.36 L275.03,636.34 L275.01,636.31 L274.99,636.29 L274.97,636.26 L274.95,636.24 L274.93,636.22 L274.91,636.19 L274.89,636.17 L274.87,636.15 L274.84,636.13 L274.82,636.11 L274.79,636.09 L274.77,636.08 L274.74,636.06 L274.71,636.05 L274.68,636.03 L274.65,636.02 L274.62,636.01 L274.59,636.01 L274.56,636 L274.53,636 L274.5,636 C274.48,636,274.27,636,274.12,636.1 C274.41,636.19,274.43,636.44,274.43,636.48 C274.43,636.63,274.31,636.73,274.15,636.73 C273.95,636.73,273.75,636.57,273.75,636.31 C273.75,635.96,274.14,635.8,274.48,635.8 C274.8,635.8,275.09,636.01,275.27,636.3 C275.43,635.93,275.82,635.8,276.1,635.8 C276.9,635.8,277.33,636.67,277.33,636.87 C277.33,636.96,277.24,636.96,277.22,636.96 C277.12,636.96,277.11,636.92,277.08,636.84 C276.94,636.36,276.52,636,276.13,636 C275.85,636,275.7,636.19,275.7,636.45 C275.7,636.63,275.87,637.26,276.06,638.04 C276.2,638.57,276.52,638.74,276.75,638.74 C276.76,638.74,276.98,638.74,277.13,638.65 C276.9,638.59,276.82,638.39,276.82,638.27 C276.82,638.11,276.94,638.01,277.1,638.01 C277.26,638.01,277.49,638.14,277.49,638.43 C277.49,638.82,277.04,638.94,276.76,638.94 C276.41,638.94,276.13,638.71,275.98,638.45 C275.85,638.73,275.53,638.94,275.14,638.94 C274.36,638.94,273.91,638.08,273.91,637.88 C273.91,637.78,274.01,637.78,274.03,637.78 C274.12,637.78,274.13,637.81,274.16,637.9 C274.34,638.45,274.78,638.74,275.12,638.74 C275.35,638.74,275.54,638.62,275.54,638.29 C275.54,638.15,275.45,637.8,275.39,637.56 Z " />
<path
   id="path845"
   fill="black"
   stroke-width="0"
   d="M284.36,637.44 L284.28,637.38 L284.21,637.32 L284.14,637.26 L284.07,637.19 L284,637.13 L283.94,637.06 L283.89,637 L283.84,636.93 L283.79,636.87 L283.74,636.8 L283.7,636.74 L283.66,636.67 L283.62,636.61 L283.59,636.55 L283.56,636.49 L283.53,636.43 L283.51,636.37 L283.49,636.32 L283.47,636.26 L283.45,636.21 L283.43,636.17 L283.42,636.12 L283.41,636.08 L283.4,636.04 L283.39,636.01 L283.38,635.98 L283.38,635.95 L283.37,635.93 L283.37,635.91 L283.37,635.9 L283.36,635.89 L283.36,635.89 C283.36,635.78,283.43,635.78,283.53,635.78 C283.66,635.78,283.68,635.78,283.71,635.9 C283.76,636.08,283.87,636.52,284.23,636.9 C284.64,637.33,284.99,637.43,285.28,637.52 C285.32,637.53,285.35,637.58,285.35,637.61 C285.35,637.68,285.31,637.7,285.22,637.72 C284.21,638.04,283.85,638.75,283.71,639.36 C283.68,639.45,283.63,639.45,283.53,639.45 C283.43,639.45,283.36,639.45,283.36,639.34 C283.36,639.33,283.43,638.86,283.78,638.38 C283.94,638.15,284.13,637.95,284.36,637.78 H278.75 C278.64,637.78,278.47,637.78,278.47,637.62 C278.47,637.44,278.63,637.44,278.75,637.44 Z " />
<path
   id="path847"
   fill="black"
   stroke-width="0"
   d="M289.48,638.09 L289.48,638.23 L289.48,638.37 L289.47,638.5 L289.46,638.63 L289.45,638.75 L289.44,638.87 L289.42,638.98 L289.4,639.1 L289.37,639.2 L289.34,639.31 L289.31,639.41 L289.27,639.51 L289.23,639.61 L289.18,639.71 L289.13,639.8 L289.1,639.85 L289.07,639.89 C288.85,640.21,288.42,640.49,287.86,640.49 V640.3 C288.24,640.3,288.6,640.07,288.73,639.66 C288.84,639.29,288.85,638.79,288.85,638.18 C288.85,637.67,288.85,637.15,288.75,636.71 C288.61,636.08,288.14,635.93,287.86,635.93 H287.86 C287.54,635.93,287.11,636.12,286.97,636.69 C286.87,637.1,286.87,637.67,286.87,638.18 C286.87,638.69,286.87,639.22,286.98,639.6 C287.12,640.15,287.57,640.3,287.86,640.3 V640.49 C286.24,640.49,286.24,638.59,286.24,638.09 C286.24,637.59,286.24,635.73,287.86,635.73 C289.48,635.73,289.48,637.59,289.48,638.09 Z " />
<path
   id="path849"
   fill="black"
   stroke-width="0"
   d="M294.77,650.69 L294.8,650.69 L294.82,650.68 L294.85,650.68 L294.88,650.67 L294.92,650.66 L294.95,650.66 L294.99,650.65 L295.03,650.63 L295.07,650.62 L295.11,650.61 L295.16,650.59 L295.2,650.58 L295.24,650.56 L295.29,650.54 L295.33,650.51 L295.37,650.49 L295.42,650.46 L295.46,650.44 L295.5,650.41 L295.54,650.37 L295.58,650.34 L295.61,650.3 L295.65,650.26 L295.68,650.22 L295.71,650.17 L295.72,650.15 L295.73,650.13 L295.75,650.1 L295.76,650.08 L295.77,650.05 L295.78,650.02 L295.78,650 L295.79,649.97 L295.8,649.94 L295.8,649.91 L295.81,649.88 L295.81,649.85 L295.81,649.81 L295.81,649.78 C295.81,649.27,295.46,648.88,294.68,648.88 C293.85,648.88,293.49,649.44,293.3,650.29 C293.27,650.42,293.26,650.46,293.16,650.46 C293.03,650.46,293.03,650.39,293.03,650.21 V648.9 C293.03,648.73,293.03,648.66,293.14,648.66 C293.19,648.66,293.2,648.67,293.39,648.86 C293.41,648.88,293.41,648.9,293.59,649.09 C294.03,648.67,294.48,648.66,294.68,648.66 C295.83,648.66,296.29,649.32,296.29,650.04 C296.29,650.57,295.99,650.86,295.87,650.98 C295.54,651.3,295.15,651.38,294.73,651.46 C294.18,651.57,293.51,651.7,293.51,652.27 C293.51,652.62,293.77,653.03,294.62,653.03 C295.72,653.03,295.77,652.14,295.79,651.83 C295.8,651.74,295.89,651.74,295.91,651.74 C296.04,651.74,296.04,651.79,296.04,651.98 V652.98 C296.04,653.15,296.04,653.22,295.93,653.22 C295.88,653.22,295.86,653.22,295.73,653.1 C295.7,653.06,295.6,652.97,295.56,652.94 C295.18,653.22,294.77,653.22,294.62,653.22 C293.41,653.22,293.03,652.55,293.03,651.99 C293.03,651.65,293.19,651.37,293.46,651.15 C293.78,650.89,294.06,650.83,294.77,650.69 Z " />
<path
   id="path851"
   fill="black"
   stroke-width="0"
   d="M298.39,653.16 L297,653.05 V652.74 C297.65,652.74,297.74,652.68,297.74,652.19 V649.52 C297.74,649.08,297.63,649.08,296.96,649.08 V648.77 C297.28,648.78,297.82,648.8,298.05,648.8 C298.4,648.8,298.75,648.78,299.09,648.77 V649.08 C298.43,649.08,298.39,649.12,298.39,649.51 Z " />
<path
   id="path853"
   fill="black"
   stroke-width="0"
   d="M298.43,654.89 L298.43,654.92 L298.43,654.94 L298.43,654.97 L298.42,655 L298.42,655.03 L298.41,655.05 L298.4,655.08 L298.39,655.1 L298.38,655.13 L298.37,655.15 L298.35,655.17 L298.34,655.19 L298.33,655.21 L298.31,655.23 L298.29,655.25 L298.27,655.27 L298.26,655.29 L298.24,655.3 L298.22,655.32 L298.2,655.33 L298.17,655.34 L298.15,655.35 L298.13,655.37 L298.11,655.38 L298.08,655.38 L298.06,655.39 L298.03,655.4 L298.01,655.4 L297.98,655.41 L297.96,655.41 L297.93,655.41 L297.91,655.41 C297.6,655.41,297.38,655.15,297.38,654.89 C297.38,654.62,297.6,654.36,297.91,654.36 C298.18,654.36,298.43,654.57,298.43,654.89 Z " />
<path
   id="path855"
   fill="black"
   stroke-width="0"
   d="M300.49,652.18 V649.52 C300.49,649.08,300.38,649.08,299.72,649.08 V648.77 C300.07,648.78,300.57,648.8,300.84,648.8 C301.1,648.8,301.62,648.78,301.96,648.77 V649.08 C301.29,649.08,301.18,649.08,301.18,649.52 V651.35 C301.18,652.38,301.89,652.94,302.53,652.94 C303.16,652.94,303.27,652.4,303.27,651.84 V649.52 C303.27,649.08,303.16,649.08,302.49,649.08 V648.77 C302.84,648.78,303.35,648.8,303.61,648.8 C303.87,648.8,304.39,648.78,304.73,648.77 V649.08 C304.21,649.08,303.96,649.08,303.95,649.37 V651.27 C303.95,652.12,303.95,652.43,303.64,652.79 C303.51,652.96,303.18,653.16,302.6,653.16 C301.87,653.16,301.4,652.73,301.12,652.11 V653.16 L299.72,653.05 V652.74 C300.41,652.74,300.49,652.67,300.49,652.18 Z " />
<path
   id="path857"
   fill="black"
   stroke-width="0"
   d="M308.23,646.38 L308.23,646.39 L308.23,646.39 L308.23,646.4 L308.23,646.4 L308.23,646.4 L308.23,646.41 L308.23,646.41 L308.23,646.41 L308.23,646.42 L308.22,646.42 L308.22,646.42 L308.22,646.43 L308.22,646.43 L308.21,646.44 L308.21,646.45 L308.2,646.45 L308.2,646.46 L308.19,646.47 L308.19,646.47 L308.18,646.47 L308.18,646.48 L308.18,646.48 L308.17,646.49 L308.17,646.49 L308.17,646.5 L308.16,646.5 L308.16,646.5 L308.15,646.51 L308.15,646.52 L308.14,646.52 L308.14,646.53 L308.13,646.53 L308.13,646.54 L308.12,646.54 L308.11,646.55 L308.11,646.56 L308.1,646.56 L308.09,646.57 L308.09,646.58 L308.08,646.59 L308.07,646.59 L308.06,646.6 C306.82,647.85,306.5,649.73,306.5,651.25 C306.5,652.98,306.88,654.71,308.1,655.95 C308.23,656.07,308.23,656.09,308.23,656.12 C308.23,656.19,308.19,656.22,308.13,656.22 C308.03,656.22,307.14,655.54,306.55,654.28 C306.04,653.19,305.92,652.09,305.92,651.25 C305.92,650.48,306.03,649.27,306.58,648.15 C307.18,646.93,308.03,646.28,308.13,646.28 C308.19,646.28,308.23,646.31,308.23,646.38 Z " />
<path
   id="path859"
   fill="black"
   stroke-width="0"
   d="M312.14,651.77 L312.14,651.79 L312.15,651.82 L312.16,651.86 L312.17,651.89 L312.18,651.93 L312.19,651.97 L312.2,652.01 L312.22,652.06 L312.23,652.11 L312.25,652.15 L312.27,652.2 L312.29,652.25 L312.31,652.3 L312.34,652.35 L312.36,652.4 L312.39,652.45 L312.42,652.5 L312.45,652.55 L312.49,652.59 L312.52,652.64 L312.56,652.68 L312.6,652.72 L312.64,652.76 L312.68,652.79 L312.73,652.82 L312.78,652.85 L312.8,652.87 L312.83,652.88 L312.86,652.89 L312.88,652.9 L312.91,652.91 L312.94,652.92 L312.97,652.92 L313,652.93 L313.03,652.93 L313.06,652.94 L313.09,652.94 L313.12,652.94 C313.17,652.94,313.41,652.94,313.62,652.81 C313.34,652.76,313.14,652.51,313.14,652.27 C313.14,652.11,313.25,651.93,313.52,651.93 C313.74,651.93,314.06,652.1,314.06,652.5 C314.06,653.02,313.47,653.16,313.13,653.16 C312.56,653.16,312.21,652.63,312.09,652.4 C311.84,653.06,311.3,653.16,311.01,653.16 C309.97,653.16,309.4,651.88,309.4,651.63 C309.4,651.53,309.5,651.53,309.52,651.53 C309.6,651.53,309.63,651.55,309.65,651.64 C309.99,652.69,310.65,652.94,310.99,652.94 C311.18,652.94,311.53,652.85,311.53,652.27 C311.53,651.97,311.36,651.3,310.99,649.91 C310.83,649.29,310.48,648.88,310.04,648.88 C309.98,648.88,309.75,648.88,309.54,649.01 C309.79,649.05,310.01,649.26,310.01,649.54 C310.01,649.81,309.79,649.89,309.64,649.89 C309.34,649.89,309.1,649.63,309.1,649.31 C309.1,648.86,309.59,648.66,310.03,648.66 C310.69,648.66,311.05,649.35,311.08,649.41 C311.2,649.04,311.56,648.66,312.16,648.66 C313.18,648.66,313.75,649.94,313.75,650.19 C313.75,650.29,313.66,650.29,313.63,650.29 C313.54,650.29,313.52,650.25,313.5,650.18 C313.17,649.11,312.5,648.88,312.18,648.88 C311.79,648.88,311.63,649.19,311.63,649.53 C311.63,649.75,311.69,649.97,311.8,650.41 Z " />
<path
   id="path861"
   fill="black"
   stroke-width="0"
   d="M317.38,651.25 L317.38,651.32 L317.38,651.4 L317.38,651.48 L317.38,651.56 L317.37,651.73 L317.36,651.9 L317.34,652.09 L317.32,652.28 L317.29,652.47 L317.26,652.67 L317.22,652.87 L317.17,653.08 L317.12,653.29 L317.06,653.5 L316.99,653.71 L316.91,653.93 L316.87,654.03 L316.82,654.14 L316.77,654.24 L316.72,654.35 C316.12,655.57,315.27,656.22,315.17,656.22 C315.11,656.22,315.07,656.18,315.07,656.12 C315.07,656.09,315.07,656.07,315.26,655.89 C316.23,654.91,316.8,653.33,316.8,651.25 C316.8,649.55,316.43,647.8,315.2,646.55 C315.07,646.43,315.07,646.41,315.07,646.38 C315.07,646.32,315.11,646.28,315.17,646.28 C315.27,646.28,316.17,646.96,316.75,648.22 C317.26,649.31,317.38,650.42,317.38,651.25 Z " />
<line
   id="line863"
   stroke-width="0.398"
   y2="644.52"
   x2="318.38"
   y1="644.52"
   x1="292.7" />
<path
   id="path865"
   fill="black"
   stroke-width="0"
   d="M306.02,638.19 L306.03,638.22 L306.04,638.25 L306.04,638.28 L306.05,638.32 L306.06,638.36 L306.08,638.4 L306.09,638.44 L306.1,638.48 L306.12,638.53 L306.14,638.58 L306.16,638.63 L306.18,638.68 L306.2,638.73 L306.22,638.78 L306.25,638.83 L306.28,638.88 L306.31,638.92 L306.34,638.97 L306.37,639.02 L306.41,639.06 L306.44,639.1 L306.48,639.15 L306.52,639.18 L306.57,639.22 L306.62,639.25 L306.66,639.28 L306.69,639.29 L306.71,639.3 L306.74,639.32 L306.77,639.33 L306.8,639.33 L306.82,639.34 L306.85,639.35 L306.88,639.35 L306.91,639.36 L306.94,639.36 L306.98,639.36 L307.01,639.36 C307.06,639.36,307.3,639.36,307.51,639.24 C307.23,639.19,307.03,638.94,307.03,638.7 C307.03,638.54,307.14,638.35,307.41,638.35 C307.63,638.35,307.95,638.53,307.95,638.93 C307.95,639.45,307.36,639.58,307.02,639.58 C306.44,639.58,306.09,639.06,305.97,638.83 C305.72,639.48,305.18,639.58,304.89,639.58 C303.86,639.58,303.29,638.3,303.29,638.05 C303.29,637.96,303.39,637.96,303.41,637.96 C303.49,637.96,303.52,637.97,303.54,638.06 C303.88,639.12,304.54,639.36,304.88,639.36 C305.06,639.36,305.41,639.28,305.41,638.7 C305.41,638.39,305.24,637.73,304.88,636.34 C304.71,635.72,304.37,635.3,303.93,635.3 C303.87,635.3,303.64,635.3,303.43,635.43 C303.68,635.48,303.9,635.69,303.9,635.97 C303.9,636.24,303.68,636.32,303.53,636.32 C303.23,636.32,302.98,636.06,302.98,635.74 C302.98,635.28,303.48,635.08,303.92,635.08 C304.58,635.08,304.93,635.78,304.96,635.84 C305.08,635.47,305.44,635.08,306.04,635.08 C307.07,635.08,307.64,636.36,307.64,636.61 C307.64,636.71,307.55,636.71,307.52,636.71 C307.43,636.71,307.41,636.67,307.39,636.6 C307.06,635.54,306.38,635.3,306.06,635.3 C305.67,635.3,305.51,635.62,305.51,635.96 C305.51,636.18,305.57,636.4,305.68,636.83 Z " />
<path
   id="path867"
   fill="black"
   stroke-width="0"
   d="M329.19,645.28 L329.22,645.28 L329.25,645.28 L329.28,645.28 L329.29,645.28 L329.3,645.28 L329.32,645.28 L329.33,645.28 L329.35,645.28 L329.36,645.29 L329.38,645.29 L329.39,645.29 L329.4,645.3 L329.41,645.3 L329.43,645.3 L329.44,645.31 L329.45,645.32 L329.46,645.32 L329.47,645.33 L329.48,645.34 L329.49,645.35 L329.5,645.36 L329.5,645.36 L329.5,645.37 L329.51,645.38 L329.51,645.38 L329.51,645.39 L329.51,645.39 L329.52,645.4 L329.52,645.41 L329.52,645.42 L329.52,645.42 L329.52,645.43 L329.53,645.44 L329.53,645.45 L329.53,645.46 L329.53,645.46 L329.53,645.47 C329.53,645.67,329.34,645.67,329.2,645.67 H323.23 C323.09,645.67,322.9,645.67,322.9,645.47 C322.9,645.28,323.09,645.28,323.24,645.28 Z " />
<path
   id="path869"
   fill="black"
   stroke-width="0"
   d="M329.2,643.35 L329.21,643.35 L329.23,643.35 L329.25,643.35 L329.28,643.35 L329.3,643.35 L329.31,643.35 L329.32,643.35 L329.34,643.35 L329.35,643.36 L329.36,643.36 L329.38,643.36 L329.39,643.36 L329.4,643.37 L329.42,643.37 L329.43,643.38 L329.44,643.38 L329.45,643.39 L329.46,643.4 L329.47,643.4 L329.48,643.41 L329.49,643.42 L329.49,643.43 L329.5,643.43 L329.5,643.44 L329.5,643.44 L329.51,643.45 L329.51,643.45 L329.51,643.46 L329.52,643.47 L329.52,643.47 L329.52,643.48 L329.52,643.49 L329.52,643.5 L329.52,643.5 L329.53,643.51 L329.53,643.52 L329.53,643.53 L329.53,643.54 L329.53,643.55 C329.53,643.75,329.34,643.75,329.19,643.75 H323.24 C323.09,643.75,322.9,643.75,322.9,643.55 C322.9,643.35,323.09,643.35,323.23,643.35 Z " />
<path
   id="path871"
   fill="black"
   stroke-width="0"
   d="M335.79,648.39 L335.79,648.4 L335.79,648.41 L335.79,648.42 L335.79,648.43 L335.79,648.44 L335.79,648.45 L335.79,648.46 L335.79,648.46 L335.79,648.47 L335.79,648.48 L335.79,648.49 L335.79,648.5 L335.79,648.5 L335.79,648.51 L335.79,648.52 L335.78,648.53 L335.78,648.53 L335.78,648.54 L335.78,648.55 L335.78,648.56 L335.78,648.57 L335.77,648.58 L335.77,648.59 L335.76,648.6 L335.76,648.6 L335.75,648.61 L335.75,648.61 L335.74,648.62 L335.73,648.62 L335.72,648.63 L335.72,648.63 L335.71,648.63 L335.71,648.63 L335.7,648.63 L335.7,648.64 L335.69,648.64 L335.69,648.64 L335.68,648.64 L335.67,648.64 L335.67,648.64 L335.66,648.64 L335.65,648.64 L335.64,648.64 L335.63,648.64 L335.63,648.64 L335.62,648.64 L335.61,648.64 L335.6,648.64 L335.59,648.64 L335.58,648.64 L335.57,648.64 L335.56,648.64 C334.94,648.01,334.06,648.01,333.74,648.01 V647.7 C333.94,647.7,334.53,647.7,335.05,647.96 V642.81 C335.05,642.45,335.02,642.34,334.12,642.34 H333.8 V642.03 C334.15,642.06,335.02,642.06,335.42,642.06 C335.82,642.06,336.69,642.06,337.04,642.03 V642.34 H336.72 C335.82,642.34,335.79,642.44,335.79,642.81 Z " />
</g>  </g>
</svg>
