<?xml version="1.0" encoding="UTF-8" standalone="no"?>
<!-- Created with Inkscape (http://www.inkscape.org/) -->

<svg
   xmlns:ns1="http://www.iki.fi/pav/software/textext/"
   xmlns:dc="http://purl.org/dc/elements/1.1/"
   xmlns:cc="http://creativecommons.org/ns#"
   xmlns:rdf="http://www.w3.org/1999/02/22-rdf-syntax-ns#"
   xmlns:svg="http://www.w3.org/2000/svg"
   xmlns="http://www.w3.org/2000/svg"
   xmlns:sodipodi="http://sodipodi.sourceforge.net/DTD/sodipodi-0.dtd"
   xmlns:inkscape="http://www.inkscape.org/namespaces/inkscape"
   width="210mm"
   height="297mm"
   viewBox="0 0 210 297"
   version="1.1"
   id="svg3702"
   inkscape:version="0.92.3 (2405546, 2018-03-11)"
   sodipodi:docname="modified.svg">
  <sodipodi:namedview
     id="base"
     pagecolor="#ffffff"
     bordercolor="#666666"
     borderopacity="1.0"
     inkscape:pageopacity="0.0"
     inkscape:pageshadow="2"
     inkscape:zoom="0.79553171"
     inkscape:cx="396.85039"
     inkscape:cy="561.25984"
     inkscape:document-units="mm"
     inkscape:current-layer="layer1"
     showgrid="false"
     inkscape:window-width="1920"
     inkscape:window-height="1141"
     inkscape:window-x="0"
     inkscape:window-y="0"
     inkscape:window-maximized="1" />
  <defs
     id="defs3696" />
  <metadata
     id="metadata3699">
    <rdf:RDF>
      <cc:Work
         rdf:about="">
        <dc:format>image/svg+xml</dc:format>
        <dc:type
           rdf:resource="http://purl.org/dc/dcmitype/StillImage" />
        <dc:title />
      </cc:Work>
    </rdf:RDF>
  </metadata>
  <g
     id="layer1"
     inkscape:groupmode="layer"
     inkscape:label="Ebene 1">
    <g
       style="stroke:#000000;stroke-opacity:1;fill-opacity:1"
       ns1:jacobian_sqrt="1.43139075683"
       inkscapeversion="0.92.3"
       ns1:alignment="middle center"
       ns1:scale="4.05749494548"
       ns1:preamble="/home/winkler/.config/inkscape/extensions/textext/default_packages.tex"
       ns1:text="$$\\lim_{y \\to 0} \\frac{\\sin(y)}{y} = 1$$"
       ns1:pdfconverter="pstoedit"
       ns1:texconverter="pdflatex"
       ns1:version="0.11.1"
       text-anchor="start"
       word-spacing="normal"
       letter-spacing="normal"
       font-size-adjust="none"
       font-stretch="normal"
       font-weight="normal"
       font-variant="normal"
       font-style="normal"
       fill-opacity="1"
       fill-rule="evenodd"
       fill="none"
       stroke-opacity="1"
       stroke-dashoffset="0"
       stroke-dasharray="none"
       stroke-miterlimit="10.433"
       stroke-linejoin="miter"
       stroke-linecap="butt"
       stroke="black"
       xml:space="preserve"
       transform="matrix(1.354677,0.442199,0.624359,-1.308643,-735.763968,758.798996)"
       id="content">
<path
   id="path6861"
   style="stroke:#000000;stroke-opacity:1;fill-opacity:1"
   fill="black"
   stroke-width="0"
   d="M276.7,648.92 L275.27,648.81 V648.51 C275.95,648.51,276.05,648.43,276.05,647.95 V642.78 C276.05,642.34,275.94,642.34,275.27,642.34 V642.03 C275.59,642.04,276.12,642.06,276.38,642.06 C276.61,642.06,277.11,642.04,277.47,642.03 V642.34 C276.81,642.34,276.7,642.34,276.7,642.78 Z " />
<path
   id="path6863"
   style="stroke:#000000;stroke-opacity:1;fill-opacity:1"
   fill="black"
   stroke-width="0"
   d="M279.47,646.42 L278.08,646.31 V646 C278.72,646,278.81,645.93,278.81,645.45 V642.78 C278.81,642.34,278.7,642.34,278.03,642.34 V642.03 C278.34,642.04,278.89,642.06,279.12,642.06 C279.47,642.06,279.81,642.04,280.16,642.03 V642.34 C279.5,642.34,279.47,642.39,279.47,642.78 Z " />
<path
   id="path6865"
   style="stroke:#000000;stroke-opacity:1;fill-opacity:1"
   fill="black"
   stroke-width="0"
   d="M279.5,648.15 L279.5,648.18 L279.5,648.21 L279.49,648.24 L279.49,648.26 L279.48,648.29 L279.48,648.32 L279.47,648.34 L279.46,648.36 L279.45,648.39 L279.43,648.41 L279.42,648.43 L279.41,648.45 L279.39,648.47 L279.37,648.49 L279.36,648.51 L279.34,648.53 L279.32,648.54 L279.3,648.56 L279.28,648.57 L279.26,648.59 L279.24,648.6 L279.22,648.61 L279.19,648.62 L279.17,648.63 L279.15,648.64 L279.12,648.65 L279.1,648.65 L279.07,648.66 L279.05,648.66 L279.02,648.67 L279,648.67 L278.97,648.67 C278.67,648.67,278.45,648.4,278.45,648.15 C278.45,647.87,278.67,647.62,278.97,647.62 C279.25,647.62,279.5,647.82,279.5,648.15 Z " />
<path
   id="path6867"
   style="stroke:#000000;stroke-opacity:1;fill-opacity:1"
   fill="black"
   stroke-width="0"
   d="M281.56,645.45 V642.78 C281.56,642.34,281.45,642.34,280.78,642.34 V642.03 C281.14,642.04,281.64,642.06,281.91,642.06 C282.17,642.06,282.69,642.04,283.02,642.03 V642.34 C282.36,642.34,282.25,642.34,282.25,642.78 V644.6 C282.25,645.64,282.95,646.2,283.59,646.2 C284.22,646.2,284.33,645.67,284.33,645.09 V642.78 C284.33,642.34,284.22,642.34,283.55,642.34 V642.03 C283.89,642.04,284.41,642.06,284.67,642.06 C284.92,642.06,285.45,642.04,285.78,642.03 V642.34 C285.12,642.34,285.02,642.34,285.02,642.78 V644.6 C285.02,645.64,285.72,646.2,286.34,646.2 C286.97,646.2,287.08,645.67,287.08,645.09 V642.78 C287.08,642.34,286.97,642.34,286.31,642.34 V642.03 C286.66,642.04,287.17,642.06,287.44,642.06 C287.69,642.06,288.2,642.04,288.55,642.03 V642.34 C288.03,642.34,287.78,642.34,287.77,642.64 V644.53 C287.77,645.39,287.77,645.7,287.47,646.04 C287.33,646.22,287,646.42,286.42,646.42 C285.58,646.42,285.14,645.82,284.98,645.45 C284.84,646.31,284.11,646.42,283.66,646.42 C282.94,646.42,282.47,646,282.19,645.37 V646.42 L280.78,646.31 V646 C281.48,646,281.56,645.93,281.56,645.45 Z " />
<path
   id="path6869"
   style="stroke:#000000;stroke-opacity:1;fill-opacity:1"
   fill="black"
   stroke-width="0"
   d="M277.66,638.53 L277.66,638.53 L277.66,638.54 L277.67,638.54 L277.67,638.55 L277.67,638.56 L277.67,638.57 L277.67,638.57 L277.68,638.58 L277.68,638.58 L277.68,638.59 L277.68,638.6 L277.68,638.6 L277.68,638.61 L277.68,638.61 L277.69,638.61 L277.69,638.62 L277.69,638.62 L277.69,638.63 L277.69,638.63 L277.69,638.63 L277.69,638.64 L277.69,638.65 L277.69,638.65 L277.69,638.66 L277.69,638.67 L277.69,638.67 L277.69,638.68 L277.69,638.68 L277.69,638.68 C277.69,638.82,277.58,638.9,277.46,638.9 C277.38,638.9,277.25,638.87,277.18,638.73 C277.14,638.68,277.1,638.47,277.05,638.32 L276.91,637.75 C276.86,637.57,276.64,636.68,276.63,636.6 C276.63,636.6,276.32,636,275.77,636 C275.29,636,275.29,636.45,275.29,636.57 C275.29,636.97,275.44,637.4,275.66,637.95 C275.74,638.17,275.79,638.26,275.79,638.37 C275.79,638.72,275.49,638.97,275.11,638.97 C274.39,638.97,274.08,638.01,274.08,637.9 C274.08,637.81,274.18,637.81,274.21,637.81 C274.3,637.81,274.32,637.84,274.33,637.92 C274.5,638.5,274.8,638.78,275.08,638.78 C275.21,638.78,275.27,638.7,275.27,638.53 C275.27,638.37,275.21,638.22,275.16,638.12 C274.83,637.26,274.75,637,274.75,636.7 C274.75,636.57,274.75,636.25,275.04,636.01 C275.25,635.84,275.55,635.81,275.74,635.81 C276.02,635.81,276.27,635.9,276.5,636.12 C276.41,635.73,276.33,635.43,276.04,635.09 C275.85,634.87,275.57,634.64,275.19,634.64 C275.14,634.64,274.82,634.64,274.66,634.87 C275.05,634.9,275.05,635.25,275.05,635.25 C275.05,635.48,274.85,635.53,274.77,635.53 C274.6,635.53,274.36,635.39,274.36,635.06 C274.36,634.7,274.71,634.43,275.21,634.43 C275.91,634.43,276.77,634.98,276.99,635.87 Z " />
<path
   id="path6871"
   style="stroke:#000000;stroke-opacity:1;fill-opacity:1"
   fill="black"
   stroke-width="0"
   d="M284.51,637.47 L284.43,637.4 L284.35,637.34 L284.28,637.27 L284.21,637.21 L284.15,637.14 L284.09,637.08 L284.03,637.01 L283.98,636.94 L283.93,636.87 L283.89,636.81 L283.84,636.74 L283.8,636.68 L283.77,636.61 L283.74,636.55 L283.71,636.49 L283.68,636.43 L283.65,636.37 L283.63,636.32 L283.61,636.26 L283.59,636.21 L283.58,636.17 L283.56,636.12 L283.55,636.08 L283.54,636.04 L283.53,636.01 L283.53,635.98 L283.52,635.95 L283.52,635.93 L283.52,635.91 L283.51,635.9 L283.51,635.89 L283.51,635.89 C283.51,635.78,283.57,635.78,283.67,635.78 C283.79,635.78,283.82,635.78,283.86,635.9 C283.9,636.07,284.01,636.53,284.37,636.92 C284.78,637.34,285.14,637.45,285.43,637.54 C285.48,637.56,285.5,637.59,285.5,637.62 C285.5,637.7,285.46,637.72,285.37,637.75 C284.36,638.06,284,638.78,283.86,639.4 C283.82,639.48,283.78,639.48,283.67,639.48 C283.57,639.48,283.51,639.48,283.51,639.39 C283.51,639.37,283.57,638.89,283.92,638.4 C284.07,638.17,284.28,637.98,284.51,637.81 H278.87 C278.75,637.81,278.59,637.81,278.59,637.64 C278.59,637.47,278.75,637.47,278.87,637.47 Z " />
<path
   id="path6873"
   style="stroke:#000000;stroke-opacity:1;fill-opacity:1"
   fill="black"
   stroke-width="0"
   d="M289.61,638.12 L289.61,638.26 L289.6,638.4 L289.6,638.53 L289.59,638.66 L289.58,638.78 L289.56,638.9 L289.54,639.02 L289.52,639.13 L289.5,639.24 L289.47,639.35 L289.44,639.45 L289.4,639.55 L289.36,639.65 L289.31,639.75 L289.26,639.84 L289.2,639.93 C288.98,640.26,288.55,640.54,287.98,640.54 V640.34 C288.36,640.34,288.72,640.1,288.86,639.7 C288.97,639.32,288.97,638.82,288.97,638.2 C288.97,637.68,288.97,637.17,288.88,636.72 C288.73,636.07,288.27,635.93,287.98,635.93 H287.98 C287.66,635.93,287.23,636.12,287.09,636.7 C286.98,637.1,286.98,637.68,286.98,638.2 C286.98,638.72,286.98,639.25,287.09,639.64 C287.25,640.2,287.69,640.34,287.98,640.34 V640.54 C286.34,640.54,286.34,638.62,286.34,638.12 C286.34,637.6,286.34,635.73,287.98,635.73 C289.61,635.73,289.61,637.6,289.61,638.12 Z " />
<path
   id="path6875"
   style="stroke:#000000;stroke-opacity:1;fill-opacity:1"
   fill="black"
   stroke-width="0"
   d="M294.88,650.69 L294.9,650.68 L294.92,650.68 L294.95,650.68 L294.98,650.67 L295.02,650.66 L295.05,650.65 L295.09,650.64 L295.13,650.63 L295.17,650.62 L295.21,650.61 L295.25,650.59 L295.3,650.58 L295.34,650.56 L295.39,650.54 L295.43,650.52 L295.47,650.49 L295.52,650.47 L295.56,650.44 L295.6,650.41 L295.64,650.38 L295.68,650.34 L295.71,650.3 L295.74,650.26 L295.78,650.22 L295.8,650.18 L295.82,650.15 L295.83,650.13 L295.84,650.1 L295.85,650.08 L295.86,650.05 L295.87,650.03 L295.88,650 L295.89,649.97 L295.89,649.94 L295.9,649.91 L295.9,649.88 L295.9,649.85 L295.91,649.81 L295.91,649.78 C295.91,649.27,295.56,648.88,294.8,648.88 C293.95,648.88,293.59,649.44,293.41,650.28 C293.38,650.42,293.38,650.45,293.27,650.45 C293.14,650.45,293.14,650.39,293.14,650.2 V648.89 C293.14,648.72,293.14,648.66,293.25,648.66 C293.3,648.66,293.31,648.67,293.5,648.86 C293.52,648.88,293.52,648.89,293.7,649.08 C294.14,648.67,294.58,648.66,294.8,648.66 C295.94,648.66,296.39,649.33,296.39,650.03 C296.39,650.56,296.09,650.86,295.97,650.98 C295.64,651.3,295.25,651.38,294.84,651.45 C294.28,651.56,293.61,651.7,293.61,652.27 C293.61,652.62,293.88,653.03,294.73,653.03 C295.83,653.03,295.88,652.14,295.89,651.83 C295.91,651.73,295.98,651.73,296.02,651.73 C296.14,651.73,296.14,651.78,296.14,651.97 V652.98 C296.14,653.14,296.14,653.22,296.03,653.22 C295.98,653.22,295.97,653.22,295.83,653.09 C295.8,653.06,295.7,652.97,295.66,652.94 C295.28,653.22,294.88,653.22,294.73,653.22 C293.52,653.22,293.14,652.55,293.14,652 C293.14,651.64,293.3,651.38,293.56,651.16 C293.89,650.89,294.16,650.83,294.88,650.69 Z " />
<path
   id="path6877"
   style="stroke:#000000;stroke-opacity:1;fill-opacity:1"
   fill="black"
   stroke-width="0"
   d="M298.5,653.16 L297.11,653.05 V652.73 C297.75,652.73,297.85,652.67,297.85,652.19 V649.52 C297.85,649.08,297.74,649.08,297.07,649.08 V648.77 C297.38,648.78,297.93,648.8,298.16,648.8 C298.5,648.8,298.85,648.78,299.19,648.77 V649.08 C298.54,649.08,298.5,649.12,298.5,649.52 Z " />
<path
   id="path6879"
   style="stroke:#000000;stroke-opacity:1;fill-opacity:1"
   fill="black"
   stroke-width="0"
   d="M298.54,654.89 L298.53,654.92 L298.53,654.95 L298.53,654.98 L298.52,655 L298.52,655.03 L298.51,655.05 L298.5,655.08 L298.49,655.1 L298.48,655.13 L298.47,655.15 L298.46,655.17 L298.44,655.19 L298.43,655.21 L298.41,655.23 L298.39,655.25 L298.37,655.27 L298.36,655.28 L298.34,655.3 L298.32,655.31 L298.3,655.33 L298.27,655.34 L298.25,655.35 L298.23,655.36 L298.21,655.37 L298.18,655.38 L298.16,655.39 L298.13,655.39 L298.11,655.4 L298.08,655.4 L298.06,655.4 L298.03,655.41 L298,655.41 C297.71,655.41,297.49,655.14,297.49,654.89 C297.49,654.61,297.71,654.36,298,654.36 C298.29,654.36,298.54,654.56,298.54,654.89 Z " />
<path
   id="path6881"
   style="stroke:#000000;stroke-opacity:1;fill-opacity:1"
   fill="black"
   stroke-width="0"
   d="M300.6,652.19 V649.52 C300.6,649.08,300.49,649.08,299.82,649.08 V648.77 C300.18,648.78,300.68,648.8,300.94,648.8 C301.21,648.8,301.72,648.78,302.05,648.77 V649.08 C301.39,649.08,301.29,649.08,301.29,649.52 V651.34 C301.29,652.38,301.99,652.94,302.63,652.94 C303.25,652.94,303.36,652.41,303.36,651.83 V649.52 C303.36,649.08,303.25,649.08,302.58,649.08 V648.77 C302.93,648.78,303.44,648.8,303.71,648.8 C303.96,648.8,304.49,648.78,304.82,648.77 V649.08 C304.3,649.08,304.05,649.08,304.05,649.38 V651.27 C304.05,652.12,304.05,652.44,303.74,652.78 C303.6,652.95,303.27,653.16,302.69,653.16 C301.97,653.16,301.5,652.73,301.22,652.11 V653.16 L299.82,653.05 V652.73 C300.52,652.73,300.6,652.67,300.6,652.19 Z " />
<path
   id="path6883"
   style="stroke:#000000;stroke-opacity:1;fill-opacity:1"
   fill="black"
   stroke-width="0"
   d="M308.32,646.38 L308.32,646.38 L308.32,646.39 L308.32,646.39 L308.32,646.39 L308.32,646.4 L308.32,646.4 L308.32,646.4 L308.32,646.41 L308.31,646.41 L308.31,646.42 L308.31,646.42 L308.31,646.43 L308.3,646.43 L308.3,646.44 L308.3,646.44 L308.29,646.45 L308.29,646.46 L308.28,646.46 L308.28,646.47 L308.27,646.48 L308.27,646.48 L308.26,646.49 L308.26,646.49 L308.25,646.5 L308.25,646.5 L308.25,646.51 L308.24,646.51 L308.24,646.52 L308.23,646.52 L308.23,646.53 L308.22,646.54 L308.22,646.54 L308.21,646.55 L308.2,646.55 L308.2,646.56 L308.19,646.57 L308.18,646.57 L308.18,646.58 L308.17,646.59 L308.16,646.59 C306.91,647.86,306.6,649.73,306.6,651.25 C306.6,652.98,306.98,654.7,308.2,655.95 C308.32,656.06,308.32,656.09,308.32,656.11 C308.32,656.19,308.29,656.22,308.23,656.22 C308.13,656.22,307.24,655.55,306.65,654.28 C306.15,653.19,306.02,652.08,306.02,651.25 C306.02,650.47,306.13,649.27,306.68,648.16 C307.27,646.92,308.13,646.28,308.23,646.28 C308.29,646.28,308.32,646.31,308.32,646.38 Z " />
<path
   id="path6885"
   style="stroke:#000000;stroke-opacity:1;fill-opacity:1"
   fill="black"
   stroke-width="0"
   d="M313.75,652.55 L313.75,652.55 L313.75,652.56 L313.75,652.57 L313.75,652.57 L313.76,652.58 L313.76,652.58 L313.76,652.59 L313.76,652.6 L313.77,652.61 L313.77,652.62 L313.77,652.63 L313.78,652.64 L313.78,652.65 L313.78,652.66 L313.78,652.66 L313.78,652.67 L313.78,652.68 L313.79,652.68 L313.79,652.69 L313.79,652.69 L313.79,652.7 L313.79,652.71 L313.79,652.72 L313.79,652.73 L313.79,652.74 L313.79,652.75 L313.79,652.75 L313.79,652.76 L313.79,652.77 L313.79,652.77 L313.79,652.78 C313.79,652.95,313.65,653.05,313.5,653.05 C313.4,653.05,313.25,652.98,313.15,652.84 C313.14,652.78,313.04,652.48,313.01,652.3 C312.93,652.05,312.87,651.78,312.81,651.5 L312.37,649.72 C312.32,649.56,311.9,648.88,311.25,648.88 C310.73,648.88,310.62,649.31,310.62,649.67 C310.62,650.14,310.79,650.75,311.14,651.62 C311.29,652.03,311.32,652.14,311.32,652.34 C311.32,652.78,311.01,653.16,310.51,653.16 C309.57,653.16,309.2,651.72,309.2,651.62 C309.2,651.53,309.31,651.53,309.32,651.53 C309.42,651.53,309.43,651.55,309.48,651.7 C309.75,652.64,310.15,652.94,310.48,652.94 C310.57,652.94,310.73,652.94,310.73,652.62 C310.73,652.38,310.64,652.11,310.57,651.92 C310.17,650.88,310,650.31,310,649.84 C310,648.95,310.62,648.66,311.2,648.66 C311.59,648.66,311.93,648.83,312.2,649.11 C312.07,648.59,311.96,648.09,311.56,647.58 C311.31,647.23,310.92,646.95,310.46,646.95 C310.32,646.95,309.89,646.98,309.71,647.36 C309.87,647.36,310,647.36,310.14,647.48 C310.25,647.58,310.34,647.7,310.34,647.89 C310.34,648.2,310.07,648.23,309.96,648.23 C309.75,648.23,309.42,648.08,309.42,647.59 C309.42,647.09,309.86,646.73,310.46,646.73 C311.5,646.73,312.51,647.64,312.79,648.75 Z " />
<path
   id="path6887"
   style="stroke:#000000;stroke-opacity:1;fill-opacity:1"
   fill="black"
   stroke-width="0"
   d="M317.04,651.25 L317.03,651.32 L317.03,651.4 L317.03,651.56 L317.02,651.73 L317.01,651.9 L316.99,652.09 L316.97,652.28 L316.94,652.47 L316.91,652.67 L316.87,652.87 L316.83,653.08 L316.77,653.29 L316.71,653.5 L316.64,653.71 L316.56,653.92 L316.52,654.03 L316.48,654.13 L316.43,654.24 L316.38,654.34 C315.79,655.56,314.93,656.22,314.83,656.22 C314.77,656.22,314.72,656.17,314.72,656.11 C314.72,656.09,314.72,656.06,314.91,655.89 C315.89,654.91,316.46,653.33,316.46,651.25 C316.46,649.55,316.08,647.8,314.86,646.55 C314.72,646.44,314.72,646.41,314.72,646.38 C314.72,646.33,314.77,646.28,314.83,646.28 C314.93,646.28,315.82,646.95,316.41,648.22 C316.91,649.31,317.04,650.42,317.04,651.25 Z " />
<line
   id="line6889"
   style="stroke:#000000;stroke-opacity:1;fill-opacity:1"
   stroke-width="0.398"
   y2="644.52"
   x2="318.04"
   y1="644.52"
   x1="292.81" />
<path
   id="path6891"
   style="stroke:#000000;stroke-opacity:1;fill-opacity:1"
   fill="black"
   stroke-width="0"
   d="M307.63,638.97 L307.64,638.98 L307.64,638.99 L307.64,638.99 L307.64,639 L307.65,639.01 L307.65,639.02 L307.65,639.03 L307.65,639.04 L307.66,639.05 L307.66,639.06 L307.66,639.07 L307.66,639.07 L307.67,639.08 L307.67,639.09 L307.67,639.09 L307.67,639.1 L307.67,639.11 L307.67,639.11 L307.68,639.12 L307.68,639.12 L307.68,639.14 L307.68,639.15 L307.68,639.16 L307.68,639.17 L307.68,639.17 L307.68,639.18 L307.68,639.19 L307.68,639.19 L307.68,639.2 L307.68,639.21 C307.68,639.38,307.54,639.47,307.38,639.47 C307.29,639.47,307.13,639.41,307.04,639.27 C307.02,639.21,306.93,638.91,306.9,638.72 C306.82,638.47,306.76,638.21,306.7,637.93 L306.26,636.15 C306.21,635.99,305.79,635.3,305.13,635.3 C304.62,635.3,304.51,635.74,304.51,636.1 C304.51,636.57,304.68,637.18,305.02,638.05 C305.18,638.46,305.21,638.57,305.21,638.77 C305.21,639.21,304.9,639.58,304.4,639.58 C303.46,639.58,303.09,638.15,303.09,638.05 C303.09,637.96,303.2,637.96,303.21,637.96 C303.3,637.96,303.32,637.97,303.37,638.13 C303.63,639.07,304.04,639.36,304.37,639.36 C304.46,639.36,304.62,639.36,304.62,639.05 C304.62,638.8,304.52,638.53,304.46,638.35 C304.05,637.3,303.88,636.74,303.88,636.27 C303.88,635.38,304.51,635.08,305.09,635.08 C305.48,635.08,305.82,635.25,306.09,635.53 C305.96,635.02,305.85,634.52,305.45,634 C305.2,633.66,304.8,633.38,304.35,633.38 C304.21,633.38,303.77,633.41,303.6,633.78 C303.76,633.78,303.88,633.78,304.02,633.91 C304.13,634,304.23,634.13,304.23,634.32 C304.23,634.63,303.96,634.66,303.85,634.66 C303.63,634.66,303.3,634.5,303.3,634.02 C303.3,633.52,303.74,633.16,304.35,633.16 C305.38,633.16,306.4,634.07,306.68,635.18 Z " />
<path
   id="path6893"
   style="stroke:#000000;stroke-opacity:1;fill-opacity:1"
   fill="black"
   stroke-width="0"
   d="M328.82,645.28 L328.85,645.28 L328.88,645.28 L328.91,645.28 L328.92,645.28 L328.93,645.28 L328.95,645.28 L328.96,645.28 L328.98,645.29 L328.99,645.29 L329,645.29 L329.02,645.29 L329.03,645.3 L329.04,645.3 L329.05,645.31 L329.06,645.31 L329.08,645.32 L329.09,645.33 L329.1,645.33 L329.1,645.34 L329.11,645.35 L329.12,645.36 L329.12,645.36 L329.12,645.37 L329.13,645.37 L329.13,645.38 L329.13,645.39 L329.14,645.39 L329.14,645.4 L329.14,645.41 L329.14,645.41 L329.15,645.42 L329.15,645.43 L329.15,645.44 L329.15,645.44 L329.15,645.45 L329.15,645.46 L329.15,645.47 L329.15,645.48 C329.15,645.67,328.96,645.67,328.82,645.67 H322.89 C322.75,645.67,322.56,645.67,322.56,645.48 C322.56,645.28,322.75,645.28,322.89,645.28 Z " />
<path
   id="path6895"
   style="stroke:#000000;stroke-opacity:1;fill-opacity:1"
   fill="black"
   stroke-width="0"
   d="M328.82,643.35 L328.85,643.36 L328.88,643.36 L328.91,643.36 L328.92,643.36 L328.93,643.36 L328.95,643.36 L328.96,643.36 L328.98,643.36 L328.99,643.36 L329,643.37 L329.02,643.37 L329.03,643.37 L329.04,643.38 L329.05,643.38 L329.06,643.39 L329.08,643.39 L329.09,643.4 L329.1,643.41 L329.1,643.42 L329.11,643.42 L329.12,643.43 L329.12,643.44 L329.13,643.44 L329.13,643.45 L329.13,643.46 L329.14,643.46 L329.14,643.47 L329.14,643.47 L329.14,643.48 L329.15,643.49 L329.15,643.49 L329.15,643.5 L329.15,643.51 L329.15,643.52 L329.15,643.53 L329.15,643.53 L329.15,643.54 C329.15,643.75,328.96,643.75,328.82,643.75 H322.89 C322.75,643.75,322.56,643.75,322.56,643.54 C322.56,643.35,322.75,643.35,322.89,643.35 Z " />
<path
   id="path6897"
   style="stroke:#000000;stroke-opacity:1;fill-opacity:1"
   fill="black"
   stroke-width="0"
   d="M335.44,648.39 L335.44,648.4 L335.44,648.41 L335.44,648.42 L335.44,648.43 L335.44,648.44 L335.44,648.45 L335.44,648.46 L335.44,648.46 L335.44,648.47 L335.44,648.48 L335.44,648.49 L335.44,648.5 L335.44,648.5 L335.44,648.51 L335.43,648.52 L335.43,648.52 L335.43,648.53 L335.43,648.54 L335.43,648.55 L335.43,648.56 L335.43,648.57 L335.42,648.58 L335.42,648.59 L335.41,648.59 L335.41,648.6 L335.4,648.61 L335.4,648.61 L335.39,648.62 L335.38,648.62 L335.38,648.62 L335.37,648.62 L335.37,648.62 L335.36,648.63 L335.36,648.63 L335.35,648.63 L335.34,648.63 L335.34,648.63 L335.33,648.63 L335.33,648.63 L335.32,648.63 L335.31,648.63 L335.3,648.63 L335.3,648.64 L335.29,648.64 L335.28,648.64 L335.27,648.64 L335.26,648.64 L335.25,648.64 L335.24,648.64 L335.23,648.64 L335.22,648.64 L335.21,648.64 L335.2,648.64 C334.59,648.01,333.72,648.01,333.41,648.01 V647.7 C333.59,647.7,334.19,647.7,334.7,647.97 V642.81 C334.7,642.45,334.67,642.34,333.78,642.34 H333.45 V642.03 C333.81,642.06,334.67,642.06,335.06,642.06 C335.47,642.06,336.33,642.06,336.67,642.03 V642.34 H336.36 C335.47,642.34,335.44,642.45,335.44,642.81 Z " />
</g>  </g>
</svg>
