<?xml version="1.0" encoding="UTF-8" standalone="no"?>
<!-- Created with Inkscape (http://www.inkscape.org/) -->

<svg
   xmlns:ns1="http://www.iki.fi/pav/software/textext/"
   xmlns:dc="http://purl.org/dc/elements/1.1/"
   xmlns:cc="http://creativecommons.org/ns#"
   xmlns:rdf="http://www.w3.org/1999/02/22-rdf-syntax-ns#"
   xmlns:svg="http://www.w3.org/2000/svg"
   xmlns="http://www.w3.org/2000/svg"
   xmlns:sodipodi="http://sodipodi.sourceforge.net/DTD/sodipodi-0.dtd"
   xmlns:inkscape="http://www.inkscape.org/namespaces/inkscape"
   width="210mm"
   height="297mm"
   viewBox="0 0 210 297"
   version="1.1"
   id="svg3702"
   inkscape:version="0.92.3 (2405546, 2018-03-11)"
   sodipodi:docname="original.svg">
  <sodipodi:namedview
     id="base"
     pagecolor="#ffffff"
     bordercolor="#666666"
     borderopacity="1.0"
     inkscape:pageopacity="0.0"
     inkscape:pageshadow="2"
     inkscape:zoom="0.79553171"
     inkscape:cx="396.85039"
     inkscape:cy="561.25984"
     inkscape:document-units="mm"
     inkscape:current-layer="layer1"
     showgrid="false"
     inkscape:window-width="1920"
     inkscape:window-height="1141"
     inkscape:window-x="0"
     inkscape:window-y="0"
     inkscape:window-maximized="1" />
  <defs
     id="defs3696" />
  <metadata
     id="metadata3699">
    <rdf:RDF>
      <cc:Work
         rdf:about="">
        <dc:format>image/svg+xml</dc:format>
        <dc:type
           rdf:resource="http://purl.org/dc/dcmitype/StillImage" />
        <dc:title />
      </cc:Work>
    </rdf:RDF>
  </metadata>
  <g
     inkscape:label="Ebene 1"
     inkscape:groupmode="layer"
     id="layer1">
    <g
       ns1:jacobian_sqrt="0.352777"
       inkscapeversion="0.92.3"
       ns1:alignment="middle center"
       ns1:scale="1.0"
       ns1:preamble="/home/winkler/.config/inkscape/extensions/textext/default_packages.tex"
       ns1:text="$$\\lim_{x \\to 0} \\frac{\\sin(x)}{x} = 1$$"
       ns1:pdfconverter="pstoedit"
       ns1:texconverter="pdflatex"
       ns1:version="0.11.1"
       word-spacing="normal"
       letter-spacing="normal"
       font-size-adjust="none"
       font-stretch="normal"
       font-weight="normal"
       font-variant="normal"
       font-style="normal"
       stroke-miterlimit="10.433"
       xml:space="preserve"
       transform="matrix(1.3546773,0.44219928,0.62435922,-1.3086428,-735.98635,758.77446)"
       id="content"
       style="font-style:normal;font-variant:normal;font-weight:normal;font-stretch:normal;letter-spacing:normal;word-spacing:normal;text-anchor:start;fill:none;fill-opacity:1;fill-rule:evenodd;stroke:#000000;stroke-linecap:butt;stroke-linejoin:miter;stroke-miterlimit:10.43299961;stroke-dasharray:none;stroke-dashoffset:0;stroke-opacity:1">
<path
   id="path6742"
   d="m 276.48,648.92 -1.44,-0.11 v -0.3 c 0.69,0 0.78,-0.08 0.78,-0.56 v -5.17 c 0,-0.44 -0.11,-0.44 -0.78,-0.44 v -0.31 c 0.33,0.01 0.86,0.03 1.11,0.03 0.23,0 0.73,-0.02 1.09,-0.03 v 0.31 c -0.65,0 -0.76,0 -0.76,0.44 z"
   inkscape:connector-curvature="0"
   style="fill:#000000;stroke-width:0" />
<path
   id="path6744"
   d="m 279.24,646.42 -1.39,-0.11 V 646 c 0.64,0 0.74,-0.07 0.74,-0.55 v -2.67 c 0,-0.44 -0.11,-0.44 -0.79,-0.44 v -0.31 c 0.32,0.01 0.86,0.03 1.1,0.03 0.34,0 0.69,-0.02 1.03,-0.03 v 0.31 c -0.66,0 -0.69,0.05 -0.69,0.44 z"
   inkscape:connector-curvature="0"
   style="fill:#000000;stroke-width:0" />
<path
   id="path6746"
   d="m 279.27,648.15 v 0.03 0.03 0.03 l -0.01,0.02 v 0.03 l -0.01,0.03 -0.01,0.02 -0.01,0.02 -0.01,0.03 -0.01,0.02 -0.02,0.02 -0.01,0.02 -0.02,0.02 -0.01,0.02 -0.02,0.02 -0.02,0.02 -0.02,0.01 -0.02,0.02 -0.02,0.01 -0.02,0.02 -0.02,0.01 -0.02,0.01 -0.02,0.01 -0.03,0.01 -0.02,0.01 -0.02,0.01 h -0.03 l -0.02,0.01 h -0.03 l -0.03,0.01 h -0.02 -0.03 c -0.29,0 -0.51,-0.27 -0.51,-0.52 0,-0.28 0.22,-0.53 0.51,-0.53 0.28,0 0.53,0.2 0.53,0.53 z"
   inkscape:connector-curvature="0"
   style="fill:#000000;stroke-width:0" />
<path
   id="path6748"
   d="m 281.34,645.45 v -2.67 c 0,-0.44 -0.11,-0.44 -0.79,-0.44 v -0.31 c 0.36,0.01 0.86,0.03 1.13,0.03 0.27,0 0.78,-0.02 1.11,-0.03 v 0.31 c -0.66,0 -0.77,0 -0.77,0.44 v 1.82 c 0,1.04 0.71,1.6 1.35,1.6 0.62,0 0.73,-0.53 0.73,-1.11 v -2.31 c 0,-0.44 -0.11,-0.44 -0.78,-0.44 v -0.31 c 0.34,0.01 0.86,0.03 1.13,0.03 0.25,0 0.78,-0.02 1.1,-0.03 v 0.31 c -0.65,0 -0.76,0 -0.76,0.44 v 1.82 c 0,1.04 0.7,1.6 1.33,1.6 0.62,0 0.73,-0.53 0.73,-1.11 v -2.31 c 0,-0.44 -0.11,-0.44 -0.76,-0.44 v -0.31 c 0.34,0.01 0.86,0.03 1.12,0.03 0.25,0 0.77,-0.02 1.11,-0.03 v 0.31 c -0.52,0 -0.77,0 -0.78,0.3 v 1.89 c 0,0.86 0,1.17 -0.3,1.51 -0.14,0.18 -0.47,0.38 -1.04,0.38 -0.85,0 -1.29,-0.6 -1.44,-0.97 -0.14,0.86 -0.88,0.97 -1.33,0.97 -0.72,0 -1.19,-0.42 -1.47,-1.05 v 1.05 l -1.41,-0.11 V 646 c 0.71,0 0.79,-0.07 0.79,-0.55 z"
   inkscape:connector-curvature="0"
   style="fill:#000000;stroke-width:0" />
<path
   id="path6750"
   d="m 275.16,636.62 v -0.02 l -0.01,-0.03 -0.01,-0.02 -0.01,-0.03 -0.01,-0.02 -0.01,-0.03 -0.01,-0.03 -0.01,-0.02 -0.02,-0.03 -0.01,-0.02 -0.02,-0.03 -0.02,-0.03 -0.01,-0.02 -0.02,-0.03 -0.02,-0.02 -0.02,-0.03 -0.02,-0.02 -0.03,-0.02 -0.02,-0.02 -0.02,-0.02 -0.03,-0.02 -0.02,-0.02 -0.03,-0.02 -0.03,-0.01 -0.02,-0.02 -0.03,-0.01 -0.03,-0.01 -0.03,-0.01 h -0.03 L 274.57,636 h -0.03 -0.03 c -0.03,0 -0.24,0 -0.39,0.09 0.29,0.09 0.31,0.34 0.31,0.39 0,0.16 -0.11,0.27 -0.28,0.27 -0.19,0 -0.39,-0.18 -0.39,-0.44 0,-0.34 0.39,-0.5 0.73,-0.5 0.33,0 0.61,0.2 0.78,0.48 0.18,-0.36 0.57,-0.48 0.85,-0.48 0.81,0 1.23,0.87 1.23,1.06 0,0.1 -0.09,0.1 -0.11,0.1 -0.11,0 -0.11,-0.04 -0.14,-0.12 -0.14,-0.5 -0.56,-0.85 -0.95,-0.85 -0.28,0 -0.44,0.18 -0.44,0.45 0,0.19 0.17,0.83 0.38,1.61 0.14,0.54 0.45,0.72 0.68,0.72 0.02,0 0.22,0 0.38,-0.1 -0.22,-0.08 -0.31,-0.26 -0.31,-0.39 0,-0.15 0.12,-0.26 0.28,-0.26 0.15,0 0.39,0.14 0.39,0.44 0,0.38 -0.44,0.5 -0.72,0.5 -0.36,0 -0.64,-0.22 -0.8,-0.5 -0.12,0.29 -0.45,0.5 -0.84,0.5 -0.78,0 -1.24,-0.87 -1.24,-1.07 0,-0.09 0.1,-0.09 0.13,-0.09 0.08,0 0.09,0.03 0.12,0.11 0.18,0.55 0.63,0.86 0.97,0.86 0.24,0 0.42,-0.13 0.42,-0.47 0,-0.14 -0.09,-0.49 -0.15,-0.74 z"
   inkscape:connector-curvature="0"
   style="fill:#000000;stroke-width:0" />
<path
   id="path6752"
   d="m 284.4,637.47 -0.08,-0.07 -0.08,-0.06 -0.07,-0.07 -0.07,-0.06 -0.06,-0.07 -0.06,-0.06 -0.06,-0.07 -0.05,-0.07 -0.05,-0.07 -0.05,-0.06 -0.04,-0.07 -0.04,-0.06 -0.04,-0.07 -0.03,-0.06 -0.03,-0.06 -0.03,-0.06 -0.02,-0.06 -0.02,-0.05 -0.02,-0.06 -0.02,-0.05 -0.02,-0.04 -0.01,-0.05 -0.01,-0.04 -0.01,-0.04 -0.01,-0.03 -0.01,-0.03 v -0.03 l -0.01,-0.02 v -0.02 -0.01 -0.01 0 c 0,-0.11 0.06,-0.11 0.15,-0.11 0.13,0 0.16,0 0.19,0.12 0.05,0.17 0.16,0.63 0.52,1.02 0.4,0.42 0.76,0.53 1.06,0.62 0.05,0.02 0.06,0.05 0.06,0.08 0,0.08 -0.03,0.1 -0.12,0.13 -1.02,0.31 -1.38,1.03 -1.52,1.65 -0.03,0.08 -0.08,0.08 -0.19,0.08 -0.09,0 -0.15,0 -0.15,-0.09 0,-0.02 0.06,-0.5 0.4,-0.99 0.16,-0.23 0.36,-0.42 0.6,-0.59 h -5.64 c -0.13,0 -0.28,0 -0.28,-0.17 0,-0.17 0.15,-0.17 0.28,-0.17 z"
   inkscape:connector-curvature="0"
   style="fill:#000000;stroke-width:0" />
<path
   id="path6754"
   d="m 289.5,638.12 -0.01,0.14 v 0.14 0.13 l -0.01,0.13 -0.02,0.12 -0.01,0.12 -0.02,0.12 -0.02,0.11 -0.03,0.11 -0.02,0.11 -0.04,0.1 -0.03,0.1 -0.05,0.1 -0.04,0.1 -0.05,0.09 -0.06,0.09 c -0.22,0.33 -0.66,0.61 -1.22,0.61 v -0.2 c 0.38,0 0.74,-0.24 0.88,-0.64 0.11,-0.38 0.11,-0.88 0.11,-1.5 0,-0.52 0,-1.03 -0.1,-1.48 -0.14,-0.65 -0.61,-0.79 -0.89,-0.79 v 0 c -0.33,0 -0.75,0.19 -0.89,0.77 -0.11,0.4 -0.11,0.98 -0.11,1.5 0,0.52 0,1.05 0.11,1.44 0.16,0.56 0.59,0.7 0.89,0.7 v 0.2 c -1.64,0 -1.64,-1.92 -1.64,-2.42 0,-0.52 0,-2.39 1.64,-2.39 1.63,0 1.63,1.87 1.63,2.39 z"
   inkscape:connector-curvature="0"
   style="fill:#000000;stroke-width:0" />
<path
   id="path6756"
   d="m 294.76,650.69 0.02,-0.01 h 0.03 0.03 l 0.03,-0.01 0.03,-0.01 0.04,-0.01 0.04,-0.01 0.04,-0.01 0.04,-0.01 0.04,-0.01 0.04,-0.02 0.04,-0.01 0.05,-0.02 0.04,-0.02 0.05,-0.02 0.04,-0.03 0.04,-0.02 0.04,-0.03 0.04,-0.03 0.04,-0.03 0.04,-0.04 0.04,-0.04 0.03,-0.04 0.03,-0.04 0.03,-0.04 0.01,-0.03 0.02,-0.02 0.01,-0.03 0.01,-0.02 0.01,-0.03 0.01,-0.02 0.01,-0.03 v -0.03 l 0.01,-0.03 v -0.03 l 0.01,-0.03 v -0.03 -0.04 -0.03 c 0,-0.51 -0.34,-0.9 -1.11,-0.9 -0.84,0 -1.2,0.56 -1.39,1.4 -0.03,0.14 -0.03,0.17 -0.14,0.17 -0.12,0 -0.12,-0.06 -0.12,-0.25 v -1.31 c 0,-0.17 0,-0.23 0.11,-0.23 0.04,0 0.06,0.01 0.25,0.2 0.01,0.02 0.01,0.03 0.2,0.22 0.44,-0.41 0.87,-0.42 1.09,-0.42 1.14,0 1.6,0.67 1.6,1.37 0,0.53 -0.3,0.83 -0.42,0.95 -0.33,0.32 -0.72,0.4 -1.13,0.47 -0.56,0.11 -1.23,0.25 -1.23,0.82 0,0.35 0.26,0.76 1.12,0.76 1.09,0 1.14,-0.89 1.16,-1.2 0.01,-0.1 0.09,-0.1 0.12,-0.1 0.13,0 0.13,0.05 0.13,0.24 v 1.01 c 0,0.16 0,0.24 -0.11,0.24 -0.05,0 -0.06,0 -0.21,-0.13 -0.03,-0.03 -0.12,-0.12 -0.17,-0.15 -0.37,0.28 -0.78,0.28 -0.92,0.28 -1.22,0 -1.59,-0.67 -1.59,-1.22 0,-0.36 0.15,-0.62 0.42,-0.84 0.33,-0.27 0.59,-0.33 1.31,-0.47 z"
   inkscape:connector-curvature="0"
   style="fill:#000000;stroke-width:0" />
<path
   id="path6758"
   d="M 298.39,653.16 297,653.05 v -0.32 c 0.64,0 0.73,-0.06 0.73,-0.54 v -2.67 c 0,-0.44 -0.11,-0.44 -0.78,-0.44 v -0.31 c 0.32,0.01 0.86,0.03 1.1,0.03 0.34,0 0.68,-0.02 1.03,-0.03 v 0.31 c -0.66,0 -0.69,0.04 -0.69,0.44 z"
   inkscape:connector-curvature="0"
   style="fill:#000000;stroke-width:0" />
<path
   id="path6760"
   d="m 298.42,654.89 v 0.03 0.03 0.03 l -0.01,0.02 -0.01,0.03 v 0.02 l -0.01,0.03 -0.01,0.02 -0.01,0.03 -0.01,0.02 -0.02,0.02 -0.01,0.02 -0.02,0.02 -0.01,0.02 -0.02,0.02 -0.02,0.02 -0.02,0.01 -0.02,0.02 -0.02,0.01 -0.02,0.02 -0.02,0.01 -0.02,0.01 -0.02,0.01 -0.03,0.01 -0.02,0.01 -0.03,0.01 h -0.02 l -0.03,0.01 h -0.02 -0.03 l -0.02,0.01 h -0.03 c -0.3,0 -0.51,-0.27 -0.51,-0.52 0,-0.28 0.21,-0.53 0.51,-0.53 0.28,0 0.53,0.2 0.53,0.53 z"
   inkscape:connector-curvature="0"
   style="fill:#000000;stroke-width:0" />
<path
   id="path6762"
   d="m 300.48,652.19 v -2.67 c 0,-0.44 -0.1,-0.44 -0.78,-0.44 v -0.31 c 0.36,0.01 0.86,0.03 1.13,0.03 0.26,0 0.78,-0.02 1.11,-0.03 v 0.31 c -0.66,0 -0.77,0 -0.77,0.44 v 1.82 c 0,1.04 0.71,1.6 1.35,1.6 0.62,0 0.73,-0.53 0.73,-1.11 v -2.31 c 0,-0.44 -0.11,-0.44 -0.78,-0.44 v -0.31 c 0.34,0.01 0.86,0.03 1.12,0.03 0.25,0 0.79,-0.02 1.11,-0.03 v 0.31 c -0.51,0 -0.76,0 -0.76,0.3 v 1.89 c 0,0.85 0,1.17 -0.32,1.51 -0.14,0.17 -0.46,0.38 -1.04,0.38 -0.72,0 -1.19,-0.43 -1.47,-1.05 v 1.05 l -1.41,-0.11 v -0.32 c 0.71,0 0.78,-0.06 0.78,-0.54 z"
   inkscape:connector-curvature="0"
   style="fill:#000000;stroke-width:0" />
<path
   id="path6764"
   d="m 308.21,646.38 v 0 0.01 0 0 0.01 h -0.01 v 0 0.01 0 0.01 0 l -0.01,0.01 v 0 0.01 h -0.01 v 0.01 l -0.01,0.01 v 0 l -0.01,0.01 v 0.01 h -0.01 v 0.01 0 l -0.01,0.01 v 0 l -0.01,0.01 v 0 l -0.01,0.01 v 0 l -0.01,0.01 v 0.01 h -0.01 v 0.01 h -0.01 l -0.01,0.01 v 0.01 h -0.01 v 0.01 l -0.01,0.01 h -0.01 c -1.25,1.27 -1.56,3.14 -1.56,4.66 0,1.73 0.37,3.45 1.59,4.7 0.13,0.11 0.13,0.14 0.13,0.16 0,0.08 -0.03,0.11 -0.1,0.11 -0.09,0 -0.98,-0.67 -1.57,-1.94 -0.5,-1.09 -0.63,-2.2 -0.63,-3.03 0,-0.78 0.11,-1.98 0.66,-3.09 0.59,-1.24 1.45,-1.88 1.54,-1.88 0.07,0 0.1,0.03 0.1,0.1 z"
   inkscape:connector-curvature="0"
   style="fill:#000000;stroke-width:0" />
<path
   id="path6766"
   d="m 312.12,651.77 v 0.02 l 0.01,0.03 0.01,0.04 0.01,0.03 0.01,0.04 0.01,0.04 0.02,0.05 0.01,0.04 0.02,0.05 0.01,0.05 0.02,0.04 0.02,0.05 0.03,0.05 0.02,0.05 0.03,0.05 0.03,0.05 0.02,0.05 0.04,0.05 0.03,0.04 0.03,0.05 0.04,0.04 0.04,0.04 0.04,0.04 0.05,0.03 0.04,0.03 0.05,0.03 0.05,0.03 0.03,0.01 0.02,0.01 0.03,0.01 0.03,0.01 h 0.03 l 0.03,0.01 h 0.03 l 0.03,0.01 h 0.03 0.03 c 0.05,0 0.3,0 0.5,-0.13 -0.28,-0.04 -0.47,-0.29 -0.47,-0.54 0,-0.16 0.11,-0.35 0.38,-0.35 0.22,0 0.53,0.19 0.53,0.58 0,0.52 -0.58,0.66 -0.92,0.66 -0.58,0 -0.92,-0.54 -1.05,-0.75 -0.25,0.65 -0.78,0.75 -1.06,0.75 -1.05,0 -1.61,-1.28 -1.61,-1.54 0,-0.09 0.11,-0.09 0.12,-0.09 0.08,0 0.11,0.02 0.13,0.11 0.34,1.05 1,1.3 1.33,1.3 0.18,0 0.54,-0.1 0.54,-0.67 0,-0.3 -0.17,-0.97 -0.54,-2.36 -0.16,-0.61 -0.5,-1.03 -0.94,-1.03 -0.06,0 -0.3,0 -0.5,0.12 0.25,0.05 0.47,0.27 0.47,0.55 0,0.26 -0.22,0.34 -0.38,0.34 -0.29,0 -0.54,-0.27 -0.54,-0.58 0,-0.45 0.5,-0.65 0.93,-0.65 0.66,0 1.02,0.7 1.05,0.75 0.13,-0.36 0.47,-0.75 1.08,-0.75 1.01,0 1.58,1.28 1.58,1.53 0,0.09 -0.08,0.09 -0.11,0.09 -0.1,0 -0.11,-0.03 -0.14,-0.11 -0.33,-1.06 -1,-1.29 -1.32,-1.29 -0.39,0 -0.54,0.31 -0.54,0.65 0,0.22 0.06,0.44 0.17,0.88 z"
   inkscape:connector-curvature="0"
   style="fill:#000000;stroke-width:0" />
<path
   id="path6768"
   d="m 317.38,651.25 -0.01,0.07 v 0.08 0.16 l -0.01,0.17 -0.01,0.17 -0.02,0.19 -0.02,0.19 -0.03,0.19 -0.03,0.2 -0.04,0.2 -0.04,0.21 -0.06,0.21 -0.06,0.21 -0.07,0.21 -0.08,0.21 -0.04,0.11 -0.04,0.1 -0.05,0.11 -0.05,0.1 c -0.6,1.22 -1.45,1.88 -1.55,1.88 -0.06,0 -0.11,-0.05 -0.11,-0.11 0,-0.02 0,-0.05 0.19,-0.22 0.98,-0.98 1.55,-2.56 1.55,-4.64 0,-1.7 -0.38,-3.45 -1.6,-4.7 -0.14,-0.11 -0.14,-0.14 -0.14,-0.17 0,-0.05 0.05,-0.1 0.11,-0.1 0.1,0 0.99,0.67 1.58,1.94 0.5,1.09 0.63,2.2 0.63,3.03 z"
   inkscape:connector-curvature="0"
   style="fill:#000000;stroke-width:0" />
<line
   id="line6770"
   y2="644.52002"
   x2="318.38"
   y1="644.52002"
   x1="292.70001"
   style="stroke-width:0.398" />
<path
   id="path6772"
   d="m 306,638.19 0.01,0.03 0.01,0.03 0.01,0.03 0.01,0.04 0.01,0.04 0.01,0.04 0.01,0.04 0.02,0.05 0.01,0.04 0.02,0.05 0.02,0.05 0.02,0.05 0.02,0.05 0.03,0.05 0.02,0.05 0.03,0.05 0.03,0.04 0.03,0.05 0.04,0.05 0.03,0.04 0.04,0.04 0.04,0.04 0.04,0.04 0.04,0.04 0.05,0.03 0.05,0.03 0.05,0.02 0.02,0.01 0.03,0.01 0.03,0.01 0.03,0.01 0.03,0.01 h 0.02 l 0.03,0.01 h 0.03 0.04 0.03 c 0.05,0 0.3,0 0.5,-0.12 -0.28,-0.05 -0.47,-0.3 -0.47,-0.55 0,-0.16 0.11,-0.34 0.37,-0.34 0.22,0 0.54,0.18 0.54,0.58 0,0.51 -0.58,0.65 -0.93,0.65 -0.57,0 -0.92,-0.53 -1.04,-0.75 -0.25,0.66 -0.78,0.75 -1.07,0.75 -1.04,0 -1.6,-1.28 -1.6,-1.53 0,-0.09 0.1,-0.09 0.12,-0.09 0.08,0 0.11,0.01 0.13,0.11 0.34,1.04 1,1.29 1.32,1.29 0.19,0 0.55,-0.09 0.55,-0.67 0,-0.29 -0.17,-0.97 -0.55,-2.36 -0.15,-0.61 -0.5,-1.03 -0.93,-1.03 -0.07,0 -0.3,0 -0.5,0.13 0.25,0.04 0.46,0.26 0.46,0.54 0,0.27 -0.21,0.35 -0.37,0.35 -0.3,0 -0.55,-0.27 -0.55,-0.58 0,-0.46 0.5,-0.66 0.94,-0.66 0.66,0 1.02,0.7 1.05,0.75 0.12,-0.36 0.47,-0.75 1.08,-0.75 1.01,0 1.57,1.28 1.57,1.53 0,0.1 -0.07,0.1 -0.11,0.1 -0.09,0 -0.11,-0.03 -0.14,-0.11 -0.32,-1.07 -1,-1.3 -1.31,-1.3 -0.39,0 -0.55,0.31 -0.55,0.66 0,0.22 0.07,0.44 0.18,0.87 z"
   inkscape:connector-curvature="0"
   style="fill:#000000;stroke-width:0" />
<path
   id="path6774"
   d="m 329.17,645.28 h 0.02 0.03 0.03 0.01 0.02 0.01 0.02 l 0.01,0.01 h 0.01 0.02 0.01 l 0.01,0.01 h 0.01 l 0.02,0.01 h 0.01 l 0.01,0.01 0.01,0.01 h 0.01 l 0.01,0.01 0.01,0.01 v 0.01 0 l 0.01,0.01 v 0 0.01 l 0.01,0.01 v 0 0.01 l 0.01,0.01 v 0 0.01 0.01 0.01 0 0.01 l 0.01,0.01 v 0.01 0.01 c 0,0.19 -0.19,0.19 -0.33,0.19 h -5.94 c -0.14,0 -0.33,0 -0.33,-0.19 0,-0.2 0.19,-0.2 0.33,-0.2 z"
   inkscape:connector-curvature="0"
   style="fill:#000000;stroke-width:0" />
<path
   id="path6776"
   d="m 329.17,643.35 0.02,0.01 h 0.03 0.03 0.01 0.02 0.01 0.02 0.01 0.01 l 0.02,0.01 h 0.01 0.01 l 0.01,0.01 h 0.02 l 0.01,0.01 h 0.01 l 0.01,0.01 0.01,0.01 0.01,0.01 h 0.01 v 0.01 l 0.01,0.01 v 0 0.01 l 0.01,0.01 v 0 0.01 h 0.01 v 0.01 0.01 0 0.01 0.01 0.01 l 0.01,0.01 v 0 0.01 c 0,0.21 -0.19,0.21 -0.33,0.21 h -5.94 c -0.14,0 -0.33,0 -0.33,-0.21 0,-0.19 0.19,-0.19 0.33,-0.19 z"
   inkscape:connector-curvature="0"
   style="fill:#000000;stroke-width:0" />
<path
   id="path6778"
   d="m 335.78,648.39 v 0.01 0.01 0.01 0.01 0.01 0.01 0.01 0 0.01 0.01 0.01 0.01 0 l -0.01,0.01 v 0.01 0 0.01 0.01 0.01 0.01 l -0.01,0.01 v 0.01 0.01 h -0.01 v 0.01 l -0.01,0.01 v 0 l -0.01,0.01 h -0.01 v 0 h -0.01 v 0 l -0.01,0.01 v 0 h -0.01 -0.01 v 0 h -0.01 v 0 h -0.01 -0.01 -0.01 v 0.01 h -0.01 -0.01 -0.01 -0.01 -0.01 -0.01 -0.01 -0.01 -0.01 -0.01 c -0.61,-0.63 -1.48,-0.63 -1.79,-0.63 v -0.31 c 0.18,0 0.78,0 1.29,0.27 v -5.16 c 0,-0.36 -0.03,-0.47 -0.92,-0.47 h -0.33 v -0.31 c 0.36,0.03 1.22,0.03 1.61,0.03 0.41,0 1.27,0 1.61,-0.03 v 0.31 h -0.31 c -0.89,0 -0.92,0.11 -0.92,0.47 z"
   inkscape:connector-curvature="0"
   style="fill:#000000;stroke-width:0" />
</g>  </g>
</svg>
