<?xml version="1.0" encoding="UTF-8" standalone="no"?>
<svg
   xmlns:ns50="http://www.iki.fi/pav/software/textext/"
   xmlns:dc="http://purl.org/dc/elements/1.1/"
   xmlns:cc="http://creativecommons.org/ns#"
   xmlns:rdf="http://www.w3.org/1999/02/22-rdf-syntax-ns#"
   xmlns:svg="http://www.w3.org/2000/svg"
   xmlns="http://www.w3.org/2000/svg"
   xmlns:sodipodi="http://sodipodi.sourceforge.net/DTD/sodipodi-0.dtd"
   xmlns:inkscape="http://www.inkscape.org/namespaces/inkscape"
   width="210mm"
   height="297mm"
   viewBox="0 0 210 297"
   version="1.1"
   id="svg8"
   inkscape:version="1.0.1 (1.0.1+r74)"
   sodipodi:docname="modified.svg">
  <defs
     id="defs2" />
  <sodipodi:namedview
     id="base"
     pagecolor="#ffffff"
     bordercolor="#666666"
     borderopacity="1.0"
     inkscape:pageopacity="0.0"
     inkscape:pageshadow="2"
     inkscape:zoom="2.8556184"
     inkscape:cx="400.00049"
     inkscape:cy="559.99874"
     inkscape:document-units="mm"
     inkscape:current-layer="layer1"
     inkscape:document-rotation="0"
     showgrid="false"
     inkscape:window-width="1245"
     inkscape:window-height="1015"
     inkscape:window-x="0"
     inkscape:window-y="0"
     inkscape:window-maximized="0" />
  <metadata
     id="metadata5">
    <rdf:RDF>
      <cc:Work
         rdf:about="">
        <dc:format>image/svg+xml</dc:format>
        <dc:type
           rdf:resource="http://purl.org/dc/dcmitype/StillImage" />
        <dc:title />
      </cc:Work>
    </rdf:RDF>
  </metadata>
  <g
     inkscape:label="Ebene 1"
     inkscape:groupmode="layer"
     id="layer1">
    <g
       transform="matrix(0.352778 0 0 0.352778 71.11 139.095)"
       ns50:version="1.2.0"
       ns50:texconverter="pdflatex"
       ns50:pdfconverter="inkscape"
       ns50:text="\noindent Satz des Pythagoras (Теорема Пифагора): 
\begin{equation*} a^2 + b^2 = c^2 
\end{equation*}
äöüß"
       ns50:preamble="/home/winkler/Develop/TexText/textext-jcwinkler/snippets/inkscape-1.0.1/textext-1.2.0/inkscape/10/utf8_cyrillic_packages.tex"
       ns50:scale="1.0"
       ns50:alignment="middle center"
       ns50:inkscapeversion="1.0.1"
       ns50:jacobian_sqrt="0.352778"
       id="content">
      <defs
         id="id-c2cdb042-6af2-499d-b6e1-82cb6840a55f">
        <g
           id="id-988ef0a1-8936-418c-85c7-2f2e8e5f25d1">
          <symbol
             overflow="visible"
             id="id-54371199-813b-4f98-ac1b-13a24015668c">
            <path
               style="stroke:none"
               d=""
               id="id-a47df305-645a-4ed2-89b8-bfbe09bd97d4" />
          </symbol>
          <symbol
             overflow="visible"
             id="id-00438c60-8585-4be9-abc5-9f3c32936a3d">
            <path
               style="stroke:none"
               d="m 1.15625,-0.484375 c 0.625,0.484375 1.109375,0.6875 1.890625,0.6875 1.1875,0 1.921875,-1.0625 1.921875,-2.078125 C 4.96875,-2.703125 4.5,-3.46875 3.703125,-3.796875 3.09375,-4.046875 2.34375,-4.03125 1.8125,-4.34375 c -0.390625,-0.25 -0.625,-0.6875 -0.625,-1.125 0,-0.78125 0.671875,-1.296875 1.375,-1.296875 0.984375,0 1.671875,0.796875 1.828125,1.796875 0.03125,0.140625 0,0.40625 0.1875,0.40625 0.109375,0 0.109375,-0.078125 0.109375,-0.171875 v -2.15625 c 0,-0.078125 -0.015625,-0.140625 -0.09375,-0.140625 -0.140625,0 -0.25,0.265625 -0.34375,0.40625 -0.046875,0.078125 -0.125,0.1875 -0.15625,0.28125 -0.421875,-0.40625 -0.890625,-0.6875 -1.546875,-0.6875 -0.984375,0 -2,0.671875 -2,1.9375 0,1.03125 0.765625,1.71875 1.734375,1.921875 C 2.5,-3.125 2.6875,-3.0625 2.90625,-3.015625 3.453125,-2.875 4.015625,-2.734375 4.25,-2.03125 c 0.0625,0.15625 0.09375,0.3125 0.09375,0.46875 0,0.75 -0.515625,1.46875 -1.359375,1.46875 C 2,-0.09375 1.03125,-0.625 0.828125,-1.78125 0.8125,-1.859375 0.8125,-1.96875 0.796875,-2.046875 V -2.125 c 0,-0.09375 -0.046875,-0.140625 -0.125,-0.140625 -0.109375,0 -0.125,0.078125 -0.125,0.140625 v 2.1875 c 0,0.078125 0.015625,0.140625 0.09375,0.140625 0.15625,0 0.265625,-0.265625 0.34375,-0.40625 0.0625,-0.09375 0.125,-0.1875 0.171875,-0.28125 z m 0,0"
               id="id-177de253-44c8-45ed-b0b1-15df742c1bcb" />
          </symbol>
          <symbol
             overflow="visible"
             id="id-1c8bbc2d-fcf7-40b0-9572-d2ad07ec99c3">
            <path
               style="stroke:none"
               d="m 1.109375,-3.796875 c 0.25,-0.3125 0.6875,-0.453125 1.0625,-0.453125 0.734375,0 1.0625,0.671875 1.0625,1.375 v 0.265625 c -1.140625,0 -2.828125,0.359375 -2.828125,1.65625 V -0.875 c 0.078125,0.78125 1.046875,0.96875 1.625,0.96875 0.5,0 1.15625,-0.328125 1.28125,-0.84375 0.0625,0.4375 0.34375,0.796875 0.78125,0.796875 0.40625,0 0.765625,-0.328125 0.828125,-0.78125 v -0.71875 h -0.25 v 0.5 c 0,0.28125 -0.0625,0.6875 -0.359375,0.6875 -0.328125,0 -0.375,-0.390625 -0.375,-0.65625 V -2.59375 c 0,-0.125 0.015625,-0.25 0.015625,-0.375 0,-0.96875 -0.90625,-1.5 -1.734375,-1.5 -0.640625,0 -1.515625,0.3125 -1.515625,1.109375 0,0.28125 0.203125,0.484375 0.46875,0.484375 0.28125,0 0.4375,-0.21875 0.4375,-0.46875 0,-0.28125 -0.21875,-0.453125 -0.5,-0.453125 z m 2.125,1.390625 v 1.015625 c 0,0.6875 -0.46875,1.234375 -1.125,1.265625 H 2.078125 C 1.609375,-0.125 1.1875,-0.484375 1.1875,-0.96875 V -1.015625 C 1.25,-2.03125 2.375,-2.375 3.234375,-2.40625 Z m 0,0"
               id="id-34e74b40-d683-49d2-9cdf-01581c91da57" />
          </symbol>
          <symbol
             overflow="visible"
             id="id-6bfa32b7-954a-42c6-8fb9-457d3df4d156">
            <path
               style="stroke:none"
               d="m 1.484375,-6.140625 c 0,0.6875 -0.28125,1.9375 -1.3125,1.9375 v 0.21875 H 1.03125 v 2.5625 c 0,0.328125 0.03125,0.671875 0.1875,0.953125 0.21875,0.40625 0.6875,0.5625 1.125,0.5625 0.8125,0 0.96875,-0.90625 0.96875,-1.546875 V -1.8125 H 3.078125 c 0,0.140625 0,0.296875 0,0.453125 0,0.4375 -0.09375,1.203125 -0.6875,1.203125 -0.5625,0 -0.65625,-0.6875 -0.65625,-1.125 V -3.984375 H 3.15625 v -0.3125 H 1.734375 v -1.84375 z m 0,0"
               id="id-09926890-e9f3-4865-af70-a4454b351764" />
          </symbol>
          <symbol
             overflow="visible"
             id="id-9fdf1854-3722-441b-b1fc-f55c6e305905">
            <path
               style="stroke:none"
               d="M 0.53125,-4.296875 0.421875,-2.6875 h 0.25 c 0.015625,-0.359375 0.03125,-0.765625 0.25,-1.046875 0.25,-0.3125 0.71875,-0.34375 1.109375,-0.34375 H 3.140625 C 2.203125,-2.875 1.3125,-1.59375 0.390625,-0.375 0.34375,-0.3125 0.28125,-0.21875 0.28125,-0.140625 c 0,0.09375 0.0625,0.125 0.171875,0.125 h 3.375 L 4,-1.875 H 3.75 C 3.671875,-1.203125 3.625,-0.375 2.671875,-0.28125 2.4375,-0.265625 2.21875,-0.265625 2,-0.265625 H 1.125 C 1.859375,-1.25 2.59375,-2.25 3.328125,-3.234375 3.546875,-3.53125 3.984375,-4 3.984375,-4.171875 c 0,-0.09375 -0.09375,-0.125 -0.171875,-0.125 z m 0,0"
               id="id-867eea0a-a941-48a5-8209-2cb0c76ad6aa" />
          </symbol>
          <symbol
             overflow="visible"
             id="id-548b2b84-b25c-47d5-ad66-6c0906f63c24">
            <path
               style="stroke:none"
               d="m 3.03125,-6.8125 v 0.296875 H 3.1875 c 0.34375,0 0.625,0.046875 0.625,0.625 l -0.015625,2.09375 C 3.5625,-4.203125 2.984375,-4.40625 2.53125,-4.40625 c -1.21875,0 -2.203125,1.0625 -2.203125,2.265625 0,1.0625 0.8125,2.234375 2.140625,2.234375 0.515625,0 0.984375,-0.25 1.3125,-0.640625 V 0.09375 L 5.25,-0.015625 V -0.3125 H 5.078125 c -0.296875,0 -0.609375,-0.03125 -0.609375,-0.5 V -6.921875 Z M 1.171875,-1.90625 V -2.046875 C 1.171875,-2.796875 1.25,-3.53125 1.9375,-4 2.140625,-4.109375 2.375,-4.1875 2.609375,-4.1875 c 0.484375,0 1.171875,0.40625 1.171875,1.03125 0,0.125 0,0.25 0,0.390625 v 1.65625 c 0,0.125 -0.046875,0.21875 -0.125,0.3125 C 3.40625,-0.40625 2.96875,-0.125 2.5,-0.125 1.78125,-0.125 1.3125,-0.78125 1.203125,-1.46875 1.1875,-1.609375 1.1875,-1.765625 1.171875,-1.90625 Z m 0,0"
               id="id-1889c0d7-f60d-4da1-96bb-5fc74d10e783" />
          </symbol>
          <symbol
             overflow="visible"
             id="id-ba4c8c45-078a-4080-bc62-b9be65013b0b">
            <path
               style="stroke:none"
               d="m 1.109375,-2.3125 h 2.875 c 0.109375,0 0.15625,-0.0625 0.15625,-0.1875 0,-1.046875 -0.640625,-1.96875 -1.765625,-1.96875 -1.21875,0 -2.09375,1.09375 -2.09375,2.28125 0,0.90625 0.5,1.734375 1.390625,2.125 0.21875,0.109375 0.484375,0.15625 0.734375,0.15625 H 2.4375 c 0.765625,0 1.40625,-0.421875 1.671875,-1.1875 C 4.125,-1.125 4.125,-1.171875 4.125,-1.203125 4.125,-1.265625 4.09375,-1.3125 4.015625,-1.3125 3.875,-1.3125 3.8125,-0.984375 3.75,-0.875 3.5,-0.4375 3.015625,-0.15625 2.5,-0.15625 c -0.359375,0 -0.6875,-0.203125 -0.953125,-0.46875 -0.40625,-0.46875 -0.4375,-1.109375 -0.4375,-1.6875 z M 1.125,-2.515625 C 1.125,-3.296875 1.53125,-4.25 2.359375,-4.25 H 2.40625 c 0.96875,0.09375 0.96875,1.125 1.0625,1.734375 z m 0,0"
               id="id-fc5778f1-dc45-48a0-bc50-bd4af411d20a" />
          </symbol>
          <symbol
             overflow="visible"
             id="id-7d77b30c-a8a6-41d9-8fcb-85663040c4cb">
            <path
               style="stroke:none"
               d="M 1.75,-4.46875 C 1.390625,-4.421875 1,-4.359375 0.703125,-4.109375 c -0.234375,0.21875 -0.375,0.546875 -0.375,0.875 C 0.328125,-1.53125 3.09375,-2.5 3.09375,-1 3.09375,-0.40625 2.546875,-0.125 2,-0.125 1.25,-0.125 0.734375,-0.65625 0.59375,-1.515625 0.578125,-1.609375 0.5625,-1.6875 0.453125,-1.6875 c -0.078125,0 -0.125,0.046875 -0.125,0.125 V 0.015625 C 0.34375,0.0625 0.375,0.09375 0.421875,0.09375 H 0.4375 c 0.15625,0 0.3125,-0.359375 0.4375,-0.390625 h 0.015625 c 0.078125,0 0.34375,0.25 0.5625,0.3125 0.15625,0.0625 0.34375,0.078125 0.515625,0.078125 0.828125,0 1.625,-0.4375 1.625,-1.34375 0,-0.65625 -0.484375,-1.203125 -1.140625,-1.375 -0.625,-0.171875 -1.640625,-0.171875 -1.640625,-0.890625 0,-0.609375 0.671875,-0.765625 1.109375,-0.765625 0.484375,0 1.171875,0.28125 1.171875,1.125 0,0.09375 0,0.171875 0.109375,0.171875 0.109375,0 0.140625,-0.078125 0.140625,-0.171875 0,-0.046875 0,-0.109375 0,-0.140625 v -1.03125 c 0,-0.0625 -0.03125,-0.140625 -0.109375,-0.140625 -0.15625,0 -0.265625,0.25 -0.375,0.25 H 2.84375 c -0.078125,0 -0.234375,-0.125 -0.34375,-0.171875 -0.1875,-0.0625 -0.390625,-0.078125 -0.578125,-0.078125 -0.0625,0 -0.109375,0 -0.171875,0 z m 0,0"
               id="id-38d4e742-e3d9-4fa2-b261-722abb831d83" />
          </symbol>
          <symbol
             overflow="visible"
             id="id-5d4ac0d6-d092-4104-ac3e-0e0f0ac78cfd">
            <path
               style="stroke:none"
               d="m 0.34375,-6.8125 v 0.296875 c 0.125,0 0.25,0 0.375,0 0.359375,0 0.640625,0.046875 0.640625,0.4375 V -0.75 c 0,0.375 -0.328125,0.4375 -0.65625,0.4375 -0.140625,0 -0.25,0 -0.359375,0 v 0.296875 h 2.9375 V -0.3125 H 2.9375 C 2.515625,-0.3125 2.25,-0.34375 2.25,-0.75 v -2.40625 h 1.84375 c 0.9375,-0.078125 2.125,-0.65625 2.125,-1.796875 0,-1.0625 -1.046875,-1.75 -2.046875,-1.859375 -0.15625,0 -0.296875,-0.015625 -0.4375,-0.015625 -0.203125,0 -0.40625,0.015625 -0.59375,0.015625 z m 1.875,3.390625 V -6.1875 c 0,-0.265625 0.171875,-0.296875 0.359375,-0.328125 h 0.75 c 0.5625,0 1.203125,0.03125 1.59375,0.5 0.234375,0.28125 0.265625,0.6875 0.265625,1.046875 0,0.359375 -0.03125,0.734375 -0.25,1.03125 -0.328125,0.421875 -0.90625,0.515625 -1.421875,0.515625 z m 0,0"
               id="id-52db2ab8-358f-4ac4-aee0-f56f2acbbb65" />
          </symbol>
          <symbol
             overflow="visible"
             id="id-0d1525ce-d70c-497d-bc8b-2c9f58766c03">
            <path
               style="stroke:none"
               d="m 0.1875,-4.296875 v 0.3125 h 0.15625 c 0.28125,0 0.5,0.03125 0.671875,0.40625 C 1.46875,-2.484375 1.90625,-1.375 2.375,-0.28125 2.40625,-0.203125 2.484375,-0.09375 2.484375,0 2.484375,0.015625 2.46875,0.03125 2.46875,0.046875 2.40625,0.25 2.296875,0.453125 2.21875,0.640625 2.015625,1.140625 1.71875,1.8125 1.109375,1.8125 0.953125,1.8125 0.75,1.75 0.640625,1.640625 0.828125,1.609375 1.03125,1.5 1.03125,1.21875 1.03125,1 0.875,0.8125 0.65625,0.796875 c -0.3125,0 -0.46875,0.1875 -0.46875,0.421875 0,0.5 0.46875,0.8125 0.921875,0.8125 0.71875,0 1.109375,-0.734375 1.359375,-1.328125 l 0.296875,-0.71875 C 3.109375,-0.875 3.46875,-1.71875 3.828125,-2.578125 L 4.0625,-3.15625 c 0.171875,-0.46875 0.4375,-0.828125 1,-0.828125 v -0.3125 H 3.453125 v 0.3125 c 0.234375,0 0.46875,0.15625 0.46875,0.40625 0,0.125 -0.0625,0.265625 -0.109375,0.375 -0.296875,0.6875 -0.546875,1.375 -0.859375,2.046875 C 2.9375,-1.0625 2.875,-0.984375 2.859375,-0.890625 H 2.84375 C 2.78125,-1.109375 2.671875,-1.328125 2.578125,-1.546875 2.328125,-2.1875 2.015625,-2.84375 1.78125,-3.515625 1.75,-3.578125 1.703125,-3.65625 1.703125,-3.734375 v -0.03125 c 0.0625,-0.21875 0.34375,-0.21875 0.546875,-0.21875 v -0.3125 z m 0,0"
               id="id-fa8f072f-8707-43c3-a5d6-53f6d8fa6f78" />
          </symbol>
          <symbol
             overflow="visible"
             id="id-62e1de64-4f02-4cc2-806c-14b7f8f8d6d4">
            <path
               style="stroke:none"
               d="m 0.3125,-6.8125 v 0.296875 h 0.15625 c 0.375,0 0.625,0.046875 0.625,0.53125 v 5.03125 c 0,0.0625 0.015625,0.140625 0.015625,0.21875 0,0.375 -0.265625,0.421875 -0.546875,0.421875 h -0.25 v 0.296875 H 2.578125 V -0.3125 H 2.3125 c -0.28125,0 -0.515625,-0.046875 -0.515625,-0.421875 v -1.8125 c 0,-0.71875 0.359375,-1.640625 1.359375,-1.640625 0.625,0 0.6875,0.6875 0.6875,1.109375 V -0.6875 c 0,0.34375 -0.28125,0.375 -0.59375,0.375 H 3.078125 v 0.296875 h 2.25 V -0.3125 h -0.25 c -0.265625,0 -0.53125,-0.046875 -0.53125,-0.390625 V -2.875 c 0,-0.328125 -0.015625,-0.65625 -0.15625,-0.96875 -0.25,-0.4375 -0.734375,-0.5625 -1.203125,-0.5625 -0.578125,0 -1.21875,0.390625 -1.40625,0.953125 l -0.015625,-3.46875 z m 0,0"
               id="id-46f88f49-cd4a-4b62-8d7c-fcf6d2f57580" />
          </symbol>
          <symbol
             overflow="visible"
             id="id-cbf20c16-f7cb-4650-9fc2-c6bbd63e9c90">
            <path
               style="stroke:none"
               d="m 1.1875,-0.234375 v 0.015625 c -0.46875,0.09375 -0.90625,0.53125 -0.90625,1 0,0.9375 1.4375,1.265625 2.203125,1.265625 C 3.3125,2.046875 4.6875,1.75 4.6875,0.71875 4.6875,0.0625 4.234375,-0.375 3.640625,-0.546875 3.28125,-0.65625 2.90625,-0.671875 2.53125,-0.671875 H 1.625 c -0.3125,-0.03125 -0.5625,-0.34375 -0.5625,-0.65625 v -0.0625 c 0,-0.125 0.078125,-0.390625 0.171875,-0.390625 C 1.359375,-1.75 1.5,-1.640625 1.65625,-1.578125 1.828125,-1.53125 2.03125,-1.5 2.21875,-1.5 c 0.828125,0 1.625,-0.609375 1.625,-1.453125 0,-0.34375 -0.140625,-0.734375 -0.421875,-0.953125 v -0.015625 c 0.28125,-0.1875 0.53125,-0.375 0.890625,-0.375 0.03125,0 0.0625,0 0.09375,0.015625 -0.09375,0.046875 -0.15625,0.125 -0.15625,0.25 0,0.15625 0.140625,0.296875 0.296875,0.296875 0.171875,0 0.28125,-0.140625 0.28125,-0.296875 0,-0.265625 -0.21875,-0.484375 -0.484375,-0.484375 -0.359375,0 -0.6875,0.140625 -0.953125,0.359375 C 3.359375,-4.125 3.3125,-4.09375 3.28125,-4.078125 H 3.265625 c -0.0625,0 -0.140625,-0.078125 -0.1875,-0.109375 -0.25,-0.140625 -0.5625,-0.21875 -0.859375,-0.21875 -0.78125,0 -1.625,0.546875 -1.625,1.453125 0,0.328125 0.125,0.625 0.328125,0.890625 0.03125,0.03125 0.109375,0.09375 0.109375,0.140625 0,0.046875 -0.0625,0.09375 -0.078125,0.140625 C 0.8125,-1.578125 0.75,-1.328125 0.75,-1.09375 c 0,0.3125 0.140625,0.71875 0.4375,0.859375 z M 0.8125,0.84375 V 0.75 c 0,-0.515625 0.453125,-0.828125 0.984375,-0.828125 h 0.78125 c 0.625,0 1.59375,0.09375 1.59375,0.859375 C 4.171875,1.5 3.09375,1.8125 2.484375,1.8125 1.828125,1.8125 0.90625,1.515625 0.8125,0.84375 Z M 1.34375,-2.75 v -0.125 c 0,-0.546875 0.125,-1.296875 0.875,-1.296875 0.609375,0 0.859375,0.578125 0.859375,1.21875 0,0.40625 -0.078125,1.21875 -0.859375,1.21875 -0.25,0 -0.5,-0.125 -0.671875,-0.34375 C 1.390625,-2.265625 1.375,-2.515625 1.34375,-2.75 Z m 0,0"
               id="id-25e16efb-5486-49eb-881f-aa6e4beb4ef7" />
          </symbol>
          <symbol
             overflow="visible"
             id="id-1a4e1479-2ab5-41b1-a51b-385daf942c94">
            <path
               style="stroke:none"
               d="m 2.34375,-4.46875 c -1.25,0.125 -2.0625,1.1875 -2.0625,2.34375 0,1.125 0.890625,2.21875 2.21875,2.21875 1.1875,0 2.1875,-0.96875 2.1875,-2.234375 0,-1.171875 -0.890625,-2.328125 -2.21875,-2.328125 -0.03125,0 -0.09375,0 -0.125,0 z m -1.234375,2.578125 v -0.4375 c 0,-0.765625 0.25,-1.921875 1.375,-1.921875 0.8125,0 1.265625,0.6875 1.359375,1.4375 0.015625,0.21875 0.015625,0.4375 0.015625,0.65625 0,0.640625 -0.078125,1.453125 -0.703125,1.8125 C 2.953125,-0.203125 2.734375,-0.15625 2.5,-0.15625 1.78125,-0.15625 1.265625,-0.71875 1.15625,-1.5 1.140625,-1.625 1.140625,-1.765625 1.109375,-1.890625 Z m 0,0"
               id="id-64850234-c7e0-4da6-ae9e-9d2a80a1748e" />
          </symbol>
          <symbol
             overflow="visible"
             id="id-5a357728-e6e2-4046-bdae-38f43881c640">
            <path
               style="stroke:none"
               d="m 0.265625,-4.296875 v 0.3125 h 0.15625 c 0.328125,0 0.625,0.03125 0.625,0.5 v 2.75 c 0,0.40625 -0.28125,0.421875 -0.71875,0.421875 h -0.0625 v 0.296875 H 2.6875 V -0.3125 c -0.125,0 -0.265625,0 -0.390625,0 -0.3125,0 -0.578125,-0.046875 -0.578125,-0.421875 v -1.3125 c 0,-0.859375 0.1875,-2.140625 1.171875,-2.140625 0.046875,0 0.0625,0 0.109375,0.015625 -0.15625,0.0625 -0.234375,0.21875 -0.234375,0.390625 0,0.21875 0.15625,0.375 0.390625,0.421875 0.28125,0 0.46875,-0.171875 0.46875,-0.421875 0,-0.40625 -0.375,-0.625 -0.734375,-0.625 -0.59375,0 -1.109375,0.53125 -1.21875,1.0625 v -1.0625 z m 0,0"
               id="id-415508eb-2df6-425e-a14e-64e70316daf4" />
          </symbol>
          <symbol
             overflow="visible"
             id="id-e6a3a838-32bf-467a-abbe-137391f6bd4a">
            <path
               style="stroke:none"
               d="m 3.15625,-7.484375 c -0.140625,0.0625 -0.3125,0.25 -0.4375,0.375 C 1.5,-5.875 1,-4.1875 1,-2.5 1,-0.703125 1.578125,1.21875 3.046875,2.40625 3.09375,2.4375 3.15625,2.484375 3.21875,2.484375 3.28125,2.484375 3.3125,2.421875 3.3125,2.375 3.3125,2.265625 3.046875,2.0625 2.9375,1.9375 1.90625,0.703125 1.578125,-0.921875 1.578125,-2.5 c 0,-1.640625 0.328125,-3.4375 1.578125,-4.671875 0.046875,-0.0625 0.15625,-0.140625 0.15625,-0.21875 0,-0.0625 -0.046875,-0.09375 -0.109375,-0.09375 -0.015625,0 -0.03125,0 -0.046875,0 z m 0,0"
               id="id-cf080678-6143-4bcd-8dbb-3cfe5d1472e5" />
          </symbol>
          <symbol
             overflow="visible"
             id="id-dd16ebb2-54cc-4889-8a44-8e78b735c573">
            <path
               style="stroke:none"
               d="m 0.546875,-6.8125 -0.1875,2.234375 h 0.25 c 0.03125,-0.515625 0.0625,-1.21875 0.375,-1.5625 0.34375,-0.34375 0.90625,-0.375 1.375,-0.375 h 0.28125 c 0.25,0 0.515625,0 0.515625,0.34375 v 5.40625 C 3.15625,-0.375 2.75,-0.3125 2.390625,-0.3125 c -0.125,0 -0.25,0 -0.359375,0 H 1.703125 v 0.296875 h 3.78125 V -0.3125 H 4.8125 c -0.390625,0 -0.78125,-0.046875 -0.78125,-0.453125 v -5.40625 c 0,-0.28125 0.171875,-0.34375 0.546875,-0.34375 h 0.25 c 0.46875,0 1.03125,0.03125 1.375,0.375 0.3125,0.34375 0.34375,1.046875 0.375,1.5625 h 0.25 L 6.640625,-6.8125 Z m 0,0"
               id="id-b88aa5b9-eaf1-400a-85eb-2d25689cd137" />
          </symbol>
          <symbol
             overflow="visible"
             id="id-875af9cb-f09e-43b4-94bc-f8c834799276">
            <path
               style="stroke:none"
               d="m 1.109375,-2.3125 h 2.875 c 0.109375,0 0.15625,-0.0625 0.15625,-0.1875 0,-1.046875 -0.640625,-1.96875 -1.765625,-1.96875 -1.21875,0 -2.09375,1.09375 -2.09375,2.28125 0,0.90625 0.5,1.734375 1.390625,2.125 0.21875,0.109375 0.484375,0.15625 0.734375,0.15625 H 2.4375 c 0.765625,0 1.40625,-0.421875 1.671875,-1.1875 C 4.125,-1.125 4.125,-1.171875 4.125,-1.203125 4.125,-1.265625 4.09375,-1.3125 4.015625,-1.3125 3.875,-1.3125 3.8125,-0.984375 3.75,-0.875 3.5,-0.4375 3.015625,-0.15625 2.5,-0.15625 c -0.359375,0 -0.6875,-0.203125 -0.953125,-0.46875 -0.40625,-0.46875 -0.4375,-1.109375 -0.4375,-1.6875 z M 1.125,-2.515625 C 1.125,-3.296875 1.53125,-4.25 2.359375,-4.25 H 2.40625 c 0.96875,0.09375 0.96875,1.125 1.0625,1.734375 z m 0,0"
               id="id-f6eee774-305e-4a63-bee6-bfcba263abf6" />
          </symbol>
          <symbol
             overflow="visible"
             id="id-1ce6cec2-e608-4bb4-9bb0-85a9d3e7c135">
            <path
               style="stroke:none"
               d="m 2.34375,-4.46875 c -1.25,0.125 -2.0625,1.1875 -2.0625,2.34375 0,1.125 0.890625,2.21875 2.21875,2.21875 1.1875,0 2.1875,-0.96875 2.1875,-2.234375 0,-1.171875 -0.890625,-2.328125 -2.21875,-2.328125 -0.03125,0 -0.09375,0 -0.125,0 z m -1.234375,2.578125 v -0.4375 c 0,-0.765625 0.25,-1.921875 1.375,-1.921875 0.8125,0 1.265625,0.6875 1.359375,1.4375 0.015625,0.21875 0.015625,0.4375 0.015625,0.65625 0,0.640625 -0.078125,1.453125 -0.703125,1.8125 C 2.953125,-0.203125 2.734375,-0.15625 2.5,-0.15625 1.78125,-0.15625 1.265625,-0.71875 1.15625,-1.5 1.140625,-1.625 1.140625,-1.765625 1.109375,-1.890625 Z m 0,0"
               id="id-a2cc8823-1dac-4123-a91e-059f15d4916d" />
          </symbol>
          <symbol
             overflow="visible"
             id="id-5ec626bc-ce33-4516-b96e-8f0dd33599c3">
            <path
               style="stroke:none"
               d="m 0.265625,-4.296875 v 0.3125 h 0.1875 c 0.296875,0 0.59375,0.03125 0.59375,0.421875 V 1.21875 C 1.046875,1.578125 0.78125,1.609375 0.5,1.609375 H 0.265625 v 0.3125 h 2.25 v -0.3125 H 2.28125 C 1.984375,1.609375 1.75,1.578125 1.75,1.21875 v -1.734375 c 0.234375,0.421875 0.796875,0.609375 1.21875,0.609375 1.234375,0 2.21875,-1.046875 2.21875,-2.25 0,-1.203125 -0.921875,-2.25 -2.09375,-2.25 -0.546875,0 -1.015625,0.234375 -1.375,0.640625 V -4.40625 Z m 4.078125,2.3125 C 4.296875,-1.25 3.90625,-0.203125 3,-0.125 H 2.9375 C 2.515625,-0.125 2.125,-0.359375 1.890625,-0.71875 1.796875,-0.828125 1.75,-0.921875 1.75,-1.0625 V -2.734375 C 1.75,-2.875 1.734375,-3 1.734375,-3.125 1.734375,-3.65625 2.40625,-4.15625 3,-4.15625 c 1,0 1.359375,1.3125 1.359375,2.015625 0,0.046875 0,0.109375 -0.015625,0.15625 z m 0,0"
               id="id-13674c38-044d-4437-bd06-4f281fa6bbbc" />
          </symbol>
          <symbol
             overflow="visible"
             id="id-9b0c6dec-d968-472d-b3d9-84c9b37c060d">
            <path
               style="stroke:none"
               d="m 0.296875,-4.296875 v 0.21875 h 0.21875 c 0.296875,0 0.5625,0.046875 0.5625,0.421875 v 2.625 c 0,0.625 -0.34375,0.796875 -0.78125,0.796875 v 0.21875 h 1.84375 v -0.21875 C 1.734375,-0.234375 1.359375,-0.375 1.359375,-1 v -2.953125 c 0.03125,0.125 0.109375,0.25 0.171875,0.390625 0.453125,1.125 0.90625,2.25 1.421875,3.359375 0.03125,0.078125 0.078125,0.1875 0.171875,0.1875 H 3.140625 C 3.25,-0.03125 3.296875,-0.15625 3.328125,-0.25 L 3.625,-0.96875 C 4,-1.859375 4.375,-2.75 4.765625,-3.640625 4.828125,-3.78125 4.890625,-3.921875 4.9375,-4.0625 v 3.421875 c 0,0.40625 -0.328125,0.40625 -0.703125,0.40625 h -0.0625 v 0.21875 H 6.34375 v -0.21875 H 6.109375 c -0.28125,0 -0.546875,-0.03125 -0.546875,-0.4375 V -3.625 c 0,-0.421875 0.265625,-0.453125 0.78125,-0.453125 v -0.21875 H 5.046875 c -0.21875,0 -0.265625,0.125 -0.328125,0.296875 -0.09375,0.234375 -0.1875,0.453125 -0.28125,0.6875 l -0.75,1.75 C 3.5625,-1.28125 3.484375,-1 3.34375,-0.75 2.90625,-1.828125 2.40625,-2.90625 1.96875,-4 1.890625,-4.140625 1.890625,-4.296875 1.640625,-4.296875 Z m 0,0"
               id="id-dab1388d-11bb-4011-8b90-335997a228dd" />
          </symbol>
          <symbol
             overflow="visible"
             id="id-a1c01c9b-dbd3-4e7f-8f67-50f97a453d42">
            <path
               style="stroke:none"
               d="m 1.109375,-3.796875 c 0.25,-0.3125 0.6875,-0.453125 1.0625,-0.453125 0.734375,0 1.0625,0.671875 1.0625,1.375 v 0.265625 c -1.140625,0 -2.828125,0.359375 -2.828125,1.65625 V -0.875 c 0.078125,0.78125 1.046875,0.96875 1.625,0.96875 0.5,0 1.15625,-0.328125 1.28125,-0.84375 0.0625,0.4375 0.34375,0.796875 0.78125,0.796875 0.40625,0 0.765625,-0.328125 0.828125,-0.78125 v -0.71875 h -0.25 v 0.5 c 0,0.28125 -0.0625,0.6875 -0.359375,0.6875 -0.328125,0 -0.375,-0.390625 -0.375,-0.65625 V -2.59375 c 0,-0.125 0.015625,-0.25 0.015625,-0.375 0,-0.96875 -0.90625,-1.5 -1.734375,-1.5 -0.640625,0 -1.515625,0.3125 -1.515625,1.109375 0,0.28125 0.203125,0.484375 0.46875,0.484375 0.28125,0 0.4375,-0.21875 0.4375,-0.46875 0,-0.28125 -0.21875,-0.453125 -0.5,-0.453125 z m 2.125,1.390625 v 1.015625 c 0,0.6875 -0.46875,1.234375 -1.125,1.265625 H 2.078125 C 1.609375,-0.125 1.1875,-0.484375 1.1875,-0.96875 V -1.015625 C 1.25,-2.03125 2.375,-2.375 3.234375,-2.40625 Z m 0,0"
               id="id-b9f80309-9c8c-4a9b-ad5d-20af8437ad71" />
          </symbol>
          <symbol
             overflow="visible"
             id="id-af6e7fab-de40-4139-b64c-c21d0ee48d4d">
            <path
               style="stroke:none"
               d="m 0.328125,-6.8125 v 0.296875 c 0.125,0 0.265625,0 0.375,0 0.359375,0 0.65625,0.046875 0.65625,0.4375 V -0.75 c 0,0.375 -0.328125,0.4375 -0.671875,0.4375 -0.125,0 -0.25,0 -0.359375,0 v 0.296875 h 2.9375 V -0.3125 c -0.109375,0 -0.25,0 -0.359375,0 C 2.546875,-0.3125 2.25,-0.359375 2.25,-0.75 v -5.234375 c 0,-0.0625 -0.015625,-0.125 -0.015625,-0.1875 0,-0.296875 0.1875,-0.34375 0.53125,-0.34375 H 5.15625 C 5.34375,-6.484375 5.5,-6.453125 5.5,-6.171875 V -0.75 c 0,0.390625 -0.34375,0.4375 -0.71875,0.4375 h -0.3125 v 0.296875 H 7.421875 V -0.3125 c -0.125,0 -0.25,0 -0.375,0 -0.34375,0 -0.65625,-0.046875 -0.65625,-0.4375 v -5.328125 c 0,-0.375 0.3125,-0.4375 0.65625,-0.4375 0.125,0 0.265625,0 0.375,0 V -6.8125 Z m 0,0"
               id="id-c03d24fc-4dd6-4335-8e97-f4dcf7946fc6" />
          </symbol>
          <symbol
             overflow="visible"
             id="id-eaaba839-794e-4181-92b6-5844de873135">
            <path
               style="stroke:none"
               d="m 0.25,-4.296875 v 0.21875 h 0.234375 c 0.28125,0 0.546875,0.046875 0.546875,0.453125 v 2.953125 c 0,0.421875 -0.28125,0.4375 -0.78125,0.4375 v 0.21875 H 2.5 v -0.21875 H 2.328125 C 2.03125,-0.234375 1.71875,-0.265625 1.71875,-0.625 1.734375,-0.71875 1.828125,-0.78125 1.875,-0.859375 L 2.265625,-1.34375 C 2.78125,-1.96875 3.25,-2.65625 3.796875,-3.25 v 2.578125 c 0,0.34375 -0.140625,0.4375 -0.78125,0.4375 v 0.21875 H 5.28125 v -0.21875 H 5.046875 C 4.765625,-0.234375 4.5,-0.265625 4.5,-0.671875 V -3.625 c 0,-0.421875 0.25,-0.453125 0.78125,-0.453125 v -0.21875 H 3.015625 v 0.21875 h 0.1875 c 0.28125,0 0.59375,0.03125 0.59375,0.40625 -0.015625,0.078125 -0.09375,0.15625 -0.140625,0.21875 l -0.390625,0.5 c -0.53125,0.625 -1,1.296875 -1.546875,1.890625 v -2.578125 c 0,-0.34375 0.140625,-0.4375 0.78125,-0.4375 v -0.21875 z m 0,0"
               id="id-95e3427d-3b1f-4154-bc07-d6c50c53253f" />
          </symbol>
          <symbol
             overflow="visible"
             id="id-0f66f90f-6dac-4246-89c1-3c8c544e8c9b">
            <path
               style="stroke:none"
               d="m 2.765625,-6.8125 v 0.296875 H 2.9375 c 0.328125,0 0.59375,0.046875 0.59375,0.59375 v 2 C 3.3125,-4.25 2.90625,-4.40625 2.515625,-4.40625 c -1.203125,0 -2.171875,1.0625 -2.171875,2.25 0,1.203125 0.984375,2.25 2.234375,2.25 0.40625,0 0.703125,-0.171875 0.953125,-0.46875 v 1.359375 c 0,0.0625 0.015625,0.140625 0.015625,0.21875 0,0.40625 -0.296875,0.40625 -0.71875,0.40625 h -0.0625 v 0.3125 h 2.21875 v -0.3125 H 4.75 c -0.296875,0 -0.546875,-0.03125 -0.546875,-0.40625 0,-0.078125 0,-0.15625 0,-0.21875 V -0.375 c 0.265625,0.296875 0.5625,0.46875 0.953125,0.46875 1.234375,0 2.25,-1.015625 2.25,-2.25 0,-1.125 -0.90625,-2.25 -2.1875,-2.25 -0.375,0 -0.796875,0.15625 -1,0.484375 l -0.015625,-3 z M 6.5625,-1.984375 C 6.5,-1.1875 6.0625,-0.125 5.109375,-0.125 c -0.40625,0 -0.90625,-0.421875 -0.90625,-0.859375 V -3.4375 c 0.078125,-0.4375 0.59375,-0.71875 0.9375,-0.71875 1.015625,0 1.4375,1.25 1.4375,2.015625 0,0.046875 0,0.109375 -0.015625,0.15625 z M 1.171875,-2 v -0.109375 c 0,-0.8125 0.421875,-2.046875 1.4375,-2.046875 0.40625,0 0.875,0.359375 0.921875,0.71875 v 2.453125 C 3.53125,-0.515625 3.015625,-0.125 2.625,-0.125 1.6875,-0.125 1.25,-1.171875 1.171875,-2 Z m 0,0"
               id="id-b93d7cff-8b99-4812-ac9e-5411056d891f" />
          </symbol>
          <symbol
             overflow="visible"
             id="id-1a012440-bff1-4bf6-bcff-642a3c662e46">
            <path
               style="stroke:none"
               d="m 0.25,-4.296875 v 0.21875 h 0.234375 c 0.28125,0 0.546875,0.046875 0.546875,0.453125 v 2.953125 c 0,0.421875 -0.28125,0.4375 -0.78125,0.4375 v 0.21875 h 2.4375 v -0.21875 H 2.390625 c -0.359375,0 -0.671875,-0.03125 -0.671875,-0.46875 V -3.71875 c 0,-0.203125 0.078125,-0.359375 0.3125,-0.359375 h 0.625 c 0.671875,0 1.203125,0.046875 1.265625,1.390625 h 0.25 L 4.0625,-4.296875 Z m 0,0"
               id="id-d673ef05-907d-4d22-993b-0bd9b40e5836" />
          </symbol>
          <symbol
             overflow="visible"
             id="id-ded01a87-9664-404f-8777-d6f3e7334755">
            <path
               style="stroke:none"
               d="m 0.625,-7.484375 c -0.046875,0.03125 -0.0625,0.0625 -0.0625,0.09375 0,0.109375 0.21875,0.28125 0.328125,0.40625 C 1.96875,-5.75 2.28125,-4.0625 2.28125,-2.5 2.28125,-0.890625 1.953125,0.9375 0.75,2.140625 0.6875,2.203125 0.5625,2.296875 0.5625,2.375 c 0,0.0625 0.046875,0.109375 0.109375,0.109375 C 0.796875,2.46875 1,2.25 1.109375,2.140625 2.375,0.875 2.875,-0.8125 2.875,-2.515625 2.875,-4.34375 2.265625,-6.171875 0.8125,-7.40625 0.765625,-7.4375 0.71875,-7.484375 0.65625,-7.484375 c -0.015625,0 -0.015625,0 -0.03125,0 z m 0,0"
               id="id-9f211dc0-740c-45ac-b827-0ad5b019de74" />
          </symbol>
          <symbol
             overflow="visible"
             id="id-a645405d-863b-40e4-b2dc-7518d0fb70b6">
            <path
               style="stroke:none"
               d="m 1.3125,-4.28125 c -0.25,0.03125 -0.453125,0.25 -0.453125,0.5 0,0.25 0.203125,0.546875 0.5,0.546875 0.28125,0 0.546875,-0.21875 0.546875,-0.53125 0,-0.25 -0.1875,-0.53125 -0.515625,-0.53125 -0.03125,0 -0.0625,0.015625 -0.078125,0.015625 z m 0,3.21875 c -0.25,0.03125 -0.453125,0.265625 -0.453125,0.515625 0,0.25 0.203125,0.53125 0.5,0.53125 0.28125,0 0.546875,-0.203125 0.546875,-0.515625 0,-0.25 -0.1875,-0.53125 -0.515625,-0.53125 -0.03125,0 -0.0625,0 -0.078125,0 z m 0,0"
               id="id-0d07f833-4153-466a-9877-bc1047a94fc6" />
          </symbol>
          <symbol
             overflow="visible"
             id="id-d6434b41-7d6c-4d68-8322-bd9531effff5">
            <path
               style="stroke:none"
               d="m 1.453125,-6.5625 c -0.25,0.015625 -0.46875,0.25 -0.46875,0.515625 0,0.28125 0.25,0.53125 0.53125,0.53125 0.28125,0 0.53125,-0.234375 0.53125,-0.53125 0,-0.265625 -0.1875,-0.53125 -0.515625,-0.53125 -0.03125,0 -0.0625,0.015625 -0.078125,0.015625 z m 1.921875,0 c -0.25,0.015625 -0.4375,0.25 -0.4375,0.515625 0,0.25 0.1875,0.53125 0.484375,0.53125 0.3125,0 0.5625,-0.234375 0.5625,-0.53125 0,-0.296875 -0.25,-0.53125 -0.53125,-0.53125 -0.03125,0 -0.046875,0.015625 -0.078125,0.015625 z m 0,0"
               id="id-82231717-284b-4173-9e45-fca9acd5bc0a" />
          </symbol>
          <symbol
             overflow="visible"
             id="id-0ad9b38c-bff2-4664-bb19-0f1d99971bcd">
            <path
               style="stroke:none"
               d="m 0.3125,-4.296875 v 0.3125 h 0.140625 c 0.28125,0 0.578125,0.015625 0.640625,0.3125 0,0.109375 0,0.21875 0,0.328125 v 1.984375 c 0,0.328125 0.015625,0.625 0.1875,0.921875 0.28125,0.421875 0.84375,0.546875 1.3125,0.546875 0.453125,0 0.859375,-0.203125 1.109375,-0.5625 C 3.765625,-0.5625 3.84375,-0.65625 3.875,-0.78125 v 0.875 L 5.328125,-0.015625 V -0.3125 h -0.15625 c -0.328125,0 -0.625,-0.03125 -0.625,-0.484375 V -4.40625 l -1.46875,0.109375 v 0.3125 H 3.21875 c 0.328125,0 0.625,0.03125 0.625,0.5 V -1.6875 c 0,0.734375 -0.375,1.5625 -1.203125,1.5625 -0.5625,0 -0.84375,-0.140625 -0.84375,-1.203125 V -4.40625 Z m 0,0"
               id="id-43f5b40d-7fde-411e-9f56-752a12533e6e" />
          </symbol>
          <symbol
             overflow="visible"
             id="id-33e95666-fe73-4418-acdc-d96df54c396b">
            <path
               style="stroke:none"
               d=""
               id="id-11843e64-c8e8-47f6-b916-7cc289e654a5" />
          </symbol>
          <symbol
             overflow="visible"
             id="id-a64db21c-b164-4063-babd-3f009ee090ea">
            <path
               style="stroke:none"
               d="M 3.71875,-3.765625 C 3.53125,-4.140625 3.25,-4.40625 2.796875,-4.40625 c -1.15625,0 -2.390625,1.46875 -2.390625,2.921875 0,0.9375 0.546875,1.59375 1.3125,1.59375 0.203125,0 0.703125,-0.046875 1.296875,-0.75 0.078125,0.421875 0.4375,0.75 0.90625,0.75 0.359375,0 0.578125,-0.234375 0.75,-0.546875 0.15625,-0.359375 0.296875,-0.96875 0.296875,-0.984375 0,-0.109375 -0.09375,-0.109375 -0.125,-0.109375 -0.09375,0 -0.109375,0.046875 -0.140625,0.1875 -0.171875,0.640625 -0.34375,1.234375 -0.75,1.234375 -0.28125,0 -0.296875,-0.265625 -0.296875,-0.453125 0,-0.21875 0.015625,-0.3125 0.125,-0.75 C 3.890625,-1.71875 3.90625,-1.828125 4,-2.203125 L 4.359375,-3.59375 c 0.0625,-0.28125 0.0625,-0.296875 0.0625,-0.34375 0,-0.171875 -0.109375,-0.265625 -0.28125,-0.265625 -0.25,0 -0.390625,0.21875 -0.421875,0.4375 z M 3.078125,-1.1875 C 3.015625,-1 3.015625,-0.984375 2.875,-0.8125 2.4375,-0.265625 2.03125,-0.109375 1.75,-0.109375 c -0.5,0 -0.640625,-0.546875 -0.640625,-0.9375 0,-0.5 0.3125,-1.71875 0.546875,-2.1875 0.3125,-0.578125 0.75,-0.953125 1.15625,-0.953125 0.640625,0 0.78125,0.8125 0.78125,0.875 0,0.0625 -0.015625,0.125 -0.03125,0.171875 z m 0,0"
               id="id-9383f55e-5bf0-40e8-a2d0-aef425991745" />
          </symbol>
          <symbol
             overflow="visible"
             id="id-d81e55b2-95c8-4743-ada3-7d4a8fdb53e5">
            <path
               style="stroke:none"
               d="m 2.375,-6.8125 c 0,0 0,-0.109375 -0.125,-0.109375 -0.21875,0 -0.953125,0.078125 -1.21875,0.109375 -0.078125,0 -0.1875,0.015625 -0.1875,0.1875 0,0.125 0.09375,0.125 0.25,0.125 0.46875,0 0.484375,0.0625 0.484375,0.171875 0,0.0625 -0.078125,0.40625 -0.125,0.609375 l -0.828125,3.25 c -0.109375,0.5 -0.15625,0.671875 -0.15625,1.015625 0,0.9375 0.53125,1.5625 1.265625,1.5625 1.171875,0 2.40625,-1.484375 2.40625,-2.921875 0,-0.90625 -0.53125,-1.59375 -1.328125,-1.59375 -0.453125,0 -0.875,0.296875 -1.171875,0.59375 z M 1.453125,-3.046875 C 1.5,-3.265625 1.5,-3.28125 1.59375,-3.390625 2.078125,-4.03125 2.53125,-4.1875 2.796875,-4.1875 c 0.359375,0 0.625,0.296875 0.625,0.9375 0,0.59375 -0.328125,1.734375 -0.515625,2.109375 -0.328125,0.671875 -0.78125,1.03125 -1.171875,1.03125 -0.34375,0 -0.671875,-0.265625 -0.671875,-1 0,-0.203125 0,-0.390625 0.15625,-1.015625 z m 0,0"
               id="id-761b2b6c-7cce-482d-af4a-f37d84bc50f8" />
          </symbol>
          <symbol
             overflow="visible"
             id="id-b38012eb-6eb8-4fa3-905b-66814700ba59">
            <path
               style="stroke:none"
               d="m 3.953125,-3.78125 c -0.171875,0 -0.296875,0 -0.4375,0.125 -0.171875,0.15625 -0.1875,0.328125 -0.1875,0.390625 0,0.25 0.1875,0.359375 0.375,0.359375 0.28125,0 0.546875,-0.25 0.546875,-0.640625 0,-0.484375 -0.46875,-0.859375 -1.171875,-0.859375 -1.34375,0 -2.671875,1.421875 -2.671875,2.828125 0,0.90625 0.578125,1.6875 1.625,1.6875 1.421875,0 2.25,-1.0625 2.25,-1.171875 0,-0.0625 -0.046875,-0.140625 -0.109375,-0.140625 -0.0625,0 -0.078125,0.03125 -0.140625,0.109375 -0.78125,0.984375 -1.875,0.984375 -1.984375,0.984375 -0.625,0 -0.90625,-0.484375 -0.90625,-1.09375 0,-0.40625 0.203125,-1.375 0.546875,-1.984375 0.3125,-0.578125 0.859375,-1 1.40625,-1 0.328125,0 0.71875,0.125 0.859375,0.40625 z m 0,0"
               id="id-ef14f594-5106-4de3-b97d-959a23b97c0e" />
          </symbol>
          <symbol
             overflow="visible"
             id="id-d9ecca13-017a-4d3c-ab5c-b639b81d3419">
            <path
               style="stroke:none"
               d=""
               id="id-b021a589-a718-49b7-a99a-450a7c715a79" />
          </symbol>
          <symbol
             overflow="visible"
             id="id-12ba3175-6359-47f4-b89e-66e57abbc084">
            <path
               style="stroke:none"
               d="M 3.515625,-1.265625 H 3.28125 c -0.015625,0.15625 -0.09375,0.5625 -0.1875,0.625 C 3.046875,-0.59375 2.515625,-0.59375 2.40625,-0.59375 H 1.125 c 0.734375,-0.640625 0.984375,-0.84375 1.390625,-1.171875 0.515625,-0.40625 1,-0.84375 1,-1.5 0,-0.84375 -0.734375,-1.359375 -1.625,-1.359375 -0.859375,0 -1.453125,0.609375 -1.453125,1.25 0,0.34375 0.296875,0.390625 0.375,0.390625 0.15625,0 0.359375,-0.125 0.359375,-0.375 0,-0.125 -0.046875,-0.375 -0.40625,-0.375 C 0.984375,-4.21875 1.453125,-4.375 1.78125,-4.375 c 0.703125,0 1.0625,0.546875 1.0625,1.109375 0,0.609375 -0.4375,1.078125 -0.65625,1.328125 L 0.515625,-0.265625 C 0.4375,-0.203125 0.4375,-0.1875 0.4375,0 h 2.875 z m 0,0"
               id="id-1e79045f-9d00-4dd1-add3-633f3f4eaf38" />
          </symbol>
          <symbol
             overflow="visible"
             id="id-bc82328a-5771-451c-8605-2f94fc1f5e8b">
            <path
               style="stroke:none"
               d=""
               id="id-3bf4175e-f97d-4cc1-bb50-8596a6d8f64b" />
          </symbol>
          <symbol
             overflow="visible"
             id="id-c6fbfdef-c64f-48cc-8953-1f95963206b7">
            <path
               style="stroke:none"
               d="m 4.078125,-2.296875 h 2.78125 C 7,-2.296875 7.1875,-2.296875 7.1875,-2.5 7.1875,-2.6875 7,-2.6875 6.859375,-2.6875 h -2.78125 v -2.796875 c 0,-0.140625 0,-0.328125 -0.203125,-0.328125 -0.203125,0 -0.203125,0.1875 -0.203125,0.328125 V -2.6875 h -2.78125 c -0.140625,0 -0.328125,0 -0.328125,0.1875 0,0.203125 0.1875,0.203125 0.328125,0.203125 h 2.78125 V 0.5 c 0,0.140625 0,0.328125 0.203125,0.328125 0.203125,0 0.203125,-0.1875 0.203125,-0.328125 z m 0,0"
               id="id-87654648-8d51-47da-aa75-de65d68d641c" />
          </symbol>
          <symbol
             overflow="visible"
             id="id-7e4cb814-fde1-45b6-9431-c150493216f7">
            <path
               style="stroke:none"
               d="m 6.84375,-3.265625 c 0.15625,0 0.34375,0 0.34375,-0.1875 C 7.1875,-3.65625 7,-3.65625 6.859375,-3.65625 h -5.96875 c -0.140625,0 -0.328125,0 -0.328125,0.203125 0,0.1875 0.1875,0.1875 0.328125,0.1875 z m 0.015625,1.9375 c 0.140625,0 0.328125,0 0.328125,-0.203125 0,-0.1875 -0.1875,-0.1875 -0.34375,-0.1875 H 0.890625 c -0.140625,0 -0.328125,0 -0.328125,0.1875 0,0.203125 0.1875,0.203125 0.328125,0.203125 z m 0,0"
               id="id-6926c20d-f7de-43c0-82be-b0ae31acb33d" />
          </symbol>
          <symbol
             overflow="visible"
             id="id-1ac8df59-54db-4d13-b5ce-1fc004fb5e54">
            <path
               style="stroke:none"
               d="m 3.09375,-4.171875 c 0.890625,-0.25 1.328125,-0.859375 1.328125,-1.4375 0,-0.75 -0.71875,-1.421875 -1.703125,-1.421875 -0.78125,0 -1.65625,0.484375 -1.65625,1.484375 v 1.25 H 0.28125 v 0.3125 H 1.0625 V -0.75 c 0,0.4375 -0.109375,0.4375 -0.78125,0.4375 V 0 C 0.46875,-0.015625 1.125,-0.03125 1.25,-0.03125 c 0.109375,0 0.28125,0 0.46875,0.03125 v -5.5625 c 0,-1.140625 0.796875,-1.25 1,-1.25 0.40625,0 0.953125,0.3125 0.953125,1.1875 0,0.640625 -0.359375,1.25 -1.234375,1.328125 -0.09375,0.015625 -0.171875,0.015625 -0.171875,0.109375 0,0.015625 0,0.09375 0.09375,0.109375 1.1875,0.09375 1.59375,1.3125 1.59375,2.359375 0,1.28125 -0.65625,1.609375 -1.03125,1.609375 -0.09375,0 -0.3125,-0.015625 -0.5,-0.1875 C 2.53125,-0.3125 2.71875,-0.421875 2.71875,-0.65625 2.71875,-0.875 2.5625,-1.015625 2.359375,-1.015625 2.1875,-1.015625 2,-0.890625 2,-0.640625 c 0,0.390625 0.375,0.75 0.953125,0.75 0.859375,0 1.734375,-0.734375 1.734375,-1.84375 0,-0.71875 -0.3125,-1.921875 -1.59375,-2.4375 z m 0,0"
               id="id-4d96fd3c-24fd-46ca-b03b-b1d8cd160d84" />
          </symbol>
        </g>
      </defs>
      <g
         id="id-5ed6b2ac-ac71-4d01-9b8f-92769b34e952"
         transform="translate(-134.173, -127.281)">
        <g
           style="fill:#000000;fill-opacity:1"
           id="id-6b9eb907-db3f-47ed-86f0-fae0bf6d82d5">
          <g
             transform="translate(133.768, 134.765)"
             id="g319">
            <path
               style="stroke:none"
               d="m 1.15625,-0.484375 c 0.625,0.484375 1.109375,0.6875 1.890625,0.6875 1.1875,0 1.921875,-1.0625 1.921875,-2.078125 C 4.96875,-2.703125 4.5,-3.46875 3.703125,-3.796875 3.09375,-4.046875 2.34375,-4.03125 1.8125,-4.34375 c -0.390625,-0.25 -0.625,-0.6875 -0.625,-1.125 0,-0.78125 0.671875,-1.296875 1.375,-1.296875 0.984375,0 1.671875,0.796875 1.828125,1.796875 0.03125,0.140625 0,0.40625 0.1875,0.40625 0.109375,0 0.109375,-0.078125 0.109375,-0.171875 v -2.15625 c 0,-0.078125 -0.015625,-0.140625 -0.09375,-0.140625 -0.140625,0 -0.25,0.265625 -0.34375,0.40625 -0.046875,0.078125 -0.125,0.1875 -0.15625,0.28125 -0.421875,-0.40625 -0.890625,-0.6875 -1.546875,-0.6875 -0.984375,0 -2,0.671875 -2,1.9375 0,1.03125 0.765625,1.71875 1.734375,1.921875 C 2.5,-3.125 2.6875,-3.0625 2.90625,-3.015625 3.453125,-2.875 4.015625,-2.734375 4.25,-2.03125 c 0.0625,0.15625 0.09375,0.3125 0.09375,0.46875 0,0.75 -0.515625,1.46875 -1.359375,1.46875 C 2,-0.09375 1.03125,-0.625 0.828125,-1.78125 0.8125,-1.859375 0.8125,-1.96875 0.796875,-2.046875 V -2.125 c 0,-0.09375 -0.046875,-0.140625 -0.125,-0.140625 -0.109375,0 -0.125,0.078125 -0.125,0.140625 v 2.1875 c 0,0.078125 0.015625,0.140625 0.09375,0.140625 0.15625,0 0.265625,-0.265625 0.34375,-0.40625 0.0625,-0.09375 0.125,-0.1875 0.171875,-0.28125 z m 0,0"
               id="id-6c46d583-0e23-4b88-852e-de6646b14da2" />
          </g>
          <g
             transform="translate(139.301, 134.765)"
             id="g322">
            <path
               style="stroke:none"
               d="m 1.109375,-3.796875 c 0.25,-0.3125 0.6875,-0.453125 1.0625,-0.453125 0.734375,0 1.0625,0.671875 1.0625,1.375 v 0.265625 c -1.140625,0 -2.828125,0.359375 -2.828125,1.65625 V -0.875 c 0.078125,0.78125 1.046875,0.96875 1.625,0.96875 0.5,0 1.15625,-0.328125 1.28125,-0.84375 0.0625,0.4375 0.34375,0.796875 0.78125,0.796875 0.40625,0 0.765625,-0.328125 0.828125,-0.78125 v -0.71875 h -0.25 v 0.5 c 0,0.28125 -0.0625,0.6875 -0.359375,0.6875 -0.328125,0 -0.375,-0.390625 -0.375,-0.65625 V -2.59375 c 0,-0.125 0.015625,-0.25 0.015625,-0.375 0,-0.96875 -0.90625,-1.5 -1.734375,-1.5 -0.640625,0 -1.515625,0.3125 -1.515625,1.109375 0,0.28125 0.203125,0.484375 0.46875,0.484375 0.28125,0 0.4375,-0.21875 0.4375,-0.46875 0,-0.28125 -0.21875,-0.453125 -0.5,-0.453125 z m 2.125,1.390625 v 1.015625 c 0,0.6875 -0.46875,1.234375 -1.125,1.265625 H 2.078125 C 1.609375,-0.125 1.1875,-0.484375 1.1875,-0.96875 V -1.015625 C 1.25,-2.03125 2.375,-2.375 3.234375,-2.40625 Z m 0,0"
               id="id-d4197800-c5b6-4586-a27b-c2cc1cb5bb74" />
          </g>
          <g
             transform="translate(144.282, 134.765)"
             id="g325">
            <path
               style="stroke:none"
               d="m 1.484375,-6.140625 c 0,0.6875 -0.28125,1.9375 -1.3125,1.9375 v 0.21875 H 1.03125 v 2.5625 c 0,0.328125 0.03125,0.671875 0.1875,0.953125 0.21875,0.40625 0.6875,0.5625 1.125,0.5625 0.8125,0 0.96875,-0.90625 0.96875,-1.546875 V -1.8125 H 3.078125 c 0,0.140625 0,0.296875 0,0.453125 0,0.4375 -0.09375,1.203125 -0.6875,1.203125 -0.5625,0 -0.65625,-0.6875 -0.65625,-1.125 V -3.984375 H 3.15625 v -0.3125 H 1.734375 v -1.84375 z m 0,0"
               id="id-fa0e17d1-fcfb-4c0d-b2ac-98619796e52d" />
          </g>
          <g
             transform="translate(148.155, 134.765)"
             id="g328">
            <path
               style="stroke:none"
               d="M 0.53125,-4.296875 0.421875,-2.6875 h 0.25 c 0.015625,-0.359375 0.03125,-0.765625 0.25,-1.046875 0.25,-0.3125 0.71875,-0.34375 1.109375,-0.34375 H 3.140625 C 2.203125,-2.875 1.3125,-1.59375 0.390625,-0.375 0.34375,-0.3125 0.28125,-0.21875 0.28125,-0.140625 c 0,0.09375 0.0625,0.125 0.171875,0.125 h 3.375 L 4,-1.875 H 3.75 C 3.671875,-1.203125 3.625,-0.375 2.671875,-0.28125 2.4375,-0.265625 2.21875,-0.265625 2,-0.265625 H 1.125 C 1.859375,-1.25 2.59375,-2.25 3.328125,-3.234375 3.546875,-3.53125 3.984375,-4 3.984375,-4.171875 c 0,-0.09375 -0.09375,-0.125 -0.171875,-0.125 z m 0,0"
               id="id-0b0f3710-2f2c-427a-89e6-02034364f7c0" />
          </g>
        </g>
        <g
           style="fill:#000000;fill-opacity:1"
           id="id-eff0a9b5-a819-4800-96a5-e5491ff45a83">
          <g
             transform="translate(155.899, 134.765)"
             id="g332">
            <path
               style="stroke:none"
               d="m 3.03125,-6.8125 v 0.296875 H 3.1875 c 0.34375,0 0.625,0.046875 0.625,0.625 l -0.015625,2.09375 C 3.5625,-4.203125 2.984375,-4.40625 2.53125,-4.40625 c -1.21875,0 -2.203125,1.0625 -2.203125,2.265625 0,1.0625 0.8125,2.234375 2.140625,2.234375 0.515625,0 0.984375,-0.25 1.3125,-0.640625 V 0.09375 L 5.25,-0.015625 V -0.3125 H 5.078125 c -0.296875,0 -0.609375,-0.03125 -0.609375,-0.5 V -6.921875 Z M 1.171875,-1.90625 V -2.046875 C 1.171875,-2.796875 1.25,-3.53125 1.9375,-4 2.140625,-4.109375 2.375,-4.1875 2.609375,-4.1875 c 0.484375,0 1.171875,0.40625 1.171875,1.03125 0,0.125 0,0.25 0,0.390625 v 1.65625 c 0,0.125 -0.046875,0.21875 -0.125,0.3125 C 3.40625,-0.40625 2.96875,-0.125 2.5,-0.125 1.78125,-0.125 1.3125,-0.78125 1.203125,-1.46875 1.1875,-1.609375 1.1875,-1.765625 1.171875,-1.90625 Z m 0,0"
               id="id-e90d3030-7a11-4a94-a498-60f56e5aef37" />
          </g>
          <g
             transform="translate(161.432, 134.765)"
             id="g335">
            <path
               style="stroke:none"
               d="m 1.109375,-2.3125 h 2.875 c 0.109375,0 0.15625,-0.0625 0.15625,-0.1875 0,-1.046875 -0.640625,-1.96875 -1.765625,-1.96875 -1.21875,0 -2.09375,1.09375 -2.09375,2.28125 0,0.90625 0.5,1.734375 1.390625,2.125 0.21875,0.109375 0.484375,0.15625 0.734375,0.15625 H 2.4375 c 0.765625,0 1.40625,-0.421875 1.671875,-1.1875 C 4.125,-1.125 4.125,-1.171875 4.125,-1.203125 4.125,-1.265625 4.09375,-1.3125 4.015625,-1.3125 3.875,-1.3125 3.8125,-0.984375 3.75,-0.875 3.5,-0.4375 3.015625,-0.15625 2.5,-0.15625 c -0.359375,0 -0.6875,-0.203125 -0.953125,-0.46875 -0.40625,-0.46875 -0.4375,-1.109375 -0.4375,-1.6875 z M 1.125,-2.515625 C 1.125,-3.296875 1.53125,-4.25 2.359375,-4.25 H 2.40625 c 0.96875,0.09375 0.96875,1.125 1.0625,1.734375 z m 0,0"
               id="id-33ab1f3f-9fe9-4c79-ad89-242b5f785bb4" />
          </g>
          <g
             transform="translate(165.859, 134.765)"
             id="g338">
            <path
               style="stroke:none"
               d="M 1.75,-4.46875 C 1.390625,-4.421875 1,-4.359375 0.703125,-4.109375 c -0.234375,0.21875 -0.375,0.546875 -0.375,0.875 C 0.328125,-1.53125 3.09375,-2.5 3.09375,-1 3.09375,-0.40625 2.546875,-0.125 2,-0.125 1.25,-0.125 0.734375,-0.65625 0.59375,-1.515625 0.578125,-1.609375 0.5625,-1.6875 0.453125,-1.6875 c -0.078125,0 -0.125,0.046875 -0.125,0.125 V 0.015625 C 0.34375,0.0625 0.375,0.09375 0.421875,0.09375 H 0.4375 c 0.15625,0 0.3125,-0.359375 0.4375,-0.390625 h 0.015625 c 0.078125,0 0.34375,0.25 0.5625,0.3125 0.15625,0.0625 0.34375,0.078125 0.515625,0.078125 0.828125,0 1.625,-0.4375 1.625,-1.34375 0,-0.65625 -0.484375,-1.203125 -1.140625,-1.375 -0.625,-0.171875 -1.640625,-0.171875 -1.640625,-0.890625 0,-0.609375 0.671875,-0.765625 1.109375,-0.765625 0.484375,0 1.171875,0.28125 1.171875,1.125 0,0.09375 0,0.171875 0.109375,0.171875 0.109375,0 0.140625,-0.078125 0.140625,-0.171875 0,-0.046875 0,-0.109375 0,-0.140625 v -1.03125 c 0,-0.0625 -0.03125,-0.140625 -0.109375,-0.140625 -0.15625,0 -0.265625,0.25 -0.375,0.25 H 2.84375 c -0.078125,0 -0.234375,-0.125 -0.34375,-0.171875 -0.1875,-0.0625 -0.390625,-0.078125 -0.578125,-0.078125 -0.0625,0 -0.109375,0 -0.171875,0 z m 0,0"
               id="id-e5583809-9b01-4e30-a29d-ac28081ba50c" />
          </g>
        </g>
        <g
           style="fill:#000000;fill-opacity:1"
           id="id-1fe0b2a0-f628-4c71-8177-8108cab00fee">
          <g
             transform="translate(173.114, 134.765)"
             id="g342">
            <path
               style="stroke:none"
               d="m 0.34375,-6.8125 v 0.296875 c 0.125,0 0.25,0 0.375,0 0.359375,0 0.640625,0.046875 0.640625,0.4375 V -0.75 c 0,0.375 -0.328125,0.4375 -0.65625,0.4375 -0.140625,0 -0.25,0 -0.359375,0 v 0.296875 h 2.9375 V -0.3125 H 2.9375 C 2.515625,-0.3125 2.25,-0.34375 2.25,-0.75 v -2.40625 h 1.84375 c 0.9375,-0.078125 2.125,-0.65625 2.125,-1.796875 0,-1.0625 -1.046875,-1.75 -2.046875,-1.859375 -0.15625,0 -0.296875,-0.015625 -0.4375,-0.015625 -0.203125,0 -0.40625,0.015625 -0.59375,0.015625 z m 1.875,3.390625 V -6.1875 c 0,-0.265625 0.171875,-0.296875 0.359375,-0.328125 h 0.75 c 0.5625,0 1.203125,0.03125 1.59375,0.5 0.234375,0.28125 0.265625,0.6875 0.265625,1.046875 0,0.359375 -0.03125,0.734375 -0.25,1.03125 -0.328125,0.421875 -0.90625,0.515625 -1.421875,0.515625 z m 0,0"
               id="id-0b3f26a0-07cc-4c69-bc54-059f87a361ca" />
          </g>
          <g
             transform="translate(179.893, 134.765)"
             id="g345">
            <path
               style="stroke:none"
               d="m 0.1875,-4.296875 v 0.3125 h 0.15625 c 0.28125,0 0.5,0.03125 0.671875,0.40625 C 1.46875,-2.484375 1.90625,-1.375 2.375,-0.28125 2.40625,-0.203125 2.484375,-0.09375 2.484375,0 2.484375,0.015625 2.46875,0.03125 2.46875,0.046875 2.40625,0.25 2.296875,0.453125 2.21875,0.640625 2.015625,1.140625 1.71875,1.8125 1.109375,1.8125 0.953125,1.8125 0.75,1.75 0.640625,1.640625 0.828125,1.609375 1.03125,1.5 1.03125,1.21875 1.03125,1 0.875,0.8125 0.65625,0.796875 c -0.3125,0 -0.46875,0.1875 -0.46875,0.421875 0,0.5 0.46875,0.8125 0.921875,0.8125 0.71875,0 1.109375,-0.734375 1.359375,-1.328125 l 0.296875,-0.71875 C 3.109375,-0.875 3.46875,-1.71875 3.828125,-2.578125 L 4.0625,-3.15625 c 0.171875,-0.46875 0.4375,-0.828125 1,-0.828125 v -0.3125 H 3.453125 v 0.3125 c 0.234375,0 0.46875,0.15625 0.46875,0.40625 0,0.125 -0.0625,0.265625 -0.109375,0.375 -0.296875,0.6875 -0.546875,1.375 -0.859375,2.046875 C 2.9375,-1.0625 2.875,-0.984375 2.859375,-0.890625 H 2.84375 C 2.78125,-1.109375 2.671875,-1.328125 2.578125,-1.546875 2.328125,-2.1875 2.015625,-2.84375 1.78125,-3.515625 1.75,-3.578125 1.703125,-3.65625 1.703125,-3.734375 v -0.03125 c 0.0625,-0.21875 0.34375,-0.21875 0.546875,-0.21875 v -0.3125 z m 0,0"
               id="id-3a9d3b82-a7da-479e-b7e8-4f642079e03f" />
          </g>
          <g
             transform="translate(185.15, 134.765)"
             id="g348">
            <path
               style="stroke:none"
               d="m 1.484375,-6.140625 c 0,0.6875 -0.28125,1.9375 -1.3125,1.9375 v 0.21875 H 1.03125 v 2.5625 c 0,0.328125 0.03125,0.671875 0.1875,0.953125 0.21875,0.40625 0.6875,0.5625 1.125,0.5625 0.8125,0 0.96875,-0.90625 0.96875,-1.546875 V -1.8125 H 3.078125 c 0,0.140625 0,0.296875 0,0.453125 0,0.4375 -0.09375,1.203125 -0.6875,1.203125 -0.5625,0 -0.65625,-0.6875 -0.65625,-1.125 V -3.984375 H 3.15625 v -0.3125 H 1.734375 v -1.84375 z m 0,0"
               id="id-e2efcb48-eebe-46f4-8b26-d6445ac1a6f7" />
          </g>
          <g
             transform="translate(189.024, 134.765)"
             id="g351">
            <path
               style="stroke:none"
               d="m 0.3125,-6.8125 v 0.296875 h 0.15625 c 0.375,0 0.625,0.046875 0.625,0.53125 v 5.03125 c 0,0.0625 0.015625,0.140625 0.015625,0.21875 0,0.375 -0.265625,0.421875 -0.546875,0.421875 h -0.25 v 0.296875 H 2.578125 V -0.3125 H 2.3125 c -0.28125,0 -0.515625,-0.046875 -0.515625,-0.421875 v -1.8125 c 0,-0.71875 0.359375,-1.640625 1.359375,-1.640625 0.625,0 0.6875,0.6875 0.6875,1.109375 V -0.6875 c 0,0.34375 -0.28125,0.375 -0.59375,0.375 H 3.078125 v 0.296875 h 2.25 V -0.3125 h -0.25 c -0.265625,0 -0.53125,-0.046875 -0.53125,-0.390625 V -2.875 c 0,-0.328125 -0.015625,-0.65625 -0.15625,-0.96875 -0.25,-0.4375 -0.734375,-0.5625 -1.203125,-0.5625 -0.578125,0 -1.21875,0.390625 -1.40625,0.953125 l -0.015625,-3.46875 z m 0,0"
               id="id-c8a18c53-4620-4793-8ba7-b938c054001d" />
          </g>
          <g
             transform="translate(194.557, 134.765)"
             id="g354">
            <path
               style="stroke:none"
               d="m 1.109375,-3.796875 c 0.25,-0.3125 0.6875,-0.453125 1.0625,-0.453125 0.734375,0 1.0625,0.671875 1.0625,1.375 v 0.265625 c -1.140625,0 -2.828125,0.359375 -2.828125,1.65625 V -0.875 c 0.078125,0.78125 1.046875,0.96875 1.625,0.96875 0.5,0 1.15625,-0.328125 1.28125,-0.84375 0.0625,0.4375 0.34375,0.796875 0.78125,0.796875 0.40625,0 0.765625,-0.328125 0.828125,-0.78125 v -0.71875 h -0.25 v 0.5 c 0,0.28125 -0.0625,0.6875 -0.359375,0.6875 -0.328125,0 -0.375,-0.390625 -0.375,-0.65625 V -2.59375 c 0,-0.125 0.015625,-0.25 0.015625,-0.375 0,-0.96875 -0.90625,-1.5 -1.734375,-1.5 -0.640625,0 -1.515625,0.3125 -1.515625,1.109375 0,0.28125 0.203125,0.484375 0.46875,0.484375 0.28125,0 0.4375,-0.21875 0.4375,-0.46875 0,-0.28125 -0.21875,-0.453125 -0.5,-0.453125 z m 2.125,1.390625 v 1.015625 c 0,0.6875 -0.46875,1.234375 -1.125,1.265625 H 2.078125 C 1.609375,-0.125 1.1875,-0.484375 1.1875,-0.96875 V -1.015625 C 1.25,-2.03125 2.375,-2.375 3.234375,-2.40625 Z m 0,0"
               id="id-6a4ef246-d4a9-4283-8e2b-8dee91fd3e7c" />
          </g>
          <g
             transform="translate(199.537, 134.765)"
             id="g357">
            <path
               style="stroke:none"
               d="m 1.1875,-0.234375 v 0.015625 c -0.46875,0.09375 -0.90625,0.53125 -0.90625,1 0,0.9375 1.4375,1.265625 2.203125,1.265625 C 3.3125,2.046875 4.6875,1.75 4.6875,0.71875 4.6875,0.0625 4.234375,-0.375 3.640625,-0.546875 3.28125,-0.65625 2.90625,-0.671875 2.53125,-0.671875 H 1.625 c -0.3125,-0.03125 -0.5625,-0.34375 -0.5625,-0.65625 v -0.0625 c 0,-0.125 0.078125,-0.390625 0.171875,-0.390625 C 1.359375,-1.75 1.5,-1.640625 1.65625,-1.578125 1.828125,-1.53125 2.03125,-1.5 2.21875,-1.5 c 0.828125,0 1.625,-0.609375 1.625,-1.453125 0,-0.34375 -0.140625,-0.734375 -0.421875,-0.953125 v -0.015625 c 0.28125,-0.1875 0.53125,-0.375 0.890625,-0.375 0.03125,0 0.0625,0 0.09375,0.015625 -0.09375,0.046875 -0.15625,0.125 -0.15625,0.25 0,0.15625 0.140625,0.296875 0.296875,0.296875 0.171875,0 0.28125,-0.140625 0.28125,-0.296875 0,-0.265625 -0.21875,-0.484375 -0.484375,-0.484375 -0.359375,0 -0.6875,0.140625 -0.953125,0.359375 C 3.359375,-4.125 3.3125,-4.09375 3.28125,-4.078125 H 3.265625 c -0.0625,0 -0.140625,-0.078125 -0.1875,-0.109375 -0.25,-0.140625 -0.5625,-0.21875 -0.859375,-0.21875 -0.78125,0 -1.625,0.546875 -1.625,1.453125 0,0.328125 0.125,0.625 0.328125,0.890625 0.03125,0.03125 0.109375,0.09375 0.109375,0.140625 0,0.046875 -0.0625,0.09375 -0.078125,0.140625 C 0.8125,-1.578125 0.75,-1.328125 0.75,-1.09375 c 0,0.3125 0.140625,0.71875 0.4375,0.859375 z M 0.8125,0.84375 V 0.75 c 0,-0.515625 0.453125,-0.828125 0.984375,-0.828125 h 0.78125 c 0.625,0 1.59375,0.09375 1.59375,0.859375 C 4.171875,1.5 3.09375,1.8125 2.484375,1.8125 1.828125,1.8125 0.90625,1.515625 0.8125,0.84375 Z M 1.34375,-2.75 v -0.125 c 0,-0.546875 0.125,-1.296875 0.875,-1.296875 0.609375,0 0.859375,0.578125 0.859375,1.21875 0,0.40625 -0.078125,1.21875 -0.859375,1.21875 -0.25,0 -0.5,-0.125 -0.671875,-0.34375 C 1.390625,-2.265625 1.375,-2.515625 1.34375,-2.75 Z m 0,0"
               id="id-d8dd0f49-284e-4175-8f68-96449c62bdee" />
          </g>
          <g
             transform="translate(204.517, 134.765)"
             id="g360">
            <path
               style="stroke:none"
               d="m 2.34375,-4.46875 c -1.25,0.125 -2.0625,1.1875 -2.0625,2.34375 0,1.125 0.890625,2.21875 2.21875,2.21875 1.1875,0 2.1875,-0.96875 2.1875,-2.234375 0,-1.171875 -0.890625,-2.328125 -2.21875,-2.328125 -0.03125,0 -0.09375,0 -0.125,0 z m -1.234375,2.578125 v -0.4375 c 0,-0.765625 0.25,-1.921875 1.375,-1.921875 0.8125,0 1.265625,0.6875 1.359375,1.4375 0.015625,0.21875 0.015625,0.4375 0.015625,0.65625 0,0.640625 -0.078125,1.453125 -0.703125,1.8125 C 2.953125,-0.203125 2.734375,-0.15625 2.5,-0.15625 1.78125,-0.15625 1.265625,-0.71875 1.15625,-1.5 1.140625,-1.625 1.140625,-1.765625 1.109375,-1.890625 Z m 0,0"
               id="id-3dedb0ba-8cb0-4bd0-ba82-d2f70f723e17" />
          </g>
          <g
             transform="translate(209.498, 134.765)"
             id="g363">
            <path
               style="stroke:none"
               d="m 0.265625,-4.296875 v 0.3125 h 0.15625 c 0.328125,0 0.625,0.03125 0.625,0.5 v 2.75 c 0,0.40625 -0.28125,0.421875 -0.71875,0.421875 h -0.0625 v 0.296875 H 2.6875 V -0.3125 c -0.125,0 -0.265625,0 -0.390625,0 -0.3125,0 -0.578125,-0.046875 -0.578125,-0.421875 v -1.3125 c 0,-0.859375 0.1875,-2.140625 1.171875,-2.140625 0.046875,0 0.0625,0 0.109375,0.015625 -0.15625,0.0625 -0.234375,0.21875 -0.234375,0.390625 0,0.21875 0.15625,0.375 0.390625,0.421875 0.28125,0 0.46875,-0.171875 0.46875,-0.421875 0,-0.40625 -0.375,-0.625 -0.734375,-0.625 -0.59375,0 -1.109375,0.53125 -1.21875,1.0625 v -1.0625 z m 0,0"
               id="id-0fdaa83b-31ba-4a1d-902c-f0c24c31d267" />
          </g>
          <g
             transform="translate(213.399, 134.765)"
             id="g366">
            <path
               style="stroke:none"
               d="m 1.109375,-3.796875 c 0.25,-0.3125 0.6875,-0.453125 1.0625,-0.453125 0.734375,0 1.0625,0.671875 1.0625,1.375 v 0.265625 c -1.140625,0 -2.828125,0.359375 -2.828125,1.65625 V -0.875 c 0.078125,0.78125 1.046875,0.96875 1.625,0.96875 0.5,0 1.15625,-0.328125 1.28125,-0.84375 0.0625,0.4375 0.34375,0.796875 0.78125,0.796875 0.40625,0 0.765625,-0.328125 0.828125,-0.78125 v -0.71875 h -0.25 v 0.5 c 0,0.28125 -0.0625,0.6875 -0.359375,0.6875 -0.328125,0 -0.375,-0.390625 -0.375,-0.65625 V -2.59375 c 0,-0.125 0.015625,-0.25 0.015625,-0.375 0,-0.96875 -0.90625,-1.5 -1.734375,-1.5 -0.640625,0 -1.515625,0.3125 -1.515625,1.109375 0,0.28125 0.203125,0.484375 0.46875,0.484375 0.28125,0 0.4375,-0.21875 0.4375,-0.46875 0,-0.28125 -0.21875,-0.453125 -0.5,-0.453125 z m 2.125,1.390625 v 1.015625 c 0,0.6875 -0.46875,1.234375 -1.125,1.265625 H 2.078125 C 1.609375,-0.125 1.1875,-0.484375 1.1875,-0.96875 V -1.015625 C 1.25,-2.03125 2.375,-2.375 3.234375,-2.40625 Z m 0,0"
               id="id-9b9cc07d-6db5-42f6-a37d-6d81eccee93b" />
          </g>
          <g
             transform="translate(218.379, 134.765)"
             id="g369">
            <path
               style="stroke:none"
               d="M 1.75,-4.46875 C 1.390625,-4.421875 1,-4.359375 0.703125,-4.109375 c -0.234375,0.21875 -0.375,0.546875 -0.375,0.875 C 0.328125,-1.53125 3.09375,-2.5 3.09375,-1 3.09375,-0.40625 2.546875,-0.125 2,-0.125 1.25,-0.125 0.734375,-0.65625 0.59375,-1.515625 0.578125,-1.609375 0.5625,-1.6875 0.453125,-1.6875 c -0.078125,0 -0.125,0.046875 -0.125,0.125 V 0.015625 C 0.34375,0.0625 0.375,0.09375 0.421875,0.09375 H 0.4375 c 0.15625,0 0.3125,-0.359375 0.4375,-0.390625 h 0.015625 c 0.078125,0 0.34375,0.25 0.5625,0.3125 0.15625,0.0625 0.34375,0.078125 0.515625,0.078125 0.828125,0 1.625,-0.4375 1.625,-1.34375 0,-0.65625 -0.484375,-1.203125 -1.140625,-1.375 -0.625,-0.171875 -1.640625,-0.171875 -1.640625,-0.890625 0,-0.609375 0.671875,-0.765625 1.109375,-0.765625 0.484375,0 1.171875,0.28125 1.171875,1.125 0,0.09375 0,0.171875 0.109375,0.171875 0.109375,0 0.140625,-0.078125 0.140625,-0.171875 0,-0.046875 0,-0.109375 0,-0.140625 v -1.03125 c 0,-0.0625 -0.03125,-0.140625 -0.109375,-0.140625 -0.15625,0 -0.265625,0.25 -0.375,0.25 H 2.84375 c -0.078125,0 -0.234375,-0.125 -0.34375,-0.171875 -0.1875,-0.0625 -0.390625,-0.078125 -0.578125,-0.078125 -0.0625,0 -0.109375,0 -0.171875,0 z m 0,0"
               id="id-dd37158f-a698-43a3-a66c-78c83c2f8f6e" />
          </g>
        </g>
        <g
           style="fill:#000000;fill-opacity:1"
           id="id-00c24e34-2675-4e89-a300-31a85ebc060f">
          <g
             transform="translate(225.625, 134.765)"
             id="g373">
            <path
               style="stroke:none"
               d="m 3.15625,-7.484375 c -0.140625,0.0625 -0.3125,0.25 -0.4375,0.375 C 1.5,-5.875 1,-4.1875 1,-2.5 1,-0.703125 1.578125,1.21875 3.046875,2.40625 3.09375,2.4375 3.15625,2.484375 3.21875,2.484375 3.28125,2.484375 3.3125,2.421875 3.3125,2.375 3.3125,2.265625 3.046875,2.0625 2.9375,1.9375 1.90625,0.703125 1.578125,-0.921875 1.578125,-2.5 c 0,-1.640625 0.328125,-3.4375 1.578125,-4.671875 0.046875,-0.0625 0.15625,-0.140625 0.15625,-0.21875 0,-0.0625 -0.046875,-0.09375 -0.109375,-0.09375 -0.015625,0 -0.03125,0 -0.046875,0 z m 0,0"
               id="id-9f479f27-6b67-40dc-8300-260337623e62" />
          </g>
          <g
             transform="translate(229.499, 134.765)"
             id="g376">
            <path
               style="stroke:none"
               d="m 0.546875,-6.8125 -0.1875,2.234375 h 0.25 c 0.03125,-0.515625 0.0625,-1.21875 0.375,-1.5625 0.34375,-0.34375 0.90625,-0.375 1.375,-0.375 h 0.28125 c 0.25,0 0.515625,0 0.515625,0.34375 v 5.40625 C 3.15625,-0.375 2.75,-0.3125 2.390625,-0.3125 c -0.125,0 -0.25,0 -0.359375,0 H 1.703125 v 0.296875 h 3.78125 V -0.3125 H 4.8125 c -0.390625,0 -0.78125,-0.046875 -0.78125,-0.453125 v -5.40625 c 0,-0.28125 0.171875,-0.34375 0.546875,-0.34375 h 0.25 c 0.46875,0 1.03125,0.03125 1.375,0.375 0.3125,0.34375 0.34375,1.046875 0.375,1.5625 h 0.25 L 6.640625,-6.8125 Z m 0,0"
               id="id-bf1999bf-7d4f-4a9e-96cf-4f822799b7b8" />
          </g>
        </g>
        <g
           style="fill:#000000;fill-opacity:1"
           id="id-41607656-5543-4896-a87b-61edf091e256">
          <g
             transform="translate(235.865, 134.765)"
             id="g380">
            <path
               style="stroke:none"
               d="m 1.109375,-2.3125 h 2.875 c 0.109375,0 0.15625,-0.0625 0.15625,-0.1875 0,-1.046875 -0.640625,-1.96875 -1.765625,-1.96875 -1.21875,0 -2.09375,1.09375 -2.09375,2.28125 0,0.90625 0.5,1.734375 1.390625,2.125 0.21875,0.109375 0.484375,0.15625 0.734375,0.15625 H 2.4375 c 0.765625,0 1.40625,-0.421875 1.671875,-1.1875 C 4.125,-1.125 4.125,-1.171875 4.125,-1.203125 4.125,-1.265625 4.09375,-1.3125 4.015625,-1.3125 3.875,-1.3125 3.8125,-0.984375 3.75,-0.875 3.5,-0.4375 3.015625,-0.15625 2.5,-0.15625 c -0.359375,0 -0.6875,-0.203125 -0.953125,-0.46875 -0.40625,-0.46875 -0.4375,-1.109375 -0.4375,-1.6875 z M 1.125,-2.515625 C 1.125,-3.296875 1.53125,-4.25 2.359375,-4.25 H 2.40625 c 0.96875,0.09375 0.96875,1.125 1.0625,1.734375 z m 0,0"
               id="id-0b465deb-1d24-44ce-8ec7-255e5980738c" />
          </g>
          <g
             transform="translate(240.291, 134.765)"
             id="g383">
            <path
               style="stroke:none"
               d="m 2.34375,-4.46875 c -1.25,0.125 -2.0625,1.1875 -2.0625,2.34375 0,1.125 0.890625,2.21875 2.21875,2.21875 1.1875,0 2.1875,-0.96875 2.1875,-2.234375 0,-1.171875 -0.890625,-2.328125 -2.21875,-2.328125 -0.03125,0 -0.09375,0 -0.125,0 z m -1.234375,2.578125 v -0.4375 c 0,-0.765625 0.25,-1.921875 1.375,-1.921875 0.8125,0 1.265625,0.6875 1.359375,1.4375 0.015625,0.21875 0.015625,0.4375 0.015625,0.65625 0,0.640625 -0.078125,1.453125 -0.703125,1.8125 C 2.953125,-0.203125 2.734375,-0.15625 2.5,-0.15625 1.78125,-0.15625 1.265625,-0.71875 1.15625,-1.5 1.140625,-1.625 1.140625,-1.765625 1.109375,-1.890625 Z m 0,0"
               id="id-17b1fcf1-1620-48ca-9c58-befca8871eb6" />
          </g>
          <g
             transform="translate(245.271, 134.765)"
             id="g386">
            <path
               style="stroke:none"
               d="m 0.265625,-4.296875 v 0.3125 h 0.1875 c 0.296875,0 0.59375,0.03125 0.59375,0.421875 V 1.21875 C 1.046875,1.578125 0.78125,1.609375 0.5,1.609375 H 0.265625 v 0.3125 h 2.25 v -0.3125 H 2.28125 C 1.984375,1.609375 1.75,1.578125 1.75,1.21875 v -1.734375 c 0.234375,0.421875 0.796875,0.609375 1.21875,0.609375 1.234375,0 2.21875,-1.046875 2.21875,-2.25 0,-1.203125 -0.921875,-2.25 -2.09375,-2.25 -0.546875,0 -1.015625,0.234375 -1.375,0.640625 V -4.40625 Z m 4.078125,2.3125 C 4.296875,-1.25 3.90625,-0.203125 3,-0.125 H 2.9375 C 2.515625,-0.125 2.125,-0.359375 1.890625,-0.71875 1.796875,-0.828125 1.75,-0.921875 1.75,-1.0625 V -2.734375 C 1.75,-2.875 1.734375,-3 1.734375,-3.125 1.734375,-3.65625 2.40625,-4.15625 3,-4.15625 c 1,0 1.359375,1.3125 1.359375,2.015625 0,0.046875 0,0.109375 -0.015625,0.15625 z m 0,0"
               id="id-320eec1f-e74f-48b7-916b-fe3ca630a4fc" />
          </g>
          <g
             transform="translate(250.805, 134.765)"
             id="g389">
            <path
               style="stroke:none"
               d="m 1.109375,-2.3125 h 2.875 c 0.109375,0 0.15625,-0.0625 0.15625,-0.1875 0,-1.046875 -0.640625,-1.96875 -1.765625,-1.96875 -1.21875,0 -2.09375,1.09375 -2.09375,2.28125 0,0.90625 0.5,1.734375 1.390625,2.125 0.21875,0.109375 0.484375,0.15625 0.734375,0.15625 H 2.4375 c 0.765625,0 1.40625,-0.421875 1.671875,-1.1875 C 4.125,-1.125 4.125,-1.171875 4.125,-1.203125 4.125,-1.265625 4.09375,-1.3125 4.015625,-1.3125 3.875,-1.3125 3.8125,-0.984375 3.75,-0.875 3.5,-0.4375 3.015625,-0.15625 2.5,-0.15625 c -0.359375,0 -0.6875,-0.203125 -0.953125,-0.46875 -0.40625,-0.46875 -0.4375,-1.109375 -0.4375,-1.6875 z M 1.125,-2.515625 C 1.125,-3.296875 1.53125,-4.25 2.359375,-4.25 H 2.40625 c 0.96875,0.09375 0.96875,1.125 1.0625,1.734375 z m 0,0"
               id="id-6ce77e86-2096-4877-b025-fa8b478d3ebc" />
          </g>
          <g
             transform="translate(255.231, 134.765)"
             id="g392">
            <path
               style="stroke:none"
               d="m 0.296875,-4.296875 v 0.21875 h 0.21875 c 0.296875,0 0.5625,0.046875 0.5625,0.421875 v 2.625 c 0,0.625 -0.34375,0.796875 -0.78125,0.796875 v 0.21875 h 1.84375 v -0.21875 C 1.734375,-0.234375 1.359375,-0.375 1.359375,-1 v -2.953125 c 0.03125,0.125 0.109375,0.25 0.171875,0.390625 0.453125,1.125 0.90625,2.25 1.421875,3.359375 0.03125,0.078125 0.078125,0.1875 0.171875,0.1875 H 3.140625 C 3.25,-0.03125 3.296875,-0.15625 3.328125,-0.25 L 3.625,-0.96875 C 4,-1.859375 4.375,-2.75 4.765625,-3.640625 4.828125,-3.78125 4.890625,-3.921875 4.9375,-4.0625 v 3.421875 c 0,0.40625 -0.328125,0.40625 -0.703125,0.40625 h -0.0625 v 0.21875 H 6.34375 v -0.21875 H 6.109375 c -0.28125,0 -0.546875,-0.03125 -0.546875,-0.4375 V -3.625 c 0,-0.421875 0.265625,-0.453125 0.78125,-0.453125 v -0.21875 H 5.046875 c -0.21875,0 -0.265625,0.125 -0.328125,0.296875 -0.09375,0.234375 -0.1875,0.453125 -0.28125,0.6875 l -0.75,1.75 C 3.5625,-1.28125 3.484375,-1 3.34375,-0.75 2.90625,-1.828125 2.40625,-2.90625 1.96875,-4 1.890625,-4.140625 1.890625,-4.296875 1.640625,-4.296875 Z m 0,0"
               id="id-51092a13-7fe2-4cfd-a00f-3999b627b2ff" />
          </g>
          <g
             transform="translate(261.871, 134.765)"
             id="g395">
            <path
               style="stroke:none"
               d="m 1.109375,-3.796875 c 0.25,-0.3125 0.6875,-0.453125 1.0625,-0.453125 0.734375,0 1.0625,0.671875 1.0625,1.375 v 0.265625 c -1.140625,0 -2.828125,0.359375 -2.828125,1.65625 V -0.875 c 0.078125,0.78125 1.046875,0.96875 1.625,0.96875 0.5,0 1.15625,-0.328125 1.28125,-0.84375 0.0625,0.4375 0.34375,0.796875 0.78125,0.796875 0.40625,0 0.765625,-0.328125 0.828125,-0.78125 v -0.71875 h -0.25 v 0.5 c 0,0.28125 -0.0625,0.6875 -0.359375,0.6875 -0.328125,0 -0.375,-0.390625 -0.375,-0.65625 V -2.59375 c 0,-0.125 0.015625,-0.25 0.015625,-0.375 0,-0.96875 -0.90625,-1.5 -1.734375,-1.5 -0.640625,0 -1.515625,0.3125 -1.515625,1.109375 0,0.28125 0.203125,0.484375 0.46875,0.484375 0.28125,0 0.4375,-0.21875 0.4375,-0.46875 0,-0.28125 -0.21875,-0.453125 -0.5,-0.453125 z m 2.125,1.390625 v 1.015625 c 0,0.6875 -0.46875,1.234375 -1.125,1.265625 H 2.078125 C 1.609375,-0.125 1.1875,-0.484375 1.1875,-0.96875 V -1.015625 C 1.25,-2.03125 2.375,-2.375 3.234375,-2.40625 Z m 0,0"
               id="id-eb8eff13-db99-487a-8fc9-7a67261123b9" />
          </g>
        </g>
        <g
           style="fill:#000000;fill-opacity:1"
           id="id-45a58dec-f3d3-4309-b992-c6178f325f49">
          <g
             transform="translate(270.169, 134.765)"
             id="g399">
            <path
               style="stroke:none"
               d="m 0.328125,-6.8125 v 0.296875 c 0.125,0 0.265625,0 0.375,0 0.359375,0 0.65625,0.046875 0.65625,0.4375 V -0.75 c 0,0.375 -0.328125,0.4375 -0.671875,0.4375 -0.125,0 -0.25,0 -0.359375,0 v 0.296875 h 2.9375 V -0.3125 c -0.109375,0 -0.25,0 -0.359375,0 C 2.546875,-0.3125 2.25,-0.359375 2.25,-0.75 v -5.234375 c 0,-0.0625 -0.015625,-0.125 -0.015625,-0.1875 0,-0.296875 0.1875,-0.34375 0.53125,-0.34375 H 5.15625 C 5.34375,-6.484375 5.5,-6.453125 5.5,-6.171875 V -0.75 c 0,0.390625 -0.34375,0.4375 -0.71875,0.4375 h -0.3125 v 0.296875 H 7.421875 V -0.3125 c -0.125,0 -0.25,0 -0.375,0 -0.34375,0 -0.65625,-0.046875 -0.65625,-0.4375 v -5.328125 c 0,-0.375 0.3125,-0.4375 0.65625,-0.4375 0.125,0 0.265625,0 0.375,0 V -6.8125 Z m 0,0"
               id="id-583ea0af-f656-47ab-9fe5-7978673c4923" />
          </g>
          <g
             transform="translate(277.916, 134.765)"
             id="g402">
            <path
               style="stroke:none"
               d="m 0.25,-4.296875 v 0.21875 h 0.234375 c 0.28125,0 0.546875,0.046875 0.546875,0.453125 v 2.953125 c 0,0.421875 -0.28125,0.4375 -0.78125,0.4375 v 0.21875 H 2.5 v -0.21875 H 2.328125 C 2.03125,-0.234375 1.71875,-0.265625 1.71875,-0.625 1.734375,-0.71875 1.828125,-0.78125 1.875,-0.859375 L 2.265625,-1.34375 C 2.78125,-1.96875 3.25,-2.65625 3.796875,-3.25 v 2.578125 c 0,0.34375 -0.140625,0.4375 -0.78125,0.4375 v 0.21875 H 5.28125 v -0.21875 H 5.046875 C 4.765625,-0.234375 4.5,-0.265625 4.5,-0.671875 V -3.625 c 0,-0.421875 0.25,-0.453125 0.78125,-0.453125 v -0.21875 H 3.015625 v 0.21875 h 0.1875 c 0.28125,0 0.59375,0.03125 0.59375,0.40625 -0.015625,0.078125 -0.09375,0.15625 -0.140625,0.21875 l -0.390625,0.5 c -0.53125,0.625 -1,1.296875 -1.546875,1.890625 v -2.578125 c 0,-0.34375 0.140625,-0.4375 0.78125,-0.4375 v -0.21875 z m 0,0"
               id="id-c7b3dcf4-cc6d-4088-8a38-fcf4e9a48cd2" />
          </g>
          <g
             transform="translate(283.449, 134.765)"
             id="g405">
            <path
               style="stroke:none"
               d="m 2.765625,-6.8125 v 0.296875 H 2.9375 c 0.328125,0 0.59375,0.046875 0.59375,0.59375 v 2 C 3.3125,-4.25 2.90625,-4.40625 2.515625,-4.40625 c -1.203125,0 -2.171875,1.0625 -2.171875,2.25 0,1.203125 0.984375,2.25 2.234375,2.25 0.40625,0 0.703125,-0.171875 0.953125,-0.46875 v 1.359375 c 0,0.0625 0.015625,0.140625 0.015625,0.21875 0,0.40625 -0.296875,0.40625 -0.71875,0.40625 h -0.0625 v 0.3125 h 2.21875 v -0.3125 H 4.75 c -0.296875,0 -0.546875,-0.03125 -0.546875,-0.40625 0,-0.078125 0,-0.15625 0,-0.21875 V -0.375 c 0.265625,0.296875 0.5625,0.46875 0.953125,0.46875 1.234375,0 2.25,-1.015625 2.25,-2.25 0,-1.125 -0.90625,-2.25 -2.1875,-2.25 -0.375,0 -0.796875,0.15625 -1,0.484375 l -0.015625,-3 z M 6.5625,-1.984375 C 6.5,-1.1875 6.0625,-0.125 5.109375,-0.125 c -0.40625,0 -0.90625,-0.421875 -0.90625,-0.859375 V -3.4375 c 0.078125,-0.4375 0.59375,-0.71875 0.9375,-0.71875 1.015625,0 1.4375,1.25 1.4375,2.015625 0,0.046875 0,0.109375 -0.015625,0.15625 z M 1.171875,-2 v -0.109375 c 0,-0.8125 0.421875,-2.046875 1.4375,-2.046875 0.40625,0 0.875,0.359375 0.921875,0.71875 v 2.453125 C 3.53125,-0.515625 3.015625,-0.125 2.625,-0.125 1.6875,-0.125 1.25,-1.171875 1.171875,-2 Z m 0,0"
               id="id-7e4a1fbb-7549-4fbe-9775-cf12623d04d6" />
          </g>
          <g
             transform="translate(291.196, 134.765)"
             id="g408">
            <path
               style="stroke:none"
               d="m 1.109375,-3.796875 c 0.25,-0.3125 0.6875,-0.453125 1.0625,-0.453125 0.734375,0 1.0625,0.671875 1.0625,1.375 v 0.265625 c -1.140625,0 -2.828125,0.359375 -2.828125,1.65625 V -0.875 c 0.078125,0.78125 1.046875,0.96875 1.625,0.96875 0.5,0 1.15625,-0.328125 1.28125,-0.84375 0.0625,0.4375 0.34375,0.796875 0.78125,0.796875 0.40625,0 0.765625,-0.328125 0.828125,-0.78125 v -0.71875 h -0.25 v 0.5 c 0,0.28125 -0.0625,0.6875 -0.359375,0.6875 -0.328125,0 -0.375,-0.390625 -0.375,-0.65625 V -2.59375 c 0,-0.125 0.015625,-0.25 0.015625,-0.375 0,-0.96875 -0.90625,-1.5 -1.734375,-1.5 -0.640625,0 -1.515625,0.3125 -1.515625,1.109375 0,0.28125 0.203125,0.484375 0.46875,0.484375 0.28125,0 0.4375,-0.21875 0.4375,-0.46875 0,-0.28125 -0.21875,-0.453125 -0.5,-0.453125 z m 2.125,1.390625 v 1.015625 c 0,0.6875 -0.46875,1.234375 -1.125,1.265625 H 2.078125 C 1.609375,-0.125 1.1875,-0.484375 1.1875,-0.96875 V -1.015625 C 1.25,-2.03125 2.375,-2.375 3.234375,-2.40625 Z m 0,0"
               id="id-5483c3f8-644d-44a0-82e1-2a0e52b7979d" />
          </g>
          <g
             transform="translate(296.176, 134.765)"
             id="g411">
            <path
               style="stroke:none"
               d="m 0.25,-4.296875 v 0.21875 h 0.234375 c 0.28125,0 0.546875,0.046875 0.546875,0.453125 v 2.953125 c 0,0.421875 -0.28125,0.4375 -0.78125,0.4375 v 0.21875 h 2.4375 v -0.21875 H 2.390625 c -0.359375,0 -0.671875,-0.03125 -0.671875,-0.46875 V -3.71875 c 0,-0.203125 0.078125,-0.359375 0.3125,-0.359375 h 0.625 c 0.671875,0 1.203125,0.046875 1.265625,1.390625 h 0.25 L 4.0625,-4.296875 Z m 0,0"
               id="id-b8e73a66-5095-433d-9bce-2cc499ced43a" />
          </g>
          <g
             transform="translate(300.603, 134.765)"
             id="g414">
            <path
               style="stroke:none"
               d="m 2.34375,-4.46875 c -1.25,0.125 -2.0625,1.1875 -2.0625,2.34375 0,1.125 0.890625,2.21875 2.21875,2.21875 1.1875,0 2.1875,-0.96875 2.1875,-2.234375 0,-1.171875 -0.890625,-2.328125 -2.21875,-2.328125 -0.03125,0 -0.09375,0 -0.125,0 z m -1.234375,2.578125 v -0.4375 c 0,-0.765625 0.25,-1.921875 1.375,-1.921875 0.8125,0 1.265625,0.6875 1.359375,1.4375 0.015625,0.21875 0.015625,0.4375 0.015625,0.65625 0,0.640625 -0.078125,1.453125 -0.703125,1.8125 C 2.953125,-0.203125 2.734375,-0.15625 2.5,-0.15625 1.78125,-0.15625 1.265625,-0.71875 1.15625,-1.5 1.140625,-1.625 1.140625,-1.765625 1.109375,-1.890625 Z m 0,0"
               id="id-4b3d0914-388c-49d4-8e95-604f8d70b445" />
          </g>
          <g
             transform="translate(305.583, 134.765)"
             id="g417">
            <path
               style="stroke:none"
               d="m 0.265625,-4.296875 v 0.3125 h 0.1875 c 0.296875,0 0.59375,0.03125 0.59375,0.421875 V 1.21875 C 1.046875,1.578125 0.78125,1.609375 0.5,1.609375 H 0.265625 v 0.3125 h 2.25 v -0.3125 H 2.28125 C 1.984375,1.609375 1.75,1.578125 1.75,1.21875 v -1.734375 c 0.234375,0.421875 0.796875,0.609375 1.21875,0.609375 1.234375,0 2.21875,-1.046875 2.21875,-2.25 0,-1.203125 -0.921875,-2.25 -2.09375,-2.25 -0.546875,0 -1.015625,0.234375 -1.375,0.640625 V -4.40625 Z m 4.078125,2.3125 C 4.296875,-1.25 3.90625,-0.203125 3,-0.125 H 2.9375 C 2.515625,-0.125 2.125,-0.359375 1.890625,-0.71875 1.796875,-0.828125 1.75,-0.921875 1.75,-1.0625 V -2.734375 C 1.75,-2.875 1.734375,-3 1.734375,-3.125 1.734375,-3.65625 2.40625,-4.15625 3,-4.15625 c 1,0 1.359375,1.3125 1.359375,2.015625 0,0.046875 0,0.109375 -0.015625,0.15625 z m 0,0"
               id="id-60b11a8b-8307-4d3f-9642-854620e40708" />
          </g>
          <g
             transform="translate(311.116, 134.765)"
             id="g420">
            <path
               style="stroke:none"
               d="m 1.109375,-3.796875 c 0.25,-0.3125 0.6875,-0.453125 1.0625,-0.453125 0.734375,0 1.0625,0.671875 1.0625,1.375 v 0.265625 c -1.140625,0 -2.828125,0.359375 -2.828125,1.65625 V -0.875 c 0.078125,0.78125 1.046875,0.96875 1.625,0.96875 0.5,0 1.15625,-0.328125 1.28125,-0.84375 0.0625,0.4375 0.34375,0.796875 0.78125,0.796875 0.40625,0 0.765625,-0.328125 0.828125,-0.78125 v -0.71875 h -0.25 v 0.5 c 0,0.28125 -0.0625,0.6875 -0.359375,0.6875 -0.328125,0 -0.375,-0.390625 -0.375,-0.65625 V -2.59375 c 0,-0.125 0.015625,-0.25 0.015625,-0.375 0,-0.96875 -0.90625,-1.5 -1.734375,-1.5 -0.640625,0 -1.515625,0.3125 -1.515625,1.109375 0,0.28125 0.203125,0.484375 0.46875,0.484375 0.28125,0 0.4375,-0.21875 0.4375,-0.46875 0,-0.28125 -0.21875,-0.453125 -0.5,-0.453125 z m 2.125,1.390625 v 1.015625 c 0,0.6875 -0.46875,1.234375 -1.125,1.265625 H 2.078125 C 1.609375,-0.125 1.1875,-0.484375 1.1875,-0.96875 V -1.015625 C 1.25,-2.03125 2.375,-2.375 3.234375,-2.40625 Z m 0,0"
               id="id-9cb22538-9243-4a88-aead-f5bfc1a0ffab" />
          </g>
          <g
             transform="translate(316.097, 134.765)"
             id="g423">
            <path
               style="stroke:none"
               d="m 0.625,-7.484375 c -0.046875,0.03125 -0.0625,0.0625 -0.0625,0.09375 0,0.109375 0.21875,0.28125 0.328125,0.40625 C 1.96875,-5.75 2.28125,-4.0625 2.28125,-2.5 2.28125,-0.890625 1.953125,0.9375 0.75,2.140625 0.6875,2.203125 0.5625,2.296875 0.5625,2.375 c 0,0.0625 0.046875,0.109375 0.109375,0.109375 C 0.796875,2.46875 1,2.25 1.109375,2.140625 2.375,0.875 2.875,-0.8125 2.875,-2.515625 2.875,-4.34375 2.265625,-6.171875 0.8125,-7.40625 0.765625,-7.4375 0.71875,-7.484375 0.65625,-7.484375 c -0.015625,0 -0.015625,0 -0.03125,0 z m 0,0"
               id="id-5bbd91c8-ed67-41f2-a4c4-bd2d314ecaf4" />
          </g>
          <g
             transform="translate(319.97, 134.765)"
             id="g426">
            <path
               style="stroke:none"
               d="m 1.3125,-4.28125 c -0.25,0.03125 -0.453125,0.25 -0.453125,0.5 0,0.25 0.203125,0.546875 0.5,0.546875 0.28125,0 0.546875,-0.21875 0.546875,-0.53125 0,-0.25 -0.1875,-0.53125 -0.515625,-0.53125 -0.03125,0 -0.0625,0.015625 -0.078125,0.015625 z m 0,3.21875 c -0.25,0.03125 -0.453125,0.265625 -0.453125,0.515625 0,0.25 0.203125,0.53125 0.5,0.53125 0.28125,0 0.546875,-0.203125 0.546875,-0.515625 0,-0.25 -0.1875,-0.53125 -0.515625,-0.53125 -0.03125,0 -0.0625,0 -0.078125,0 z m 0,0"
               id="id-52dfd530-faf2-4196-ae1f-ef06f06ffceb" />
          </g>
        </g>
        <g
           style="fill:#000000;fill-opacity:1"
           id="id-bce7d698-ce37-4390-938e-1b029bc4cb4d">
          <g
             transform="translate(279.263, 156.682)"
             id="g430">
            <path
               style="stroke:none"
               d="M 3.71875,-3.765625 C 3.53125,-4.140625 3.25,-4.40625 2.796875,-4.40625 c -1.15625,0 -2.390625,1.46875 -2.390625,2.921875 0,0.9375 0.546875,1.59375 1.3125,1.59375 0.203125,0 0.703125,-0.046875 1.296875,-0.75 0.078125,0.421875 0.4375,0.75 0.90625,0.75 0.359375,0 0.578125,-0.234375 0.75,-0.546875 0.15625,-0.359375 0.296875,-0.96875 0.296875,-0.984375 0,-0.109375 -0.09375,-0.109375 -0.125,-0.109375 -0.09375,0 -0.109375,0.046875 -0.140625,0.1875 -0.171875,0.640625 -0.34375,1.234375 -0.75,1.234375 -0.28125,0 -0.296875,-0.265625 -0.296875,-0.453125 0,-0.21875 0.015625,-0.3125 0.125,-0.75 C 3.890625,-1.71875 3.90625,-1.828125 4,-2.203125 L 4.359375,-3.59375 c 0.0625,-0.28125 0.0625,-0.296875 0.0625,-0.34375 0,-0.171875 -0.109375,-0.265625 -0.28125,-0.265625 -0.25,0 -0.390625,0.21875 -0.421875,0.4375 z M 3.078125,-1.1875 C 3.015625,-1 3.015625,-0.984375 2.875,-0.8125 2.4375,-0.265625 2.03125,-0.109375 1.75,-0.109375 c -0.5,0 -0.640625,-0.546875 -0.640625,-0.9375 0,-0.5 0.3125,-1.71875 0.546875,-2.1875 0.3125,-0.578125 0.75,-0.953125 1.15625,-0.953125 0.640625,0 0.78125,0.8125 0.78125,0.875 0,0.0625 -0.015625,0.125 -0.03125,0.171875 z m 0,0"
               id="id-f19e0fe6-bc6a-49f7-afa9-d4ada1781da2" />
          </g>
        </g>
        <g
           style="fill:#000000;fill-opacity:1"
           id="id-5ea2fba5-d0f0-4a65-812a-544e33450762">
          <g
             transform="translate(284.529, 152.569)"
             id="g434">
            <path
               style="stroke:none"
               d="M 3.515625,-1.265625 H 3.28125 c -0.015625,0.15625 -0.09375,0.5625 -0.1875,0.625 C 3.046875,-0.59375 2.515625,-0.59375 2.40625,-0.59375 H 1.125 c 0.734375,-0.640625 0.984375,-0.84375 1.390625,-1.171875 0.515625,-0.40625 1,-0.84375 1,-1.5 0,-0.84375 -0.734375,-1.359375 -1.625,-1.359375 -0.859375,0 -1.453125,0.609375 -1.453125,1.25 0,0.34375 0.296875,0.390625 0.375,0.390625 0.15625,0 0.359375,-0.125 0.359375,-0.375 0,-0.125 -0.046875,-0.375 -0.40625,-0.375 C 0.984375,-4.21875 1.453125,-4.375 1.78125,-4.375 c 0.703125,0 1.0625,0.546875 1.0625,1.109375 0,0.609375 -0.4375,1.078125 -0.65625,1.328125 L 0.515625,-0.265625 C 0.4375,-0.203125 0.4375,-0.1875 0.4375,0 h 2.875 z m 0,0"
               id="id-cf663645-75d9-42b7-9d4b-fbf30f7eb27f" />
          </g>
        </g>
        <g
           style="fill:#000000;fill-opacity:1"
           id="id-7eaada84-29b2-4722-85a9-8c9f86ede16d">
          <g
             transform="translate(291.213, 156.682)"
             id="g438">
            <path
               style="stroke:none"
               d="m 4.078125,-2.296875 h 2.78125 C 7,-2.296875 7.1875,-2.296875 7.1875,-2.5 7.1875,-2.6875 7,-2.6875 6.859375,-2.6875 h -2.78125 v -2.796875 c 0,-0.140625 0,-0.328125 -0.203125,-0.328125 -0.203125,0 -0.203125,0.1875 -0.203125,0.328125 V -2.6875 h -2.78125 c -0.140625,0 -0.328125,0 -0.328125,0.1875 0,0.203125 0.1875,0.203125 0.328125,0.203125 h 2.78125 V 0.5 c 0,0.140625 0,0.328125 0.203125,0.328125 0.203125,0 0.203125,-0.1875 0.203125,-0.328125 z m 0,0"
               id="id-ec3c6070-a3f6-4e53-8dc6-28e83116c5b2" />
          </g>
        </g>
        <g
           style="fill:#000000;fill-opacity:1"
           id="id-45a4d5a7-39fd-489a-9861-c50ed12174a9">
          <g
             transform="translate(301.175, 156.682)"
             id="g442">
            <path
               style="stroke:none"
               d="m 2.375,-6.8125 c 0,0 0,-0.109375 -0.125,-0.109375 -0.21875,0 -0.953125,0.078125 -1.21875,0.109375 -0.078125,0 -0.1875,0.015625 -0.1875,0.1875 0,0.125 0.09375,0.125 0.25,0.125 0.46875,0 0.484375,0.0625 0.484375,0.171875 0,0.0625 -0.078125,0.40625 -0.125,0.609375 l -0.828125,3.25 c -0.109375,0.5 -0.15625,0.671875 -0.15625,1.015625 0,0.9375 0.53125,1.5625 1.265625,1.5625 1.171875,0 2.40625,-1.484375 2.40625,-2.921875 0,-0.90625 -0.53125,-1.59375 -1.328125,-1.59375 -0.453125,0 -0.875,0.296875 -1.171875,0.59375 z M 1.453125,-3.046875 C 1.5,-3.265625 1.5,-3.28125 1.59375,-3.390625 2.078125,-4.03125 2.53125,-4.1875 2.796875,-4.1875 c 0.359375,0 0.625,0.296875 0.625,0.9375 0,0.59375 -0.328125,1.734375 -0.515625,2.109375 -0.328125,0.671875 -0.78125,1.03125 -1.171875,1.03125 -0.34375,0 -0.671875,-0.265625 -0.671875,-1 0,-0.203125 0,-0.390625 0.15625,-1.015625 z m 0,0"
               id="id-d7469766-433d-4d9c-88a1-44395c31ffa2" />
          </g>
        </g>
        <g
           style="fill:#000000;fill-opacity:1"
           id="id-938805f0-3d02-4b57-b48a-b09427f739f8">
          <g
             transform="translate(305.451, 152.569)"
             id="g446">
            <path
               style="stroke:none"
               d="M 3.515625,-1.265625 H 3.28125 c -0.015625,0.15625 -0.09375,0.5625 -0.1875,0.625 C 3.046875,-0.59375 2.515625,-0.59375 2.40625,-0.59375 H 1.125 c 0.734375,-0.640625 0.984375,-0.84375 1.390625,-1.171875 0.515625,-0.40625 1,-0.84375 1,-1.5 0,-0.84375 -0.734375,-1.359375 -1.625,-1.359375 -0.859375,0 -1.453125,0.609375 -1.453125,1.25 0,0.34375 0.296875,0.390625 0.375,0.390625 0.15625,0 0.359375,-0.125 0.359375,-0.375 0,-0.125 -0.046875,-0.375 -0.40625,-0.375 C 0.984375,-4.21875 1.453125,-4.375 1.78125,-4.375 c 0.703125,0 1.0625,0.546875 1.0625,1.109375 0,0.609375 -0.4375,1.078125 -0.65625,1.328125 L 0.515625,-0.265625 C 0.4375,-0.203125 0.4375,-0.1875 0.4375,0 h 2.875 z m 0,0"
               id="id-5f20c0ae-c028-4d14-ba71-cadcc5e6597c" />
          </g>
        </g>
        <g
           style="fill:#000000;fill-opacity:1"
           id="id-40752cca-4999-4fdb-b386-38c942739c13">
          <g
             transform="translate(312.688, 156.682)"
             id="g450">
            <path
               style="stroke:none"
               d="m 6.84375,-3.265625 c 0.15625,0 0.34375,0 0.34375,-0.1875 C 7.1875,-3.65625 7,-3.65625 6.859375,-3.65625 h -5.96875 c -0.140625,0 -0.328125,0 -0.328125,0.203125 0,0.1875 0.1875,0.1875 0.328125,0.1875 z m 0.015625,1.9375 c 0.140625,0 0.328125,0 0.328125,-0.203125 0,-0.1875 -0.1875,-0.1875 -0.34375,-0.1875 H 0.890625 c -0.140625,0 -0.328125,0 -0.328125,0.1875 0,0.203125 0.1875,0.203125 0.328125,0.203125 z m 0,0"
               id="id-77abb157-512e-485c-a447-c9d01767954b" />
          </g>
        </g>
        <g
           style="fill:#000000;fill-opacity:1"
           id="id-8414b535-1861-4a47-b60a-a01185c9c1d6">
          <g
             transform="translate(323.204, 156.682)"
             id="g454">
            <path
               style="stroke:none"
               d="m 3.953125,-3.78125 c -0.171875,0 -0.296875,0 -0.4375,0.125 -0.171875,0.15625 -0.1875,0.328125 -0.1875,0.390625 0,0.25 0.1875,0.359375 0.375,0.359375 0.28125,0 0.546875,-0.25 0.546875,-0.640625 0,-0.484375 -0.46875,-0.859375 -1.171875,-0.859375 -1.34375,0 -2.671875,1.421875 -2.671875,2.828125 0,0.90625 0.578125,1.6875 1.625,1.6875 1.421875,0 2.25,-1.0625 2.25,-1.171875 0,-0.0625 -0.046875,-0.140625 -0.109375,-0.140625 -0.0625,0 -0.078125,0.03125 -0.140625,0.109375 -0.78125,0.984375 -1.875,0.984375 -1.984375,0.984375 -0.625,0 -0.90625,-0.484375 -0.90625,-1.09375 0,-0.40625 0.203125,-1.375 0.546875,-1.984375 0.3125,-0.578125 0.859375,-1 1.40625,-1 0.328125,0 0.71875,0.125 0.859375,0.40625 z m 0,0"
               id="id-38d0dbee-ef41-4de9-a5d1-51d011203566" />
          </g>
        </g>
        <g
           style="fill:#000000;fill-opacity:1"
           id="id-82efd8fb-dddf-45a4-ac05-1caeb108c158">
          <g
             transform="translate(327.515, 152.569)"
             id="g458">
            <path
               style="stroke:none"
               d="M 3.515625,-1.265625 H 3.28125 c -0.015625,0.15625 -0.09375,0.5625 -0.1875,0.625 C 3.046875,-0.59375 2.515625,-0.59375 2.40625,-0.59375 H 1.125 c 0.734375,-0.640625 0.984375,-0.84375 1.390625,-1.171875 0.515625,-0.40625 1,-0.84375 1,-1.5 0,-0.84375 -0.734375,-1.359375 -1.625,-1.359375 -0.859375,0 -1.453125,0.609375 -1.453125,1.25 0,0.34375 0.296875,0.390625 0.375,0.390625 0.15625,0 0.359375,-0.125 0.359375,-0.375 0,-0.125 -0.046875,-0.375 -0.40625,-0.375 C 0.984375,-4.21875 1.453125,-4.375 1.78125,-4.375 c 0.703125,0 1.0625,0.546875 1.0625,1.109375 0,0.609375 -0.4375,1.078125 -0.65625,1.328125 L 0.515625,-0.265625 C 0.4375,-0.203125 0.4375,-0.1875 0.4375,0 h 2.875 z m 0,0"
               id="id-943ce213-a1cb-4efc-893d-f2add8e44a53" />
          </g>
        </g>
        <g
           style="fill:#000000;fill-opacity:1"
           id="id-4260f772-89a9-451b-9636-8f0225181e1e">
          <g
             transform="translate(133.768, 178.6)"
             id="g462">
            <path
               style="stroke:none"
               d="m 1.453125,-6.5625 c -0.25,0.015625 -0.46875,0.25 -0.46875,0.515625 0,0.28125 0.25,0.53125 0.53125,0.53125 0.28125,0 0.53125,-0.234375 0.53125,-0.53125 0,-0.265625 -0.1875,-0.53125 -0.515625,-0.53125 -0.03125,0 -0.0625,0.015625 -0.078125,0.015625 z m 1.921875,0 c -0.25,0.015625 -0.4375,0.25 -0.4375,0.515625 0,0.25 0.1875,0.53125 0.484375,0.53125 0.3125,0 0.5625,-0.234375 0.5625,-0.53125 0,-0.296875 -0.25,-0.53125 -0.53125,-0.53125 -0.03125,0 -0.046875,0.015625 -0.078125,0.015625 z m 0,0"
               id="id-1573c9c2-ad4a-4989-b09d-9313bbf7207a" />
          </g>
        </g>
        <g
           style="fill:#000000;fill-opacity:1"
           id="id-c95c8ea3-69be-4678-825c-07fe1a24980a">
          <g
             transform="translate(133.767, 178.6)"
             id="g466">
            <path
               style="stroke:none"
               d="m 1.109375,-3.796875 c 0.25,-0.3125 0.6875,-0.453125 1.0625,-0.453125 0.734375,0 1.0625,0.671875 1.0625,1.375 v 0.265625 c -1.140625,0 -2.828125,0.359375 -2.828125,1.65625 V -0.875 c 0.078125,0.78125 1.046875,0.96875 1.625,0.96875 0.5,0 1.15625,-0.328125 1.28125,-0.84375 0.0625,0.4375 0.34375,0.796875 0.78125,0.796875 0.40625,0 0.765625,-0.328125 0.828125,-0.78125 v -0.71875 h -0.25 v 0.5 c 0,0.28125 -0.0625,0.6875 -0.359375,0.6875 -0.328125,0 -0.375,-0.390625 -0.375,-0.65625 V -2.59375 c 0,-0.125 0.015625,-0.25 0.015625,-0.375 0,-0.96875 -0.90625,-1.5 -1.734375,-1.5 -0.640625,0 -1.515625,0.3125 -1.515625,1.109375 0,0.28125 0.203125,0.484375 0.46875,0.484375 0.28125,0 0.4375,-0.21875 0.4375,-0.46875 0,-0.28125 -0.21875,-0.453125 -0.5,-0.453125 z m 2.125,1.390625 v 1.015625 c 0,0.6875 -0.46875,1.234375 -1.125,1.265625 H 2.078125 C 1.609375,-0.125 1.1875,-0.484375 1.1875,-0.96875 V -1.015625 C 1.25,-2.03125 2.375,-2.375 3.234375,-2.40625 Z m 0,0"
               id="id-6d8a06e7-4d71-48a9-b151-aca84c37d177" />
          </g>
          <g
             transform="translate(138.747, 178.6)"
             id="g469">
            <path
               style="stroke:none"
               d="m 1.453125,-6.5625 c -0.25,0.015625 -0.46875,0.25 -0.46875,0.515625 0,0.28125 0.25,0.53125 0.53125,0.53125 0.28125,0 0.53125,-0.234375 0.53125,-0.53125 0,-0.265625 -0.1875,-0.53125 -0.515625,-0.53125 -0.03125,0 -0.0625,0.015625 -0.078125,0.015625 z m 1.921875,0 c -0.25,0.015625 -0.4375,0.25 -0.4375,0.515625 0,0.25 0.1875,0.53125 0.484375,0.53125 0.3125,0 0.5625,-0.234375 0.5625,-0.53125 0,-0.296875 -0.25,-0.53125 -0.53125,-0.53125 -0.03125,0 -0.046875,0.015625 -0.078125,0.015625 z m 0,0"
               id="id-6b81aa2e-2cf6-41ca-a260-c6dcae5acc79" />
          </g>
        </g>
        <g
           style="fill:#000000;fill-opacity:1"
           id="id-34c4c813-ffbf-4470-a9eb-5ebc127185e0">
          <g
             transform="translate(138.746, 178.6)"
             id="g473">
            <path
               style="stroke:none"
               d="m 2.34375,-4.46875 c -1.25,0.125 -2.0625,1.1875 -2.0625,2.34375 0,1.125 0.890625,2.21875 2.21875,2.21875 1.1875,0 2.1875,-0.96875 2.1875,-2.234375 0,-1.171875 -0.890625,-2.328125 -2.21875,-2.328125 -0.03125,0 -0.09375,0 -0.125,0 z m -1.234375,2.578125 v -0.4375 c 0,-0.765625 0.25,-1.921875 1.375,-1.921875 0.8125,0 1.265625,0.6875 1.359375,1.4375 0.015625,0.21875 0.015625,0.4375 0.015625,0.65625 0,0.640625 -0.078125,1.453125 -0.703125,1.8125 C 2.953125,-0.203125 2.734375,-0.15625 2.5,-0.15625 1.78125,-0.15625 1.265625,-0.71875 1.15625,-1.5 1.140625,-1.625 1.140625,-1.765625 1.109375,-1.890625 Z m 0,0"
               id="id-cbe5c295-c746-47ba-80e4-c155736868bf" />
          </g>
        </g>
        <g
           style="fill:#000000;fill-opacity:1"
           id="id-b206545d-56ff-4bb1-a36a-6eab9cae2857">
          <g
             transform="translate(144.006, 178.6)"
             id="g477">
            <path
               style="stroke:none"
               d="m 1.453125,-6.5625 c -0.25,0.015625 -0.46875,0.25 -0.46875,0.515625 0,0.28125 0.25,0.53125 0.53125,0.53125 0.28125,0 0.53125,-0.234375 0.53125,-0.53125 0,-0.265625 -0.1875,-0.53125 -0.515625,-0.53125 -0.03125,0 -0.0625,0.015625 -0.078125,0.015625 z m 1.921875,0 c -0.25,0.015625 -0.4375,0.25 -0.4375,0.515625 0,0.25 0.1875,0.53125 0.484375,0.53125 0.3125,0 0.5625,-0.234375 0.5625,-0.53125 0,-0.296875 -0.25,-0.53125 -0.53125,-0.53125 -0.03125,0 -0.046875,0.015625 -0.078125,0.015625 z m 0,0"
               id="id-6d1a41ec-6358-4773-839a-a9dc614a6311" />
          </g>
        </g>
        <g
           style="fill:#000000;fill-opacity:1"
           id="id-d17e1bee-4eac-4e24-999b-307cd3bd4fcd">
          <g
             transform="translate(143.726, 178.6)"
             id="g481">
            <path
               style="stroke:none"
               d="m 0.3125,-4.296875 v 0.3125 h 0.140625 c 0.28125,0 0.578125,0.015625 0.640625,0.3125 0,0.109375 0,0.21875 0,0.328125 v 1.984375 c 0,0.328125 0.015625,0.625 0.1875,0.921875 0.28125,0.421875 0.84375,0.546875 1.3125,0.546875 0.453125,0 0.859375,-0.203125 1.109375,-0.5625 C 3.765625,-0.5625 3.84375,-0.65625 3.875,-0.78125 v 0.875 L 5.328125,-0.015625 V -0.3125 h -0.15625 c -0.328125,0 -0.625,-0.03125 -0.625,-0.484375 V -4.40625 l -1.46875,0.109375 v 0.3125 H 3.21875 c 0.328125,0 0.625,0.03125 0.625,0.5 V -1.6875 c 0,0.734375 -0.375,1.5625 -1.203125,1.5625 -0.5625,0 -0.84375,-0.140625 -0.84375,-1.203125 V -4.40625 Z m 0,0"
               id="id-433bf2b8-f2d5-49dc-b58f-8cb3c48cc8b1" />
          </g>
        </g>
        <g
           style="fill:#000000;fill-opacity:1"
           id="id-a10a3248-dcdc-4207-b2c1-b7e0ffb0d132">
          <g
             transform="translate(149.262, 178.6)"
             id="g485">
            <path
               style="stroke:none"
               d="m 3.09375,-4.171875 c 0.890625,-0.25 1.328125,-0.859375 1.328125,-1.4375 0,-0.75 -0.71875,-1.421875 -1.703125,-1.421875 -0.78125,0 -1.65625,0.484375 -1.65625,1.484375 v 1.25 H 0.28125 v 0.3125 H 1.0625 V -0.75 c 0,0.4375 -0.109375,0.4375 -0.78125,0.4375 V 0 C 0.46875,-0.015625 1.125,-0.03125 1.25,-0.03125 c 0.109375,0 0.28125,0 0.46875,0.03125 v -5.5625 c 0,-1.140625 0.796875,-1.25 1,-1.25 0.40625,0 0.953125,0.3125 0.953125,1.1875 0,0.640625 -0.359375,1.25 -1.234375,1.328125 -0.09375,0.015625 -0.171875,0.015625 -0.171875,0.109375 0,0.015625 0,0.09375 0.09375,0.109375 1.1875,0.09375 1.59375,1.3125 1.59375,2.359375 0,1.28125 -0.65625,1.609375 -1.03125,1.609375 -0.09375,0 -0.3125,-0.015625 -0.5,-0.1875 C 2.53125,-0.3125 2.71875,-0.421875 2.71875,-0.65625 2.71875,-0.875 2.5625,-1.015625 2.359375,-1.015625 2.1875,-1.015625 2,-0.890625 2,-0.640625 c 0,0.390625 0.375,0.75 0.953125,0.75 0.859375,0 1.734375,-0.734375 1.734375,-1.84375 0,-0.71875 -0.3125,-1.921875 -1.59375,-2.4375 z m 0,0"
               id="id-8be63a21-06f3-4b75-b15b-08683fbd3a67" />
          </g>
        </g>
      </g>
    </g>
  </g>
</svg>
