<?xml version="1.0" encoding="UTF-8" standalone="no"?>
<!-- Created with Inkscape (http://www.inkscape.org/) -->

<svg
   xmlns:ns1="http://www.iki.fi/pav/software/textext/"
   xmlns:dc="http://purl.org/dc/elements/1.1/"
   xmlns:cc="http://creativecommons.org/ns#"
   xmlns:rdf="http://www.w3.org/1999/02/22-rdf-syntax-ns#"
   xmlns:svg="http://www.w3.org/2000/svg"
   xmlns="http://www.w3.org/2000/svg"
   xmlns:sodipodi="http://sodipodi.sourceforge.net/DTD/sodipodi-0.dtd"
   xmlns:inkscape="http://www.inkscape.org/namespaces/inkscape"
   width="210mm"
   height="297mm"
   viewBox="0 0 210 297"
   version="1.1"
   id="svg2100"
   inkscape:version="0.92.3 (2405546, 2018-03-11)"
   sodipodi:docname="modified.svg">
  <sodipodi:namedview
     id="base"
     pagecolor="#ffffff"
     bordercolor="#666666"
     borderopacity="1.0"
     inkscape:pageopacity="0.0"
     inkscape:pageshadow="2"
     inkscape:zoom="5.4694876"
     inkscape:cx="396.85039"
     inkscape:cy="561.25984"
     inkscape:document-units="mm"
     inkscape:current-layer="layer1"
     showgrid="false"
     inkscape:window-width="1920"
     inkscape:window-height="1141"
     inkscape:window-x="0"
     inkscape:window-y="0"
     inkscape:window-maximized="1" />
  <defs
     id="defs2094" />
  <metadata
     id="metadata2097">
    <rdf:RDF>
      <cc:Work
         rdf:about="">
        <dc:format>image/svg+xml</dc:format>
        <dc:type
           rdf:resource="http://purl.org/dc/dcmitype/StillImage" />
        <dc:title />
      </cc:Work>
    </rdf:RDF>
  </metadata>
  <g
     id="layer1"
     inkscape:groupmode="layer"
     inkscape:label="Ebene 1">
    <g
       ns1:jacobian_sqrt="0.352778"
       inkscapeversion="0.92.3"
       ns1:alignment="middle center"
       ns1:scale="1.0"
       ns1:preamble="/home/winkler/.config/inkscape/extensions/textext/default_packages.tex"
       ns1:text="$$\\lim_{n \\to \\infty} \\left(1+\\frac{1}{n}\\right)^n = e$$ \\textcolor{red}{second remarkable limit}\n"
       ns1:pdfconverter="pstoedit"
       ns1:texconverter="pdflatex"
       ns1:version="0.11.1"
       text-anchor="start"
       word-spacing="normal"
       letter-spacing="normal"
       font-size-adjust="none"
       font-stretch="normal"
       font-weight="normal"
       font-variant="normal"
       font-style="normal"
       fill-opacity="1"
       fill-rule="evenodd"
       fill="none"
       stroke-opacity="1"
       stroke-dashoffset="0"
       stroke-dasharray="none"
       stroke-miterlimit="10.433"
       stroke-linejoin="miter"
       stroke-linecap="butt"
       stroke="black"
       xml:space="preserve"
       transform="matrix(0.352778,0.000000,0.000000,-0.352778,19.917002,373.240753)"
       id="content">
<path
   id="path5866"
   fill="black"
   stroke-width="0"
   d="M267.87,648.15 L266.43,648.03 V647.74 C267.12,647.74,267.21,647.66,267.21,647.18 V642 C267.21,641.57,267.11,641.57,266.43,641.57 V641.25 C266.76,641.27,267.29,641.28,267.54,641.28 C267.78,641.28,268.28,641.27,268.64,641.25 V641.57 C267.98,641.57,267.87,641.57,267.87,642 Z " />
<path
   id="path5868"
   fill="black"
   stroke-width="0"
   d="M270.64,645.65 L269.25,645.53 V645.22 C269.89,645.22,269.98,645.16,269.98,644.68 V642 C269.98,641.57,269.87,641.57,269.2,641.57 V641.25 C269.51,641.27,270.06,641.28,270.29,641.28 C270.64,641.28,270.98,641.27,271.32,641.25 V641.57 C270.67,641.57,270.64,641.61,270.64,642 Z " />
<path
   id="path5870"
   fill="black"
   stroke-width="0"
   d="M270.67,647.38 L270.67,647.41 L270.67,647.44 L270.66,647.46 L270.66,647.49 L270.65,647.52 L270.64,647.54 L270.63,647.57 L270.62,647.59 L270.61,647.61 L270.6,647.64 L270.59,647.66 L270.57,647.68 L270.56,647.7 L270.54,647.72 L270.53,647.74 L270.51,647.75 L270.49,647.77 L270.47,647.79 L270.45,647.8 L270.43,647.81 L270.41,647.83 L270.38,647.84 L270.36,647.85 L270.34,647.86 L270.31,647.87 L270.29,647.87 L270.27,647.88 L270.24,647.89 L270.22,647.89 L270.19,647.89 L270.16,647.89 L270.14,647.9 C269.84,647.9,269.62,647.63,269.62,647.38 C269.62,647.1,269.84,646.85,270.14,646.85 C270.42,646.85,270.67,647.05,270.67,647.38 Z " />
<path
   id="path5872"
   fill="black"
   stroke-width="0"
   d="M272.73,644.68 V642 C272.73,641.57,272.62,641.57,271.95,641.57 V641.25 C272.31,641.27,272.81,641.28,273.07,641.28 C273.34,641.28,273.86,641.27,274.18,641.25 V641.57 C273.53,641.57,273.42,641.57,273.42,642 V643.83 C273.42,644.86,274.12,645.43,274.76,645.43 C275.39,645.43,275.5,644.9,275.5,644.32 V642 C275.5,641.57,275.39,641.57,274.71,641.57 V641.25 C275.06,641.27,275.57,641.28,275.84,641.28 C276.09,641.28,276.62,641.27,276.95,641.25 V641.57 C276.29,641.57,276.18,641.57,276.18,642 V643.83 C276.18,644.86,276.89,645.43,277.51,645.43 C278.14,645.43,278.25,644.9,278.25,644.32 V642 C278.25,641.57,278.14,641.57,277.48,641.57 V641.25 C277.82,641.27,278.34,641.28,278.61,641.28 C278.86,641.28,279.37,641.27,279.71,641.25 V641.57 C279.2,641.57,278.95,641.57,278.93,641.86 V643.75 C278.93,644.61,278.93,644.93,278.64,645.27 C278.5,645.44,278.17,645.65,277.59,645.65 C276.75,645.65,276.31,645.05,276.15,644.68 C276.01,645.53,275.28,645.65,274.82,645.65 C274.11,645.65,273.64,645.22,273.36,644.6 V645.65 L271.95,645.53 V645.22 C272.65,645.22,272.73,645.16,272.73,644.68 Z " />
<path
   id="path5874"
   fill="black"
   stroke-width="0"
   d="M263.48,635.72 L263.47,635.71 L263.47,635.7 L263.47,635.69 L263.46,635.68 L263.46,635.67 L263.46,635.66 L263.45,635.63 L263.44,635.61 L263.44,635.59 L263.43,635.57 L263.43,635.56 L263.43,635.54 L263.42,635.53 L263.42,635.52 L263.42,635.51 L263.41,635.5 L263.41,635.5 L263.41,635.49 L263.41,635.48 L263.41,635.47 L263.4,635.46 L263.4,635.46 L263.4,635.45 L263.4,635.45 L263.4,635.44 L263.4,635.44 L263.4,635.44 L263.4,635.44 L263.4,635.43 L263.4,635.43 C263.4,635.28,263.52,635.22,263.65,635.22 C263.77,635.22,263.88,635.29,263.91,635.35 C263.95,635.42,264.01,635.65,264.04,635.79 C264.09,635.93,264.16,636.26,264.2,636.43 C264.24,636.59,264.29,636.75,264.32,636.9 C264.4,637.18,264.41,637.25,264.62,637.53 C264.8,637.81,265.15,638.18,265.66,638.18 C266.07,638.18,266.09,637.82,266.09,637.68 C266.09,637.26,265.77,636.48,265.66,636.18 C265.59,636,265.57,635.93,265.57,635.81 C265.57,635.43,265.87,635.22,266.23,635.22 C266.93,635.22,267.24,636.18,267.24,636.28 C267.24,636.37,267.15,636.37,267.13,636.37 C267.04,636.37,267.02,636.32,266.99,636.26 C266.84,635.7,266.54,635.4,266.26,635.4 C266.1,635.4,266.07,635.5,266.07,635.65 C266.07,635.81,266.12,635.9,266.24,636.22 C266.32,636.43,266.62,637.18,266.62,637.57 C266.62,638.26,266.07,638.37,265.7,638.37 C265.12,638.37,264.73,638.01,264.51,637.73 C264.46,638.23,264.04,638.37,263.76,638.37 C263.46,638.37,263.29,638.15,263.2,638 C263.04,637.73,262.95,637.34,262.95,637.31 C262.95,637.22,263.04,637.22,263.07,637.22 C263.16,637.22,263.18,637.23,263.23,637.42 C263.32,637.84,263.46,638.18,263.74,638.18 C263.91,638.18,263.96,638.03,263.96,637.84 C263.96,637.7,263.9,637.45,263.85,637.25 C263.8,637.06,263.74,636.78,263.7,636.62 Z " />
<path
   id="path5876"
   fill="black"
   stroke-width="0"
   d="M274.01,636.87 L273.93,636.81 L273.85,636.75 L273.78,636.68 L273.71,636.61 L273.65,636.55 L273.59,636.48 L273.53,636.41 L273.48,636.35 L273.43,636.28 L273.39,636.21 L273.34,636.15 L273.3,636.08 L273.27,636.02 L273.24,635.96 L273.21,635.9 L273.18,635.84 L273.15,635.78 L273.13,635.72 L273.11,635.67 L273.09,635.62 L273.08,635.57 L273.06,635.53 L273.05,635.49 L273.04,635.45 L273.03,635.41 L273.03,635.38 L273.02,635.36 L273.02,635.33 L273.02,635.32 L273.01,635.3 L273.01,635.3 L273.01,635.29 C273.01,635.18,273.07,635.18,273.17,635.18 C273.29,635.18,273.32,635.18,273.36,635.31 C273.4,635.48,273.51,635.93,273.87,636.32 C274.28,636.75,274.64,636.85,274.93,636.95 C274.98,636.97,275,637,275,637.03 C275,637.1,274.96,637.12,274.87,637.15 C273.86,637.47,273.5,638.18,273.36,638.81 C273.32,638.89,273.28,638.89,273.17,638.89 C273.07,638.89,273.01,638.89,273.01,638.79 C273.01,638.78,273.07,638.29,273.42,637.81 C273.57,637.57,273.78,637.39,274.01,637.22 H268.37 C268.25,637.22,268.09,637.22,268.09,637.04 C268.09,636.87,268.25,636.87,268.37,636.87 Z " />
<path
   id="path5878"
   fill="black"
   stroke-width="0"
   d="M279.55,637.2 L279.51,637.24 L279.48,637.28 L279.45,637.31 L279.42,637.35 L279.39,637.38 L279.36,637.41 L279.33,637.45 L279.31,637.47 L279.28,637.5 L279.26,637.53 L279.24,637.55 L279.22,637.58 L279.19,637.6 L279.17,637.63 L279.15,637.65 L279.13,637.67 L279.11,637.69 L279.09,637.71 L279.05,637.75 L279.01,637.78 L278.97,637.81 L278.93,637.85 L278.89,637.88 L278.87,637.9 L278.85,637.91 L278.82,637.93 L278.8,637.95 C278.36,638.26,277.92,638.37,277.53,638.37 C276.66,638.37,276.03,637.64,276.03,636.79 H276.22 C276.22,637.47,276.77,638,277.42,638 C278.08,638,278.52,637.45,279.2,636.64 H279.2 C278.92,636.18,278.3,635.48,277.45,635.48 C276.72,635.48,276.22,636.12,276.22,636.79 H276.03 C276.03,635.97,276.62,635.22,277.52,635.22 C278.48,635.22,279.17,636.01,279.42,636.39 C279.8,635.95,279.91,635.82,280.17,635.64 C280.61,635.32,281.05,635.22,281.44,635.22 C282.31,635.22,282.94,635.95,282.94,636.79 H282.75 C282.75,636.12,282.2,635.59,281.55,635.59 C280.89,635.59,280.45,636.12,279.77,636.95 H279.77 C280.05,637.4,280.67,638.1,281.52,638.1 C282.25,638.1,282.75,637.47,282.75,636.79 H282.94 C282.94,637.62,282.34,638.37,281.45,638.37 C280.48,638.37,279.8,637.57,279.55,637.2 Z " />
<path
   id="path5880"
   fill="black"
   stroke-width="0"
   d="M292.04,631.97 L292.04,631.98 L292.04,631.98 L292.04,631.98 L292.04,631.98 L292.04,631.99 L292.04,631.99 L292.04,631.99 L292.04,631.99 L292.04,632 L292.04,632 L292.04,632 L292.04,632 L292.04,632.01 L292.03,632.01 L292.03,632.01 L292.03,632.01 L292.03,632.01 L292.03,632.02 L292.03,632.02 L292.02,632.02 L292.02,632.02 L292.02,632.03 L292.02,632.03 L292.02,632.03 L292.01,632.03 L292.01,632.03 L292.01,632.04 L292.01,632.04 L292,632.04 L292,632.05 L292,632.05 L292,632.05 C291.64,632.43,290.96,633.08,290.31,634.16 C288.7,636.72,287.98,639.96,287.98,643.78 C287.98,646.46,288.34,649.9,289.98,652.86 C290.76,654.27,291.57,655.08,292.01,655.52 C292.04,655.55,292.04,655.57,292.04,655.6 C292.04,655.69,291.98,655.69,291.84,655.69 C291.7,655.69,291.68,655.69,291.53,655.55 C288.2,652.52,287.15,647.97,287.15,643.78 C287.15,639.88,288.04,635.96,290.57,632.97 C290.78,632.75,291.15,632.35,291.56,631.99 C291.68,631.86,291.7,631.86,291.84,631.86 C291.98,631.86,292.04,631.86,292.04,631.97 Z " />
<path
   id="path5882"
   fill="black"
   stroke-width="0"
   d="M295.34,647.61 L295.34,647.62 L295.34,647.63 L295.34,647.64 L295.34,647.65 L295.34,647.66 L295.34,647.67 L295.34,647.68 L295.34,647.69 L295.34,647.7 L295.34,647.71 L295.34,647.72 L295.34,647.72 L295.34,647.73 L295.34,647.74 L295.34,647.74 L295.34,647.75 L295.34,647.76 L295.34,647.76 L295.34,647.78 L295.33,647.79 L295.33,647.8 L295.33,647.8 L295.32,647.81 L295.32,647.82 L295.31,647.83 L295.31,647.83 L295.3,647.84 L295.29,647.84 L295.29,647.85 L295.28,647.85 L295.28,647.85 L295.27,647.85 L295.27,647.85 L295.26,647.85 L295.26,647.85 L295.25,647.86 L295.24,647.86 L295.24,647.86 L295.23,647.86 L295.23,647.86 L295.22,647.86 L295.21,647.86 L295.2,647.86 L295.19,647.86 L295.19,647.86 L295.18,647.86 L295.17,647.86 L295.16,647.86 L295.15,647.86 L295.14,647.86 L295.13,647.86 L295.12,647.86 L295.11,647.86 C294.5,647.24,293.62,647.24,293.31,647.24 V646.93 C293.5,646.93,294.09,646.93,294.61,647.19 V642.03 C294.61,641.68,294.58,641.57,293.69,641.57 H293.36 V641.25 C293.72,641.28,294.58,641.28,294.97,641.28 C295.38,641.28,296.23,641.28,296.58,641.25 V641.57 H296.27 C295.38,641.57,295.34,641.68,295.34,642.03 Z " />
<path
   id="path5884"
   fill="black"
   stroke-width="0"
   d="M303.68,643.53 H306.44 C306.58,643.53,306.77,643.53,306.77,643.74 C306.77,643.94,306.58,643.94,306.44,643.94 H303.68 V646.72 C303.68,646.86,303.68,647.05,303.47,647.05 C303.29,647.05,303.29,646.86,303.29,646.72 V643.94 H300.5 C300.36,643.94,300.18,643.94,300.18,643.74 C300.18,643.53,300.36,643.53,300.5,643.53 H303.29 V640.75 C303.29,640.61,303.29,640.43,303.47,640.43 C303.68,640.43,303.68,640.61,303.68,640.75 Z " />
<path
   id="path5886"
   fill="black"
   stroke-width="0"
   d="M314.2,654.35 L314.2,654.36 L314.2,654.37 L314.19,654.38 L314.19,654.39 L314.19,654.4 L314.19,654.41 L314.19,654.42 L314.19,654.43 L314.19,654.44 L314.19,654.45 L314.19,654.45 L314.19,654.46 L314.19,654.47 L314.19,654.48 L314.19,654.48 L314.19,654.49 L314.19,654.5 L314.19,654.5 L314.19,654.51 L314.19,654.52 L314.18,654.53 L314.18,654.54 L314.18,654.55 L314.17,654.56 L314.17,654.56 L314.16,654.57 L314.15,654.58 L314.15,654.58 L314.14,654.58 L314.13,654.59 L314.13,654.59 L314.12,654.59 L314.12,654.59 L314.11,654.59 L314.11,654.59 L314.1,654.59 L314.1,654.6 L314.09,654.6 L314.08,654.6 L314.08,654.6 L314.07,654.6 L314.06,654.6 L314.05,654.6 L314.05,654.6 L314.04,654.6 L314.03,654.6 L314.02,654.6 L314.01,654.6 L314,654.6 L313.99,654.6 L313.98,654.6 L313.97,654.6 L313.96,654.6 C313.35,653.98,312.48,653.98,312.16,653.98 V653.66 C312.35,653.66,312.95,653.66,313.46,653.93 V648.77 C313.46,648.41,313.43,648.3,312.54,648.3 H312.21 V647.99 C312.57,648.02,313.43,648.02,313.82,648.02 C314.23,648.02,315.09,648.02,315.43,647.99 V648.3 H315.12 C314.23,648.3,314.2,648.41,314.2,648.77 Z " />
<line
   id="line5888"
   stroke-width="0.398"
   y2="643.74"
   x2="316.75"
   y1="643.74"
   x1="310.77" />
<path
   id="path5890"
   fill="black"
   stroke-width="0"
   d="M311.65,635.02 L311.65,635 L311.64,634.99 L311.64,634.97 L311.64,634.95 L311.63,634.92 L311.62,634.89 L311.61,634.85 L311.6,634.82 L311.6,634.79 L311.59,634.76 L311.59,634.74 L311.58,634.72 L311.58,634.71 L311.58,634.7 L311.57,634.68 L311.57,634.67 L311.57,634.66 L311.57,634.64 L311.56,634.63 L311.56,634.62 L311.56,634.61 L311.56,634.6 L311.56,634.6 L311.56,634.59 L311.56,634.58 L311.55,634.58 C311.55,634.41,311.7,634.31,311.85,634.31 C311.96,634.31,312.15,634.39,312.21,634.59 C312.23,634.61,312.34,635.08,312.4,635.33 L312.62,636.22 C312.68,636.44,312.74,636.66,312.79,636.89 C312.84,637.05,312.91,637.34,312.91,637.38 C313.07,637.69,313.6,638.59,314.54,638.59 C314.99,638.59,315.07,638.22,315.07,637.91 C315.07,637.28,314.59,636.02,314.43,635.58 C314.34,635.36,314.34,635.23,314.34,635.12 C314.34,634.66,314.68,634.31,315.15,634.31 C316.07,634.31,316.45,635.77,316.45,635.84 C316.45,635.94,316.35,635.94,316.32,635.94 C316.23,635.94,316.23,635.91,316.18,635.77 C315.98,635.09,315.65,634.53,315.16,634.53 C314.99,634.53,314.93,634.62,314.93,634.86 C314.93,635.11,315.01,635.34,315.1,635.56 C315.29,636.09,315.71,637.19,315.71,637.75 C315.71,638.42,315.29,638.81,314.57,638.81 C313.68,638.81,313.18,638.17,313.02,637.95 C312.98,638.5,312.55,638.81,312.1,638.81 C311.65,638.81,311.46,638.42,311.37,638.25 C311.2,637.91,311.05,637.33,311.05,637.28 C311.05,637.19,311.16,637.19,311.18,637.19 C311.27,637.19,311.29,637.19,311.35,637.41 C311.52,638.12,311.71,638.59,312.07,638.59 C312.27,638.59,312.38,638.47,312.38,638.14 C312.38,637.92,312.35,637.81,312.23,637.3 Z " />
<path
   id="path5892"
   fill="black"
   stroke-width="0"
   d="M323.18,643.78 L323.17,644.51 L323.14,645.24 L323.09,645.97 L323.01,646.7 L322.9,647.42 L322.77,648.13 L322.61,648.83 L322.42,649.53 L322.2,650.21 L322.08,650.55 L321.96,650.89 L321.82,651.22 L321.68,651.55 L321.53,651.87 L321.36,652.19 L321.2,652.51 L321.02,652.82 L320.83,653.12 L320.64,653.43 L320.43,653.72 L320.22,654.01 L319.99,654.3 L319.76,654.58 C319.57,654.82,319.18,655.22,318.78,655.58 C318.67,655.69,318.65,655.69,318.51,655.69 C318.39,655.69,318.29,655.69,318.29,655.6 C318.29,655.57,318.34,655.52,318.36,655.5 C318.7,655.15,319.37,654.47,320.04,653.41 C321.64,650.85,322.36,647.61,322.36,643.78 C322.36,641.11,322,637.68,320.36,634.71 C319.57,633.3,318.75,632.47,318.34,632.05 C318.32,632.02,318.29,632,318.29,631.97 C318.29,631.86,318.39,631.86,318.51,631.86 C318.65,631.86,318.67,631.86,318.81,632.02 C322.14,635.05,323.18,639.6,323.18,643.78 Z " />
<path
   id="path5894"
   fill="black"
   stroke-width="0"
   d="M326.14,653.67 L326.14,653.66 L326.14,653.65 L326.14,653.64 L326.13,653.63 L326.13,653.62 L326.13,653.61 L326.12,653.59 L326.11,653.57 L326.11,653.55 L326.1,653.52 L326.1,653.51 L326.09,653.5 L326.09,653.49 L326.09,653.48 L326.09,653.47 L326.08,653.46 L326.08,653.45 L326.08,653.44 L326.08,653.44 L326.07,653.43 L326.07,653.42 L326.07,653.41 L326.07,653.41 L326.07,653.4 L326.07,653.4 L326.07,653.4 L326.07,653.39 L326.07,653.39 L326.07,653.39 L326.07,653.39 C326.07,653.23,326.19,653.17,326.32,653.17 C326.44,653.17,326.55,653.25,326.58,653.31 C326.61,653.38,326.68,653.61,326.71,653.75 C326.75,653.89,326.83,654.22,326.86,654.39 C326.91,654.55,326.96,654.7,326.99,654.86 C327.07,655.14,327.08,655.2,327.29,655.48 C327.47,655.77,327.82,656.14,328.33,656.14 C328.74,656.14,328.75,655.78,328.75,655.64 C328.75,655.22,328.44,654.44,328.33,654.14 C328.25,653.95,328.24,653.89,328.24,653.77 C328.24,653.39,328.54,653.17,328.89,653.17 C329.6,653.17,329.91,654.14,329.91,654.23 C329.91,654.33,329.82,654.33,329.8,654.33 C329.71,654.33,329.69,654.28,329.66,654.22 C329.5,653.66,329.21,653.36,328.93,653.36 C328.77,653.36,328.74,653.45,328.74,653.61 C328.74,653.77,328.79,653.86,328.91,654.17 C328.99,654.39,329.29,655.14,329.29,655.53 C329.29,656.22,328.74,656.33,328.36,656.33 C327.79,656.33,327.39,655.97,327.18,655.69 C327.13,656.19,326.71,656.33,326.43,656.33 C326.13,656.33,325.96,656.11,325.86,655.95 C325.71,655.69,325.61,655.3,325.61,655.27 C325.61,655.17,325.71,655.17,325.74,655.17 C325.83,655.17,325.85,655.19,325.89,655.38 C325.99,655.8,326.13,656.14,326.41,656.14 C326.58,656.14,326.63,655.98,326.63,655.8 C326.63,655.66,326.57,655.41,326.52,655.2 C326.47,655.02,326.41,654.73,326.36,654.58 Z " />
<path
   id="path5896"
   fill="black"
   stroke-width="0"
   d="M340.3,644.5 L340.33,644.5 L340.36,644.5 L340.39,644.51 L340.4,644.51 L340.42,644.51 L340.43,644.51 L340.44,644.51 L340.46,644.51 L340.47,644.51 L340.48,644.52 L340.5,644.52 L340.51,644.52 L340.52,644.53 L340.53,644.53 L340.54,644.54 L340.56,644.55 L340.57,644.55 L340.58,644.56 L340.59,644.57 L340.59,644.58 L340.6,644.58 L340.6,644.59 L340.61,644.6 L340.61,644.6 L340.61,644.61 L340.61,644.61 L340.62,644.62 L340.62,644.63 L340.62,644.63 L340.62,644.64 L340.63,644.65 L340.63,644.66 L340.63,644.66 L340.63,644.67 L340.63,644.68 L340.63,644.69 L340.63,644.7 L340.63,644.71 C340.63,644.9,340.45,644.9,340.3,644.9 H334.37 C334.23,644.9,334.04,644.9,334.04,644.71 C334.04,644.5,334.23,644.5,334.37,644.5 Z " />
<path
   id="path5898"
   fill="black"
   stroke-width="0"
   d="M340.3,642.58 L340.33,642.58 L340.36,642.58 L340.39,642.58 L340.42,642.58 L340.43,642.59 L340.44,642.59 L340.46,642.59 L340.47,642.59 L340.48,642.59 L340.5,642.6 L340.51,642.6 L340.52,642.61 L340.53,642.61 L340.54,642.62 L340.56,642.62 L340.57,642.63 L340.58,642.64 L340.59,642.64 L340.59,642.65 L340.6,642.66 L340.61,642.67 L340.61,642.67 L340.61,642.68 L340.61,642.68 L340.62,642.69 L340.62,642.69 L340.62,642.7 L340.62,642.71 L340.63,642.71 L340.63,642.72 L340.63,642.73 L340.63,642.74 L340.63,642.74 L340.63,642.75 L340.63,642.76 L340.63,642.77 C340.63,642.97,340.45,642.97,340.3,642.97 H334.37 C334.23,642.97,334.04,642.97,334.04,642.77 C334.04,642.58,334.23,642.58,334.37,642.58 Z " />
<path
   id="path5900"
   fill="black"
   stroke-width="0"
   d="M345.85,643.55 L345.88,643.55 L345.91,643.55 L345.94,643.55 L345.98,643.55 L346.01,643.55 L346.05,643.55 L346.09,643.55 L346.14,643.56 L346.18,643.56 L346.23,643.56 L346.27,643.56 L346.32,643.57 L346.37,643.57 L346.42,643.57 L346.53,643.58 L346.63,643.6 L346.74,643.61 L346.85,643.63 L346.96,643.65 L347.07,643.67 L347.12,643.69 L347.17,643.7 L347.22,643.72 L347.27,643.73 L347.32,643.75 L347.37,643.77 C348.07,644.08,348.12,644.66,348.12,644.8 C348.12,645.24,347.74,645.65,347.05,645.65 V645.43 C347.52,645.43,347.79,645.15,347.79,644.8 C347.79,643.77,346.2,643.77,345.79,643.77 H345.38 C345.77,645.27,346.79,645.43,347.05,645.43 V645.65 C345.95,645.65,344.45,644.68,344.45,642.94 C344.45,641.93,345.04,641.15,346.01,641.15 C347.43,641.15,348.26,642.19,348.26,642.32 C348.26,642.38,348.21,642.44,348.15,642.44 C348.1,642.44,348.07,642.43,348.01,642.35 C347.23,641.36,346.15,641.36,346.02,641.36 C345.26,641.36,345.16,642.19,345.16,642.52 C345.16,642.63,345.18,642.94,345.32,643.55 Z " />
<path
   id="path5902"
   fill="red"
   stroke-width="0"
   stroke="red"
   d="M135.83,619.82 L135.85,619.82 L135.88,619.81 L135.91,619.81 L135.94,619.8 L135.97,619.79 L136.01,619.79 L136.05,619.78 L136.09,619.77 L136.13,619.75 L136.17,619.74 L136.21,619.73 L136.25,619.71 L136.3,619.69 L136.34,619.67 L136.39,619.65 L136.43,619.62 L136.47,619.6 L136.51,619.57 L136.56,619.54 L136.59,619.51 L136.63,619.47 L136.67,619.44 L136.7,619.4 L136.73,619.35 L136.76,619.31 L136.77,619.29 L136.79,619.26 L136.8,619.24 L136.81,619.21 L136.82,619.19 L136.83,619.16 L136.84,619.13 L136.84,619.1 L136.85,619.07 L136.85,619.04 L136.86,619.01 L136.86,618.98 L136.86,618.95 L136.86,618.91 C136.86,618.4,136.52,618.01,135.75,618.01 C134.91,618.01,134.55,618.57,134.36,619.41 C134.33,619.55,134.33,619.59,134.22,619.59 C134.1,619.59,134.1,619.52,134.1,619.34 V618.02 C134.1,617.85,134.1,617.79,134.21,617.79 C134.25,617.79,134.27,617.8,134.46,617.99 C134.47,618.01,134.47,618.02,134.66,618.21 C135.1,617.8,135.54,617.79,135.75,617.79 C136.9,617.79,137.35,618.46,137.35,619.16 C137.35,619.7,137.05,619.99,136.93,620.12 C136.6,620.43,136.21,620.51,135.8,620.59 C135.24,620.7,134.57,620.84,134.57,621.4 C134.57,621.76,134.83,622.16,135.69,622.16 C136.79,622.16,136.83,621.27,136.85,620.96 C136.86,620.87,136.94,620.87,136.97,620.87 C137.1,620.87,137.1,620.91,137.1,621.1 V622.12 C137.1,622.27,137.1,622.35,136.99,622.35 C136.94,622.35,136.93,622.35,136.79,622.23 C136.75,622.2,136.66,622.1,136.61,622.07 C136.24,622.35,135.83,622.35,135.69,622.35 C134.47,622.35,134.1,621.68,134.1,621.13 C134.1,620.77,134.25,620.51,134.52,620.29 C134.85,620.02,135.11,619.96,135.83,619.82 Z " />
<path
   id="path5904"
   fill="red"
   stroke-width="0"
   stroke="red"
   d="M138.8,620.2 V620.4 C138.87,621.88,139.7,622.13,140.04,622.13 C141.07,622.13,141.16,620.79,141.16,620.4 H138.8 V620.2 H141.57 C141.79,620.2,141.82,620.2,141.82,620.4 C141.82,621.38,141.29,622.35,140.04,622.35 C138.88,622.35,137.98,621.32,137.98,620.09 C137.98,618.76,139.02,617.79,140.16,617.79 C141.37,617.79,141.82,618.9,141.82,619.09 C141.82,619.18,141.74,619.2,141.7,619.2 C141.6,619.2,141.59,619.13,141.55,619.05 C141.21,618.04,140.32,618.04,140.21,618.04 C139.73,618.04,139.32,618.34,139.1,618.7 C138.8,619.18,138.8,619.84,138.8,620.2 Z " />
<path
   id="path5906"
   fill="red"
   stroke-width="0"
   stroke="red"
   d="M143.28,620.07 L143.28,620.14 L143.28,620.22 L143.28,620.29 L143.29,620.36 L143.29,620.43 L143.3,620.49 L143.31,620.56 L143.31,620.62 L143.32,620.68 L143.33,620.74 L143.34,620.8 L143.36,620.86 L143.38,620.96 L143.41,621.07 L143.45,621.16 L143.48,621.25 L143.52,621.34 L143.57,621.42 L143.61,621.5 L143.66,621.57 L143.71,621.63 L143.76,621.69 L143.81,621.74 L143.86,621.8 L143.91,621.84 L143.97,621.88 L144.02,621.92 L144.08,621.95 L144.14,621.98 L144.19,622.01 L144.25,622.03 L144.31,622.05 L144.36,622.07 L144.42,622.08 L144.47,622.09 L144.52,622.1 L144.57,622.1 L144.62,622.1 C144.71,622.1,145.34,622.09,145.68,621.73 C145.28,621.7,145.21,621.4,145.21,621.27 C145.21,621.02,145.4,620.82,145.68,620.82 C145.93,620.82,146.14,620.99,146.14,621.29 C146.14,621.96,145.39,622.35,144.62,622.35 C143.37,622.35,142.46,621.27,142.46,620.04 C142.46,618.77,143.45,617.79,144.59,617.79 C145.92,617.79,146.25,618.98,146.25,619.09 C146.25,619.18,146.14,619.18,146.12,619.18 C146.03,619.18,146.01,619.13,145.98,619.09 C145.7,618.16,145.06,618.04,144.68,618.04 C144.15,618.04,143.28,618.46,143.28,620.07 Z " />
<path
   id="path5908"
   fill="red"
   stroke-width="0"
   stroke="red"
   d="M151.22,620.02 L151.22,620.14 L151.21,620.26 L151.19,620.37 L151.17,620.49 L151.15,620.6 L151.12,620.71 L151.09,620.82 L151.05,620.92 L151,621.02 L150.95,621.12 L150.9,621.22 L150.84,621.32 L150.78,621.41 L150.72,621.5 L150.65,621.58 L150.58,621.66 L150.5,621.74 L150.42,621.81 L150.34,621.88 L150.25,621.95 L150.16,622.01 L150.07,622.07 L149.98,622.12 L149.88,622.17 L149.78,622.21 L149.68,622.25 L149.58,622.28 L149.47,622.3 L149.36,622.32 L149.25,622.34 L149.14,622.35 L149.03,622.35 L149.02,622.13 C149.45,622.13,149.89,621.91,150.14,621.49 C150.41,621.05,150.41,620.48,150.41,620.1 C150.41,619.74,150.41,619.21,150.19,618.77 C149.97,618.32,149.53,618.04,149.03,618.04 H149.03 C148.61,618.04,148.17,618.24,147.89,618.7 C147.66,619.13,147.66,619.74,147.66,620.1 C147.66,620.49,147.66,621.02,147.89,621.46 C148.16,621.91,148.62,622.13,149.02,622.13 L149.03,622.35 C147.78,622.35,146.83,621.27,146.83,620.02 C146.83,618.74,147.86,617.79,149.02,617.79 C150.22,617.79,151.22,618.76,151.22,620.02 Z " />
<path
   id="path5910"
   fill="red"
   stroke-width="0"
   stroke="red"
   d="M152.62,621.32 V618.65 C152.62,618.21,152.51,618.21,151.84,618.21 V617.9 C152.2,617.91,152.7,617.93,152.96,617.93 C153.23,617.93,153.75,617.91,154.07,617.9 V618.21 C153.42,618.21,153.31,618.21,153.31,618.65 V620.48 C153.31,621.51,154.01,622.07,154.65,622.07 C155.28,622.07,155.39,621.54,155.39,620.96 V618.65 C155.39,618.21,155.28,618.21,154.6,618.21 V617.9 C154.95,617.91,155.46,617.93,155.73,617.93 C155.98,617.93,156.51,617.91,156.84,617.9 V618.21 C156.32,618.21,156.07,618.21,156.07,618.51 V620.4 C156.07,621.26,156.07,621.57,155.76,621.91 C155.62,622.09,155.29,622.29,154.71,622.29 C154,622.29,153.53,621.87,153.25,621.24 V622.29 L151.84,622.18 V621.87 C152.54,621.87,152.62,621.8,152.62,621.32 Z " />
<path
   id="path5912"
   fill="red"
   stroke-width="0"
   stroke="red"
   d="M160.84,618.45 V617.79 L162.3,617.9 V618.21 C161.61,618.21,161.52,618.27,161.52,618.76 V624.79 L160.09,624.68 V624.38 C160.78,624.38,160.86,624.3,160.86,623.82 V621.68 C160.58,622.02,160.16,622.29,159.61,622.29 L159.66,622.07 C160,622.07,160.42,621.91,160.73,621.48 C160.84,621.3,160.84,621.29,160.84,621.1 H160.84 V619.07 C160.84,618.9,160.84,618.87,160.73,618.7 C160.44,618.23,159.98,618.01,159.56,618.01 C159.11,618.01,158.75,618.27,158.52,618.65 C158.25,619.05,158.22,619.62,158.22,620.02 C158.22,620.4,158.25,620.99,158.53,621.43 C158.73,621.74,159.12,622.07,159.66,622.07 L159.61,622.29 C158.44,622.29,157.41,621.32,157.41,620.04 C157.41,618.77,158.38,617.79,159.5,617.79 C160.14,617.79,160.59,618.13,160.84,618.45 Z " />
<path
   id="path5914"
   fill="red"
   stroke-width="0"
   stroke="red"
   d="M167.57,621.2 V622.29 L166.2,622.18 V621.87 C166.88,621.87,166.96,621.8,166.96,621.32 V618.65 C166.96,618.21,166.85,618.21,166.2,618.21 V617.9 C166.59,617.91,167.04,617.93,167.32,617.93 C167.73,617.93,168.2,617.93,168.59,617.9 V618.21 H168.38 C167.65,618.21,167.62,618.32,167.62,618.68 V620.2 C167.62,621.18,168.04,622.07,168.79,622.07 C168.87,622.07,168.88,622.07,168.9,622.05 C168.87,622.05,168.68,621.93,168.68,621.68 C168.68,621.4,168.88,621.24,169.1,621.24 C169.29,621.24,169.52,621.37,169.52,621.68 C169.52,622.01,169.23,622.29,168.79,622.29 C168.07,622.29,167.71,621.62,167.57,621.2 Z " />
<path
   id="path5916"
   fill="red"
   stroke-width="0"
   stroke="red"
   d="M170.93,620.2 V620.4 C170.99,621.88,171.82,622.13,172.16,622.13 C173.19,622.13,173.29,620.79,173.29,620.4 H170.93 V620.2 H173.69 C173.91,620.2,173.94,620.2,173.94,620.4 C173.94,621.38,173.41,622.35,172.16,622.35 C171,622.35,170.1,621.32,170.1,620.09 C170.1,618.76,171.15,617.79,172.29,617.79 C173.49,617.79,173.94,618.9,173.94,619.09 C173.94,619.18,173.86,619.2,173.82,619.2 C173.72,619.2,173.71,619.13,173.68,619.05 C173.33,618.04,172.44,618.04,172.33,618.04 C171.85,618.04,171.44,618.34,171.22,618.7 C170.93,619.18,170.93,619.84,170.93,620.2 Z " />
<path
   id="path5918"
   fill="red"
   stroke-width="0"
   stroke="red"
   d="M175.34,621.32 V618.65 C175.34,618.21,175.23,618.21,174.55,618.21 V617.9 C174.91,617.91,175.41,617.93,175.68,617.93 C175.95,617.93,176.46,617.91,176.79,617.9 V618.21 C176.13,618.21,176.02,618.21,176.02,618.65 V620.48 C176.02,621.51,176.73,622.07,177.37,622.07 C177.99,622.07,178.1,621.54,178.1,620.96 V618.65 C178.1,618.21,177.99,618.21,177.32,618.21 V617.9 C177.66,617.91,178.18,617.93,178.45,617.93 C178.7,617.93,179.23,617.91,179.55,617.9 V618.21 C178.9,618.21,178.79,618.21,178.79,618.65 V620.48 C178.79,621.51,179.49,622.07,180.12,622.07 C180.74,622.07,180.85,621.54,180.85,620.96 V618.65 C180.85,618.21,180.74,618.21,180.09,618.21 V617.9 C180.43,617.91,180.95,617.93,181.21,617.93 C181.46,617.93,181.98,617.91,182.32,617.9 V618.21 C181.8,618.21,181.55,618.21,181.54,618.51 V620.4 C181.54,621.26,181.54,621.57,181.24,621.91 C181.1,622.09,180.77,622.29,180.2,622.29 C179.35,622.29,178.91,621.7,178.76,621.32 C178.62,622.18,177.88,622.29,177.43,622.29 C176.71,622.29,176.24,621.87,175.96,621.24 V622.29 L174.55,622.18 V621.87 C175.26,621.87,175.34,621.8,175.34,621.32 Z " />
<path
   id="path5920"
   fill="red"
   stroke-width="0"
   stroke="red"
   d="M185.85,618.65 L185.86,618.61 L185.86,618.57 L185.87,618.54 L185.88,618.5 L185.89,618.46 L185.9,618.43 L185.91,618.39 L185.92,618.36 L185.94,618.32 L185.95,618.29 L185.97,618.25 L185.99,618.22 L186.01,618.19 L186.03,618.16 L186.05,618.13 L186.07,618.1 L186.1,618.07 L186.13,618.04 L186.15,618.01 L186.18,617.99 L186.21,617.97 L186.24,617.95 L186.27,617.93 L186.31,617.91 L186.34,617.89 L186.38,617.88 L186.42,617.87 L186.45,617.85 L186.49,617.85 L186.54,617.84 L186.58,617.84 L186.62,617.84 C186.84,617.84,187.43,617.98,187.43,618.79 V619.34 H187.2 V618.79 C187.2,618.21,186.95,618.15,186.84,618.15 C186.51,618.15,186.46,618.6,186.46,618.65 V620.63 C186.46,621.05,186.46,621.43,186.1,621.8 C185.71,622.2,185.23,622.35,184.75,622.35 C183.93,622.35,183.25,621.88,183.25,621.23 C183.25,620.93,183.45,620.76,183.7,620.76 C183.98,620.76,184.17,620.96,184.17,621.21 C184.17,621.34,184.1,621.66,183.65,621.68 C183.92,622.02,184.42,622.13,184.73,622.13 C185.21,622.13,185.78,621.74,185.78,620.85 V620.49 V620.29 V619.29 C185.78,618.35,185.06,618.01,184.62,618.01 C184.14,618.01,183.73,618.35,183.73,618.85 C183.73,619.4,184.14,620.23,185.78,620.29 H185.78 V620.49 C185.28,620.46,184.57,620.43,183.95,620.13 C183.21,619.79,182.96,619.27,182.96,618.84 C182.96,618.04,183.92,617.79,184.54,617.79 C185.2,617.79,185.67,618.18,185.85,618.65 Z " />
<path
   id="path5922"
   fill="red"
   stroke-width="0"
   stroke="red"
   d="M189.18,621.2 V622.29 L187.8,622.18 V621.87 C188.49,621.87,188.57,621.8,188.57,621.32 V618.65 C188.57,618.21,188.46,618.21,187.8,618.21 V617.9 C188.2,617.91,188.65,617.93,188.93,617.93 C189.34,617.93,189.8,617.93,190.2,617.9 V618.21 H189.99 C189.26,618.21,189.23,618.32,189.23,618.68 V620.2 C189.23,621.18,189.65,622.07,190.4,622.07 C190.48,622.07,190.49,622.07,190.51,622.05 C190.48,622.05,190.29,621.93,190.29,621.68 C190.29,621.4,190.49,621.24,190.71,621.24 C190.9,621.24,191.13,621.37,191.13,621.68 C191.13,622.01,190.84,622.29,190.4,622.29 C189.68,622.29,189.32,621.62,189.18,621.2 Z " />
<path
   id="path5924"
   fill="red"
   stroke-width="0"
   stroke="red"
   d="M192.47,618.65 L192.47,618.61 L192.47,618.57 L192.47,618.54 L192.47,618.5 L192.46,618.47 L192.46,618.45 L192.45,618.42 L192.45,618.4 L192.44,618.37 L192.43,618.35 L192.42,618.33 L192.4,618.32 L192.39,618.3 L192.37,618.29 L192.36,618.28 L192.34,618.27 L192.31,618.26 L192.29,618.25 L192.27,618.24 L192.24,618.23 L192.21,618.23 L192.18,618.22 L192.14,618.22 L192.1,618.22 L192.08,618.22 L192.06,618.22 L192.04,618.21 L192.02,618.21 L192,618.21 L191.98,618.21 L191.95,618.21 L191.93,618.21 L191.9,618.21 L191.88,618.21 L191.85,618.21 L191.82,618.21 L191.8,618.21 L191.77,618.21 L191.74,618.21 L191.71,618.21 V617.9 C192.04,617.91,192.5,617.93,192.79,617.93 C193.08,617.93,193.49,617.91,193.88,617.9 V618.21 C193.21,618.21,193.1,618.21,193.1,618.65 V619.68 L193.74,620.23 C194.5,619.16,194.93,618.62,194.93,618.43 C194.93,618.24,194.75,618.21,194.57,618.21 V617.9 C194.85,617.91,195.43,617.93,195.65,617.93 C195.93,617.93,196.21,617.91,196.5,617.9 V618.21 C196.13,618.21,195.91,618.21,195.54,618.73 L194.27,620.51 C194.27,620.52,194.22,620.59,194.22,620.62 C194.22,620.66,194.93,621.26,195.02,621.34 C195.65,621.84,196.07,621.87,196.27,621.87 V622.18 C195.99,622.15,195.86,622.15,195.58,622.15 C195.22,622.15,194.6,622.16,194.47,622.18 V621.87 C194.66,621.87,194.75,621.76,194.75,621.62 C194.75,621.43,194.61,621.3,194.54,621.24 L193.13,620.02 V624.79 L191.71,624.68 V624.38 C192.4,624.38,192.47,624.3,192.47,623.82 Z " />
<path
   id="path5926"
   fill="red"
   stroke-width="0"
   stroke="red"
   d="M199.45,618.65 L199.45,618.61 L199.46,618.57 L199.46,618.54 L199.47,618.5 L199.48,618.46 L199.49,618.43 L199.5,618.39 L199.52,618.36 L199.53,618.32 L199.55,618.29 L199.56,618.25 L199.58,618.22 L199.6,618.19 L199.62,618.16 L199.64,618.13 L199.67,618.1 L199.69,618.07 L199.72,618.04 L199.75,618.01 L199.77,617.99 L199.8,617.97 L199.84,617.95 L199.87,617.93 L199.9,617.91 L199.94,617.89 L199.97,617.88 L200.01,617.87 L200.05,617.85 L200.09,617.85 L200.13,617.84 L200.17,617.84 L200.21,617.84 C200.43,617.84,201.03,617.98,201.03,618.79 V619.34 H200.79 V618.79 C200.79,618.21,200.54,618.15,200.43,618.15 C200.1,618.15,200.06,618.6,200.06,618.65 V620.63 C200.06,621.05,200.06,621.43,199.7,621.8 C199.31,622.2,198.82,622.35,198.34,622.35 C197.53,622.35,196.84,621.88,196.84,621.23 C196.84,620.93,197.04,620.76,197.29,620.76 C197.57,620.76,197.76,620.96,197.76,621.21 C197.76,621.34,197.7,621.66,197.25,621.68 C197.51,622.02,198.01,622.13,198.32,622.13 C198.81,622.13,199.37,621.74,199.37,620.85 V620.49 V620.29 V619.29 C199.37,618.35,198.65,618.01,198.21,618.01 C197.73,618.01,197.32,618.35,197.32,618.85 C197.32,619.4,197.73,620.23,199.37,620.29 H199.37 V620.49 C198.87,620.46,198.17,620.43,197.54,620.13 C196.81,619.79,196.56,619.27,196.56,618.84 C196.56,618.04,197.51,617.79,198.14,617.79 C198.79,617.79,199.26,618.18,199.45,618.65 Z " />
<path
   id="path5928"
   fill="red"
   stroke-width="0"
   stroke="red"
   d="M202.82,621.65 V624.79 L201.4,624.68 V624.38 C202.09,624.38,202.16,624.3,202.16,623.82 V617.9 H202.41 C202.43,617.91,202.51,618.05,202.77,618.51 C202.93,618.29,203.34,617.79,204.07,617.79 L204.04,618.01 C203.59,618.01,203.23,618.24,202.99,618.62 C202.85,618.82,202.85,618.85,202.85,619.02 H202.85 V621.07 C202.85,621.27,202.85,621.27,202.96,621.43 C203.35,621.99,203.9,622.07,204.13,622.07 C204.59,622.07,204.95,621.8,205.18,621.43 C205.45,621.02,205.46,620.46,205.46,620.05 C205.46,619.68,205.45,619.09,205.16,618.65 C204.95,618.34,204.57,618.01,204.04,618.01 L204.07,617.79 C205.26,617.79,206.29,618.76,206.29,620.04 C206.29,621.3,205.32,622.29,204.18,622.29 C203.41,622.29,202.99,621.82,202.82,621.65 Z " />
<path
   id="path5930"
   fill="red"
   stroke-width="0"
   stroke="red"
   d="M208.42,624.79 L206.98,624.68 V624.38 C207.67,624.38,207.76,624.3,207.76,623.82 V618.65 C207.76,618.21,207.65,618.21,206.98,618.21 V617.9 C207.31,617.91,207.84,617.93,208.09,617.93 C208.32,617.93,208.82,617.91,209.18,617.9 V618.21 C208.53,618.21,208.42,618.21,208.42,618.65 Z " />
<path
   id="path5932"
   fill="red"
   stroke-width="0"
   stroke="red"
   d="M210.53,620.2 V620.4 C210.59,621.88,211.42,622.13,211.76,622.13 C212.79,622.13,212.89,620.79,212.89,620.4 H210.53 V620.2 H213.29 C213.51,620.2,213.54,620.2,213.54,620.4 C213.54,621.38,213.01,622.35,211.76,622.35 C210.6,622.35,209.7,621.32,209.7,620.09 C209.7,618.76,210.75,617.79,211.89,617.79 C213.09,617.79,213.54,618.9,213.54,619.09 C213.54,619.18,213.46,619.2,213.42,619.2 C213.32,619.2,213.31,619.13,213.28,619.05 C212.93,618.04,212.04,618.04,211.93,618.04 C211.45,618.04,211.04,618.34,210.82,618.7 C210.53,619.18,210.53,619.84,210.53,620.2 Z " />
<path
   id="path5934"
   fill="red"
   stroke-width="0"
   stroke="red"
   d="M218.93,624.79 L217.49,624.68 V624.38 C218.18,624.38,218.27,624.3,218.27,623.82 V618.65 C218.27,618.21,218.16,618.21,217.49,618.21 V617.9 C217.82,617.91,218.35,617.93,218.6,617.93 C218.83,617.93,219.33,617.91,219.69,617.9 V618.21 C219.04,618.21,218.93,618.21,218.93,618.65 Z " />
<path
   id="path5936"
   fill="red"
   stroke-width="0"
   stroke="red"
   d="M221.69,622.29 L220.3,622.18 V621.87 C220.94,621.87,221.04,621.8,221.04,621.32 V618.65 C221.04,618.21,220.93,618.21,220.25,618.21 V617.9 C220.57,617.91,221.11,617.93,221.35,617.93 C221.69,617.93,222.04,617.91,222.38,617.9 V618.21 C221.72,618.21,221.69,618.26,221.69,618.65 Z " />
<path
   id="path5938"
   fill="red"
   stroke-width="0"
   stroke="red"
   d="M221.72,624.02 L221.72,624.05 L221.72,624.08 L221.72,624.11 L221.71,624.14 L221.71,624.16 L221.7,624.19 L221.69,624.21 L221.68,624.24 L221.67,624.26 L221.66,624.28 L221.64,624.3 L221.63,624.32 L221.61,624.34 L221.6,624.36 L221.58,624.38 L221.56,624.4 L221.54,624.41 L221.52,624.43 L221.5,624.44 L221.48,624.46 L221.46,624.47 L221.44,624.48 L221.42,624.49 L221.39,624.5 L221.37,624.51 L221.34,624.52 L221.32,624.52 L221.29,624.53 L221.27,624.53 L221.24,624.54 L221.22,624.54 L221.19,624.54 C220.9,624.54,220.68,624.27,220.68,624.02 C220.68,623.74,220.9,623.49,221.19,623.49 C221.47,623.49,221.72,623.7,221.72,624.02 Z " />
<path
   id="path5940"
   fill="red"
   stroke-width="0"
   stroke="red"
   d="M223.79,621.32 V618.65 C223.79,618.21,223.68,618.21,223,618.21 V617.9 C223.36,617.91,223.86,617.93,224.13,617.93 C224.4,617.93,224.91,617.91,225.24,617.9 V618.21 C224.58,618.21,224.47,618.21,224.47,618.65 V620.48 C224.47,621.51,225.18,622.07,225.82,622.07 C226.44,622.07,226.55,621.54,226.55,620.96 V618.65 C226.55,618.21,226.44,618.21,225.77,618.21 V617.9 C226.11,617.91,226.63,617.93,226.9,617.93 C227.15,617.93,227.68,617.91,228,617.9 V618.21 C227.35,618.21,227.24,618.21,227.24,618.65 V620.48 C227.24,621.51,227.94,622.07,228.57,622.07 C229.19,622.07,229.3,621.54,229.3,620.96 V618.65 C229.3,618.21,229.19,618.21,228.54,618.21 V617.9 C228.88,617.91,229.4,617.93,229.66,617.93 C229.91,617.93,230.43,617.91,230.77,617.9 V618.21 C230.25,618.21,230,618.21,229.99,618.51 V620.4 C229.99,621.26,229.99,621.57,229.69,621.91 C229.55,622.09,229.22,622.29,228.65,622.29 C227.8,622.29,227.36,621.7,227.21,621.32 C227.07,622.18,226.33,622.29,225.88,622.29 C225.16,622.29,224.69,621.87,224.41,621.24 V622.29 L223,622.18 V621.87 C223.71,621.87,223.79,621.8,223.79,621.32 Z " />
<path
   id="path5942"
   fill="red"
   stroke-width="0"
   stroke="red"
   d="M232.76,622.29 L231.37,622.18 V621.87 C232.01,621.87,232.1,621.8,232.1,621.32 V618.65 C232.1,618.21,231.99,618.21,231.32,618.21 V617.9 C231.63,617.91,232.18,617.93,232.41,617.93 C232.76,617.93,233.1,617.91,233.45,617.9 V618.21 C232.79,618.21,232.76,618.26,232.76,618.65 Z " />
<path
   id="path5944"
   fill="red"
   stroke-width="0"
   stroke="red"
   d="M232.79,624.02 L232.79,624.05 L232.79,624.08 L232.78,624.11 L232.78,624.14 L232.77,624.16 L232.76,624.19 L232.76,624.21 L232.75,624.24 L232.73,624.26 L232.72,624.28 L232.71,624.3 L232.7,624.32 L232.68,624.34 L232.66,624.36 L232.65,624.38 L232.63,624.4 L232.61,624.41 L232.59,624.43 L232.57,624.44 L232.55,624.46 L232.53,624.47 L232.51,624.48 L232.48,624.49 L232.46,624.5 L232.44,624.51 L232.41,624.52 L232.39,624.52 L232.36,624.53 L232.34,624.53 L232.31,624.54 L232.28,624.54 L232.26,624.54 C231.96,624.54,231.74,624.27,231.74,624.02 C231.74,623.74,231.96,623.49,232.26,623.49 C232.54,623.49,232.79,623.7,232.79,624.02 Z " />
<path
   id="path5946"
   fill="red"
   stroke-width="0"
   stroke="red"
   d="M235.48,621.87 H236.9 V622.18 H235.48 V624.01 H235.23 C235.21,623.2,234.91,622.13,233.95,622.09 V621.87 H234.79 V619.13 C234.79,617.91,235.71,617.79,236.07,617.79 C236.77,617.79,237.05,618.49,237.05,619.13 V619.7 H236.8 V619.15 C236.8,618.41,236.51,618.04,236.15,618.04 C235.48,618.04,235.48,618.95,235.48,619.12 Z " />
</g>  </g>
</svg>
