<?xml version="1.0" encoding="UTF-8" standalone="no"?>
<!-- Created with Inkscape (http://www.inkscape.org/) -->

<svg
   xmlns:ns0="http://www.iki.fi/pav/software/textext/"
   xmlns:dc="http://purl.org/dc/elements/1.1/"
   xmlns:cc="http://creativecommons.org/ns#"
   xmlns:rdf="http://www.w3.org/1999/02/22-rdf-syntax-ns#"
   xmlns:svg="http://www.w3.org/2000/svg"
   xmlns="http://www.w3.org/2000/svg"
   xmlns:sodipodi="http://sodipodi.sourceforge.net/DTD/sodipodi-0.dtd"
   xmlns:inkscape="http://www.inkscape.org/namespaces/inkscape"
   width="210mm"
   height="297mm"
   viewBox="0 0 210 296.99999"
   version="1.1"
   id="svg8"
   inkscape:version="0.92.3 (2405546, 2018-03-11)"
   sodipodi:docname="modified.svg">
  <sodipodi:namedview
     id="base"
     pagecolor="#ffffff"
     bordercolor="#666666"
     borderopacity="1.0"
     inkscape:pageopacity="0.0"
     inkscape:pageshadow="2"
     inkscape:zoom="0.78013213"
     inkscape:cx="33.291102"
     inkscape:cy="536.67706"
     inkscape:document-units="mm"
     inkscape:current-layer="layer1"
     showgrid="false"
     inkscape:window-width="1276"
     inkscape:window-height="1007"
     inkscape:window-x="0"
     inkscape:window-y="0"
     inkscape:window-maximized="0" />
  <defs
     id="defs2" />
  <metadata
     id="metadata5">
    <rdf:RDF>
      <cc:Work
         rdf:about="">
        <dc:format>image/svg+xml</dc:format>
        <dc:type
           rdf:resource="http://purl.org/dc/dcmitype/StillImage" />
        <dc:title />
      </cc:Work>
    </rdf:RDF>
  </metadata>
  <g
     inkscape:label="Layer 1"
     inkscape:groupmode="layer"
     id="layer1">
    <g
       ns0:inkscapeversion="0.92.3"
       ns0:scale="1.0"
       ns0:preamble="/home/sergei/.config/inkscape/extensions/default_packages.tex"
       ns0:text="$$\\lim_{y \\to 0} \\frac{\\sin(y)}{y} = 1$$"
       ns0:pdfconverter="pstoedit"
       ns0:texconverter="pdflatex"
       ns0:version="0.7.2"
       text-anchor="start"
       word-spacing="normal"
       letter-spacing="normal"
       font-size-adjust="none"
       font-stretch="normal"
       font-weight="normal"
       font-variant="normal"
       font-style="normal"
       fill-opacity="1"
       fill-rule="evenodd"
       fill="black"
       stroke-opacity="1"
       stroke-dashoffset="0"
       stroke-dasharray="none"
       stroke-miterlimit="10.433"
       stroke-linejoin="miter"
       stroke-linecap="butt"
       stroke="black"
       xml:space="preserve"
       transform="matrix(0.352778,   0,   0,  -0.352778, -2.734737, 393.532235)"
       id="content">
<path
   id="path835"
   word-spacing="normal"
   text-anchor="start"
   stroke-opacity="1"
   stroke-miterlimit="10.433"
   stroke-linejoin="miter"
   stroke-linecap="butt"
   stroke-dasharray="none"
   stroke="black"
   letter-spacing="normal"
   font-weight="normal"
   font-variant="normal"
   font-style="normal"
   font-stretch="normal"
   font-size-adjust="none"
   fill-rule="evenodd"
   fill-opacity="1"
   fill="black"
   stroke-width="0"
   d="M276.7,698.81 L275.27,698.7 V698.39 C275.96,698.39,276.04,698.32,276.04,697.84 V692.67 C276.04,692.22,275.93,692.22,275.27,692.22 V691.92 C275.59,691.93,276.12,691.95,276.37,691.95 C276.62,691.95,277.11,691.93,277.48,691.92 V692.22 C276.81,692.22,276.7,692.22,276.7,692.67 Z " />
<path
   id="path837"
   word-spacing="normal"
   text-anchor="start"
   stroke-opacity="1"
   stroke-miterlimit="10.433"
   stroke-linejoin="miter"
   stroke-linecap="butt"
   stroke-dasharray="none"
   stroke="black"
   letter-spacing="normal"
   font-weight="normal"
   font-variant="normal"
   font-style="normal"
   font-stretch="normal"
   font-size-adjust="none"
   fill-rule="evenodd"
   fill-opacity="1"
   fill="black"
   stroke-width="0"
   d="M279.47,696.31 L278.07,696.2 V695.89 C278.72,695.89,278.81,695.83,278.81,695.34 V692.67 C278.81,692.22,278.7,692.22,278.03,692.22 V691.92 C278.35,691.93,278.89,691.95,279.13,691.95 C279.48,691.95,279.83,691.93,280.17,691.92 V692.22 C279.51,692.22,279.47,692.28,279.47,692.66 Z " />
<path
   id="path839"
   word-spacing="normal"
   text-anchor="start"
   stroke-opacity="1"
   stroke-miterlimit="10.433"
   stroke-linejoin="miter"
   stroke-linecap="butt"
   stroke-dasharray="none"
   stroke="black"
   letter-spacing="normal"
   font-weight="normal"
   font-variant="normal"
   font-style="normal"
   font-stretch="normal"
   font-size-adjust="none"
   fill-rule="evenodd"
   fill-opacity="1"
   fill="black"
   stroke-width="0"
   d="M279.51,698.04 L279.51,698.07 L279.51,698.09 L279.5,698.12 L279.5,698.15 L279.49,698.18 L279.48,698.2 L279.48,698.23 L279.47,698.25 L279.45,698.28 L279.44,698.3 L279.43,698.32 L279.42,698.34 L279.4,698.36 L279.38,698.38 L279.37,698.4 L279.35,698.42 L279.33,698.44 L279.31,698.45 L279.29,698.47 L279.27,698.48 L279.25,698.49 L279.23,698.5 L279.2,698.52 L279.18,698.53 L279.16,698.53 L279.13,698.54 L279.11,698.55 L279.08,698.55 L279.06,698.56 L279.03,698.56 L279.01,698.56 L278.98,698.56 C278.67,698.56,278.45,698.29,278.45,698.04 C278.45,697.77,278.67,697.51,278.98,697.51 C279.26,697.51,279.51,697.72,279.51,698.04 Z " />
<path
   id="path841"
   word-spacing="normal"
   text-anchor="start"
   stroke-opacity="1"
   stroke-miterlimit="10.433"
   stroke-linejoin="miter"
   stroke-linecap="butt"
   stroke-dasharray="none"
   stroke="black"
   letter-spacing="normal"
   font-weight="normal"
   font-variant="normal"
   font-style="normal"
   font-stretch="normal"
   font-size-adjust="none"
   fill-rule="evenodd"
   fill-opacity="1"
   fill="black"
   stroke-width="0"
   d="M281.57,695.33 V692.67 C281.57,692.22,281.46,692.22,280.79,692.22 V691.92 C281.14,691.93,281.65,691.95,281.92,691.95 C282.18,691.95,282.7,691.93,283.03,691.92 V692.22 C282.37,692.22,282.26,692.22,282.26,692.67 V694.5 C282.26,695.53,282.96,696.09,283.6,696.09 C284.23,696.09,284.34,695.55,284.34,694.99 V692.67 C284.34,692.22,284.23,692.22,283.56,692.22 V691.92 C283.91,691.93,284.42,691.95,284.69,691.95 C284.95,691.95,285.47,691.93,285.81,691.92 V692.22 C285.14,692.22,285.03,692.22,285.03,692.67 V694.5 C285.03,695.53,285.74,696.09,286.38,696.09 C287,696.09,287.11,695.55,287.11,694.99 V692.67 C287.11,692.22,287,692.22,286.33,692.22 V691.92 C286.68,691.93,287.19,691.95,287.46,691.95 C287.72,691.95,288.24,691.93,288.58,691.92 V692.22 C288.06,692.22,287.81,692.22,287.8,692.52 V694.42 C287.8,695.28,287.8,695.58,287.49,695.94 C287.35,696.11,287.02,696.31,286.44,696.31 C285.61,696.31,285.17,695.71,285,695.33 C284.86,696.2,284.12,696.31,283.67,696.31 C282.94,696.31,282.48,695.88,282.2,695.27 V696.31 L280.79,696.2 V695.89 C281.49,695.89,281.57,695.82,281.57,695.33 Z " />
<path
   id="path843"
   word-spacing="normal"
   text-anchor="start"
   stroke-opacity="1"
   stroke-miterlimit="10.433"
   stroke-linejoin="miter"
   stroke-linecap="butt"
   stroke-dasharray="none"
   stroke="black"
   letter-spacing="normal"
   font-weight="normal"
   font-variant="normal"
   font-style="normal"
   font-stretch="normal"
   font-size-adjust="none"
   fill-rule="evenodd"
   fill-opacity="1"
   fill="black"
   stroke-width="0"
   d="M277.64,688.38 L277.64,688.39 L277.64,688.39 L277.64,688.4 L277.64,688.4 L277.65,688.41 L277.65,688.41 L277.65,688.42 L277.65,688.42 L277.65,688.43 L277.65,688.44 L277.66,688.44 L277.66,688.45 L277.66,688.45 L277.66,688.46 L277.66,688.46 L277.66,688.47 L277.66,688.47 L277.66,688.48 L277.66,688.48 L277.66,688.48 L277.66,688.49 L277.67,688.49 L277.67,688.5 L277.67,688.5 L277.67,688.51 L277.67,688.52 L277.67,688.52 L277.67,688.53 L277.67,688.53 L277.67,688.53 L277.67,688.54 C277.67,688.68,277.56,688.76,277.44,688.76 C277.36,688.76,277.23,688.72,277.15,688.59 C277.13,688.55,277.07,688.33,277.04,688.19 L276.89,687.61 C276.85,687.45,276.63,686.57,276.61,686.49 C276.61,686.49,276.3,685.89,275.75,685.89 C275.28,685.89,275.28,686.34,275.28,686.46 C275.28,686.84,275.44,687.28,275.65,687.81 C275.73,688.04,275.77,688.12,275.77,688.24 C275.77,688.57,275.48,688.83,275.1,688.83 C274.39,688.83,274.08,687.88,274.08,687.77 C274.08,687.67,274.18,687.67,274.2,687.67 C274.3,687.67,274.3,687.71,274.33,687.78 C274.5,688.36,274.8,688.63,275.08,688.63 C275.2,688.63,275.26,688.56,275.26,688.39 C275.26,688.23,275.19,688.08,275.16,687.99 C274.82,687.14,274.75,686.88,274.75,686.58 C274.75,686.46,274.75,686.13,275.02,685.91 C275.24,685.73,275.54,685.69,275.72,685.69 C276,685.69,276.26,685.8,276.49,686.01 C276.39,685.62,276.32,685.33,276.02,684.98 C275.84,684.77,275.56,684.54,275.18,684.54 C275.14,684.54,274.81,684.54,274.66,684.77 C275.04,684.81,275.04,685.14,275.04,685.15 C275.04,685.37,274.84,685.41,274.77,685.41 C274.59,685.41,274.36,685.28,274.36,684.96 C274.36,684.6,274.7,684.34,275.19,684.34 C275.9,684.34,276.76,684.89,276.98,685.76 Z " />
<path
   id="path845"
   word-spacing="normal"
   text-anchor="start"
   stroke-opacity="1"
   stroke-miterlimit="10.433"
   stroke-linejoin="miter"
   stroke-linecap="butt"
   stroke-dasharray="none"
   stroke="black"
   letter-spacing="normal"
   font-weight="normal"
   font-variant="normal"
   font-style="normal"
   font-stretch="normal"
   font-size-adjust="none"
   fill-rule="evenodd"
   fill-opacity="1"
   fill="black"
   stroke-width="0"
   d="M284.48,687.33 L284.4,687.27 L284.32,687.21 L284.25,687.15 L284.18,687.08 L284.12,687.02 L284.06,686.95 L284,686.89 L283.95,686.82 L283.9,686.76 L283.85,686.69 L283.81,686.63 L283.77,686.56 L283.74,686.5 L283.7,686.44 L283.67,686.38 L283.65,686.32 L283.62,686.26 L283.6,686.21 L283.58,686.15 L283.56,686.1 L283.54,686.06 L283.53,686.01 L283.52,685.97 L283.51,685.93 L283.5,685.9 L283.49,685.87 L283.49,685.84 L283.48,685.82 L283.48,685.8 L283.48,685.79 L283.48,685.78 L283.48,685.78 C283.48,685.67,283.55,685.67,283.64,685.67 C283.77,685.67,283.79,685.67,283.83,685.79 C283.87,685.96,283.98,686.41,284.34,686.79 C284.75,687.22,285.1,687.32,285.39,687.41 C285.43,687.42,285.46,687.47,285.46,687.5 C285.46,687.57,285.42,687.58,285.33,687.61 C284.32,687.93,283.96,688.64,283.82,689.25 C283.79,689.34,283.74,689.34,283.64,689.34 C283.55,689.34,283.48,689.34,283.48,689.23 C283.48,689.22,283.55,688.75,283.89,688.27 C284.05,688.04,284.24,687.84,284.48,687.67 H278.86 C278.75,687.67,278.58,687.67,278.58,687.51 C278.58,687.33,278.74,687.33,278.86,687.33 Z " />
<path
   id="path847"
   word-spacing="normal"
   text-anchor="start"
   stroke-opacity="1"
   stroke-miterlimit="10.433"
   stroke-linejoin="miter"
   stroke-linecap="butt"
   stroke-dasharray="none"
   stroke="black"
   letter-spacing="normal"
   font-weight="normal"
   font-variant="normal"
   font-style="normal"
   font-stretch="normal"
   font-size-adjust="none"
   fill-rule="evenodd"
   fill-opacity="1"
   fill="black"
   stroke-width="0"
   d="M289.59,687.98 L289.59,688.12 L289.59,688.26 L289.58,688.39 L289.57,688.52 L289.56,688.64 L289.55,688.76 L289.53,688.87 L289.51,688.98 L289.48,689.09 L289.45,689.2 L289.42,689.3 L289.38,689.4 L289.34,689.5 L289.29,689.6 L289.24,689.69 L289.21,689.74 L289.18,689.78 C288.96,690.1,288.53,690.38,287.97,690.38 V690.18 C288.35,690.18,288.71,689.96,288.84,689.55 C288.95,689.18,288.96,688.68,288.96,688.07 C288.96,687.56,288.96,687.04,288.87,686.6 C288.73,685.97,288.25,685.82,287.97,685.82 H287.97 C287.65,685.82,287.22,686.01,287.08,686.58 C286.98,686.99,286.98,687.56,286.98,688.07 C286.98,688.58,286.98,689.11,287.09,689.49 C287.24,690.04,287.68,690.18,287.97,690.18 V690.38 C286.35,690.38,286.35,688.48,286.35,687.98 C286.35,687.48,286.35,685.62,287.97,685.62 C289.59,685.62,289.59,687.48,289.59,687.98 Z " />
<path
   id="path849"
   word-spacing="normal"
   text-anchor="start"
   stroke-opacity="1"
   stroke-miterlimit="10.433"
   stroke-linejoin="miter"
   stroke-linecap="butt"
   stroke-dasharray="none"
   stroke="black"
   letter-spacing="normal"
   font-weight="normal"
   font-variant="normal"
   font-style="normal"
   font-stretch="normal"
   font-size-adjust="none"
   fill-rule="evenodd"
   fill-opacity="1"
   fill="black"
   stroke-width="0"
   d="M294.89,700.58 L294.91,700.58 L294.93,700.57 L294.96,700.57 L294.99,700.56 L295.03,700.55 L295.06,700.55 L295.1,700.54 L295.14,700.52 L295.18,700.51 L295.22,700.5 L295.27,700.48 L295.31,700.47 L295.36,700.45 L295.4,700.43 L295.44,700.4 L295.49,700.38 L295.53,700.35 L295.57,700.33 L295.61,700.3 L295.65,700.26 L295.69,700.23 L295.73,700.19 L295.76,700.15 L295.79,700.11 L295.82,700.06 L295.83,700.04 L295.85,700.02 L295.86,699.99 L295.87,699.97 L295.88,699.94 L295.89,699.91 L295.9,699.89 L295.9,699.86 L295.91,699.83 L295.91,699.8 L295.92,699.77 L295.92,699.74 L295.92,699.7 L295.92,699.67 C295.92,699.16,295.58,698.77,294.8,698.77 C293.96,698.77,293.6,699.33,293.41,700.18 C293.38,700.31,293.37,700.35,293.27,700.35 C293.14,700.35,293.14,700.28,293.14,700.1 V698.79 C293.14,698.62,293.14,698.55,293.25,698.55 C293.3,698.55,293.31,698.56,293.5,698.75 C293.52,698.77,293.52,698.79,293.7,698.97 C294.14,698.56,294.59,698.55,294.8,698.55 C295.94,698.55,296.4,699.21,296.4,699.93 C296.4,700.46,296.1,700.75,295.98,700.87 C295.65,701.19,295.27,701.27,294.85,701.35 C294.29,701.46,293.62,701.59,293.62,702.16 C293.62,702.51,293.88,702.92,294.74,702.92 C295.83,702.92,295.88,702.03,295.9,701.72 C295.91,701.63,296,701.63,296.02,701.63 C296.15,701.63,296.15,701.68,296.15,701.87 V702.87 C296.15,703.04,296.15,703.11,296.04,703.11 C295.99,703.11,295.97,703.11,295.85,702.99 C295.82,702.95,295.71,702.86,295.67,702.83 C295.3,703.11,294.89,703.11,294.74,703.11 C293.52,703.11,293.14,702.44,293.14,701.89 C293.14,701.54,293.3,701.26,293.57,701.04 C293.89,700.78,294.17,700.72,294.89,700.58 Z " />
<path
   id="path851"
   word-spacing="normal"
   text-anchor="start"
   stroke-opacity="1"
   stroke-miterlimit="10.433"
   stroke-linejoin="miter"
   stroke-linecap="butt"
   stroke-dasharray="none"
   stroke="black"
   letter-spacing="normal"
   font-weight="normal"
   font-variant="normal"
   font-style="normal"
   font-stretch="normal"
   font-size-adjust="none"
   fill-rule="evenodd"
   fill-opacity="1"
   fill="black"
   stroke-width="0"
   d="M298.51,703.05 L297.11,702.94 V702.63 C297.76,702.63,297.85,702.57,297.85,702.08 V699.41 C297.85,698.97,297.74,698.97,297.07,698.97 V698.66 C297.39,698.67,297.93,698.69,298.17,698.69 C298.52,698.69,298.87,698.67,299.2,698.66 V698.97 C298.55,698.97,298.51,699.02,298.51,699.4 Z " />
<path
   id="path853"
   word-spacing="normal"
   text-anchor="start"
   stroke-opacity="1"
   stroke-miterlimit="10.433"
   stroke-linejoin="miter"
   stroke-linecap="butt"
   stroke-dasharray="none"
   stroke="black"
   letter-spacing="normal"
   font-weight="normal"
   font-variant="normal"
   font-style="normal"
   font-stretch="normal"
   font-size-adjust="none"
   fill-rule="evenodd"
   fill-opacity="1"
   fill="black"
   stroke-width="0"
   d="M298.55,704.78 L298.55,704.81 L298.54,704.83 L298.54,704.86 L298.54,704.89 L298.53,704.92 L298.52,704.94 L298.51,704.97 L298.5,704.99 L298.49,705.02 L298.48,705.04 L298.47,705.06 L298.45,705.08 L298.44,705.1 L298.42,705.12 L298.41,705.14 L298.39,705.16 L298.37,705.18 L298.35,705.19 L298.33,705.21 L298.31,705.22 L298.29,705.23 L298.27,705.24 L298.24,705.26 L298.22,705.27 L298.2,705.27 L298.17,705.28 L298.15,705.29 L298.12,705.29 L298.1,705.3 L298.07,705.3 L298.05,705.3 L298.02,705.3 C297.71,705.3,297.49,705.03,297.49,704.78 C297.49,704.51,297.71,704.25,298.02,704.25 C298.3,704.25,298.55,704.46,298.55,704.78 Z " />
<path
   id="path855"
   word-spacing="normal"
   text-anchor="start"
   stroke-opacity="1"
   stroke-miterlimit="10.433"
   stroke-linejoin="miter"
   stroke-linecap="butt"
   stroke-dasharray="none"
   stroke="black"
   letter-spacing="normal"
   font-weight="normal"
   font-variant="normal"
   font-style="normal"
   font-stretch="normal"
   font-size-adjust="none"
   fill-rule="evenodd"
   fill-opacity="1"
   fill="black"
   stroke-width="0"
   d="M300.61,702.07 V699.41 C300.61,698.97,300.5,698.97,299.83,698.97 V698.66 C300.18,698.67,300.69,698.69,300.96,698.69 C301.21,698.69,301.73,698.67,302.07,698.66 V698.97 C301.4,698.97,301.3,698.97,301.3,699.41 V701.24 C301.3,702.27,302,702.83,302.64,702.83 C303.27,702.83,303.38,702.29,303.38,701.73 V699.41 C303.38,698.97,303.27,698.97,302.6,698.97 V698.66 C302.95,698.67,303.46,698.69,303.73,698.69 C303.99,698.69,304.51,698.67,304.85,698.66 V698.97 C304.33,698.97,304.08,698.97,304.07,699.26 V701.16 C304.07,702.02,304.07,702.32,303.76,702.68 C303.62,702.85,303.29,703.05,302.71,703.05 C301.98,703.05,301.51,702.62,301.23,702.01 V703.05 L299.83,702.94 V702.63 C300.53,702.63,300.61,702.56,300.61,702.07 Z " />
<path
   id="path857"
   word-spacing="normal"
   text-anchor="start"
   stroke-opacity="1"
   stroke-miterlimit="10.433"
   stroke-linejoin="miter"
   stroke-linecap="butt"
   stroke-dasharray="none"
   stroke="black"
   letter-spacing="normal"
   font-weight="normal"
   font-variant="normal"
   font-style="normal"
   font-stretch="normal"
   font-size-adjust="none"
   fill-rule="evenodd"
   fill-opacity="1"
   fill="black"
   stroke-width="0"
   d="M308.35,696.27 L308.35,696.28 L308.35,696.28 L308.35,696.29 L308.34,696.29 L308.34,696.29 L308.34,696.3 L308.34,696.3 L308.34,696.3 L308.34,696.31 L308.34,696.31 L308.33,696.32 L308.33,696.32 L308.33,696.32 L308.32,696.33 L308.32,696.34 L308.32,696.34 L308.31,696.35 L308.3,696.36 L308.3,696.36 L308.3,696.36 L308.29,696.37 L308.29,696.37 L308.29,696.38 L308.28,696.38 L308.28,696.39 L308.27,696.39 L308.27,696.4 L308.26,696.4 L308.26,696.41 L308.25,696.41 L308.25,696.42 L308.24,696.42 L308.24,696.43 L308.23,696.43 L308.23,696.44 L308.22,696.45 L308.21,696.45 L308.21,696.46 L308.2,696.47 L308.19,696.48 L308.18,696.48 L308.18,696.49 C306.93,697.74,306.61,699.62,306.61,701.14 C306.61,702.87,306.99,704.6,308.22,705.84 C308.35,705.96,308.35,705.98,308.35,706.01 C308.35,706.08,308.31,706.11,308.25,706.11 C308.15,706.11,307.25,705.43,306.66,704.17 C306.15,703.08,306.03,701.97,306.03,701.14 C306.03,700.37,306.14,699.16,306.69,698.04 C307.29,696.82,308.15,696.17,308.25,696.17 C308.31,696.17,308.35,696.2,308.35,696.27 Z " />
<path
   id="path859"
   word-spacing="normal"
   text-anchor="start"
   stroke-opacity="1"
   stroke-miterlimit="10.433"
   stroke-linejoin="miter"
   stroke-linecap="butt"
   stroke-dasharray="none"
   stroke="black"
   letter-spacing="normal"
   font-weight="normal"
   font-variant="normal"
   font-style="normal"
   font-stretch="normal"
   font-size-adjust="none"
   fill-rule="evenodd"
   fill-opacity="1"
   fill="black"
   stroke-width="0"
   d="M313.77,702.44 L313.77,702.45 L313.77,702.45 L313.77,702.46 L313.77,702.47 L313.78,702.48 L313.78,702.49 L313.78,702.5 L313.78,702.51 L313.79,702.52 L313.79,702.53 L313.79,702.53 L313.79,702.54 L313.79,702.55 L313.8,702.56 L313.8,702.56 L313.8,702.57 L313.8,702.58 L313.8,702.58 L313.8,702.59 L313.8,702.59 L313.8,702.6 L313.8,702.6 L313.8,702.61 L313.8,702.62 L313.8,702.64 L313.8,702.65 L313.8,702.65 L313.8,702.66 L313.8,702.66 L313.8,702.67 C313.8,702.85,313.67,702.94,313.52,702.94 C313.42,702.94,313.26,702.88,313.17,702.73 C313.15,702.68,313.07,702.37,313.03,702.19 C312.96,701.93,312.89,701.67,312.83,701.4 L312.38,699.61 C312.34,699.46,311.91,698.77,311.25,698.77 C310.74,698.77,310.63,699.2,310.63,699.57 C310.63,700.03,310.8,700.64,311.14,701.52 C311.3,701.92,311.34,702.03,311.34,702.23 C311.34,702.68,311.02,703.05,310.52,703.05 C309.58,703.05,309.21,701.61,309.21,701.52 C309.21,701.42,309.31,701.42,309.33,701.42 C309.43,701.42,309.44,701.44,309.49,701.6 C309.76,702.53,310.16,702.83,310.49,702.83 C310.57,702.83,310.74,702.83,310.74,702.51 C310.74,702.26,310.64,702.01,310.57,701.82 C310.17,700.76,310,700.2,310,699.73 C310,698.85,310.62,698.55,311.21,698.55 C311.6,698.55,311.94,698.72,312.22,698.99 C312.09,698.48,311.97,697.99,311.57,697.47 C311.31,697.13,310.93,696.84,310.48,696.84 C310.33,696.84,309.89,696.87,309.72,697.26 C309.88,697.26,310.01,697.26,310.15,697.38 C310.24,697.47,310.35,697.59,310.35,697.78 C310.35,698.09,310.08,698.13,309.98,698.13 C309.75,698.13,309.42,697.97,309.42,697.48 C309.42,696.99,309.86,696.62,310.48,696.62 C311.5,696.62,312.53,697.52,312.81,698.65 Z " />
<path
   id="path861"
   word-spacing="normal"
   text-anchor="start"
   stroke-opacity="1"
   stroke-miterlimit="10.433"
   stroke-linejoin="miter"
   stroke-linecap="butt"
   stroke-dasharray="none"
   stroke="black"
   letter-spacing="normal"
   font-weight="normal"
   font-variant="normal"
   font-style="normal"
   font-stretch="normal"
   font-size-adjust="none"
   fill-rule="evenodd"
   fill-opacity="1"
   fill="black"
   stroke-width="0"
   d="M317.04,701.14 L317.04,701.21 L317.04,701.29 L317.04,701.37 L317.04,701.45 L317.03,701.62 L317.02,701.79 L317,701.98 L316.98,702.17 L316.95,702.36 L316.92,702.56 L316.88,702.76 L316.83,702.97 L316.78,703.18 L316.72,703.39 L316.65,703.6 L316.57,703.82 L316.53,703.92 L316.48,704.03 L316.44,704.13 L316.39,704.24 C315.79,705.46,314.93,706.11,314.83,706.11 C314.77,706.11,314.73,706.07,314.73,706.01 C314.73,705.98,314.73,705.96,314.92,705.78 C315.9,704.8,316.46,703.22,316.46,701.14 C316.46,699.44,316.1,697.69,314.86,696.44 C314.73,696.32,314.73,696.3,314.73,696.27 C314.73,696.21,314.77,696.17,314.83,696.17 C314.93,696.17,315.83,696.85,316.42,698.11 C316.92,699.2,317.04,700.31,317.04,701.14 Z " />
<line
   id="line863"
   word-spacing="normal"
   text-anchor="start"
   stroke-opacity="1"
   stroke-miterlimit="10.433"
   stroke-linejoin="miter"
   stroke-linecap="butt"
   stroke-dasharray="none"
   stroke="black"
   letter-spacing="normal"
   font-weight="normal"
   font-variant="normal"
   font-style="normal"
   font-stretch="normal"
   font-size-adjust="none"
   fill-rule="evenodd"
   fill-opacity="1"
   fill="black"
   stroke-width="0.398"
   y2="694.41"
   x2="318.04"
   y1="694.41"
   x1="292.81" />
<path
   id="path865"
   word-spacing="normal"
   text-anchor="start"
   stroke-opacity="1"
   stroke-miterlimit="10.433"
   stroke-linejoin="miter"
   stroke-linecap="butt"
   stroke-dasharray="none"
   stroke="black"
   letter-spacing="normal"
   font-weight="normal"
   font-variant="normal"
   font-style="normal"
   font-stretch="normal"
   font-size-adjust="none"
   fill-rule="evenodd"
   fill-opacity="1"
   fill="black"
   stroke-width="0"
   d="M307.65,688.87 L307.65,688.87 L307.65,688.88 L307.65,688.89 L307.66,688.89 L307.66,688.9 L307.66,688.91 L307.66,688.93 L307.67,688.93 L307.67,688.94 L307.67,688.95 L307.67,688.96 L307.68,688.97 L307.68,688.98 L307.68,688.98 L307.68,688.99 L307.68,689 L307.68,689 L307.68,689.01 L307.68,689.01 L307.69,689.02 L307.69,689.02 L307.69,689.03 L307.69,689.04 L307.69,689.05 L307.69,689.06 L307.69,689.07 L307.69,689.08 L307.69,689.08 L307.69,689.09 L307.69,689.1 C307.69,689.28,307.55,689.36,307.4,689.36 C307.3,689.36,307.14,689.3,307.05,689.16 C307.03,689.11,306.95,688.8,306.91,688.62 C306.84,688.36,306.77,688.09,306.71,687.83 L306.26,686.04 C306.22,685.89,305.8,685.19,305.14,685.19 C304.63,685.19,304.52,685.63,304.52,686 C304.52,686.45,304.69,687.07,305.03,687.94 C305.19,688.35,305.23,688.46,305.23,688.66 C305.23,689.11,304.91,689.47,304.41,689.47 C303.46,689.47,303.09,688.03,303.09,687.94 C303.09,687.84,303.19,687.84,303.21,687.84 C303.31,687.84,303.32,687.86,303.37,688.02 C303.64,688.96,304.04,689.26,304.38,689.26 C304.46,689.26,304.63,689.26,304.63,688.94 C304.63,688.69,304.53,688.43,304.46,688.24 C304.06,687.19,303.88,686.62,303.88,686.16 C303.88,685.27,304.51,684.97,305.1,684.97 C305.49,684.97,305.83,685.14,306.1,685.42 C305.97,684.9,305.85,684.42,305.46,683.89 C305.2,683.55,304.82,683.27,304.36,683.27 C304.22,683.27,303.77,683.29,303.6,683.68 C303.76,683.68,303.89,683.68,304.03,683.8 C304.13,683.89,304.23,684.02,304.23,684.21 C304.23,684.52,303.96,684.56,303.86,684.56 C303.63,684.56,303.3,684.4,303.3,683.91 C303.3,683.41,303.74,683.05,304.36,683.05 C305.39,683.05,306.41,683.95,306.69,685.07 Z " />
<path
   id="path867"
   word-spacing="normal"
   text-anchor="start"
   stroke-opacity="1"
   stroke-miterlimit="10.433"
   stroke-linejoin="miter"
   stroke-linecap="butt"
   stroke-dasharray="none"
   stroke="black"
   letter-spacing="normal"
   font-weight="normal"
   font-variant="normal"
   font-style="normal"
   font-stretch="normal"
   font-size-adjust="none"
   fill-rule="evenodd"
   fill-opacity="1"
   fill="black"
   stroke-width="0"
   d="M328.85,695.16 L328.88,695.17 L328.91,695.17 L328.94,695.17 L328.95,695.17 L328.96,695.17 L328.98,695.17 L328.99,695.17 L329.01,695.17 L329.02,695.18 L329.04,695.18 L329.05,695.18 L329.06,695.19 L329.07,695.19 L329.09,695.19 L329.1,695.2 L329.11,695.21 L329.12,695.21 L329.13,695.22 L329.14,695.23 L329.15,695.24 L329.16,695.25 L329.16,695.25 L329.16,695.26 L329.17,695.27 L329.17,695.27 L329.17,695.28 L329.17,695.28 L329.18,695.29 L329.18,695.3 L329.18,695.31 L329.18,695.31 L329.18,695.32 L329.19,695.33 L329.19,695.34 L329.19,695.35 L329.19,695.35 L329.19,695.36 C329.19,695.56,329,695.56,328.86,695.56 H322.89 C322.75,695.56,322.56,695.56,322.56,695.36 C322.56,695.16,322.75,695.16,322.9,695.16 Z " />
<path
   id="path869"
   word-spacing="normal"
   text-anchor="start"
   stroke-opacity="1"
   stroke-miterlimit="10.433"
   stroke-linejoin="miter"
   stroke-linecap="butt"
   stroke-dasharray="none"
   stroke="black"
   letter-spacing="normal"
   font-weight="normal"
   font-variant="normal"
   font-style="normal"
   font-stretch="normal"
   font-size-adjust="none"
   fill-rule="evenodd"
   fill-opacity="1"
   fill="black"
   stroke-width="0"
   d="M328.86,693.24 L328.87,693.24 L328.89,693.24 L328.91,693.24 L328.94,693.24 L328.96,693.24 L328.97,693.24 L328.98,693.24 L329,693.24 L329.01,693.25 L329.02,693.25 L329.04,693.25 L329.05,693.25 L329.06,693.26 L329.08,693.26 L329.09,693.27 L329.1,693.27 L329.11,693.28 L329.12,693.29 L329.13,693.29 L329.14,693.3 L329.15,693.31 L329.15,693.32 L329.16,693.32 L329.16,693.33 L329.16,693.33 L329.17,693.34 L329.17,693.34 L329.17,693.35 L329.17,693.36 L329.18,693.36 L329.18,693.37 L329.18,693.38 L329.18,693.39 L329.18,693.39 L329.19,693.4 L329.19,693.41 L329.19,693.42 L329.19,693.43 L329.19,693.44 C329.19,693.64,329,693.64,328.85,693.64 H322.9 C322.75,693.64,322.56,693.64,322.56,693.44 C322.56,693.24,322.75,693.24,322.89,693.24 Z " />
<path
   id="path871"
   word-spacing="normal"
   text-anchor="start"
   stroke-opacity="1"
   stroke-miterlimit="10.433"
   stroke-linejoin="miter"
   stroke-linecap="butt"
   stroke-dasharray="none"
   stroke="black"
   letter-spacing="normal"
   font-weight="normal"
   font-variant="normal"
   font-style="normal"
   font-stretch="normal"
   font-size-adjust="none"
   fill-rule="evenodd"
   fill-opacity="1"
   fill="black"
   stroke-width="0"
   d="M335.45,698.28 L335.45,698.29 L335.45,698.3 L335.45,698.31 L335.45,698.32 L335.45,698.33 L335.45,698.34 L335.45,698.35 L335.45,698.35 L335.45,698.36 L335.45,698.37 L335.45,698.38 L335.45,698.39 L335.45,698.39 L335.45,698.4 L335.45,698.41 L335.44,698.42 L335.44,698.42 L335.44,698.43 L335.44,698.44 L335.44,698.45 L335.44,698.46 L335.43,698.47 L335.43,698.48 L335.42,698.49 L335.42,698.49 L335.41,698.5 L335.41,698.5 L335.4,698.51 L335.39,698.51 L335.38,698.52 L335.38,698.52 L335.37,698.52 L335.37,698.52 L335.36,698.52 L335.36,698.53 L335.35,698.53 L335.35,698.53 L335.34,698.53 L335.33,698.53 L335.33,698.53 L335.32,698.53 L335.31,698.53 L335.3,698.53 L335.29,698.53 L335.29,698.53 L335.28,698.53 L335.27,698.53 L335.26,698.53 L335.25,698.53 L335.24,698.53 L335.23,698.53 L335.22,698.53 C334.6,697.9,333.72,697.9,333.4,697.9 V697.59 C333.6,697.59,334.19,697.59,334.71,697.85 V692.7 C334.71,692.34,334.68,692.22,333.78,692.22 H333.46 V691.92 C333.81,691.95,334.68,691.95,335.08,691.95 C335.48,691.95,336.35,691.95,336.7,691.92 V692.22 H336.38 C335.48,692.22,335.45,692.33,335.45,692.7 Z " />
</g>  </g>
</svg>
