<?xml version="1.0" encoding="UTF-8" standalone="no"?>
<!-- Created with Inkscape (http://www.inkscape.org/) -->

<svg
   xmlns:ns0="http://www.iki.fi/pav/software/textext/"
   xmlns:dc="http://purl.org/dc/elements/1.1/"
   xmlns:cc="http://creativecommons.org/ns#"
   xmlns:rdf="http://www.w3.org/1999/02/22-rdf-syntax-ns#"
   xmlns:svg="http://www.w3.org/2000/svg"
   xmlns="http://www.w3.org/2000/svg"
   xmlns:sodipodi="http://sodipodi.sourceforge.net/DTD/sodipodi-0.dtd"
   xmlns:inkscape="http://www.inkscape.org/namespaces/inkscape"
   width="210mm"
   height="297mm"
   viewBox="0 0 210 296.99999"
   version="1.1"
   id="svg8"
   inkscape:version="0.92.3 (2405546, 2018-03-11)"
   sodipodi:docname="original.svg">
  <sodipodi:namedview
     id="base"
     pagecolor="#ffffff"
     bordercolor="#666666"
     borderopacity="1.0"
     inkscape:pageopacity="0.0"
     inkscape:pageshadow="2"
     inkscape:zoom="0.84580652"
     inkscape:cx="264.79931"
     inkscape:cy="591.1675"
     inkscape:document-units="mm"
     inkscape:current-layer="layer1"
     showgrid="false"
     inkscape:window-width="2560"
     inkscape:window-height="1007"
     inkscape:window-x="0"
     inkscape:window-y="0"
     inkscape:window-maximized="1" />
  <defs
     id="defs2" />
  <metadata
     id="metadata5">
    <rdf:RDF>
      <cc:Work
         rdf:about="">
        <dc:format>image/svg+xml</dc:format>
        <dc:type
           rdf:resource="http://purl.org/dc/dcmitype/StillImage" />
        <dc:title />
      </cc:Work>
    </rdf:RDF>
  </metadata>
  <g
     id="layer1"
     inkscape:groupmode="layer"
     inkscape:label="Layer 1">
    <g
       ns0:preamble="/home/sergei/.config/inkscape/extensions/default_packages.tex"
       ns0:text="$$\\lim_{x \\to 0} \\frac{\\sin(x)}{x} = 1$$"
       text-anchor="start"
       word-spacing="normal"
       letter-spacing="normal"
       font-size-adjust="none"
       font-stretch="normal"
       font-weight="normal"
       font-variant="normal"
       font-style="normal"
       fill-opacity="1"
       fill-rule="evenodd"
       fill="black"
       stroke-opacity="1"
       stroke-dashoffset="0"
       stroke-dasharray="none"
       stroke-miterlimit="10.433"
       stroke-linejoin="miter"
       stroke-linecap="butt"
       stroke="black"
       xml:space="preserve"
       transform="matrix(1.000000, 0, 0, -1.000000, -200.395000, 844.040000)"
       id="content"
       style="fill:#ff0000;fill-opacity:1;stroke:#ff0000;stroke-opacity:1">
<path
   id="path815"
   fill="black"
   stroke-width="0"
   d="M276.48,698.81 L275.04,698.7 V698.39 C275.74,698.39,275.82,698.32,275.82,697.84 V692.67 C275.82,692.22,275.71,692.22,275.04,692.22 V691.92 C275.37,691.93,275.9,691.95,276.15,691.95 C276.39,691.95,276.88,691.93,277.25,691.92 V692.22 C276.58,692.22,276.48,692.22,276.48,692.67 Z "
   style="fill:#ff0000;fill-opacity:1;stroke:#ff0000;stroke-opacity:1" />
<path
   id="path817"
   fill="black"
   stroke-width="0"
   d="M279.24,696.31 L277.85,696.2 V695.89 C278.49,695.89,278.58,695.83,278.58,695.34 V692.67 C278.58,692.22,278.48,692.22,277.81,692.22 V691.92 C278.13,691.93,278.66,691.95,278.9,691.95 C279.25,691.95,279.6,691.93,279.94,691.92 V692.22 C279.28,692.22,279.24,692.28,279.24,692.66 Z "
   style="fill:#ff0000;fill-opacity:1;stroke:#ff0000;stroke-opacity:1" />
<path
   id="path819"
   fill="black"
   stroke-width="0"
   d="M279.28,698.04 L279.28,698.07 L279.28,698.09 L279.28,698.12 L279.27,698.15 L279.27,698.18 L279.26,698.2 L279.25,698.23 L279.24,698.25 L279.23,698.28 L279.22,698.3 L279.2,698.32 L279.19,698.34 L279.17,698.36 L279.16,698.38 L279.14,698.4 L279.12,698.42 L279.1,698.44 L279.09,698.45 L279.06,698.47 L279.04,698.48 L279.02,698.49 L279,698.5 L278.98,698.52 L278.95,698.53 L278.93,698.53 L278.91,698.54 L278.88,698.55 L278.86,698.55 L278.83,698.56 L278.81,698.56 L278.78,698.56 L278.75,698.56 C278.45,698.56,278.23,698.29,278.23,698.04 C278.23,697.77,278.45,697.51,278.75,697.51 C279.03,697.51,279.28,697.72,279.28,698.04 Z "
   style="fill:#ff0000;fill-opacity:1;stroke:#ff0000;stroke-opacity:1" />
<path
   id="path821"
   fill="black"
   stroke-width="0"
   d="M281.34,695.33 V692.67 C281.34,692.22,281.23,692.22,280.56,692.22 V691.92 C280.91,691.93,281.42,691.95,281.69,691.95 C281.95,691.95,282.47,691.93,282.81,691.92 V692.22 C282.14,692.22,282.03,692.22,282.03,692.67 V694.5 C282.03,695.53,282.74,696.09,283.38,696.09 C284.01,696.09,284.11,695.55,284.11,694.99 V692.67 C284.11,692.22,284.01,692.22,283.34,692.22 V691.92 C283.69,691.93,284.19,691.95,284.46,691.95 C284.72,691.95,285.24,691.93,285.58,691.92 V692.22 C284.91,692.22,284.8,692.22,284.8,692.67 V694.5 C284.8,695.53,285.51,696.09,286.15,696.09 C286.78,696.09,286.89,695.55,286.89,694.99 V692.67 C286.89,692.22,286.78,692.22,286.11,692.22 V691.92 C286.46,691.93,286.97,691.95,287.24,691.95 C287.49,691.95,288.01,691.93,288.35,691.92 V692.22 C287.83,692.22,287.58,692.22,287.58,692.52 V694.42 C287.58,695.28,287.58,695.58,287.27,695.94 C287.13,696.11,286.8,696.31,286.22,696.31 C285.38,696.31,284.94,695.71,284.77,695.33 C284.63,696.2,283.89,696.31,283.45,696.31 C282.72,696.31,282.25,695.88,281.97,695.27 V696.31 L280.56,696.2 V695.89 C281.26,695.89,281.34,695.82,281.34,695.33 Z "
   style="fill:#ff0000;fill-opacity:1;stroke:#ff0000;stroke-opacity:1" />
<path
   id="path823"
   fill="black"
   stroke-width="0"
   d="M275.15,686.5 L275.15,686.48 L275.14,686.45 L275.13,686.43 L275.12,686.4 L275.11,686.38 L275.1,686.35 L275.09,686.33 L275.07,686.3 L275.06,686.28 L275.04,686.25 L275.03,686.23 L275.01,686.2 L274.99,686.18 L274.97,686.15 L274.95,686.13 L274.93,686.1 L274.91,686.08 L274.89,686.06 L274.87,686.04 L274.84,686.02 L274.82,686 L274.79,685.98 L274.77,685.96 L274.74,685.95 L274.71,685.94 L274.68,685.92 L274.65,685.91 L274.62,685.9 L274.59,685.9 L274.56,685.89 L274.53,685.89 L274.5,685.89 C274.48,685.89,274.27,685.89,274.12,685.98 C274.41,686.08,274.43,686.33,274.43,686.37 C274.43,686.52,274.31,686.62,274.15,686.62 C273.95,686.62,273.75,686.46,273.75,686.2 C273.75,685.85,274.14,685.69,274.48,685.69 C274.8,685.69,275.09,685.89,275.27,686.19 C275.43,685.82,275.82,685.69,276.1,685.69 C276.9,685.69,277.33,686.56,277.33,686.76 C277.33,686.85,277.24,686.85,277.22,686.85 C277.12,686.85,277.11,686.81,277.08,686.73 C276.94,686.25,276.52,685.89,276.13,685.89 C275.85,685.89,275.7,686.08,275.7,686.34 C275.7,686.52,275.87,687.15,276.06,687.92 C276.2,688.46,276.52,688.63,276.75,688.63 C276.76,688.63,276.98,688.63,277.13,688.54 C276.9,688.47,276.82,688.28,276.82,688.15 C276.82,688,276.94,687.9,277.1,687.9 C277.26,687.9,277.49,688.03,277.49,688.32 C277.49,688.71,277.04,688.83,276.76,688.83 C276.41,688.83,276.13,688.6,275.98,688.34 C275.85,688.62,275.53,688.83,275.14,688.83 C274.36,688.83,273.91,687.97,273.91,687.77 C273.91,687.67,274.01,687.67,274.03,687.67 C274.12,687.67,274.13,687.7,274.16,687.79 C274.34,688.34,274.78,688.63,275.12,688.63 C275.35,688.63,275.54,688.51,275.54,688.17 C275.54,688.04,275.45,687.69,275.39,687.45 Z "
   style="fill:#ff0000;fill-opacity:1;stroke:#ff0000;stroke-opacity:1" />
<path
   id="path825"
   fill="black"
   stroke-width="0"
   d="M284.36,687.33 L284.28,687.27 L284.21,687.21 L284.14,687.15 L284.07,687.08 L284,687.02 L283.94,686.95 L283.89,686.89 L283.84,686.82 L283.79,686.76 L283.74,686.69 L283.7,686.63 L283.66,686.56 L283.62,686.5 L283.59,686.44 L283.56,686.38 L283.53,686.32 L283.51,686.26 L283.49,686.21 L283.47,686.15 L283.45,686.1 L283.43,686.06 L283.42,686.01 L283.41,685.97 L283.4,685.93 L283.39,685.9 L283.38,685.87 L283.38,685.84 L283.37,685.82 L283.37,685.8 L283.37,685.79 L283.36,685.78 L283.36,685.78 C283.36,685.67,283.43,685.67,283.53,685.67 C283.66,685.67,283.68,685.67,283.71,685.79 C283.76,685.96,283.87,686.41,284.23,686.79 C284.64,687.22,284.99,687.32,285.28,687.41 C285.32,687.42,285.35,687.47,285.35,687.5 C285.35,687.57,285.31,687.58,285.22,687.61 C284.21,687.93,283.85,688.64,283.71,689.25 C283.68,689.34,283.63,689.34,283.53,689.34 C283.43,689.34,283.36,689.34,283.36,689.23 C283.36,689.22,283.43,688.75,283.78,688.27 C283.94,688.04,284.13,687.84,284.36,687.67 H278.75 C278.64,687.67,278.47,687.67,278.47,687.51 C278.47,687.33,278.63,687.33,278.75,687.33 Z "
   style="fill:#ff0000;fill-opacity:1;stroke:#ff0000;stroke-opacity:1" />
<path
   id="path827"
   fill="black"
   stroke-width="0"
   d="M289.48,687.98 L289.48,688.12 L289.48,688.26 L289.47,688.39 L289.46,688.52 L289.45,688.64 L289.44,688.76 L289.42,688.87 L289.4,688.98 L289.37,689.09 L289.34,689.2 L289.31,689.3 L289.27,689.4 L289.23,689.5 L289.18,689.6 L289.13,689.69 L289.1,689.74 L289.07,689.78 C288.85,690.1,288.42,690.38,287.86,690.38 V690.18 C288.24,690.18,288.6,689.96,288.73,689.55 C288.84,689.18,288.85,688.68,288.85,688.07 C288.85,687.56,288.85,687.04,288.75,686.6 C288.61,685.97,288.14,685.82,287.86,685.82 H287.86 C287.54,685.82,287.11,686.01,286.97,686.58 C286.87,686.99,286.87,687.56,286.87,688.07 C286.87,688.58,286.87,689.11,286.98,689.49 C287.12,690.04,287.57,690.18,287.86,690.18 V690.38 C286.24,690.38,286.24,688.48,286.24,687.98 C286.24,687.48,286.24,685.62,287.86,685.62 C289.48,685.62,289.48,687.48,289.48,687.98 Z "
   style="fill:#ff0000;fill-opacity:1;stroke:#ff0000;stroke-opacity:1" />
<path
   id="path829"
   fill="black"
   stroke-width="0"
   d="M294.77,700.58 L294.8,700.58 L294.82,700.57 L294.85,700.57 L294.88,700.56 L294.92,700.55 L294.95,700.55 L294.99,700.54 L295.03,700.52 L295.07,700.51 L295.11,700.5 L295.16,700.48 L295.2,700.47 L295.24,700.45 L295.29,700.43 L295.33,700.4 L295.37,700.38 L295.42,700.35 L295.46,700.33 L295.5,700.3 L295.54,700.26 L295.58,700.23 L295.61,700.19 L295.65,700.15 L295.68,700.11 L295.71,700.06 L295.72,700.04 L295.73,700.02 L295.75,699.99 L295.76,699.97 L295.77,699.94 L295.78,699.91 L295.78,699.89 L295.79,699.86 L295.8,699.83 L295.8,699.8 L295.81,699.77 L295.81,699.74 L295.81,699.7 L295.81,699.67 C295.81,699.16,295.46,698.77,294.68,698.77 C293.85,698.77,293.49,699.33,293.3,700.18 C293.27,700.31,293.26,700.35,293.16,700.35 C293.03,700.35,293.03,700.28,293.03,700.1 V698.79 C293.03,698.62,293.03,698.55,293.14,698.55 C293.19,698.55,293.2,698.56,293.39,698.75 C293.41,698.77,293.41,698.79,293.59,698.97 C294.03,698.56,294.48,698.55,294.68,698.55 C295.83,698.55,296.29,699.21,296.29,699.93 C296.29,700.46,295.99,700.75,295.87,700.87 C295.54,701.19,295.15,701.27,294.73,701.35 C294.18,701.46,293.51,701.59,293.51,702.16 C293.51,702.51,293.77,702.92,294.62,702.92 C295.72,702.92,295.77,702.03,295.79,701.72 C295.8,701.63,295.89,701.63,295.91,701.63 C296.04,701.63,296.04,701.68,296.04,701.87 V702.87 C296.04,703.04,296.04,703.11,295.93,703.11 C295.88,703.11,295.86,703.11,295.73,702.99 C295.7,702.95,295.6,702.86,295.56,702.83 C295.18,703.11,294.77,703.11,294.62,703.11 C293.41,703.11,293.03,702.44,293.03,701.89 C293.03,701.54,293.19,701.26,293.46,701.04 C293.78,700.78,294.06,700.72,294.77,700.58 Z "
   style="fill:#ff0000;fill-opacity:1;stroke:#ff0000;stroke-opacity:1" />
<path
   id="path831"
   fill="black"
   stroke-width="0"
   d="M298.39,703.05 L297,702.94 V702.63 C297.65,702.63,297.74,702.57,297.74,702.08 V699.41 C297.74,698.97,297.63,698.97,296.96,698.97 V698.66 C297.28,698.67,297.82,698.69,298.05,698.69 C298.4,698.69,298.75,698.67,299.09,698.66 V698.97 C298.43,698.97,298.39,699.02,298.39,699.4 Z "
   style="fill:#ff0000;fill-opacity:1;stroke:#ff0000;stroke-opacity:1" />
<path
   id="path833"
   fill="black"
   stroke-width="0"
   d="M298.43,704.78 L298.43,704.81 L298.43,704.83 L298.43,704.86 L298.42,704.89 L298.42,704.92 L298.41,704.94 L298.4,704.97 L298.39,704.99 L298.38,705.02 L298.37,705.04 L298.35,705.06 L298.34,705.08 L298.33,705.1 L298.31,705.12 L298.29,705.14 L298.27,705.16 L298.26,705.18 L298.24,705.19 L298.22,705.21 L298.2,705.22 L298.17,705.23 L298.15,705.24 L298.13,705.26 L298.11,705.27 L298.08,705.27 L298.06,705.28 L298.03,705.29 L298.01,705.29 L297.98,705.3 L297.96,705.3 L297.93,705.3 L297.91,705.3 C297.6,705.3,297.38,705.03,297.38,704.78 C297.38,704.51,297.6,704.25,297.91,704.25 C298.18,704.25,298.43,704.46,298.43,704.78 Z "
   style="fill:#ff0000;fill-opacity:1;stroke:#ff0000;stroke-opacity:1" />
<path
   id="path835"
   fill="black"
   stroke-width="0"
   d="M300.49,702.07 V699.41 C300.49,698.97,300.38,698.97,299.72,698.97 V698.66 C300.07,698.67,300.57,698.69,300.84,698.69 C301.1,698.69,301.62,698.67,301.96,698.66 V698.97 C301.29,698.97,301.18,698.97,301.18,699.41 V701.24 C301.18,702.27,301.89,702.83,302.53,702.83 C303.16,702.83,303.27,702.29,303.27,701.73 V699.41 C303.27,698.97,303.16,698.97,302.49,698.97 V698.66 C302.84,698.67,303.35,698.69,303.61,698.69 C303.87,698.69,304.39,698.67,304.73,698.66 V698.97 C304.21,698.97,303.96,698.97,303.95,699.26 V701.16 C303.95,702.02,303.95,702.32,303.64,702.68 C303.51,702.85,303.18,703.05,302.6,703.05 C301.87,703.05,301.4,702.62,301.12,702.01 V703.05 L299.72,702.94 V702.63 C300.41,702.63,300.49,702.56,300.49,702.07 Z "
   style="fill:#ff0000;fill-opacity:1;stroke:#ff0000;stroke-opacity:1" />
<path
   id="path837"
   fill="black"
   stroke-width="0"
   d="M308.23,696.27 L308.23,696.28 L308.23,696.28 L308.23,696.29 L308.23,696.29 L308.23,696.29 L308.23,696.3 L308.23,696.3 L308.23,696.3 L308.23,696.31 L308.22,696.31 L308.22,696.32 L308.22,696.32 L308.22,696.32 L308.21,696.33 L308.21,696.34 L308.2,696.34 L308.2,696.35 L308.19,696.36 L308.19,696.36 L308.18,696.36 L308.18,696.37 L308.18,696.37 L308.17,696.38 L308.17,696.38 L308.17,696.39 L308.16,696.39 L308.16,696.4 L308.15,696.4 L308.15,696.41 L308.14,696.41 L308.14,696.42 L308.13,696.42 L308.13,696.43 L308.12,696.43 L308.11,696.44 L308.11,696.45 L308.1,696.45 L308.09,696.46 L308.09,696.47 L308.08,696.48 L308.07,696.48 L308.06,696.49 C306.82,697.74,306.5,699.62,306.5,701.14 C306.5,702.87,306.88,704.6,308.1,705.84 C308.23,705.96,308.23,705.98,308.23,706.01 C308.23,706.08,308.19,706.11,308.13,706.11 C308.03,706.11,307.14,705.43,306.55,704.17 C306.04,703.08,305.92,701.97,305.92,701.14 C305.92,700.37,306.03,699.16,306.58,698.04 C307.18,696.82,308.03,696.17,308.13,696.17 C308.19,696.17,308.23,696.2,308.23,696.27 Z "
   style="fill:#ff0000;fill-opacity:1;stroke:#ff0000;stroke-opacity:1" />
<path
   id="path839"
   fill="black"
   stroke-width="0"
   d="M312.14,701.66 L312.14,701.68 L312.15,701.71 L312.16,701.75 L312.17,701.78 L312.18,701.82 L312.19,701.86 L312.2,701.9 L312.22,701.95 L312.23,702 L312.25,702.04 L312.27,702.09 L312.29,702.14 L312.31,702.19 L312.34,702.24 L312.36,702.29 L312.39,702.34 L312.42,702.39 L312.45,702.44 L312.49,702.48 L312.52,702.53 L312.56,702.57 L312.6,702.61 L312.64,702.65 L312.68,702.68 L312.73,702.71 L312.78,702.74 L312.8,702.76 L312.83,702.77 L312.86,702.78 L312.88,702.79 L312.91,702.8 L312.94,702.81 L312.97,702.81 L313,702.82 L313.03,702.82 L313.06,702.83 L313.09,702.83 L313.12,702.83 C313.17,702.83,313.41,702.83,313.62,702.7 C313.34,702.65,313.14,702.4,313.14,702.16 C313.14,702.01,313.25,701.82,313.52,701.82 C313.74,701.82,314.06,701.99,314.06,702.39 C314.06,702.91,313.47,703.05,313.13,703.05 C312.56,703.05,312.21,702.52,312.09,702.29 C311.84,702.95,311.3,703.05,311.01,703.05 C309.97,703.05,309.4,701.77,309.4,701.52 C309.4,701.42,309.5,701.42,309.52,701.42 C309.6,701.42,309.63,701.44,309.65,701.53 C309.99,702.58,310.65,702.83,310.99,702.83 C311.18,702.83,311.53,702.74,311.53,702.16 C311.53,701.86,311.36,701.19,310.99,699.8 C310.83,699.18,310.48,698.77,310.04,698.77 C309.98,698.77,309.75,698.77,309.54,698.9 C309.79,698.95,310.01,699.15,310.01,699.43 C310.01,699.7,309.79,699.78,309.64,699.78 C309.34,699.78,309.1,699.52,309.1,699.2 C309.1,698.75,309.59,698.55,310.03,698.55 C310.69,698.55,311.05,699.24,311.08,699.3 C311.2,698.93,311.56,698.55,312.16,698.55 C313.18,698.55,313.75,699.83,313.75,700.08 C313.75,700.18,313.66,700.18,313.63,700.18 C313.54,700.18,313.52,700.14,313.5,700.07 C313.17,699.01,312.5,698.77,312.18,698.77 C311.79,698.77,311.63,699.08,311.63,699.42 C311.63,699.64,311.69,699.86,311.8,700.3 Z "
   style="fill:#ff0000;fill-opacity:1;stroke:#ff0000;stroke-opacity:1" />
<path
   id="path841"
   fill="black"
   stroke-width="0"
   d="M317.38,701.14 L317.38,701.21 L317.38,701.29 L317.38,701.37 L317.38,701.45 L317.37,701.62 L317.36,701.79 L317.34,701.98 L317.32,702.17 L317.29,702.36 L317.26,702.56 L317.22,702.76 L317.17,702.97 L317.12,703.18 L317.06,703.39 L316.99,703.6 L316.91,703.82 L316.87,703.92 L316.82,704.03 L316.77,704.13 L316.72,704.24 C316.12,705.46,315.27,706.11,315.17,706.11 C315.11,706.11,315.07,706.07,315.07,706.01 C315.07,705.98,315.07,705.96,315.26,705.78 C316.23,704.8,316.8,703.22,316.8,701.14 C316.8,699.44,316.43,697.69,315.2,696.44 C315.07,696.32,315.07,696.3,315.07,696.27 C315.07,696.21,315.11,696.17,315.17,696.17 C315.27,696.17,316.17,696.85,316.75,698.11 C317.26,699.2,317.38,700.31,317.38,701.14 Z "
   style="fill:#ff0000;fill-opacity:1;stroke:#ff0000;stroke-opacity:1" />
<line
   id="line843"
   fill="black"
   stroke-width="0.398"
   y2="694.41"
   x2="318.38"
   y1="694.41"
   x1="292.7"
   style="fill:#ff0000;fill-opacity:1;stroke:#ff0000;stroke-opacity:1" />
<path
   id="path845"
   fill="black"
   stroke-width="0"
   d="M306.02,688.08 L306.03,688.11 L306.04,688.14 L306.04,688.17 L306.05,688.21 L306.06,688.25 L306.08,688.29 L306.09,688.33 L306.1,688.37 L306.12,688.42 L306.14,688.47 L306.16,688.52 L306.18,688.57 L306.2,688.62 L306.22,688.67 L306.25,688.72 L306.28,688.77 L306.31,688.81 L306.34,688.86 L306.37,688.91 L306.41,688.95 L306.44,688.99 L306.48,689.04 L306.52,689.07 L306.57,689.11 L306.62,689.14 L306.66,689.17 L306.69,689.18 L306.71,689.19 L306.74,689.21 L306.77,689.22 L306.8,689.22 L306.82,689.23 L306.85,689.24 L306.88,689.24 L306.91,689.25 L306.94,689.25 L306.98,689.25 L307.01,689.26 C307.06,689.26,307.3,689.26,307.51,689.13 C307.23,689.08,307.03,688.83,307.03,688.59 C307.03,688.43,307.14,688.24,307.41,688.24 C307.63,688.24,307.95,688.42,307.95,688.82 C307.95,689.34,307.36,689.47,307.02,689.47 C306.44,689.47,306.09,688.95,305.97,688.72 C305.72,689.37,305.18,689.47,304.89,689.47 C303.86,689.47,303.29,688.19,303.29,687.94 C303.29,687.84,303.39,687.84,303.41,687.84 C303.49,687.84,303.52,687.86,303.54,687.95 C303.88,689.01,304.54,689.26,304.88,689.26 C305.06,689.26,305.41,689.17,305.41,688.59 C305.41,688.28,305.24,687.62,304.88,686.22 C304.71,685.61,304.37,685.19,303.93,685.19 C303.87,685.19,303.64,685.19,303.43,685.32 C303.68,685.37,303.9,685.58,303.9,685.86 C303.9,686.13,303.68,686.21,303.53,686.21 C303.23,686.21,302.98,685.95,302.98,685.63 C302.98,685.17,303.48,684.97,303.92,684.97 C304.58,684.97,304.93,685.67,304.96,685.73 C305.08,685.36,305.44,684.97,306.04,684.97 C307.07,684.97,307.64,686.26,307.64,686.5 C307.64,686.6,307.55,686.6,307.52,686.6 C307.43,686.6,307.41,686.56,307.39,686.49 C307.06,685.43,306.38,685.19,306.06,685.19 C305.67,685.19,305.51,685.51,305.51,685.85 C305.51,686.07,305.57,686.28,305.68,686.72 Z "
   style="fill:#ff0000;fill-opacity:1;stroke:#ff0000;stroke-opacity:1" />
<path
   id="path847"
   fill="black"
   stroke-width="0"
   d="M329.19,695.16 L329.22,695.17 L329.25,695.17 L329.28,695.17 L329.29,695.17 L329.3,695.17 L329.32,695.17 L329.33,695.17 L329.35,695.17 L329.36,695.18 L329.38,695.18 L329.39,695.18 L329.4,695.19 L329.41,695.19 L329.43,695.19 L329.44,695.2 L329.45,695.21 L329.46,695.21 L329.47,695.22 L329.48,695.23 L329.49,695.24 L329.5,695.25 L329.5,695.25 L329.5,695.26 L329.51,695.27 L329.51,695.27 L329.51,695.28 L329.51,695.28 L329.52,695.29 L329.52,695.3 L329.52,695.31 L329.52,695.31 L329.52,695.32 L329.53,695.33 L329.53,695.34 L329.53,695.35 L329.53,695.35 L329.53,695.36 C329.53,695.56,329.34,695.56,329.2,695.56 H323.23 C323.09,695.56,322.9,695.56,322.9,695.36 C322.9,695.16,323.09,695.16,323.24,695.16 Z "
   style="fill:#ff0000;fill-opacity:1;stroke:#ff0000;stroke-opacity:1" />
<path
   id="path849"
   fill="black"
   stroke-width="0"
   d="M329.2,693.24 L329.21,693.24 L329.23,693.24 L329.25,693.24 L329.28,693.24 L329.3,693.24 L329.31,693.24 L329.32,693.24 L329.34,693.24 L329.35,693.25 L329.36,693.25 L329.38,693.25 L329.39,693.25 L329.4,693.26 L329.42,693.26 L329.43,693.27 L329.44,693.27 L329.45,693.28 L329.46,693.29 L329.47,693.29 L329.48,693.3 L329.49,693.31 L329.49,693.32 L329.5,693.32 L329.5,693.33 L329.5,693.33 L329.51,693.34 L329.51,693.34 L329.51,693.35 L329.52,693.36 L329.52,693.36 L329.52,693.37 L329.52,693.38 L329.52,693.39 L329.52,693.39 L329.53,693.4 L329.53,693.41 L329.53,693.42 L329.53,693.43 L329.53,693.44 C329.53,693.64,329.34,693.64,329.19,693.64 H323.24 C323.09,693.64,322.9,693.64,322.9,693.44 C322.9,693.24,323.09,693.24,323.23,693.24 Z "
   style="fill:#ff0000;fill-opacity:1;stroke:#ff0000;stroke-opacity:1" />
<path
   id="path851"
   fill="black"
   stroke-width="0"
   d="M335.79,698.28 L335.79,698.29 L335.79,698.3 L335.79,698.31 L335.79,698.32 L335.79,698.33 L335.79,698.34 L335.79,698.35 L335.79,698.35 L335.79,698.36 L335.79,698.37 L335.79,698.38 L335.79,698.39 L335.79,698.39 L335.79,698.4 L335.79,698.41 L335.78,698.42 L335.78,698.42 L335.78,698.43 L335.78,698.44 L335.78,698.45 L335.78,698.46 L335.77,698.47 L335.77,698.48 L335.76,698.49 L335.76,698.49 L335.75,698.5 L335.75,698.5 L335.74,698.51 L335.73,698.51 L335.72,698.52 L335.72,698.52 L335.71,698.52 L335.71,698.52 L335.7,698.52 L335.7,698.53 L335.69,698.53 L335.69,698.53 L335.68,698.53 L335.67,698.53 L335.67,698.53 L335.66,698.53 L335.65,698.53 L335.64,698.53 L335.63,698.53 L335.63,698.53 L335.62,698.53 L335.61,698.53 L335.6,698.53 L335.59,698.53 L335.58,698.53 L335.57,698.53 L335.56,698.53 C334.94,697.9,334.06,697.9,333.74,697.9 V697.59 C333.94,697.59,334.53,697.59,335.05,697.85 V692.7 C335.05,692.34,335.02,692.22,334.12,692.22 H333.8 V691.92 C334.15,691.95,335.02,691.95,335.42,691.95 C335.82,691.95,336.69,691.95,337.04,691.92 V692.22 H336.72 C335.82,692.22,335.79,692.33,335.79,692.7 Z "
   style="fill:#ff0000;fill-opacity:1;stroke:#ff0000;stroke-opacity:1" />
</g>  </g>
</svg>
